  0
SECTION
  2
HEADER
  9
$ACADVER
  1
AC1024
  9
$ACADMAINTVER
 70
6
  9
$DWGCODEPAGE
  3
ANSI_1252
  9
$LASTSAVEDBY
  1
ezdxf
  9
$INSBASE
 10
0.0
 20
0.0
 30
0.0
  9
$EXTMIN
 10
-0.01
 20
-0.01
 30
0.0
  9
$EXTMAX
 10
1190.0
 20
640.0
 30
0.0
  9
$LIMMIN
 10
0.0
 20
0.0
  9
$LIMMAX
 10
1190.0
 20
640.0
  9
$ORTHOMODE
 70
0
  9
$REGENMODE
 70
1
  9
$FILLMODE
 70
1
  9
$QTEXTMODE
 70
0
  9
$MIRRTEXT
 70
1
  9
$LTSCALE
 40
1.0
  9
$ATTMODE
 70
1
  9
$TEXTSIZE
 40
2.5
  9
$TRACEWID
 40
1.0
  9
$TEXTSTYLE
  7
Standard
  9
$CLAYER
  8
0
  9
$CELTYPE
  6
ByLayer
  9
$CECOLOR
 62
256
  9
$CELTSCALE
 40
1.0
  9
$DISPSILH
 70
0
  9
$DIMSCALE
 40
1.0
  9
$DIMASZ
 40
2.5
  9
$DIMEXO
 40
0.625
  9
$DIMDLI
 40
3.75
  9
$DIMRND
 40
0.0
  9
$DIMDLE
 40
0.0
  9
$DIMEXE
 40
1.25
  9
$DIMTP
 40
0.0
  9
$DIMTM
 40
0.0
  9
$DIMTXT
 40
2.5
  9
$DIMCEN
 40
2.5
  9
$DIMTSZ
 40
0.0
  9
$DIMTOL
 70
0
  9
$DIMLIM
 70
0
  9
$DIMTIH
 70
0
  9
$DIMTOH
 70
0
  9
$DIMSE1
 70
0
  9
$DIMSE2
 70
0
  9
$DIMTAD
 70
1
  9
$DIMZIN
 70
8
  9
$DIMBLK
  1

  9
$DIMASO
 70
1
  9
$DIMSHO
 70
1
  9
$DIMPOST
  1

  9
$DIMAPOST
  1

  9
$DIMALT
 70
0
  9
$DIMALTD
 70
3
  9
$DIMALTF
 40
0.03937007874
  9
$DIMLFAC
 40
1.0
  9
$DIMTOFL
 70
1
  9
$DIMTVP
 40
0.0
  9
$DIMTIX
 70
0
  9
$DIMSOXD
 70
0
  9
$DIMSAH
 70
0
  9
$DIMBLK1
  1

  9
$DIMBLK2
  1

  9
$DIMSTYLE
  2
ISO-25
  9
$DIMCLRD
 70
0
  9
$DIMCLRE
 70
0
  9
$DIMCLRT
 70
0
  9
$DIMTFAC
 40
1.0
  9
$DIMGAP
 40
0.625
  9
$DIMJUST
 70
0
  9
$DIMSD1
 70
0
  9
$DIMSD2
 70
0
  9
$DIMTOLJ
 70
0
  9
$DIMTZIN
 70
8
  9
$DIMALTZ
 70
0
  9
$DIMALTTZ
 70
0
  9
$DIMUPT
 70
0
  9
$DIMDEC
 70
2
  9
$DIMTDEC
 70
2
  9
$DIMALTU
 70
2
  9
$DIMALTTD
 70
3
  9
$DIMTXSTY
  7
Standard
  9
$DIMAUNIT
 70
0
  9
$DIMADEC
 70
0
  9
$DIMALTRND
 40
0.0
  9
$DIMAZIN
 70
0
  9
$DIMDSEP
 70
44
  9
$DIMATFIT
 70
3
  9
$DIMFRAC
 70
0
  9
$DIMLDRBLK
  1

  9
$DIMLUNIT
 70
2
  9
$DIMLWD
 70
-2
  9
$DIMLWE
 70
-2
  9
$DIMTMOVE
 70
0
  9
$DIMFXL
 40
1.0
  9
$DIMFXLON
 70
0
  9
$DIMJOGANG
 40
0.785398163397
  9
$DIMTFILL
 70
0
  9
$DIMTFILLCLR
 70
0
  9
$DIMARCSYM
 70
0
  9
$DIMLTYPE
  6

  9
$DIMLTEX1
  6

  9
$DIMLTEX2
  6

  9
$DIMTXTDIRECTION
 70
0
  9
$LUNITS
 70
2
  9
$LUPREC
 70
4
  9
$SKETCHINC
 40
1.0
  9
$FILLETRAD
 40
10.0
  9
$AUNITS
 70
0
  9
$AUPREC
 70
2
  9
$MENU
  1
.
  9
$ELEVATION
 40
0.0
  9
$PELEVATION
 40
0.0
  9
$THICKNESS
 40
0.0
  9
$LIMCHECK
 70
0
  9
$CHAMFERA
 40
0.0
  9
$CHAMFERB
 40
0.0
  9
$CHAMFERC
 40
0.0
  9
$CHAMFERD
 40
0.0
  9
$SKPOLY
 70
0
  9
$TDCREATE
 40
2461281.1242824076
  9
$TDUCREATE
 40
2458532.153996898
  9
$TDUPDATE
 40
2461281.1242824076
  9
$TDUUPDATE
 40
2458532.1544311
  9
$TDINDWG
 40
0.0
  9
$TDUSRTIMER
 40
0.0
  9
$USRTIMER
 70
1
  9
$ANGBASE
 50
0.0
  9
$ANGDIR
 70
0
  9
$PDMODE
 70
0
  9
$PDSIZE
 40
0.0
  9
$PLINEWID
 40
0.0
  9
$SPLFRAME
 70
0
  9
$SPLINETYPE
 70
6
  9
$SPLINESEGS
 70
8
  9
$HANDSEED
  5
126
  9
$SURFTAB1
 70
6
  9
$SURFTAB2
 70
6
  9
$SURFTYPE
 70
6
  9
$SURFU
 70
6
  9
$SURFV
 70
6
  9
$UCSBASE
  2

  9
$UCSNAME
  2

  9
$UCSORG
 10
0.0
 20
0.0
 30
0.0
  9
$UCSXDIR
 10
1.0
 20
0.0
 30
0.0
  9
$UCSYDIR
 10
0.0
 20
1.0
 30
0.0
  9
$UCSORTHOREF
  2

  9
$UCSORTHOVIEW
 70
0
  9
$UCSORGTOP
 10
0.0
 20
0.0
 30
0.0
  9
$UCSORGBOTTOM
 10
0.0
 20
0.0
 30
0.0
  9
$UCSORGLEFT
 10
0.0
 20
0.0
 30
0.0
  9
$UCSORGRIGHT
 10
0.0
 20
0.0
 30
0.0
  9
$UCSORGFRONT
 10
0.0
 20
0.0
 30
0.0
  9
$UCSORGBACK
 10
0.0
 20
0.0
 30
0.0
  9
$PUCSBASE
  2

  9
$PUCSNAME
  2

  9
$PUCSORG
 10
0.0
 20
0.0
 30
0.0
  9
$PUCSXDIR
 10
1.0
 20
0.0
 30
0.0
  9
$PUCSYDIR
 10
0.0
 20
1.0
 30
0.0
  9
$PUCSORTHOREF
  2

  9
$PUCSORTHOVIEW
 70
0
  9
$PUCSORGTOP
 10
0.0
 20
0.0
 30
0.0
  9
$PUCSORGBOTTOM
 10
0.0
 20
0.0
 30
0.0
  9
$PUCSORGLEFT
 10
0.0
 20
0.0
 30
0.0
  9
$PUCSORGRIGHT
 10
0.0
 20
0.0
 30
0.0
  9
$PUCSORGFRONT
 10
0.0
 20
0.0
 30
0.0
  9
$PUCSORGBACK
 10
0.0
 20
0.0
 30
0.0
  9
$USERI1
 70
0
  9
$USERI2
 70
0
  9
$USERI3
 70
0
  9
$USERI4
 70
0
  9
$USERI5
 70
0
  9
$USERR1
 40
0.0
  9
$USERR2
 40
0.0
  9
$USERR3
 40
0.0
  9
$USERR4
 40
0.0
  9
$USERR5
 40
0.0
  9
$WORLDVIEW
 70
1
  9
$SHADEDGE
 70
3
  9
$SHADEDIF
 70
70
  9
$TILEMODE
 70
1
  9
$MAXACTVP
 70
64
  9
$PINSBASE
 10
0.0
 20
0.0
 30
0.0
  9
$PLIMCHECK
 70
0
  9
$PEXTMIN
 10
1e+20
 20
1e+20
 30
1e+20
  9
$PEXTMAX
 10
-1e+20
 20
-1e+20
 30
-1e+20
  9
$PLIMMIN
 10
0.0
 20
0.0
  9
$PLIMMAX
 10
420.0
 20
297.0
  9
$UNITMODE
 70
0
  9
$VISRETAIN
 70
1
  9
$PLINEGEN
 70
0
  9
$PSLTSCALE
 70
1
  9
$TREEDEPTH
 70
3020
  9
$CMLSTYLE
  2
Standard
  9
$CMLJUST
 70
0
  9
$CMLSCALE
 40
20.0
  9
$PROXYGRAPHICS
 70
1
  9
$MEASUREMENT
 70
1
  9
$CELWEIGHT
370
-1
  9
$ENDCAPS
280
0
  9
$JOINSTYLE
280
0
  9
$LWDISPLAY
290
0
  9
$INSUNITS
 70
4
  9
$HYPERLINKBASE
  1

  9
$STYLESHEET
  1

  9
$XEDIT
290
1
  9
$CEPSNTYPE
380
0
  9
$PSTYLEMODE
290
1
  9
$FINGERPRINTGUID
  2
{9611A410-9EB2-4662-935B-615D48188085}
  9
$VERSIONGUID
  2
{6BA26175-EF93-4419-99AE-694664736F82}
  9
$EXTNAMES
290
1
  9
$PSVPSCALE
 40
0.0
  9
$OLESTARTUP
290
0
  9
$SORTENTS
280
127
  9
$INDEXCTL
280
0
  9
$HIDETEXT
280
1
  9
$XCLIPFRAME
280
1
  9
$HALOGAP
280
0
  9
$OBSCOLOR
 70
257
  9
$OBSLTYPE
280
0
  9
$INTERSECTIONDISPLAY
280
0
  9
$INTERSECTIONCOLOR
 70
257
  9
$DIMASSOC
280
2
  9
$PROJECTNAME
  1

  9
$CAMERADISPLAY
290
0
  9
$LENSLENGTH
 40
50.0
  9
$CAMERAHEIGHT
 40
0.0
  9
$STEPSPERSEC
 40
24.0
  9
$STEPSIZE
 40
100.0
  9
$3DDWFPREC
 40
2.0
  9
$PSOLWIDTH
 40
0.005
  9
$PSOLHEIGHT
 40
0.08
  9
$LOFTANG1
 40
1.570796326795
  9
$LOFTANG2
 40
1.570796326795
  9
$LOFTMAG1
 40
0.0
  9
$LOFTMAG2
 40
0.0
  9
$LOFTPARAM
 70
7
  9
$LOFTNORMALS
280
1
  9
$LATITUDE
 40
37.795
  9
$LONGITUDE
 40
-122.394
  9
$NORTHDIRECTION
 40
0.0
  9
$TIMEZONE
 70
-8000
  9
$LIGHTGLYPHDISPLAY
280
1
  9
$TILEMODELIGHTSYNCH
280
1
  9
$CMATERIAL
347
20
  9
$SOLIDHIST
280
0
  9
$SHOWHIST
280
1
  9
$DWFFRAME
280
2
  9
$DGNFRAME
280
2
  9
$REALWORLDSCALE
290
1
  9
$INTERFERECOLOR
 62
256
  9
$CSHADOW
280
0
  9
$SHADOWPLANELOCATION
 40
0.0
  0
ENDSEC
  0
SECTION
  2
CLASSES
  0
CLASS
  1
ACDBDICTIONARYWDFLT
  2
AcDbDictionaryWithDefault
  3
ObjectDBX Classes
 90
0
 91
0
280
0
281
0
  0
CLASS
  1
SUN
  2
AcDbSun
  3
SCENEOE
 90
1153
 91
0
280
0
281
0
  0
CLASS
  1
VISUALSTYLE
  2
AcDbVisualStyle
  3
ObjectDBX Classes
 90
4095
 91
0
280
0
281
0
  0
CLASS
  1
MATERIAL
  2
AcDbMaterial
  3
ObjectDBX Classes
 90
1153
 91
0
280
0
281
0
  0
CLASS
  1
SCALE
  2
AcDbScale
  3
ObjectDBX Classes
 90
1153
 91
0
280
0
281
0
  0
CLASS
  1
TABLESTYLE
  2
AcDbTableStyle
  3
ObjectDBX Classes
 90
4095
 91
0
280
0
281
0
  0
CLASS
  1
MLEADERSTYLE
  2
AcDbMLeaderStyle
  3
ACDB_MLEADERSTYLE_CLASS
 90
4095
 91
0
280
0
281
0
  0
CLASS
  1
DICTIONARYVAR
  2
AcDbDictionaryVar
  3
ObjectDBX Classes
 90
0
 91
0
280
0
281
0
  0
CLASS
  1
CELLSTYLEMAP
  2
AcDbCellStyleMap
  3
ObjectDBX Classes
 90
1152
 91
0
280
0
281
0
  0
CLASS
  1
MENTALRAYRENDERSETTINGS
  2
AcDbMentalRayRenderSettings
  3
SCENEOE
 90
1024
 91
0
280
0
281
0
  0
CLASS
  1
ACDBDETAILVIEWSTYLE
  2
AcDbDetailViewStyle
  3
ObjectDBX Classes
 90
1025
 91
0
280
0
281
0
  0
CLASS
  1
ACDBSECTIONVIEWSTYLE
  2
AcDbSectionViewStyle
  3
ObjectDBX Classes
 90
1025
 91
0
280
0
281
0
  0
CLASS
  1
RASTERVARIABLES
  2
AcDbRasterVariables
  3
ISM
 90
0
 91
0
280
0
281
0
  0
CLASS
  1
LAYOUT
  2
AcDbLayout
  3
ObjectDBX Classes
 90
0
 91
0
280
0
281
0
  0
CLASS
  1
ACDBPLACEHOLDER
  2
AcDbPlaceHolder
  3
ObjectDBX Classes
 90
0
 91
0
280
0
281
0
  0
ENDSEC
  0
SECTION
  2
TABLES
  0
TABLE
  2
VPORT
  5
8
330
0
100
AcDbSymbolTable
 70
1
  0
VPORT
  5
23
330
8
100
AcDbSymbolTableRecord
100
AcDbViewportTableRecord
  2
*Active
 70
0
 10
0.0
 20
0.0
 11
1.0
 21
1.0
 12
0.0
 22
0.0
 13
0.0
 23
0.0
 14
0.5
 24
0.5
 15
0.5
 25
0.5
 16
0.0
 26
0.0
 36
1.0
 17
0.0
 27
0.0
 37
0.0
 40
1000.0
 41
1.34
 42
50.0
 43
0.0
 44
0.0
 50
0.0
 51
0.0
 71
0
 72
1000
 73
1
 74
3
 75
0
 76
0
 77
0
 78
0
281
0
 65
0
146
0.0
  0
ENDTAB
  0
TABLE
  2
LTYPE
  5
2
330
0
100
AcDbSymbolTable
 70
5
  0
LTYPE
  5
24
330
2
100
AcDbSymbolTableRecord
100
AcDbLinetypeTableRecord
  2
ByBlock
 70
0
  3

 72
65
 73
0
 40
0.0
  0
LTYPE
  5
25
330
2
100
AcDbSymbolTableRecord
100
AcDbLinetypeTableRecord
  2
ByLayer
 70
0
  3

 72
65
 73
0
 40
0.0
  0
LTYPE
  5
26
330
2
100
AcDbSymbolTableRecord
100
AcDbLinetypeTableRecord
  2
Continuous
 70
0
  3

 72
65
 73
0
 40
0.0
  0
LTYPE
  5
2F
330
2
100
AcDbSymbolTableRecord
100
AcDbLinetypeTableRecord
  2
DASHED
 70
0
  3
Штриховая — — — —
 72
65
 73
2
 40
9.0
 49
6.0
 74
0
 49
-3.0
 74
0
  0
LTYPE
  5
30
330
2
100
AcDbSymbolTableRecord
100
AcDbLinetypeTableRecord
  2
DASHDOT
 70
0
  3
Штрихпунктирная — · — · —
 72
65
 73
4
 40
14.0
 49
8.0
 74
0
 49
-3.0
 74
0
 49
0.0
 74
0
 49
-3.0
 74
0
  0
ENDTAB
  0
TABLE
  2
LAYER
  5
1
330
0
100
AcDbSymbolTable
 70
10
  0
LAYER
  5
27
330
1
100
AcDbSymbolTableRecord
100
AcDbLayerTableRecord
  2
0
 70
0
 62
7
  6
Continuous
370
-3
390
13
347
21
  0
LAYER
  5
28
330
1
100
AcDbSymbolTableRecord
100
AcDbLayerTableRecord
  2
Defpoints
 70
0
 62
7
  6
Continuous
290
0
370
-3
390
13
347
21
  0
LAYER
  5
32
330
1
100
AcDbSymbolTableRecord
100
AcDbLayerTableRecord
  2
GAS
 70
0
 62
30
420
14712622
  6
Continuous
370
35
390
13
347
21
1001
AcAecLayerStandard
1000

1000
Газовый тракт (оранжевый)
  0
LAYER
  5
34
330
1
100
AcDbSymbolTableRecord
100
AcDbLayerTableRecord
  2
LIQUID
 70
0
 62
5
420
2783446
  6
Continuous
370
35
390
13
347
21
1001
AcAecLayerStandard
1000

1000
Жидкостные потоки: кислота, растворы, вода (синий)
  0
LAYER
  5
35
330
1
100
AcDbSymbolTableRecord
100
AcDbLayerTableRecord
  2
DUST
 70
0
 62
6
420
10702494
  6
Continuous
370
35
390
13
347
21
1001
AcAecLayerStandard
1000

1000
Пылевой тракт: циклоны, фильтры (фиолетовый)
  0
LAYER
  5
36
330
1
100
AcDbSymbolTableRecord
100
AcDbLayerTableRecord
  2
ELECTRIC
 70
0
 62
2
420
16429593
  6
Continuous
370
30
390
13
347
21
1001
AcAecLayerStandard
1000

1000
Электрика / энергоснабжение (жёлтый)
  0
LAYER
  5
37
330
1
100
AcDbSymbolTableRecord
100
AcDbLayerTableRecord
  2
INTERLOCK
 70
0
 62
1
420
13646651
  6
Continuous
370
30
390
13
347
21
1001
AcAecLayerStandard
1000

1000
Блокировки и защиты (красный)
  0
LAYER
  5
38
330
1
100
AcDbSymbolTableRecord
100
AcDbLayerTableRecord
  2
OUTLINE
 70
0
 62
7
  6
Continuous
370
25
390
13
347
21
1001
AcAecLayerStandard
1000

1000
Контуры оборудования, строительная графика (ink)
  0
LAYER
  5
39
330
1
100
AcDbSymbolTableRecord
100
AcDbLayerTableRecord
  2
TEXT_RU
 70
0
 62
7
  6
Continuous
370
25
390
13
347
21
1001
AcAecLayerStandard
1000

1000
Надписи (русские, UTF-8)
  0
LAYER
  5
3A
330
1
100
AcDbSymbolTableRecord
100
AcDbLayerTableRecord
  2
DIM
 70
0
 62
8
  6
Continuous
370
13
390
13
347
21
1001
AcAecLayerStandard
1000

1000
Размерные и вспомогательные линии, рамка, сетка
  0
ENDTAB
  0
TABLE
  2
STYLE
  5
5
330
0
100
AcDbSymbolTable
 70
2
  0
STYLE
  5
29
330
5
100
AcDbSymbolTableRecord
100
AcDbTextStyleTableRecord
  2
Standard
 70
0
 40
0.0
 41
1.0
 50
0.0
 71
0
 42
2.5
  3
txt
  4

  0
STYLE
  5
31
330
5
100
AcDbSymbolTableRecord
100
AcDbTextStyleTableRecord
  2
TXTRU
 70
0
 40
0.0
 41
1.0
 50
0.0
 71
0
 42
2.5
  3
arial.ttf
  4

  0
ENDTAB
  0
TABLE
  2
VIEW
  5
7
330
0
100
AcDbSymbolTable
 70
0
  0
ENDTAB
  0
TABLE
  2
UCS
  5
6
330
0
100
AcDbSymbolTable
 70
0
  0
ENDTAB
  0
TABLE
  2
APPID
  5
3
330
0
100
AcDbSymbolTable
 70
4
  0
APPID
  5
2A
330
3
100
AcDbSymbolTableRecord
100
AcDbRegAppTableRecord
  2
ACAD
 70
0
  0
APPID
  5
33
330
3
100
AcDbSymbolTableRecord
100
AcDbRegAppTableRecord
  2
AcAecLayerStandard
 70
0
  0
APPID
  5
123
330
3
100
AcDbSymbolTableRecord
100
AcDbRegAppTableRecord
  2
HATCHBACKGROUNDCOLOR
 70
0
  0
APPID
  5
124
330
3
100
AcDbSymbolTableRecord
100
AcDbRegAppTableRecord
  2
EZDXF
 70
0
  0
ENDTAB
  0
TABLE
  2
DIMSTYLE
  5
4
330
0
100
AcDbSymbolTable
 70
1
100
AcDbDimStyleTable
  0
DIMSTYLE
105
2B
330
4
100
AcDbSymbolTableRecord
100
AcDbDimStyleTableRecord
  2
Standard
 70
0
 40
1.0
 41
2.5
 42
0.625
 43
3.75
 44
1.25
 45
0.0
 46
0.0
 47
0.0
 48
0.0
 49
2.5
140
2.5
141
2.5
142
0.0
143
0.03937007874
144
1.0
145
0.0
146
1.0
147
0.625
148
0.0
 69
0
 70
0
 71
0
 72
0
 73
0
 74
0
 75
0
 76
0
 77
1
 78
8
 79
3
170
0
171
3
172
1
173
0
174
0
175
0
176
0
177
0
178
0
179
2
271
2
272
2
273
2
274
3
275
0
276
0
277
2
278
44
279
0
280
0
281
0
282
0
283
0
284
8
285
0
286
0
288
0
289
3
290
0
371
-2
372
-2
  0
ENDTAB
  0
TABLE
  2
BLOCK_RECORD
  5
9
330
0
100
AcDbSymbolTable
 70
2
  0
BLOCK_RECORD
  5
17
330
9
100
AcDbSymbolTableRecord
100
AcDbBlockTableRecord
  2
*Model_Space
340
1A
 70
0
280
1
281
0
  0
BLOCK_RECORD
  5
1B
330
9
100
AcDbSymbolTableRecord
100
AcDbBlockTableRecord
  2
*Paper_Space
340
1E
 70
0
280
1
281
0
  0
ENDTAB
  0
ENDSEC
  0
SECTION
  2
BLOCKS
  0
BLOCK
  5
18
330
17
100
AcDbEntity
  8
0
100
AcDbBlockBegin
  2
*Model_Space
 70
0
 10
0.0
 20
0.0
 30
0.0
  3
*Model_Space
  1

  0
ENDBLK
  5
19
330
17
100
AcDbEntity
  8
0
100
AcDbBlockEnd
  0
BLOCK
  5
1C
330
1B
100
AcDbEntity
  8
0
100
AcDbBlockBegin
  2
*Paper_Space
 70
0
 10
0.0
 20
0.0
 30
0.0
  3
*Paper_Space
  1

  0
ENDBLK
  5
1D
330
1B
100
AcDbEntity
  8
0
100
AcDbBlockEnd
  0
ENDSEC
  0
SECTION
  2
ENTITIES
  0
LWPOLYLINE
  5
3B
330
17
100
AcDbEntity
  8
DIM
420
15198183
100
AcDbPolyline
 90
4
 70
1
 10
6.0
 20
634.0
 10
1184.0
 20
634.0
 10
1184.0
 20
6.0
 10
6.0
 20
6.0
  0
TEXT
  5
3C
330
17
100
AcDbEntity
  8
TEXT_RU
100
AcDbText
 10
20.0
 20
16.0
 30
0.0
 40
7.0
  1
ЭСКИЗ — не для строительства · P&ID выпарной установки нитки 1 (Лот №2, медный купорос) · источники: разделы БИ — тепловой расчёт, вакуумная система, P&ID/КИПиА (ИД табл. 3.1/4.1) · КВАНТ, черновик БИ
  7
TXTRU
 11
20.0
 21
16.0
 31
0.0
100
AcDbText
  0
TEXT
  5
3D
330
17
100
AcDbEntity
  8
TEXT_RU
100
AcDbText
 10
1174.0
 20
612.0
 30
0.0
 40
8.4
  1
P&ID (ЭСКИЗ) · ЛОТ №2 — ВЫПАРНАЯ УСТАНОВКА НИТКИ 1 (МЕДНЫЙ КУПОРОС)
  7
TXTRU
 72
2
 11
1174.0
 21
612.0
 31
0.0
100
AcDbText
  0
LWPOLYLINE
  5
3E
330
17
100
AcDbEntity
  8
DUST
100
AcDbPolyline
 90
4
 70
0
 10
370.0
 20
562.0
 10
370.0
 20
602.0
 10
905.0
 20
602.0
 10
905.0
 20
558.0
  0
SOLID
  5
3F
330
17
100
AcDbEntity
  8
DUST
100
AcDbTrace
 10
912.2
 20
572.4
 30
0.0
 11
905.0
 21
556.2
 31
0.0
 12
897.8
 22
572.4
 32
0.0
 13
897.8
 23
572.4
 33
0.0
  0
TEXT
  5
40
330
17
100
AcDbEntity
  8
TEXT_RU
420
10702494
100
AcDbText
 10
480.0
 20
608.0
 30
0.0
 40
6.51
  1
соковый пар I ст. · 2,2 т/ч (расчёт 2,08)
  7
TXTRU
 72
1
 11
480.0
 21
608.0
 31
0.0
100
AcDbText
  0
LWPOLYLINE
  5
41
330
17
100
AcDbEntity
  8
LIQUID
100
AcDbPolyline
 90
8
 70
1
 10
25.0
 20
552.0
 10
165.0
 20
552.0
 42
0.4142135623731024
 10
172.0
 20
545.0
 10
172.0
 20
505.0
 42
0.4142135623731024
 10
165.0
 20
498.0
 10
25.0
 20
498.0
 42
0.41421356237310086
 10
18.0
 20
505.0
 10
18.0
 20
545.0
 42
0.41421356237310086
  0
TEXT
  5
42
330
17
100
AcDbEntity
  8
TEXT_RU
100
AcDbText
 10
95.0
 20
535.0
 30
0.0
 40
8.05
  1
БАК ПИТАНИЯ НИТКИ 1
  7
TXTRU
 72
1
 11
95.0
 21
535.0
 31
0.0
100
AcDbText
  0
TEXT
  5
43
330
17
100
AcDbEntity
  8
TEXT_RU
100
AcDbText
 10
95.0
 20
521.0
 30
0.0
 40
6.65
  1
поз. 4.1.22
  7
TXTRU
 72
1
 11
95.0
 21
521.0
 31
0.0
100
AcDbText
  0
TEXT
  5
44
330
17
100
AcDbEntity
  8
TEXT_RU
100
AcDbText
 10
95.0
 20
509.0
 30
0.0
 40
6.65
  1
5,0–5,3 м³/ч (6 340 кг/ч) · 70 °C
  7
TXTRU
 72
1
 11
95.0
 21
509.0
 31
0.0
100
AcDbText
  0
LINE
  5
45
330
17
100
AcDbEntity
  8
LIQUID
100
AcDbLine
 10
172.0
 20
525.0
 30
0.0
 11
276.0
 21
525.0
 31
0.0
  0
SOLID
  5
46
330
17
100
AcDbEntity
  8
LIQUID
100
AcDbTrace
 10
261.6
 20
532.2
 30
0.0
 11
277.8
 21
525.0
 31
0.0
 12
261.6
 22
517.8
 32
0.0
 13
261.6
 23
517.8
 33
0.0
  0
LWPOLYLINE
  5
47
330
17
100
AcDbEntity
  8
LIQUID
100
AcDbPolyline
 90
3
 70
1
 10
216.0
 20
531.0
 10
225.0
 20
525.0
 10
216.0
 20
519.0
  0
LWPOLYLINE
  5
48
330
17
100
AcDbEntity
  8
LIQUID
100
AcDbPolyline
 90
3
 70
1
 10
234.0
 20
531.0
 10
225.0
 20
525.0
 10
234.0
 20
519.0
  0
LINE
  5
49
330
17
100
AcDbEntity
  8
LIQUID
100
AcDbLine
 10
225.0
 20
525.0
 30
0.0
 11
225.0
 21
539.0
 31
0.0
  0
LINE
  5
4A
330
17
100
AcDbEntity
  8
LIQUID
100
AcDbLine
 10
220.0
 20
539.0
 30
0.0
 11
230.0
 21
539.0
 31
0.0
  0
LINE
  5
4B
330
17
100
AcDbEntity
  8
OUTLINE
100
AcDbLine
 10
188.0
 20
512.0
 30
0.0
 11
188.0
 21
525.0
 31
0.0
  0
CIRCLE
  5
4C
330
17
100
AcDbEntity
  8
OUTLINE
100
AcDbCircle
 10
188.0
 20
497.0
 30
0.0
 40
15.0
  0
TEXT
  5
4D
330
17
100
AcDbEntity
  8
TEXT_RU
100
AcDbText
 10
188.0
 20
498.5
 30
0.0
 40
5.6
  1
FIC
  7
TXTRU
 72
1
 11
188.0
 21
498.5
 31
0.0
100
AcDbText
  0
TEXT
  5
4E
330
17
100
AcDbEntity
  8
TEXT_RU
100
AcDbText
 10
188.0
 20
488.0
 30
0.0
 40
5.6
  1
01
  7
TXTRU
 72
1
 11
188.0
 21
488.0
 31
0.0
100
AcDbText
  0
LINE
  5
4F
330
17
100
AcDbEntity
  8
OUTLINE
100
AcDbLine
 10
268.0
 20
545.0
 30
0.0
 11
280.0
 21
545.0
 31
0.0
  0
CIRCLE
  5
50
330
17
100
AcDbEntity
  8
OUTLINE
100
AcDbCircle
 10
253.0
 20
545.0
 30
0.0
 40
15.0
  0
TEXT
  5
51
330
17
100
AcDbEntity
  8
TEXT_RU
100
AcDbText
 10
253.0
 20
546.5
 30
0.0
 40
5.6
  1
LIC
  7
TXTRU
 72
1
 11
253.0
 21
546.5
 31
0.0
100
AcDbText
  0
TEXT
  5
52
330
17
100
AcDbEntity
  8
TEXT_RU
100
AcDbText
 10
253.0
 20
536.0
 30
0.0
 40
5.6
  1
01
  7
TXTRU
 72
1
 11
253.0
 21
536.0
 31
0.0
100
AcDbText
  0
LINE
  5
53
330
17
100
AcDbEntity
  8
DIM
  6
DASHED
100
AcDbLine
 10
243.0
 20
534.0
 30
0.0
 11
228.0
 21
540.0
 31
0.0
  0
LWPOLYLINE
  5
54
330
17
100
AcDbEntity
  8
LIQUID
100
AcDbPolyline
 90
8
 70
1
 10
287.0
 20
562.0
 10
458.0
 20
562.0
 42
0.41421356237309837
 10
465.0
 20
555.0
 10
465.0
 20
477.0
 42
0.41421356237309837
 10
458.0
 20
470.0
 10
287.0
 20
470.0
 42
0.41421356237309837
 10
280.0
 20
477.0
 10
280.0
 20
555.0
 42
0.41421356237309837
  0
TEXT
  5
55
330
17
100
AcDbEntity
  8
TEXT_RU
100
AcDbText
 10
372.5
 20
545.0
 30
0.0
 40
8.05
  1
ИСПАРИТЕЛЬ I СТУПЕНИ
  7
TXTRU
 72
1
 11
372.5
 21
545.0
 31
0.0
100
AcDbText
  0
TEXT
  5
56
330
17
100
AcDbEntity
  8
TEXT_RU
100
AcDbText
 10
372.5
 20
531.0
 30
0.0
 40
6.65
  1
40 °C · 0,06–0,08 атм
  7
TXTRU
 72
1
 11
372.5
 21
531.0
 31
0.0
100
AcDbText
  0
TEXT
  5
57
330
17
100
AcDbEntity
  8
TEXT_RU
100
AcDbText
 10
372.5
 20
519.0
 30
0.0
 40
6.65
  1
соковый пар 2,2 т/ч (расчёт 2,08)
  7
TXTRU
 72
1
 11
372.5
 21
519.0
 31
0.0
100
AcDbText
  0
TEXT
  5
58
330
17
100
AcDbEntity
  8
TEXT_RU
100
AcDbText
 10
372.5
 20
507.0
 30
0.0
 40
6.65
  1
самоиспарение 70→40 °C: 261 кг/ч
  7
TXTRU
 72
1
 11
372.5
 21
507.0
 31
0.0
100
AcDbText
  0
LINE
  5
59
330
17
100
AcDbEntity
  8
OUTLINE
100
AcDbLine
 10
268.0
 20
482.0
 30
0.0
 11
280.0
 21
482.0
 31
0.0
  0
CIRCLE
  5
5A
330
17
100
AcDbEntity
  8
OUTLINE
100
AcDbCircle
 10
253.0
 20
482.0
 30
0.0
 40
15.0
  0
TEXT
  5
5B
330
17
100
AcDbEntity
  8
TEXT_RU
100
AcDbText
 10
253.0
 20
483.5
 30
0.0
 40
5.6
  1
TIC
  7
TXTRU
 72
1
 11
253.0
 21
483.5
 31
0.0
100
AcDbText
  0
TEXT
  5
5C
330
17
100
AcDbEntity
  8
TEXT_RU
100
AcDbText
 10
253.0
 20
473.0
 30
0.0
 40
5.6
  1
01
  7
TXTRU
 72
1
 11
253.0
 21
473.0
 31
0.0
100
AcDbText
  0
LWPOLYLINE
  5
5D
330
17
100
AcDbEntity
  8
DIM
  6
DASHED
100
AcDbPolyline
 90
4
 70
0
 10
253.0
 20
467.0
 10
253.0
 20
452.0
 10
118.0
 20
452.0
 10
113.0
 20
428.0
  0
LWPOLYLINE
  5
5E
330
17
100
AcDbEntity
  8
GAS
100
AcDbPolyline
 90
8
 70
1
 10
135.0
 20
444.0
 10
293.0
 20
444.0
 42
0.41421356237309837
 10
300.0
 20
437.0
 10
300.0
 20
375.0
 42
0.4142135623730902
 10
293.0
 20
368.0
 10
135.0
 20
368.0
 42
0.4142135623730943
 10
128.0
 20
375.0
 10
128.0
 20
437.0
 42
0.4142135623731024
  0
TEXT
  5
5F
330
17
100
AcDbEntity
  8
TEXT_RU
100
AcDbText
 10
214.0
 20
427.0
 30
0.0
 40
8.05
  1
ПОДОГРЕВАТЕЛЬ 63 м²
  7
TXTRU
 72
1
 11
214.0
 21
427.0
 31
0.0
100
AcDbText
  0
TEXT
  5
60
330
17
100
AcDbEntity
  8
TEXT_RU
100
AcDbText
 10
214.0
 20
413.0
 30
0.0
 40
6.65
  1
Q = 1,22 МВт · ΔT прохода 1,7 К
  7
TXTRU
 72
1
 11
214.0
 21
413.0
 31
0.0
100
AcDbText
  0
TEXT
  5
61
330
17
100
AcDbEntity
  8
TEXT_RU
100
AcDbText
 10
214.0
 20
401.0
 30
0.0
 40
6.65
  1
K треб ≈ 160 Вт/(м²·К)
  7
TXTRU
 72
1
 11
214.0
 21
401.0
 31
0.0
100
AcDbText
  0
TEXT
  5
62
330
17
100
AcDbEntity
  8
TEXT_RU
100
AcDbText
 10
214.0
 20
389.0
 30
0.0
 40
6.65
  1
запас по K — ×5–7
  7
TXTRU
 72
1
 11
214.0
 21
389.0
 31
0.0
100
AcDbText
  0
TEXT
  5
63
330
17
100
AcDbEntity
  8
TEXT_RU
100
AcDbText
 10
214.0
 20
377.0
 30
0.0
 40
6.65
  1
трубки 904L · без кипения
  7
TXTRU
 72
1
 11
214.0
 21
377.0
 31
0.0
100
AcDbText
  0
LWPOLYLINE
  5
64
330
17
100
AcDbEntity
  8
LIQUID
100
AcDbPolyline
 90
3
 70
0
 10
350.0
 20
470.0
 10
350.0
 20
355.0
 10
312.0
 20
355.0
  0
CIRCLE
  5
65
330
17
100
AcDbEntity
  8
OUTLINE
100
AcDbCircle
 10
300.0
 20
355.0
 30
0.0
 40
12.0
  0
HATCH
  5
66
330
17
100
AcDbEntity
  8
OUTLINE
 62
7
100
AcDbHatch
 10
0.0
 20
0.0
 30
0.0
210
0.0
220
0.0
230
1.0
  2
SOLID
 70
1
 71
0
 91
1
 92
3
 72
0
 73
1
 93
3
 10
306.0
 20
362.0
 10
306.0
 20
348.0
 10
294.0
 20
355.0
 97
0
 75
0
 76
1
 98
0
  0
LWPOLYLINE
  5
67
330
17
100
AcDbEntity
  8
LIQUID
100
AcDbPolyline
 90
3
 70
0
 10
288.0
 20
355.0
 10
215.0
 20
355.0
 10
215.0
 20
364.0
  0
SOLID
  5
68
330
17
100
AcDbEntity
  8
LIQUID
100
AcDbTrace
 10
207.8
 20
349.6
 30
0.0
 11
215.0
 21
365.8
 31
0.0
 12
222.2
 22
349.6
 32
0.0
 13
222.2
 23
349.6
 33
0.0
  0
LWPOLYLINE
  5
69
330
17
100
AcDbEntity
  8
LIQUID
100
AcDbPolyline
 90
3
 70
0
 10
215.0
 20
440.0
 10
215.0
 20
508.0
 10
276.0
 20
508.0
  0
SOLID
  5
6A
330
17
100
AcDbEntity
  8
LIQUID
100
AcDbTrace
 10
261.6
 20
515.2
 30
0.0
 11
277.8
 21
508.0
 31
0.0
 12
261.6
 22
500.8
 32
0.0
 13
261.6
 23
500.8
 33
0.0
  0
TEXT
  5
6B
330
17
100
AcDbEntity
  8
TEXT_RU
100
AcDbText
 10
300.0
 20
331.0
 30
0.0
 40
5.95
  1
циркнасос I ст. · 633 м³/ч
  7
TXTRU
 72
1
 11
300.0
 21
331.0
 31
0.0
100
AcDbText
  0
TEXT
  5
6C
330
17
100
AcDbEntity
  8
TEXT_RU
100
AcDbText
 10
300.0
 20
320.0
 30
0.0
 40
5.95
  1
кратность циркуляции 125
  7
TXTRU
 72
1
 11
300.0
 21
320.0
 31
0.0
100
AcDbText
  0
LINE
  5
6D
330
17
100
AcDbEntity
  8
OUTLINE
100
AcDbLine
 10
350.0
 20
415.0
 30
0.0
 11
372.0
 21
415.0
 31
0.0
  0
CIRCLE
  5
6E
330
17
100
AcDbEntity
  8
OUTLINE
100
AcDbCircle
 10
387.0
 20
415.0
 30
0.0
 40
15.0
  0
TEXT
  5
6F
330
17
100
AcDbEntity
  8
TEXT_RU
100
AcDbText
 10
387.0
 20
416.5
 30
0.0
 40
5.6
  1
DIC
  7
TXTRU
 72
1
 11
387.0
 21
416.5
 31
0.0
100
AcDbText
  0
TEXT
  5
70
330
17
100
AcDbEntity
  8
TEXT_RU
100
AcDbText
 10
387.0
 20
406.0
 30
0.0
 40
5.6
  1
01
  7
TXTRU
 72
1
 11
387.0
 21
406.0
 31
0.0
100
AcDbText
  0
TEXT
  5
71
330
17
100
AcDbEntity
  8
TEXT_RU
100
AcDbText
 10
387.0
 20
393.0
 30
0.0
 40
5.6
  1
байпас
  7
TXTRU
 72
1
 11
387.0
 21
393.0
 31
0.0
100
AcDbText
  0
LINE
  5
72
330
17
100
AcDbEntity
  8
GAS
100
AcDbLine
 10
55.0
 20
415.0
 30
0.0
 11
96.0
 21
415.0
 31
0.0
  0
SOLID
  5
73
330
17
100
AcDbEntity
  8
GAS
100
AcDbTrace
 10
81.6
 20
422.2
 30
0.0
 11
97.8
 21
415.0
 31
0.0
 12
81.6
 22
407.8
 32
0.0
 13
81.6
 23
407.8
 33
0.0
  0
LINE
  5
74
330
17
100
AcDbEntity
  8
GAS
100
AcDbLine
 10
110.0
 20
415.0
 30
0.0
 11
128.0
 21
415.0
 31
0.0
  0
LWPOLYLINE
  5
75
330
17
100
AcDbEntity
  8
GAS
100
AcDbPolyline
 90
3
 70
1
 10
99.0
 20
421.0
 10
108.0
 20
415.0
 10
99.0
 20
409.0
  0
LWPOLYLINE
  5
76
330
17
100
AcDbEntity
  8
GAS
100
AcDbPolyline
 90
3
 70
1
 10
117.0
 20
421.0
 10
108.0
 20
415.0
 10
117.0
 20
409.0
  0
LINE
  5
77
330
17
100
AcDbEntity
  8
GAS
100
AcDbLine
 10
108.0
 20
415.0
 30
0.0
 11
108.0
 21
429.0
 31
0.0
  0
LINE
  5
78
330
17
100
AcDbEntity
  8
GAS
100
AcDbLine
 10
103.0
 20
429.0
 30
0.0
 11
113.0
 21
429.0
 31
0.0
  0
LINE
  5
79
330
17
100
AcDbEntity
  8
OUTLINE
100
AcDbLine
 10
75.0
 20
429.0
 30
0.0
 11
75.0
 21
415.0
 31
0.0
  0
CIRCLE
  5
7A
330
17
100
AcDbEntity
  8
OUTLINE
100
AcDbCircle
 10
75.0
 20
444.0
 30
0.0
 40
15.0
  0
TEXT
  5
7B
330
17
100
AcDbEntity
  8
TEXT_RU
100
AcDbText
 10
75.0
 20
441.0
 30
0.0
 40
5.6
  1
FIQ
  7
TXTRU
 72
1
 11
75.0
 21
441.0
 31
0.0
100
AcDbText
  0
TEXT
  5
7C
330
17
100
AcDbEntity
  8
TEXT_RU
420
14712622
100
AcDbText
 10
58.0
 20
400.0
 30
0.0
 40
5.95
  1
греющий пар
  7
TXTRU
 11
58.0
 21
400.0
 31
0.0
100
AcDbText
  0
TEXT
  5
7D
330
17
100
AcDbEntity
  8
TEXT_RU
420
14712622
100
AcDbText
 10
58.0
 20
389.0
 30
0.0
 40
5.95
  1
0,6 МПа · 2,1 т/ч
  7
TXTRU
 11
58.0
 21
389.0
 31
0.0
100
AcDbText
  0
TEXT
  5
7E
330
17
100
AcDbEntity
  8
TEXT_RU
420
14712622
100
AcDbText
 10
58.0
 20
378.0
 30
0.0
 40
5.95
  1
T нас ≈ 159 °C
  7
TXTRU
 11
58.0
 21
378.0
 31
0.0
100
AcDbText
  0
LINE
  5
7F
330
17
100
AcDbEntity
  8
GAS
100
AcDbLine
 10
128.0
 20
372.0
 30
0.0
 11
95.0
 21
372.0
 31
0.0
  0
SOLID
  5
80
330
17
100
AcDbEntity
  8
GAS
100
AcDbTrace
 10
105.4
 20
366.8
 30
0.0
 11
93.7
 21
372.0
 31
0.0
 12
105.4
 22
377.2
 32
0.0
 13
105.4
 23
377.2
 33
0.0
  0
TEXT
  5
81
330
17
100
AcDbEntity
  8
TEXT_RU
420
14712622
100
AcDbText
 10
93.0
 20
360.0
 30
0.0
 40
5.95
  1
конденсат
  7
TXTRU
 72
2
 11
93.0
 21
360.0
 31
0.0
100
AcDbText
  0
LINE
  5
82
330
17
100
AcDbEntity
  8
LIQUID
100
AcDbLine
 10
465.0
 20
530.0
 30
0.0
 11
491.0
 21
530.0
 31
0.0
  0
SOLID
  5
83
330
17
100
AcDbEntity
  8
LIQUID
100
AcDbTrace
 10
476.6
 20
537.2
 30
0.0
 11
492.8
 21
530.0
 31
0.0
 12
476.6
 22
522.8
 32
0.0
 13
476.6
 23
522.8
 33
0.0
  0
LWPOLYLINE
  5
84
330
17
100
AcDbEntity
  8
LIQUID
  6
DASHED
100
AcDbPolyline
 90
3
 70
1
 10
469.0
 20
536.0
 10
478.0
 20
530.0
 10
469.0
 20
524.0
  0
LWPOLYLINE
  5
85
330
17
100
AcDbEntity
  8
LIQUID
  6
DASHED
100
AcDbPolyline
 90
3
 70
1
 10
487.0
 20
536.0
 10
478.0
 20
530.0
 10
487.0
 20
524.0
  0
LINE
  5
86
330
17
100
AcDbEntity
  8
LIQUID
  6
DASHED
100
AcDbLine
 10
478.0
 20
530.0
 30
0.0
 11
478.0
 21
544.0
 31
0.0
  0
LINE
  5
87
330
17
100
AcDbEntity
  8
LIQUID
  6
DASHED
100
AcDbLine
 10
473.0
 20
544.0
 30
0.0
 11
483.0
 21
544.0
 31
0.0
  0
CIRCLE
  5
88
330
17
100
AcDbEntity
  8
OUTLINE
100
AcDbCircle
 10
480.0
 20
500.0
 30
0.0
 40
15.0
  0
TEXT
  5
89
330
17
100
AcDbEntity
  8
TEXT_RU
100
AcDbText
 10
480.0
 20
501.5
 30
0.0
 40
5.6
  1
LIC
  7
TXTRU
 72
1
 11
480.0
 21
501.5
 31
0.0
100
AcDbText
  0
TEXT
  5
8A
330
17
100
AcDbEntity
  8
TEXT_RU
100
AcDbText
 10
480.0
 20
491.0
 30
0.0
 40
5.6
  1
02
  7
TXTRU
 72
1
 11
480.0
 21
491.0
 31
0.0
100
AcDbText
  0
LINE
  5
8B
330
17
100
AcDbEntity
  8
DIM
  6
DASHED
100
AcDbLine
 10
480.0
 20
515.0
 30
0.0
 11
478.0
 21
522.0
 31
0.0
  0
LWPOLYLINE
  5
8C
330
17
100
AcDbEntity
  8
LIQUID
100
AcDbPolyline
 90
8
 70
1
 10
502.0
 20
562.0
 10
673.0
 20
562.0
 42
0.4142135623731064
 10
680.0
 20
555.0
 10
680.0
 20
477.0
 42
0.4142135623731064
 10
673.0
 20
470.0
 10
502.0
 20
470.0
 42
0.41421356237309837
 10
495.0
 20
477.0
 10
495.0
 20
555.0
 42
0.41421356237309837
  0
TEXT
  5
8D
330
17
100
AcDbEntity
  8
TEXT_RU
100
AcDbText
 10
587.5
 20
545.0
 30
0.0
 40
8.05
  1
ИСПАРИТЕЛЬ II СТУПЕНИ
  7
TXTRU
 72
1
 11
587.5
 21
545.0
 31
0.0
100
AcDbText
  0
TEXT
  5
8E
330
17
100
AcDbEntity
  8
TEXT_RU
100
AcDbText
 10
587.5
 20
531.0
 30
0.0
 40
6.65
  1
20 °C · 0,013–0,02 атм
  7
TXTRU
 72
1
 11
587.5
 21
531.0
 31
0.0
100
AcDbText
  0
TEXT
  5
8F
330
17
100
AcDbEntity
  8
TEXT_RU
100
AcDbText
 10
587.5
 20
519.0
 30
0.0
 40
6.65
  1
соковый пар 0,29 т/ч
  7
TXTRU
 72
1
 11
587.5
 21
519.0
 31
0.0
100
AcDbText
  0
TEXT
  5
90
330
17
100
AcDbEntity
  8
TEXT_RU
100
AcDbText
 10
587.5
 20
507.0
 30
0.0
 40
6.65
  1
выгрузка — солевая колонна
  7
TXTRU
 72
1
 11
587.5
 21
507.0
 31
0.0
100
AcDbText
  0
LWPOLYLINE
  5
91
330
17
100
AcDbEntity
  8
LIQUID
100
AcDbPolyline
 90
3
 70
0
 10
525.0
 20
470.0
 10
525.0
 20
362.0
 10
548.0
 20
362.0
  0
CIRCLE
  5
92
330
17
100
AcDbEntity
  8
OUTLINE
100
AcDbCircle
 10
560.0
 20
362.0
 30
0.0
 40
12.0
  0
HATCH
  5
93
330
17
100
AcDbEntity
  8
OUTLINE
 62
7
100
AcDbHatch
 10
0.0
 20
0.0
 30
0.0
210
0.0
220
0.0
230
1.0
  2
SOLID
 70
1
 71
0
 91
1
 92
3
 72
0
 73
1
 93
3
 10
554.0
 20
369.0
 10
554.0
 20
355.0
 10
566.0
 20
362.0
 97
0
 75
0
 76
1
 98
0
  0
LWPOLYLINE
  5
94
330
17
100
AcDbEntity
  8
LIQUID
100
AcDbPolyline
 90
3
 70
0
 10
572.0
 20
362.0
 10
595.0
 20
362.0
 10
595.0
 20
468.0
  0
SOLID
  5
95
330
17
100
AcDbEntity
  8
LIQUID
100
AcDbTrace
 10
587.8
 20
453.6
 30
0.0
 11
595.0
 21
469.8
 31
0.0
 12
602.2
 22
453.6
 32
0.0
 13
602.2
 23
453.6
 33
0.0
  0
TEXT
  5
96
330
17
100
AcDbEntity
  8
TEXT_RU
100
AcDbText
 10
560.0
 20
340.0
 30
0.0
 40
5.95
  1
циркнасос II ст.
  7
TXTRU
 72
1
 11
560.0
 21
340.0
 31
0.0
100
AcDbText
  0
LINE
  5
97
330
17
100
AcDbEntity
  8
OUTLINE
100
AcDbLine
 10
525.0
 20
412.0
 30
0.0
 11
496.0
 21
412.0
 31
0.0
  0
CIRCLE
  5
98
330
17
100
AcDbEntity
  8
OUTLINE
100
AcDbCircle
 10
481.0
 20
412.0
 30
0.0
 40
15.0
  0
TEXT
  5
99
330
17
100
AcDbEntity
  8
TEXT_RU
100
AcDbText
 10
481.0
 20
413.5
 30
0.0
 40
5.6
  1
DIC
  7
TXTRU
 72
1
 11
481.0
 21
413.5
 31
0.0
100
AcDbText
  0
TEXT
  5
9A
330
17
100
AcDbEntity
  8
TEXT_RU
100
AcDbText
 10
481.0
 20
403.0
 30
0.0
 40
5.6
  1
02
  7
TXTRU
 72
1
 11
481.0
 21
403.0
 31
0.0
100
AcDbText
  0
LWPOLYLINE
  5
9B
330
17
100
AcDbEntity
  8
DIM
  6
DASHED
100
AcDbPolyline
 90
3
 70
0
 10
481.0
 20
397.0
 10
481.0
 20
308.0
 10
627.0
 20
308.0
  0
TEXT
  5
9C
330
17
100
AcDbEntity
  8
TEXT_RU
100
AcDbText
 10
543.0
 20
314.0
 30
0.0
 40
5.6
  1
управление выгрузкой
  7
TXTRU
 11
543.0
 21
314.0
 31
0.0
100
AcDbText
  0
LINE
  5
9D
330
17
100
AcDbEntity
  8
OUTLINE
100
AcDbLine
 10
680.0
 20
478.0
 30
0.0
 11
692.0
 21
478.0
 31
0.0
  0
CIRCLE
  5
9E
330
17
100
AcDbEntity
  8
OUTLINE
100
AcDbCircle
 10
707.0
 20
474.0
 30
0.0
 40
15.0
  0
TEXT
  5
9F
330
17
100
AcDbEntity
  8
TEXT_RU
100
AcDbText
 10
707.0
 20
475.5
 30
0.0
 40
5.6
  1
TI
  7
TXTRU
 72
1
 11
707.0
 21
475.5
 31
0.0
100
AcDbText
  0
TEXT
  5
A0
330
17
100
AcDbEntity
  8
TEXT_RU
100
AcDbText
 10
707.0
 20
465.0
 30
0.0
 40
5.6
  1
02
  7
TXTRU
 72
1
 11
707.0
 21
465.0
 31
0.0
100
AcDbText
  0
LINE
  5
A1
330
17
100
AcDbEntity
  8
LIQUID
100
AcDbLine
 10
631.0
 20
470.0
 30
0.0
 11
631.0
 21
270.0
 31
0.0
  0
LINE
  5
A2
330
17
100
AcDbEntity
  8
LIQUID
100
AcDbLine
 10
640.0
 20
470.0
 30
0.0
 11
640.0
 21
270.0
 31
0.0
  0
LINE
  5
A3
330
17
100
AcDbEntity
  8
DIM
420
5394766
100
AcDbLine
 10
660.0
 20
470.0
 30
0.0
 11
660.0
 21
270.0
 31
0.0
  0
LINE
  5
A4
330
17
100
AcDbEntity
  8
DIM
420
5394766
100
AcDbLine
 10
657.3
 20
472.7
 30
0.0
 11
662.7
 21
467.3
 31
0.0
  0
LINE
  5
A5
330
17
100
AcDbEntity
  8
DIM
420
5394766
100
AcDbLine
 10
657.3
 20
272.7
 30
0.0
 11
662.7
 21
267.3
 31
0.0
  0
TEXT
  5
A6
330
17
100
AcDbEntity
  8
TEXT_RU
100
AcDbText
 10
670.0
 20
340.0
 30
0.0
 40
5.95
  1
столб пульпы H ≈ 7,0–7,9 м
 50
90.0
  7
TXTRU
 72
1
 11
670.0
 21
340.0
 31
0.0
100
AcDbText
  0
TEXT
  5
A7
330
17
100
AcDbEntity
  8
TEXT_RU
420
2783446
100
AcDbText
 10
622.0
 20
370.0
 30
0.0
 40
5.95
  1
солевая колонна
 50
90.0
  7
TXTRU
 72
1
 11
622.0
 21
370.0
 31
0.0
100
AcDbText
  0
LWPOLYLINE
  5
A8
330
17
100
AcDbEntity
  8
LIQUID
100
AcDbPolyline
 90
8
 70
1
 10
551.0
 20
270.0
 10
731.0
 20
270.0
 42
0.41421356237309837
 10
738.0
 20
263.0
 10
738.0
 20
231.0
 42
0.41421356237309837
 10
731.0
 20
224.0
 10
551.0
 20
224.0
 42
0.41421356237309837
 10
544.0
 20
231.0
 10
544.0
 20
263.0
 42
0.41421356237309837
  0
TEXT
  5
A9
330
17
100
AcDbEntity
  8
TEXT_RU
100
AcDbText
 10
641.0
 20
253.0
 30
0.0
 40
8.05
  1
РЕПУЛЬПАТОР ВЫГРУЗКИ
  7
TXTRU
 72
1
 11
641.0
 21
253.0
 31
0.0
100
AcDbText
  0
TEXT
  5
AA
330
17
100
AcDbEntity
  8
TEXT_RU
100
AcDbText
 10
641.0
 20
239.0
 30
0.0
 40
6.65
  1
пульпа плотностью до 1,45 т/м³
  7
TXTRU
 72
1
 11
641.0
 21
239.0
 31
0.0
100
AcDbText
  0
LINE
  5
AB
330
17
100
AcDbEntity
  8
OUTLINE
420
828172
100
AcDbLine
 10
738.0
 20
247.0
 30
0.0
 11
768.0
 21
247.0
 31
0.0
  0
SOLID
  5
AC
330
17
100
AcDbEntity
  8
OUTLINE
420
828172
100
AcDbTrace
 10
753.6
 20
254.2
 30
0.0
 11
769.8
 21
247.0
 31
0.0
 12
753.6
 22
239.8
 32
0.0
 13
753.6
 23
239.8
 33
0.0
  0
TEXT
  5
AD
330
17
100
AcDbEntity
  8
TEXT_RU
420
828172
100
AcDbText
 10
772.0
 20
244.0
 30
0.0
 40
5.95
  1
пульпа на центрифуги
  7
TXTRU
 11
772.0
 21
244.0
 31
0.0
100
AcDbText
  0
LINE
  5
AE
330
17
100
AcDbEntity
  8
DUST
100
AcDbLine
 10
680.0
 20
540.0
 30
0.0
 11
768.0
 21
540.0
 31
0.0
  0
SOLID
  5
AF
330
17
100
AcDbEntity
  8
DUST
100
AcDbTrace
 10
753.6
 20
547.2
 30
0.0
 11
769.8
 21
540.0
 31
0.0
 12
753.6
 22
532.8
 32
0.0
 13
753.6
 23
532.8
 33
0.0
  0
TEXT
  5
B0
330
17
100
AcDbEntity
  8
TEXT_RU
420
10702494
100
AcDbText
 10
684.0
 20
526.0
 30
0.0
 40
5.95
  1
соковый пар II ст.
  7
TXTRU
 11
684.0
 21
526.0
 31
0.0
100
AcDbText
  0
TEXT
  5
B1
330
17
100
AcDbEntity
  8
TEXT_RU
420
10702494
100
AcDbText
 10
684.0
 20
514.0
 30
0.0
 40
5.95
  1
0,29 т/ч
  7
TXTRU
 11
684.0
 21
514.0
 31
0.0
100
AcDbText
  0
TEXT
  5
B2
330
17
100
AcDbEntity
  8
TEXT_RU
420
10702494
100
AcDbText
 10
684.0
 20
502.0
 30
0.0
 40
5.95
  1
0,013–0,02 атм
  7
TXTRU
 11
684.0
 21
502.0
 31
0.0
100
AcDbText
  0
LWPOLYLINE
  5
B3
330
17
100
AcDbEntity
  8
DUST
100
AcDbPolyline
 90
4
 70
1
 10
770.0
 20
552.0
 10
802.0
 20
552.0
 10
802.0
 20
528.0
 10
770.0
 20
528.0
  0
LWPOLYLINE
  5
B4
330
17
100
AcDbEntity
  8
DUST
100
AcDbPolyline
 90
4
 70
1
 10
776.0
 20
528.0
 10
796.0
 20
528.0
 10
800.0
 20
500.0
 10
772.0
 20
500.0
  0
LINE
  5
B5
330
17
100
AcDbEntity
  8
GAS
100
AcDbLine
 10
786.0
 20
596.0
 30
0.0
 11
786.0
 21
587.0
 31
0.0
  0
LWPOLYLINE
  5
B6
330
17
100
AcDbEntity
  8
GAS
100
AcDbPolyline
 90
3
 70
1
 10
780.0
 20
587.0
 10
786.0
 20
578.0
 10
792.0
 20
587.0
  0
LWPOLYLINE
  5
B7
330
17
100
AcDbEntity
  8
GAS
100
AcDbPolyline
 90
3
 70
1
 10
780.0
 20
569.0
 10
786.0
 20
578.0
 10
792.0
 20
569.0
  0
LINE
  5
B8
330
17
100
AcDbEntity
  8
GAS
100
AcDbLine
 10
786.0
 20
578.0
 30
0.0
 11
772.0
 21
578.0
 31
0.0
  0
LINE
  5
B9
330
17
100
AcDbEntity
  8
GAS
100
AcDbLine
 10
772.0
 20
583.0
 30
0.0
 11
772.0
 21
573.0
 31
0.0
  0
LINE
  5
BA
330
17
100
AcDbEntity
  8
GAS
100
AcDbLine
 10
786.0
 20
569.0
 30
0.0
 11
786.0
 21
554.0
 31
0.0
  0
SOLID
  5
BB
330
17
100
AcDbEntity
  8
GAS
100
AcDbTrace
 10
793.2
 20
568.4
 30
0.0
 11
786.0
 21
552.2
 31
0.0
 12
778.8
 22
568.4
 32
0.0
 13
778.8
 23
568.4
 33
0.0
  0
TEXT
  5
BC
330
17
100
AcDbEntity
  8
TEXT_RU
420
14712622
100
AcDbText
 10
794.0
 20
590.0
 30
0.0
 40
5.95
  1
раб. пар 6 атм
  7
TXTRU
 11
794.0
 21
590.0
 31
0.0
100
AcDbText
  0
TEXT
  5
BD
330
17
100
AcDbEntity
  8
TEXT_RU
420
14712622
100
AcDbText
 10
794.0
 20
579.0
 30
0.0
 40
5.95
  1
0,75 т/ч
  7
TXTRU
 11
794.0
 21
579.0
 31
0.0
100
AcDbText
  0
LWPOLYLINE
  5
BE
330
17
100
AcDbEntity
  8
DUST
100
AcDbPolyline
 90
3
 70
0
 10
786.0
 20
500.0
 10
786.0
 20
484.0
 10
832.0
 20
484.0
  0
SOLID
  5
BF
330
17
100
AcDbEntity
  8
DUST
100
AcDbTrace
 10
817.6
 20
491.2
 30
0.0
 11
833.8
 21
484.0
 31
0.0
 12
817.6
 22
476.8
 32
0.0
 13
817.6
 23
476.8
 33
0.0
  0
TEXT
  5
C0
330
17
100
AcDbEntity
  8
TEXT_RU
100
AcDbText
 10
800.0
 20
471.0
 30
0.0
 40
5.6
  1
эжектор II ст.
  7
TXTRU
 72
1
 11
800.0
 21
471.0
 31
0.0
100
AcDbText
  0
LINE
  5
C1
330
17
100
AcDbEntity
  8
OUTLINE
100
AcDbLine
 10
724.0
 20
569.0
 30
0.0
 11
724.0
 21
540.0
 31
0.0
  0
CIRCLE
  5
C2
330
17
100
AcDbEntity
  8
OUTLINE
100
AcDbCircle
 10
724.0
 20
584.0
 30
0.0
 40
15.0
  0
TEXT
  5
C3
330
17
100
AcDbEntity
  8
TEXT_RU
100
AcDbText
 10
724.0
 20
585.5
 30
0.0
 40
5.6
  1
PIC
  7
TXTRU
 72
1
 11
724.0
 21
585.5
 31
0.0
100
AcDbText
  0
TEXT
  5
C4
330
17
100
AcDbEntity
  8
TEXT_RU
100
AcDbText
 10
724.0
 20
575.0
 30
0.0
 40
5.6
  1
02
  7
TXTRU
 72
1
 11
724.0
 21
575.0
 31
0.0
100
AcDbText
  0
LINE
  5
C5
330
17
100
AcDbEntity
  8
DIM
  6
DASHED
100
AcDbLine
 10
739.0
 20
582.0
 30
0.0
 11
768.0
 21
578.0
 31
0.0
  0
LWPOLYLINE
  5
C6
330
17
100
AcDbEntity
  8
DUST
100
AcDbPolyline
 90
8
 70
1
 10
835.0
 20
556.0
 10
997.0
 20
556.0
 42
0.4142135623731064
 10
1004.0
 20
549.0
 10
1004.0
 20
471.0
 42
0.4142135623731064
 10
997.0
 20
464.0
 10
835.0
 20
464.0
 42
0.4142135623731064
 10
828.0
 20
471.0
 10
828.0
 20
549.0
 42
0.4142135623731064
  0
TEXT
  5
C7
330
17
100
AcDbEntity
  8
TEXT_RU
100
AcDbText
 10
916.0
 20
539.0
 30
0.0
 40
8.05
  1
БАРОМ. КОНДЕНСАТОР
  7
TXTRU
 72
1
 11
916.0
 21
539.0
 31
0.0
100
AcDbText
  0
TEXT
  5
C8
330
17
100
AcDbEntity
  8
TEXT_RU
100
AcDbText
 10
916.0
 20
525.0
 30
0.0
 40
6.65
  1
смешивающий · 0,075 атм
  7
TXTRU
 72
1
 11
916.0
 21
525.0
 31
0.0
100
AcDbText
  0
TEXT
  5
C9
330
17
100
AcDbEntity
  8
TEXT_RU
100
AcDbText
 10
916.0
 20
513.0
 30
0.0
 40
6.65
  1
пар 3,24 т/ч · Q = 2,17 МВт
  7
TXTRU
 72
1
 11
916.0
 21
513.0
 31
0.0
100
AcDbText
  0
TEXT
  5
CA
330
17
100
AcDbEntity
  8
TEXT_RU
100
AcDbText
 10
916.0
 20
501.0
 30
0.0
 40
6.65
  1
вода 380 м³/ч · 22,5 → 27,4 °C
  7
TXTRU
 72
1
 11
916.0
 21
501.0
 31
0.0
100
AcDbText
  0
TEXT
  5
CB
330
17
100
AcDbEntity
  8
TEXT_RU
100
AcDbText
 10
916.0
 20
489.0
 30
0.0
 40
6.65
  1
недогрев до 40,3 °C ≈ 13 К
  7
TXTRU
 72
1
 11
916.0
 21
489.0
 31
0.0
100
AcDbText
  0
LINE
  5
CC
330
17
100
AcDbEntity
  8
LIQUID
100
AcDbLine
 10
965.0
 20
586.0
 30
0.0
 11
965.0
 21
558.0
 31
0.0
  0
SOLID
  5
CD
330
17
100
AcDbEntity
  8
LIQUID
100
AcDbTrace
 10
972.2
 20
572.4
 30
0.0
 11
965.0
 21
556.2
 31
0.0
 12
957.8
 22
572.4
 32
0.0
 13
957.8
 23
572.4
 33
0.0
  0
TEXT
  5
CE
330
17
100
AcDbEntity
  8
TEXT_RU
100
AcDbText
 10
973.0
 20
580.0
 30
0.0
 40
5.95
  1
кислая СОВ 380 м³/ч
  7
TXTRU
 11
973.0
 21
580.0
 31
0.0
100
AcDbText
  0
TEXT
  5
CF
330
17
100
AcDbEntity
  8
TEXT_RU
100
AcDbText
 10
973.0
 20
569.0
 30
0.0
 40
5.95
  1
подача 22,5 °C
  7
TXTRU
 11
973.0
 21
569.0
 31
0.0
100
AcDbText
  0
LINE
  5
D0
330
17
100
AcDbEntity
  8
OUTLINE
100
AcDbLine
 10
933.0
 20
563.0
 30
0.0
 11
933.0
 21
556.0
 31
0.0
  0
CIRCLE
  5
D1
330
17
100
AcDbEntity
  8
OUTLINE
100
AcDbCircle
 10
933.0
 20
578.0
 30
0.0
 40
15.0
  0
TEXT
  5
D2
330
17
100
AcDbEntity
  8
TEXT_RU
100
AcDbText
 10
933.0
 20
579.5
 30
0.0
 40
5.6
  1
PIC
  7
TXTRU
 72
1
 11
933.0
 21
579.5
 31
0.0
100
AcDbText
  0
TEXT
  5
D3
330
17
100
AcDbEntity
  8
TEXT_RU
100
AcDbText
 10
933.0
 20
569.0
 30
0.0
 40
5.6
  1
01
  7
TXTRU
 72
1
 11
933.0
 21
569.0
 31
0.0
100
AcDbText
  0
LWPOLYLINE
  5
D4
330
17
100
AcDbEntity
  8
DIM
  6
DASHED
100
AcDbPolyline
 90
4
 70
0
 10
948.0
 20
582.0
 10
985.0
 20
594.0
 10
1058.0
 20
594.0
 10
1067.0
 20
582.0
  0
LINE
  5
D5
330
17
100
AcDbEntity
  8
LIQUID
100
AcDbLine
 10
920.0
 20
464.0
 30
0.0
 11
920.0
 21
210.0
 31
0.0
  0
TEXT
  5
D6
330
17
100
AcDbEntity
  8
TEXT_RU
420
2783446
100
AcDbText
 10
908.0
 20
337.0
 30
0.0
 40
5.95
  1
барометрич. труба Ду 350–400 · V ≈ 1,0 м³
 50
90.0
  7
TXTRU
 72
1
 11
908.0
 21
337.0
 31
0.0
100
AcDbText
  0
LINE
  5
D7
330
17
100
AcDbEntity
  8
DIM
420
5394766
100
AcDbLine
 10
948.0
 20
464.0
 30
0.0
 11
948.0
 21
210.0
 31
0.0
  0
LINE
  5
D8
330
17
100
AcDbEntity
  8
DIM
420
5394766
100
AcDbLine
 10
945.3
 20
466.7
 30
0.0
 11
950.7
 21
461.3
 31
0.0
  0
LINE
  5
D9
330
17
100
AcDbEntity
  8
DIM
420
5394766
100
AcDbLine
 10
945.3
 20
212.7
 30
0.0
 11
950.7
 21
207.3
 31
0.0
  0
TEXT
  5
DA
330
17
100
AcDbEntity
  8
TEXT_RU
100
AcDbText
 10
958.0
 20
337.0
 30
0.0
 40
5.95
  1
H ≈ 10,5 м (H мин = 9,56 м)
 50
90.0
  7
TXTRU
 72
1
 11
958.0
 21
337.0
 31
0.0
100
AcDbText
  0
LWPOLYLINE
  5
DB
330
17
100
AcDbEntity
  8
LIQUID
100
AcDbPolyline
 90
8
 70
1
 10
817.0
 20
210.0
 10
995.0
 20
210.0
 42
0.41421356237309837
 10
1002.0
 20
203.0
 10
1002.0
 20
169.0
 42
0.41421356237309837
 10
995.0
 20
162.0
 10
817.0
 20
162.0
 42
0.41421356237309837
 10
810.0
 20
169.0
 10
810.0
 20
203.0
 42
0.41421356237309837
  0
TEXT
  5
DC
330
17
100
AcDbEntity
  8
TEXT_RU
100
AcDbText
 10
906.0
 20
193.0
 30
0.0
 40
8.05
  1
ГИДРОЗАТВОР НИТКИ 1
  7
TXTRU
 72
1
 11
906.0
 21
193.0
 31
0.0
100
AcDbText
  0
TEXT
  5
DD
330
17
100
AcDbEntity
  8
TEXT_RU
100
AcDbText
 10
906.0
 20
179.0
 30
0.0
 40
6.65
  1
бак ≥ 1,5–2 м³ (≥1,5 V трубы)
  7
TXTRU
 72
1
 11
906.0
 21
179.0
 31
0.0
100
AcDbText
  0
TEXT
  5
DE
330
17
100
AcDbEntity
  8
TEXT_RU
100
AcDbText
 10
906.0
 20
167.0
 30
0.0
 40
6.65
  1
LIC уровня · против срыва затвора
  7
TXTRU
 72
1
 11
906.0
 21
167.0
 31
0.0
100
AcDbText
  0
LINE
  5
DF
330
17
100
AcDbEntity
  8
LIQUID
100
AcDbLine
 10
810.0
 20
185.0
 30
0.0
 11
790.0
 21
185.0
 31
0.0
  0
SOLID
  5
E0
330
17
100
AcDbEntity
  8
LIQUID
100
AcDbTrace
 10
804.4
 20
177.8
 30
0.0
 11
788.2
 21
185.0
 31
0.0
 12
804.4
 22
192.2
 32
0.0
 13
804.4
 23
192.2
 33
0.0
  0
TEXT
  5
E1
330
17
100
AcDbEntity
  8
TEXT_RU
100
AcDbText
 10
786.0
 20
191.0
 30
0.0
 40
5.95
  1
на градирню кислой СОВ · 27,4 °C
  7
TXTRU
 72
2
 11
786.0
 21
191.0
 31
0.0
100
AcDbText
  0
TEXT
  5
E2
330
17
100
AcDbEntity
  8
TEXT_RU
100
AcDbText
 10
786.0
 20
179.0
 30
0.0
 40
5.95
  1
участок итого: 568 м³/ч · ≈3,1–3,2 МВт
  7
TXTRU
 72
2
 11
786.0
 21
179.0
 31
0.0
100
AcDbText
  0
LINE
  5
E3
330
17
100
AcDbEntity
  8
DUST
100
AcDbLine
 10
1004.0
 20
540.0
 30
0.0
 11
1062.0
 21
540.0
 31
0.0
  0
SOLID
  5
E4
330
17
100
AcDbEntity
  8
DUST
100
AcDbTrace
 10
1047.6
 20
547.2
 30
0.0
 11
1063.8
 21
540.0
 31
0.0
 12
1047.6
 22
532.8
 32
0.0
 13
1047.6
 23
532.8
 33
0.0
  0
TEXT
  5
E5
330
17
100
AcDbEntity
  8
TEXT_RU
420
10702494
100
AcDbText
 10
1008.0
 20
527.0
 30
0.0
 40
5.95
  1
парогазовая
  7
TXTRU
 11
1008.0
 21
527.0
 31
0.0
100
AcDbText
  0
TEXT
  5
E6
330
17
100
AcDbEntity
  8
TEXT_RU
420
10702494
100
AcDbText
 10
1008.0
 20
516.0
 30
0.0
 40
5.95
  1
смесь (ПГС)
  7
TXTRU
 11
1008.0
 21
516.0
 31
0.0
100
AcDbText
  0
TEXT
  5
E7
330
17
100
AcDbEntity
  8
TEXT_RU
100
AcDbText
 10
1008.0
 20
505.0
 30
0.0
 40
5.6
  1
0,06–0,08 атм
  7
TXTRU
 11
1008.0
 21
505.0
 31
0.0
100
AcDbText
  0
LWPOLYLINE
  5
E8
330
17
100
AcDbEntity
  8
DUST
100
AcDbPolyline
 90
4
 70
1
 10
1064.0
 20
552.0
 10
1096.0
 20
552.0
 10
1096.0
 20
528.0
 10
1064.0
 20
528.0
  0
LWPOLYLINE
  5
E9
330
17
100
AcDbEntity
  8
DUST
100
AcDbPolyline
 90
4
 70
1
 10
1070.0
 20
528.0
 10
1090.0
 20
528.0
 10
1094.0
 20
500.0
 10
1066.0
 20
500.0
  0
LINE
  5
EA
330
17
100
AcDbEntity
  8
GAS
100
AcDbLine
 10
1080.0
 20
596.0
 30
0.0
 11
1080.0
 21
587.0
 31
0.0
  0
LWPOLYLINE
  5
EB
330
17
100
AcDbEntity
  8
GAS
100
AcDbPolyline
 90
3
 70
1
 10
1074.0
 20
587.0
 10
1080.0
 20
578.0
 10
1086.0
 20
587.0
  0
LWPOLYLINE
  5
EC
330
17
100
AcDbEntity
  8
GAS
100
AcDbPolyline
 90
3
 70
1
 10
1074.0
 20
569.0
 10
1080.0
 20
578.0
 10
1086.0
 20
569.0
  0
LINE
  5
ED
330
17
100
AcDbEntity
  8
GAS
100
AcDbLine
 10
1080.0
 20
578.0
 30
0.0
 11
1066.0
 21
578.0
 31
0.0
  0
LINE
  5
EE
330
17
100
AcDbEntity
  8
GAS
100
AcDbLine
 10
1066.0
 20
583.0
 30
0.0
 11
1066.0
 21
573.0
 31
0.0
  0
LINE
  5
EF
330
17
100
AcDbEntity
  8
GAS
100
AcDbLine
 10
1080.0
 20
569.0
 30
0.0
 11
1080.0
 21
554.0
 31
0.0
  0
SOLID
  5
F0
330
17
100
AcDbEntity
  8
GAS
100
AcDbTrace
 10
1087.2
 20
568.4
 30
0.0
 11
1080.0
 21
552.2
 31
0.0
 12
1072.8
 22
568.4
 32
0.0
 13
1072.8
 23
568.4
 33
0.0
  0
TEXT
  5
F1
330
17
100
AcDbEntity
  8
TEXT_RU
420
14712622
100
AcDbText
 10
1090.0
 20
584.0
 30
0.0
 40
5.95
  1
пар 6 атм · 0,27 т/ч
  7
TXTRU
 11
1090.0
 21
584.0
 31
0.0
100
AcDbText
  0
LINE
  5
F2
330
17
100
AcDbEntity
  8
DUST
100
AcDbLine
 10
1080.0
 20
500.0
 30
0.0
 11
1080.0
 21
484.0
 31
0.0
  0
SOLID
  5
F3
330
17
100
AcDbEntity
  8
DUST
100
AcDbTrace
 10
1087.2
 20
498.4
 30
0.0
 11
1080.0
 21
482.2
 31
0.0
 12
1072.8
 22
498.4
 32
0.0
 13
1072.8
 23
498.4
 33
0.0
  0
LWPOLYLINE
  5
F4
330
17
100
AcDbEntity
  8
DUST
100
AcDbPolyline
 90
8
 70
1
 10
1017.0
 20
482.0
 10
1143.0
 20
482.0
 42
0.4142135623730902
 10
1150.0
 20
475.0
 10
1150.0
 20
433.0
 42
0.4142135623730902
 10
1143.0
 20
426.0
 10
1017.0
 20
426.0
 42
0.4142135623731064
 10
1010.0
 20
433.0
 10
1010.0
 20
475.0
 42
0.4142135623731064
  0
TEXT
  5
F5
330
17
100
AcDbEntity
  8
TEXT_RU
100
AcDbText
 10
1080.0
 20
465.0
 30
0.0
 40
8.05
  1
КОНДЕНСАТОР ПЭБ
  7
TXTRU
 72
1
 11
1080.0
 21
465.0
 31
0.0
100
AcDbText
  0
TEXT
  5
F6
330
17
100
AcDbEntity
  8
TEXT_RU
100
AcDbText
 10
1080.0
 20
451.0
 30
0.0
 40
6.65
  1
D 0,5 м · вода 32 м³/ч
  7
TXTRU
 72
1
 11
1080.0
 21
451.0
 31
0.0
100
AcDbText
  0
TEXT
  5
F7
330
17
100
AcDbEntity
  8
TEXT_RU
100
AcDbText
 10
1080.0
 20
439.0
 30
0.0
 40
6.65
  1
Q ≈ 0,19 МВт · ΔT ≈ 5,0 К
  7
TXTRU
 72
1
 11
1080.0
 21
439.0
 31
0.0
100
AcDbText
  0
LINE
  5
F8
330
17
100
AcDbEntity
  8
DUST
100
AcDbLine
 10
1130.0
 20
426.0
 30
0.0
 11
1130.0
 21
404.0
 31
0.0
  0
SOLID
  5
F9
330
17
100
AcDbEntity
  8
DUST
100
AcDbTrace
 10
1137.2
 20
418.4
 30
0.0
 11
1130.0
 21
402.2
 31
0.0
 12
1122.8
 22
418.4
 32
0.0
 13
1122.8
 23
418.4
 33
0.0
  0
LWPOLYLINE
  5
FA
330
17
100
AcDbEntity
  8
DUST
100
AcDbPolyline
 90
8
 70
1
 10
1097.0
 20
402.0
 10
1171.0
 20
402.0
 42
0.4142135623730902
 10
1178.0
 20
395.0
 10
1178.0
 20
345.0
 42
0.4142135623730821
 10
1171.0
 20
338.0
 10
1097.0
 20
338.0
 42
0.4142135623730821
 10
1090.0
 20
345.0
 10
1090.0
 20
395.0
 42
0.4142135623730902
  0
TEXT
  5
FB
330
17
100
AcDbEntity
  8
TEXT_RU
100
AcDbText
 10
1134.0
 20
385.0
 30
0.0
 40
8.05
  1
ВВН1-6
  7
TXTRU
 72
1
 11
1134.0
 21
385.0
 31
0.0
100
AcDbText
  0
TEXT
  5
FC
330
17
100
AcDbEntity
  8
TEXT_RU
100
AcDbText
 10
1134.0
 20
371.0
 30
0.0
 40
6.65
  1
водокольцевой
  7
TXTRU
 72
1
 11
1134.0
 21
371.0
 31
0.0
100
AcDbText
  0
TEXT
  5
FD
330
17
100
AcDbEntity
  8
TEXT_RU
100
AcDbText
 10
1134.0
 20
359.0
 30
0.0
 40
6.65
  1
вакуум-насос
  7
TXTRU
 72
1
 11
1134.0
 21
359.0
 31
0.0
100
AcDbText
  0
TEXT
  5
FE
330
17
100
AcDbEntity
  8
TEXT_RU
100
AcDbText
 10
1134.0
 20
347.0
 30
0.0
 40
6.65
  1
неконденс. газы
  7
TXTRU
 72
1
 11
1134.0
 21
347.0
 31
0.0
100
AcDbText
  0
LINE
  5
FF
330
17
100
AcDbEntity
  8
DUST
100
AcDbLine
 10
1134.0
 20
338.0
 30
0.0
 11
1134.0
 21
318.0
 31
0.0
  0
SOLID
  5
100
330
17
100
AcDbEntity
  8
DUST
100
AcDbTrace
 10
1139.2
 20
328.4
 30
0.0
 11
1134.0
 21
316.7
 31
0.0
 12
1128.8
 22
328.4
 32
0.0
 13
1128.8
 23
328.4
 33
0.0
  0
TEXT
  5
101
330
17
100
AcDbEntity
  8
TEXT_RU
420
10702494
100
AcDbText
 10
1134.0
 20
306.0
 30
0.0
 40
5.95
  1
выхлоп
  7
TXTRU
 72
1
 11
1134.0
 21
306.0
 31
0.0
100
AcDbText
  0
LINE
  5
102
330
17
100
AcDbEntity
  8
LIQUID
100
AcDbLine
 10
1045.0
 20
426.0
 30
0.0
 11
1045.0
 21
194.0
 31
0.0
  0
TEXT
  5
103
330
17
100
AcDbEntity
  8
TEXT_RU
420
2783446
100
AcDbText
 10
1036.0
 20
318.0
 30
0.0
 40
5.95
  1
труба ПЭБ Ду 100–125
 50
90.0
  7
TXTRU
 72
1
 11
1036.0
 21
318.0
 31
0.0
100
AcDbText
  0
LWPOLYLINE
  5
104
330
17
100
AcDbEntity
  8
LIQUID
100
AcDbPolyline
 90
8
 70
1
 10
1013.0
 20
194.0
 10
1095.0
 20
194.0
 42
0.4142135623730821
 10
1102.0
 20
187.0
 10
1102.0
 20
157.0
 42
0.4142135623730821
 10
1095.0
 20
150.0
 10
1013.0
 20
150.0
 42
0.41421356237309837
 10
1006.0
 20
157.0
 10
1006.0
 20
187.0
 42
0.41421356237309837
  0
TEXT
  5
105
330
17
100
AcDbEntity
  8
TEXT_RU
100
AcDbText
 10
1054.0
 20
177.0
 30
0.0
 40
8.05
  1
ГИДРОЗАТВОР
  7
TXTRU
 72
1
 11
1054.0
 21
177.0
 31
0.0
100
AcDbText
  0
TEXT
  5
106
330
17
100
AcDbEntity
  8
TEXT_RU
100
AcDbText
 10
1054.0
 20
163.0
 30
0.0
 40
6.65
  1
ПЭБ · LIC уровня
  7
TXTRU
 72
1
 11
1054.0
 21
163.0
 31
0.0
100
AcDbText
  0
TEXT
  5
107
330
17
100
AcDbEntity
  8
TEXT_RU
100
AcDbText
 10
20.0
 20
126.0
 30
0.0
 40
7.0
  1
ЛЕГЕНДА
  7
TXTRU
 11
20.0
 21
126.0
 31
0.0
100
AcDbText
  0
LINE
  5
108
330
17
100
AcDbEntity
  8
LIQUID
100
AcDbLine
 10
20.0
 20
113.0
 30
0.0
 11
48.0
 21
113.0
 31
0.0
  0
TEXT
  5
109
330
17
100
AcDbEntity
  8
TEXT_RU
100
AcDbText
 10
54.0
 20
110.0
 30
0.0
 40
6.09
  1
растворы, пульпа, вода кислой СОВ
  7
TXTRU
 11
54.0
 21
110.0
 31
0.0
100
AcDbText
  0
LINE
  5
10A
330
17
100
AcDbEntity
  8
GAS
100
AcDbLine
 10
20.0
 20
99.0
 30
0.0
 11
48.0
 21
99.0
 31
0.0
  0
TEXT
  5
10B
330
17
100
AcDbEntity
  8
TEXT_RU
100
AcDbText
 10
54.0
 20
96.0
 30
0.0
 40
6.09
  1
греющий / рабочий пар 0,6 МПа, конденсат
  7
TXTRU
 11
54.0
 21
96.0
 31
0.0
100
AcDbText
  0
LINE
  5
10C
330
17
100
AcDbEntity
  8
DUST
100
AcDbLine
 10
20.0
 20
85.0
 30
0.0
 11
48.0
 21
85.0
 31
0.0
  0
TEXT
  5
10D
330
17
100
AcDbEntity
  8
TEXT_RU
100
AcDbText
 10
54.0
 20
82.0
 30
0.0
 40
6.09
  1
соковый пар, вакуумные линии, ПГС
  7
TXTRU
 11
54.0
 21
82.0
 31
0.0
100
AcDbText
  0
LINE
  5
10E
330
17
100
AcDbEntity
  8
DIM
  6
DASHED
100
AcDbLine
 10
20.0
 20
71.0
 30
0.0
 11
48.0
 21
71.0
 31
0.0
  0
TEXT
  5
10F
330
17
100
AcDbEntity
  8
TEXT_RU
100
AcDbText
 10
54.0
 20
68.0
 30
0.0
 40
6.09
  1
сигналы КИПиА (пунктир)
  7
TXTRU
 11
54.0
 21
68.0
 31
0.0
100
AcDbText
  0
LINE
  5
110
330
17
100
AcDbEntity
  8
OUTLINE
420
828172
100
AcDbLine
 10
20.0
 20
57.0
 30
0.0
 11
48.0
 21
57.0
 31
0.0
  0
TEXT
  5
111
330
17
100
AcDbEntity
  8
TEXT_RU
100
AcDbText
 10
54.0
 20
54.0
 30
0.0
 40
6.09
  1
выходы к смежным системам
  7
TXTRU
 11
54.0
 21
54.0
 31
0.0
100
AcDbText
  0
CIRCLE
  5
112
330
17
100
AcDbEntity
  8
OUTLINE
100
AcDbCircle
 10
34.0
 20
40.0
 30
0.0
 40
6.0
  0
TEXT
  5
113
330
17
100
AcDbEntity
  8
TEXT_RU
100
AcDbText
 10
54.0
 20
37.0
 30
0.0
 40
6.09
  1
кружок — контур КИПиА (тег)
  7
TXTRU
 11
54.0
 21
37.0
 31
0.0
100
AcDbText
  0
LWPOLYLINE
  5
114
330
17
100
AcDbEntity
  8
OUTLINE
100
AcDbPolyline
 90
3
 70
1
 10
292.0
 20
114.0
 10
300.0
 20
110.0
 10
292.0
 20
106.0
  0
LWPOLYLINE
  5
115
330
17
100
AcDbEntity
  8
OUTLINE
100
AcDbPolyline
 90
3
 70
1
 10
308.0
 20
114.0
 10
300.0
 20
110.0
 10
308.0
 20
106.0
  0
TEXT
  5
116
330
17
100
AcDbEntity
  8
TEXT_RU
100
AcDbText
 10
318.0
 20
107.0
 30
0.0
 40
6.09
  1
клапан регулирующий
  7
TXTRU
 11
318.0
 21
107.0
 31
0.0
100
AcDbText
  0
LWPOLYLINE
  5
117
330
17
100
AcDbEntity
  8
OUTLINE
  6
DASHED
100
AcDbPolyline
 90
3
 70
1
 10
292.0
 20
94.0
 10
300.0
 20
90.0
 10
292.0
 20
86.0
  0
LWPOLYLINE
  5
118
330
17
100
AcDbEntity
  8
OUTLINE
  6
DASHED
100
AcDbPolyline
 90
3
 70
1
 10
308.0
 20
94.0
 10
300.0
 20
90.0
 10
308.0
 20
86.0
  0
TEXT
  5
119
330
17
100
AcDbEntity
  8
TEXT_RU
100
AcDbText
 10
318.0
 20
87.0
 30
0.0
 40
6.09
  1
пунктир — предложение БИ / уточняется при P&ID
  7
TXTRU
 11
318.0
 21
87.0
 31
0.0
100
AcDbText
  0
TEXT
  5
11A
330
17
100
AcDbEntity
  8
TEXT_RU
100
AcDbText
 10
560.0
 20
126.0
 30
0.0
 40
7.0
  1
ОСНОВНЫЕ КОНТУРЫ И УСТАВКИ (из данных БИ)
  7
TXTRU
 11
560.0
 21
126.0
 31
0.0
100
AcDbText
  0
TEXT
  5
11B
330
17
100
AcDbEntity
  8
TEXT_RU
100
AcDbText
 10
560.0
 20
112.0
 30
0.0
 40
5.95
  1
LIC-01/02 · уровни испарителей I/II ст. (радар, 904L/PTFE): питание — клапан линии бака 4.1.22; блокировки по предельным уровням
  7
TXTRU
 11
560.0
 21
112.0
 31
0.0
100
AcDbText
  0
TEXT
  5
11C
330
17
100
AcDbEntity
  8
TEXT_RU
100
AcDbText
 10
560.0
 20
100.5
 30
0.0
 40
5.95
  1
TIC-01 · T испарителя I ст. 40 °C — каскад на клапан греющего пара подогревателя · TI-02 · T II ступени 20 °C (контроль)
  7
TXTRU
 11
560.0
 21
100.5
 31
0.0
100
AcDbText
  0
TEXT
  5
11D
330
17
100
AcDbEntity
  8
TEXT_RU
100
AcDbText
 10
560.0
 20
89.0
 30
0.0
 40
5.95
  1
PIC-01 · вакуум конденсатора 0,075 атм — пар эжектора ПЭБ / клапан-разбиватель вакуума
  7
TXTRU
 11
560.0
 21
89.0
 31
0.0
100
AcDbText
  0
TEXT
  5
11E
330
17
100
AcDbEntity
  8
TEXT_RU
100
AcDbText
 10
560.0
 20
77.5
 30
0.0
 40
5.95
  1
PIC-02 · вакуум II ступени 0,013–0,02 атм — клапан рабочего пара эжектора II ст.
  7
TXTRU
 11
560.0
 21
77.5
 31
0.0
100
AcDbText
  0
TEXT
  5
11F
330
17
100
AcDbEntity
  8
TEXT_RU
100
AcDbText
 10
560.0
 20
66.0
 30
0.0
 40
5.95
  1
DIC-01/02 · плотность в контурах циркуляции (байпас) — выгрузка через солевые колонны; раствор 1,2–1,3, пульпа до 1,45 т/м³
  7
TXTRU
 11
560.0
 21
66.0
 31
0.0
100
AcDbText
  0
TEXT
  5
120
330
17
100
AcDbEntity
  8
TEXT_RU
100
AcDbText
 10
560.0
 20
54.5
 30
0.0
 40
5.95
  1
FIC-01 · питание нитки 1: 5,0–5,3 м³/ч (эл.-магнитный, PFA) · FIQ · учёт пара · LIC гидрозатворов барометрических труб
  7
TXTRU
 11
560.0
 21
54.5
 31
0.0
100
AcDbText
  0
TEXT
  5
121
330
17
100
AcDbEntity
  8
TEXT_RU
100
AcDbText
 10
560.0
 20
43.0
 30
0.0
 40
5.95
  1
насосы: защита от сухого хода, контроль протечек · эжектор II ст.: сжатие 3,8–5,8, u = 0,5, запас 1,3 · ПЭБ: 0,06–0,08 атм, ВВН1-6
  7
TXTRU
 11
560.0
 21
43.0
 31
0.0
100
AcDbText
  0
TEXT
  5
122
330
17
100
AcDbEntity
  8
TEXT_RU
100
AcDbText
 10
560.0
 20
31.5
 30
0.0
 40
5.95
  1
уточняется при P&ID: перечень блокировок; защита от срыва вакуума (разбиватель, обратные клапаны); тип плотномера (лицензия РБ)
  7
TXTRU
 11
560.0
 21
31.5
 31
0.0
100
AcDbText
  0
ENDSEC
  0
SECTION
  2
OBJECTS
  0
DICTIONARY
  5
A
330
0
100
AcDbDictionary
281
1
  3
ACAD_COLOR
350
B
  3
ACAD_GROUP
350
C
  3
ACAD_LAYOUT
350
D
  3
ACAD_MATERIAL
350
E
  3
ACAD_MLEADERSTYLE
350
F
  3
ACAD_MLINESTYLE
350
10
  3
ACAD_PLOTSETTINGS
350
11
  3
ACAD_PLOTSTYLENAME
350
12
  3
ACAD_SCALELIST
350
14
  3
ACAD_TABLESTYLE
350
15
  3
ACAD_VISUALSTYLE
350
16
  3
EZDXF_META
350
2D
  0
DICTIONARY
  5
B
330
A
100
AcDbDictionary
281
1
  0
DICTIONARY
  5
C
330
A
100
AcDbDictionary
281
1
  0
DICTIONARY
  5
D
330
A
100
AcDbDictionary
281
1
  3
Model
350
1A
  3
Layout1
350
1E
  0
DICTIONARY
  5
E
330
A
100
AcDbDictionary
281
1
  3
ByBlock
350
1F
  3
ByLayer
350
20
  3
Global
350
21
  0
DICTIONARY
  5
F
330
A
100
AcDbDictionary
281
1
  3
Standard
350
2C
  0
DICTIONARY
  5
10
330
A
100
AcDbDictionary
281
1
  3
Standard
350
22
  0
DICTIONARY
  5
11
330
A
100
AcDbDictionary
281
1
  0
ACDBDICTIONARYWDFLT
  5
12
330
A
100
AcDbDictionary
281
1
  3
Normal
350
13
100
AcDbDictionaryWithDefault
340
13
  0
ACDBPLACEHOLDER
  5
13
330
12
  0
DICTIONARY
  5
14
330
A
100
AcDbDictionary
281
1
  0
DICTIONARY
  5
15
330
A
100
AcDbDictionary
281
1
  0
DICTIONARY
  5
16
330
A
100
AcDbDictionary
281
1
  0
LAYOUT
  5
1A
330
D
100
AcDbPlotSettings
  1

  4
A3
  6

 40
7.5
 41
20.0
 42
7.5
 43
20.0
 44
420.0
 45
297.0
 46
0.0
 47
0.0
 48
0.0
 49
0.0
140
0.0
141
0.0
142
1.0
143
1.0
 70
1024
 72
1
 73
0
 74
5
  7

 75
16
 76
0
 77
2
 78
300
147
1.0
148
0.0
149
0.0
100
AcDbLayout
  1
Model
 70
1
 71
0
 10
0.0
 20
0.0
 11
1190.0
 21
640.0
 12
0.0
 22
0.0
 32
0.0
 14
-0.01
 24
-0.01
 34
0.0
 15
1190.0
 25
640.0
 35
0.0
146
0.0
 13
0.0
 23
0.0
 33
0.0
 16
1.0
 26
0.0
 36
0.0
 17
0.0
 27
1.0
 37
0.0
 76
1
330
17
  0
LAYOUT
  5
1E
330
D
100
AcDbPlotSettings
  1

  4
A3
  6

 40
7.5
 41
20.0
 42
7.5
 43
20.0
 44
420.0
 45
297.0
 46
0.0
 47
0.0
 48
0.0
 49
0.0
140
0.0
141
0.0
142
1.0
143
1.0
 70
0
 72
1
 73
0
 74
5
  7

 75
16
 76
0
 77
2
 78
300
147
1.0
148
0.0
149
0.0
100
AcDbLayout
  1
Layout1
 70
1
 71
1
 10
0.0
 20
0.0
 11
420.0
 21
297.0
 12
0.0
 22
0.0
 32
0.0
 14
1e+20
 24
1e+20
 34
1e+20
 15
-1e+20
 25
-1e+20
 35
-1e+20
146
0.0
 13
0.0
 23
0.0
 33
0.0
 16
1.0
 26
0.0
 36
0.0
 17
0.0
 27
1.0
 37
0.0
 76
1
330
1B
  0
MATERIAL
  5
1F
102
{ACAD_REACTORS
330
E
102
}
330
E
100
AcDbMaterial
  1
ByBlock
  2

 70
0
 40
1.0
 71
1
 41
1.0
 91
-1023410177
 42
1.0
 72
1
  3

 73
1
 74
1
 75
1
 44
0.5
 73
0
 45
1.0
 46
1.0
 77
1
  4

 78
1
 79
1
170
1
 48
1.0
171
1
  6

172
1
173
1
174
1
140
1.0
141
1.0
175
1
  7

176
1
177
1
178
1
143
1.0
179
1
  8

270
1
271
1
272
1
145
1.0
146
1.0
273
1
  9

274
1
275
1
276
1
 42
1.0
 72
1
  3

 73
1
 74
1
 75
1
 94
63
  0
MATERIAL
  5
20
102
{ACAD_REACTORS
330
E
102
}
330
E
100
AcDbMaterial
  1
ByLayer
  2

 70
0
 40
1.0
 71
1
 41
1.0
 91
-1023410177
 42
1.0
 72
1
  3

 73
1
 74
1
 75
1
 44
0.5
 73
0
 45
1.0
 46
1.0
 77
1
  4

 78
1
 79
1
170
1
 48
1.0
171
1
  6

172
1
173
1
174
1
140
1.0
141
1.0
175
1
  7

176
1
177
1
178
1
143
1.0
179
1
  8

270
1
271
1
272
1
145
1.0
146
1.0
273
1
  9

274
1
275
1
276
1
 42
1.0
 72
1
  3

 73
1
 74
1
 75
1
 94
63
  0
MATERIAL
  5
21
102
{ACAD_REACTORS
330
E
102
}
330
E
100
AcDbMaterial
  1
Global
  2

 70
0
 40
1.0
 71
1
 41
1.0
 91
-1023410177
 42
1.0
 72
1
  3

 73
1
 74
1
 75
1
 44
0.5
 73
0
 45
1.0
 46
1.0
 77
1
  4

 78
1
 79
1
170
1
 48
1.0
171
1
  6

172
1
173
1
174
1
140
1.0
141
1.0
175
1
  7

176
1
177
1
178
1
143
1.0
179
1
  8

270
1
271
1
272
1
145
1.0
146
1.0
273
1
  9

274
1
275
1
276
1
 42
1.0
 72
1
  3

 73
1
 74
1
 75
1
 94
63
  0
MLINESTYLE
  5
22
102
{ACAD_REACTORS
330
10
102
}
330
10
100
AcDbMlineStyle
  2
Standard
 70
0
  3

 62
256
 51
90.0
 52
90.0
 71
2
 49
0.5
 62
256
  6
BYLAYER
 49
-0.5
 62
256
  6
BYLAYER
  0
MLEADERSTYLE
  5
2C
102
{ACAD_REACTORS
330
F
102
}
330
F
100
AcDbMLeaderStyle
179
2
170
2
171
1
172
0
 90
2
 40
0.0
 41
0.0
173
1
 91
-1056964608
 92
-2
290
1
 42
2.0
291
1
 43
8.0
  3
Standard
 44
4.0
300

342
29
174
1
175
1
176
0
178
1
 93
-1056964608
 45
4.0
292
0
297
0
 46
4.0
 94
-1056964608
 47
1.0
 49
1.0
140
1.0
294
1
141
0.0
177
0
142
1.0
295
0
296
0
143
3.75
271
0
272
9
273
9
  0
DICTIONARY
  5
2D
330
A
100
AcDbDictionary
280
1
281
1
  3
CREATED_BY_EZDXF
350
2E
  3
WRITTEN_BY_EZDXF
350
125
  0
DICTIONARYVAR
  5
2E
330
2D
100
DictionaryVariables
280
0
  1
1.4.4 @ 2026-08-28T02:58:58.134536+00:00
  0
DICTIONARYVAR
  5
125
330
2D
100
DictionaryVariables
280
0
  1
1.4.4 @ 2026-08-28T02:58:58.147215+00:00
  0
ENDSEC
  0
EOF
