  0
SECTION
  2
HEADER
  9
$ACADVER
  1
AC1024
  9
$ACADMAINTVER
 70
6
  9
$DWGCODEPAGE
  3
ANSI_1252
  9
$LASTSAVEDBY
  1
ezdxf
  9
$INSBASE
 10
0.0
 20
0.0
 30
0.0
  9
$EXTMIN
 10
-0.01
 20
-0.01
 30
0.0
  9
$EXTMAX
 10
1190.0
 20
640.0
 30
0.0
  9
$LIMMIN
 10
0.0
 20
0.0
  9
$LIMMAX
 10
1190.0
 20
640.0
  9
$ORTHOMODE
 70
0
  9
$REGENMODE
 70
1
  9
$FILLMODE
 70
1
  9
$QTEXTMODE
 70
0
  9
$MIRRTEXT
 70
1
  9
$LTSCALE
 40
1.0
  9
$ATTMODE
 70
1
  9
$TEXTSIZE
 40
2.5
  9
$TRACEWID
 40
1.0
  9
$TEXTSTYLE
  7
Standard
  9
$CLAYER
  8
0
  9
$CELTYPE
  6
ByLayer
  9
$CECOLOR
 62
256
  9
$CELTSCALE
 40
1.0
  9
$DISPSILH
 70
0
  9
$DIMSCALE
 40
1.0
  9
$DIMASZ
 40
2.5
  9
$DIMEXO
 40
0.625
  9
$DIMDLI
 40
3.75
  9
$DIMRND
 40
0.0
  9
$DIMDLE
 40
0.0
  9
$DIMEXE
 40
1.25
  9
$DIMTP
 40
0.0
  9
$DIMTM
 40
0.0
  9
$DIMTXT
 40
2.5
  9
$DIMCEN
 40
2.5
  9
$DIMTSZ
 40
0.0
  9
$DIMTOL
 70
0
  9
$DIMLIM
 70
0
  9
$DIMTIH
 70
0
  9
$DIMTOH
 70
0
  9
$DIMSE1
 70
0
  9
$DIMSE2
 70
0
  9
$DIMTAD
 70
1
  9
$DIMZIN
 70
8
  9
$DIMBLK
  1

  9
$DIMASO
 70
1
  9
$DIMSHO
 70
1
  9
$DIMPOST
  1

  9
$DIMAPOST
  1

  9
$DIMALT
 70
0
  9
$DIMALTD
 70
3
  9
$DIMALTF
 40
0.03937007874
  9
$DIMLFAC
 40
1.0
  9
$DIMTOFL
 70
1
  9
$DIMTVP
 40
0.0
  9
$DIMTIX
 70
0
  9
$DIMSOXD
 70
0
  9
$DIMSAH
 70
0
  9
$DIMBLK1
  1

  9
$DIMBLK2
  1

  9
$DIMSTYLE
  2
ISO-25
  9
$DIMCLRD
 70
0
  9
$DIMCLRE
 70
0
  9
$DIMCLRT
 70
0
  9
$DIMTFAC
 40
1.0
  9
$DIMGAP
 40
0.625
  9
$DIMJUST
 70
0
  9
$DIMSD1
 70
0
  9
$DIMSD2
 70
0
  9
$DIMTOLJ
 70
0
  9
$DIMTZIN
 70
8
  9
$DIMALTZ
 70
0
  9
$DIMALTTZ
 70
0
  9
$DIMUPT
 70
0
  9
$DIMDEC
 70
2
  9
$DIMTDEC
 70
2
  9
$DIMALTU
 70
2
  9
$DIMALTTD
 70
3
  9
$DIMTXSTY
  7
Standard
  9
$DIMAUNIT
 70
0
  9
$DIMADEC
 70
0
  9
$DIMALTRND
 40
0.0
  9
$DIMAZIN
 70
0
  9
$DIMDSEP
 70
44
  9
$DIMATFIT
 70
3
  9
$DIMFRAC
 70
0
  9
$DIMLDRBLK
  1

  9
$DIMLUNIT
 70
2
  9
$DIMLWD
 70
-2
  9
$DIMLWE
 70
-2
  9
$DIMTMOVE
 70
0
  9
$DIMFXL
 40
1.0
  9
$DIMFXLON
 70
0
  9
$DIMJOGANG
 40
0.785398163397
  9
$DIMTFILL
 70
0
  9
$DIMTFILLCLR
 70
0
  9
$DIMARCSYM
 70
0
  9
$DIMLTYPE
  6

  9
$DIMLTEX1
  6

  9
$DIMLTEX2
  6

  9
$DIMTXTDIRECTION
 70
0
  9
$LUNITS
 70
2
  9
$LUPREC
 70
4
  9
$SKETCHINC
 40
1.0
  9
$FILLETRAD
 40
10.0
  9
$AUNITS
 70
0
  9
$AUPREC
 70
2
  9
$MENU
  1
.
  9
$ELEVATION
 40
0.0
  9
$PELEVATION
 40
0.0
  9
$THICKNESS
 40
0.0
  9
$LIMCHECK
 70
0
  9
$CHAMFERA
 40
0.0
  9
$CHAMFERB
 40
0.0
  9
$CHAMFERC
 40
0.0
  9
$CHAMFERD
 40
0.0
  9
$SKPOLY
 70
0
  9
$TDCREATE
 40
2461281.1242824076
  9
$TDUCREATE
 40
2458532.153996898
  9
$TDUPDATE
 40
2461281.1242824076
  9
$TDUUPDATE
 40
2458532.1544311
  9
$TDINDWG
 40
0.0
  9
$TDUSRTIMER
 40
0.0
  9
$USRTIMER
 70
1
  9
$ANGBASE
 50
0.0
  9
$ANGDIR
 70
0
  9
$PDMODE
 70
0
  9
$PDSIZE
 40
0.0
  9
$PLINEWID
 40
0.0
  9
$SPLFRAME
 70
0
  9
$SPLINETYPE
 70
6
  9
$SPLINESEGS
 70
8
  9
$HANDSEED
  5
1CA
  9
$SURFTAB1
 70
6
  9
$SURFTAB2
 70
6
  9
$SURFTYPE
 70
6
  9
$SURFU
 70
6
  9
$SURFV
 70
6
  9
$UCSBASE
  2

  9
$UCSNAME
  2

  9
$UCSORG
 10
0.0
 20
0.0
 30
0.0
  9
$UCSXDIR
 10
1.0
 20
0.0
 30
0.0
  9
$UCSYDIR
 10
0.0
 20
1.0
 30
0.0
  9
$UCSORTHOREF
  2

  9
$UCSORTHOVIEW
 70
0
  9
$UCSORGTOP
 10
0.0
 20
0.0
 30
0.0
  9
$UCSORGBOTTOM
 10
0.0
 20
0.0
 30
0.0
  9
$UCSORGLEFT
 10
0.0
 20
0.0
 30
0.0
  9
$UCSORGRIGHT
 10
0.0
 20
0.0
 30
0.0
  9
$UCSORGFRONT
 10
0.0
 20
0.0
 30
0.0
  9
$UCSORGBACK
 10
0.0
 20
0.0
 30
0.0
  9
$PUCSBASE
  2

  9
$PUCSNAME
  2

  9
$PUCSORG
 10
0.0
 20
0.0
 30
0.0
  9
$PUCSXDIR
 10
1.0
 20
0.0
 30
0.0
  9
$PUCSYDIR
 10
0.0
 20
1.0
 30
0.0
  9
$PUCSORTHOREF
  2

  9
$PUCSORTHOVIEW
 70
0
  9
$PUCSORGTOP
 10
0.0
 20
0.0
 30
0.0
  9
$PUCSORGBOTTOM
 10
0.0
 20
0.0
 30
0.0
  9
$PUCSORGLEFT
 10
0.0
 20
0.0
 30
0.0
  9
$PUCSORGRIGHT
 10
0.0
 20
0.0
 30
0.0
  9
$PUCSORGFRONT
 10
0.0
 20
0.0
 30
0.0
  9
$PUCSORGBACK
 10
0.0
 20
0.0
 30
0.0
  9
$USERI1
 70
0
  9
$USERI2
 70
0
  9
$USERI3
 70
0
  9
$USERI4
 70
0
  9
$USERI5
 70
0
  9
$USERR1
 40
0.0
  9
$USERR2
 40
0.0
  9
$USERR3
 40
0.0
  9
$USERR4
 40
0.0
  9
$USERR5
 40
0.0
  9
$WORLDVIEW
 70
1
  9
$SHADEDGE
 70
3
  9
$SHADEDIF
 70
70
  9
$TILEMODE
 70
1
  9
$MAXACTVP
 70
64
  9
$PINSBASE
 10
0.0
 20
0.0
 30
0.0
  9
$PLIMCHECK
 70
0
  9
$PEXTMIN
 10
1e+20
 20
1e+20
 30
1e+20
  9
$PEXTMAX
 10
-1e+20
 20
-1e+20
 30
-1e+20
  9
$PLIMMIN
 10
0.0
 20
0.0
  9
$PLIMMAX
 10
420.0
 20
297.0
  9
$UNITMODE
 70
0
  9
$VISRETAIN
 70
1
  9
$PLINEGEN
 70
0
  9
$PSLTSCALE
 70
1
  9
$TREEDEPTH
 70
3020
  9
$CMLSTYLE
  2
Standard
  9
$CMLJUST
 70
0
  9
$CMLSCALE
 40
20.0
  9
$PROXYGRAPHICS
 70
1
  9
$MEASUREMENT
 70
1
  9
$CELWEIGHT
370
-1
  9
$ENDCAPS
280
0
  9
$JOINSTYLE
280
0
  9
$LWDISPLAY
290
0
  9
$INSUNITS
 70
4
  9
$HYPERLINKBASE
  1

  9
$STYLESHEET
  1

  9
$XEDIT
290
1
  9
$CEPSNTYPE
380
0
  9
$PSTYLEMODE
290
1
  9
$FINGERPRINTGUID
  2
{B6E30FCC-AFD7-453E-8176-07D2B5EC0AF1}
  9
$VERSIONGUID
  2
{E0968863-60E8-476F-8741-1C45194ABD8F}
  9
$EXTNAMES
290
1
  9
$PSVPSCALE
 40
0.0
  9
$OLESTARTUP
290
0
  9
$SORTENTS
280
127
  9
$INDEXCTL
280
0
  9
$HIDETEXT
280
1
  9
$XCLIPFRAME
280
1
  9
$HALOGAP
280
0
  9
$OBSCOLOR
 70
257
  9
$OBSLTYPE
280
0
  9
$INTERSECTIONDISPLAY
280
0
  9
$INTERSECTIONCOLOR
 70
257
  9
$DIMASSOC
280
2
  9
$PROJECTNAME
  1

  9
$CAMERADISPLAY
290
0
  9
$LENSLENGTH
 40
50.0
  9
$CAMERAHEIGHT
 40
0.0
  9
$STEPSPERSEC
 40
24.0
  9
$STEPSIZE
 40
100.0
  9
$3DDWFPREC
 40
2.0
  9
$PSOLWIDTH
 40
0.005
  9
$PSOLHEIGHT
 40
0.08
  9
$LOFTANG1
 40
1.570796326795
  9
$LOFTANG2
 40
1.570796326795
  9
$LOFTMAG1
 40
0.0
  9
$LOFTMAG2
 40
0.0
  9
$LOFTPARAM
 70
7
  9
$LOFTNORMALS
280
1
  9
$LATITUDE
 40
37.795
  9
$LONGITUDE
 40
-122.394
  9
$NORTHDIRECTION
 40
0.0
  9
$TIMEZONE
 70
-8000
  9
$LIGHTGLYPHDISPLAY
280
1
  9
$TILEMODELIGHTSYNCH
280
1
  9
$CMATERIAL
347
20
  9
$SOLIDHIST
280
0
  9
$SHOWHIST
280
1
  9
$DWFFRAME
280
2
  9
$DGNFRAME
280
2
  9
$REALWORLDSCALE
290
1
  9
$INTERFERECOLOR
 62
256
  9
$CSHADOW
280
0
  9
$SHADOWPLANELOCATION
 40
0.0
  0
ENDSEC
  0
SECTION
  2
CLASSES
  0
CLASS
  1
ACDBDICTIONARYWDFLT
  2
AcDbDictionaryWithDefault
  3
ObjectDBX Classes
 90
0
 91
0
280
0
281
0
  0
CLASS
  1
SUN
  2
AcDbSun
  3
SCENEOE
 90
1153
 91
0
280
0
281
0
  0
CLASS
  1
VISUALSTYLE
  2
AcDbVisualStyle
  3
ObjectDBX Classes
 90
4095
 91
0
280
0
281
0
  0
CLASS
  1
MATERIAL
  2
AcDbMaterial
  3
ObjectDBX Classes
 90
1153
 91
0
280
0
281
0
  0
CLASS
  1
SCALE
  2
AcDbScale
  3
ObjectDBX Classes
 90
1153
 91
0
280
0
281
0
  0
CLASS
  1
TABLESTYLE
  2
AcDbTableStyle
  3
ObjectDBX Classes
 90
4095
 91
0
280
0
281
0
  0
CLASS
  1
MLEADERSTYLE
  2
AcDbMLeaderStyle
  3
ACDB_MLEADERSTYLE_CLASS
 90
4095
 91
0
280
0
281
0
  0
CLASS
  1
DICTIONARYVAR
  2
AcDbDictionaryVar
  3
ObjectDBX Classes
 90
0
 91
0
280
0
281
0
  0
CLASS
  1
CELLSTYLEMAP
  2
AcDbCellStyleMap
  3
ObjectDBX Classes
 90
1152
 91
0
280
0
281
0
  0
CLASS
  1
MENTALRAYRENDERSETTINGS
  2
AcDbMentalRayRenderSettings
  3
SCENEOE
 90
1024
 91
0
280
0
281
0
  0
CLASS
  1
ACDBDETAILVIEWSTYLE
  2
AcDbDetailViewStyle
  3
ObjectDBX Classes
 90
1025
 91
0
280
0
281
0
  0
CLASS
  1
ACDBSECTIONVIEWSTYLE
  2
AcDbSectionViewStyle
  3
ObjectDBX Classes
 90
1025
 91
0
280
0
281
0
  0
CLASS
  1
RASTERVARIABLES
  2
AcDbRasterVariables
  3
ISM
 90
0
 91
0
280
0
281
0
  0
CLASS
  1
LAYOUT
  2
AcDbLayout
  3
ObjectDBX Classes
 90
0
 91
0
280
0
281
0
  0
CLASS
  1
ACDBPLACEHOLDER
  2
AcDbPlaceHolder
  3
ObjectDBX Classes
 90
0
 91
0
280
0
281
0
  0
ENDSEC
  0
SECTION
  2
TABLES
  0
TABLE
  2
VPORT
  5
8
330
0
100
AcDbSymbolTable
 70
1
  0
VPORT
  5
23
330
8
100
AcDbSymbolTableRecord
100
AcDbViewportTableRecord
  2
*Active
 70
0
 10
0.0
 20
0.0
 11
1.0
 21
1.0
 12
0.0
 22
0.0
 13
0.0
 23
0.0
 14
0.5
 24
0.5
 15
0.5
 25
0.5
 16
0.0
 26
0.0
 36
1.0
 17
0.0
 27
0.0
 37
0.0
 40
1000.0
 41
1.34
 42
50.0
 43
0.0
 44
0.0
 50
0.0
 51
0.0
 71
0
 72
1000
 73
1
 74
3
 75
0
 76
0
 77
0
 78
0
281
0
 65
0
146
0.0
  0
ENDTAB
  0
TABLE
  2
LTYPE
  5
2
330
0
100
AcDbSymbolTable
 70
5
  0
LTYPE
  5
24
330
2
100
AcDbSymbolTableRecord
100
AcDbLinetypeTableRecord
  2
ByBlock
 70
0
  3

 72
65
 73
0
 40
0.0
  0
LTYPE
  5
25
330
2
100
AcDbSymbolTableRecord
100
AcDbLinetypeTableRecord
  2
ByLayer
 70
0
  3

 72
65
 73
0
 40
0.0
  0
LTYPE
  5
26
330
2
100
AcDbSymbolTableRecord
100
AcDbLinetypeTableRecord
  2
Continuous
 70
0
  3

 72
65
 73
0
 40
0.0
  0
LTYPE
  5
2F
330
2
100
AcDbSymbolTableRecord
100
AcDbLinetypeTableRecord
  2
DASHED
 70
0
  3
Штриховая — — — —
 72
65
 73
2
 40
9.0
 49
6.0
 74
0
 49
-3.0
 74
0
  0
LTYPE
  5
30
330
2
100
AcDbSymbolTableRecord
100
AcDbLinetypeTableRecord
  2
DASHDOT
 70
0
  3
Штрихпунктирная — · — · —
 72
65
 73
4
 40
14.0
 49
8.0
 74
0
 49
-3.0
 74
0
 49
0.0
 74
0
 49
-3.0
 74
0
  0
ENDTAB
  0
TABLE
  2
LAYER
  5
1
330
0
100
AcDbSymbolTable
 70
10
  0
LAYER
  5
27
330
1
100
AcDbSymbolTableRecord
100
AcDbLayerTableRecord
  2
0
 70
0
 62
7
  6
Continuous
370
-3
390
13
347
21
  0
LAYER
  5
28
330
1
100
AcDbSymbolTableRecord
100
AcDbLayerTableRecord
  2
Defpoints
 70
0
 62
7
  6
Continuous
290
0
370
-3
390
13
347
21
  0
LAYER
  5
32
330
1
100
AcDbSymbolTableRecord
100
AcDbLayerTableRecord
  2
GAS
 70
0
 62
30
420
14712622
  6
Continuous
370
35
390
13
347
21
1001
AcAecLayerStandard
1000

1000
Газовый тракт (оранжевый)
  0
LAYER
  5
34
330
1
100
AcDbSymbolTableRecord
100
AcDbLayerTableRecord
  2
LIQUID
 70
0
 62
5
420
2783446
  6
Continuous
370
35
390
13
347
21
1001
AcAecLayerStandard
1000

1000
Жидкостные потоки: кислота, растворы, вода (синий)
  0
LAYER
  5
35
330
1
100
AcDbSymbolTableRecord
100
AcDbLayerTableRecord
  2
DUST
 70
0
 62
6
420
10702494
  6
Continuous
370
35
390
13
347
21
1001
AcAecLayerStandard
1000

1000
Пылевой тракт: циклоны, фильтры (фиолетовый)
  0
LAYER
  5
36
330
1
100
AcDbSymbolTableRecord
100
AcDbLayerTableRecord
  2
ELECTRIC
 70
0
 62
2
420
16429593
  6
Continuous
370
30
390
13
347
21
1001
AcAecLayerStandard
1000

1000
Электрика / энергоснабжение (жёлтый)
  0
LAYER
  5
37
330
1
100
AcDbSymbolTableRecord
100
AcDbLayerTableRecord
  2
INTERLOCK
 70
0
 62
1
420
13646651
  6
Continuous
370
30
390
13
347
21
1001
AcAecLayerStandard
1000

1000
Блокировки и защиты (красный)
  0
LAYER
  5
38
330
1
100
AcDbSymbolTableRecord
100
AcDbLayerTableRecord
  2
OUTLINE
 70
0
 62
7
  6
Continuous
370
25
390
13
347
21
1001
AcAecLayerStandard
1000

1000
Контуры оборудования, строительная графика (ink)
  0
LAYER
  5
39
330
1
100
AcDbSymbolTableRecord
100
AcDbLayerTableRecord
  2
TEXT_RU
 70
0
 62
7
  6
Continuous
370
25
390
13
347
21
1001
AcAecLayerStandard
1000

1000
Надписи (русские, UTF-8)
  0
LAYER
  5
3A
330
1
100
AcDbSymbolTableRecord
100
AcDbLayerTableRecord
  2
DIM
 70
0
 62
8
  6
Continuous
370
13
390
13
347
21
1001
AcAecLayerStandard
1000

1000
Размерные и вспомогательные линии, рамка, сетка
  0
ENDTAB
  0
TABLE
  2
STYLE
  5
5
330
0
100
AcDbSymbolTable
 70
2
  0
STYLE
  5
29
330
5
100
AcDbSymbolTableRecord
100
AcDbTextStyleTableRecord
  2
Standard
 70
0
 40
0.0
 41
1.0
 50
0.0
 71
0
 42
2.5
  3
txt
  4

  0
STYLE
  5
31
330
5
100
AcDbSymbolTableRecord
100
AcDbTextStyleTableRecord
  2
TXTRU
 70
0
 40
0.0
 41
1.0
 50
0.0
 71
0
 42
2.5
  3
arial.ttf
  4

  0
ENDTAB
  0
TABLE
  2
VIEW
  5
7
330
0
100
AcDbSymbolTable
 70
0
  0
ENDTAB
  0
TABLE
  2
UCS
  5
6
330
0
100
AcDbSymbolTable
 70
0
  0
ENDTAB
  0
TABLE
  2
APPID
  5
3
330
0
100
AcDbSymbolTable
 70
4
  0
APPID
  5
2A
330
3
100
AcDbSymbolTableRecord
100
AcDbRegAppTableRecord
  2
ACAD
 70
0
  0
APPID
  5
33
330
3
100
AcDbSymbolTableRecord
100
AcDbRegAppTableRecord
  2
AcAecLayerStandard
 70
0
  0
APPID
  5
1C7
330
3
100
AcDbSymbolTableRecord
100
AcDbRegAppTableRecord
  2
HATCHBACKGROUNDCOLOR
 70
0
  0
APPID
  5
1C8
330
3
100
AcDbSymbolTableRecord
100
AcDbRegAppTableRecord
  2
EZDXF
 70
0
  0
ENDTAB
  0
TABLE
  2
DIMSTYLE
  5
4
330
0
100
AcDbSymbolTable
 70
1
100
AcDbDimStyleTable
  0
DIMSTYLE
105
2B
330
4
100
AcDbSymbolTableRecord
100
AcDbDimStyleTableRecord
  2
Standard
 70
0
 40
1.0
 41
2.5
 42
0.625
 43
3.75
 44
1.25
 45
0.0
 46
0.0
 47
0.0
 48
0.0
 49
2.5
140
2.5
141
2.5
142
0.0
143
0.03937007874
144
1.0
145
0.0
146
1.0
147
0.625
148
0.0
 69
0
 70
0
 71
0
 72
0
 73
0
 74
0
 75
0
 76
0
 77
1
 78
8
 79
3
170
0
171
3
172
1
173
0
174
0
175
0
176
0
177
0
178
0
179
2
271
2
272
2
273
2
274
3
275
0
276
0
277
2
278
44
279
0
280
0
281
0
282
0
283
0
284
8
285
0
286
0
288
0
289
3
290
0
371
-2
372
-2
  0
ENDTAB
  0
TABLE
  2
BLOCK_RECORD
  5
9
330
0
100
AcDbSymbolTable
 70
2
  0
BLOCK_RECORD
  5
17
330
9
100
AcDbSymbolTableRecord
100
AcDbBlockTableRecord
  2
*Model_Space
340
1A
 70
0
280
1
281
0
  0
BLOCK_RECORD
  5
1B
330
9
100
AcDbSymbolTableRecord
100
AcDbBlockTableRecord
  2
*Paper_Space
340
1E
 70
0
280
1
281
0
  0
ENDTAB
  0
ENDSEC
  0
SECTION
  2
BLOCKS
  0
BLOCK
  5
18
330
17
100
AcDbEntity
  8
0
100
AcDbBlockBegin
  2
*Model_Space
 70
0
 10
0.0
 20
0.0
 30
0.0
  3
*Model_Space
  1

  0
ENDBLK
  5
19
330
17
100
AcDbEntity
  8
0
100
AcDbBlockEnd
  0
BLOCK
  5
1C
330
1B
100
AcDbEntity
  8
0
100
AcDbBlockBegin
  2
*Paper_Space
 70
0
 10
0.0
 20
0.0
 30
0.0
  3
*Paper_Space
  1

  0
ENDBLK
  5
1D
330
1B
100
AcDbEntity
  8
0
100
AcDbBlockEnd
  0
ENDSEC
  0
SECTION
  2
ENTITIES
  0
LWPOLYLINE
  5
3B
330
17
100
AcDbEntity
  8
DIM
420
15198183
100
AcDbPolyline
 90
4
 70
1
 10
6.0
 20
634.0
 10
1184.0
 20
634.0
 10
1184.0
 20
6.0
 10
6.0
 20
6.0
  0
TEXT
  5
3C
330
17
100
AcDbEntity
  8
TEXT_RU
100
AcDbText
 10
20.0
 20
14.0
 30
0.0
 40
7.0
  1
ЭСКИЗ — не для строительства · Компоновка Лота №2 (купоросы) в сущ. ГМУ + высотная проверка барометрич. конденсаторов · источники: Прил. №7 ФМ.01648-АР/АР1/КО, ТЗ п. 4.5, расчёт БИ · КВАНТ, черновик БИ
  7
TXTRU
 11
20.0
 21
14.0
 31
0.0
100
AcDbText
  0
TEXT
  5
3D
330
17
100
AcDbEntity
  8
TEXT_RU
100
AcDbText
 10
1174.0
 20
610.0
 30
0.0
 40
8.4
  1
КОМПОНОВКА · ЛОТ №2 — УЧАСТОК КУПОРОСОВ В ЗДАНИИ ГМУ
  7
TXTRU
 72
2
 11
1174.0
 21
610.0
 31
0.0
100
AcDbText
  0
TEXT
  5
3E
330
17
100
AcDbEntity
  8
TEXT_RU
100
AcDbText
 10
36.0
 20
584.0
 30
0.0
 40
7.35
  1
ПЛАН ЗДАНИЯ ГМУ 96 × 108 М (ПРИЛ. №7: ФМ.01648-АР/АР1/КО)
  7
TXTRU
 11
36.0
 21
584.0
 31
0.0
100
AcDbText
  0
LINE
  5
3F
330
17
100
AcDbEntity
  8
DIM
420
15198183
100
AcDbLine
 10
110.0
 20
562.0
 30
0.0
 11
350.0
 21
562.0
 31
0.0
  0
LINE
  5
40
330
17
100
AcDbEntity
  8
DIM
420
15198183
100
AcDbLine
 10
110.0
 20
547.0
 30
0.0
 11
350.0
 21
547.0
 31
0.0
  0
LINE
  5
41
330
17
100
AcDbEntity
  8
DIM
420
15198183
100
AcDbLine
 10
110.0
 20
532.0
 30
0.0
 11
350.0
 21
532.0
 31
0.0
  0
LINE
  5
42
330
17
100
AcDbEntity
  8
DIM
420
15198183
100
AcDbLine
 10
110.0
 20
517.0
 30
0.0
 11
350.0
 21
517.0
 31
0.0
  0
LINE
  5
43
330
17
100
AcDbEntity
  8
DIM
420
15198183
100
AcDbLine
 10
110.0
 20
502.0
 30
0.0
 11
350.0
 21
502.0
 31
0.0
  0
LINE
  5
44
330
17
100
AcDbEntity
  8
DIM
420
15198183
100
AcDbLine
 10
110.0
 20
487.0
 30
0.0
 11
350.0
 21
487.0
 31
0.0
  0
LINE
  5
45
330
17
100
AcDbEntity
  8
DIM
420
15198183
100
AcDbLine
 10
110.0
 20
472.0
 30
0.0
 11
350.0
 21
472.0
 31
0.0
  0
LINE
  5
46
330
17
100
AcDbEntity
  8
DIM
420
15198183
100
AcDbLine
 10
110.0
 20
457.0
 30
0.0
 11
350.0
 21
457.0
 31
0.0
  0
LINE
  5
47
330
17
100
AcDbEntity
  8
DIM
420
15198183
100
AcDbLine
 10
110.0
 20
442.0
 30
0.0
 11
350.0
 21
442.0
 31
0.0
  0
LINE
  5
48
330
17
100
AcDbEntity
  8
DIM
420
15198183
100
AcDbLine
 10
110.0
 20
427.0
 30
0.0
 11
350.0
 21
427.0
 31
0.0
  0
LINE
  5
49
330
17
100
AcDbEntity
  8
DIM
420
15198183
100
AcDbLine
 10
110.0
 20
412.0
 30
0.0
 11
350.0
 21
412.0
 31
0.0
  0
LINE
  5
4A
330
17
100
AcDbEntity
  8
DIM
420
15198183
100
AcDbLine
 10
110.0
 20
397.0
 30
0.0
 11
350.0
 21
397.0
 31
0.0
  0
LINE
  5
4B
330
17
100
AcDbEntity
  8
DIM
420
15198183
100
AcDbLine
 10
110.0
 20
382.0
 30
0.0
 11
350.0
 21
382.0
 31
0.0
  0
LINE
  5
4C
330
17
100
AcDbEntity
  8
DIM
420
15198183
100
AcDbLine
 10
110.0
 20
367.0
 30
0.0
 11
350.0
 21
367.0
 31
0.0
  0
LINE
  5
4D
330
17
100
AcDbEntity
  8
DIM
420
15198183
100
AcDbLine
 10
110.0
 20
352.0
 30
0.0
 11
350.0
 21
352.0
 31
0.0
  0
LINE
  5
4E
330
17
100
AcDbEntity
  8
DIM
420
15198183
100
AcDbLine
 10
110.0
 20
337.0
 30
0.0
 11
350.0
 21
337.0
 31
0.0
  0
LINE
  5
4F
330
17
100
AcDbEntity
  8
DIM
420
15198183
100
AcDbLine
 10
110.0
 20
322.0
 30
0.0
 11
350.0
 21
322.0
 31
0.0
  0
LINE
  5
50
330
17
100
AcDbEntity
  8
DIM
420
15198183
100
AcDbLine
 10
110.0
 20
307.0
 30
0.0
 11
350.0
 21
307.0
 31
0.0
  0
LINE
  5
51
330
17
100
AcDbEntity
  8
DIM
420
15198183
100
AcDbLine
 10
110.0
 20
292.0
 30
0.0
 11
350.0
 21
292.0
 31
0.0
  0
LINE
  5
52
330
17
100
AcDbEntity
  8
DIM
420
15198183
100
AcDbLine
 10
110.0
 20
562.0
 30
0.0
 11
110.0
 21
292.0
 31
0.0
  0
LINE
  5
53
330
17
100
AcDbEntity
  8
DIM
420
15198183
100
AcDbLine
 10
155.0
 20
562.0
 30
0.0
 11
155.0
 21
292.0
 31
0.0
  0
LINE
  5
54
330
17
100
AcDbEntity
  8
DIM
420
15198183
100
AcDbLine
 10
170.0
 20
562.0
 30
0.0
 11
170.0
 21
292.0
 31
0.0
  0
LINE
  5
55
330
17
100
AcDbEntity
  8
DIM
420
15198183
100
AcDbLine
 10
230.0
 20
562.0
 30
0.0
 11
230.0
 21
292.0
 31
0.0
  0
LINE
  5
56
330
17
100
AcDbEntity
  8
DIM
420
15198183
100
AcDbLine
 10
290.0
 20
562.0
 30
0.0
 11
290.0
 21
292.0
 31
0.0
  0
LINE
  5
57
330
17
100
AcDbEntity
  8
DIM
420
15198183
100
AcDbLine
 10
350.0
 20
562.0
 30
0.0
 11
350.0
 21
292.0
 31
0.0
  0
HATCH
  5
58
330
17
100
AcDbEntity
  8
OUTLINE
 62
7
100
AcDbHatch
 10
0.0
 20
0.0
 30
0.0
210
0.0
220
0.0
230
1.0
  2
SOLID
 70
1
 71
0
 91
1
 92
3
 72
0
 73
1
 93
4
 10
108.7
 20
563.3
 10
111.3
 20
563.3
 10
111.3
 20
560.7
 10
108.7
 20
560.7
 97
0
 75
0
 76
1
 98
0
  0
HATCH
  5
59
330
17
100
AcDbEntity
  8
OUTLINE
 62
7
100
AcDbHatch
 10
0.0
 20
0.0
 30
0.0
210
0.0
220
0.0
230
1.0
  2
SOLID
 70
1
 71
0
 91
1
 92
3
 72
0
 73
1
 93
4
 10
108.7
 20
548.3
 10
111.3
 20
548.3
 10
111.3
 20
545.7
 10
108.7
 20
545.7
 97
0
 75
0
 76
1
 98
0
  0
HATCH
  5
5A
330
17
100
AcDbEntity
  8
OUTLINE
 62
7
100
AcDbHatch
 10
0.0
 20
0.0
 30
0.0
210
0.0
220
0.0
230
1.0
  2
SOLID
 70
1
 71
0
 91
1
 92
3
 72
0
 73
1
 93
4
 10
108.7
 20
533.3
 10
111.3
 20
533.3
 10
111.3
 20
530.7
 10
108.7
 20
530.7
 97
0
 75
0
 76
1
 98
0
  0
HATCH
  5
5B
330
17
100
AcDbEntity
  8
OUTLINE
 62
7
100
AcDbHatch
 10
0.0
 20
0.0
 30
0.0
210
0.0
220
0.0
230
1.0
  2
SOLID
 70
1
 71
0
 91
1
 92
3
 72
0
 73
1
 93
4
 10
108.7
 20
518.3
 10
111.3
 20
518.3
 10
111.3
 20
515.7
 10
108.7
 20
515.7
 97
0
 75
0
 76
1
 98
0
  0
HATCH
  5
5C
330
17
100
AcDbEntity
  8
OUTLINE
 62
7
100
AcDbHatch
 10
0.0
 20
0.0
 30
0.0
210
0.0
220
0.0
230
1.0
  2
SOLID
 70
1
 71
0
 91
1
 92
3
 72
0
 73
1
 93
4
 10
108.7
 20
503.3
 10
111.3
 20
503.3
 10
111.3
 20
500.70000000000005
 10
108.7
 20
500.70000000000005
 97
0
 75
0
 76
1
 98
0
  0
HATCH
  5
5D
330
17
100
AcDbEntity
  8
OUTLINE
 62
7
100
AcDbHatch
 10
0.0
 20
0.0
 30
0.0
210
0.0
220
0.0
230
1.0
  2
SOLID
 70
1
 71
0
 91
1
 92
3
 72
0
 73
1
 93
4
 10
108.7
 20
488.3
 10
111.3
 20
488.3
 10
111.3
 20
485.70000000000005
 10
108.7
 20
485.70000000000005
 97
0
 75
0
 76
1
 98
0
  0
HATCH
  5
5E
330
17
100
AcDbEntity
  8
OUTLINE
 62
7
100
AcDbHatch
 10
0.0
 20
0.0
 30
0.0
210
0.0
220
0.0
230
1.0
  2
SOLID
 70
1
 71
0
 91
1
 92
3
 72
0
 73
1
 93
4
 10
108.7
 20
473.3
 10
111.3
 20
473.3
 10
111.3
 20
470.70000000000005
 10
108.7
 20
470.70000000000005
 97
0
 75
0
 76
1
 98
0
  0
HATCH
  5
5F
330
17
100
AcDbEntity
  8
OUTLINE
 62
7
100
AcDbHatch
 10
0.0
 20
0.0
 30
0.0
210
0.0
220
0.0
230
1.0
  2
SOLID
 70
1
 71
0
 91
1
 92
3
 72
0
 73
1
 93
4
 10
108.7
 20
458.3
 10
111.3
 20
458.3
 10
111.3
 20
455.70000000000005
 10
108.7
 20
455.70000000000005
 97
0
 75
0
 76
1
 98
0
  0
HATCH
  5
60
330
17
100
AcDbEntity
  8
OUTLINE
 62
7
100
AcDbHatch
 10
0.0
 20
0.0
 30
0.0
210
0.0
220
0.0
230
1.0
  2
SOLID
 70
1
 71
0
 91
1
 92
3
 72
0
 73
1
 93
4
 10
108.7
 20
443.3
 10
111.3
 20
443.3
 10
111.3
 20
440.70000000000005
 10
108.7
 20
440.70000000000005
 97
0
 75
0
 76
1
 98
0
  0
HATCH
  5
61
330
17
100
AcDbEntity
  8
OUTLINE
 62
7
100
AcDbHatch
 10
0.0
 20
0.0
 30
0.0
210
0.0
220
0.0
230
1.0
  2
SOLID
 70
1
 71
0
 91
1
 92
3
 72
0
 73
1
 93
4
 10
108.7
 20
428.3
 10
111.3
 20
428.3
 10
111.3
 20
425.70000000000005
 10
108.7
 20
425.70000000000005
 97
0
 75
0
 76
1
 98
0
  0
HATCH
  5
62
330
17
100
AcDbEntity
  8
OUTLINE
 62
7
100
AcDbHatch
 10
0.0
 20
0.0
 30
0.0
210
0.0
220
0.0
230
1.0
  2
SOLID
 70
1
 71
0
 91
1
 92
3
 72
0
 73
1
 93
4
 10
108.7
 20
413.3
 10
111.3
 20
413.3
 10
111.3
 20
410.70000000000005
 10
108.7
 20
410.70000000000005
 97
0
 75
0
 76
1
 98
0
  0
HATCH
  5
63
330
17
100
AcDbEntity
  8
OUTLINE
 62
7
100
AcDbHatch
 10
0.0
 20
0.0
 30
0.0
210
0.0
220
0.0
230
1.0
  2
SOLID
 70
1
 71
0
 91
1
 92
3
 72
0
 73
1
 93
4
 10
108.7
 20
398.3
 10
111.3
 20
398.3
 10
111.3
 20
395.70000000000005
 10
108.7
 20
395.70000000000005
 97
0
 75
0
 76
1
 98
0
  0
HATCH
  5
64
330
17
100
AcDbEntity
  8
OUTLINE
 62
7
100
AcDbHatch
 10
0.0
 20
0.0
 30
0.0
210
0.0
220
0.0
230
1.0
  2
SOLID
 70
1
 71
0
 91
1
 92
3
 72
0
 73
1
 93
4
 10
108.7
 20
383.3
 10
111.3
 20
383.3
 10
111.3
 20
380.7
 10
108.7
 20
380.7
 97
0
 75
0
 76
1
 98
0
  0
HATCH
  5
65
330
17
100
AcDbEntity
  8
OUTLINE
 62
7
100
AcDbHatch
 10
0.0
 20
0.0
 30
0.0
210
0.0
220
0.0
230
1.0
  2
SOLID
 70
1
 71
0
 91
1
 92
3
 72
0
 73
1
 93
4
 10
108.7
 20
368.3
 10
111.3
 20
368.3
 10
111.3
 20
365.7
 10
108.7
 20
365.7
 97
0
 75
0
 76
1
 98
0
  0
HATCH
  5
66
330
17
100
AcDbEntity
  8
OUTLINE
 62
7
100
AcDbHatch
 10
0.0
 20
0.0
 30
0.0
210
0.0
220
0.0
230
1.0
  2
SOLID
 70
1
 71
0
 91
1
 92
3
 72
0
 73
1
 93
4
 10
108.7
 20
353.3
 10
111.3
 20
353.3
 10
111.3
 20
350.7
 10
108.7
 20
350.7
 97
0
 75
0
 76
1
 98
0
  0
HATCH
  5
67
330
17
100
AcDbEntity
  8
OUTLINE
 62
7
100
AcDbHatch
 10
0.0
 20
0.0
 30
0.0
210
0.0
220
0.0
230
1.0
  2
SOLID
 70
1
 71
0
 91
1
 92
3
 72
0
 73
1
 93
4
 10
108.7
 20
338.3
 10
111.3
 20
338.3
 10
111.3
 20
335.7
 10
108.7
 20
335.7
 97
0
 75
0
 76
1
 98
0
  0
HATCH
  5
68
330
17
100
AcDbEntity
  8
OUTLINE
 62
7
100
AcDbHatch
 10
0.0
 20
0.0
 30
0.0
210
0.0
220
0.0
230
1.0
  2
SOLID
 70
1
 71
0
 91
1
 92
3
 72
0
 73
1
 93
4
 10
108.7
 20
323.3
 10
111.3
 20
323.3
 10
111.3
 20
320.7
 10
108.7
 20
320.7
 97
0
 75
0
 76
1
 98
0
  0
HATCH
  5
69
330
17
100
AcDbEntity
  8
OUTLINE
 62
7
100
AcDbHatch
 10
0.0
 20
0.0
 30
0.0
210
0.0
220
0.0
230
1.0
  2
SOLID
 70
1
 71
0
 91
1
 92
3
 72
0
 73
1
 93
4
 10
108.7
 20
308.3
 10
111.3
 20
308.3
 10
111.3
 20
305.7
 10
108.7
 20
305.7
 97
0
 75
0
 76
1
 98
0
  0
HATCH
  5
6A
330
17
100
AcDbEntity
  8
OUTLINE
 62
7
100
AcDbHatch
 10
0.0
 20
0.0
 30
0.0
210
0.0
220
0.0
230
1.0
  2
SOLID
 70
1
 71
0
 91
1
 92
3
 72
0
 73
1
 93
4
 10
108.7
 20
293.3
 10
111.3
 20
293.3
 10
111.3
 20
290.7
 10
108.7
 20
290.7
 97
0
 75
0
 76
1
 98
0
  0
HATCH
  5
6B
330
17
100
AcDbEntity
  8
OUTLINE
 62
7
100
AcDbHatch
 10
0.0
 20
0.0
 30
0.0
210
0.0
220
0.0
230
1.0
  2
SOLID
 70
1
 71
0
 91
1
 92
3
 72
0
 73
1
 93
4
 10
153.7
 20
563.3
 10
156.29999999999998
 20
563.3
 10
156.29999999999998
 20
560.7
 10
153.7
 20
560.7
 97
0
 75
0
 76
1
 98
0
  0
HATCH
  5
6C
330
17
100
AcDbEntity
  8
OUTLINE
 62
7
100
AcDbHatch
 10
0.0
 20
0.0
 30
0.0
210
0.0
220
0.0
230
1.0
  2
SOLID
 70
1
 71
0
 91
1
 92
3
 72
0
 73
1
 93
4
 10
153.7
 20
548.3
 10
156.29999999999998
 20
548.3
 10
156.29999999999998
 20
545.7
 10
153.7
 20
545.7
 97
0
 75
0
 76
1
 98
0
  0
HATCH
  5
6D
330
17
100
AcDbEntity
  8
OUTLINE
 62
7
100
AcDbHatch
 10
0.0
 20
0.0
 30
0.0
210
0.0
220
0.0
230
1.0
  2
SOLID
 70
1
 71
0
 91
1
 92
3
 72
0
 73
1
 93
4
 10
153.7
 20
533.3
 10
156.29999999999998
 20
533.3
 10
156.29999999999998
 20
530.7
 10
153.7
 20
530.7
 97
0
 75
0
 76
1
 98
0
  0
HATCH
  5
6E
330
17
100
AcDbEntity
  8
OUTLINE
 62
7
100
AcDbHatch
 10
0.0
 20
0.0
 30
0.0
210
0.0
220
0.0
230
1.0
  2
SOLID
 70
1
 71
0
 91
1
 92
3
 72
0
 73
1
 93
4
 10
153.7
 20
518.3
 10
156.29999999999998
 20
518.3
 10
156.29999999999998
 20
515.7
 10
153.7
 20
515.7
 97
0
 75
0
 76
1
 98
0
  0
HATCH
  5
6F
330
17
100
AcDbEntity
  8
OUTLINE
 62
7
100
AcDbHatch
 10
0.0
 20
0.0
 30
0.0
210
0.0
220
0.0
230
1.0
  2
SOLID
 70
1
 71
0
 91
1
 92
3
 72
0
 73
1
 93
4
 10
153.7
 20
503.3
 10
156.29999999999998
 20
503.3
 10
156.29999999999998
 20
500.70000000000005
 10
153.7
 20
500.70000000000005
 97
0
 75
0
 76
1
 98
0
  0
HATCH
  5
70
330
17
100
AcDbEntity
  8
OUTLINE
 62
7
100
AcDbHatch
 10
0.0
 20
0.0
 30
0.0
210
0.0
220
0.0
230
1.0
  2
SOLID
 70
1
 71
0
 91
1
 92
3
 72
0
 73
1
 93
4
 10
153.7
 20
488.3
 10
156.29999999999998
 20
488.3
 10
156.29999999999998
 20
485.70000000000005
 10
153.7
 20
485.70000000000005
 97
0
 75
0
 76
1
 98
0
  0
HATCH
  5
71
330
17
100
AcDbEntity
  8
OUTLINE
 62
7
100
AcDbHatch
 10
0.0
 20
0.0
 30
0.0
210
0.0
220
0.0
230
1.0
  2
SOLID
 70
1
 71
0
 91
1
 92
3
 72
0
 73
1
 93
4
 10
153.7
 20
473.3
 10
156.29999999999998
 20
473.3
 10
156.29999999999998
 20
470.70000000000005
 10
153.7
 20
470.70000000000005
 97
0
 75
0
 76
1
 98
0
  0
HATCH
  5
72
330
17
100
AcDbEntity
  8
OUTLINE
 62
7
100
AcDbHatch
 10
0.0
 20
0.0
 30
0.0
210
0.0
220
0.0
230
1.0
  2
SOLID
 70
1
 71
0
 91
1
 92
3
 72
0
 73
1
 93
4
 10
153.7
 20
458.3
 10
156.29999999999998
 20
458.3
 10
156.29999999999998
 20
455.70000000000005
 10
153.7
 20
455.70000000000005
 97
0
 75
0
 76
1
 98
0
  0
HATCH
  5
73
330
17
100
AcDbEntity
  8
OUTLINE
 62
7
100
AcDbHatch
 10
0.0
 20
0.0
 30
0.0
210
0.0
220
0.0
230
1.0
  2
SOLID
 70
1
 71
0
 91
1
 92
3
 72
0
 73
1
 93
4
 10
153.7
 20
443.3
 10
156.29999999999998
 20
443.3
 10
156.29999999999998
 20
440.70000000000005
 10
153.7
 20
440.70000000000005
 97
0
 75
0
 76
1
 98
0
  0
HATCH
  5
74
330
17
100
AcDbEntity
  8
OUTLINE
 62
7
100
AcDbHatch
 10
0.0
 20
0.0
 30
0.0
210
0.0
220
0.0
230
1.0
  2
SOLID
 70
1
 71
0
 91
1
 92
3
 72
0
 73
1
 93
4
 10
153.7
 20
428.3
 10
156.29999999999998
 20
428.3
 10
156.29999999999998
 20
425.70000000000005
 10
153.7
 20
425.70000000000005
 97
0
 75
0
 76
1
 98
0
  0
HATCH
  5
75
330
17
100
AcDbEntity
  8
OUTLINE
 62
7
100
AcDbHatch
 10
0.0
 20
0.0
 30
0.0
210
0.0
220
0.0
230
1.0
  2
SOLID
 70
1
 71
0
 91
1
 92
3
 72
0
 73
1
 93
4
 10
153.7
 20
413.3
 10
156.29999999999998
 20
413.3
 10
156.29999999999998
 20
410.70000000000005
 10
153.7
 20
410.70000000000005
 97
0
 75
0
 76
1
 98
0
  0
HATCH
  5
76
330
17
100
AcDbEntity
  8
OUTLINE
 62
7
100
AcDbHatch
 10
0.0
 20
0.0
 30
0.0
210
0.0
220
0.0
230
1.0
  2
SOLID
 70
1
 71
0
 91
1
 92
3
 72
0
 73
1
 93
4
 10
153.7
 20
398.3
 10
156.29999999999998
 20
398.3
 10
156.29999999999998
 20
395.70000000000005
 10
153.7
 20
395.70000000000005
 97
0
 75
0
 76
1
 98
0
  0
HATCH
  5
77
330
17
100
AcDbEntity
  8
OUTLINE
 62
7
100
AcDbHatch
 10
0.0
 20
0.0
 30
0.0
210
0.0
220
0.0
230
1.0
  2
SOLID
 70
1
 71
0
 91
1
 92
3
 72
0
 73
1
 93
4
 10
153.7
 20
383.3
 10
156.29999999999998
 20
383.3
 10
156.29999999999998
 20
380.7
 10
153.7
 20
380.7
 97
0
 75
0
 76
1
 98
0
  0
HATCH
  5
78
330
17
100
AcDbEntity
  8
OUTLINE
 62
7
100
AcDbHatch
 10
0.0
 20
0.0
 30
0.0
210
0.0
220
0.0
230
1.0
  2
SOLID
 70
1
 71
0
 91
1
 92
3
 72
0
 73
1
 93
4
 10
153.7
 20
368.3
 10
156.29999999999998
 20
368.3
 10
156.29999999999998
 20
365.7
 10
153.7
 20
365.7
 97
0
 75
0
 76
1
 98
0
  0
HATCH
  5
79
330
17
100
AcDbEntity
  8
OUTLINE
 62
7
100
AcDbHatch
 10
0.0
 20
0.0
 30
0.0
210
0.0
220
0.0
230
1.0
  2
SOLID
 70
1
 71
0
 91
1
 92
3
 72
0
 73
1
 93
4
 10
153.7
 20
353.3
 10
156.29999999999998
 20
353.3
 10
156.29999999999998
 20
350.7
 10
153.7
 20
350.7
 97
0
 75
0
 76
1
 98
0
  0
HATCH
  5
7A
330
17
100
AcDbEntity
  8
OUTLINE
 62
7
100
AcDbHatch
 10
0.0
 20
0.0
 30
0.0
210
0.0
220
0.0
230
1.0
  2
SOLID
 70
1
 71
0
 91
1
 92
3
 72
0
 73
1
 93
4
 10
153.7
 20
338.3
 10
156.29999999999998
 20
338.3
 10
156.29999999999998
 20
335.7
 10
153.7
 20
335.7
 97
0
 75
0
 76
1
 98
0
  0
HATCH
  5
7B
330
17
100
AcDbEntity
  8
OUTLINE
 62
7
100
AcDbHatch
 10
0.0
 20
0.0
 30
0.0
210
0.0
220
0.0
230
1.0
  2
SOLID
 70
1
 71
0
 91
1
 92
3
 72
0
 73
1
 93
4
 10
153.7
 20
323.3
 10
156.29999999999998
 20
323.3
 10
156.29999999999998
 20
320.7
 10
153.7
 20
320.7
 97
0
 75
0
 76
1
 98
0
  0
HATCH
  5
7C
330
17
100
AcDbEntity
  8
OUTLINE
 62
7
100
AcDbHatch
 10
0.0
 20
0.0
 30
0.0
210
0.0
220
0.0
230
1.0
  2
SOLID
 70
1
 71
0
 91
1
 92
3
 72
0
 73
1
 93
4
 10
153.7
 20
308.3
 10
156.29999999999998
 20
308.3
 10
156.29999999999998
 20
305.7
 10
153.7
 20
305.7
 97
0
 75
0
 76
1
 98
0
  0
HATCH
  5
7D
330
17
100
AcDbEntity
  8
OUTLINE
 62
7
100
AcDbHatch
 10
0.0
 20
0.0
 30
0.0
210
0.0
220
0.0
230
1.0
  2
SOLID
 70
1
 71
0
 91
1
 92
3
 72
0
 73
1
 93
4
 10
153.7
 20
293.3
 10
156.29999999999998
 20
293.3
 10
156.29999999999998
 20
290.7
 10
153.7
 20
290.7
 97
0
 75
0
 76
1
 98
0
  0
HATCH
  5
7E
330
17
100
AcDbEntity
  8
OUTLINE
 62
7
100
AcDbHatch
 10
0.0
 20
0.0
 30
0.0
210
0.0
220
0.0
230
1.0
  2
SOLID
 70
1
 71
0
 91
1
 92
3
 72
0
 73
1
 93
4
 10
168.7
 20
563.3
 10
171.29999999999998
 20
563.3
 10
171.29999999999998
 20
560.7
 10
168.7
 20
560.7
 97
0
 75
0
 76
1
 98
0
  0
HATCH
  5
7F
330
17
100
AcDbEntity
  8
OUTLINE
 62
7
100
AcDbHatch
 10
0.0
 20
0.0
 30
0.0
210
0.0
220
0.0
230
1.0
  2
SOLID
 70
1
 71
0
 91
1
 92
3
 72
0
 73
1
 93
4
 10
168.7
 20
548.3
 10
171.29999999999998
 20
548.3
 10
171.29999999999998
 20
545.7
 10
168.7
 20
545.7
 97
0
 75
0
 76
1
 98
0
  0
HATCH
  5
80
330
17
100
AcDbEntity
  8
OUTLINE
 62
7
100
AcDbHatch
 10
0.0
 20
0.0
 30
0.0
210
0.0
220
0.0
230
1.0
  2
SOLID
 70
1
 71
0
 91
1
 92
3
 72
0
 73
1
 93
4
 10
168.7
 20
533.3
 10
171.29999999999998
 20
533.3
 10
171.29999999999998
 20
530.7
 10
168.7
 20
530.7
 97
0
 75
0
 76
1
 98
0
  0
HATCH
  5
81
330
17
100
AcDbEntity
  8
OUTLINE
 62
7
100
AcDbHatch
 10
0.0
 20
0.0
 30
0.0
210
0.0
220
0.0
230
1.0
  2
SOLID
 70
1
 71
0
 91
1
 92
3
 72
0
 73
1
 93
4
 10
168.7
 20
518.3
 10
171.29999999999998
 20
518.3
 10
171.29999999999998
 20
515.7
 10
168.7
 20
515.7
 97
0
 75
0
 76
1
 98
0
  0
HATCH
  5
82
330
17
100
AcDbEntity
  8
OUTLINE
 62
7
100
AcDbHatch
 10
0.0
 20
0.0
 30
0.0
210
0.0
220
0.0
230
1.0
  2
SOLID
 70
1
 71
0
 91
1
 92
3
 72
0
 73
1
 93
4
 10
168.7
 20
503.3
 10
171.29999999999998
 20
503.3
 10
171.29999999999998
 20
500.70000000000005
 10
168.7
 20
500.70000000000005
 97
0
 75
0
 76
1
 98
0
  0
HATCH
  5
83
330
17
100
AcDbEntity
  8
OUTLINE
 62
7
100
AcDbHatch
 10
0.0
 20
0.0
 30
0.0
210
0.0
220
0.0
230
1.0
  2
SOLID
 70
1
 71
0
 91
1
 92
3
 72
0
 73
1
 93
4
 10
168.7
 20
488.3
 10
171.29999999999998
 20
488.3
 10
171.29999999999998
 20
485.70000000000005
 10
168.7
 20
485.70000000000005
 97
0
 75
0
 76
1
 98
0
  0
HATCH
  5
84
330
17
100
AcDbEntity
  8
OUTLINE
 62
7
100
AcDbHatch
 10
0.0
 20
0.0
 30
0.0
210
0.0
220
0.0
230
1.0
  2
SOLID
 70
1
 71
0
 91
1
 92
3
 72
0
 73
1
 93
4
 10
168.7
 20
473.3
 10
171.29999999999998
 20
473.3
 10
171.29999999999998
 20
470.70000000000005
 10
168.7
 20
470.70000000000005
 97
0
 75
0
 76
1
 98
0
  0
HATCH
  5
85
330
17
100
AcDbEntity
  8
OUTLINE
 62
7
100
AcDbHatch
 10
0.0
 20
0.0
 30
0.0
210
0.0
220
0.0
230
1.0
  2
SOLID
 70
1
 71
0
 91
1
 92
3
 72
0
 73
1
 93
4
 10
168.7
 20
458.3
 10
171.29999999999998
 20
458.3
 10
171.29999999999998
 20
455.70000000000005
 10
168.7
 20
455.70000000000005
 97
0
 75
0
 76
1
 98
0
  0
HATCH
  5
86
330
17
100
AcDbEntity
  8
OUTLINE
 62
7
100
AcDbHatch
 10
0.0
 20
0.0
 30
0.0
210
0.0
220
0.0
230
1.0
  2
SOLID
 70
1
 71
0
 91
1
 92
3
 72
0
 73
1
 93
4
 10
168.7
 20
443.3
 10
171.29999999999998
 20
443.3
 10
171.29999999999998
 20
440.70000000000005
 10
168.7
 20
440.70000000000005
 97
0
 75
0
 76
1
 98
0
  0
HATCH
  5
87
330
17
100
AcDbEntity
  8
OUTLINE
 62
7
100
AcDbHatch
 10
0.0
 20
0.0
 30
0.0
210
0.0
220
0.0
230
1.0
  2
SOLID
 70
1
 71
0
 91
1
 92
3
 72
0
 73
1
 93
4
 10
168.7
 20
428.3
 10
171.29999999999998
 20
428.3
 10
171.29999999999998
 20
425.70000000000005
 10
168.7
 20
425.70000000000005
 97
0
 75
0
 76
1
 98
0
  0
HATCH
  5
88
330
17
100
AcDbEntity
  8
OUTLINE
 62
7
100
AcDbHatch
 10
0.0
 20
0.0
 30
0.0
210
0.0
220
0.0
230
1.0
  2
SOLID
 70
1
 71
0
 91
1
 92
3
 72
0
 73
1
 93
4
 10
168.7
 20
413.3
 10
171.29999999999998
 20
413.3
 10
171.29999999999998
 20
410.70000000000005
 10
168.7
 20
410.70000000000005
 97
0
 75
0
 76
1
 98
0
  0
HATCH
  5
89
330
17
100
AcDbEntity
  8
OUTLINE
 62
7
100
AcDbHatch
 10
0.0
 20
0.0
 30
0.0
210
0.0
220
0.0
230
1.0
  2
SOLID
 70
1
 71
0
 91
1
 92
3
 72
0
 73
1
 93
4
 10
168.7
 20
398.3
 10
171.29999999999998
 20
398.3
 10
171.29999999999998
 20
395.70000000000005
 10
168.7
 20
395.70000000000005
 97
0
 75
0
 76
1
 98
0
  0
HATCH
  5
8A
330
17
100
AcDbEntity
  8
OUTLINE
 62
7
100
AcDbHatch
 10
0.0
 20
0.0
 30
0.0
210
0.0
220
0.0
230
1.0
  2
SOLID
 70
1
 71
0
 91
1
 92
3
 72
0
 73
1
 93
4
 10
168.7
 20
383.3
 10
171.29999999999998
 20
383.3
 10
171.29999999999998
 20
380.7
 10
168.7
 20
380.7
 97
0
 75
0
 76
1
 98
0
  0
HATCH
  5
8B
330
17
100
AcDbEntity
  8
OUTLINE
 62
7
100
AcDbHatch
 10
0.0
 20
0.0
 30
0.0
210
0.0
220
0.0
230
1.0
  2
SOLID
 70
1
 71
0
 91
1
 92
3
 72
0
 73
1
 93
4
 10
168.7
 20
368.3
 10
171.29999999999998
 20
368.3
 10
171.29999999999998
 20
365.7
 10
168.7
 20
365.7
 97
0
 75
0
 76
1
 98
0
  0
HATCH
  5
8C
330
17
100
AcDbEntity
  8
OUTLINE
 62
7
100
AcDbHatch
 10
0.0
 20
0.0
 30
0.0
210
0.0
220
0.0
230
1.0
  2
SOLID
 70
1
 71
0
 91
1
 92
3
 72
0
 73
1
 93
4
 10
168.7
 20
353.3
 10
171.29999999999998
 20
353.3
 10
171.29999999999998
 20
350.7
 10
168.7
 20
350.7
 97
0
 75
0
 76
1
 98
0
  0
HATCH
  5
8D
330
17
100
AcDbEntity
  8
OUTLINE
 62
7
100
AcDbHatch
 10
0.0
 20
0.0
 30
0.0
210
0.0
220
0.0
230
1.0
  2
SOLID
 70
1
 71
0
 91
1
 92
3
 72
0
 73
1
 93
4
 10
168.7
 20
338.3
 10
171.29999999999998
 20
338.3
 10
171.29999999999998
 20
335.7
 10
168.7
 20
335.7
 97
0
 75
0
 76
1
 98
0
  0
HATCH
  5
8E
330
17
100
AcDbEntity
  8
OUTLINE
 62
7
100
AcDbHatch
 10
0.0
 20
0.0
 30
0.0
210
0.0
220
0.0
230
1.0
  2
SOLID
 70
1
 71
0
 91
1
 92
3
 72
0
 73
1
 93
4
 10
168.7
 20
323.3
 10
171.29999999999998
 20
323.3
 10
171.29999999999998
 20
320.7
 10
168.7
 20
320.7
 97
0
 75
0
 76
1
 98
0
  0
HATCH
  5
8F
330
17
100
AcDbEntity
  8
OUTLINE
 62
7
100
AcDbHatch
 10
0.0
 20
0.0
 30
0.0
210
0.0
220
0.0
230
1.0
  2
SOLID
 70
1
 71
0
 91
1
 92
3
 72
0
 73
1
 93
4
 10
168.7
 20
308.3
 10
171.29999999999998
 20
308.3
 10
171.29999999999998
 20
305.7
 10
168.7
 20
305.7
 97
0
 75
0
 76
1
 98
0
  0
HATCH
  5
90
330
17
100
AcDbEntity
  8
OUTLINE
 62
7
100
AcDbHatch
 10
0.0
 20
0.0
 30
0.0
210
0.0
220
0.0
230
1.0
  2
SOLID
 70
1
 71
0
 91
1
 92
3
 72
0
 73
1
 93
4
 10
168.7
 20
293.3
 10
171.29999999999998
 20
293.3
 10
171.29999999999998
 20
290.7
 10
168.7
 20
290.7
 97
0
 75
0
 76
1
 98
0
  0
HATCH
  5
91
330
17
100
AcDbEntity
  8
OUTLINE
 62
7
100
AcDbHatch
 10
0.0
 20
0.0
 30
0.0
210
0.0
220
0.0
230
1.0
  2
SOLID
 70
1
 71
0
 91
1
 92
3
 72
0
 73
1
 93
4
 10
228.7
 20
563.3
 10
231.29999999999998
 20
563.3
 10
231.29999999999998
 20
560.7
 10
228.7
 20
560.7
 97
0
 75
0
 76
1
 98
0
  0
HATCH
  5
92
330
17
100
AcDbEntity
  8
OUTLINE
 62
7
100
AcDbHatch
 10
0.0
 20
0.0
 30
0.0
210
0.0
220
0.0
230
1.0
  2
SOLID
 70
1
 71
0
 91
1
 92
3
 72
0
 73
1
 93
4
 10
228.7
 20
548.3
 10
231.29999999999998
 20
548.3
 10
231.29999999999998
 20
545.7
 10
228.7
 20
545.7
 97
0
 75
0
 76
1
 98
0
  0
HATCH
  5
93
330
17
100
AcDbEntity
  8
OUTLINE
 62
7
100
AcDbHatch
 10
0.0
 20
0.0
 30
0.0
210
0.0
220
0.0
230
1.0
  2
SOLID
 70
1
 71
0
 91
1
 92
3
 72
0
 73
1
 93
4
 10
228.7
 20
533.3
 10
231.29999999999998
 20
533.3
 10
231.29999999999998
 20
530.7
 10
228.7
 20
530.7
 97
0
 75
0
 76
1
 98
0
  0
HATCH
  5
94
330
17
100
AcDbEntity
  8
OUTLINE
 62
7
100
AcDbHatch
 10
0.0
 20
0.0
 30
0.0
210
0.0
220
0.0
230
1.0
  2
SOLID
 70
1
 71
0
 91
1
 92
3
 72
0
 73
1
 93
4
 10
228.7
 20
518.3
 10
231.29999999999998
 20
518.3
 10
231.29999999999998
 20
515.7
 10
228.7
 20
515.7
 97
0
 75
0
 76
1
 98
0
  0
HATCH
  5
95
330
17
100
AcDbEntity
  8
OUTLINE
 62
7
100
AcDbHatch
 10
0.0
 20
0.0
 30
0.0
210
0.0
220
0.0
230
1.0
  2
SOLID
 70
1
 71
0
 91
1
 92
3
 72
0
 73
1
 93
4
 10
228.7
 20
503.3
 10
231.29999999999998
 20
503.3
 10
231.29999999999998
 20
500.70000000000005
 10
228.7
 20
500.70000000000005
 97
0
 75
0
 76
1
 98
0
  0
HATCH
  5
96
330
17
100
AcDbEntity
  8
OUTLINE
 62
7
100
AcDbHatch
 10
0.0
 20
0.0
 30
0.0
210
0.0
220
0.0
230
1.0
  2
SOLID
 70
1
 71
0
 91
1
 92
3
 72
0
 73
1
 93
4
 10
228.7
 20
488.3
 10
231.29999999999998
 20
488.3
 10
231.29999999999998
 20
485.70000000000005
 10
228.7
 20
485.70000000000005
 97
0
 75
0
 76
1
 98
0
  0
HATCH
  5
97
330
17
100
AcDbEntity
  8
OUTLINE
 62
7
100
AcDbHatch
 10
0.0
 20
0.0
 30
0.0
210
0.0
220
0.0
230
1.0
  2
SOLID
 70
1
 71
0
 91
1
 92
3
 72
0
 73
1
 93
4
 10
228.7
 20
473.3
 10
231.29999999999998
 20
473.3
 10
231.29999999999998
 20
470.70000000000005
 10
228.7
 20
470.70000000000005
 97
0
 75
0
 76
1
 98
0
  0
HATCH
  5
98
330
17
100
AcDbEntity
  8
OUTLINE
 62
7
100
AcDbHatch
 10
0.0
 20
0.0
 30
0.0
210
0.0
220
0.0
230
1.0
  2
SOLID
 70
1
 71
0
 91
1
 92
3
 72
0
 73
1
 93
4
 10
228.7
 20
458.3
 10
231.29999999999998
 20
458.3
 10
231.29999999999998
 20
455.70000000000005
 10
228.7
 20
455.70000000000005
 97
0
 75
0
 76
1
 98
0
  0
HATCH
  5
99
330
17
100
AcDbEntity
  8
OUTLINE
 62
7
100
AcDbHatch
 10
0.0
 20
0.0
 30
0.0
210
0.0
220
0.0
230
1.0
  2
SOLID
 70
1
 71
0
 91
1
 92
3
 72
0
 73
1
 93
4
 10
228.7
 20
443.3
 10
231.29999999999998
 20
443.3
 10
231.29999999999998
 20
440.70000000000005
 10
228.7
 20
440.70000000000005
 97
0
 75
0
 76
1
 98
0
  0
HATCH
  5
9A
330
17
100
AcDbEntity
  8
OUTLINE
 62
7
100
AcDbHatch
 10
0.0
 20
0.0
 30
0.0
210
0.0
220
0.0
230
1.0
  2
SOLID
 70
1
 71
0
 91
1
 92
3
 72
0
 73
1
 93
4
 10
228.7
 20
428.3
 10
231.29999999999998
 20
428.3
 10
231.29999999999998
 20
425.70000000000005
 10
228.7
 20
425.70000000000005
 97
0
 75
0
 76
1
 98
0
  0
HATCH
  5
9B
330
17
100
AcDbEntity
  8
OUTLINE
 62
7
100
AcDbHatch
 10
0.0
 20
0.0
 30
0.0
210
0.0
220
0.0
230
1.0
  2
SOLID
 70
1
 71
0
 91
1
 92
3
 72
0
 73
1
 93
4
 10
228.7
 20
413.3
 10
231.29999999999998
 20
413.3
 10
231.29999999999998
 20
410.70000000000005
 10
228.7
 20
410.70000000000005
 97
0
 75
0
 76
1
 98
0
  0
HATCH
  5
9C
330
17
100
AcDbEntity
  8
OUTLINE
 62
7
100
AcDbHatch
 10
0.0
 20
0.0
 30
0.0
210
0.0
220
0.0
230
1.0
  2
SOLID
 70
1
 71
0
 91
1
 92
3
 72
0
 73
1
 93
4
 10
228.7
 20
398.3
 10
231.29999999999998
 20
398.3
 10
231.29999999999998
 20
395.70000000000005
 10
228.7
 20
395.70000000000005
 97
0
 75
0
 76
1
 98
0
  0
HATCH
  5
9D
330
17
100
AcDbEntity
  8
OUTLINE
 62
7
100
AcDbHatch
 10
0.0
 20
0.0
 30
0.0
210
0.0
220
0.0
230
1.0
  2
SOLID
 70
1
 71
0
 91
1
 92
3
 72
0
 73
1
 93
4
 10
228.7
 20
383.3
 10
231.29999999999998
 20
383.3
 10
231.29999999999998
 20
380.7
 10
228.7
 20
380.7
 97
0
 75
0
 76
1
 98
0
  0
HATCH
  5
9E
330
17
100
AcDbEntity
  8
OUTLINE
 62
7
100
AcDbHatch
 10
0.0
 20
0.0
 30
0.0
210
0.0
220
0.0
230
1.0
  2
SOLID
 70
1
 71
0
 91
1
 92
3
 72
0
 73
1
 93
4
 10
228.7
 20
368.3
 10
231.29999999999998
 20
368.3
 10
231.29999999999998
 20
365.7
 10
228.7
 20
365.7
 97
0
 75
0
 76
1
 98
0
  0
HATCH
  5
9F
330
17
100
AcDbEntity
  8
OUTLINE
 62
7
100
AcDbHatch
 10
0.0
 20
0.0
 30
0.0
210
0.0
220
0.0
230
1.0
  2
SOLID
 70
1
 71
0
 91
1
 92
3
 72
0
 73
1
 93
4
 10
228.7
 20
353.3
 10
231.29999999999998
 20
353.3
 10
231.29999999999998
 20
350.7
 10
228.7
 20
350.7
 97
0
 75
0
 76
1
 98
0
  0
HATCH
  5
A0
330
17
100
AcDbEntity
  8
OUTLINE
 62
7
100
AcDbHatch
 10
0.0
 20
0.0
 30
0.0
210
0.0
220
0.0
230
1.0
  2
SOLID
 70
1
 71
0
 91
1
 92
3
 72
0
 73
1
 93
4
 10
228.7
 20
338.3
 10
231.29999999999998
 20
338.3
 10
231.29999999999998
 20
335.7
 10
228.7
 20
335.7
 97
0
 75
0
 76
1
 98
0
  0
HATCH
  5
A1
330
17
100
AcDbEntity
  8
OUTLINE
 62
7
100
AcDbHatch
 10
0.0
 20
0.0
 30
0.0
210
0.0
220
0.0
230
1.0
  2
SOLID
 70
1
 71
0
 91
1
 92
3
 72
0
 73
1
 93
4
 10
228.7
 20
323.3
 10
231.29999999999998
 20
323.3
 10
231.29999999999998
 20
320.7
 10
228.7
 20
320.7
 97
0
 75
0
 76
1
 98
0
  0
HATCH
  5
A2
330
17
100
AcDbEntity
  8
OUTLINE
 62
7
100
AcDbHatch
 10
0.0
 20
0.0
 30
0.0
210
0.0
220
0.0
230
1.0
  2
SOLID
 70
1
 71
0
 91
1
 92
3
 72
0
 73
1
 93
4
 10
228.7
 20
308.3
 10
231.29999999999998
 20
308.3
 10
231.29999999999998
 20
305.7
 10
228.7
 20
305.7
 97
0
 75
0
 76
1
 98
0
  0
HATCH
  5
A3
330
17
100
AcDbEntity
  8
OUTLINE
 62
7
100
AcDbHatch
 10
0.0
 20
0.0
 30
0.0
210
0.0
220
0.0
230
1.0
  2
SOLID
 70
1
 71
0
 91
1
 92
3
 72
0
 73
1
 93
4
 10
228.7
 20
293.3
 10
231.29999999999998
 20
293.3
 10
231.29999999999998
 20
290.7
 10
228.7
 20
290.7
 97
0
 75
0
 76
1
 98
0
  0
HATCH
  5
A4
330
17
100
AcDbEntity
  8
OUTLINE
 62
7
100
AcDbHatch
 10
0.0
 20
0.0
 30
0.0
210
0.0
220
0.0
230
1.0
  2
SOLID
 70
1
 71
0
 91
1
 92
3
 72
0
 73
1
 93
4
 10
288.7
 20
563.3
 10
291.3
 20
563.3
 10
291.3
 20
560.7
 10
288.7
 20
560.7
 97
0
 75
0
 76
1
 98
0
  0
HATCH
  5
A5
330
17
100
AcDbEntity
  8
OUTLINE
 62
7
100
AcDbHatch
 10
0.0
 20
0.0
 30
0.0
210
0.0
220
0.0
230
1.0
  2
SOLID
 70
1
 71
0
 91
1
 92
3
 72
0
 73
1
 93
4
 10
288.7
 20
548.3
 10
291.3
 20
548.3
 10
291.3
 20
545.7
 10
288.7
 20
545.7
 97
0
 75
0
 76
1
 98
0
  0
HATCH
  5
A6
330
17
100
AcDbEntity
  8
OUTLINE
 62
7
100
AcDbHatch
 10
0.0
 20
0.0
 30
0.0
210
0.0
220
0.0
230
1.0
  2
SOLID
 70
1
 71
0
 91
1
 92
3
 72
0
 73
1
 93
4
 10
288.7
 20
533.3
 10
291.3
 20
533.3
 10
291.3
 20
530.7
 10
288.7
 20
530.7
 97
0
 75
0
 76
1
 98
0
  0
HATCH
  5
A7
330
17
100
AcDbEntity
  8
OUTLINE
 62
7
100
AcDbHatch
 10
0.0
 20
0.0
 30
0.0
210
0.0
220
0.0
230
1.0
  2
SOLID
 70
1
 71
0
 91
1
 92
3
 72
0
 73
1
 93
4
 10
288.7
 20
518.3
 10
291.3
 20
518.3
 10
291.3
 20
515.7
 10
288.7
 20
515.7
 97
0
 75
0
 76
1
 98
0
  0
HATCH
  5
A8
330
17
100
AcDbEntity
  8
OUTLINE
 62
7
100
AcDbHatch
 10
0.0
 20
0.0
 30
0.0
210
0.0
220
0.0
230
1.0
  2
SOLID
 70
1
 71
0
 91
1
 92
3
 72
0
 73
1
 93
4
 10
288.7
 20
503.3
 10
291.3
 20
503.3
 10
291.3
 20
500.70000000000005
 10
288.7
 20
500.70000000000005
 97
0
 75
0
 76
1
 98
0
  0
HATCH
  5
A9
330
17
100
AcDbEntity
  8
OUTLINE
 62
7
100
AcDbHatch
 10
0.0
 20
0.0
 30
0.0
210
0.0
220
0.0
230
1.0
  2
SOLID
 70
1
 71
0
 91
1
 92
3
 72
0
 73
1
 93
4
 10
288.7
 20
488.3
 10
291.3
 20
488.3
 10
291.3
 20
485.70000000000005
 10
288.7
 20
485.70000000000005
 97
0
 75
0
 76
1
 98
0
  0
HATCH
  5
AA
330
17
100
AcDbEntity
  8
OUTLINE
 62
7
100
AcDbHatch
 10
0.0
 20
0.0
 30
0.0
210
0.0
220
0.0
230
1.0
  2
SOLID
 70
1
 71
0
 91
1
 92
3
 72
0
 73
1
 93
4
 10
288.7
 20
473.3
 10
291.3
 20
473.3
 10
291.3
 20
470.70000000000005
 10
288.7
 20
470.70000000000005
 97
0
 75
0
 76
1
 98
0
  0
HATCH
  5
AB
330
17
100
AcDbEntity
  8
OUTLINE
 62
7
100
AcDbHatch
 10
0.0
 20
0.0
 30
0.0
210
0.0
220
0.0
230
1.0
  2
SOLID
 70
1
 71
0
 91
1
 92
3
 72
0
 73
1
 93
4
 10
288.7
 20
458.3
 10
291.3
 20
458.3
 10
291.3
 20
455.70000000000005
 10
288.7
 20
455.70000000000005
 97
0
 75
0
 76
1
 98
0
  0
HATCH
  5
AC
330
17
100
AcDbEntity
  8
OUTLINE
 62
7
100
AcDbHatch
 10
0.0
 20
0.0
 30
0.0
210
0.0
220
0.0
230
1.0
  2
SOLID
 70
1
 71
0
 91
1
 92
3
 72
0
 73
1
 93
4
 10
288.7
 20
443.3
 10
291.3
 20
443.3
 10
291.3
 20
440.70000000000005
 10
288.7
 20
440.70000000000005
 97
0
 75
0
 76
1
 98
0
  0
HATCH
  5
AD
330
17
100
AcDbEntity
  8
OUTLINE
 62
7
100
AcDbHatch
 10
0.0
 20
0.0
 30
0.0
210
0.0
220
0.0
230
1.0
  2
SOLID
 70
1
 71
0
 91
1
 92
3
 72
0
 73
1
 93
4
 10
288.7
 20
428.3
 10
291.3
 20
428.3
 10
291.3
 20
425.70000000000005
 10
288.7
 20
425.70000000000005
 97
0
 75
0
 76
1
 98
0
  0
HATCH
  5
AE
330
17
100
AcDbEntity
  8
OUTLINE
 62
7
100
AcDbHatch
 10
0.0
 20
0.0
 30
0.0
210
0.0
220
0.0
230
1.0
  2
SOLID
 70
1
 71
0
 91
1
 92
3
 72
0
 73
1
 93
4
 10
288.7
 20
413.3
 10
291.3
 20
413.3
 10
291.3
 20
410.70000000000005
 10
288.7
 20
410.70000000000005
 97
0
 75
0
 76
1
 98
0
  0
HATCH
  5
AF
330
17
100
AcDbEntity
  8
OUTLINE
 62
7
100
AcDbHatch
 10
0.0
 20
0.0
 30
0.0
210
0.0
220
0.0
230
1.0
  2
SOLID
 70
1
 71
0
 91
1
 92
3
 72
0
 73
1
 93
4
 10
288.7
 20
398.3
 10
291.3
 20
398.3
 10
291.3
 20
395.70000000000005
 10
288.7
 20
395.70000000000005
 97
0
 75
0
 76
1
 98
0
  0
HATCH
  5
B0
330
17
100
AcDbEntity
  8
OUTLINE
 62
7
100
AcDbHatch
 10
0.0
 20
0.0
 30
0.0
210
0.0
220
0.0
230
1.0
  2
SOLID
 70
1
 71
0
 91
1
 92
3
 72
0
 73
1
 93
4
 10
288.7
 20
383.3
 10
291.3
 20
383.3
 10
291.3
 20
380.7
 10
288.7
 20
380.7
 97
0
 75
0
 76
1
 98
0
  0
HATCH
  5
B1
330
17
100
AcDbEntity
  8
OUTLINE
 62
7
100
AcDbHatch
 10
0.0
 20
0.0
 30
0.0
210
0.0
220
0.0
230
1.0
  2
SOLID
 70
1
 71
0
 91
1
 92
3
 72
0
 73
1
 93
4
 10
288.7
 20
368.3
 10
291.3
 20
368.3
 10
291.3
 20
365.7
 10
288.7
 20
365.7
 97
0
 75
0
 76
1
 98
0
  0
HATCH
  5
B2
330
17
100
AcDbEntity
  8
OUTLINE
 62
7
100
AcDbHatch
 10
0.0
 20
0.0
 30
0.0
210
0.0
220
0.0
230
1.0
  2
SOLID
 70
1
 71
0
 91
1
 92
3
 72
0
 73
1
 93
4
 10
288.7
 20
353.3
 10
291.3
 20
353.3
 10
291.3
 20
350.7
 10
288.7
 20
350.7
 97
0
 75
0
 76
1
 98
0
  0
HATCH
  5
B3
330
17
100
AcDbEntity
  8
OUTLINE
 62
7
100
AcDbHatch
 10
0.0
 20
0.0
 30
0.0
210
0.0
220
0.0
230
1.0
  2
SOLID
 70
1
 71
0
 91
1
 92
3
 72
0
 73
1
 93
4
 10
288.7
 20
338.3
 10
291.3
 20
338.3
 10
291.3
 20
335.7
 10
288.7
 20
335.7
 97
0
 75
0
 76
1
 98
0
  0
HATCH
  5
B4
330
17
100
AcDbEntity
  8
OUTLINE
 62
7
100
AcDbHatch
 10
0.0
 20
0.0
 30
0.0
210
0.0
220
0.0
230
1.0
  2
SOLID
 70
1
 71
0
 91
1
 92
3
 72
0
 73
1
 93
4
 10
288.7
 20
323.3
 10
291.3
 20
323.3
 10
291.3
 20
320.7
 10
288.7
 20
320.7
 97
0
 75
0
 76
1
 98
0
  0
HATCH
  5
B5
330
17
100
AcDbEntity
  8
OUTLINE
 62
7
100
AcDbHatch
 10
0.0
 20
0.0
 30
0.0
210
0.0
220
0.0
230
1.0
  2
SOLID
 70
1
 71
0
 91
1
 92
3
 72
0
 73
1
 93
4
 10
288.7
 20
308.3
 10
291.3
 20
308.3
 10
291.3
 20
305.7
 10
288.7
 20
305.7
 97
0
 75
0
 76
1
 98
0
  0
HATCH
  5
B6
330
17
100
AcDbEntity
  8
OUTLINE
 62
7
100
AcDbHatch
 10
0.0
 20
0.0
 30
0.0
210
0.0
220
0.0
230
1.0
  2
SOLID
 70
1
 71
0
 91
1
 92
3
 72
0
 73
1
 93
4
 10
288.7
 20
293.3
 10
291.3
 20
293.3
 10
291.3
 20
290.7
 10
288.7
 20
290.7
 97
0
 75
0
 76
1
 98
0
  0
HATCH
  5
B7
330
17
100
AcDbEntity
  8
OUTLINE
 62
7
100
AcDbHatch
 10
0.0
 20
0.0
 30
0.0
210
0.0
220
0.0
230
1.0
  2
SOLID
 70
1
 71
0
 91
1
 92
3
 72
0
 73
1
 93
4
 10
348.7
 20
563.3
 10
351.3
 20
563.3
 10
351.3
 20
560.7
 10
348.7
 20
560.7
 97
0
 75
0
 76
1
 98
0
  0
HATCH
  5
B8
330
17
100
AcDbEntity
  8
OUTLINE
 62
7
100
AcDbHatch
 10
0.0
 20
0.0
 30
0.0
210
0.0
220
0.0
230
1.0
  2
SOLID
 70
1
 71
0
 91
1
 92
3
 72
0
 73
1
 93
4
 10
348.7
 20
548.3
 10
351.3
 20
548.3
 10
351.3
 20
545.7
 10
348.7
 20
545.7
 97
0
 75
0
 76
1
 98
0
  0
HATCH
  5
B9
330
17
100
AcDbEntity
  8
OUTLINE
 62
7
100
AcDbHatch
 10
0.0
 20
0.0
 30
0.0
210
0.0
220
0.0
230
1.0
  2
SOLID
 70
1
 71
0
 91
1
 92
3
 72
0
 73
1
 93
4
 10
348.7
 20
533.3
 10
351.3
 20
533.3
 10
351.3
 20
530.7
 10
348.7
 20
530.7
 97
0
 75
0
 76
1
 98
0
  0
HATCH
  5
BA
330
17
100
AcDbEntity
  8
OUTLINE
 62
7
100
AcDbHatch
 10
0.0
 20
0.0
 30
0.0
210
0.0
220
0.0
230
1.0
  2
SOLID
 70
1
 71
0
 91
1
 92
3
 72
0
 73
1
 93
4
 10
348.7
 20
518.3
 10
351.3
 20
518.3
 10
351.3
 20
515.7
 10
348.7
 20
515.7
 97
0
 75
0
 76
1
 98
0
  0
HATCH
  5
BB
330
17
100
AcDbEntity
  8
OUTLINE
 62
7
100
AcDbHatch
 10
0.0
 20
0.0
 30
0.0
210
0.0
220
0.0
230
1.0
  2
SOLID
 70
1
 71
0
 91
1
 92
3
 72
0
 73
1
 93
4
 10
348.7
 20
503.3
 10
351.3
 20
503.3
 10
351.3
 20
500.70000000000005
 10
348.7
 20
500.70000000000005
 97
0
 75
0
 76
1
 98
0
  0
HATCH
  5
BC
330
17
100
AcDbEntity
  8
OUTLINE
 62
7
100
AcDbHatch
 10
0.0
 20
0.0
 30
0.0
210
0.0
220
0.0
230
1.0
  2
SOLID
 70
1
 71
0
 91
1
 92
3
 72
0
 73
1
 93
4
 10
348.7
 20
488.3
 10
351.3
 20
488.3
 10
351.3
 20
485.70000000000005
 10
348.7
 20
485.70000000000005
 97
0
 75
0
 76
1
 98
0
  0
HATCH
  5
BD
330
17
100
AcDbEntity
  8
OUTLINE
 62
7
100
AcDbHatch
 10
0.0
 20
0.0
 30
0.0
210
0.0
220
0.0
230
1.0
  2
SOLID
 70
1
 71
0
 91
1
 92
3
 72
0
 73
1
 93
4
 10
348.7
 20
473.3
 10
351.3
 20
473.3
 10
351.3
 20
470.70000000000005
 10
348.7
 20
470.70000000000005
 97
0
 75
0
 76
1
 98
0
  0
HATCH
  5
BE
330
17
100
AcDbEntity
  8
OUTLINE
 62
7
100
AcDbHatch
 10
0.0
 20
0.0
 30
0.0
210
0.0
220
0.0
230
1.0
  2
SOLID
 70
1
 71
0
 91
1
 92
3
 72
0
 73
1
 93
4
 10
348.7
 20
458.3
 10
351.3
 20
458.3
 10
351.3
 20
455.70000000000005
 10
348.7
 20
455.70000000000005
 97
0
 75
0
 76
1
 98
0
  0
HATCH
  5
BF
330
17
100
AcDbEntity
  8
OUTLINE
 62
7
100
AcDbHatch
 10
0.0
 20
0.0
 30
0.0
210
0.0
220
0.0
230
1.0
  2
SOLID
 70
1
 71
0
 91
1
 92
3
 72
0
 73
1
 93
4
 10
348.7
 20
443.3
 10
351.3
 20
443.3
 10
351.3
 20
440.70000000000005
 10
348.7
 20
440.70000000000005
 97
0
 75
0
 76
1
 98
0
  0
HATCH
  5
C0
330
17
100
AcDbEntity
  8
OUTLINE
 62
7
100
AcDbHatch
 10
0.0
 20
0.0
 30
0.0
210
0.0
220
0.0
230
1.0
  2
SOLID
 70
1
 71
0
 91
1
 92
3
 72
0
 73
1
 93
4
 10
348.7
 20
428.3
 10
351.3
 20
428.3
 10
351.3
 20
425.70000000000005
 10
348.7
 20
425.70000000000005
 97
0
 75
0
 76
1
 98
0
  0
HATCH
  5
C1
330
17
100
AcDbEntity
  8
OUTLINE
 62
7
100
AcDbHatch
 10
0.0
 20
0.0
 30
0.0
210
0.0
220
0.0
230
1.0
  2
SOLID
 70
1
 71
0
 91
1
 92
3
 72
0
 73
1
 93
4
 10
348.7
 20
413.3
 10
351.3
 20
413.3
 10
351.3
 20
410.70000000000005
 10
348.7
 20
410.70000000000005
 97
0
 75
0
 76
1
 98
0
  0
HATCH
  5
C2
330
17
100
AcDbEntity
  8
OUTLINE
 62
7
100
AcDbHatch
 10
0.0
 20
0.0
 30
0.0
210
0.0
220
0.0
230
1.0
  2
SOLID
 70
1
 71
0
 91
1
 92
3
 72
0
 73
1
 93
4
 10
348.7
 20
398.3
 10
351.3
 20
398.3
 10
351.3
 20
395.70000000000005
 10
348.7
 20
395.70000000000005
 97
0
 75
0
 76
1
 98
0
  0
HATCH
  5
C3
330
17
100
AcDbEntity
  8
OUTLINE
 62
7
100
AcDbHatch
 10
0.0
 20
0.0
 30
0.0
210
0.0
220
0.0
230
1.0
  2
SOLID
 70
1
 71
0
 91
1
 92
3
 72
0
 73
1
 93
4
 10
348.7
 20
383.3
 10
351.3
 20
383.3
 10
351.3
 20
380.7
 10
348.7
 20
380.7
 97
0
 75
0
 76
1
 98
0
  0
HATCH
  5
C4
330
17
100
AcDbEntity
  8
OUTLINE
 62
7
100
AcDbHatch
 10
0.0
 20
0.0
 30
0.0
210
0.0
220
0.0
230
1.0
  2
SOLID
 70
1
 71
0
 91
1
 92
3
 72
0
 73
1
 93
4
 10
348.7
 20
368.3
 10
351.3
 20
368.3
 10
351.3
 20
365.7
 10
348.7
 20
365.7
 97
0
 75
0
 76
1
 98
0
  0
HATCH
  5
C5
330
17
100
AcDbEntity
  8
OUTLINE
 62
7
100
AcDbHatch
 10
0.0
 20
0.0
 30
0.0
210
0.0
220
0.0
230
1.0
  2
SOLID
 70
1
 71
0
 91
1
 92
3
 72
0
 73
1
 93
4
 10
348.7
 20
353.3
 10
351.3
 20
353.3
 10
351.3
 20
350.7
 10
348.7
 20
350.7
 97
0
 75
0
 76
1
 98
0
  0
HATCH
  5
C6
330
17
100
AcDbEntity
  8
OUTLINE
 62
7
100
AcDbHatch
 10
0.0
 20
0.0
 30
0.0
210
0.0
220
0.0
230
1.0
  2
SOLID
 70
1
 71
0
 91
1
 92
3
 72
0
 73
1
 93
4
 10
348.7
 20
338.3
 10
351.3
 20
338.3
 10
351.3
 20
335.7
 10
348.7
 20
335.7
 97
0
 75
0
 76
1
 98
0
  0
HATCH
  5
C7
330
17
100
AcDbEntity
  8
OUTLINE
 62
7
100
AcDbHatch
 10
0.0
 20
0.0
 30
0.0
210
0.0
220
0.0
230
1.0
  2
SOLID
 70
1
 71
0
 91
1
 92
3
 72
0
 73
1
 93
4
 10
348.7
 20
323.3
 10
351.3
 20
323.3
 10
351.3
 20
320.7
 10
348.7
 20
320.7
 97
0
 75
0
 76
1
 98
0
  0
HATCH
  5
C8
330
17
100
AcDbEntity
  8
OUTLINE
 62
7
100
AcDbHatch
 10
0.0
 20
0.0
 30
0.0
210
0.0
220
0.0
230
1.0
  2
SOLID
 70
1
 71
0
 91
1
 92
3
 72
0
 73
1
 93
4
 10
348.7
 20
308.3
 10
351.3
 20
308.3
 10
351.3
 20
305.7
 10
348.7
 20
305.7
 97
0
 75
0
 76
1
 98
0
  0
HATCH
  5
C9
330
17
100
AcDbEntity
  8
OUTLINE
 62
7
100
AcDbHatch
 10
0.0
 20
0.0
 30
0.0
210
0.0
220
0.0
230
1.0
  2
SOLID
 70
1
 71
0
 91
1
 92
3
 72
0
 73
1
 93
4
 10
348.7
 20
293.3
 10
351.3
 20
293.3
 10
351.3
 20
290.7
 10
348.7
 20
290.7
 97
0
 75
0
 76
1
 98
0
  0
LWPOLYLINE
  5
CA
330
17
100
AcDbEntity
  8
OUTLINE
100
AcDbPolyline
 90
4
 70
1
 10
110.0
 20
562.0
 10
350.0
 20
562.0
 10
350.0
 20
292.0
 10
110.0
 20
292.0
  0
TEXT
  5
CB
330
17
100
AcDbEntity
  8
TEXT_RU
420
828172
100
AcDbText
 10
240.0
 20
454.0
 30
0.0
 40
5.46
  1
УЧАСТОК КУПОРОСОВ — ПРЕДЛОЖЕНИЕ БИ
  7
TXTRU
 72
1
 11
240.0
 21
454.0
 31
0.0
100
AcDbText
  0
TEXT
  5
CC
330
17
100
AcDbEntity
  8
TEXT_RU
420
828172
100
AcDbText
 10
260.0
 20
418.0
 30
0.0
 40
5.04
  1
24 × 12–18 м
  7
TXTRU
 72
1
 11
260.0
 21
418.0
 31
0.0
100
AcDbText
  0
TEXT
  5
CD
330
17
100
AcDbEntity
  8
TEXT_RU
420
828172
100
AcDbText
 10
260.0
 20
409.0
 30
0.0
 40
5.04
  1
(2–3 шага)
  7
TXTRU
 72
1
 11
260.0
 21
409.0
 31
0.0
100
AcDbText
  0
LWPOLYLINE
  5
CE
330
17
100
AcDbEntity
  8
OUTLINE
  6
DASHED
420
828172
100
AcDbPolyline
 90
4
 70
1
 10
230.0
 20
449.5
 10
290.0
 20
449.5
 10
290.0
 20
404.5
 10
230.0
 20
404.5
  0
LWPOLYLINE
  5
CF
330
17
100
AcDbEntity
  8
LIQUID
  6
DASHED
100
AcDbPolyline
 90
4
 70
1
 10
232.0
 20
445.75
 10
237.0
 20
445.75
 10
237.0
 20
440.75
 10
232.0
 20
440.75
  0
LWPOLYLINE
  5
D0
330
17
100
AcDbEntity
  8
LIQUID
  6
DASHED
100
AcDbPolyline
 90
4
 70
1
 10
281.0
 20
442.0
 10
286.0
 20
442.0
 10
286.0
 20
437.0
 10
281.0
 20
437.0
  0
TEXT
  5
D1
330
17
100
AcDbEntity
  8
TEXT_RU
420
2783446
100
AcDbText
 10
260.0
 20
394.0
 30
0.0
 40
4.9
  1
стояки конденсаторов у колонн (приямки)
  7
TXTRU
 72
1
 11
260.0
 21
394.0
 31
0.0
100
AcDbText
  0
LINE
  5
D2
330
17
100
AcDbEntity
  8
OUTLINE
  6
DASHED
100
AcDbLine
 10
106.0
 20
427.0
 30
0.0
 11
354.0
 21
427.0
 31
0.0
  0
CIRCLE
  5
D3
330
17
100
AcDbEntity
  8
OUTLINE
100
AcDbCircle
 10
100.0
 20
427.0
 30
0.0
 40
6.0
  0
TEXT
  5
D4
330
17
100
AcDbEntity
  8
TEXT_RU
100
AcDbText
 10
100.0
 20
424.2
 30
0.0
 40
5.25
  1
1
  7
TXTRU
 72
1
 11
100.0
 21
424.2
 31
0.0
100
AcDbText
  0
CIRCLE
  5
D5
330
17
100
AcDbEntity
  8
OUTLINE
100
AcDbCircle
 10
360.0
 20
427.0
 30
0.0
 40
6.0
  0
TEXT
  5
D6
330
17
100
AcDbEntity
  8
TEXT_RU
100
AcDbText
 10
360.0
 20
424.2
 30
0.0
 40
5.25
  1
1
  7
TXTRU
 72
1
 11
360.0
 21
424.2
 31
0.0
100
AcDbText
  0
LINE
  5
D7
330
17
100
AcDbEntity
  8
DIM
420
5394766
100
AcDbLine
 10
110.0
 20
276.0
 30
0.0
 11
155.0
 21
276.0
 31
0.0
  0
LINE
  5
D8
330
17
100
AcDbEntity
  8
DIM
420
5394766
100
AcDbLine
 10
107.3
 20
273.3
 30
0.0
 11
112.7
 21
278.7
 31
0.0
  0
LINE
  5
D9
330
17
100
AcDbEntity
  8
DIM
420
5394766
100
AcDbLine
 10
152.3
 20
273.3
 30
0.0
 11
157.7
 21
278.7
 31
0.0
  0
TEXT
  5
DA
330
17
100
AcDbEntity
  8
TEXT_RU
100
AcDbText
 10
132.5
 20
280.0
 30
0.0
 40
5.6
  1
18 000
  7
TXTRU
 72
1
 11
132.5
 21
280.0
 31
0.0
100
AcDbText
  0
LINE
  5
DB
330
17
100
AcDbEntity
  8
DIM
420
5394766
100
AcDbLine
 10
155.0
 20
276.0
 30
0.0
 11
170.0
 21
276.0
 31
0.0
  0
LINE
  5
DC
330
17
100
AcDbEntity
  8
DIM
420
5394766
100
AcDbLine
 10
152.3
 20
273.3
 30
0.0
 11
157.7
 21
278.7
 31
0.0
  0
LINE
  5
DD
330
17
100
AcDbEntity
  8
DIM
420
5394766
100
AcDbLine
 10
167.3
 20
273.3
 30
0.0
 11
172.7
 21
278.7
 31
0.0
  0
LINE
  5
DE
330
17
100
AcDbEntity
  8
DIM
420
5394766
100
AcDbLine
 10
170.0
 20
276.0
 30
0.0
 11
230.0
 21
276.0
 31
0.0
  0
LINE
  5
DF
330
17
100
AcDbEntity
  8
DIM
420
5394766
100
AcDbLine
 10
167.3
 20
273.3
 30
0.0
 11
172.7
 21
278.7
 31
0.0
  0
LINE
  5
E0
330
17
100
AcDbEntity
  8
DIM
420
5394766
100
AcDbLine
 10
227.3
 20
273.3
 30
0.0
 11
232.7
 21
278.7
 31
0.0
  0
TEXT
  5
E1
330
17
100
AcDbEntity
  8
TEXT_RU
100
AcDbText
 10
200.0
 20
280.0
 30
0.0
 40
5.6
  1
24 000
  7
TXTRU
 72
1
 11
200.0
 21
280.0
 31
0.0
100
AcDbText
  0
LINE
  5
E2
330
17
100
AcDbEntity
  8
DIM
420
5394766
100
AcDbLine
 10
230.0
 20
276.0
 30
0.0
 11
290.0
 21
276.0
 31
0.0
  0
LINE
  5
E3
330
17
100
AcDbEntity
  8
DIM
420
5394766
100
AcDbLine
 10
227.3
 20
273.3
 30
0.0
 11
232.7
 21
278.7
 31
0.0
  0
LINE
  5
E4
330
17
100
AcDbEntity
  8
DIM
420
5394766
100
AcDbLine
 10
287.3
 20
273.3
 30
0.0
 11
292.7
 21
278.7
 31
0.0
  0
TEXT
  5
E5
330
17
100
AcDbEntity
  8
TEXT_RU
100
AcDbText
 10
260.0
 20
280.0
 30
0.0
 40
5.6
  1
24 000
  7
TXTRU
 72
1
 11
260.0
 21
280.0
 31
0.0
100
AcDbText
  0
LINE
  5
E6
330
17
100
AcDbEntity
  8
DIM
420
5394766
100
AcDbLine
 10
290.0
 20
276.0
 30
0.0
 11
350.0
 21
276.0
 31
0.0
  0
LINE
  5
E7
330
17
100
AcDbEntity
  8
DIM
420
5394766
100
AcDbLine
 10
287.3
 20
273.3
 30
0.0
 11
292.7
 21
278.7
 31
0.0
  0
LINE
  5
E8
330
17
100
AcDbEntity
  8
DIM
420
5394766
100
AcDbLine
 10
347.3
 20
273.3
 30
0.0
 11
352.7
 21
278.7
 31
0.0
  0
TEXT
  5
E9
330
17
100
AcDbEntity
  8
TEXT_RU
100
AcDbText
 10
320.0
 20
280.0
 30
0.0
 40
5.6
  1
24 000
  7
TXTRU
 72
1
 11
320.0
 21
280.0
 31
0.0
100
AcDbText
  0
LINE
  5
EA
330
17
100
AcDbEntity
  8
OUTLINE
100
AcDbLine
 10
162.5
 20
276.0
 30
0.0
 11
162.5
 21
266.0
 31
0.0
  0
TEXT
  5
EB
330
17
100
AcDbEntity
  8
TEXT_RU
100
AcDbText
 10
162.5
 20
256.0
 30
0.0
 40
5.25
  1
6 000
  7
TXTRU
 72
1
 11
162.5
 21
256.0
 31
0.0
100
AcDbText
  0
LINE
  5
EC
330
17
100
AcDbEntity
  8
DIM
420
5394766
100
AcDbLine
 10
110.0
 20
246.0
 30
0.0
 11
350.0
 21
246.0
 31
0.0
  0
LINE
  5
ED
330
17
100
AcDbEntity
  8
DIM
420
5394766
100
AcDbLine
 10
107.3
 20
243.3
 30
0.0
 11
112.7
 21
248.7
 31
0.0
  0
LINE
  5
EE
330
17
100
AcDbEntity
  8
DIM
420
5394766
100
AcDbLine
 10
347.3
 20
243.3
 30
0.0
 11
352.7
 21
248.7
 31
0.0
  0
TEXT
  5
EF
330
17
100
AcDbEntity
  8
TEXT_RU
100
AcDbText
 10
230.0
 20
236.5
 30
0.0
 40
5.6
  1
96 000 (пролёты по буквенным осям)
  7
TXTRU
 72
1
 11
230.0
 21
236.5
 31
0.0
100
AcDbText
  0
LINE
  5
F0
330
17
100
AcDbEntity
  8
DIM
420
5394766
100
AcDbLine
 10
380.0
 20
562.0
 30
0.0
 11
380.0
 21
292.0
 31
0.0
  0
LINE
  5
F1
330
17
100
AcDbEntity
  8
DIM
420
5394766
100
AcDbLine
 10
377.3
 20
564.7
 30
0.0
 11
382.7
 21
559.3
 31
0.0
  0
LINE
  5
F2
330
17
100
AcDbEntity
  8
DIM
420
5394766
100
AcDbLine
 10
377.3
 20
294.7
 30
0.0
 11
382.7
 21
289.3
 31
0.0
  0
TEXT
  5
F3
330
17
100
AcDbEntity
  8
TEXT_RU
100
AcDbText
 10
376.5
 20
427.0
 30
0.0
 40
5.6
  1
108 000 (шаг колонн 6 000; сетка 6/12 м — ТЗ п. 4.5)
 50
90.0
  7
TXTRU
 72
1
 11
376.5
 21
427.0
 31
0.0
100
AcDbText
  0
TEXT
  5
F4
330
17
100
AcDbEntity
  8
TEXT_RU
100
AcDbText
 10
36.0
 20
222.0
 30
0.0
 40
5.74
  1
Сущ. здание: свайное основание с ростверками; пластовый дренаж (низ −1,65…−2,25);
  7
TXTRU
 11
36.0
 21
222.0
 31
0.0
100
AcDbText
  0
TEXT
  5
F5
330
17
100
AcDbEntity
  8
TEXT_RU
100
AcDbText
 10
36.0
 20
211.5
 30
0.0
 40
5.74
  1
покрытие — плиты 3 × 12 м, h = 455 мм; верх +13,400…+15,950, парапеты до +16,500;
  7
TXTRU
 11
36.0
 21
211.5
 31
0.0
100
AcDbText
  0
TEXT
  5
F6
330
17
100
AcDbEntity
  8
TEXT_RU
100
AcDbText
 10
36.0
 20
201.0
 30
0.0
 40
5.74
  1
частичные этажерки/перекрытия +5,000/+6,000; краны 5 т (Lк 22,5) и 7,5 т (Lк 16,5).
  7
TXTRU
 11
36.0
 21
201.0
 31
0.0
100
AcDbText
  0
TEXT
  5
F7
330
17
100
AcDbEntity
  8
TEXT_RU
100
AcDbText
 10
36.0
 20
190.5
 30
0.0
 40
5.74
  1
Монтаж: аппараты 904L заводской готовности — через сущ. проёмы/ворота; испарители
  7
TXTRU
 11
36.0
 21
190.5
 31
0.0
100
AcDbText
  0
TEXT
  5
F8
330
17
100
AcDbEntity
  8
TEXT_RU
100
AcDbText
 10
36.0
 20
180.0
 30
0.0
 40
5.74
  1
нитки 1 (~8–15 т) тяжелее г/п кранов 5/7,5 т — мобильный кран через проём до
  7
TXTRU
 11
36.0
 21
180.0
 31
0.0
100
AcDbText
  0
TEXT
  5
F9
330
17
100
AcDbEntity
  8
TEXT_RU
100
AcDbText
 10
36.0
 20
169.5
 30
0.0
 40
5.74
  1
монтажа кровли зоны либо укрупнительная сборка из транспортабельных частей.
  7
TXTRU
 11
36.0
 21
169.5
 31
0.0
100
AcDbText
  0
LWPOLYLINE
  5
FA
330
17
100
AcDbEntity
  8
OUTLINE
100
AcDbPolyline
 90
8
 70
1
 10
36.0
 20
162.0
 10
454.0
 20
162.0
 42
0.41421356237308754
 10
460.0
 20
156.0
 10
460.0
 20
50.0
 42
0.41421356237309703
 10
454.0
 20
44.0
 10
36.0
 20
44.0
 42
0.4142135623731006
 10
30.0
 20
50.0
 10
30.0
 20
156.0
 42
0.4142135623730911
  0
TEXT
  5
FB
330
17
100
AcDbEntity
  8
TEXT_RU
100
AcDbText
 10
40.0
 20
148.0
 30
0.0
 40
6.3
  1
ВЫСОТНАЯ ПРОВЕРКА БАРОМЕТРИЧ. КОНДЕНСАТОРОВ — ВЫВОД (расчёт БИ)
  7
TXTRU
 11
40.0
 21
148.0
 31
0.0
100
AcDbText
  0
TEXT
  5
FC
330
17
100
AcDbEntity
  8
TEXT_RU
100
AcDbText
 10
40.0
 20
136.0
 30
0.0
 40
5.74
  1
потребно: H = труба 10,5 + корпус 2,0…2,5 = 12,5…13,0 м от уровня воды гидрозатвора
  7
TXTRU
 11
40.0
 21
136.0
 31
0.0
100
AcDbText
  0
TEXT
  5
FD
330
17
100
AcDbEntity
  8
TEXT_RU
100
AcDbText
 10
40.0
 20
125.39999999999998
 30
0.0
 40
5.74
  1
(труба: 10,33 × (1 − 0,075) = 9,56 м + запас ~0,9 м; корпус D 2,0 с каплеотбойником)
  7
TXTRU
 11
40.0
 21
125.39999999999998
 31
0.0
100
AcDbText
  0
TEXT
  5
FE
330
17
100
AcDbEntity
  8
TEXT_RU
100
AcDbText
 10
40.0
 20
114.79999999999995
 30
0.0
 40
5.74
  1
низ ферм: высокий пролёт ≈ +12,4…+12,9; при покрытии +13,4…+14,15 ≈ +10,9…+11,0
  7
TXTRU
 11
40.0
 21
114.79999999999995
 31
0.0
100
AcDbText
  0
TEXT
  5
FF
330
17
100
AcDbEntity
  8
TEXT_RU
420
13646651
100
AcDbText
 10
40.0
 20
104.20000000000005
 30
0.0
 40
5.74
  1
вариант 0 (гидрозатвор на 0,000): верх +13,2…+13,7 — НЕ ПРОХОДИТ, дефицит 0,3–1,3 м
  7
TXTRU
 11
40.0
 21
104.20000000000005
 31
0.0
100
AcDbText
  0
TEXT
  5
100
330
17
100
AcDbEntity
  8
TEXT_RU
420
828172
100
AcDbText
 10
40.0
 20
93.60000000000002
 30
0.0
 40
5.74
  1
вариант А (реком.): приямок 2,0–2,5 м → верх +11,0…+11,5, запас ≥ 0,9–1,9 м
  7
TXTRU
 11
40.0
 21
93.60000000000002
 31
0.0
100
AcDbText
  0
TEXT
  5
101
330
17
100
AcDbEntity
  8
TEXT_RU
100
AcDbText
 10
40.0
 20
83.0
 30
0.0
 40
5.74
  1
вариант Б (резерв): низкоуровневые конденсаторы + насосы 904L — если запретят приямки
  7
TXTRU
 11
40.0
 21
83.0
 31
0.0
100
AcDbText
  0
TEXT
  5
102
330
17
100
AcDbEntity
  8
TEXT_RU
100
AcDbText
 10
40.0
 20
72.39999999999998
 30
0.0
 40
5.74
  1
альтернатива по II ступеням: заглубить репульпаторы — совместить с приямками
  7
TXTRU
 11
40.0
 21
72.39999999999998
 31
0.0
100
AcDbText
  0
TEXT
  5
103
330
17
100
AcDbEntity
  8
TEXT_RU
100
AcDbText
 10
40.0
 20
61.799999999999955
 30
0.0
 40
5.74
  1
подтвердить обмерным обследованием (низ ферм, ростверки, зоны) — 1-й этап БИ;
  7
TXTRU
 11
40.0
 21
61.799999999999955
 31
0.0
100
AcDbText
  0
TEXT
  5
104
330
17
100
AcDbEntity
  8
TEXT_RU
100
AcDbText
 10
40.0
 20
51.200000000000045
 30
0.0
 40
5.74
  1
в новом корпусе (базовый сценарий) низ ферм назначается ≥ 13,5 м — без приямков
  7
TXTRU
 11
40.0
 21
51.200000000000045
 31
0.0
100
AcDbText
  0
TEXT
  5
105
330
17
100
AcDbEntity
  8
TEXT_RU
100
AcDbText
 10
1174.0
 20
584.0
 30
0.0
 40
7.35
  1
РАЗРЕЗ 1—1 · ВЫСОКИЙ 24-М ПРОЛЁТ (ПРИВЯЗКА — ПО ОБСЛЕДОВАНИЮ)
  7
TXTRU
 72
2
 11
1174.0
 21
584.0
 31
0.0
100
AcDbText
  0
LWPOLYLINE
  5
106
330
17
100
AcDbEntity
  8
OUTLINE
100
AcDbPolyline
 90
4
 70
1
 10
500.0
 20
552.5
 10
512.0
 20
552.5
 10
512.0
 20
140.0
 10
500.0
 20
140.0
  0
LWPOLYLINE
  5
107
330
17
100
AcDbEntity
  8
OUTLINE
100
AcDbPolyline
 90
4
 70
1
 10
1088.0
 20
552.5
 10
1100.0
 20
552.5
 10
1100.0
 20
140.0
 10
1088.0
 20
140.0
  0
TEXT
  5
108
330
17
100
AcDbEntity
  8
TEXT_RU
100
AcDbText
 10
518.0
 20
543.5
 30
0.0
 40
5.25
  1
парапеты до +16,500
  7
TXTRU
 11
518.0
 21
543.5
 31
0.0
100
AcDbText
  0
LINE
  5
109
330
17
100
AcDbEntity
  8
OUTLINE
100
AcDbLine
 10
500.0
 20
538.75
 30
0.0
 11
1100.0
 21
538.75
 31
0.0
  0
LINE
  5
10A
330
17
100
AcDbEntity
  8
OUTLINE
  6
DASHED
100
AcDbLine
 10
512.0
 20
523.75
 30
0.0
 11
1088.0
 21
523.75
 31
0.0
  0
LINE
  5
10B
330
17
100
AcDbEntity
  8
DIM
420
15198183
100
AcDbLine
 10
524.0
 20
523.75
 30
0.0
 11
536.0
 21
538.75
 31
0.0
  0
LINE
  5
10C
330
17
100
AcDbEntity
  8
DIM
420
15198183
100
AcDbLine
 10
552.0
 20
523.75
 30
0.0
 11
564.0
 21
538.75
 31
0.0
  0
LINE
  5
10D
330
17
100
AcDbEntity
  8
DIM
420
15198183
100
AcDbLine
 10
580.0
 20
523.75
 30
0.0
 11
592.0
 21
538.75
 31
0.0
  0
LINE
  5
10E
330
17
100
AcDbEntity
  8
DIM
420
15198183
100
AcDbLine
 10
608.0
 20
523.75
 30
0.0
 11
620.0
 21
538.75
 31
0.0
  0
LINE
  5
10F
330
17
100
AcDbEntity
  8
DIM
420
15198183
100
AcDbLine
 10
636.0
 20
523.75
 30
0.0
 11
648.0
 21
538.75
 31
0.0
  0
LINE
  5
110
330
17
100
AcDbEntity
  8
DIM
420
15198183
100
AcDbLine
 10
664.0
 20
523.75
 30
0.0
 11
676.0
 21
538.75
 31
0.0
  0
LINE
  5
111
330
17
100
AcDbEntity
  8
DIM
420
15198183
100
AcDbLine
 10
692.0
 20
523.75
 30
0.0
 11
704.0
 21
538.75
 31
0.0
  0
LINE
  5
112
330
17
100
AcDbEntity
  8
DIM
420
15198183
100
AcDbLine
 10
720.0
 20
523.75
 30
0.0
 11
732.0
 21
538.75
 31
0.0
  0
LINE
  5
113
330
17
100
AcDbEntity
  8
DIM
420
15198183
100
AcDbLine
 10
748.0
 20
523.75
 30
0.0
 11
760.0
 21
538.75
 31
0.0
  0
LINE
  5
114
330
17
100
AcDbEntity
  8
DIM
420
15198183
100
AcDbLine
 10
776.0
 20
523.75
 30
0.0
 11
788.0
 21
538.75
 31
0.0
  0
LINE
  5
115
330
17
100
AcDbEntity
  8
DIM
420
15198183
100
AcDbLine
 10
804.0
 20
523.75
 30
0.0
 11
816.0
 21
538.75
 31
0.0
  0
LINE
  5
116
330
17
100
AcDbEntity
  8
DIM
420
15198183
100
AcDbLine
 10
832.0
 20
523.75
 30
0.0
 11
844.0
 21
538.75
 31
0.0
  0
LINE
  5
117
330
17
100
AcDbEntity
  8
DIM
420
15198183
100
AcDbLine
 10
860.0
 20
523.75
 30
0.0
 11
872.0
 21
538.75
 31
0.0
  0
LINE
  5
118
330
17
100
AcDbEntity
  8
DIM
420
15198183
100
AcDbLine
 10
888.0
 20
523.75
 30
0.0
 11
900.0
 21
538.75
 31
0.0
  0
LINE
  5
119
330
17
100
AcDbEntity
  8
DIM
420
15198183
100
AcDbLine
 10
916.0
 20
523.75
 30
0.0
 11
928.0
 21
538.75
 31
0.0
  0
LINE
  5
11A
330
17
100
AcDbEntity
  8
DIM
420
15198183
100
AcDbLine
 10
944.0
 20
523.75
 30
0.0
 11
956.0
 21
538.75
 31
0.0
  0
LINE
  5
11B
330
17
100
AcDbEntity
  8
DIM
420
15198183
100
AcDbLine
 10
972.0
 20
523.75
 30
0.0
 11
984.0
 21
538.75
 31
0.0
  0
LINE
  5
11C
330
17
100
AcDbEntity
  8
DIM
420
15198183
100
AcDbLine
 10
1000.0
 20
523.75
 30
0.0
 11
1012.0
 21
538.75
 31
0.0
  0
LINE
  5
11D
330
17
100
AcDbEntity
  8
DIM
420
15198183
100
AcDbLine
 10
1028.0
 20
523.75
 30
0.0
 11
1040.0
 21
538.75
 31
0.0
  0
LINE
  5
11E
330
17
100
AcDbEntity
  8
DIM
420
15198183
100
AcDbLine
 10
1056.0
 20
523.75
 30
0.0
 11
1068.0
 21
538.75
 31
0.0
  0
TEXT
  5
11F
330
17
100
AcDbEntity
  8
TEXT_RU
100
AcDbText
 10
793.0
 20
526.75
 30
0.0
 40
5.6
  1
верх покрытия +15,35…+15,95 · плиты 3 × 12 м, h = 455 мм
  7
TXTRU
 72
1
 11
793.0
 21
526.75
 31
0.0
100
AcDbText
  0
LINE
  5
120
330
17
100
AcDbEntity
  8
DIM
420
15198183
100
AcDbLine
 10
690.0
 20
456.25
 30
0.0
 11
717.0
 21
520.0
 31
0.0
  0
LINE
  5
121
330
17
100
AcDbEntity
  8
DIM
420
15198183
100
AcDbLine
 10
717.0
 20
520.0
 30
0.0
 11
744.0
 21
456.25
 31
0.0
  0
LINE
  5
122
330
17
100
AcDbEntity
  8
DIM
420
15198183
100
AcDbLine
 10
744.0
 20
456.25
 30
0.0
 11
771.0
 21
520.0
 31
0.0
  0
LINE
  5
123
330
17
100
AcDbEntity
  8
DIM
420
15198183
100
AcDbLine
 10
771.0
 20
520.0
 30
0.0
 11
798.0
 21
456.25
 31
0.0
  0
LINE
  5
124
330
17
100
AcDbEntity
  8
DIM
420
15198183
100
AcDbLine
 10
798.0
 20
456.25
 30
0.0
 11
825.0
 21
520.0
 31
0.0
  0
LINE
  5
125
330
17
100
AcDbEntity
  8
DIM
420
15198183
100
AcDbLine
 10
825.0
 20
520.0
 30
0.0
 11
852.0
 21
456.25
 31
0.0
  0
LINE
  5
126
330
17
100
AcDbEntity
  8
DIM
420
15198183
100
AcDbLine
 10
852.0
 20
456.25
 30
0.0
 11
879.0
 21
520.0
 31
0.0
  0
LINE
  5
127
330
17
100
AcDbEntity
  8
DIM
420
15198183
100
AcDbLine
 10
879.0
 20
520.0
 30
0.0
 11
906.0
 21
456.25
 31
0.0
  0
LINE
  5
128
330
17
100
AcDbEntity
  8
DIM
420
15198183
100
AcDbLine
 10
906.0
 20
456.25
 30
0.0
 11
933.0
 21
520.0
 31
0.0
  0
LINE
  5
129
330
17
100
AcDbEntity
  8
DIM
420
15198183
100
AcDbLine
 10
933.0
 20
520.0
 30
0.0
 11
960.0
 21
456.25
 31
0.0
  0
LINE
  5
12A
330
17
100
AcDbEntity
  8
DIM
420
15198183
100
AcDbLine
 10
960.0
 20
456.25
 30
0.0
 11
987.0
 21
520.0
 31
0.0
  0
LINE
  5
12B
330
17
100
AcDbEntity
  8
DIM
420
15198183
100
AcDbLine
 10
987.0
 20
520.0
 30
0.0
 11
1014.0
 21
456.25
 31
0.0
  0
LINE
  5
12C
330
17
100
AcDbEntity
  8
DIM
420
15198183
100
AcDbLine
 10
1014.0
 20
456.25
 30
0.0
 11
1041.0
 21
520.0
 31
0.0
  0
LINE
  5
12D
330
17
100
AcDbEntity
  8
DIM
420
15198183
100
AcDbLine
 10
1041.0
 20
520.0
 30
0.0
 11
1068.0
 21
456.25
 31
0.0
  0
LINE
  5
12E
330
17
100
AcDbEntity
  8
DIM
420
15198183
100
AcDbLine
 10
1068.0
 20
456.25
 30
0.0
 11
1095.0
 21
520.0
 31
0.0
  0
LINE
  5
12F
330
17
100
AcDbEntity
  8
DIM
420
15198183
100
AcDbLine
 10
1095.0
 20
520.0
 30
0.0
 11
1122.0
 21
456.25
 31
0.0
  0
LINE
  5
130
330
17
100
AcDbEntity
  8
OUTLINE
  6
DASHED
100
AcDbLine
 10
512.0
 20
462.5
 30
0.0
 11
1088.0
 21
462.5
 31
0.0
  0
LINE
  5
131
330
17
100
AcDbEntity
  8
OUTLINE
  6
DASHED
100
AcDbLine
 10
512.0
 20
450.0
 30
0.0
 11
1088.0
 21
450.0
 31
0.0
  0
TEXT
  5
132
330
17
100
AcDbEntity
  8
TEXT_RU
100
AcDbText
 10
800.0
 20
465.5
 30
0.0
 40
5.6
  1
низ несущих ферм — оценочно +12,4…+12,9 (подтвердить обмером — 1-й этап БИ)
  7
TXTRU
 72
1
 11
800.0
 21
465.5
 31
0.0
100
AcDbText
  0
LWPOLYLINE
  5
133
330
17
100
AcDbEntity
  8
OUTLINE
100
AcDbPolyline
 90
4
 70
1
 10
512.0
 20
400.0
 10
526.0
 20
400.0
 10
526.0
 20
390.0
 10
512.0
 20
390.0
  0
HATCH
  5
134
330
17
100
AcDbEntity
  8
OUTLINE
 62
7
100
AcDbHatch
 10
0.0
 20
0.0
 30
0.0
210
0.0
220
0.0
230
1.0
  2
SOLID
 70
1
 71
0
 91
1
 92
3
 72
0
 73
1
 93
4
 10
515.0
 20
406.0
 10
521.0
 20
406.0
 10
521.0
 20
400.0
 10
515.0
 20
400.0
 97
0
 75
0
 76
1
 98
0
  0
LWPOLYLINE
  5
135
330
17
100
AcDbEntity
  8
OUTLINE
100
AcDbPolyline
 90
4
 70
1
 10
1074.0
 20
400.0
 10
1088.0
 20
400.0
 10
1088.0
 20
390.0
 10
1074.0
 20
390.0
  0
HATCH
  5
136
330
17
100
AcDbEntity
  8
OUTLINE
 62
7
100
AcDbHatch
 10
0.0
 20
0.0
 30
0.0
210
0.0
220
0.0
230
1.0
  2
SOLID
 70
1
 71
0
 91
1
 92
3
 72
0
 73
1
 93
4
 10
1079.0
 20
406.0
 10
1085.0
 20
406.0
 10
1085.0
 20
400.0
 10
1079.0
 20
400.0
 97
0
 75
0
 76
1
 98
0
  0
LINE
  5
137
330
17
100
AcDbEntity
  8
DIM
  6
DASHED
100
AcDbLine
 10
512.0
 20
440.0
 30
0.0
 11
1088.0
 21
440.0
 31
0.0
  0
TEXT
  5
138
330
17
100
AcDbEntity
  8
TEXT_RU
100
AcDbText
 10
1068.0
 20
430.5
 30
0.0
 40
5.25
  1
габарит крана ≈ +12 — стояки у колонн, вне зоны прохода (ФНП по ПС)
  7
TXTRU
 72
2
 11
1068.0
 21
430.5
 31
0.0
100
AcDbText
  0
TEXT
  5
139
330
17
100
AcDbEntity
  8
TEXT_RU
100
AcDbText
 10
1068.0
 20
381.0
 30
0.0
 40
5.25
  1
верх кранового рельса +10,000/+10,500
  7
TXTRU
 72
2
 11
1068.0
 21
381.0
 31
0.0
100
AcDbText
  0
LINE
  5
13A
330
17
100
AcDbEntity
  8
OUTLINE
100
AcDbLine
 10
500.0
 20
140.0
 30
0.0
 11
587.0
 21
140.0
 31
0.0
  0
LINE
  5
13B
330
17
100
AcDbEntity
  8
OUTLINE
100
AcDbLine
 10
662.0
 20
140.0
 30
0.0
 11
1100.0
 21
140.0
 31
0.0
  0
LINE
  5
13C
330
17
100
AcDbEntity
  8
OUTLINE
100
AcDbLine
 10
514.0
 20
140.0
 30
0.0
 11
508.0
 21
133.0
 31
0.0
  0
LINE
  5
13D
330
17
100
AcDbEntity
  8
OUTLINE
100
AcDbLine
 10
528.0
 20
140.0
 30
0.0
 11
522.0
 21
133.0
 31
0.0
  0
LINE
  5
13E
330
17
100
AcDbEntity
  8
OUTLINE
100
AcDbLine
 10
542.0
 20
140.0
 30
0.0
 11
536.0
 21
133.0
 31
0.0
  0
LINE
  5
13F
330
17
100
AcDbEntity
  8
OUTLINE
100
AcDbLine
 10
556.0
 20
140.0
 30
0.0
 11
550.0
 21
133.0
 31
0.0
  0
LINE
  5
140
330
17
100
AcDbEntity
  8
OUTLINE
100
AcDbLine
 10
570.0
 20
140.0
 30
0.0
 11
564.0
 21
133.0
 31
0.0
  0
LINE
  5
141
330
17
100
AcDbEntity
  8
OUTLINE
100
AcDbLine
 10
672.0
 20
140.0
 30
0.0
 11
666.0
 21
133.0
 31
0.0
  0
LINE
  5
142
330
17
100
AcDbEntity
  8
OUTLINE
100
AcDbLine
 10
686.0
 20
140.0
 30
0.0
 11
680.0
 21
133.0
 31
0.0
  0
LINE
  5
143
330
17
100
AcDbEntity
  8
OUTLINE
100
AcDbLine
 10
700.0
 20
140.0
 30
0.0
 11
694.0
 21
133.0
 31
0.0
  0
LINE
  5
144
330
17
100
AcDbEntity
  8
OUTLINE
100
AcDbLine
 10
714.0
 20
140.0
 30
0.0
 11
708.0
 21
133.0
 31
0.0
  0
LINE
  5
145
330
17
100
AcDbEntity
  8
OUTLINE
100
AcDbLine
 10
728.0
 20
140.0
 30
0.0
 11
722.0
 21
133.0
 31
0.0
  0
LINE
  5
146
330
17
100
AcDbEntity
  8
OUTLINE
100
AcDbLine
 10
742.0
 20
140.0
 30
0.0
 11
736.0
 21
133.0
 31
0.0
  0
LINE
  5
147
330
17
100
AcDbEntity
  8
OUTLINE
100
AcDbLine
 10
756.0
 20
140.0
 30
0.0
 11
750.0
 21
133.0
 31
0.0
  0
LINE
  5
148
330
17
100
AcDbEntity
  8
OUTLINE
100
AcDbLine
 10
770.0
 20
140.0
 30
0.0
 11
764.0
 21
133.0
 31
0.0
  0
LINE
  5
149
330
17
100
AcDbEntity
  8
OUTLINE
100
AcDbLine
 10
784.0
 20
140.0
 30
0.0
 11
778.0
 21
133.0
 31
0.0
  0
LINE
  5
14A
330
17
100
AcDbEntity
  8
OUTLINE
100
AcDbLine
 10
798.0
 20
140.0
 30
0.0
 11
792.0
 21
133.0
 31
0.0
  0
LINE
  5
14B
330
17
100
AcDbEntity
  8
OUTLINE
100
AcDbLine
 10
812.0
 20
140.0
 30
0.0
 11
806.0
 21
133.0
 31
0.0
  0
LINE
  5
14C
330
17
100
AcDbEntity
  8
OUTLINE
100
AcDbLine
 10
826.0
 20
140.0
 30
0.0
 11
820.0
 21
133.0
 31
0.0
  0
LINE
  5
14D
330
17
100
AcDbEntity
  8
OUTLINE
100
AcDbLine
 10
840.0
 20
140.0
 30
0.0
 11
834.0
 21
133.0
 31
0.0
  0
LINE
  5
14E
330
17
100
AcDbEntity
  8
OUTLINE
100
AcDbLine
 10
854.0
 20
140.0
 30
0.0
 11
848.0
 21
133.0
 31
0.0
  0
LINE
  5
14F
330
17
100
AcDbEntity
  8
OUTLINE
100
AcDbLine
 10
868.0
 20
140.0
 30
0.0
 11
862.0
 21
133.0
 31
0.0
  0
LINE
  5
150
330
17
100
AcDbEntity
  8
OUTLINE
100
AcDbLine
 10
882.0
 20
140.0
 30
0.0
 11
876.0
 21
133.0
 31
0.0
  0
LINE
  5
151
330
17
100
AcDbEntity
  8
OUTLINE
100
AcDbLine
 10
896.0
 20
140.0
 30
0.0
 11
890.0
 21
133.0
 31
0.0
  0
LINE
  5
152
330
17
100
AcDbEntity
  8
OUTLINE
100
AcDbLine
 10
910.0
 20
140.0
 30
0.0
 11
904.0
 21
133.0
 31
0.0
  0
LINE
  5
153
330
17
100
AcDbEntity
  8
OUTLINE
100
AcDbLine
 10
924.0
 20
140.0
 30
0.0
 11
918.0
 21
133.0
 31
0.0
  0
LINE
  5
154
330
17
100
AcDbEntity
  8
OUTLINE
100
AcDbLine
 10
938.0
 20
140.0
 30
0.0
 11
932.0
 21
133.0
 31
0.0
  0
LINE
  5
155
330
17
100
AcDbEntity
  8
OUTLINE
100
AcDbLine
 10
952.0
 20
140.0
 30
0.0
 11
946.0
 21
133.0
 31
0.0
  0
LINE
  5
156
330
17
100
AcDbEntity
  8
OUTLINE
100
AcDbLine
 10
966.0
 20
140.0
 30
0.0
 11
960.0
 21
133.0
 31
0.0
  0
LINE
  5
157
330
17
100
AcDbEntity
  8
OUTLINE
100
AcDbLine
 10
980.0
 20
140.0
 30
0.0
 11
974.0
 21
133.0
 31
0.0
  0
LINE
  5
158
330
17
100
AcDbEntity
  8
OUTLINE
100
AcDbLine
 10
994.0
 20
140.0
 30
0.0
 11
988.0
 21
133.0
 31
0.0
  0
LINE
  5
159
330
17
100
AcDbEntity
  8
OUTLINE
100
AcDbLine
 10
1008.0
 20
140.0
 30
0.0
 11
1002.0
 21
133.0
 31
0.0
  0
LINE
  5
15A
330
17
100
AcDbEntity
  8
OUTLINE
100
AcDbLine
 10
1022.0
 20
140.0
 30
0.0
 11
1016.0
 21
133.0
 31
0.0
  0
LINE
  5
15B
330
17
100
AcDbEntity
  8
OUTLINE
100
AcDbLine
 10
1036.0
 20
140.0
 30
0.0
 11
1030.0
 21
133.0
 31
0.0
  0
LINE
  5
15C
330
17
100
AcDbEntity
  8
OUTLINE
100
AcDbLine
 10
1050.0
 20
140.0
 30
0.0
 11
1044.0
 21
133.0
 31
0.0
  0
LINE
  5
15D
330
17
100
AcDbEntity
  8
OUTLINE
100
AcDbLine
 10
1064.0
 20
140.0
 30
0.0
 11
1058.0
 21
133.0
 31
0.0
  0
LINE
  5
15E
330
17
100
AcDbEntity
  8
OUTLINE
100
AcDbLine
 10
1078.0
 20
140.0
 30
0.0
 11
1072.0
 21
133.0
 31
0.0
  0
LWPOLYLINE
  5
15F
330
17
100
AcDbEntity
  8
OUTLINE
100
AcDbPolyline
 90
4
 70
1
 10
494.0
 20
140.0
 10
518.0
 20
140.0
 10
518.0
 20
94.0
 10
494.0
 20
94.0
  0
LWPOLYLINE
  5
160
330
17
100
AcDbEntity
  8
OUTLINE
100
AcDbPolyline
 90
4
 70
1
 10
1082.0
 20
140.0
 10
1106.0
 20
140.0
 10
1106.0
 20
94.0
 10
1082.0
 20
94.0
  0
LINE
  5
161
330
17
100
AcDbEntity
  8
DIM
  6
DASHED
420
15198183
100
AcDbLine
 10
512.0
 20
82.0
 30
0.0
 11
580.0
 21
82.0
 31
0.0
  0
LINE
  5
162
330
17
100
AcDbEntity
  8
DIM
  6
DASHED
420
15198183
100
AcDbLine
 10
670.0
 20
82.0
 30
0.0
 11
1088.0
 21
82.0
 31
0.0
  0
TEXT
  5
163
330
17
100
AcDbEntity
  8
TEXT_RU
100
AcDbText
 10
836.0
 20
92.5
 30
0.0
 40
5.46
  1
свайные ростверки (низ −1,65…−2,25) · пластовый дренаж
  7
TXTRU
 72
1
 11
836.0
 21
92.5
 31
0.0
100
AcDbText
  0
LWPOLYLINE
  5
164
330
17
100
AcDbEntity
  8
INTERLOCK
  6
DASHED
100
AcDbPolyline
 90
4
 70
1
 10
535.0
 20
165.0
 10
571.0
 20
165.0
 10
571.0
 20
140.0
 10
535.0
 20
140.0
  0
LINE
  5
165
330
17
100
AcDbEntity
  8
INTERLOCK
100
AcDbLine
 10
537.0
 20
157.5
 30
0.0
 11
569.0
 21
157.5
 31
0.0
  0
HATCH
  5
166
330
17
100
AcDbEntity
  8
INTERLOCK
 62
7
100
AcDbHatch
 10
0.0
 20
0.0
 30
0.0
210
0.0
220
0.0
230
1.0
  2
SOLID
 70
1
 71
0
 91
1
 92
3
 72
0
 73
1
 93
3
 10
549.0
 20
163.5
 10
556.0
 20
163.5
 10
552.5
 20
158.5
 97
0
 75
0
 76
1
 98
0
  0
TEXT
  5
167
330
17
100
AcDbEntity
  8
TEXT_RU
420
13646651
100
AcDbText
 10
574.0
 20
154.5
 30
0.0
 40
4.76
  1
вода ≈ +0,7
  7
TXTRU
 11
574.0
 21
154.5
 31
0.0
100
AcDbText
  0
LINE
  5
168
330
17
100
AcDbEntity
  8
INTERLOCK
  6
DASHED
100
AcDbLine
 10
550.0
 20
157.5
 30
0.0
 11
550.0
 21
420.0
 31
0.0
  0
LINE
  5
169
330
17
100
AcDbEntity
  8
INTERLOCK
  6
DASHED
100
AcDbLine
 10
555.0
 20
157.5
 30
0.0
 11
555.0
 21
420.0
 31
0.0
  0
LWPOLYLINE
  5
16A
330
17
100
AcDbEntity
  8
INTERLOCK
  6
DASHED
100
AcDbPolyline
 90
8
 70
1
 10
531.0
 20
476.25
 10
573.0
 20
476.25
 42
0.4142135623731064
 10
577.0
 20
472.25
 10
577.0
 20
424.0
 42
0.4142135623731064
 10
573.0
 20
420.0
 10
531.0
 20
420.0
 42
0.4142135623731064
 10
527.0
 20
424.0
 10
527.0
 20
472.25
 42
0.4142135623731064
  0
LINE
  5
16B
330
17
100
AcDbEntity
  8
INTERLOCK
100
AcDbLine
 10
537.0
 20
466.5
 30
0.0
 11
565.0
 21
446.0
 31
0.0
  0
LINE
  5
16C
330
17
100
AcDbEntity
  8
INTERLOCK
100
AcDbLine
 10
565.0
 20
466.5
 30
0.0
 11
537.0
 21
446.0
 31
0.0
  0
TEXT
  5
16D
330
17
100
AcDbEntity
  8
TEXT_RU
420
13646651
100
AcDbText
 10
516.0
 20
511.0
 30
0.0
 40
5.46
  1
ВАРИАНТ 0 — гидрозатвор на 0,000:
  7
TXTRU
 11
516.0
 21
511.0
 31
0.0
100
AcDbText
  0
TEXT
  5
16E
330
17
100
AcDbEntity
  8
TEXT_RU
420
13646651
100
AcDbText
 10
516.0
 20
501.0
 30
0.0
 40
5.46
  1
верх конденсатора +13,2…+13,7 —
  7
TXTRU
 11
516.0
 21
501.0
 31
0.0
100
AcDbText
  0
TEXT
  5
16F
330
17
100
AcDbEntity
  8
TEXT_RU
420
13646651
100
AcDbText
 10
516.0
 20
491.0
 30
0.0
 40
5.46
  1
выше низа ферм +12,4…+12,9:
  7
TXTRU
 11
516.0
 21
491.0
 31
0.0
100
AcDbText
  0
TEXT
  5
170
330
17
100
AcDbEntity
  8
TEXT_RU
420
13646651
100
AcDbText
 10
516.0
 20
481.0
 30
0.0
 40
5.46
  1
НЕ ПРОХОДИТ (дефицит 0,3–1,3 м)
  7
TXTRU
 11
516.0
 21
481.0
 31
0.0
100
AcDbText
  0
LWPOLYLINE
  5
171
330
17
100
AcDbEntity
  8
LIQUID
  6
DASHED
100
AcDbPolyline
 90
4
 70
0
 10
587.0
 20
140.0
 10
587.0
 20
82.5
 10
662.0
 20
82.5
 10
662.0
 20
140.0
  0
LINE
  5
172
330
17
100
AcDbEntity
  8
DIM
420
5394766
100
AcDbLine
 10
578.0
 20
140.0
 30
0.0
 11
578.0
 21
82.5
 31
0.0
  0
LINE
  5
173
330
17
100
AcDbEntity
  8
DIM
420
5394766
100
AcDbLine
 10
575.3
 20
142.7
 30
0.0
 11
580.7
 21
137.3
 31
0.0
  0
LINE
  5
174
330
17
100
AcDbEntity
  8
DIM
420
5394766
100
AcDbLine
 10
575.3
 20
85.20000000000005
 30
0.0
 11
580.7
 21
79.79999999999995
 31
0.0
  0
TEXT
  5
175
330
17
100
AcDbEntity
  8
TEXT_RU
100
AcDbText
 10
574.5
 20
111.25
 30
0.0
 40
5.04
  1
2,0–2,5
 50
90.0
  7
TXTRU
 72
1
 11
574.5
 21
111.25
 31
0.0
100
AcDbText
  0
LWPOLYLINE
  5
176
330
17
100
AcDbEntity
  8
LIQUID
100
AcDbPolyline
 90
4
 70
1
 10
602.0
 20
117.5
 10
648.0
 20
117.5
 10
648.0
 20
85.0
 10
602.0
 20
85.0
  0
LINE
  5
177
330
17
100
AcDbEntity
  8
LIQUID
100
AcDbLine
 10
604.0
 20
96.25
 30
0.0
 11
646.0
 21
96.25
 31
0.0
  0
HATCH
  5
178
330
17
100
AcDbEntity
  8
LIQUID
 62
7
100
AcDbHatch
 10
0.0
 20
0.0
 30
0.0
210
0.0
220
0.0
230
1.0
  2
SOLID
 70
1
 71
0
 91
1
 92
3
 72
0
 73
1
 93
3
 10
620.0
 20
102.25
 10
627.0
 20
102.25
 10
623.5
 20
97.25
 97
0
 75
0
 76
1
 98
0
  0
TEXT
  5
179
330
17
100
AcDbEntity
  8
TEXT_RU
420
2783446
100
AcDbText
 10
625.0
 20
87.5
 30
0.0
 40
4.55
  1
−1,5…−2,0
  7
TXTRU
 72
1
 11
625.0
 21
87.5
 31
0.0
100
AcDbText
  0
LINE
  5
17A
330
17
100
AcDbEntity
  8
LIQUID
100
AcDbLine
 10
622.0
 20
96.25
 30
0.0
 11
622.0
 21
358.75
 31
0.0
  0
LINE
  5
17B
330
17
100
AcDbEntity
  8
LIQUID
100
AcDbLine
 10
628.0
 20
96.25
 30
0.0
 11
628.0
 21
358.75
 31
0.0
  0
LWPOLYLINE
  5
17C
330
17
100
AcDbEntity
  8
LIQUID
100
AcDbPolyline
 90
8
 70
1
 10
605.0
 20
415.0
 10
645.0
 20
415.0
 42
0.4142135623731064
 10
650.0
 20
410.0
 10
650.0
 20
363.75
 42
0.4142135623731064
 10
645.0
 20
358.75
 10
605.0
 20
358.75
 42
0.4142135623731064
 10
600.0
 20
363.75
 10
600.0
 20
410.0
 42
0.4142135623731064
  0
LWPOLYLINE
  5
17D
330
17
100
AcDbEntity
  8
LIQUID
100
AcDbPolyline
 90
4
 70
1
 10
618.0
 20
422.0
 10
632.0
 20
422.0
 10
632.0
 20
415.0
 10
618.0
 20
415.0
  0
TEXT
  5
17E
330
17
100
AcDbEntity
  8
TEXT_RU
420
2783446
100
AcDbText
 10
625.0
 20
384.5
 30
0.0
 40
4.9
  1
D 2,0
  7
TXTRU
 72
1
 11
625.0
 21
384.5
 31
0.0
100
AcDbText
  0
TEXT
  5
17F
330
17
100
AcDbEntity
  8
TEXT_RU
420
828172
100
AcDbText
 10
584.0
 20
433.0
 30
0.0
 40
5.18
  1
ВАРИАНТ А (РЕКОМЕНДУЕМЫЙ):
  7
TXTRU
 11
584.0
 21
433.0
 31
0.0
100
AcDbText
  0
TEXT
  5
180
330
17
100
AcDbEntity
  8
TEXT_RU
420
828172
100
AcDbText
 10
584.0
 20
423.5
 30
0.0
 40
5.18
  1
верх +11,0…+11,5 · запас до ферм 0,9–1,9 м
  7
TXTRU
 11
584.0
 21
423.5
 31
0.0
100
AcDbText
  0
LINE
  5
181
330
17
100
AcDbEntity
  8
DIM
420
5394766
100
AcDbLine
 10
672.0
 20
96.25
 30
0.0
 11
672.0
 21
358.75
 31
0.0
  0
LINE
  5
182
330
17
100
AcDbEntity
  8
DIM
420
5394766
100
AcDbLine
 10
674.7
 20
93.54999999999995
 30
0.0
 11
669.3
 21
98.95000000000005
 31
0.0
  0
LINE
  5
183
330
17
100
AcDbEntity
  8
DIM
420
5394766
100
AcDbLine
 10
674.7
 20
356.05
 30
0.0
 11
669.3
 21
361.45
 31
0.0
  0
TEXT
  5
184
330
17
100
AcDbEntity
  8
TEXT_RU
100
AcDbText
 10
668.5
 20
227.5
 30
0.0
 40
5.6
  1
барометрическая труба 10,5 м
 50
90.0
  7
TXTRU
 72
1
 11
668.5
 21
227.5
 31
0.0
100
AcDbText
  0
LINE
  5
185
330
17
100
AcDbEntity
  8
DIM
420
5394766
100
AcDbLine
 10
672.0
 20
358.75
 30
0.0
 11
672.0
 21
415.0
 31
0.0
  0
LINE
  5
186
330
17
100
AcDbEntity
  8
DIM
420
5394766
100
AcDbLine
 10
674.7
 20
356.05
 30
0.0
 11
669.3
 21
361.45
 31
0.0
  0
LINE
  5
187
330
17
100
AcDbEntity
  8
DIM
420
5394766
100
AcDbLine
 10
674.7
 20
412.3
 30
0.0
 11
669.3
 21
417.7
 31
0.0
  0
TEXT
  5
188
330
17
100
AcDbEntity
  8
TEXT_RU
100
AcDbText
 10
668.5
 20
386.875
 30
0.0
 40
5.04
  1
корпус 2,0–2,5
 50
90.0
  7
TXTRU
 72
1
 11
668.5
 21
386.875
 31
0.0
100
AcDbText
  0
LINE
  5
189
330
17
100
AcDbEntity
  8
DIM
420
5394766
100
AcDbLine
 10
692.0
 20
96.25
 30
0.0
 11
692.0
 21
415.0
 31
0.0
  0
LINE
  5
18A
330
17
100
AcDbEntity
  8
DIM
420
5394766
100
AcDbLine
 10
694.7
 20
93.54999999999995
 30
0.0
 11
689.3
 21
98.95000000000005
 31
0.0
  0
LINE
  5
18B
330
17
100
AcDbEntity
  8
DIM
420
5394766
100
AcDbLine
 10
694.7
 20
412.3
 30
0.0
 11
689.3
 21
417.7
 31
0.0
  0
TEXT
  5
18C
330
17
100
AcDbEntity
  8
TEXT_RU
100
AcDbText
 10
688.5
 20
255.625
 30
0.0
 40
5.6
  1
H = 12,5–13,0 м от уровня воды
 50
90.0
  7
TXTRU
 72
1
 11
688.5
 21
255.625
 31
0.0
100
AcDbText
  0
TEXT
  5
18D
330
17
100
AcDbEntity
  8
TEXT_RU
420
2783446
100
AcDbText
 10
560.0
 20
67.5
 30
0.0
 40
5.46
  1
приямок гидрозатвора 2,0–2,5 м (уровень воды −1,5…−2,0) — предложение БИ; кислотостойкий (СОВ до 0,5 г/л H₂SO₄);
  7
TXTRU
 11
560.0
 21
67.5
 31
0.0
100
AcDbText
  0
TEXT
  5
18E
330
17
100
AcDbEntity
  8
TEXT_RU
420
2783446
100
AcDbText
 10
560.0
 20
56.5
 30
0.0
 40
5.46
  1
между свайными ростверками — подтвердить обследованием и расчётом (СП 43.13330, СП 45.13330)
  7
TXTRU
 11
560.0
 21
56.5
 31
0.0
100
AcDbText
  0
LWPOLYLINE
  5
18F
330
17
100
AcDbEntity
  8
LIQUID
  6
DASHED
100
AcDbPolyline
 90
8
 70
1
 10
784.0
 20
415.0
 10
816.0
 20
415.0
 42
0.4142135623731002
 10
825.0
 20
406.0
 10
825.0
 20
161.5
 42
0.4142135623731002
 10
816.0
 20
152.5
 10
784.0
 20
152.5
 42
0.4142135623731002
 10
775.0
 20
161.5
 10
775.0
 20
406.0
 42
0.4142135623731002
  0
TEXT
  5
190
330
17
100
AcDbEntity
  8
TEXT_RU
100
AcDbText
 10
800.0
 20
284.0
 30
0.0
 40
5.95
  1
ИСПАРИТЕЛЬ НИТКИ 1
 50
90.0
  7
TXTRU
 72
1
 11
800.0
 21
284.0
 31
0.0
100
AcDbText
  0
TEXT
  5
191
330
17
100
AcDbEntity
  8
TEXT_RU
100
AcDbText
 10
734.0
 20
318.0
 30
0.0
 40
5.18
  1
D 2,0 · V 34,5 м³
  7
TXTRU
 72
1
 11
734.0
 21
318.0
 31
0.0
100
AcDbText
  0
TEXT
  5
192
330
17
100
AcDbEntity
  8
TEXT_RU
100
AcDbText
 10
734.0
 20
307.5
 30
0.0
 40
5.18
  1
корпус 9–12 м
  7
TXTRU
 72
1
 11
734.0
 21
307.5
 31
0.0
100
AcDbText
  0
TEXT
  5
193
330
17
100
AcDbEntity
  8
TEXT_RU
100
AcDbText
 10
734.0
 20
297.0
 30
0.0
 40
5.18
  1
низ ~0…+1
  7
TXTRU
 72
1
 11
734.0
 21
297.0
 31
0.0
100
AcDbText
  0
TEXT
  5
194
330
17
100
AcDbEntity
  8
TEXT_RU
100
AcDbText
 10
734.0
 20
286.5
 30
0.0
 40
5.18
  1
верх ~+10…+12
  7
TXTRU
 72
1
 11
734.0
 21
286.5
 31
0.0
100
AcDbText
  0
TEXT
  5
195
330
17
100
AcDbEntity
  8
TEXT_RU
100
AcDbText
 10
734.0
 20
276.0
 30
0.0
 40
5.18
  1
(по изгот., ОЛ)
  7
TXTRU
 72
1
 11
734.0
 21
276.0
 31
0.0
100
AcDbText
  0
LINE
  5
196
330
17
100
AcDbEntity
  8
OUTLINE
  6
DASHED
100
AcDbLine
 10
835.0
 20
352.5
 30
0.0
 11
1005.0
 21
352.5
 31
0.0
  0
LINE
  5
197
330
17
100
AcDbEntity
  8
OUTLINE
  6
DASHED
100
AcDbLine
 10
835.0
 20
348.75
 30
0.0
 11
1005.0
 21
348.75
 31
0.0
  0
LINE
  5
198
330
17
100
AcDbEntity
  8
OUTLINE
  6
DASHED
100
AcDbLine
 10
840.0
 20
348.75
 30
0.0
 11
840.0
 21
140.0
 31
0.0
  0
LINE
  5
199
330
17
100
AcDbEntity
  8
OUTLINE
  6
DASHED
100
AcDbLine
 10
1000.0
 20
348.75
 30
0.0
 11
1000.0
 21
140.0
 31
0.0
  0
LWPOLYLINE
  5
19A
330
17
100
AcDbEntity
  8
LIQUID
  6
DASHED
100
AcDbPolyline
 90
4
 70
1
 10
856.0
 20
380.0
 10
904.0
 20
380.0
 10
904.0
 20
425.0
 10
856.0
 20
425.0
  0
LWPOLYLINE
  5
19B
330
17
100
AcDbEntity
  8
LIQUID
  6
DASHED
100
AcDbPolyline
 90
3
 70
0
 10
856.0
 20
380.0
 10
880.0
 20
352.5
 10
904.0
 20
380.0
  0
TEXT
  5
19C
330
17
100
AcDbEntity
  8
TEXT_RU
100
AcDbText
 10
910.0
 20
409.0
 30
0.0
 40
5.46
  1
ИСПАРИТЕЛИ II СТУПЕНЕЙ
  7
TXTRU
 11
910.0
 21
409.0
 31
0.0
100
AcDbText
  0
TEXT
  5
19D
330
17
100
AcDbEntity
  8
TEXT_RU
100
AcDbText
 10
910.0
 20
398.0
 30
0.0
 40
5.18
  1
низ конуса +8…+9 — на этажерке
  7
TXTRU
 11
910.0
 21
398.0
 31
0.0
100
AcDbText
  0
LINE
  5
19E
330
17
100
AcDbEntity
  8
LIQUID
100
AcDbLine
 10
877.0
 20
352.5
 30
0.0
 11
877.0
 21
180.0
 31
0.0
  0
LINE
  5
19F
330
17
100
AcDbEntity
  8
LIQUID
100
AcDbLine
 10
883.0
 20
352.5
 30
0.0
 11
883.0
 21
180.0
 31
0.0
  0
TEXT
  5
1A0
330
17
100
AcDbEntity
  8
TEXT_RU
420
2783446
100
AcDbText
 10
869.0
 20
260.0
 30
0.0
 40
5.04
  1
солевая колонна
 50
90.0
  7
TXTRU
 72
1
 11
869.0
 21
260.0
 31
0.0
100
AcDbText
  0
LINE
  5
1A1
330
17
100
AcDbEntity
  8
DIM
420
5394766
100
AcDbLine
 10
915.0
 20
352.5
 30
0.0
 11
915.0
 21
175.0
 31
0.0
  0
LINE
  5
1A2
330
17
100
AcDbEntity
  8
DIM
420
5394766
100
AcDbLine
 10
912.3
 20
355.2
 30
0.0
 11
917.7
 21
349.8
 31
0.0
  0
LINE
  5
1A3
330
17
100
AcDbEntity
  8
DIM
420
5394766
100
AcDbLine
 10
912.3
 20
177.7
 30
0.0
 11
917.7
 21
172.3
 31
0.0
  0
TEXT
  5
1A4
330
17
100
AcDbEntity
  8
TEXT_RU
100
AcDbText
 10
911.5
 20
263.75
 30
0.0
 40
5.32
  1
столб пульпы 7,0–7,9 м
 50
90.0
  7
TXTRU
 72
1
 11
911.5
 21
263.75
 31
0.0
100
AcDbText
  0
TEXT
  5
1A5
330
17
100
AcDbEntity
  8
TEXT_RU
100
AcDbText
 10
920.0
 20
328.0
 30
0.0
 40
5.25
  1
ЭТАЖЕРКА (СП 16.13330) — предложение БИ
  7
TXTRU
 72
1
 11
920.0
 21
328.0
 31
0.0
100
AcDbText
  0
LWPOLYLINE
  5
1A6
330
17
100
AcDbEntity
  8
LIQUID
  6
DASHED
100
AcDbPolyline
 90
4
 70
1
 10
856.0
 20
180.0
 10
906.0
 20
180.0
 10
906.0
 20
140.0
 10
856.0
 20
140.0
  0
LINE
  5
1A7
330
17
100
AcDbEntity
  8
LIQUID
100
AcDbLine
 10
858.0
 20
175.0
 30
0.0
 11
904.0
 21
175.0
 31
0.0
  0
TEXT
  5
1A8
330
17
100
AcDbEntity
  8
TEXT_RU
100
AcDbText
 10
881.0
 20
157.0
 30
0.0
 40
4.62
  1
репульпаторы
  7
TXTRU
 72
1
 11
881.0
 21
157.0
 31
0.0
100
AcDbText
  0
TEXT
  5
1A9
330
17
100
AcDbEntity
  8
TEXT_RU
100
AcDbText
 10
881.0
 20
148.0
 30
0.0
 40
4.62
  1
(0,000)
  7
TXTRU
 72
1
 11
881.0
 21
148.0
 31
0.0
100
AcDbText
  0
LWPOLYLINE
  5
1AA
330
17
100
AcDbEntity
  8
LIQUID
  6
DASHED
100
AcDbPolyline
 90
4
 70
1
 10
925.0
 20
167.5
 10
980.0
 20
167.5
 10
980.0
 20
148.75
 10
925.0
 20
148.75
  0
LWPOLYLINE
  5
1AB
330
17
100
AcDbEntity
  8
OUTLINE
  6
DASHED
100
AcDbPolyline
 90
4
 70
1
 10
918.0
 20
148.75
 10
987.0
 20
148.75
 10
987.0
 20
140.0
 10
918.0
 20
140.0
  0
TEXT
  5
1AC
330
17
100
AcDbEntity
  8
TEXT_RU
100
AcDbText
 10
958.0
 20
180.5
 30
0.0
 40
5.04
  1
центрифуги — инд.
  7
TXTRU
 72
1
 11
958.0
 21
180.5
 31
0.0
100
AcDbText
  0
TEXT
  5
1AD
330
17
100
AcDbEntity
  8
TEXT_RU
100
AcDbText
 10
958.0
 20
171.5
 30
0.0
 40
5.04
  1
виброфундаменты
  7
TXTRU
 72
1
 11
958.0
 21
171.5
 31
0.0
100
AcDbText
  0
LINE
  5
1AE
330
17
100
AcDbEntity
  8
DIM
  6
DASHED
100
AcDbLine
 10
1015.0
 20
143.0
 30
0.0
 11
1080.0
 21
143.0
 31
0.0
  0
LINE
  5
1AF
330
17
100
AcDbEntity
  8
DIM
100
AcDbLine
 10
1015.0
 20
143.0
 30
0.0
 11
1015.0
 21
150.0
 31
0.0
  0
LINE
  5
1B0
330
17
100
AcDbEntity
  8
DIM
100
AcDbLine
 10
1080.0
 20
143.0
 30
0.0
 11
1080.0
 21
150.0
 31
0.0
  0
TEXT
  5
1B1
330
17
100
AcDbEntity
  8
TEXT_RU
100
AcDbText
 10
1048.0
 20
188.0
 30
0.0
 40
5.04
  1
фасовка биг-бегов,
  7
TXTRU
 72
1
 11
1048.0
 21
188.0
 31
0.0
100
AcDbText
  0
TEXT
  5
1B2
330
17
100
AcDbEntity
  8
TEXT_RU
100
AcDbText
 10
1048.0
 20
179.0
 30
0.0
 40
5.04
  1
склад — на 0,000,
  7
TXTRU
 72
1
 11
1048.0
 21
179.0
 31
0.0
100
AcDbText
  0
TEXT
  5
1B3
330
17
100
AcDbEntity
  8
TEXT_RU
100
AcDbText
 10
1048.0
 20
170.0
 30
0.0
 40
5.04
  1
проезд погрузчика
  7
TXTRU
 72
1
 11
1048.0
 21
170.0
 31
0.0
100
AcDbText
  0
LINE
  5
1B4
330
17
100
AcDbEntity
  8
OUTLINE
100
AcDbLine
 10
1040.0
 20
265.0
 30
0.0
 11
1088.0
 21
265.0
 31
0.0
  0
LINE
  5
1B5
330
17
100
AcDbEntity
  8
OUTLINE
100
AcDbLine
 10
1040.0
 20
290.0
 30
0.0
 11
1088.0
 21
290.0
 31
0.0
  0
TEXT
  5
1B6
330
17
100
AcDbEntity
  8
TEXT_RU
100
AcDbText
 10
1046.0
 20
281.25
 30
0.0
 40
4.9
  1
сущ. перекрытия
  7
TXTRU
 72
1
 11
1046.0
 21
281.25
 31
0.0
100
AcDbText
  0
TEXT
  5
1B7
330
17
100
AcDbEntity
  8
TEXT_RU
100
AcDbText
 10
1046.0
 20
272.5
 30
0.0
 40
4.9
  1
(частично)
  7
TXTRU
 72
1
 11
1046.0
 21
272.5
 31
0.0
100
AcDbText
  0
LINE
  5
1B8
330
17
100
AcDbEntity
  8
OUTLINE
100
AcDbLine
 10
1096.0
 20
531.25
 30
0.0
 11
1104.0
 21
531.25
 31
0.0
  0
TEXT
  5
1B9
330
17
100
AcDbEntity
  8
TEXT_RU
100
AcDbText
 10
1107.0
 20
528.25
 30
0.0
 40
5.46
  1
+15,35…+15,95
  7
TXTRU
 11
1107.0
 21
528.25
 31
0.0
100
AcDbText
  0
LINE
  5
1BA
330
17
100
AcDbEntity
  8
OUTLINE
100
AcDbLine
 10
1096.0
 20
456.25
 30
0.0
 11
1104.0
 21
456.25
 31
0.0
  0
TEXT
  5
1BB
330
17
100
AcDbEntity
  8
TEXT_RU
100
AcDbText
 10
1107.0
 20
453.25
 30
0.0
 40
5.46
  1
+12,4…+12,9
  7
TXTRU
 11
1107.0
 21
453.25
 31
0.0
100
AcDbText
  0
LINE
  5
1BC
330
17
100
AcDbEntity
  8
OUTLINE
100
AcDbLine
 10
1096.0
 20
396.25
 30
0.0
 11
1104.0
 21
396.25
 31
0.0
  0
TEXT
  5
1BD
330
17
100
AcDbEntity
  8
TEXT_RU
100
AcDbText
 10
1107.0
 20
393.25
 30
0.0
 40
5.46
  1
+10,0/+10,5
  7
TXTRU
 11
1107.0
 21
393.25
 31
0.0
100
AcDbText
  0
LINE
  5
1BE
330
17
100
AcDbEntity
  8
OUTLINE
100
AcDbLine
 10
1096.0
 20
290.0
 30
0.0
 11
1104.0
 21
290.0
 31
0.0
  0
TEXT
  5
1BF
330
17
100
AcDbEntity
  8
TEXT_RU
100
AcDbText
 10
1107.0
 20
287.0
 30
0.0
 40
5.46
  1
+6,000
  7
TXTRU
 11
1107.0
 21
287.0
 31
0.0
100
AcDbText
  0
LINE
  5
1C0
330
17
100
AcDbEntity
  8
OUTLINE
100
AcDbLine
 10
1096.0
 20
265.0
 30
0.0
 11
1104.0
 21
265.0
 31
0.0
  0
TEXT
  5
1C1
330
17
100
AcDbEntity
  8
TEXT_RU
100
AcDbText
 10
1107.0
 20
262.0
 30
0.0
 40
5.46
  1
+5,000
  7
TXTRU
 11
1107.0
 21
262.0
 31
0.0
100
AcDbText
  0
LINE
  5
1C2
330
17
100
AcDbEntity
  8
OUTLINE
100
AcDbLine
 10
1096.0
 20
140.0
 30
0.0
 11
1104.0
 21
140.0
 31
0.0
  0
TEXT
  5
1C3
330
17
100
AcDbEntity
  8
TEXT_RU
100
AcDbText
 10
1107.0
 20
137.0
 30
0.0
 40
5.46
  1
0,000
  7
TXTRU
 11
1107.0
 21
137.0
 31
0.0
100
AcDbText
  0
LINE
  5
1C4
330
17
100
AcDbEntity
  8
OUTLINE
100
AcDbLine
 10
1096.0
 20
91.25
 30
0.0
 11
1104.0
 21
91.25
 31
0.0
  0
TEXT
  5
1C5
330
17
100
AcDbEntity
  8
TEXT_RU
100
AcDbText
 10
1107.0
 20
88.25
 30
0.0
 40
5.46
  1
−1,65…−2,25
  7
TXTRU
 11
1107.0
 21
88.25
 31
0.0
100
AcDbText
  0
TEXT
  5
1C6
330
17
100
AcDbEntity
  8
TEXT_RU
100
AcDbText
 10
470.0
 20
36.0
 30
0.0
 40
5.46
  1
— — — пунктир: предложения/допущения БИ (уточняются обследованием ГМУ и опросными листами) · сплошное: существующее здание и расчётные габариты БИ
  7
TXTRU
 11
470.0
 21
36.0
 31
0.0
100
AcDbText
  0
ENDSEC
  0
SECTION
  2
OBJECTS
  0
DICTIONARY
  5
A
330
0
100
AcDbDictionary
281
1
  3
ACAD_COLOR
350
B
  3
ACAD_GROUP
350
C
  3
ACAD_LAYOUT
350
D
  3
ACAD_MATERIAL
350
E
  3
ACAD_MLEADERSTYLE
350
F
  3
ACAD_MLINESTYLE
350
10
  3
ACAD_PLOTSETTINGS
350
11
  3
ACAD_PLOTSTYLENAME
350
12
  3
ACAD_SCALELIST
350
14
  3
ACAD_TABLESTYLE
350
15
  3
ACAD_VISUALSTYLE
350
16
  3
EZDXF_META
350
2D
  0
DICTIONARY
  5
B
330
A
100
AcDbDictionary
281
1
  0
DICTIONARY
  5
C
330
A
100
AcDbDictionary
281
1
  0
DICTIONARY
  5
D
330
A
100
AcDbDictionary
281
1
  3
Model
350
1A
  3
Layout1
350
1E
  0
DICTIONARY
  5
E
330
A
100
AcDbDictionary
281
1
  3
ByBlock
350
1F
  3
ByLayer
350
20
  3
Global
350
21
  0
DICTIONARY
  5
F
330
A
100
AcDbDictionary
281
1
  3
Standard
350
2C
  0
DICTIONARY
  5
10
330
A
100
AcDbDictionary
281
1
  3
Standard
350
22
  0
DICTIONARY
  5
11
330
A
100
AcDbDictionary
281
1
  0
ACDBDICTIONARYWDFLT
  5
12
330
A
100
AcDbDictionary
281
1
  3
Normal
350
13
100
AcDbDictionaryWithDefault
340
13
  0
ACDBPLACEHOLDER
  5
13
330
12
  0
DICTIONARY
  5
14
330
A
100
AcDbDictionary
281
1
  0
DICTIONARY
  5
15
330
A
100
AcDbDictionary
281
1
  0
DICTIONARY
  5
16
330
A
100
AcDbDictionary
281
1
  0
LAYOUT
  5
1A
330
D
100
AcDbPlotSettings
  1

  4
A3
  6

 40
7.5
 41
20.0
 42
7.5
 43
20.0
 44
420.0
 45
297.0
 46
0.0
 47
0.0
 48
0.0
 49
0.0
140
0.0
141
0.0
142
1.0
143
1.0
 70
1024
 72
1
 73
0
 74
5
  7

 75
16
 76
0
 77
2
 78
300
147
1.0
148
0.0
149
0.0
100
AcDbLayout
  1
Model
 70
1
 71
0
 10
0.0
 20
0.0
 11
1190.0
 21
640.0
 12
0.0
 22
0.0
 32
0.0
 14
-0.01
 24
-0.01
 34
0.0
 15
1190.0
 25
640.0
 35
0.0
146
0.0
 13
0.0
 23
0.0
 33
0.0
 16
1.0
 26
0.0
 36
0.0
 17
0.0
 27
1.0
 37
0.0
 76
1
330
17
  0
LAYOUT
  5
1E
330
D
100
AcDbPlotSettings
  1

  4
A3
  6

 40
7.5
 41
20.0
 42
7.5
 43
20.0
 44
420.0
 45
297.0
 46
0.0
 47
0.0
 48
0.0
 49
0.0
140
0.0
141
0.0
142
1.0
143
1.0
 70
0
 72
1
 73
0
 74
5
  7

 75
16
 76
0
 77
2
 78
300
147
1.0
148
0.0
149
0.0
100
AcDbLayout
  1
Layout1
 70
1
 71
1
 10
0.0
 20
0.0
 11
420.0
 21
297.0
 12
0.0
 22
0.0
 32
0.0
 14
1e+20
 24
1e+20
 34
1e+20
 15
-1e+20
 25
-1e+20
 35
-1e+20
146
0.0
 13
0.0
 23
0.0
 33
0.0
 16
1.0
 26
0.0
 36
0.0
 17
0.0
 27
1.0
 37
0.0
 76
1
330
1B
  0
MATERIAL
  5
1F
102
{ACAD_REACTORS
330
E
102
}
330
E
100
AcDbMaterial
  1
ByBlock
  2

 70
0
 40
1.0
 71
1
 41
1.0
 91
-1023410177
 42
1.0
 72
1
  3

 73
1
 74
1
 75
1
 44
0.5
 73
0
 45
1.0
 46
1.0
 77
1
  4

 78
1
 79
1
170
1
 48
1.0
171
1
  6

172
1
173
1
174
1
140
1.0
141
1.0
175
1
  7

176
1
177
1
178
1
143
1.0
179
1
  8

270
1
271
1
272
1
145
1.0
146
1.0
273
1
  9

274
1
275
1
276
1
 42
1.0
 72
1
  3

 73
1
 74
1
 75
1
 94
63
  0
MATERIAL
  5
20
102
{ACAD_REACTORS
330
E
102
}
330
E
100
AcDbMaterial
  1
ByLayer
  2

 70
0
 40
1.0
 71
1
 41
1.0
 91
-1023410177
 42
1.0
 72
1
  3

 73
1
 74
1
 75
1
 44
0.5
 73
0
 45
1.0
 46
1.0
 77
1
  4

 78
1
 79
1
170
1
 48
1.0
171
1
  6

172
1
173
1
174
1
140
1.0
141
1.0
175
1
  7

176
1
177
1
178
1
143
1.0
179
1
  8

270
1
271
1
272
1
145
1.0
146
1.0
273
1
  9

274
1
275
1
276
1
 42
1.0
 72
1
  3

 73
1
 74
1
 75
1
 94
63
  0
MATERIAL
  5
21
102
{ACAD_REACTORS
330
E
102
}
330
E
100
AcDbMaterial
  1
Global
  2

 70
0
 40
1.0
 71
1
 41
1.0
 91
-1023410177
 42
1.0
 72
1
  3

 73
1
 74
1
 75
1
 44
0.5
 73
0
 45
1.0
 46
1.0
 77
1
  4

 78
1
 79
1
170
1
 48
1.0
171
1
  6

172
1
173
1
174
1
140
1.0
141
1.0
175
1
  7

176
1
177
1
178
1
143
1.0
179
1
  8

270
1
271
1
272
1
145
1.0
146
1.0
273
1
  9

274
1
275
1
276
1
 42
1.0
 72
1
  3

 73
1
 74
1
 75
1
 94
63
  0
MLINESTYLE
  5
22
102
{ACAD_REACTORS
330
10
102
}
330
10
100
AcDbMlineStyle
  2
Standard
 70
0
  3

 62
256
 51
90.0
 52
90.0
 71
2
 49
0.5
 62
256
  6
BYLAYER
 49
-0.5
 62
256
  6
BYLAYER
  0
MLEADERSTYLE
  5
2C
102
{ACAD_REACTORS
330
F
102
}
330
F
100
AcDbMLeaderStyle
179
2
170
2
171
1
172
0
 90
2
 40
0.0
 41
0.0
173
1
 91
-1056964608
 92
-2
290
1
 42
2.0
291
1
 43
8.0
  3
Standard
 44
4.0
300

342
29
174
1
175
1
176
0
178
1
 93
-1056964608
 45
4.0
292
0
297
0
 46
4.0
 94
-1056964608
 47
1.0
 49
1.0
140
1.0
294
1
141
0.0
177
0
142
1.0
295
0
296
0
143
3.75
271
0
272
9
273
9
  0
DICTIONARY
  5
2D
330
A
100
AcDbDictionary
280
1
281
1
  3
CREATED_BY_EZDXF
350
2E
  3
WRITTEN_BY_EZDXF
350
1C9
  0
DICTIONARYVAR
  5
2E
330
2D
100
DictionaryVariables
280
0
  1
1.4.4 @ 2026-08-28T02:58:58.022253+00:00
  0
DICTIONARYVAR
  5
1C9
330
2D
100
DictionaryVariables
280
0
  1
1.4.4 @ 2026-08-28T02:58:58.041442+00:00
  0
ENDSEC
  0
EOF
