  0
SECTION
  2
HEADER
  9
$ACADVER
  1
AC1024
  9
$ACADMAINTVER
 70
6
  9
$DWGCODEPAGE
  3
ANSI_1252
  9
$LASTSAVEDBY
  1
ezdxf
  9
$INSBASE
 10
0.0
 20
0.0
 30
0.0
  9
$EXTMIN
 10
-0.01
 20
-0.01
 30
0.0
  9
$EXTMAX
 10
1190.0
 20
640.0
 30
0.0
  9
$LIMMIN
 10
0.0
 20
0.0
  9
$LIMMAX
 10
1190.0
 20
640.0
  9
$ORTHOMODE
 70
0
  9
$REGENMODE
 70
1
  9
$FILLMODE
 70
1
  9
$QTEXTMODE
 70
0
  9
$MIRRTEXT
 70
1
  9
$LTSCALE
 40
1.0
  9
$ATTMODE
 70
1
  9
$TEXTSIZE
 40
2.5
  9
$TRACEWID
 40
1.0
  9
$TEXTSTYLE
  7
Standard
  9
$CLAYER
  8
0
  9
$CELTYPE
  6
ByLayer
  9
$CECOLOR
 62
256
  9
$CELTSCALE
 40
1.0
  9
$DISPSILH
 70
0
  9
$DIMSCALE
 40
1.0
  9
$DIMASZ
 40
2.5
  9
$DIMEXO
 40
0.625
  9
$DIMDLI
 40
3.75
  9
$DIMRND
 40
0.0
  9
$DIMDLE
 40
0.0
  9
$DIMEXE
 40
1.25
  9
$DIMTP
 40
0.0
  9
$DIMTM
 40
0.0
  9
$DIMTXT
 40
2.5
  9
$DIMCEN
 40
2.5
  9
$DIMTSZ
 40
0.0
  9
$DIMTOL
 70
0
  9
$DIMLIM
 70
0
  9
$DIMTIH
 70
0
  9
$DIMTOH
 70
0
  9
$DIMSE1
 70
0
  9
$DIMSE2
 70
0
  9
$DIMTAD
 70
1
  9
$DIMZIN
 70
8
  9
$DIMBLK
  1

  9
$DIMASO
 70
1
  9
$DIMSHO
 70
1
  9
$DIMPOST
  1

  9
$DIMAPOST
  1

  9
$DIMALT
 70
0
  9
$DIMALTD
 70
3
  9
$DIMALTF
 40
0.03937007874
  9
$DIMLFAC
 40
1.0
  9
$DIMTOFL
 70
1
  9
$DIMTVP
 40
0.0
  9
$DIMTIX
 70
0
  9
$DIMSOXD
 70
0
  9
$DIMSAH
 70
0
  9
$DIMBLK1
  1

  9
$DIMBLK2
  1

  9
$DIMSTYLE
  2
ISO-25
  9
$DIMCLRD
 70
0
  9
$DIMCLRE
 70
0
  9
$DIMCLRT
 70
0
  9
$DIMTFAC
 40
1.0
  9
$DIMGAP
 40
0.625
  9
$DIMJUST
 70
0
  9
$DIMSD1
 70
0
  9
$DIMSD2
 70
0
  9
$DIMTOLJ
 70
0
  9
$DIMTZIN
 70
8
  9
$DIMALTZ
 70
0
  9
$DIMALTTZ
 70
0
  9
$DIMUPT
 70
0
  9
$DIMDEC
 70
2
  9
$DIMTDEC
 70
2
  9
$DIMALTU
 70
2
  9
$DIMALTTD
 70
3
  9
$DIMTXSTY
  7
Standard
  9
$DIMAUNIT
 70
0
  9
$DIMADEC
 70
0
  9
$DIMALTRND
 40
0.0
  9
$DIMAZIN
 70
0
  9
$DIMDSEP
 70
44
  9
$DIMATFIT
 70
3
  9
$DIMFRAC
 70
0
  9
$DIMLDRBLK
  1

  9
$DIMLUNIT
 70
2
  9
$DIMLWD
 70
-2
  9
$DIMLWE
 70
-2
  9
$DIMTMOVE
 70
0
  9
$DIMFXL
 40
1.0
  9
$DIMFXLON
 70
0
  9
$DIMJOGANG
 40
0.785398163397
  9
$DIMTFILL
 70
0
  9
$DIMTFILLCLR
 70
0
  9
$DIMARCSYM
 70
0
  9
$DIMLTYPE
  6

  9
$DIMLTEX1
  6

  9
$DIMLTEX2
  6

  9
$DIMTXTDIRECTION
 70
0
  9
$LUNITS
 70
2
  9
$LUPREC
 70
4
  9
$SKETCHINC
 40
1.0
  9
$FILLETRAD
 40
10.0
  9
$AUNITS
 70
0
  9
$AUPREC
 70
2
  9
$MENU
  1
.
  9
$ELEVATION
 40
0.0
  9
$PELEVATION
 40
0.0
  9
$THICKNESS
 40
0.0
  9
$LIMCHECK
 70
0
  9
$CHAMFERA
 40
0.0
  9
$CHAMFERB
 40
0.0
  9
$CHAMFERC
 40
0.0
  9
$CHAMFERD
 40
0.0
  9
$SKPOLY
 70
0
  9
$TDCREATE
 40
2461281.1242824076
  9
$TDUCREATE
 40
2458532.153996898
  9
$TDUPDATE
 40
2461281.1242824076
  9
$TDUUPDATE
 40
2458532.1544311
  9
$TDINDWG
 40
0.0
  9
$TDUSRTIMER
 40
0.0
  9
$USRTIMER
 70
1
  9
$ANGBASE
 50
0.0
  9
$ANGDIR
 70
0
  9
$PDMODE
 70
0
  9
$PDSIZE
 40
0.0
  9
$PLINEWID
 40
0.0
  9
$SPLFRAME
 70
0
  9
$SPLINETYPE
 70
6
  9
$SPLINESEGS
 70
8
  9
$HANDSEED
  5
EF
  9
$SURFTAB1
 70
6
  9
$SURFTAB2
 70
6
  9
$SURFTYPE
 70
6
  9
$SURFU
 70
6
  9
$SURFV
 70
6
  9
$UCSBASE
  2

  9
$UCSNAME
  2

  9
$UCSORG
 10
0.0
 20
0.0
 30
0.0
  9
$UCSXDIR
 10
1.0
 20
0.0
 30
0.0
  9
$UCSYDIR
 10
0.0
 20
1.0
 30
0.0
  9
$UCSORTHOREF
  2

  9
$UCSORTHOVIEW
 70
0
  9
$UCSORGTOP
 10
0.0
 20
0.0
 30
0.0
  9
$UCSORGBOTTOM
 10
0.0
 20
0.0
 30
0.0
  9
$UCSORGLEFT
 10
0.0
 20
0.0
 30
0.0
  9
$UCSORGRIGHT
 10
0.0
 20
0.0
 30
0.0
  9
$UCSORGFRONT
 10
0.0
 20
0.0
 30
0.0
  9
$UCSORGBACK
 10
0.0
 20
0.0
 30
0.0
  9
$PUCSBASE
  2

  9
$PUCSNAME
  2

  9
$PUCSORG
 10
0.0
 20
0.0
 30
0.0
  9
$PUCSXDIR
 10
1.0
 20
0.0
 30
0.0
  9
$PUCSYDIR
 10
0.0
 20
1.0
 30
0.0
  9
$PUCSORTHOREF
  2

  9
$PUCSORTHOVIEW
 70
0
  9
$PUCSORGTOP
 10
0.0
 20
0.0
 30
0.0
  9
$PUCSORGBOTTOM
 10
0.0
 20
0.0
 30
0.0
  9
$PUCSORGLEFT
 10
0.0
 20
0.0
 30
0.0
  9
$PUCSORGRIGHT
 10
0.0
 20
0.0
 30
0.0
  9
$PUCSORGFRONT
 10
0.0
 20
0.0
 30
0.0
  9
$PUCSORGBACK
 10
0.0
 20
0.0
 30
0.0
  9
$USERI1
 70
0
  9
$USERI2
 70
0
  9
$USERI3
 70
0
  9
$USERI4
 70
0
  9
$USERI5
 70
0
  9
$USERR1
 40
0.0
  9
$USERR2
 40
0.0
  9
$USERR3
 40
0.0
  9
$USERR4
 40
0.0
  9
$USERR5
 40
0.0
  9
$WORLDVIEW
 70
1
  9
$SHADEDGE
 70
3
  9
$SHADEDIF
 70
70
  9
$TILEMODE
 70
1
  9
$MAXACTVP
 70
64
  9
$PINSBASE
 10
0.0
 20
0.0
 30
0.0
  9
$PLIMCHECK
 70
0
  9
$PEXTMIN
 10
1e+20
 20
1e+20
 30
1e+20
  9
$PEXTMAX
 10
-1e+20
 20
-1e+20
 30
-1e+20
  9
$PLIMMIN
 10
0.0
 20
0.0
  9
$PLIMMAX
 10
420.0
 20
297.0
  9
$UNITMODE
 70
0
  9
$VISRETAIN
 70
1
  9
$PLINEGEN
 70
0
  9
$PSLTSCALE
 70
1
  9
$TREEDEPTH
 70
3020
  9
$CMLSTYLE
  2
Standard
  9
$CMLJUST
 70
0
  9
$CMLSCALE
 40
20.0
  9
$PROXYGRAPHICS
 70
1
  9
$MEASUREMENT
 70
1
  9
$CELWEIGHT
370
-1
  9
$ENDCAPS
280
0
  9
$JOINSTYLE
280
0
  9
$LWDISPLAY
290
0
  9
$INSUNITS
 70
4
  9
$HYPERLINKBASE
  1

  9
$STYLESHEET
  1

  9
$XEDIT
290
1
  9
$CEPSNTYPE
380
0
  9
$PSTYLEMODE
290
1
  9
$FINGERPRINTGUID
  2
{2066CDA1-9BEE-4481-ABB9-A91E384FF7EC}
  9
$VERSIONGUID
  2
{E797AFAF-5A74-447D-93A4-F7639F94975C}
  9
$EXTNAMES
290
1
  9
$PSVPSCALE
 40
0.0
  9
$OLESTARTUP
290
0
  9
$SORTENTS
280
127
  9
$INDEXCTL
280
0
  9
$HIDETEXT
280
1
  9
$XCLIPFRAME
280
1
  9
$HALOGAP
280
0
  9
$OBSCOLOR
 70
257
  9
$OBSLTYPE
280
0
  9
$INTERSECTIONDISPLAY
280
0
  9
$INTERSECTIONCOLOR
 70
257
  9
$DIMASSOC
280
2
  9
$PROJECTNAME
  1

  9
$CAMERADISPLAY
290
0
  9
$LENSLENGTH
 40
50.0
  9
$CAMERAHEIGHT
 40
0.0
  9
$STEPSPERSEC
 40
24.0
  9
$STEPSIZE
 40
100.0
  9
$3DDWFPREC
 40
2.0
  9
$PSOLWIDTH
 40
0.005
  9
$PSOLHEIGHT
 40
0.08
  9
$LOFTANG1
 40
1.570796326795
  9
$LOFTANG2
 40
1.570796326795
  9
$LOFTMAG1
 40
0.0
  9
$LOFTMAG2
 40
0.0
  9
$LOFTPARAM
 70
7
  9
$LOFTNORMALS
280
1
  9
$LATITUDE
 40
37.795
  9
$LONGITUDE
 40
-122.394
  9
$NORTHDIRECTION
 40
0.0
  9
$TIMEZONE
 70
-8000
  9
$LIGHTGLYPHDISPLAY
280
1
  9
$TILEMODELIGHTSYNCH
280
1
  9
$CMATERIAL
347
20
  9
$SOLIDHIST
280
0
  9
$SHOWHIST
280
1
  9
$DWFFRAME
280
2
  9
$DGNFRAME
280
2
  9
$REALWORLDSCALE
290
1
  9
$INTERFERECOLOR
 62
256
  9
$CSHADOW
280
0
  9
$SHADOWPLANELOCATION
 40
0.0
  0
ENDSEC
  0
SECTION
  2
CLASSES
  0
CLASS
  1
ACDBDICTIONARYWDFLT
  2
AcDbDictionaryWithDefault
  3
ObjectDBX Classes
 90
0
 91
0
280
0
281
0
  0
CLASS
  1
SUN
  2
AcDbSun
  3
SCENEOE
 90
1153
 91
0
280
0
281
0
  0
CLASS
  1
VISUALSTYLE
  2
AcDbVisualStyle
  3
ObjectDBX Classes
 90
4095
 91
0
280
0
281
0
  0
CLASS
  1
MATERIAL
  2
AcDbMaterial
  3
ObjectDBX Classes
 90
1153
 91
0
280
0
281
0
  0
CLASS
  1
SCALE
  2
AcDbScale
  3
ObjectDBX Classes
 90
1153
 91
0
280
0
281
0
  0
CLASS
  1
TABLESTYLE
  2
AcDbTableStyle
  3
ObjectDBX Classes
 90
4095
 91
0
280
0
281
0
  0
CLASS
  1
MLEADERSTYLE
  2
AcDbMLeaderStyle
  3
ACDB_MLEADERSTYLE_CLASS
 90
4095
 91
0
280
0
281
0
  0
CLASS
  1
DICTIONARYVAR
  2
AcDbDictionaryVar
  3
ObjectDBX Classes
 90
0
 91
0
280
0
281
0
  0
CLASS
  1
CELLSTYLEMAP
  2
AcDbCellStyleMap
  3
ObjectDBX Classes
 90
1152
 91
0
280
0
281
0
  0
CLASS
  1
MENTALRAYRENDERSETTINGS
  2
AcDbMentalRayRenderSettings
  3
SCENEOE
 90
1024
 91
0
280
0
281
0
  0
CLASS
  1
ACDBDETAILVIEWSTYLE
  2
AcDbDetailViewStyle
  3
ObjectDBX Classes
 90
1025
 91
0
280
0
281
0
  0
CLASS
  1
ACDBSECTIONVIEWSTYLE
  2
AcDbSectionViewStyle
  3
ObjectDBX Classes
 90
1025
 91
0
280
0
281
0
  0
CLASS
  1
RASTERVARIABLES
  2
AcDbRasterVariables
  3
ISM
 90
0
 91
0
280
0
281
0
  0
CLASS
  1
LAYOUT
  2
AcDbLayout
  3
ObjectDBX Classes
 90
0
 91
0
280
0
281
0
  0
CLASS
  1
ACDBPLACEHOLDER
  2
AcDbPlaceHolder
  3
ObjectDBX Classes
 90
0
 91
0
280
0
281
0
  0
ENDSEC
  0
SECTION
  2
TABLES
  0
TABLE
  2
VPORT
  5
8
330
0
100
AcDbSymbolTable
 70
1
  0
VPORT
  5
23
330
8
100
AcDbSymbolTableRecord
100
AcDbViewportTableRecord
  2
*Active
 70
0
 10
0.0
 20
0.0
 11
1.0
 21
1.0
 12
0.0
 22
0.0
 13
0.0
 23
0.0
 14
0.5
 24
0.5
 15
0.5
 25
0.5
 16
0.0
 26
0.0
 36
1.0
 17
0.0
 27
0.0
 37
0.0
 40
1000.0
 41
1.34
 42
50.0
 43
0.0
 44
0.0
 50
0.0
 51
0.0
 71
0
 72
1000
 73
1
 74
3
 75
0
 76
0
 77
0
 78
0
281
0
 65
0
146
0.0
  0
ENDTAB
  0
TABLE
  2
LTYPE
  5
2
330
0
100
AcDbSymbolTable
 70
5
  0
LTYPE
  5
24
330
2
100
AcDbSymbolTableRecord
100
AcDbLinetypeTableRecord
  2
ByBlock
 70
0
  3

 72
65
 73
0
 40
0.0
  0
LTYPE
  5
25
330
2
100
AcDbSymbolTableRecord
100
AcDbLinetypeTableRecord
  2
ByLayer
 70
0
  3

 72
65
 73
0
 40
0.0
  0
LTYPE
  5
26
330
2
100
AcDbSymbolTableRecord
100
AcDbLinetypeTableRecord
  2
Continuous
 70
0
  3

 72
65
 73
0
 40
0.0
  0
LTYPE
  5
2F
330
2
100
AcDbSymbolTableRecord
100
AcDbLinetypeTableRecord
  2
DASHED
 70
0
  3
Штриховая — — — —
 72
65
 73
2
 40
9.0
 49
6.0
 74
0
 49
-3.0
 74
0
  0
LTYPE
  5
30
330
2
100
AcDbSymbolTableRecord
100
AcDbLinetypeTableRecord
  2
DASHDOT
 70
0
  3
Штрихпунктирная — · — · —
 72
65
 73
4
 40
14.0
 49
8.0
 74
0
 49
-3.0
 74
0
 49
0.0
 74
0
 49
-3.0
 74
0
  0
ENDTAB
  0
TABLE
  2
LAYER
  5
1
330
0
100
AcDbSymbolTable
 70
10
  0
LAYER
  5
27
330
1
100
AcDbSymbolTableRecord
100
AcDbLayerTableRecord
  2
0
 70
0
 62
7
  6
Continuous
370
-3
390
13
347
21
  0
LAYER
  5
28
330
1
100
AcDbSymbolTableRecord
100
AcDbLayerTableRecord
  2
Defpoints
 70
0
 62
7
  6
Continuous
290
0
370
-3
390
13
347
21
  0
LAYER
  5
32
330
1
100
AcDbSymbolTableRecord
100
AcDbLayerTableRecord
  2
GAS
 70
0
 62
30
420
14712622
  6
Continuous
370
35
390
13
347
21
1001
AcAecLayerStandard
1000

1000
Газовый тракт (оранжевый)
  0
LAYER
  5
34
330
1
100
AcDbSymbolTableRecord
100
AcDbLayerTableRecord
  2
LIQUID
 70
0
 62
5
420
2783446
  6
Continuous
370
35
390
13
347
21
1001
AcAecLayerStandard
1000

1000
Жидкостные потоки: кислота, растворы, вода (синий)
  0
LAYER
  5
35
330
1
100
AcDbSymbolTableRecord
100
AcDbLayerTableRecord
  2
DUST
 70
0
 62
6
420
10702494
  6
Continuous
370
35
390
13
347
21
1001
AcAecLayerStandard
1000

1000
Пылевой тракт: циклоны, фильтры (фиолетовый)
  0
LAYER
  5
36
330
1
100
AcDbSymbolTableRecord
100
AcDbLayerTableRecord
  2
ELECTRIC
 70
0
 62
2
420
16429593
  6
Continuous
370
30
390
13
347
21
1001
AcAecLayerStandard
1000

1000
Электрика / энергоснабжение (жёлтый)
  0
LAYER
  5
37
330
1
100
AcDbSymbolTableRecord
100
AcDbLayerTableRecord
  2
INTERLOCK
 70
0
 62
1
420
13646651
  6
Continuous
370
30
390
13
347
21
1001
AcAecLayerStandard
1000

1000
Блокировки и защиты (красный)
  0
LAYER
  5
38
330
1
100
AcDbSymbolTableRecord
100
AcDbLayerTableRecord
  2
OUTLINE
 70
0
 62
7
  6
Continuous
370
25
390
13
347
21
1001
AcAecLayerStandard
1000

1000
Контуры оборудования, строительная графика (ink)
  0
LAYER
  5
39
330
1
100
AcDbSymbolTableRecord
100
AcDbLayerTableRecord
  2
TEXT_RU
 70
0
 62
7
  6
Continuous
370
25
390
13
347
21
1001
AcAecLayerStandard
1000

1000
Надписи (русские, UTF-8)
  0
LAYER
  5
3A
330
1
100
AcDbSymbolTableRecord
100
AcDbLayerTableRecord
  2
DIM
 70
0
 62
8
  6
Continuous
370
13
390
13
347
21
1001
AcAecLayerStandard
1000

1000
Размерные и вспомогательные линии, рамка, сетка
  0
ENDTAB
  0
TABLE
  2
STYLE
  5
5
330
0
100
AcDbSymbolTable
 70
2
  0
STYLE
  5
29
330
5
100
AcDbSymbolTableRecord
100
AcDbTextStyleTableRecord
  2
Standard
 70
0
 40
0.0
 41
1.0
 50
0.0
 71
0
 42
2.5
  3
txt
  4

  0
STYLE
  5
31
330
5
100
AcDbSymbolTableRecord
100
AcDbTextStyleTableRecord
  2
TXTRU
 70
0
 40
0.0
 41
1.0
 50
0.0
 71
0
 42
2.5
  3
arial.ttf
  4

  0
ENDTAB
  0
TABLE
  2
VIEW
  5
7
330
0
100
AcDbSymbolTable
 70
0
  0
ENDTAB
  0
TABLE
  2
UCS
  5
6
330
0
100
AcDbSymbolTable
 70
0
  0
ENDTAB
  0
TABLE
  2
APPID
  5
3
330
0
100
AcDbSymbolTable
 70
4
  0
APPID
  5
2A
330
3
100
AcDbSymbolTableRecord
100
AcDbRegAppTableRecord
  2
ACAD
 70
0
  0
APPID
  5
33
330
3
100
AcDbSymbolTableRecord
100
AcDbRegAppTableRecord
  2
AcAecLayerStandard
 70
0
  0
APPID
  5
EC
330
3
100
AcDbSymbolTableRecord
100
AcDbRegAppTableRecord
  2
HATCHBACKGROUNDCOLOR
 70
0
  0
APPID
  5
ED
330
3
100
AcDbSymbolTableRecord
100
AcDbRegAppTableRecord
  2
EZDXF
 70
0
  0
ENDTAB
  0
TABLE
  2
DIMSTYLE
  5
4
330
0
100
AcDbSymbolTable
 70
1
100
AcDbDimStyleTable
  0
DIMSTYLE
105
2B
330
4
100
AcDbSymbolTableRecord
100
AcDbDimStyleTableRecord
  2
Standard
 70
0
 40
1.0
 41
2.5
 42
0.625
 43
3.75
 44
1.25
 45
0.0
 46
0.0
 47
0.0
 48
0.0
 49
2.5
140
2.5
141
2.5
142
0.0
143
0.03937007874
144
1.0
145
0.0
146
1.0
147
0.625
148
0.0
 69
0
 70
0
 71
0
 72
0
 73
0
 74
0
 75
0
 76
0
 77
1
 78
8
 79
3
170
0
171
3
172
1
173
0
174
0
175
0
176
0
177
0
178
0
179
2
271
2
272
2
273
2
274
3
275
0
276
0
277
2
278
44
279
0
280
0
281
0
282
0
283
0
284
8
285
0
286
0
288
0
289
3
290
0
371
-2
372
-2
  0
ENDTAB
  0
TABLE
  2
BLOCK_RECORD
  5
9
330
0
100
AcDbSymbolTable
 70
2
  0
BLOCK_RECORD
  5
17
330
9
100
AcDbSymbolTableRecord
100
AcDbBlockTableRecord
  2
*Model_Space
340
1A
 70
0
280
1
281
0
  0
BLOCK_RECORD
  5
1B
330
9
100
AcDbSymbolTableRecord
100
AcDbBlockTableRecord
  2
*Paper_Space
340
1E
 70
0
280
1
281
0
  0
ENDTAB
  0
ENDSEC
  0
SECTION
  2
BLOCKS
  0
BLOCK
  5
18
330
17
100
AcDbEntity
  8
0
100
AcDbBlockBegin
  2
*Model_Space
 70
0
 10
0.0
 20
0.0
 30
0.0
  3
*Model_Space
  1

  0
ENDBLK
  5
19
330
17
100
AcDbEntity
  8
0
100
AcDbBlockEnd
  0
BLOCK
  5
1C
330
1B
100
AcDbEntity
  8
0
100
AcDbBlockBegin
  2
*Paper_Space
 70
0
 10
0.0
 20
0.0
 30
0.0
  3
*Paper_Space
  1

  0
ENDBLK
  5
1D
330
1B
100
AcDbEntity
  8
0
100
AcDbBlockEnd
  0
ENDSEC
  0
SECTION
  2
ENTITIES
  0
LWPOLYLINE
  5
3B
330
17
100
AcDbEntity
  8
DIM
420
15198183
100
AcDbPolyline
 90
4
 70
1
 10
6.0
 20
634.0
 10
1184.0
 20
634.0
 10
1184.0
 20
6.0
 10
6.0
 20
6.0
  0
TEXT
  5
3C
330
17
100
AcDbEntity
  8
TEXT_RU
100
AcDbText
 10
20.0
 20
16.0
 30
0.0
 40
7.0
  1
ЭСКИЗ — не для строительства · P&ID контура циркуляции электролита (отделение ЭЭ, Лот №3) · источники: ИД ч.2 табл. 3.1/4.2, п. 4.2.1–4.2.2, прил. В; решения БИ · КВАНТ, черновик БИ
  7
TXTRU
 11
20.0
 21
16.0
 31
0.0
100
AcDbText
  0
TEXT
  5
3D
330
17
100
AcDbEntity
  8
TEXT_RU
100
AcDbText
 10
1174.0
 20
612.0
 30
0.0
 40
8.4
  1
P&ID (ЭСКИЗ) · ЛОТ №3 — КОНТУР ЦИРКУЛЯЦИИ ЭЛЕКТРОЛИТА
  7
TXTRU
 72
2
 11
1174.0
 21
612.0
 31
0.0
100
AcDbText
  0
LWPOLYLINE
  5
3E
330
17
100
AcDbEntity
  8
ELECTRIC
  6
DASHED
100
AcDbPolyline
 90
8
 70
1
 10
502.0
 20
585.0
 10
688.0
 20
585.0
 42
0.4142135623731064
 10
695.0
 20
578.0
 10
695.0
 20
512.0
 42
0.4142135623731064
 10
688.0
 20
505.0
 10
502.0
 20
505.0
 42
0.41421356237309837
 10
495.0
 20
512.0
 10
495.0
 20
578.0
 42
0.41421356237309837
  0
TEXT
  5
3F
330
17
100
AcDbEntity
  8
TEXT_RU
100
AcDbText
 10
595.0
 20
568.0
 30
0.0
 40
8.05
  1
ВЫПРЯМИТЕЛЬНЫЕ АГРЕГАТЫ
  7
TXTRU
 72
1
 11
595.0
 21
568.0
 31
0.0
100
AcDbText
  0
TEXT
  5
40
330
17
100
AcDbEntity
  8
TEXT_RU
100
AcDbText
 10
595.0
 20
554.0
 30
0.0
 40
6.65
  1
на каждую серию · вне БИ (стык)
  7
TXTRU
 72
1
 11
595.0
 21
554.0
 31
0.0
100
AcDbText
  0
TEXT
  5
41
330
17
100
AcDbEntity
  8
TEXT_RU
100
AcDbText
 10
595.0
 20
542.0
 30
0.0
 40
6.65
  1
I ≤ 47,0 кА · U серии ≤ 225 В
  7
TXTRU
 72
1
 11
595.0
 21
542.0
 31
0.0
100
AcDbText
  0
TEXT
  5
42
330
17
100
AcDbEntity
  8
TEXT_RU
100
AcDbText
 10
595.0
 20
530.0
 30
0.0
 40
6.65
  1
задание от АСУ · Modbus TCP
  7
TXTRU
 72
1
 11
595.0
 21
530.0
 31
0.0
100
AcDbText
  0
LWPOLYLINE
  5
43
330
17
100
AcDbEntity
  8
LIQUID
100
AcDbPolyline
 90
8
 70
1
 10
157.0
 20
585.0
 10
393.0
 20
585.0
 42
0.41421356237309837
 10
400.0
 20
578.0
 10
400.0
 20
512.0
 42
0.41421356237309837
 10
393.0
 20
505.0
 10
157.0
 20
505.0
 42
0.4142135623731024
 10
150.0
 20
512.0
 10
150.0
 20
578.0
 42
0.4142135623731024
  0
TEXT
  5
44
330
17
100
AcDbEntity
  8
TEXT_RU
100
AcDbText
 10
275.0
 20
568.0
 30
0.0
 40
8.05
  1
СЕРИЯ 1 — 90 ВАНН
  7
TXTRU
 72
1
 11
275.0
 21
568.0
 31
0.0
100
AcDbText
  0
TEXT
  5
45
330
17
100
AcDbEntity
  8
TEXT_RU
100
AcDbText
 10
275.0
 20
554.0
 30
0.0
 40
6.65
  1
питание 800–825 м³/ч · 48,2 °С
  7
TXTRU
 72
1
 11
275.0
 21
554.0
 31
0.0
100
AcDbText
  0
TEXT
  5
46
330
17
100
AcDbEntity
  8
TEXT_RU
100
AcDbText
 10
275.0
 20
542.0
 30
0.0
 40
6.65
  1
нагрев до 50 °С (коридор 50 ± 2 °С)
  7
TXTRU
 72
1
 11
275.0
 21
542.0
 31
0.0
100
AcDbText
  0
TEXT
  5
47
330
17
100
AcDbEntity
  8
TEXT_RU
100
AcDbText
 10
275.0
 20
530.0
 30
0.0
 40
6.65
  1
9,1 м³/ч на ванну · съём Cu 5 кг/м³
  7
TXTRU
 72
1
 11
275.0
 21
530.0
 31
0.0
100
AcDbText
  0
LWPOLYLINE
  5
48
330
17
100
AcDbEntity
  8
LIQUID
100
AcDbPolyline
 90
8
 70
1
 10
797.0
 20
585.0
 10
1033.0
 20
585.0
 42
0.4142135623730902
 10
1040.0
 20
578.0
 10
1040.0
 20
512.0
 42
0.4142135623730902
 10
1033.0
 20
505.0
 10
797.0
 20
505.0
 42
0.4142135623731064
 10
790.0
 20
512.0
 10
790.0
 20
578.0
 42
0.4142135623731064
  0
TEXT
  5
49
330
17
100
AcDbEntity
  8
TEXT_RU
100
AcDbText
 10
915.0
 20
568.0
 30
0.0
 40
8.05
  1
СЕРИЯ 2 — 90 ВАНН
  7
TXTRU
 72
1
 11
915.0
 21
568.0
 31
0.0
100
AcDbText
  0
TEXT
  5
4A
330
17
100
AcDbEntity
  8
TEXT_RU
100
AcDbText
 10
915.0
 20
554.0
 30
0.0
 40
6.65
  1
питание 800–825 м³/ч · 48,2 °С
  7
TXTRU
 72
1
 11
915.0
 21
554.0
 31
0.0
100
AcDbText
  0
TEXT
  5
4B
330
17
100
AcDbEntity
  8
TEXT_RU
100
AcDbText
 10
915.0
 20
542.0
 30
0.0
 40
6.65
  1
схема аналогична серии 1
  7
TXTRU
 72
1
 11
915.0
 21
542.0
 31
0.0
100
AcDbText
  0
TEXT
  5
4C
330
17
100
AcDbEntity
  8
TEXT_RU
100
AcDbText
 10
915.0
 20
530.0
 30
0.0
 40
6.65
  1
(КИПиА показаны на серии 1)
  7
TXTRU
 72
1
 11
915.0
 21
530.0
 31
0.0
100
AcDbText
  0
LINE
  5
4D
330
17
100
AcDbEntity
  8
ELECTRIC
100
AcDbLine
 10
495.0
 20
552.0
 30
0.0
 11
406.0
 21
552.0
 31
0.0
  0
SOLID
  5
4E
330
17
100
AcDbEntity
  8
ELECTRIC
100
AcDbTrace
 10
422.0
 20
544.0
 30
0.0
 11
404.0
 21
552.0
 31
0.0
 12
422.0
 22
560.0
 32
0.0
 13
422.0
 23
560.0
 33
0.0
  0
TEXT
  5
4F
330
17
100
AcDbEntity
  8
TEXT_RU
420
16429593
100
AcDbText
 10
449.0
 20
558.0
 30
0.0
 40
5.95
  1
ток серии
  7
TXTRU
 72
1
 11
449.0
 21
558.0
 31
0.0
100
AcDbText
  0
LINE
  5
50
330
17
100
AcDbEntity
  8
ELECTRIC
100
AcDbLine
 10
695.0
 20
552.0
 30
0.0
 11
784.0
 21
552.0
 31
0.0
  0
SOLID
  5
51
330
17
100
AcDbEntity
  8
ELECTRIC
100
AcDbTrace
 10
768.0
 20
560.0
 30
0.0
 11
786.0
 21
552.0
 31
0.0
 12
768.0
 22
544.0
 32
0.0
 13
768.0
 23
544.0
 33
0.0
  0
TEXT
  5
52
330
17
100
AcDbEntity
  8
TEXT_RU
420
16429593
100
AcDbText
 10
741.0
 20
558.0
 30
0.0
 40
5.95
  1
ток серии
  7
TXTRU
 72
1
 11
741.0
 21
558.0
 31
0.0
100
AcDbText
  0
LINE
  5
53
330
17
100
AcDbEntity
  8
DIM
  6
DASHED
100
AcDbLine
 10
595.0
 20
498.0
 30
0.0
 11
595.0
 21
505.0
 31
0.0
  0
LINE
  5
54
330
17
100
AcDbEntity
  8
DIM
  6
DASHED
100
AcDbLine
 10
582.0
 20
489.0
 30
0.0
 11
404.0
 21
528.0
 31
0.0
  0
LINE
  5
55
330
17
100
AcDbEntity
  8
DIM
  6
DASHED
100
AcDbLine
 10
608.0
 20
489.0
 30
0.0
 11
786.0
 21
528.0
 31
0.0
  0
CIRCLE
  5
56
330
17
100
AcDbEntity
  8
OUTLINE
100
AcDbCircle
 10
595.0
 20
482.0
 30
0.0
 40
15.0
  0
TEXT
  5
57
330
17
100
AcDbEntity
  8
TEXT_RU
100
AcDbText
 10
595.0
 20
483.5
 30
0.0
 40
5.6
  1
JIC
  7
TXTRU
 72
1
 11
595.0
 21
483.5
 31
0.0
100
AcDbText
  0
TEXT
  5
58
330
17
100
AcDbEntity
  8
TEXT_RU
100
AcDbText
 10
595.0
 20
473.0
 30
0.0
 40
5.6
  1
08
  7
TXTRU
 72
1
 11
595.0
 21
473.0
 31
0.0
100
AcDbText
  0
TEXT
  5
59
330
17
100
AcDbEntity
  8
TEXT_RU
100
AcDbText
 10
466.0
 20
518.0
 30
0.0
 40
5.6
  1
U 90 ванн
  7
TXTRU
 72
1
 11
466.0
 21
518.0
 31
0.0
100
AcDbText
  0
TEXT
  5
5A
330
17
100
AcDbEntity
  8
TEXT_RU
100
AcDbText
 10
726.0
 20
518.0
 30
0.0
 40
5.6
  1
U 90 ванн
  7
TXTRU
 72
1
 11
726.0
 21
518.0
 31
0.0
100
AcDbText
  0
LWPOLYLINE
  5
5B
330
17
100
AcDbEntity
  8
LIQUID
100
AcDbPolyline
 90
4
 70
0
 10
370.0
 20
505.0
 10
370.0
 20
435.0
 10
530.0
 20
435.0
 10
530.0
 20
409.0
  0
SOLID
  5
5C
330
17
100
AcDbEntity
  8
LIQUID
100
AcDbTrace
 10
537.2
 20
423.4
 30
0.0
 11
530.0
 21
407.2
 31
0.0
 12
522.8
 22
423.4
 32
0.0
 13
522.8
 23
423.4
 33
0.0
  0
LWPOLYLINE
  5
5D
330
17
100
AcDbEntity
  8
LIQUID
100
AcDbPolyline
 90
4
 70
0
 10
920.0
 20
505.0
 10
920.0
 20
435.0
 10
660.0
 20
435.0
 10
660.0
 20
409.0
  0
SOLID
  5
5E
330
17
100
AcDbEntity
  8
LIQUID
100
AcDbTrace
 10
667.2
 20
423.4
 30
0.0
 11
660.0
 21
407.2
 31
0.0
 12
652.8
 22
423.4
 32
0.0
 13
652.8
 23
423.4
 33
0.0
  0
TEXT
  5
5F
330
17
100
AcDbEntity
  8
TEXT_RU
420
2783446
100
AcDbText
 10
450.0
 20
441.0
 30
0.0
 40
6.51
  1
бедный электролит — самотёк
  7
TXTRU
 72
1
 11
450.0
 21
441.0
 31
0.0
100
AcDbText
  0
TEXT
  5
60
330
17
100
AcDbEntity
  8
TEXT_RU
420
2783446
100
AcDbText
 10
792.0
 20
441.0
 30
0.0
 40
6.51
  1
1600–1650 м³/ч (обе серии)
  7
TXTRU
 72
1
 11
792.0
 21
441.0
 31
0.0
100
AcDbText
  0
LINE
  5
61
330
17
100
AcDbEntity
  8
ELECTRIC
100
AcDbLine
 10
362.0
 20
478.0
 30
0.0
 11
378.0
 21
478.0
 31
0.0
  0
LINE
  5
62
330
17
100
AcDbEntity
  8
ELECTRIC
100
AcDbLine
 10
362.0
 20
472.0
 30
0.0
 11
378.0
 21
472.0
 31
0.0
  0
TEXT
  5
63
330
17
100
AcDbEntity
  8
TEXT_RU
420
16429593
100
AcDbText
 10
382.0
 20
472.0
 30
0.0
 40
5.6
  1
ЭР
  7
TXTRU
 11
382.0
 21
472.0
 31
0.0
100
AcDbText
  0
LINE
  5
64
330
17
100
AcDbEntity
  8
ELECTRIC
100
AcDbLine
 10
912.0
 20
478.0
 30
0.0
 11
928.0
 21
478.0
 31
0.0
  0
LINE
  5
65
330
17
100
AcDbEntity
  8
ELECTRIC
100
AcDbLine
 10
912.0
 20
472.0
 30
0.0
 11
928.0
 21
472.0
 31
0.0
  0
TEXT
  5
66
330
17
100
AcDbEntity
  8
TEXT_RU
420
16429593
100
AcDbText
 10
932.0
 20
472.0
 30
0.0
 40
5.6
  1
ЭР
  7
TXTRU
 11
932.0
 21
472.0
 31
0.0
100
AcDbText
  0
LWPOLYLINE
  5
67
330
17
100
AcDbEntity
  8
LIQUID
100
AcDbPolyline
 90
8
 70
1
 10
486.0
 20
405.0
 10
704.0
 20
405.0
 42
0.4142135623731064
 10
711.0
 20
398.0
 10
711.0
 20
332.0
 42
0.41421356237309837
 10
704.0
 20
325.0
 10
486.0
 20
325.0
 42
0.4142135623730902
 10
479.0
 20
332.0
 10
479.0
 20
398.0
 42
0.41421356237309837
  0
TEXT
  5
68
330
17
100
AcDbEntity
  8
TEXT_RU
100
AcDbText
 10
595.0
 20
388.0
 30
0.0
 40
8.05
  1
ЦИРКУЛЯЦИОННЫЕ БАКИ
  7
TXTRU
 72
1
 11
595.0
 21
388.0
 31
0.0
100
AcDbText
  0
TEXT
  5
69
330
17
100
AcDbEntity
  8
TEXT_RU
100
AcDbText
 10
595.0
 20
374.0
 30
0.0
 40
6.65
  1
2 × 300 м³ (запас 1,25 · 0,25 ч)
  7
TXTRU
 72
1
 11
595.0
 21
374.0
 31
0.0
100
AcDbText
  0
TEXT
  5
6A
330
17
100
AcDbEntity
  8
TEXT_RU
100
AcDbText
 10
595.0
 20
362.0
 30
0.0
 40
6.65
  1
приём промвод, H2SO4 и воды по балансу
  7
TXTRU
 72
1
 11
595.0
 21
362.0
 31
0.0
100
AcDbText
  0
TEXT
  5
6B
330
17
100
AcDbEntity
  8
TEXT_RU
100
AcDbText
 10
595.0
 20
350.0
 30
0.0
 40
6.65
  1
LIC: LL — стоп насосов (сухой ход)
  7
TXTRU
 72
1
 11
595.0
 21
350.0
 31
0.0
100
AcDbText
  0
LWPOLYLINE
  5
6C
330
17
100
AcDbEntity
  8
OUTLINE
420
828172
100
AcDbPolyline
 90
8
 70
1
 10
175.0
 20
390.0
 10
315.0
 20
390.0
 42
0.41421356237309837
 10
322.0
 20
383.0
 10
322.0
 20
331.0
 42
0.4142135623730902
 10
315.0
 20
324.0
 10
175.0
 20
324.0
 42
0.4142135623730943
 10
168.0
 20
331.0
 10
168.0
 20
383.0
 42
0.4142135623731024
  0
TEXT
  5
6D
330
17
100
AcDbEntity
  8
TEXT_RU
100
AcDbText
 10
245.0
 20
373.0
 30
0.0
 40
8.05
  1
БОГАТЫЙ ФИЛЬТРАТ
  7
TXTRU
 72
1
 11
245.0
 21
373.0
 31
0.0
100
AcDbText
  0
TEXT
  5
6E
330
17
100
AcDbEntity
  8
TEXT_RU
100
AcDbText
 10
245.0
 20
359.0
 30
0.0
 40
6.65
  1
контрольная фильтрация
  7
TXTRU
 72
1
 11
245.0
 21
359.0
 31
0.0
100
AcDbText
  0
TEXT
  5
6F
330
17
100
AcDbEntity
  8
TEXT_RU
100
AcDbText
 10
245.0
 20
347.0
 30
0.0
 40
6.65
  1
124–125 м³/ч · 65–75 °С
  7
TXTRU
 72
1
 11
245.0
 21
347.0
 31
0.0
100
AcDbText
  0
TEXT
  5
70
330
17
100
AcDbEntity
  8
TEXT_RU
100
AcDbText
 10
245.0
 20
335.0
 30
0.0
 40
6.65
  1
102,9 кг/м³ Cu
  7
TXTRU
 72
1
 11
245.0
 21
335.0
 31
0.0
100
AcDbText
  0
LINE
  5
71
330
17
100
AcDbEntity
  8
LIQUID
100
AcDbLine
 10
322.0
 20
357.0
 30
0.0
 11
475.0
 21
357.0
 31
0.0
  0
SOLID
  5
72
330
17
100
AcDbEntity
  8
LIQUID
100
AcDbTrace
 10
460.6
 20
364.2
 30
0.0
 11
476.8
 21
357.0
 31
0.0
 12
460.6
 22
349.8
 32
0.0
 13
460.6
 23
349.8
 33
0.0
  0
TEXT
  5
73
330
17
100
AcDbEntity
  8
TEXT_RU
420
2783446
100
AcDbText
 10
399.0
 20
363.0
 30
0.0
 40
6.51
  1
вход в контур
  7
TXTRU
 72
1
 11
399.0
 21
363.0
 31
0.0
100
AcDbText
  0
TEXT
  5
74
330
17
100
AcDbEntity
  8
TEXT_RU
100
AcDbText
 10
399.0
 20
343.0
 30
0.0
 40
5.95
  1
(через т/о поз. 4.1.17, вне БИ)
  7
TXTRU
 72
1
 11
399.0
 21
343.0
 31
0.0
100
AcDbText
  0
LINE
  5
75
330
17
100
AcDbEntity
  8
LIQUID
100
AcDbLine
 10
595.0
 20
325.0
 30
0.0
 11
595.0
 21
212.0
 31
0.0
  0
SOLID
  5
76
330
17
100
AcDbEntity
  8
LIQUID
100
AcDbTrace
 10
602.2
 20
226.39999999999998
 30
0.0
 11
595.0
 21
210.2
 31
0.0
 12
587.8
 22
226.39999999999998
 32
0.0
 13
587.8
 23
226.39999999999998
 33
0.0
  0
LWPOLYLINE
  5
77
330
17
100
AcDbEntity
  8
OUTLINE
420
828172
100
AcDbPolyline
 90
8
 70
1
 10
512.0
 20
210.0
 10
678.0
 20
210.0
 42
0.41421356237309837
 10
685.0
 20
203.0
 10
685.0
 20
155.0
 42
0.41421356237309837
 10
678.0
 20
148.0
 10
512.0
 20
148.0
 42
0.4142135623730902
 10
505.0
 20
155.0
 10
505.0
 20
203.0
 42
0.4142135623730902
  0
TEXT
  5
78
330
17
100
AcDbEntity
  8
TEXT_RU
100
AcDbText
 10
595.0
 20
193.0
 30
0.0
 40
8.05
  1
НА ВЫЩЕЛАЧИВАНИЕ
  7
TXTRU
 72
1
 11
595.0
 21
193.0
 31
0.0
100
AcDbText
  0
TEXT
  5
79
330
17
100
AcDbEntity
  8
TEXT_RU
100
AcDbText
 10
595.0
 20
179.0
 30
0.0
 40
6.65
  1
отсечка 124,7 м³/ч (1038 тыс. м³/год)
  7
TXTRU
 72
1
 11
595.0
 21
179.0
 31
0.0
100
AcDbText
  0
TEXT
  5
7A
330
17
100
AcDbEntity
  8
TEXT_RU
100
AcDbText
 10
595.0
 20
167.0
 30
0.0
 40
6.65
  1
+ купорос 3,2–3,5 м³/ч
  7
TXTRU
 72
1
 11
595.0
 21
167.0
 31
0.0
100
AcDbText
  0
LWPOLYLINE
  5
7B
330
17
100
AcDbEntity
  8
LIQUID
100
AcDbPolyline
 90
3
 70
0
 10
530.0
 20
325.0
 10
530.0
 20
257.0
 10
468.0
 20
257.0
  0
CIRCLE
  5
7C
330
17
100
AcDbEntity
  8
OUTLINE
  6
DASHED
100
AcDbCircle
 10
455.0
 20
257.0
 30
0.0
 40
13.0
  0
HATCH
  5
7D
330
17
100
AcDbEntity
  8
OUTLINE
 62
7
100
AcDbHatch
 10
0.0
 20
0.0
 30
0.0
210
0.0
220
0.0
230
1.0
  2
SOLID
 70
1
 71
0
 91
1
 92
3
 72
0
 73
1
 93
3
 10
461.0
 20
264.0
 10
461.0
 20
250.0
 10
447.0
 20
257.0
 97
0
 75
0
 76
1
 98
0
  0
TEXT
  5
7E
330
17
100
AcDbEntity
  8
TEXT_RU
100
AcDbText
 10
412.0
 20
235.0
 30
0.0
 40
5.95
  1
циркнасос, ЧРП
  7
TXTRU
 72
1
 11
412.0
 21
235.0
 31
0.0
100
AcDbText
  0
TEXT
  5
7F
330
17
100
AcDbEntity
  8
TEXT_RU
100
AcDbText
 10
412.0
 20
224.0
 30
0.0
 40
5.95
  1
(вне БИ — стык)
  7
TXTRU
 72
1
 11
412.0
 21
224.0
 31
0.0
100
AcDbText
  0
LINE
  5
80
330
17
100
AcDbEntity
  8
LIQUID
100
AcDbLine
 10
442.0
 20
257.0
 30
0.0
 11
370.0
 21
257.0
 31
0.0
  0
LWPOLYLINE
  5
81
330
17
100
AcDbEntity
  8
GAS
  6
DASHED
100
AcDbPolyline
 90
8
 70
1
 10
197.0
 20
290.0
 10
363.0
 20
290.0
 42
0.4142135623730902
 10
370.0
 20
283.0
 10
370.0
 20
231.0
 42
0.4142135623730902
 10
363.0
 20
224.0
 10
197.0
 20
224.0
 42
0.4142135623730943
 10
190.0
 20
231.0
 10
190.0
 20
283.0
 42
0.4142135623730943
  0
TEXT
  5
82
330
17
100
AcDbEntity
  8
TEXT_RU
100
AcDbText
 10
280.0
 20
273.0
 30
0.0
 40
8.05
  1
ХОЛОДИЛЬНИК СЕРИИ 1
  7
TXTRU
 72
1
 11
280.0
 21
273.0
 31
0.0
100
AcDbText
  0
TEXT
  5
83
330
17
100
AcDbEntity
  8
TEXT_RU
100
AcDbText
 10
280.0
 20
259.0
 30
0.0
 40
6.65
  1
пластинчатый 2500 кВт (2 × 2500)
  7
TXTRU
 72
1
 11
280.0
 21
259.0
 31
0.0
100
AcDbText
  0
TEXT
  5
84
330
17
100
AcDbEntity
  8
TEXT_RU
100
AcDbText
 10
280.0
 20
247.0
 30
0.0
 40
6.65
  1
Q = 3772 ≈ 3780 кВт сумм.
  7
TXTRU
 72
1
 11
280.0
 21
247.0
 31
0.0
100
AcDbText
  0
TEXT
  5
85
330
17
100
AcDbEntity
  8
TEXT_RU
100
AcDbText
 10
280.0
 20
235.0
 30
0.0
 40
6.65
  1
вне БИ — задание смежному
  7
TXTRU
 72
1
 11
280.0
 21
235.0
 31
0.0
100
AcDbText
  0
LINE
  5
86
330
17
100
AcDbEntity
  8
LIQUID
100
AcDbLine
 10
190.0
 20
257.0
 30
0.0
 11
142.0
 21
257.0
 31
0.0
  0
LWPOLYLINE
  5
87
330
17
100
AcDbEntity
  8
LIQUID
100
AcDbPolyline
 90
3
 70
0
 10
142.0
 20
257.0
 10
142.0
 20
548.0
 10
146.0
 20
548.0
  0
SOLID
  5
88
330
17
100
AcDbEntity
  8
LIQUID
100
AcDbTrace
 10
131.6
 20
555.2
 30
0.0
 11
147.8
 21
548.0
 31
0.0
 12
131.6
 22
540.8
 32
0.0
 13
131.6
 23
540.8
 33
0.0
  0
TEXT
  5
89
330
17
100
AcDbEntity
  8
TEXT_RU
100
AcDbText
 10
130.0
 20
406.0
 30
0.0
 40
5.95
  1
коллектор DN300–350
 50
90.0
  7
TXTRU
 72
1
 11
130.0
 21
406.0
 31
0.0
100
AcDbText
  0
LINE
  5
8A
330
17
100
AcDbEntity
  8
ELECTRIC
100
AcDbLine
 10
134.0
 20
523.0
 30
0.0
 11
150.0
 21
523.0
 31
0.0
  0
LINE
  5
8B
330
17
100
AcDbEntity
  8
ELECTRIC
100
AcDbLine
 10
134.0
 20
517.0
 30
0.0
 11
150.0
 21
517.0
 31
0.0
  0
TEXT
  5
8C
330
17
100
AcDbEntity
  8
TEXT_RU
420
16429593
100
AcDbText
 10
122.0
 20
517.0
 30
0.0
 40
5.6
  1
ЭР
  7
TXTRU
 72
2
 11
122.0
 21
517.0
 31
0.0
100
AcDbText
  0
LINE
  5
8D
330
17
100
AcDbEntity
  8
OUTLINE
100
AcDbLine
 10
125.0
 20
472.0
 30
0.0
 11
142.0
 21
472.0
 31
0.0
  0
CIRCLE
  5
8E
330
17
100
AcDbEntity
  8
OUTLINE
100
AcDbCircle
 10
110.0
 20
472.0
 30
0.0
 40
15.0
  0
TEXT
  5
8F
330
17
100
AcDbEntity
  8
TEXT_RU
100
AcDbText
 10
110.0
 20
473.5
 30
0.0
 40
5.6
  1
FIC
  7
TXTRU
 72
1
 11
110.0
 21
473.5
 31
0.0
100
AcDbText
  0
TEXT
  5
90
330
17
100
AcDbEntity
  8
TEXT_RU
100
AcDbText
 10
110.0
 20
463.0
 30
0.0
 40
5.6
  1
01
  7
TXTRU
 72
1
 11
110.0
 21
463.0
 31
0.0
100
AcDbText
  0
LWPOLYLINE
  5
91
330
17
100
AcDbEntity
  8
DIM
  6
DASHED
100
AcDbPolyline
 90
6
 70
0
 10
110.0
 20
457.0
 10
110.0
 20
445.0
 10
85.0
 20
445.0
 10
85.0
 20
305.0
 10
455.0
 20
305.0
 10
455.0
 20
270.0
  0
LWPOLYLINE
  5
92
330
17
100
AcDbEntity
  8
INTERLOCK
  6
DASHED
100
AcDbPolyline
 90
4
 70
0
 10
110.0
 20
487.0
 10
110.0
 20
497.0
 10
560.0
 20
497.0
 10
577.0
 20
488.0
  0
SOLID
  5
93
330
17
100
AcDbEntity
  8
INTERLOCK
100
AcDbTrace
 10
570.2416218161695
 20
497.46172945736265
 30
0.0
 11
578.1489242912512
 21
487.39174596345526
 31
0.0
 12
565.3755895238116
 22
488.27033512735323
 32
0.0
 13
565.3755895238116
 23
488.27033512735323
 33
0.0
  0
TEXT
  5
94
330
17
100
AcDbEntity
  8
TEXT_RU
420
13646651
100
AcDbText
 10
150.0
 20
483.0
 30
0.0
 40
5.95
  1
блокировка: потеря циркуляции → снижение тока серии
  7
TXTRU
 11
150.0
 21
483.0
 31
0.0
100
AcDbText
  0
LINE
  5
95
330
17
100
AcDbEntity
  8
OUTLINE
100
AcDbLine
 10
125.0
 20
340.0
 30
0.0
 11
142.0
 21
340.0
 31
0.0
  0
CIRCLE
  5
96
330
17
100
AcDbEntity
  8
OUTLINE
100
AcDbCircle
 10
110.0
 20
340.0
 30
0.0
 40
15.0
  0
TEXT
  5
97
330
17
100
AcDbEntity
  8
TEXT_RU
100
AcDbText
 10
110.0
 20
341.5
 30
0.0
 40
5.6
  1
TIC
  7
TXTRU
 72
1
 11
110.0
 21
341.5
 31
0.0
100
AcDbText
  0
TEXT
  5
98
330
17
100
AcDbEntity
  8
TEXT_RU
100
AcDbText
 10
110.0
 20
331.0
 30
0.0
 40
5.6
  1
03
  7
TXTRU
 72
1
 11
110.0
 21
331.0
 31
0.0
100
AcDbText
  0
LWPOLYLINE
  5
99
330
17
100
AcDbEntity
  8
DIM
  6
DASHED
100
AcDbPolyline
 90
3
 70
0
 10
110.0
 20
325.0
 10
110.0
 20
203.0
 10
240.0
 20
203.0
  0
LINE
  5
9A
330
17
100
AcDbEntity
  8
GAS
100
AcDbLine
 10
250.0
 20
170.0
 30
0.0
 11
250.0
 21
194.0
 31
0.0
  0
LINE
  5
9B
330
17
100
AcDbEntity
  8
GAS
100
AcDbLine
 10
250.0
 20
210.0
 30
0.0
 11
250.0
 21
219.0
 31
0.0
  0
LINE
  5
9C
330
17
100
AcDbEntity
  8
GAS
100
AcDbLine
 10
250.0
 20
216.0
 30
0.0
 11
250.0
 21
221.0
 31
0.0
  0
SOLID
  5
9D
330
17
100
AcDbEntity
  8
GAS
100
AcDbTrace
 10
243.6
 20
208.2
 30
0.0
 11
250.0
 21
222.60000000000002
 31
0.0
 12
256.4
 22
208.2
 32
0.0
 13
256.4
 23
208.2
 33
0.0
  0
LWPOLYLINE
  5
9E
330
17
100
AcDbEntity
  8
GAS
100
AcDbPolyline
 90
3
 70
1
 10
244.0
 20
209.0
 10
256.0
 20
202.0
 10
244.0
 20
195.0
  0
LWPOLYLINE
  5
9F
330
17
100
AcDbEntity
  8
GAS
100
AcDbPolyline
 90
3
 70
1
 10
256.0
 20
209.0
 10
244.0
 20
202.0
 10
256.0
 20
195.0
  0
LINE
  5
A0
330
17
100
AcDbEntity
  8
GAS
100
AcDbLine
 10
305.0
 20
224.0
 30
0.0
 11
305.0
 21
172.0
 31
0.0
  0
SOLID
  5
A1
330
17
100
AcDbEntity
  8
GAS
100
AcDbTrace
 10
311.4
 20
184.8
 30
0.0
 11
305.0
 21
170.39999999999998
 31
0.0
 12
298.6
 22
184.8
 32
0.0
 13
298.6
 23
184.8
 33
0.0
  0
TEXT
  5
A2
330
17
100
AcDbEntity
  8
TEXT_RU
420
14712622
100
AcDbText
 10
278.0
 20
157.0
 30
0.0
 40
5.95
  1
подача 22,5 °С · возврат 37,5 °С
  7
TXTRU
 72
1
 11
278.0
 21
157.0
 31
0.0
100
AcDbText
  0
TEXT
  5
A3
330
17
100
AcDbEntity
  8
TEXT_RU
420
14712622
100
AcDbText
 10
278.0
 20
145.0
 30
0.0
 40
5.95
  1
оборотная вода СОВ — 216 м³/ч сумм.
  7
TXTRU
 72
1
 11
278.0
 21
145.0
 31
0.0
100
AcDbText
  0
LINE
  5
A4
330
17
100
AcDbEntity
  8
OUTLINE
100
AcDbLine
 10
478.0
 20
241.0
 30
0.0
 11
478.0
 21
252.0
 31
0.0
  0
CIRCLE
  5
A5
330
17
100
AcDbEntity
  8
OUTLINE
100
AcDbCircle
 10
478.0
 20
226.0
 30
0.0
 40
15.0
  0
TEXT
  5
A6
330
17
100
AcDbEntity
  8
TEXT_RU
100
AcDbText
 10
478.0
 20
227.5
 30
0.0
 40
5.6
  1
QIC
  7
TXTRU
 72
1
 11
478.0
 21
227.5
 31
0.0
100
AcDbText
  0
TEXT
  5
A7
330
17
100
AcDbEntity
  8
TEXT_RU
100
AcDbText
 10
478.0
 20
217.0
 30
0.0
 40
5.6
  1
07
  7
TXTRU
 72
1
 11
478.0
 21
217.0
 31
0.0
100
AcDbText
  0
LWPOLYLINE
  5
A8
330
17
100
AcDbEntity
  8
LIQUID
100
AcDbPolyline
 90
3
 70
0
 10
660.0
 20
325.0
 10
660.0
 20
257.0
 10
742.0
 20
257.0
  0
CIRCLE
  5
A9
330
17
100
AcDbEntity
  8
OUTLINE
  6
DASHED
100
AcDbCircle
 10
755.0
 20
257.0
 30
0.0
 40
13.0
  0
HATCH
  5
AA
330
17
100
AcDbEntity
  8
OUTLINE
 62
7
100
AcDbHatch
 10
0.0
 20
0.0
 30
0.0
210
0.0
220
0.0
230
1.0
  2
SOLID
 70
1
 71
0
 91
1
 92
3
 72
0
 73
1
 93
3
 10
749.0
 20
264.0
 10
749.0
 20
250.0
 10
763.0
 20
257.0
 97
0
 75
0
 76
1
 98
0
  0
LINE
  5
AB
330
17
100
AcDbEntity
  8
LIQUID
100
AcDbLine
 10
768.0
 20
257.0
 30
0.0
 11
825.0
 21
257.0
 31
0.0
  0
LWPOLYLINE
  5
AC
330
17
100
AcDbEntity
  8
GAS
  6
DASHED
100
AcDbPolyline
 90
8
 70
1
 10
832.0
 20
290.0
 10
998.0
 20
290.0
 42
0.41421356237309837
 10
1005.0
 20
283.0
 10
1005.0
 20
231.0
 42
0.41421356237309837
 10
998.0
 20
224.0
 10
832.0
 20
224.0
 42
0.41421356237309837
 10
825.0
 20
231.0
 10
825.0
 20
283.0
 42
0.41421356237309837
  0
TEXT
  5
AD
330
17
100
AcDbEntity
  8
TEXT_RU
100
AcDbText
 10
915.0
 20
273.0
 30
0.0
 40
8.05
  1
ХОЛОДИЛЬНИК СЕРИИ 2
  7
TXTRU
 72
1
 11
915.0
 21
273.0
 31
0.0
100
AcDbText
  0
TEXT
  5
AE
330
17
100
AcDbEntity
  8
TEXT_RU
100
AcDbText
 10
915.0
 20
259.0
 30
0.0
 40
6.65
  1
пластинчатый 2500 кВт
  7
TXTRU
 72
1
 11
915.0
 21
259.0
 31
0.0
100
AcDbText
  0
TEXT
  5
AF
330
17
100
AcDbEntity
  8
TEXT_RU
100
AcDbText
 10
915.0
 20
247.0
 30
0.0
 40
6.65
  1
вода 108 м³/ч на нитку
  7
TXTRU
 72
1
 11
915.0
 21
247.0
 31
0.0
100
AcDbText
  0
TEXT
  5
B0
330
17
100
AcDbEntity
  8
TEXT_RU
100
AcDbText
 10
915.0
 20
235.0
 30
0.0
 40
6.65
  1
вне БИ — задание смежному
  7
TXTRU
 72
1
 11
915.0
 21
235.0
 31
0.0
100
AcDbText
  0
LINE
  5
B1
330
17
100
AcDbEntity
  8
LIQUID
100
AcDbLine
 10
1005.0
 20
257.0
 30
0.0
 11
1048.0
 21
257.0
 31
0.0
  0
LWPOLYLINE
  5
B2
330
17
100
AcDbEntity
  8
LIQUID
100
AcDbPolyline
 90
3
 70
0
 10
1048.0
 20
257.0
 10
1048.0
 20
548.0
 10
1044.0
 20
548.0
  0
SOLID
  5
B3
330
17
100
AcDbEntity
  8
LIQUID
100
AcDbTrace
 10
1058.4
 20
540.8
 30
0.0
 11
1042.2
 21
548.0
 31
0.0
 12
1058.4
 22
555.2
 32
0.0
 13
1058.4
 23
555.2
 33
0.0
  0
TEXT
  5
B4
330
17
100
AcDbEntity
  8
TEXT_RU
100
AcDbText
 10
1053.0
 20
408.0
 30
0.0
 40
5.95
  1
напорный коллектор
  7
TXTRU
 11
1053.0
 21
408.0
 31
0.0
100
AcDbText
  0
TEXT
  5
B5
330
17
100
AcDbEntity
  8
TEXT_RU
100
AcDbText
 10
1053.0
 20
397.0
 30
0.0
 40
5.95
  1
DN300–350 · 800–825 м³/ч
  7
TXTRU
 11
1053.0
 21
397.0
 31
0.0
100
AcDbText
  0
LINE
  5
B6
330
17
100
AcDbEntity
  8
ELECTRIC
100
AcDbLine
 10
1040.0
 20
523.0
 30
0.0
 11
1056.0
 21
523.0
 31
0.0
  0
LINE
  5
B7
330
17
100
AcDbEntity
  8
ELECTRIC
100
AcDbLine
 10
1040.0
 20
517.0
 30
0.0
 11
1056.0
 21
517.0
 31
0.0
  0
TEXT
  5
B8
330
17
100
AcDbEntity
  8
TEXT_RU
420
16429593
100
AcDbText
 10
1060.0
 20
517.0
 30
0.0
 40
5.6
  1
ЭР
  7
TXTRU
 11
1060.0
 21
517.0
 31
0.0
100
AcDbText
  0
LINE
  5
B9
330
17
100
AcDbEntity
  8
GAS
100
AcDbLine
 10
885.0
 20
200.0
 30
0.0
 11
885.0
 21
216.0
 31
0.0
  0
LINE
  5
BA
330
17
100
AcDbEntity
  8
GAS
100
AcDbLine
 10
885.0
 20
214.0
 30
0.0
 11
885.0
 21
221.0
 31
0.0
  0
SOLID
  5
BB
330
17
100
AcDbEntity
  8
GAS
100
AcDbTrace
 10
878.6
 20
208.2
 30
0.0
 11
885.0
 21
222.60000000000002
 31
0.0
 12
891.4
 22
208.2
 32
0.0
 13
891.4
 23
208.2
 33
0.0
  0
LINE
  5
BC
330
17
100
AcDbEntity
  8
GAS
100
AcDbLine
 10
940.0
 20
224.0
 30
0.0
 11
940.0
 21
200.0
 31
0.0
  0
SOLID
  5
BD
330
17
100
AcDbEntity
  8
GAS
100
AcDbTrace
 10
946.4
 20
212.8
 30
0.0
 11
940.0
 21
198.39999999999998
 31
0.0
 12
933.6
 22
212.8
 32
0.0
 13
933.6
 23
212.8
 33
0.0
  0
TEXT
  5
BE
330
17
100
AcDbEntity
  8
TEXT_RU
420
14712622
100
AcDbText
 10
912.0
 20
185.0
 30
0.0
 40
5.95
  1
СОВ 108 м³/ч на нитку
  7
TXTRU
 72
1
 11
912.0
 21
185.0
 31
0.0
100
AcDbText
  0
LWPOLYLINE
  5
BF
330
17
100
AcDbEntity
  8
DUST
100
AcDbPolyline
 90
8
 70
1
 10
1017.0
 20
202.0
 10
1173.0
 20
202.0
 42
0.4142135623730821
 10
1180.0
 20
195.0
 10
1180.0
 20
135.0
 42
0.4142135623730821
 10
1173.0
 20
128.0
 10
1017.0
 20
128.0
 42
0.41421356237309837
 10
1010.0
 20
135.0
 10
1010.0
 20
195.0
 42
0.41421356237309837
  0
TEXT
  5
C0
330
17
100
AcDbEntity
  8
TEXT_RU
100
AcDbText
 10
1095.0
 20
185.0
 30
0.0
 40
8.05
  1
УЗЕЛ РЕАГЕНТОВ
  7
TXTRU
 72
1
 11
1095.0
 21
185.0
 31
0.0
100
AcDbText
  0
TEXT
  5
C1
330
17
100
AcDbEntity
  8
TEXT_RU
100
AcDbText
 10
1095.0
 20
171.0
 30
0.0
 40
6.65
  1
гуартек 1,0 кг/ч на серию
  7
TXTRU
 72
1
 11
1095.0
 21
171.0
 31
0.0
100
AcDbText
  0
TEXT
  5
C2
330
17
100
AcDbEntity
  8
TEXT_RU
100
AcDbText
 10
1095.0
 20
159.0
 30
0.0
 40
6.65
  1
FC-1100 0,8 кг/ч на серию
  7
TXTRU
 72
1
 11
1095.0
 21
159.0
 31
0.0
100
AcDbText
  0
TEXT
  5
C3
330
17
100
AcDbEntity
  8
TEXT_RU
100
AcDbText
 10
1095.0
 20
147.0
 30
0.0
 40
6.65
  1
H2SO4, HCl — по анализам
  7
TXTRU
 72
1
 11
1095.0
 21
147.0
 31
0.0
100
AcDbText
  0
LWPOLYLINE
  5
C4
330
17
100
AcDbEntity
  8
DUST
100
AcDbPolyline
 90
3
 70
0
 10
1010.0
 20
170.0
 10
700.0
 20
170.0
 10
700.0
 20
252.0
  0
SOLID
  5
C5
330
17
100
AcDbEntity
  8
DUST
100
AcDbTrace
 10
693.6
 20
239.2
 30
0.0
 11
700.0
 21
253.60000000000002
 31
0.0
 12
706.4
 22
239.2
 32
0.0
 13
706.4
 23
239.2
 33
0.0
  0
TEXT
  5
C6
330
17
100
AcDbEntity
  8
TEXT_RU
420
10702494
100
AcDbText
 10
880.0
 20
159.0
 30
0.0
 40
5.95
  1
дозирование: в циркбаки / на всас насосов
  7
TXTRU
 72
1
 11
880.0
 21
159.0
 31
0.0
100
AcDbText
  0
LINE
  5
C7
330
17
100
AcDbEntity
  8
OUTLINE
100
AcDbLine
 10
760.0
 20
177.0
 30
0.0
 11
760.0
 21
170.0
 31
0.0
  0
LINE
  5
C8
330
17
100
AcDbEntity
  8
OUTLINE
100
AcDbLine
 10
810.0
 20
177.0
 30
0.0
 11
810.0
 21
170.0
 31
0.0
  0
CIRCLE
  5
C9
330
17
100
AcDbEntity
  8
OUTLINE
100
AcDbCircle
 10
760.0
 20
192.0
 30
0.0
 40
15.0
  0
TEXT
  5
CA
330
17
100
AcDbEntity
  8
TEXT_RU
100
AcDbText
 10
760.0
 20
193.5
 30
0.0
 40
5.6
  1
QIC
  7
TXTRU
 72
1
 11
760.0
 21
193.5
 31
0.0
100
AcDbText
  0
TEXT
  5
CB
330
17
100
AcDbEntity
  8
TEXT_RU
100
AcDbText
 10
760.0
 20
183.0
 30
0.0
 40
5.6
  1
05
  7
TXTRU
 72
1
 11
760.0
 21
183.0
 31
0.0
100
AcDbText
  0
CIRCLE
  5
CC
330
17
100
AcDbEntity
  8
OUTLINE
100
AcDbCircle
 10
810.0
 20
192.0
 30
0.0
 40
15.0
  0
TEXT
  5
CD
330
17
100
AcDbEntity
  8
TEXT_RU
100
AcDbText
 10
810.0
 20
193.5
 30
0.0
 40
5.6
  1
QIC
  7
TXTRU
 72
1
 11
810.0
 21
193.5
 31
0.0
100
AcDbText
  0
TEXT
  5
CE
330
17
100
AcDbEntity
  8
TEXT_RU
100
AcDbText
 10
810.0
 20
183.0
 30
0.0
 40
5.6
  1
06
  7
TXTRU
 72
1
 11
810.0
 21
183.0
 31
0.0
100
AcDbText
  0
TEXT
  5
CF
330
17
100
AcDbEntity
  8
TEXT_RU
100
AcDbText
 10
20.0
 20
102.0
 30
0.0
 40
7.0
  1
ЛЕГЕНДА ЛИНИЙ
  7
TXTRU
 11
20.0
 21
102.0
 31
0.0
100
AcDbText
  0
LINE
  5
D0
330
17
100
AcDbEntity
  8
LIQUID
100
AcDbLine
 10
20.0
 20
89.0
 30
0.0
 11
48.0
 21
89.0
 31
0.0
  0
TEXT
  5
D1
330
17
100
AcDbEntity
  8
TEXT_RU
100
AcDbText
 10
54.0
 20
86.0
 30
0.0
 40
6.09
  1
электролит (процесс)
  7
TXTRU
 11
54.0
 21
86.0
 31
0.0
100
AcDbText
  0
LINE
  5
D2
330
17
100
AcDbEntity
  8
GAS
100
AcDbLine
 10
20.0
 20
75.0
 30
0.0
 11
48.0
 21
75.0
 31
0.0
  0
TEXT
  5
D3
330
17
100
AcDbEntity
  8
TEXT_RU
100
AcDbText
 10
54.0
 20
72.0
 30
0.0
 40
6.09
  1
оборотная вода СОВ (теплосъём)
  7
TXTRU
 11
54.0
 21
72.0
 31
0.0
100
AcDbText
  0
LINE
  5
D4
330
17
100
AcDbEntity
  8
DUST
100
AcDbLine
 10
20.0
 20
61.0
 30
0.0
 11
48.0
 21
61.0
 31
0.0
  0
TEXT
  5
D5
330
17
100
AcDbEntity
  8
TEXT_RU
100
AcDbText
 10
54.0
 20
58.0
 30
0.0
 40
6.09
  1
растворы реагентов (дозирование)
  7
TXTRU
 11
54.0
 21
58.0
 31
0.0
100
AcDbText
  0
LINE
  5
D6
330
17
100
AcDbEntity
  8
ELECTRIC
100
AcDbLine
 10
20.0
 20
47.0
 30
0.0
 11
48.0
 21
47.0
 31
0.0
  0
TEXT
  5
D7
330
17
100
AcDbEntity
  8
TEXT_RU
100
AcDbText
 10
54.0
 20
44.0
 30
0.0
 40
6.09
  1
ток серии (постоянный ток)
  7
TXTRU
 11
54.0
 21
44.0
 31
0.0
100
AcDbText
  0
LWPOLYLINE
  5
D8
330
17
100
AcDbEntity
  8
OUTLINE
420
828172
100
AcDbPolyline
 90
8
 70
1
 10
22.0
 20
37.0
 10
46.0
 20
37.0
 42
0.41421356237309936
 10
48.0
 20
35.0
 10
48.0
 20
30.0
 42
0.41421356237309936
 10
46.0
 20
28.0
 10
22.0
 20
28.0
 42
0.4142135623731011
 10
20.0
 20
30.0
 10
20.0
 20
35.0
 42
0.4142135623731011
  0
TEXT
  5
D9
330
17
100
AcDbEntity
  8
TEXT_RU
100
AcDbText
 10
54.0
 20
29.0
 30
0.0
 40
6.09
  1
границы проектирования (вход/выход)
  7
TXTRU
 11
54.0
 21
29.0
 31
0.0
100
AcDbText
  0
LINE
  5
DA
330
17
100
AcDbEntity
  8
DIM
  6
DASHED
100
AcDbLine
 10
280.0
 20
89.0
 30
0.0
 11
308.0
 21
89.0
 31
0.0
  0
TEXT
  5
DB
330
17
100
AcDbEntity
  8
TEXT_RU
100
AcDbText
 10
314.0
 20
86.0
 30
0.0
 40
6.09
  1
сигналы КИПиА
  7
TXTRU
 11
314.0
 21
86.0
 31
0.0
100
AcDbText
  0
LINE
  5
DC
330
17
100
AcDbEntity
  8
INTERLOCK
  6
DASHED
100
AcDbLine
 10
280.0
 20
75.0
 30
0.0
 11
308.0
 21
75.0
 31
0.0
  0
TEXT
  5
DD
330
17
100
AcDbEntity
  8
TEXT_RU
100
AcDbText
 10
314.0
 20
72.0
 30
0.0
 40
6.09
  1
блокировки
  7
TXTRU
 11
314.0
 21
72.0
 31
0.0
100
AcDbText
  0
LWPOLYLINE
  5
DE
330
17
100
AcDbEntity
  8
OUTLINE
  6
DASHED
100
AcDbPolyline
 90
8
 70
1
 10
282.0
 20
65.0
 10
306.0
 20
65.0
 42
0.4142135623731064
 10
308.0
 20
63.0
 10
308.0
 20
58.0
 42
0.4142135623731064
 10
306.0
 20
56.0
 10
282.0
 20
56.0
 42
0.4142135623731064
 10
280.0
 20
58.0
 10
280.0
 20
63.0
 42
0.4142135623731064
  0
TEXT
  5
DF
330
17
100
AcDbEntity
  8
TEXT_RU
100
AcDbText
 10
314.0
 20
58.0
 30
0.0
 40
6.09
  1
пунктирный контур — вне БИ / задание смежникам
  7
TXTRU
 11
314.0
 21
58.0
 31
0.0
100
AcDbText
  0
LINE
  5
E0
330
17
100
AcDbEntity
  8
ELECTRIC
100
AcDbLine
 10
286.0
 20
50.0
 30
0.0
 11
302.0
 21
50.0
 31
0.0
  0
LINE
  5
E1
330
17
100
AcDbEntity
  8
ELECTRIC
100
AcDbLine
 10
286.0
 20
44.0
 30
0.0
 11
302.0
 21
44.0
 31
0.0
  0
TEXT
  5
E2
330
17
100
AcDbEntity
  8
TEXT_RU
100
AcDbText
 10
314.0
 20
44.0
 30
0.0
 40
6.09
  1
ЭР — эл. разрыв (изолир. вставка), ПУЭ 7.10
  7
TXTRU
 11
314.0
 21
44.0
 31
0.0
100
AcDbText
  0
CIRCLE
  5
E3
330
17
100
AcDbEntity
  8
OUTLINE
100
AcDbCircle
 10
294.0
 20
33.0
 30
0.0
 40
6.0
  0
TEXT
  5
E4
330
17
100
AcDbEntity
  8
TEXT_RU
100
AcDbText
 10
314.0
 20
29.0
 30
0.0
 40
6.09
  1
кружок — контур КИПиА (тег)
  7
TXTRU
 11
314.0
 21
29.0
 31
0.0
100
AcDbText
  0
TEXT
  5
E5
330
17
100
AcDbEntity
  8
TEXT_RU
100
AcDbText
 10
560.0
 20
102.0
 30
0.0
 40
7.0
  1
ОСНОВНЫЕ КОНТУРЫ И УСТАВКИ (по данным БИ)
  7
TXTRU
 11
560.0
 21
102.0
 31
0.0
100
AcDbText
  0
TEXT
  5
E6
330
17
100
AcDbEntity
  8
TEXT_RU
100
AcDbText
 10
560.0
 20
88.0
 30
0.0
 40
5.95
  1
FIC-01 · расход на серию: 800–825 м³/ч (9,1 м³/ч на ванну); L −10 %; LL 70 % → блокировка
  7
TXTRU
 11
560.0
 21
88.0
 31
0.0
100
AcDbText
  0
TEXT
  5
E7
330
17
100
AcDbEntity
  8
TEXT_RU
100
AcDbText
 10
560.0
 20
76.5
 30
0.0
 40
5.95
  1
TIC-03 · t питания: 48,2 ± 0,5 °С; H 52 / HH 55 °С (запрет повышения тока); L 45 / LL 40 °С (кристаллизация; байпас — реш. БИ)
  7
TXTRU
 11
560.0
 21
76.5
 31
0.0
100
AcDbText
  0
TEXT
  5
E8
330
17
100
AcDbEntity
  8
TEXT_RU
100
AcDbText
 10
560.0
 20
65.0
 30
0.0
 40
5.95
  1
QIC-05 · гуартек: 1,0 кг/ч на серию (0,25 кг/т) · QIC-06 · FC-1100: 0,8 кг/ч (0,20 кг/т) — пропорционально А·ч серии
  7
TXTRU
 11
560.0
 21
65.0
 31
0.0
100
AcDbText
  0
TEXT
  5
E9
330
17
100
AcDbEntity
  8
TEXT_RU
100
AcDbText
 10
560.0
 20
53.5
 30
0.0
 40
5.95
  1
QIC-07 · состав: плотность/T поточно; пробоотбор Cu/H2SO4/Cl/Ni/Fe; H2SO4 — по заданию оператора; HCl — Cl 25–30 г/м³
  7
TXTRU
 11
560.0
 21
53.5
 31
0.0
100
AcDbText
  0
TEXT
  5
EA
330
17
100
AcDbEntity
  8
TEXT_RU
100
AcDbText
 10
560.0
 20
42.0
 30
0.0
 40
5.95
  1
JIC-08 · ток серии: I ≤ 47,0 кА; U ≤ 225 В; U ванны менее 1,8 В — КЗ, более 2,5 В — деградация контактов/анодов
  7
TXTRU
 11
560.0
 21
42.0
 31
0.0
100
AcDbText
  0
TEXT
  5
EB
330
17
100
AcDbEntity
  8
TEXT_RU
100
AcDbText
 10
560.0
 20
30.5
 30
0.0
 40
5.95
  1
Блокировки: потеря циркуляции → ток до дежурного (выдержка — расчёт БИ); стоп аспирации → то же; LL бака → стоп насосов
  7
TXTRU
 11
560.0
 21
30.5
 31
0.0
100
AcDbText
  0
ENDSEC
  0
SECTION
  2
OBJECTS
  0
DICTIONARY
  5
A
330
0
100
AcDbDictionary
281
1
  3
ACAD_COLOR
350
B
  3
ACAD_GROUP
350
C
  3
ACAD_LAYOUT
350
D
  3
ACAD_MATERIAL
350
E
  3
ACAD_MLEADERSTYLE
350
F
  3
ACAD_MLINESTYLE
350
10
  3
ACAD_PLOTSETTINGS
350
11
  3
ACAD_PLOTSTYLENAME
350
12
  3
ACAD_SCALELIST
350
14
  3
ACAD_TABLESTYLE
350
15
  3
ACAD_VISUALSTYLE
350
16
  3
EZDXF_META
350
2D
  0
DICTIONARY
  5
B
330
A
100
AcDbDictionary
281
1
  0
DICTIONARY
  5
C
330
A
100
AcDbDictionary
281
1
  0
DICTIONARY
  5
D
330
A
100
AcDbDictionary
281
1
  3
Model
350
1A
  3
Layout1
350
1E
  0
DICTIONARY
  5
E
330
A
100
AcDbDictionary
281
1
  3
ByBlock
350
1F
  3
ByLayer
350
20
  3
Global
350
21
  0
DICTIONARY
  5
F
330
A
100
AcDbDictionary
281
1
  3
Standard
350
2C
  0
DICTIONARY
  5
10
330
A
100
AcDbDictionary
281
1
  3
Standard
350
22
  0
DICTIONARY
  5
11
330
A
100
AcDbDictionary
281
1
  0
ACDBDICTIONARYWDFLT
  5
12
330
A
100
AcDbDictionary
281
1
  3
Normal
350
13
100
AcDbDictionaryWithDefault
340
13
  0
ACDBPLACEHOLDER
  5
13
330
12
  0
DICTIONARY
  5
14
330
A
100
AcDbDictionary
281
1
  0
DICTIONARY
  5
15
330
A
100
AcDbDictionary
281
1
  0
DICTIONARY
  5
16
330
A
100
AcDbDictionary
281
1
  0
LAYOUT
  5
1A
330
D
100
AcDbPlotSettings
  1

  4
A3
  6

 40
7.5
 41
20.0
 42
7.5
 43
20.0
 44
420.0
 45
297.0
 46
0.0
 47
0.0
 48
0.0
 49
0.0
140
0.0
141
0.0
142
1.0
143
1.0
 70
1024
 72
1
 73
0
 74
5
  7

 75
16
 76
0
 77
2
 78
300
147
1.0
148
0.0
149
0.0
100
AcDbLayout
  1
Model
 70
1
 71
0
 10
0.0
 20
0.0
 11
1190.0
 21
640.0
 12
0.0
 22
0.0
 32
0.0
 14
-0.01
 24
-0.01
 34
0.0
 15
1190.0
 25
640.0
 35
0.0
146
0.0
 13
0.0
 23
0.0
 33
0.0
 16
1.0
 26
0.0
 36
0.0
 17
0.0
 27
1.0
 37
0.0
 76
1
330
17
  0
LAYOUT
  5
1E
330
D
100
AcDbPlotSettings
  1

  4
A3
  6

 40
7.5
 41
20.0
 42
7.5
 43
20.0
 44
420.0
 45
297.0
 46
0.0
 47
0.0
 48
0.0
 49
0.0
140
0.0
141
0.0
142
1.0
143
1.0
 70
0
 72
1
 73
0
 74
5
  7

 75
16
 76
0
 77
2
 78
300
147
1.0
148
0.0
149
0.0
100
AcDbLayout
  1
Layout1
 70
1
 71
1
 10
0.0
 20
0.0
 11
420.0
 21
297.0
 12
0.0
 22
0.0
 32
0.0
 14
1e+20
 24
1e+20
 34
1e+20
 15
-1e+20
 25
-1e+20
 35
-1e+20
146
0.0
 13
0.0
 23
0.0
 33
0.0
 16
1.0
 26
0.0
 36
0.0
 17
0.0
 27
1.0
 37
0.0
 76
1
330
1B
  0
MATERIAL
  5
1F
102
{ACAD_REACTORS
330
E
102
}
330
E
100
AcDbMaterial
  1
ByBlock
  2

 70
0
 40
1.0
 71
1
 41
1.0
 91
-1023410177
 42
1.0
 72
1
  3

 73
1
 74
1
 75
1
 44
0.5
 73
0
 45
1.0
 46
1.0
 77
1
  4

 78
1
 79
1
170
1
 48
1.0
171
1
  6

172
1
173
1
174
1
140
1.0
141
1.0
175
1
  7

176
1
177
1
178
1
143
1.0
179
1
  8

270
1
271
1
272
1
145
1.0
146
1.0
273
1
  9

274
1
275
1
276
1
 42
1.0
 72
1
  3

 73
1
 74
1
 75
1
 94
63
  0
MATERIAL
  5
20
102
{ACAD_REACTORS
330
E
102
}
330
E
100
AcDbMaterial
  1
ByLayer
  2

 70
0
 40
1.0
 71
1
 41
1.0
 91
-1023410177
 42
1.0
 72
1
  3

 73
1
 74
1
 75
1
 44
0.5
 73
0
 45
1.0
 46
1.0
 77
1
  4

 78
1
 79
1
170
1
 48
1.0
171
1
  6

172
1
173
1
174
1
140
1.0
141
1.0
175
1
  7

176
1
177
1
178
1
143
1.0
179
1
  8

270
1
271
1
272
1
145
1.0
146
1.0
273
1
  9

274
1
275
1
276
1
 42
1.0
 72
1
  3

 73
1
 74
1
 75
1
 94
63
  0
MATERIAL
  5
21
102
{ACAD_REACTORS
330
E
102
}
330
E
100
AcDbMaterial
  1
Global
  2

 70
0
 40
1.0
 71
1
 41
1.0
 91
-1023410177
 42
1.0
 72
1
  3

 73
1
 74
1
 75
1
 44
0.5
 73
0
 45
1.0
 46
1.0
 77
1
  4

 78
1
 79
1
170
1
 48
1.0
171
1
  6

172
1
173
1
174
1
140
1.0
141
1.0
175
1
  7

176
1
177
1
178
1
143
1.0
179
1
  8

270
1
271
1
272
1
145
1.0
146
1.0
273
1
  9

274
1
275
1
276
1
 42
1.0
 72
1
  3

 73
1
 74
1
 75
1
 94
63
  0
MLINESTYLE
  5
22
102
{ACAD_REACTORS
330
10
102
}
330
10
100
AcDbMlineStyle
  2
Standard
 70
0
  3

 62
256
 51
90.0
 52
90.0
 71
2
 49
0.5
 62
256
  6
BYLAYER
 49
-0.5
 62
256
  6
BYLAYER
  0
MLEADERSTYLE
  5
2C
102
{ACAD_REACTORS
330
F
102
}
330
F
100
AcDbMLeaderStyle
179
2
170
2
171
1
172
0
 90
2
 40
0.0
 41
0.0
173
1
 91
-1056964608
 92
-2
290
1
 42
2.0
291
1
 43
8.0
  3
Standard
 44
4.0
300

342
29
174
1
175
1
176
0
178
1
 93
-1056964608
 45
4.0
292
0
297
0
 46
4.0
 94
-1056964608
 47
1.0
 49
1.0
140
1.0
294
1
141
0.0
177
0
142
1.0
295
0
296
0
143
3.75
271
0
272
9
273
9
  0
DICTIONARY
  5
2D
330
A
100
AcDbDictionary
280
1
281
1
  3
CREATED_BY_EZDXF
350
2E
  3
WRITTEN_BY_EZDXF
350
EE
  0
DICTIONARYVAR
  5
2E
330
2D
100
DictionaryVariables
280
0
  1
1.4.4 @ 2026-08-28T02:58:58.205285+00:00
  0
DICTIONARYVAR
  5
EE
330
2D
100
DictionaryVariables
280
0
  1
1.4.4 @ 2026-08-28T02:58:58.215764+00:00
  0
ENDSEC
  0
EOF
