  0
SECTION
  2
HEADER
  9
$ACADVER
  1
AC1024
  9
$ACADMAINTVER
 70
6
  9
$DWGCODEPAGE
  3
ANSI_1252
  9
$LASTSAVEDBY
  1
ezdxf
  9
$INSBASE
 10
0.0
 20
0.0
 30
0.0
  9
$EXTMIN
 10
-0.01
 20
-0.01
 30
0.0
  9
$EXTMAX
 10
1190.0
 20
640.0
 30
0.0
  9
$LIMMIN
 10
0.0
 20
0.0
  9
$LIMMAX
 10
1190.0
 20
640.0
  9
$ORTHOMODE
 70
0
  9
$REGENMODE
 70
1
  9
$FILLMODE
 70
1
  9
$QTEXTMODE
 70
0
  9
$MIRRTEXT
 70
1
  9
$LTSCALE
 40
1.0
  9
$ATTMODE
 70
1
  9
$TEXTSIZE
 40
2.5
  9
$TRACEWID
 40
1.0
  9
$TEXTSTYLE
  7
Standard
  9
$CLAYER
  8
0
  9
$CELTYPE
  6
ByLayer
  9
$CECOLOR
 62
256
  9
$CELTSCALE
 40
1.0
  9
$DISPSILH
 70
0
  9
$DIMSCALE
 40
1.0
  9
$DIMASZ
 40
2.5
  9
$DIMEXO
 40
0.625
  9
$DIMDLI
 40
3.75
  9
$DIMRND
 40
0.0
  9
$DIMDLE
 40
0.0
  9
$DIMEXE
 40
1.25
  9
$DIMTP
 40
0.0
  9
$DIMTM
 40
0.0
  9
$DIMTXT
 40
2.5
  9
$DIMCEN
 40
2.5
  9
$DIMTSZ
 40
0.0
  9
$DIMTOL
 70
0
  9
$DIMLIM
 70
0
  9
$DIMTIH
 70
0
  9
$DIMTOH
 70
0
  9
$DIMSE1
 70
0
  9
$DIMSE2
 70
0
  9
$DIMTAD
 70
1
  9
$DIMZIN
 70
8
  9
$DIMBLK
  1

  9
$DIMASO
 70
1
  9
$DIMSHO
 70
1
  9
$DIMPOST
  1

  9
$DIMAPOST
  1

  9
$DIMALT
 70
0
  9
$DIMALTD
 70
3
  9
$DIMALTF
 40
0.03937007874
  9
$DIMLFAC
 40
1.0
  9
$DIMTOFL
 70
1
  9
$DIMTVP
 40
0.0
  9
$DIMTIX
 70
0
  9
$DIMSOXD
 70
0
  9
$DIMSAH
 70
0
  9
$DIMBLK1
  1

  9
$DIMBLK2
  1

  9
$DIMSTYLE
  2
ISO-25
  9
$DIMCLRD
 70
0
  9
$DIMCLRE
 70
0
  9
$DIMCLRT
 70
0
  9
$DIMTFAC
 40
1.0
  9
$DIMGAP
 40
0.625
  9
$DIMJUST
 70
0
  9
$DIMSD1
 70
0
  9
$DIMSD2
 70
0
  9
$DIMTOLJ
 70
0
  9
$DIMTZIN
 70
8
  9
$DIMALTZ
 70
0
  9
$DIMALTTZ
 70
0
  9
$DIMUPT
 70
0
  9
$DIMDEC
 70
2
  9
$DIMTDEC
 70
2
  9
$DIMALTU
 70
2
  9
$DIMALTTD
 70
3
  9
$DIMTXSTY
  7
Standard
  9
$DIMAUNIT
 70
0
  9
$DIMADEC
 70
0
  9
$DIMALTRND
 40
0.0
  9
$DIMAZIN
 70
0
  9
$DIMDSEP
 70
44
  9
$DIMATFIT
 70
3
  9
$DIMFRAC
 70
0
  9
$DIMLDRBLK
  1

  9
$DIMLUNIT
 70
2
  9
$DIMLWD
 70
-2
  9
$DIMLWE
 70
-2
  9
$DIMTMOVE
 70
0
  9
$DIMFXL
 40
1.0
  9
$DIMFXLON
 70
0
  9
$DIMJOGANG
 40
0.785398163397
  9
$DIMTFILL
 70
0
  9
$DIMTFILLCLR
 70
0
  9
$DIMARCSYM
 70
0
  9
$DIMLTYPE
  6

  9
$DIMLTEX1
  6

  9
$DIMLTEX2
  6

  9
$DIMTXTDIRECTION
 70
0
  9
$LUNITS
 70
2
  9
$LUPREC
 70
4
  9
$SKETCHINC
 40
1.0
  9
$FILLETRAD
 40
10.0
  9
$AUNITS
 70
0
  9
$AUPREC
 70
2
  9
$MENU
  1
.
  9
$ELEVATION
 40
0.0
  9
$PELEVATION
 40
0.0
  9
$THICKNESS
 40
0.0
  9
$LIMCHECK
 70
0
  9
$CHAMFERA
 40
0.0
  9
$CHAMFERB
 40
0.0
  9
$CHAMFERC
 40
0.0
  9
$CHAMFERD
 40
0.0
  9
$SKPOLY
 70
0
  9
$TDCREATE
 40
2461281.1242824076
  9
$TDUCREATE
 40
2458532.153996898
  9
$TDUPDATE
 40
2461281.1242824076
  9
$TDUUPDATE
 40
2458532.1544311
  9
$TDINDWG
 40
0.0
  9
$TDUSRTIMER
 40
0.0
  9
$USRTIMER
 70
1
  9
$ANGBASE
 50
0.0
  9
$ANGDIR
 70
0
  9
$PDMODE
 70
0
  9
$PDSIZE
 40
0.0
  9
$PLINEWID
 40
0.0
  9
$SPLFRAME
 70
0
  9
$SPLINETYPE
 70
6
  9
$SPLINESEGS
 70
8
  9
$HANDSEED
  5
11A
  9
$SURFTAB1
 70
6
  9
$SURFTAB2
 70
6
  9
$SURFTYPE
 70
6
  9
$SURFU
 70
6
  9
$SURFV
 70
6
  9
$UCSBASE
  2

  9
$UCSNAME
  2

  9
$UCSORG
 10
0.0
 20
0.0
 30
0.0
  9
$UCSXDIR
 10
1.0
 20
0.0
 30
0.0
  9
$UCSYDIR
 10
0.0
 20
1.0
 30
0.0
  9
$UCSORTHOREF
  2

  9
$UCSORTHOVIEW
 70
0
  9
$UCSORGTOP
 10
0.0
 20
0.0
 30
0.0
  9
$UCSORGBOTTOM
 10
0.0
 20
0.0
 30
0.0
  9
$UCSORGLEFT
 10
0.0
 20
0.0
 30
0.0
  9
$UCSORGRIGHT
 10
0.0
 20
0.0
 30
0.0
  9
$UCSORGFRONT
 10
0.0
 20
0.0
 30
0.0
  9
$UCSORGBACK
 10
0.0
 20
0.0
 30
0.0
  9
$PUCSBASE
  2

  9
$PUCSNAME
  2

  9
$PUCSORG
 10
0.0
 20
0.0
 30
0.0
  9
$PUCSXDIR
 10
1.0
 20
0.0
 30
0.0
  9
$PUCSYDIR
 10
0.0
 20
1.0
 30
0.0
  9
$PUCSORTHOREF
  2

  9
$PUCSORTHOVIEW
 70
0
  9
$PUCSORGTOP
 10
0.0
 20
0.0
 30
0.0
  9
$PUCSORGBOTTOM
 10
0.0
 20
0.0
 30
0.0
  9
$PUCSORGLEFT
 10
0.0
 20
0.0
 30
0.0
  9
$PUCSORGRIGHT
 10
0.0
 20
0.0
 30
0.0
  9
$PUCSORGFRONT
 10
0.0
 20
0.0
 30
0.0
  9
$PUCSORGBACK
 10
0.0
 20
0.0
 30
0.0
  9
$USERI1
 70
0
  9
$USERI2
 70
0
  9
$USERI3
 70
0
  9
$USERI4
 70
0
  9
$USERI5
 70
0
  9
$USERR1
 40
0.0
  9
$USERR2
 40
0.0
  9
$USERR3
 40
0.0
  9
$USERR4
 40
0.0
  9
$USERR5
 40
0.0
  9
$WORLDVIEW
 70
1
  9
$SHADEDGE
 70
3
  9
$SHADEDIF
 70
70
  9
$TILEMODE
 70
1
  9
$MAXACTVP
 70
64
  9
$PINSBASE
 10
0.0
 20
0.0
 30
0.0
  9
$PLIMCHECK
 70
0
  9
$PEXTMIN
 10
1e+20
 20
1e+20
 30
1e+20
  9
$PEXTMAX
 10
-1e+20
 20
-1e+20
 30
-1e+20
  9
$PLIMMIN
 10
0.0
 20
0.0
  9
$PLIMMAX
 10
420.0
 20
297.0
  9
$UNITMODE
 70
0
  9
$VISRETAIN
 70
1
  9
$PLINEGEN
 70
0
  9
$PSLTSCALE
 70
1
  9
$TREEDEPTH
 70
3020
  9
$CMLSTYLE
  2
Standard
  9
$CMLJUST
 70
0
  9
$CMLSCALE
 40
20.0
  9
$PROXYGRAPHICS
 70
1
  9
$MEASUREMENT
 70
1
  9
$CELWEIGHT
370
-1
  9
$ENDCAPS
280
0
  9
$JOINSTYLE
280
0
  9
$LWDISPLAY
290
0
  9
$INSUNITS
 70
4
  9
$HYPERLINKBASE
  1

  9
$STYLESHEET
  1

  9
$XEDIT
290
1
  9
$CEPSNTYPE
380
0
  9
$PSTYLEMODE
290
1
  9
$FINGERPRINTGUID
  2
{11F804DE-E69D-4D8F-8A1C-023FC08EDCAF}
  9
$VERSIONGUID
  2
{F96CB8D2-0157-4018-B10F-491255977E58}
  9
$EXTNAMES
290
1
  9
$PSVPSCALE
 40
0.0
  9
$OLESTARTUP
290
0
  9
$SORTENTS
280
127
  9
$INDEXCTL
280
0
  9
$HIDETEXT
280
1
  9
$XCLIPFRAME
280
1
  9
$HALOGAP
280
0
  9
$OBSCOLOR
 70
257
  9
$OBSLTYPE
280
0
  9
$INTERSECTIONDISPLAY
280
0
  9
$INTERSECTIONCOLOR
 70
257
  9
$DIMASSOC
280
2
  9
$PROJECTNAME
  1

  9
$CAMERADISPLAY
290
0
  9
$LENSLENGTH
 40
50.0
  9
$CAMERAHEIGHT
 40
0.0
  9
$STEPSPERSEC
 40
24.0
  9
$STEPSIZE
 40
100.0
  9
$3DDWFPREC
 40
2.0
  9
$PSOLWIDTH
 40
0.005
  9
$PSOLHEIGHT
 40
0.08
  9
$LOFTANG1
 40
1.570796326795
  9
$LOFTANG2
 40
1.570796326795
  9
$LOFTMAG1
 40
0.0
  9
$LOFTMAG2
 40
0.0
  9
$LOFTPARAM
 70
7
  9
$LOFTNORMALS
280
1
  9
$LATITUDE
 40
37.795
  9
$LONGITUDE
 40
-122.394
  9
$NORTHDIRECTION
 40
0.0
  9
$TIMEZONE
 70
-8000
  9
$LIGHTGLYPHDISPLAY
280
1
  9
$TILEMODELIGHTSYNCH
280
1
  9
$CMATERIAL
347
20
  9
$SOLIDHIST
280
0
  9
$SHOWHIST
280
1
  9
$DWFFRAME
280
2
  9
$DGNFRAME
280
2
  9
$REALWORLDSCALE
290
1
  9
$INTERFERECOLOR
 62
256
  9
$CSHADOW
280
0
  9
$SHADOWPLANELOCATION
 40
0.0
  0
ENDSEC
  0
SECTION
  2
CLASSES
  0
CLASS
  1
ACDBDICTIONARYWDFLT
  2
AcDbDictionaryWithDefault
  3
ObjectDBX Classes
 90
0
 91
0
280
0
281
0
  0
CLASS
  1
SUN
  2
AcDbSun
  3
SCENEOE
 90
1153
 91
0
280
0
281
0
  0
CLASS
  1
VISUALSTYLE
  2
AcDbVisualStyle
  3
ObjectDBX Classes
 90
4095
 91
0
280
0
281
0
  0
CLASS
  1
MATERIAL
  2
AcDbMaterial
  3
ObjectDBX Classes
 90
1153
 91
0
280
0
281
0
  0
CLASS
  1
SCALE
  2
AcDbScale
  3
ObjectDBX Classes
 90
1153
 91
0
280
0
281
0
  0
CLASS
  1
TABLESTYLE
  2
AcDbTableStyle
  3
ObjectDBX Classes
 90
4095
 91
0
280
0
281
0
  0
CLASS
  1
MLEADERSTYLE
  2
AcDbMLeaderStyle
  3
ACDB_MLEADERSTYLE_CLASS
 90
4095
 91
0
280
0
281
0
  0
CLASS
  1
DICTIONARYVAR
  2
AcDbDictionaryVar
  3
ObjectDBX Classes
 90
0
 91
0
280
0
281
0
  0
CLASS
  1
CELLSTYLEMAP
  2
AcDbCellStyleMap
  3
ObjectDBX Classes
 90
1152
 91
0
280
0
281
0
  0
CLASS
  1
MENTALRAYRENDERSETTINGS
  2
AcDbMentalRayRenderSettings
  3
SCENEOE
 90
1024
 91
0
280
0
281
0
  0
CLASS
  1
ACDBDETAILVIEWSTYLE
  2
AcDbDetailViewStyle
  3
ObjectDBX Classes
 90
1025
 91
0
280
0
281
0
  0
CLASS
  1
ACDBSECTIONVIEWSTYLE
  2
AcDbSectionViewStyle
  3
ObjectDBX Classes
 90
1025
 91
0
280
0
281
0
  0
CLASS
  1
RASTERVARIABLES
  2
AcDbRasterVariables
  3
ISM
 90
0
 91
0
280
0
281
0
  0
CLASS
  1
LAYOUT
  2
AcDbLayout
  3
ObjectDBX Classes
 90
0
 91
0
280
0
281
0
  0
CLASS
  1
ACDBPLACEHOLDER
  2
AcDbPlaceHolder
  3
ObjectDBX Classes
 90
0
 91
0
280
0
281
0
  0
ENDSEC
  0
SECTION
  2
TABLES
  0
TABLE
  2
VPORT
  5
8
330
0
100
AcDbSymbolTable
 70
1
  0
VPORT
  5
23
330
8
100
AcDbSymbolTableRecord
100
AcDbViewportTableRecord
  2
*Active
 70
0
 10
0.0
 20
0.0
 11
1.0
 21
1.0
 12
0.0
 22
0.0
 13
0.0
 23
0.0
 14
0.5
 24
0.5
 15
0.5
 25
0.5
 16
0.0
 26
0.0
 36
1.0
 17
0.0
 27
0.0
 37
0.0
 40
1000.0
 41
1.34
 42
50.0
 43
0.0
 44
0.0
 50
0.0
 51
0.0
 71
0
 72
1000
 73
1
 74
3
 75
0
 76
0
 77
0
 78
0
281
0
 65
0
146
0.0
  0
ENDTAB
  0
TABLE
  2
LTYPE
  5
2
330
0
100
AcDbSymbolTable
 70
5
  0
LTYPE
  5
24
330
2
100
AcDbSymbolTableRecord
100
AcDbLinetypeTableRecord
  2
ByBlock
 70
0
  3

 72
65
 73
0
 40
0.0
  0
LTYPE
  5
25
330
2
100
AcDbSymbolTableRecord
100
AcDbLinetypeTableRecord
  2
ByLayer
 70
0
  3

 72
65
 73
0
 40
0.0
  0
LTYPE
  5
26
330
2
100
AcDbSymbolTableRecord
100
AcDbLinetypeTableRecord
  2
Continuous
 70
0
  3

 72
65
 73
0
 40
0.0
  0
LTYPE
  5
2F
330
2
100
AcDbSymbolTableRecord
100
AcDbLinetypeTableRecord
  2
DASHED
 70
0
  3
Штриховая — — — —
 72
65
 73
2
 40
9.0
 49
6.0
 74
0
 49
-3.0
 74
0
  0
LTYPE
  5
30
330
2
100
AcDbSymbolTableRecord
100
AcDbLinetypeTableRecord
  2
DASHDOT
 70
0
  3
Штрихпунктирная — · — · —
 72
65
 73
4
 40
14.0
 49
8.0
 74
0
 49
-3.0
 74
0
 49
0.0
 74
0
 49
-3.0
 74
0
  0
ENDTAB
  0
TABLE
  2
LAYER
  5
1
330
0
100
AcDbSymbolTable
 70
10
  0
LAYER
  5
27
330
1
100
AcDbSymbolTableRecord
100
AcDbLayerTableRecord
  2
0
 70
0
 62
7
  6
Continuous
370
-3
390
13
347
21
  0
LAYER
  5
28
330
1
100
AcDbSymbolTableRecord
100
AcDbLayerTableRecord
  2
Defpoints
 70
0
 62
7
  6
Continuous
290
0
370
-3
390
13
347
21
  0
LAYER
  5
32
330
1
100
AcDbSymbolTableRecord
100
AcDbLayerTableRecord
  2
GAS
 70
0
 62
30
420
14712622
  6
Continuous
370
35
390
13
347
21
1001
AcAecLayerStandard
1000

1000
Газовый тракт (оранжевый)
  0
LAYER
  5
34
330
1
100
AcDbSymbolTableRecord
100
AcDbLayerTableRecord
  2
LIQUID
 70
0
 62
5
420
2783446
  6
Continuous
370
35
390
13
347
21
1001
AcAecLayerStandard
1000

1000
Жидкостные потоки: кислота, растворы, вода (синий)
  0
LAYER
  5
35
330
1
100
AcDbSymbolTableRecord
100
AcDbLayerTableRecord
  2
DUST
 70
0
 62
6
420
10702494
  6
Continuous
370
35
390
13
347
21
1001
AcAecLayerStandard
1000

1000
Пылевой тракт: циклоны, фильтры (фиолетовый)
  0
LAYER
  5
36
330
1
100
AcDbSymbolTableRecord
100
AcDbLayerTableRecord
  2
ELECTRIC
 70
0
 62
2
420
16429593
  6
Continuous
370
30
390
13
347
21
1001
AcAecLayerStandard
1000

1000
Электрика / энергоснабжение (жёлтый)
  0
LAYER
  5
37
330
1
100
AcDbSymbolTableRecord
100
AcDbLayerTableRecord
  2
INTERLOCK
 70
0
 62
1
420
13646651
  6
Continuous
370
30
390
13
347
21
1001
AcAecLayerStandard
1000

1000
Блокировки и защиты (красный)
  0
LAYER
  5
38
330
1
100
AcDbSymbolTableRecord
100
AcDbLayerTableRecord
  2
OUTLINE
 70
0
 62
7
  6
Continuous
370
25
390
13
347
21
1001
AcAecLayerStandard
1000

1000
Контуры оборудования, строительная графика (ink)
  0
LAYER
  5
39
330
1
100
AcDbSymbolTableRecord
100
AcDbLayerTableRecord
  2
TEXT_RU
 70
0
 62
7
  6
Continuous
370
25
390
13
347
21
1001
AcAecLayerStandard
1000

1000
Надписи (русские, UTF-8)
  0
LAYER
  5
3A
330
1
100
AcDbSymbolTableRecord
100
AcDbLayerTableRecord
  2
DIM
 70
0
 62
8
  6
Continuous
370
13
390
13
347
21
1001
AcAecLayerStandard
1000

1000
Размерные и вспомогательные линии, рамка, сетка
  0
ENDTAB
  0
TABLE
  2
STYLE
  5
5
330
0
100
AcDbSymbolTable
 70
2
  0
STYLE
  5
29
330
5
100
AcDbSymbolTableRecord
100
AcDbTextStyleTableRecord
  2
Standard
 70
0
 40
0.0
 41
1.0
 50
0.0
 71
0
 42
2.5
  3
txt
  4

  0
STYLE
  5
31
330
5
100
AcDbSymbolTableRecord
100
AcDbTextStyleTableRecord
  2
TXTRU
 70
0
 40
0.0
 41
1.0
 50
0.0
 71
0
 42
2.5
  3
arial.ttf
  4

  0
ENDTAB
  0
TABLE
  2
VIEW
  5
7
330
0
100
AcDbSymbolTable
 70
0
  0
ENDTAB
  0
TABLE
  2
UCS
  5
6
330
0
100
AcDbSymbolTable
 70
0
  0
ENDTAB
  0
TABLE
  2
APPID
  5
3
330
0
100
AcDbSymbolTable
 70
4
  0
APPID
  5
2A
330
3
100
AcDbSymbolTableRecord
100
AcDbRegAppTableRecord
  2
ACAD
 70
0
  0
APPID
  5
33
330
3
100
AcDbSymbolTableRecord
100
AcDbRegAppTableRecord
  2
AcAecLayerStandard
 70
0
  0
APPID
  5
117
330
3
100
AcDbSymbolTableRecord
100
AcDbRegAppTableRecord
  2
HATCHBACKGROUNDCOLOR
 70
0
  0
APPID
  5
118
330
3
100
AcDbSymbolTableRecord
100
AcDbRegAppTableRecord
  2
EZDXF
 70
0
  0
ENDTAB
  0
TABLE
  2
DIMSTYLE
  5
4
330
0
100
AcDbSymbolTable
 70
1
100
AcDbDimStyleTable
  0
DIMSTYLE
105
2B
330
4
100
AcDbSymbolTableRecord
100
AcDbDimStyleTableRecord
  2
Standard
 70
0
 40
1.0
 41
2.5
 42
0.625
 43
3.75
 44
1.25
 45
0.0
 46
0.0
 47
0.0
 48
0.0
 49
2.5
140
2.5
141
2.5
142
0.0
143
0.03937007874
144
1.0
145
0.0
146
1.0
147
0.625
148
0.0
 69
0
 70
0
 71
0
 72
0
 73
0
 74
0
 75
0
 76
0
 77
1
 78
8
 79
3
170
0
171
3
172
1
173
0
174
0
175
0
176
0
177
0
178
0
179
2
271
2
272
2
273
2
274
3
275
0
276
0
277
2
278
44
279
0
280
0
281
0
282
0
283
0
284
8
285
0
286
0
288
0
289
3
290
0
371
-2
372
-2
  0
ENDTAB
  0
TABLE
  2
BLOCK_RECORD
  5
9
330
0
100
AcDbSymbolTable
 70
2
  0
BLOCK_RECORD
  5
17
330
9
100
AcDbSymbolTableRecord
100
AcDbBlockTableRecord
  2
*Model_Space
340
1A
 70
0
280
1
281
0
  0
BLOCK_RECORD
  5
1B
330
9
100
AcDbSymbolTableRecord
100
AcDbBlockTableRecord
  2
*Paper_Space
340
1E
 70
0
280
1
281
0
  0
ENDTAB
  0
ENDSEC
  0
SECTION
  2
BLOCKS
  0
BLOCK
  5
18
330
17
100
AcDbEntity
  8
0
100
AcDbBlockBegin
  2
*Model_Space
 70
0
 10
0.0
 20
0.0
 30
0.0
  3
*Model_Space
  1

  0
ENDBLK
  5
19
330
17
100
AcDbEntity
  8
0
100
AcDbBlockEnd
  0
BLOCK
  5
1C
330
1B
100
AcDbEntity
  8
0
100
AcDbBlockBegin
  2
*Paper_Space
 70
0
 10
0.0
 20
0.0
 30
0.0
  3
*Paper_Space
  1

  0
ENDBLK
  5
1D
330
1B
100
AcDbEntity
  8
0
100
AcDbBlockEnd
  0
ENDSEC
  0
SECTION
  2
ENTITIES
  0
LWPOLYLINE
  5
3B
330
17
100
AcDbEntity
  8
DIM
420
15198183
100
AcDbPolyline
 90
4
 70
1
 10
6.0
 20
634.0
 10
1184.0
 20
634.0
 10
1184.0
 20
6.0
 10
6.0
 20
6.0
  0
TEXT
  5
3C
330
17
100
AcDbEntity
  8
TEXT_RU
100
AcDbText
 10
1174.0
 20
610.0
 30
0.0
 40
8.4
  1
PFD · ЛОТ №2 — УЧАСТОК МЕДНОГО И МЕДНО-НИКЕЛЕВОГО КУПОРОСА
  7
TXTRU
 72
2
 11
1174.0
 21
610.0
 31
0.0
100
AcDbText
  0
TEXT
  5
3D
330
17
100
AcDbEntity
  8
TEXT_RU
100
AcDbText
 10
1174.0
 20
594.0
 30
0.0
 40
5.95
  1
синий — раствор/пульпа · оранжевый — греющий пар · фиолетовый — вакуум/соковый пар · зелёный — границы/выходы
  7
TXTRU
 72
2
 11
1174.0
 21
594.0
 31
0.0
100
AcDbText
  0
TEXT
  5
3E
330
17
100
AcDbEntity
  8
TEXT_RU
100
AcDbText
 10
20.0
 20
16.0
 30
0.0
 40
7.0
  1
ЭСКИЗ — не для строительства · PFD Лот №2 «Участок купоросов» · жирная обводка = 904L (ИД ч.2 разд. 4.2.1) · источники: bi_lot2.json — ИД ч.2 табл. 3.1/4.1, рис. 4.4–4.5, расчёт БИ · КВАНТ, черновик БИ
  7
TXTRU
 11
20.0
 21
16.0
 31
0.0
100
AcDbText
  0
TEXT
  5
3F
330
17
100
AcDbEntity
  8
TEXT_RU
100
AcDbText
 10
24.0
 20
592.0
 30
0.0
 40
7.0
  1
НИТКА 1 · МЕДНЫЙ КУПОРОС · 14 139 т/год (1,70 т/ч)
  7
TXTRU
 11
24.0
 21
592.0
 31
0.0
100
AcDbText
  0
LINE
  5
40
330
17
100
AcDbEntity
  8
DIM
  6
DASHED
420
15198183
100
AcDbLine
 10
20.0
 20
274.0
 30
0.0
 11
1170.0
 21
274.0
 31
0.0
  0
TEXT
  5
41
330
17
100
AcDbEntity
  8
TEXT_RU
100
AcDbText
 10
380.0
 20
266.0
 30
0.0
 40
7.0
  1
НИТКА 2 · СМЕШАННЫЙ Cu-Ni КУПОРОС · 6 658 т/год (0,80 т/ч)
  7
TXTRU
 11
380.0
 21
266.0
 31
0.0
100
AcDbText
  0
LWPOLYLINE
  5
42
330
17
100
AcDbEntity
  8
OUTLINE
420
828172
100
AcDbPolyline
 90
8
 70
1
 10
27.0
 20
584.0
 10
171.0
 20
584.0
 42
0.4142135623731024
 10
178.0
 20
577.0
 10
178.0
 20
525.0
 42
0.4142135623731024
 10
171.0
 20
518.0
 10
27.0
 20
518.0
 42
0.41421356237310086
 10
20.0
 20
525.0
 10
20.0
 20
577.0
 42
0.41421356237310086
  0
TEXT
  5
43
330
17
100
AcDbEntity
  8
TEXT_RU
100
AcDbText
 10
99.0
 20
566.0
 30
0.0
 40
8.05
  1
ФИЛЬТРАТ КФ — ВХОД
  7
TXTRU
 72
1
 11
99.0
 21
566.0
 31
0.0
100
AcDbText
  0
TEXT
  5
44
330
17
100
AcDbEntity
  8
TEXT_RU
100
AcDbText
 10
99.0
 20
552.0
 30
0.0
 40
6.65
  1
граница 4.3.1 — фланец от
  7
TXTRU
 72
1
 11
99.0
 21
552.0
 31
0.0
100
AcDbText
  0
TEXT
  5
45
330
17
100
AcDbEntity
  8
TEXT_RU
100
AcDbText
 10
99.0
 20
540.0
 30
0.0
 40
6.65
  1
ёмкости сбора поз. 4.1.19
  7
TXTRU
 72
1
 11
99.0
 21
540.0
 31
0.0
100
AcDbText
  0
TEXT
  5
46
330
17
100
AcDbEntity
  8
TEXT_RU
100
AcDbText
 10
99.0
 20
528.0
 30
0.0
 40
6.65
  1
42,2 тыс. м³/год = 5,07 м³/ч
  7
TXTRU
 72
1
 11
99.0
 21
528.0
 31
0.0
100
AcDbText
  0
LWPOLYLINE
  5
47
330
17
100
AcDbEntity
  8
LIQUID
100
AcDbPolyline
 90
8
 70
1
 10
215.0
 20
584.0
 10
305.0
 20
584.0
 42
0.41421356237309837
 10
312.0
 20
577.0
 10
312.0
 20
525.0
 42
0.41421356237309837
 10
305.0
 20
518.0
 10
215.0
 20
518.0
 42
0.4142135623731024
 10
208.0
 20
525.0
 10
208.0
 20
577.0
 42
0.4142135623731024
  0
TEXT
  5
48
330
17
100
AcDbEntity
  8
TEXT_RU
100
AcDbText
 10
260.0
 20
566.0
 30
0.0
 40
8.05
  1
БАК ПИТАНИЯ
  7
TXTRU
 72
1
 11
260.0
 21
566.0
 31
0.0
100
AcDbText
  0
TEXT
  5
49
330
17
100
AcDbEntity
  8
TEXT_RU
100
AcDbText
 10
260.0
 20
552.0
 30
0.0
 40
6.65
  1
поз. 4.1.22
  7
TXTRU
 72
1
 11
260.0
 21
552.0
 31
0.0
100
AcDbText
  0
LWPOLYLINE
  5
4A
330
17
100
AcDbEntity
  8
LIQUID
100
AcDbPolyline
 90
8
 70
1
 10
349.0
 20
584.0
 10
503.0
 20
584.0
 42
0.41421356237309837
 10
510.0
 20
577.0
 10
510.0
 20
525.0
 42
0.41421356237309837
 10
503.0
 20
518.0
 10
349.0
 20
518.0
 42
0.41421356237309837
 10
342.0
 20
525.0
 10
342.0
 20
577.0
 42
0.41421356237309837
  0
TEXT
  5
4B
330
17
100
AcDbEntity
  8
TEXT_RU
100
AcDbText
 10
426.0
 20
566.0
 30
0.0
 40
8.05
  1
ПОДОГРЕВАТЕЛЬ 63 м²
  7
TXTRU
 72
1
 11
426.0
 21
566.0
 31
0.0
100
AcDbText
  0
TEXT
  5
4C
330
17
100
AcDbEntity
  8
TEXT_RU
100
AcDbText
 10
426.0
 20
552.0
 30
0.0
 40
6.65
  1
глухой пар 2,1 т/ч (0,6 МПа)
  7
TXTRU
 72
1
 11
426.0
 21
552.0
 31
0.0
100
AcDbText
  0
TEXT
  5
4D
330
17
100
AcDbEntity
  8
TEXT_RU
100
AcDbText
 10
426.0
 20
540.0
 30
0.0
 40
6.65
  1
Q = 1,22 МВт · ΔT прохода 1,7 К
  7
TXTRU
 72
1
 11
426.0
 21
540.0
 31
0.0
100
AcDbText
  0
TEXT
  5
4E
330
17
100
AcDbEntity
  8
TEXT_RU
100
AcDbText
 10
426.0
 20
528.0
 30
0.0
 40
6.65
  1
циркуляция 633 м³/ч · 22 кВт
  7
TXTRU
 72
1
 11
426.0
 21
528.0
 31
0.0
100
AcDbText
  0
LWPOLYLINE
  5
4F
330
17
100
AcDbEntity
  8
LIQUID
100
AcDbPolyline
 90
8
 70
1
 10
547.0
 20
584.0
 10
701.0
 20
584.0
 42
0.4142135623731064
 10
708.0
 20
577.0
 10
708.0
 20
525.0
 42
0.4142135623731064
 10
701.0
 20
518.0
 10
547.0
 20
518.0
 42
0.4142135623731064
 10
540.0
 20
525.0
 10
540.0
 20
577.0
 42
0.4142135623731064
  0
TEXT
  5
50
330
17
100
AcDbEntity
  8
TEXT_RU
100
AcDbText
 10
624.0
 20
566.0
 30
0.0
 40
8.05
  1
ИСПАРИТЕЛЬ I СТ.
  7
TXTRU
 72
1
 11
624.0
 21
566.0
 31
0.0
100
AcDbText
  0
TEXT
  5
51
330
17
100
AcDbEntity
  8
TEXT_RU
100
AcDbText
 10
624.0
 20
552.0
 30
0.0
 40
6.65
  1
D 2,0 м · V 34,5 м³ · 40 °C
  7
TXTRU
 72
1
 11
624.0
 21
552.0
 31
0.0
100
AcDbText
  0
TEXT
  5
52
330
17
100
AcDbEntity
  8
TEXT_RU
100
AcDbText
 10
624.0
 20
540.0
 30
0.0
 40
6.65
  1
0,06–0,08 атм · сок. пар 2,2 т/ч
  7
TXTRU
 72
1
 11
624.0
 21
540.0
 31
0.0
100
AcDbText
  0
TEXT
  5
53
330
17
100
AcDbEntity
  8
TEXT_RU
100
AcDbText
 10
624.0
 20
528.0
 30
0.0
 40
6.65
  1
ж:т 9,18 · твёрдое до 0,2 т/м³
  7
TXTRU
 72
1
 11
624.0
 21
528.0
 31
0.0
100
AcDbText
  0
LWPOLYLINE
  5
54
330
17
100
AcDbEntity
  8
LIQUID
100
AcDbPolyline
 90
8
 70
1
 10
745.0
 20
584.0
 10
899.0
 20
584.0
 42
0.4142135623731064
 10
906.0
 20
577.0
 10
906.0
 20
525.0
 42
0.4142135623731064
 10
899.0
 20
518.0
 10
745.0
 20
518.0
 42
0.4142135623731064
 10
738.0
 20
525.0
 10
738.0
 20
577.0
 42
0.4142135623731064
  0
TEXT
  5
55
330
17
100
AcDbEntity
  8
TEXT_RU
100
AcDbText
 10
822.0
 20
566.0
 30
0.0
 40
8.05
  1
ИСПАРИТЕЛЬ II СТ.
  7
TXTRU
 72
1
 11
822.0
 21
566.0
 31
0.0
100
AcDbText
  0
TEXT
  5
56
330
17
100
AcDbEntity
  8
TEXT_RU
100
AcDbText
 10
822.0
 20
552.0
 30
0.0
 40
6.65
  1
самоиспарение · 20 °C
  7
TXTRU
 72
1
 11
822.0
 21
552.0
 31
0.0
100
AcDbText
  0
TEXT
  5
57
330
17
100
AcDbEntity
  8
TEXT_RU
100
AcDbText
 10
822.0
 20
540.0
 30
0.0
 40
6.65
  1
0,013–0,02 атм · сок. пар 0,29 т/ч
  7
TXTRU
 72
1
 11
822.0
 21
540.0
 31
0.0
100
AcDbText
  0
TEXT
  5
58
330
17
100
AcDbEntity
  8
TEXT_RU
100
AcDbText
 10
822.0
 20
528.0
 30
0.0
 40
6.65
  1
ж:т 2,45 · кристаллы до 2 мм
  7
TXTRU
 72
1
 11
822.0
 21
528.0
 31
0.0
100
AcDbText
  0
LWPOLYLINE
  5
59
330
17
100
AcDbEntity
  8
LIQUID
100
AcDbPolyline
 90
8
 70
1
 10
937.0
 20
584.0
 10
1075.0
 20
584.0
 42
0.4142135623730902
 10
1082.0
 20
577.0
 10
1082.0
 20
525.0
 42
0.4142135623730902
 10
1075.0
 20
518.0
 10
937.0
 20
518.0
 42
0.4142135623731064
 10
930.0
 20
525.0
 10
930.0
 20
577.0
 42
0.4142135623731064
  0
TEXT
  5
5A
330
17
100
AcDbEntity
  8
TEXT_RU
100
AcDbText
 10
1006.0
 20
566.0
 30
0.0
 40
8.05
  1
СОЛЕВЫЕ КОЛОННЫ
  7
TXTRU
 72
1
 11
1006.0
 21
566.0
 31
0.0
100
AcDbText
  0
TEXT
  5
5B
330
17
100
AcDbEntity
  8
TEXT_RU
100
AcDbText
 10
1006.0
 20
552.0
 30
0.0
 40
6.65
  1
гидрозатворы пульпы
  7
TXTRU
 72
1
 11
1006.0
 21
552.0
 31
0.0
100
AcDbText
  0
TEXT
  5
5C
330
17
100
AcDbEntity
  8
TEXT_RU
100
AcDbText
 10
1006.0
 20
540.0
 30
0.0
 40
6.65
  1
столб 7,0–7,9 м
  7
TXTRU
 72
1
 11
1006.0
 21
540.0
 31
0.0
100
AcDbText
  0
LINE
  5
5D
330
17
100
AcDbEntity
  8
LIQUID
100
AcDbLine
 10
178.0
 20
551.0
 30
0.0
 11
208.0
 21
551.0
 31
0.0
  0
SOLID
  5
5E
330
17
100
AcDbEntity
  8
LIQUID
100
AcDbTrace
 10
194.4
 20
557.8
 30
0.0
 11
209.7
 21
551.0
 31
0.0
 12
194.4
 22
544.2
 32
0.0
 13
194.4
 23
544.2
 33
0.0
  0
LINE
  5
5F
330
17
100
AcDbEntity
  8
LIQUID
100
AcDbLine
 10
312.0
 20
551.0
 30
0.0
 11
342.0
 21
551.0
 31
0.0
  0
SOLID
  5
60
330
17
100
AcDbEntity
  8
LIQUID
100
AcDbTrace
 10
328.4
 20
557.8
 30
0.0
 11
343.7
 21
551.0
 31
0.0
 12
328.4
 22
544.2
 32
0.0
 13
328.4
 23
544.2
 33
0.0
  0
LINE
  5
61
330
17
100
AcDbEntity
  8
LIQUID
100
AcDbLine
 10
510.0
 20
551.0
 30
0.0
 11
540.0
 21
551.0
 31
0.0
  0
SOLID
  5
62
330
17
100
AcDbEntity
  8
LIQUID
100
AcDbTrace
 10
526.4
 20
557.8
 30
0.0
 11
541.7
 21
551.0
 31
0.0
 12
526.4
 22
544.2
 32
0.0
 13
526.4
 23
544.2
 33
0.0
  0
LINE
  5
63
330
17
100
AcDbEntity
  8
LIQUID
100
AcDbLine
 10
708.0
 20
551.0
 30
0.0
 11
738.0
 21
551.0
 31
0.0
  0
SOLID
  5
64
330
17
100
AcDbEntity
  8
LIQUID
100
AcDbTrace
 10
724.4
 20
557.8
 30
0.0
 11
739.7
 21
551.0
 31
0.0
 12
724.4
 22
544.2
 32
0.0
 13
724.4
 23
544.2
 33
0.0
  0
LINE
  5
65
330
17
100
AcDbEntity
  8
LIQUID
100
AcDbLine
 10
906.0
 20
551.0
 30
0.0
 11
930.0
 21
551.0
 31
0.0
  0
SOLID
  5
66
330
17
100
AcDbEntity
  8
LIQUID
100
AcDbTrace
 10
916.4
 20
557.8
 30
0.0
 11
931.7
 21
551.0
 31
0.0
 12
916.4
 22
544.2
 32
0.0
 13
916.4
 23
544.2
 33
0.0
  0
LWPOLYLINE
  5
67
330
17
100
AcDbEntity
  8
OUTLINE
420
828172
100
AcDbPolyline
 90
8
 70
1
 10
27.0
 20
470.0
 10
163.0
 20
470.0
 42
0.4142135623731024
 10
170.0
 20
463.0
 10
170.0
 20
411.0
 42
0.4142135623731024
 10
163.0
 20
404.0
 10
27.0
 20
404.0
 42
0.41421356237310086
 10
20.0
 20
411.0
 10
20.0
 20
463.0
 42
0.41421356237310086
  0
TEXT
  5
68
330
17
100
AcDbEntity
  8
TEXT_RU
100
AcDbText
 10
95.0
 20
452.0
 30
0.0
 40
8.05
  1
ПАР 0,6 МПа — ВВОД
  7
TXTRU
 72
1
 11
95.0
 21
452.0
 31
0.0
100
AcDbText
  0
TEXT
  5
69
330
17
100
AcDbEntity
  8
TEXT_RU
100
AcDbText
 10
95.0
 20
438.0
 30
0.0
 40
6.65
  1
граница 4.3.3 —
  7
TXTRU
 72
1
 11
95.0
 21
438.0
 31
0.0
100
AcDbText
  0
TEXT
  5
6A
330
17
100
AcDbEntity
  8
TEXT_RU
100
AcDbText
 10
95.0
 20
426.0
 30
0.0
 40
6.65
  1
фланец на стене цеха
  7
TXTRU
 72
1
 11
95.0
 21
426.0
 31
0.0
100
AcDbText
  0
TEXT
  5
6B
330
17
100
AcDbEntity
  8
TEXT_RU
100
AcDbText
 10
95.0
 20
414.0
 30
0.0
 40
6.65
  1
подогр. 3,0 + эжект. 1,36 т/ч
  7
TXTRU
 72
1
 11
95.0
 21
414.0
 31
0.0
100
AcDbText
  0
LWPOLYLINE
  5
6C
330
17
100
AcDbEntity
  8
GAS
100
AcDbPolyline
 90
4
 70
0
 10
95.0
 20
470.0
 10
95.0
 20
494.0
 10
426.0
 20
494.0
 10
426.0
 20
518.0
  0
SOLID
  5
6D
330
17
100
AcDbEntity
  8
GAS
100
AcDbTrace
 10
419.2
 20
504.4
 30
0.0
 11
426.0
 21
519.7
 31
0.0
 12
432.8
 22
504.4
 32
0.0
 13
432.8
 23
504.4
 33
0.0
  0
TEXT
  5
6E
330
17
100
AcDbEntity
  8
TEXT_RU
420
14712622
100
AcDbText
 10
240.0
 20
499.0
 30
0.0
 40
6.51
  1
пар 2,1 т/ч
  7
TXTRU
 11
240.0
 21
499.0
 31
0.0
100
AcDbText
  0
LWPOLYLINE
  5
6F
330
17
100
AcDbEntity
  8
GAS
100
AcDbPolyline
 90
4
 70
0
 10
40.0
 20
404.0
 10
40.0
 20
170.0
 10
505.0
 20
170.0
 10
505.0
 20
192.0
  0
SOLID
  5
70
330
17
100
AcDbEntity
  8
GAS
100
AcDbTrace
 10
498.2
 20
178.39999999999998
 30
0.0
 11
505.0
 21
193.7
 31
0.0
 12
511.8
 22
178.39999999999998
 32
0.0
 13
511.8
 23
178.39999999999998
 33
0.0
  0
TEXT
  5
71
330
17
100
AcDbEntity
  8
TEXT_RU
420
14712622
100
AcDbText
 10
250.0
 20
175.0
 30
0.0
 40
6.51
  1
пар 0,85–0,95 т/ч
  7
TXTRU
 11
250.0
 21
175.0
 31
0.0
100
AcDbText
  0
LWPOLYLINE
  5
72
330
17
100
AcDbEntity
  8
DUST
100
AcDbPolyline
 90
8
 70
1
 10
217.0
 20
470.0
 10
383.0
 20
470.0
 42
0.41421356237309837
 10
390.0
 20
463.0
 10
390.0
 20
411.0
 42
0.41421356237309837
 10
383.0
 20
404.0
 10
217.0
 20
404.0
 42
0.4142135623731024
 10
210.0
 20
411.0
 10
210.0
 20
463.0
 42
0.4142135623731024
  0
TEXT
  5
73
330
17
100
AcDbEntity
  8
TEXT_RU
100
AcDbText
 10
300.0
 20
452.0
 30
0.0
 40
8.05
  1
ПЭБ НИТКИ 1
  7
TXTRU
 72
1
 11
300.0
 21
452.0
 31
0.0
100
AcDbText
  0
TEXT
  5
74
330
17
100
AcDbEntity
  8
TEXT_RU
100
AcDbText
 10
300.0
 20
438.0
 30
0.0
 40
6.65
  1
эжектор 0,27 т/ч (6 атм)
  7
TXTRU
 72
1
 11
300.0
 21
438.0
 31
0.0
100
AcDbText
  0
TEXT
  5
75
330
17
100
AcDbEntity
  8
TEXT_RU
100
AcDbText
 10
300.0
 20
426.0
 30
0.0
 40
6.65
  1
конденсатор D 0,5 м — 32 м³/ч
  7
TXTRU
 72
1
 11
300.0
 21
426.0
 31
0.0
100
AcDbText
  0
TEXT
  5
76
330
17
100
AcDbEntity
  8
TEXT_RU
100
AcDbText
 10
300.0
 20
414.0
 30
0.0
 40
6.65
  1
вакуум-насос ВВН1-6 · отсос ПГС
  7
TXTRU
 72
1
 11
300.0
 21
414.0
 31
0.0
100
AcDbText
  0
LWPOLYLINE
  5
77
330
17
100
AcDbEntity
  8
DUST
100
AcDbPolyline
 90
8
 70
1
 10
431.0
 20
470.0
 10
601.0
 20
470.0
 42
0.4142135623731064
 10
608.0
 20
463.0
 10
608.0
 20
411.0
 42
0.4142135623731064
 10
601.0
 20
404.0
 10
431.0
 20
404.0
 42
0.41421356237309837
 10
424.0
 20
411.0
 10
424.0
 20
463.0
 42
0.41421356237309837
  0
TEXT
  5
78
330
17
100
AcDbEntity
  8
TEXT_RU
100
AcDbText
 10
516.0
 20
452.0
 30
0.0
 40
8.05
  1
БАРОМ. КОНДЕНСАТОР 1
  7
TXTRU
 72
1
 11
516.0
 21
452.0
 31
0.0
100
AcDbText
  0
TEXT
  5
79
330
17
100
AcDbEntity
  8
TEXT_RU
100
AcDbText
 10
516.0
 20
438.0
 30
0.0
 40
6.65
  1
0,075 атм · нагрузка 3,24 т/ч
  7
TXTRU
 72
1
 11
516.0
 21
438.0
 31
0.0
100
AcDbText
  0
TEXT
  5
7A
330
17
100
AcDbEntity
  8
TEXT_RU
100
AcDbText
 10
516.0
 20
426.0
 30
0.0
 40
6.65
  1
Q = 2,17 МВт
  7
TXTRU
 72
1
 11
516.0
 21
426.0
 31
0.0
100
AcDbText
  0
TEXT
  5
7B
330
17
100
AcDbEntity
  8
TEXT_RU
100
AcDbText
 10
516.0
 20
414.0
 30
0.0
 40
6.65
  1
вода 380 м³/ч · 22,5 → 27,4 °C
  7
TXTRU
 72
1
 11
516.0
 21
414.0
 31
0.0
100
AcDbText
  0
LWPOLYLINE
  5
7C
330
17
100
AcDbEntity
  8
DUST
100
AcDbPolyline
 90
8
 70
1
 10
707.0
 20
470.0
 10
853.0
 20
470.0
 42
0.4142135623731064
 10
860.0
 20
463.0
 10
860.0
 20
411.0
 42
0.4142135623731064
 10
853.0
 20
404.0
 10
707.0
 20
404.0
 42
0.4142135623731064
 10
700.0
 20
411.0
 10
700.0
 20
463.0
 42
0.4142135623731064
  0
TEXT
  5
7D
330
17
100
AcDbEntity
  8
TEXT_RU
100
AcDbText
 10
780.0
 20
452.0
 30
0.0
 40
8.05
  1
ЭЖЕКТОР II СТ. 1
  7
TXTRU
 72
1
 11
780.0
 21
452.0
 31
0.0
100
AcDbText
  0
TEXT
  5
7E
330
17
100
AcDbEntity
  8
TEXT_RU
100
AcDbText
 10
780.0
 20
438.0
 30
0.0
 40
6.65
  1
рабочий пар 0,75 т/ч (6 атм)
  7
TXTRU
 72
1
 11
780.0
 21
438.0
 31
0.0
100
AcDbText
  0
TEXT
  5
7F
330
17
100
AcDbEntity
  8
TEXT_RU
100
AcDbText
 10
780.0
 20
426.0
 30
0.0
 40
6.65
  1
производит. 0,375 т/ч сок. пара
  7
TXTRU
 72
1
 11
780.0
 21
426.0
 31
0.0
100
AcDbText
  0
TEXT
  5
80
330
17
100
AcDbEntity
  8
TEXT_RU
100
AcDbText
 10
780.0
 20
414.0
 30
0.0
 40
6.65
  1
коэфф. эжекции u = 0,5
  7
TXTRU
 72
1
 11
780.0
 21
414.0
 31
0.0
100
AcDbText
  0
LWPOLYLINE
  5
81
330
17
100
AcDbEntity
  8
LIQUID
100
AcDbPolyline
 90
8
 70
1
 10
943.0
 20
470.0
 10
1069.0
 20
470.0
 42
0.4142135623730902
 10
1076.0
 20
463.0
 10
1076.0
 20
433.0
 42
0.4142135623730902
 10
1069.0
 20
426.0
 10
943.0
 20
426.0
 42
0.4142135623731064
 10
936.0
 20
433.0
 10
936.0
 20
463.0
 42
0.4142135623731064
  0
TEXT
  5
82
330
17
100
AcDbEntity
  8
TEXT_RU
100
AcDbText
 10
1006.0
 20
452.0
 30
0.0
 40
8.05
  1
РЕПУЛЬПАТОР
  7
TXTRU
 72
1
 11
1006.0
 21
452.0
 31
0.0
100
AcDbText
  0
TEXT
  5
83
330
17
100
AcDbEntity
  8
TEXT_RU
100
AcDbText
 10
1006.0
 20
438.0
 30
0.0
 40
6.65
  1
поз. 3 · 2,5 м³
  7
TXTRU
 72
1
 11
1006.0
 21
438.0
 31
0.0
100
AcDbText
  0
LINE
  5
84
330
17
100
AcDbEntity
  8
DUST
100
AcDbLine
 10
560.0
 20
518.0
 30
0.0
 11
560.0
 21
470.0
 31
0.0
  0
SOLID
  5
85
330
17
100
AcDbEntity
  8
DUST
100
AcDbTrace
 10
566.8
 20
483.6
 30
0.0
 11
560.0
 21
468.3
 31
0.0
 12
553.2
 22
483.6
 32
0.0
 13
553.2
 23
483.6
 33
0.0
  0
TEXT
  5
86
330
17
100
AcDbEntity
  8
TEXT_RU
420
10702494
100
AcDbText
 10
566.0
 20
490.0
 30
0.0
 40
6.51
  1
сок. пар 2,2 т/ч
  7
TXTRU
 11
566.0
 21
490.0
 31
0.0
100
AcDbText
  0
LINE
  5
87
330
17
100
AcDbEntity
  8
DUST
100
AcDbLine
 10
790.0
 20
518.0
 30
0.0
 11
790.0
 21
470.0
 31
0.0
  0
SOLID
  5
88
330
17
100
AcDbEntity
  8
DUST
100
AcDbTrace
 10
796.8
 20
483.6
 30
0.0
 11
790.0
 21
468.3
 31
0.0
 12
783.2
 22
483.6
 32
0.0
 13
783.2
 23
483.6
 33
0.0
  0
TEXT
  5
89
330
17
100
AcDbEntity
  8
TEXT_RU
420
10702494
100
AcDbText
 10
784.0
 20
490.0
 30
0.0
 40
6.51
  1
сок. пар 0,29 т/ч
  7
TXTRU
 72
2
 11
784.0
 21
490.0
 31
0.0
100
AcDbText
  0
HATCH
  5
8A
330
17
100
AcDbEntity
  8
GAS
 62
7
100
AcDbHatch
 10
0.0
 20
0.0
 30
0.0
210
0.0
220
0.0
230
1.0
  2
SOLID
 70
1
 71
0
 91
1
 92
1
 93
1
 72
2
 10
845.0
 20
493.0
 40
3.0
 50
0
 51
360
 73
1
 97
0
 75
0
 76
1
 98
0
  0
LINE
  5
8B
330
17
100
AcDbEntity
  8
GAS
100
AcDbLine
 10
845.0
 20
490.0
 30
0.0
 11
845.0
 21
470.0
 31
0.0
  0
SOLID
  5
8C
330
17
100
AcDbEntity
  8
GAS
100
AcDbTrace
 10
851.8
 20
483.6
 30
0.0
 11
845.0
 21
468.3
 31
0.0
 12
838.2
 22
483.6
 32
0.0
 13
838.2
 23
483.6
 33
0.0
  0
TEXT
  5
8D
330
17
100
AcDbEntity
  8
TEXT_RU
420
14712622
100
AcDbText
 10
852.0
 20
484.0
 30
0.0
 40
6.51
  1
пар 6 атм · 0,75 т/ч
  7
TXTRU
 11
852.0
 21
484.0
 31
0.0
100
AcDbText
  0
HATCH
  5
8E
330
17
100
AcDbEntity
  8
DIM
 62
7
100
AcDbHatch
 10
0.0
 20
0.0
 30
0.0
210
0.0
220
0.0
230
1.0
  2
SOLID
 70
1
 71
0
 91
1
 92
1
 93
1
 72
2
 10
445.0
 20
493.0
 40
3.0
 50
0
 51
360
 73
1
 97
0
 75
0
 76
1
 98
0
  0
LINE
  5
8F
330
17
100
AcDbEntity
  8
DIM
100
AcDbLine
 10
445.0
 20
490.0
 30
0.0
 11
445.0
 21
470.0
 31
0.0
  0
SOLID
  5
90
330
17
100
AcDbEntity
  8
DIM
100
AcDbTrace
 10
451.8
 20
483.6
 30
0.0
 11
445.0
 21
468.3
 31
0.0
 12
438.2
 22
483.6
 32
0.0
 13
438.2
 23
483.6
 33
0.0
  0
TEXT
  5
91
330
17
100
AcDbEntity
  8
TEXT_RU
100
AcDbText
 10
439.0
 20
480.0
 30
0.0
 40
6.51
  1
вода СОВ 380 м³/ч
  7
TXTRU
 72
2
 11
439.0
 21
480.0
 31
0.0
100
AcDbText
  0
LINE
  5
92
330
17
100
AcDbEntity
  8
DUST
100
AcDbLine
 10
700.0
 20
437.0
 30
0.0
 11
608.0
 21
437.0
 31
0.0
  0
SOLID
  5
93
330
17
100
AcDbEntity
  8
DUST
100
AcDbTrace
 10
621.6
 20
430.2
 30
0.0
 11
606.3
 21
437.0
 31
0.0
 12
621.6
 22
443.8
 32
0.0
 13
621.6
 23
443.8
 33
0.0
  0
TEXT
  5
94
330
17
100
AcDbEntity
  8
TEXT_RU
420
10702494
100
AcDbText
 10
654.0
 20
443.0
 30
0.0
 40
6.51
  1
выхлоп
  7
TXTRU
 72
1
 11
654.0
 21
443.0
 31
0.0
100
AcDbText
  0
LINE
  5
95
330
17
100
AcDbEntity
  8
DUST
100
AcDbLine
 10
424.0
 20
437.0
 30
0.0
 11
390.0
 21
437.0
 31
0.0
  0
SOLID
  5
96
330
17
100
AcDbEntity
  8
DUST
100
AcDbTrace
 10
403.6
 20
430.2
 30
0.0
 11
388.3
 21
437.0
 31
0.0
 12
403.6
 22
443.8
 32
0.0
 13
403.6
 23
443.8
 33
0.0
  0
TEXT
  5
97
330
17
100
AcDbEntity
  8
TEXT_RU
420
10702494
100
AcDbText
 10
407.0
 20
443.0
 30
0.0
 40
6.51
  1
ПГС
  7
TXTRU
 72
1
 11
407.0
 21
443.0
 31
0.0
100
AcDbText
  0
LINE
  5
98
330
17
100
AcDbEntity
  8
LIQUID
100
AcDbLine
 10
1006.0
 20
518.0
 30
0.0
 11
1006.0
 21
470.0
 31
0.0
  0
SOLID
  5
99
330
17
100
AcDbEntity
  8
LIQUID
100
AcDbTrace
 10
1012.8
 20
483.6
 30
0.0
 11
1006.0
 21
468.3
 31
0.0
 12
999.2
 22
483.6
 32
0.0
 13
999.2
 23
483.6
 33
0.0
  0
TEXT
  5
9A
330
17
100
AcDbEntity
  8
TEXT_RU
420
2783446
100
AcDbText
 10
1012.0
 20
490.0
 30
0.0
 40
6.51
  1
кристаллы
  7
TXTRU
 11
1012.0
 21
490.0
 31
0.0
100
AcDbText
  0
LWPOLYLINE
  5
9B
330
17
100
AcDbEntity
  8
DIM
100
AcDbPolyline
 90
8
 70
1
 10
217.0
 20
368.0
 10
453.0
 20
368.0
 42
0.4142135623730902
 10
460.0
 20
361.0
 10
460.0
 20
309.0
 42
0.4142135623730902
 10
453.0
 20
302.0
 10
217.0
 20
302.0
 42
0.4142135623730943
 10
210.0
 20
309.0
 10
210.0
 20
361.0
 42
0.4142135623730943
  0
TEXT
  5
9C
330
17
100
AcDbEntity
  8
TEXT_RU
100
AcDbText
 10
335.0
 20
350.0
 30
0.0
 40
8.05
  1
КИСЛАЯ СОВ — ГИДРОЗАТВОРЫ
  7
TXTRU
 72
1
 11
335.0
 21
350.0
 31
0.0
100
AcDbText
  0
TEXT
  5
9D
330
17
100
AcDbEntity
  8
TEXT_RU
100
AcDbText
 10
335.0
 20
336.0
 30
0.0
 40
6.65
  1
орошение конденсаторов 568 м³/ч (сумм.)
  7
TXTRU
 72
1
 11
335.0
 21
336.0
 31
0.0
100
AcDbText
  0
TEXT
  5
9E
330
17
100
AcDbEntity
  8
TEXT_RU
100
AcDbText
 10
335.0
 20
324.0
 30
0.0
 40
6.65
  1
тёплая вода → градирня кислой СОВ
  7
TXTRU
 72
1
 11
335.0
 21
324.0
 31
0.0
100
AcDbText
  0
TEXT
  5
9F
330
17
100
AcDbEntity
  8
TEXT_RU
100
AcDbText
 10
335.0
 20
312.0
 30
0.0
 40
6.65
  1
профицит ≈4,7 м³/ч — в производство
  7
TXTRU
 72
1
 11
335.0
 21
312.0
 31
0.0
100
AcDbText
  0
LINE
  5
A0
330
17
100
AcDbEntity
  8
DUST
100
AcDbLine
 10
300.0
 20
404.0
 30
0.0
 11
300.0
 21
368.0
 31
0.0
  0
SOLID
  5
A1
330
17
100
AcDbEntity
  8
DUST
100
AcDbTrace
 10
306.8
 20
381.6
 30
0.0
 11
300.0
 21
366.3
 31
0.0
 12
293.2
 22
381.6
 32
0.0
 13
293.2
 23
381.6
 33
0.0
  0
TEXT
  5
A2
330
17
100
AcDbEntity
  8
TEXT_RU
420
10702494
100
AcDbText
 10
306.0
 20
384.0
 30
0.0
 40
6.51
  1
труба Ду 100–125
  7
TXTRU
 11
306.0
 21
384.0
 31
0.0
100
AcDbText
  0
LINE
  5
A3
330
17
100
AcDbEntity
  8
DUST
100
AcDbLine
 10
450.0
 20
404.0
 30
0.0
 11
450.0
 21
368.0
 31
0.0
  0
SOLID
  5
A4
330
17
100
AcDbEntity
  8
DUST
100
AcDbTrace
 10
456.8
 20
381.6
 30
0.0
 11
450.0
 21
366.3
 31
0.0
 12
443.2
 22
381.6
 32
0.0
 13
443.2
 23
381.6
 33
0.0
  0
TEXT
  5
A5
330
17
100
AcDbEntity
  8
TEXT_RU
420
10702494
100
AcDbText
 10
456.0
 20
376.0
 30
0.0
 40
6.51
  1
баром. труба Ду 350–400 · H ≈ 10,5 м
  7
TXTRU
 11
456.0
 21
376.0
 31
0.0
100
AcDbText
  0
LWPOLYLINE
  5
A6
330
17
100
AcDbEntity
  8
OUTLINE
420
828172
100
AcDbPolyline
 90
8
 70
1
 10
487.0
 20
368.0
 10
743.0
 20
368.0
 42
0.41421356237309837
 10
750.0
 20
361.0
 10
750.0
 20
309.0
 42
0.41421356237309837
 10
743.0
 20
302.0
 10
487.0
 20
302.0
 42
0.4142135623730902
 10
480.0
 20
309.0
 10
480.0
 20
361.0
 42
0.4142135623730902
  0
TEXT
  5
A7
330
17
100
AcDbEntity
  8
TEXT_RU
100
AcDbText
 10
615.0
 20
350.0
 30
0.0
 40
8.05
  1
МЕДНЫЙ КУПОРОС — ГРАНИЦА 4.3.4
  7
TXTRU
 72
1
 11
615.0
 21
350.0
 31
0.0
100
AcDbText
  0
TEXT
  5
A8
330
17
100
AcDbEntity
  8
TEXT_RU
100
AcDbText
 10
615.0
 20
336.0
 30
0.0
 40
6.65
  1
14 139 т/год (1,70 т/ч) · фланец центрифуг
  7
TXTRU
 72
1
 11
615.0
 21
336.0
 31
0.0
100
AcDbText
  0
TEXT
  5
A9
330
17
100
AcDbEntity
  8
TEXT_RU
100
AcDbText
 10
615.0
 20
324.0
 30
0.0
 40
6.65
  1
растворение: 65–75 °C · эл-т 3,2–3,5 м³/ч
  7
TXTRU
 72
1
 11
615.0
 21
324.0
 31
0.0
100
AcDbText
  0
TEXT
  5
AA
330
17
100
AcDbEntity
  8
TEXT_RU
100
AcDbText
 10
615.0
 20
312.0
 30
0.0
 40
6.65
  1
р-р Cu 95–120 кг/м³ → возврат на КФ
  7
TXTRU
 72
1
 11
615.0
 21
312.0
 31
0.0
100
AcDbText
  0
LWPOLYLINE
  5
AB
330
17
100
AcDbEntity
  8
LIQUID
100
AcDbPolyline
 90
8
 70
1
 10
929.0
 20
368.0
 10
1083.0
 20
368.0
 42
0.4142135623730821
 10
1090.0
 20
361.0
 10
1090.0
 20
309.0
 42
0.4142135623730821
 10
1083.0
 20
302.0
 10
929.0
 20
302.0
 42
0.41421356237309837
 10
922.0
 20
309.0
 10
922.0
 20
361.0
 42
0.41421356237309837
  0
TEXT
  5
AC
330
17
100
AcDbEntity
  8
TEXT_RU
100
AcDbText
 10
1006.0
 20
350.0
 30
0.0
 40
8.05
  1
ЦЕНТРИФУГИ 2×2,5 Т/Ч
  7
TXTRU
 72
1
 11
1006.0
 21
350.0
 31
0.0
100
AcDbText
  0
TEXT
  5
AD
330
17
100
AcDbEntity
  8
TEXT_RU
100
AcDbText
 10
1006.0
 20
336.0
 30
0.0
 40
6.65
  1
пульсирующие, раб. + рез.
  7
TXTRU
 72
1
 11
1006.0
 21
336.0
 31
0.0
100
AcDbText
  0
TEXT
  5
AE
330
17
100
AcDbEntity
  8
TEXT_RU
100
AcDbText
 10
1006.0
 20
324.0
 30
0.0
 40
6.65
  1
1800 об/мин · 15 кВт
  7
TXTRU
 72
1
 11
1006.0
 21
324.0
 31
0.0
100
AcDbText
  0
TEXT
  5
AF
330
17
100
AcDbEntity
  8
TEXT_RU
100
AcDbText
 10
1006.0
 20
312.0
 30
0.0
 40
6.65
  1
влажность осадка 4–6 %
  7
TXTRU
 72
1
 11
1006.0
 21
312.0
 31
0.0
100
AcDbText
  0
LINE
  5
B0
330
17
100
AcDbEntity
  8
LIQUID
100
AcDbLine
 10
1006.0
 20
426.0
 30
0.0
 11
1006.0
 21
368.0
 31
0.0
  0
SOLID
  5
B1
330
17
100
AcDbEntity
  8
LIQUID
100
AcDbTrace
 10
1012.8
 20
381.6
 30
0.0
 11
1006.0
 21
366.3
 31
0.0
 12
999.2
 22
381.6
 32
0.0
 13
999.2
 23
381.6
 33
0.0
  0
TEXT
  5
B2
330
17
100
AcDbEntity
  8
TEXT_RU
420
2783446
100
AcDbText
 10
1012.0
 20
396.0
 30
0.0
 40
6.51
  1
пульпа
  7
TXTRU
 11
1012.0
 21
396.0
 31
0.0
100
AcDbText
  0
LINE
  5
B3
330
17
100
AcDbEntity
  8
LIQUID
100
AcDbLine
 10
922.0
 20
335.0
 30
0.0
 11
750.0
 21
335.0
 31
0.0
  0
SOLID
  5
B4
330
17
100
AcDbEntity
  8
LIQUID
100
AcDbTrace
 10
763.6
 20
328.2
 30
0.0
 11
748.3
 21
335.0
 31
0.0
 12
763.6
 22
341.8
 32
0.0
 13
763.6
 23
341.8
 33
0.0
  0
TEXT
  5
B5
330
17
100
AcDbEntity
  8
TEXT_RU
420
2783446
100
AcDbText
 10
836.0
 20
341.0
 30
0.0
 40
6.51
  1
медный купорос
  7
TXTRU
 72
1
 11
836.0
 21
341.0
 31
0.0
100
AcDbText
  0
LWPOLYLINE
  5
B6
330
17
100
AcDbEntity
  8
LIQUID
100
AcDbPolyline
 90
4
 70
0
 10
1090.0
 20
335.0
 10
1120.0
 20
335.0
 10
1120.0
 20
551.0
 10
1082.0
 20
551.0
  0
SOLID
  5
B7
330
17
100
AcDbEntity
  8
LIQUID
100
AcDbTrace
 10
1093.2
 20
545.4
 30
0.0
 11
1080.6
 21
551.0
 31
0.0
 12
1093.2
 22
556.6
 32
0.0
 13
1093.2
 23
556.6
 33
0.0
  0
TEXT
  5
B8
330
17
100
AcDbEntity
  8
TEXT_RU
420
2783446
100
AcDbText
 10
1130.0
 20
443.0
 30
0.0
 40
6.3
  1
фугат — бак поз. 7, в сол. колонны и II ст.
 50
90.0
  7
TXTRU
 72
1
 11
1130.0
 21
443.0
 31
0.0
100
AcDbText
  0
LWPOLYLINE
  5
B9
330
17
100
AcDbEntity
  8
LIQUID
100
AcDbPolyline
 90
5
 70
0
 10
906.0
 20
530.0
 10
920.0
 20
530.0
 10
920.0
 20
288.0
 10
300.0
 20
288.0
 10
300.0
 20
262.0
  0
SOLID
  5
BA
330
17
100
AcDbEntity
  8
LIQUID
100
AcDbTrace
 10
306.8
 20
275.6
 30
0.0
 11
300.0
 21
260.3
 31
0.0
 12
293.2
 22
275.6
 32
0.0
 13
293.2
 23
275.6
 33
0.0
  0
TEXT
  5
BB
330
17
100
AcDbEntity
  8
TEXT_RU
420
2783446
100
AcDbText
 10
610.0
 20
293.0
 30
0.0
 40
6.51
  1
маточник-1 · 11,81 тыс. м³/год · на нитку 2
  7
TXTRU
 72
1
 11
610.0
 21
293.0
 31
0.0
100
AcDbText
  0
LWPOLYLINE
  5
BC
330
17
100
AcDbEntity
  8
LIQUID
100
AcDbPolyline
 90
8
 70
1
 10
237.0
 20
258.0
 10
343.0
 20
258.0
 42
0.4142135623730902
 10
350.0
 20
251.0
 10
350.0
 20
199.0
 42
0.4142135623730902
 10
343.0
 20
192.0
 10
237.0
 20
192.0
 42
0.4142135623730943
 10
230.0
 20
199.0
 10
230.0
 20
251.0
 42
0.4142135623730943
  0
TEXT
  5
BD
330
17
100
AcDbEntity
  8
TEXT_RU
100
AcDbText
 10
290.0
 20
240.0
 30
0.0
 40
8.05
  1
ОБОГРЕВ. БАК
  7
TXTRU
 72
1
 11
290.0
 21
240.0
 31
0.0
100
AcDbText
  0
TEXT
  5
BE
330
17
100
AcDbEntity
  8
TEXT_RU
100
AcDbText
 10
290.0
 20
226.0
 30
0.0
 40
6.65
  1
поз. 4.1.5
  7
TXTRU
 72
1
 11
290.0
 21
226.0
 31
0.0
100
AcDbText
  0
TEXT
  5
BF
330
17
100
AcDbEntity
  8
TEXT_RU
100
AcDbText
 10
290.0
 20
214.0
 30
0.0
 40
6.65
  1
маточник-1
  7
TXTRU
 72
1
 11
290.0
 21
214.0
 31
0.0
100
AcDbText
  0
LWPOLYLINE
  5
C0
330
17
100
AcDbEntity
  8
LIQUID
100
AcDbPolyline
 90
8
 70
1
 10
397.0
 20
258.0
 10
553.0
 20
258.0
 42
0.41421356237309837
 10
560.0
 20
251.0
 10
560.0
 20
199.0
 42
0.41421356237309837
 10
553.0
 20
192.0
 10
397.0
 20
192.0
 42
0.4142135623730902
 10
390.0
 20
199.0
 10
390.0
 20
251.0
 42
0.4142135623730902
  0
TEXT
  5
C1
330
17
100
AcDbEntity
  8
TEXT_RU
100
AcDbText
 10
475.0
 20
240.0
 30
0.0
 40
8.05
  1
ПОДОГРЕВАТЕЛЬ 25 м²
  7
TXTRU
 72
1
 11
475.0
 21
240.0
 31
0.0
100
AcDbText
  0
TEXT
  5
C2
330
17
100
AcDbEntity
  8
TEXT_RU
100
AcDbText
 10
475.0
 20
226.0
 30
0.0
 40
6.65
  1
глухой пар 0,85–0,95 т/ч
  7
TXTRU
 72
1
 11
475.0
 21
226.0
 31
0.0
100
AcDbText
  0
TEXT
  5
C3
330
17
100
AcDbEntity
  8
TEXT_RU
100
AcDbText
 10
475.0
 20
214.0
 30
0.0
 40
6.65
  1
Q = 0,52 МВт · ΔT прохода 1,8 К
  7
TXTRU
 72
1
 11
475.0
 21
214.0
 31
0.0
100
AcDbText
  0
TEXT
  5
C4
330
17
100
AcDbEntity
  8
TEXT_RU
100
AcDbText
 10
475.0
 20
202.0
 30
0.0
 40
6.65
  1
циркуляция 251 м³/ч · 11 кВт
  7
TXTRU
 72
1
 11
475.0
 21
202.0
 31
0.0
100
AcDbText
  0
LWPOLYLINE
  5
C5
330
17
100
AcDbEntity
  8
LIQUID
100
AcDbPolyline
 90
8
 70
1
 10
597.0
 20
258.0
 10
733.0
 20
258.0
 42
0.41421356237309837
 10
740.0
 20
251.0
 10
740.0
 20
199.0
 42
0.41421356237309837
 10
733.0
 20
192.0
 10
597.0
 20
192.0
 42
0.41421356237309837
 10
590.0
 20
199.0
 10
590.0
 20
251.0
 42
0.41421356237309837
  0
TEXT
  5
C6
330
17
100
AcDbEntity
  8
TEXT_RU
100
AcDbText
 10
665.0
 20
240.0
 30
0.0
 40
8.05
  1
ИСПАРИТЕЛЬ I СТ.
  7
TXTRU
 72
1
 11
665.0
 21
240.0
 31
0.0
100
AcDbText
  0
TEXT
  5
C7
330
17
100
AcDbEntity
  8
TEXT_RU
100
AcDbText
 10
665.0
 20
226.0
 30
0.0
 40
6.65
  1
D 1,3 м · V 8,9 м³ · 40 °C
  7
TXTRU
 72
1
 11
665.0
 21
226.0
 31
0.0
100
AcDbText
  0
TEXT
  5
C8
330
17
100
AcDbEntity
  8
TEXT_RU
100
AcDbText
 10
665.0
 20
214.0
 30
0.0
 40
6.65
  1
0,06–0,10 атм
  7
TXTRU
 72
1
 11
665.0
 21
214.0
 31
0.0
100
AcDbText
  0
TEXT
  5
C9
330
17
100
AcDbEntity
  8
TEXT_RU
100
AcDbText
 10
665.0
 20
202.0
 30
0.0
 40
6.65
  1
сок. пар 0,7–0,8 т/ч
  7
TXTRU
 72
1
 11
665.0
 21
202.0
 31
0.0
100
AcDbText
  0
LWPOLYLINE
  5
CA
330
17
100
AcDbEntity
  8
LIQUID
100
AcDbPolyline
 90
8
 70
1
 10
777.0
 20
258.0
 10
913.0
 20
258.0
 42
0.41421356237309837
 10
920.0
 20
251.0
 10
920.0
 20
199.0
 42
0.41421356237309837
 10
913.0
 20
192.0
 10
777.0
 20
192.0
 42
0.41421356237309837
 10
770.0
 20
199.0
 10
770.0
 20
251.0
 42
0.41421356237309837
  0
TEXT
  5
CB
330
17
100
AcDbEntity
  8
TEXT_RU
100
AcDbText
 10
845.0
 20
240.0
 30
0.0
 40
8.05
  1
ИСПАРИТЕЛЬ II СТ.
  7
TXTRU
 72
1
 11
845.0
 21
240.0
 31
0.0
100
AcDbText
  0
TEXT
  5
CC
330
17
100
AcDbEntity
  8
TEXT_RU
100
AcDbText
 10
845.0
 20
226.0
 30
0.0
 40
6.65
  1
самоиспарение · 20 °C
  7
TXTRU
 72
1
 11
845.0
 21
226.0
 31
0.0
100
AcDbText
  0
TEXT
  5
CD
330
17
100
AcDbEntity
  8
TEXT_RU
100
AcDbText
 10
845.0
 20
214.0
 30
0.0
 40
6.65
  1
0,013–0,02 атм
  7
TXTRU
 72
1
 11
845.0
 21
214.0
 31
0.0
100
AcDbText
  0
TEXT
  5
CE
330
17
100
AcDbEntity
  8
TEXT_RU
100
AcDbText
 10
845.0
 20
202.0
 30
0.0
 40
6.65
  1
сок. пар 0,07 т/ч · ж:т 1,70
  7
TXTRU
 72
1
 11
845.0
 21
202.0
 31
0.0
100
AcDbText
  0
LWPOLYLINE
  5
CF
330
17
100
AcDbEntity
  8
LIQUID
100
AcDbPolyline
 90
8
 70
1
 10
953.0
 20
258.0
 10
1117.0
 20
258.0
 42
0.4142135623730821
 10
1124.0
 20
251.0
 10
1124.0
 20
199.0
 42
0.4142135623730821
 10
1117.0
 20
192.0
 10
953.0
 20
192.0
 42
0.41421356237309837
 10
946.0
 20
199.0
 10
946.0
 20
251.0
 42
0.41421356237309837
  0
TEXT
  5
D0
330
17
100
AcDbEntity
  8
TEXT_RU
100
AcDbText
 10
1035.0
 20
240.0
 30
0.0
 40
8.05
  1
ЦЕНТРИФУГИ 2×1,5 Т/Ч
  7
TXTRU
 72
1
 11
1035.0
 21
240.0
 31
0.0
100
AcDbText
  0
TEXT
  5
D1
330
17
100
AcDbEntity
  8
TEXT_RU
100
AcDbText
 10
1035.0
 20
226.0
 30
0.0
 40
6.65
  1
рабочая + резервная
  7
TXTRU
 72
1
 11
1035.0
 21
226.0
 31
0.0
100
AcDbText
  0
TEXT
  5
D2
330
17
100
AcDbEntity
  8
TEXT_RU
100
AcDbText
 10
1035.0
 20
214.0
 30
0.0
 40
6.65
  1
промывка фильтратом 0,15 м³/т
  7
TXTRU
 72
1
 11
1035.0
 21
214.0
 31
0.0
100
AcDbText
  0
TEXT
  5
D3
330
17
100
AcDbEntity
  8
TEXT_RU
100
AcDbText
 10
1035.0
 20
202.0
 30
0.0
 40
6.65
  1
влажность осадка 4–6 %
  7
TXTRU
 72
1
 11
1035.0
 21
202.0
 31
0.0
100
AcDbText
  0
LINE
  5
D4
330
17
100
AcDbEntity
  8
LIQUID
100
AcDbLine
 10
350.0
 20
225.0
 30
0.0
 11
390.0
 21
225.0
 31
0.0
  0
SOLID
  5
D5
330
17
100
AcDbEntity
  8
LIQUID
100
AcDbTrace
 10
376.4
 20
231.8
 30
0.0
 11
391.7
 21
225.0
 31
0.0
 12
376.4
 22
218.2
 32
0.0
 13
376.4
 23
218.2
 33
0.0
  0
LINE
  5
D6
330
17
100
AcDbEntity
  8
LIQUID
100
AcDbLine
 10
560.0
 20
225.0
 30
0.0
 11
590.0
 21
225.0
 31
0.0
  0
SOLID
  5
D7
330
17
100
AcDbEntity
  8
LIQUID
100
AcDbTrace
 10
576.4
 20
231.8
 30
0.0
 11
591.7
 21
225.0
 31
0.0
 12
576.4
 22
218.2
 32
0.0
 13
576.4
 23
218.2
 33
0.0
  0
LINE
  5
D8
330
17
100
AcDbEntity
  8
LIQUID
100
AcDbLine
 10
740.0
 20
225.0
 30
0.0
 11
770.0
 21
225.0
 31
0.0
  0
SOLID
  5
D9
330
17
100
AcDbEntity
  8
LIQUID
100
AcDbTrace
 10
756.4
 20
231.8
 30
0.0
 11
771.7
 21
225.0
 31
0.0
 12
756.4
 22
218.2
 32
0.0
 13
756.4
 23
218.2
 33
0.0
  0
LINE
  5
DA
330
17
100
AcDbEntity
  8
LIQUID
100
AcDbLine
 10
920.0
 20
225.0
 30
0.0
 11
946.0
 21
225.0
 31
0.0
  0
SOLID
  5
DB
330
17
100
AcDbEntity
  8
LIQUID
100
AcDbTrace
 10
932.4
 20
231.8
 30
0.0
 11
947.7
 21
225.0
 31
0.0
 12
932.4
 22
218.2
 32
0.0
 13
932.4
 23
218.2
 33
0.0
  0
LWPOLYLINE
  5
DC
330
17
100
AcDbEntity
  8
DUST
100
AcDbPolyline
 90
8
 70
1
 10
237.0
 20
148.0
 10
403.0
 20
148.0
 42
0.4142135623730902
 10
410.0
 20
141.0
 10
410.0
 20
89.0
 42
0.41421356237309837
 10
403.0
 20
82.0
 10
237.0
 20
82.0
 42
0.4142135623731024
 10
230.0
 20
89.0
 10
230.0
 20
141.0
 42
0.4142135623730943
  0
TEXT
  5
DD
330
17
100
AcDbEntity
  8
TEXT_RU
100
AcDbText
 10
320.0
 20
130.0
 30
0.0
 40
8.05
  1
ПЭБ НИТКИ 2
  7
TXTRU
 72
1
 11
320.0
 21
130.0
 31
0.0
100
AcDbText
  0
TEXT
  5
DE
330
17
100
AcDbEntity
  8
TEXT_RU
100
AcDbText
 10
320.0
 20
116.0
 30
0.0
 40
6.65
  1
эжектор 0,16 т/ч (6 атм)
  7
TXTRU
 72
1
 11
320.0
 21
116.0
 31
0.0
100
AcDbText
  0
TEXT
  5
DF
330
17
100
AcDbEntity
  8
TEXT_RU
100
AcDbText
 10
320.0
 20
104.0
 30
0.0
 40
6.65
  1
конденсатор D 0,5 м — 18 м³/ч
  7
TXTRU
 72
1
 11
320.0
 21
104.0
 31
0.0
100
AcDbText
  0
TEXT
  5
E0
330
17
100
AcDbEntity
  8
TEXT_RU
100
AcDbText
 10
320.0
 20
92.0
 30
0.0
 40
6.65
  1
вакуум-насос ВВН1-3 · отсос ПГС
  7
TXTRU
 72
1
 11
320.0
 21
92.0
 31
0.0
100
AcDbText
  0
LWPOLYLINE
  5
E1
330
17
100
AcDbEntity
  8
DUST
100
AcDbPolyline
 90
8
 70
1
 10
451.0
 20
148.0
 10
621.0
 20
148.0
 42
0.41421356237309837
 10
628.0
 20
141.0
 10
628.0
 20
89.0
 42
0.4142135623731064
 10
621.0
 20
82.0
 10
451.0
 20
82.0
 42
0.41421356237309837
 10
444.0
 20
89.0
 10
444.0
 20
141.0
 42
0.4142135623730902
  0
TEXT
  5
E2
330
17
100
AcDbEntity
  8
TEXT_RU
100
AcDbText
 10
536.0
 20
130.0
 30
0.0
 40
8.05
  1
БАРОМ. КОНДЕНСАТОР 2
  7
TXTRU
 72
1
 11
536.0
 21
130.0
 31
0.0
100
AcDbText
  0
TEXT
  5
E3
330
17
100
AcDbEntity
  8
TEXT_RU
100
AcDbText
 10
536.0
 20
116.0
 30
0.0
 40
6.65
  1
0,075 атм · нагрузка 1,0 т/ч
  7
TXTRU
 72
1
 11
536.0
 21
116.0
 31
0.0
100
AcDbText
  0
TEXT
  5
E4
330
17
100
AcDbEntity
  8
TEXT_RU
100
AcDbText
 10
536.0
 20
104.0
 30
0.0
 40
6.65
  1
Q = 0,67 МВт
  7
TXTRU
 72
1
 11
536.0
 21
104.0
 31
0.0
100
AcDbText
  0
TEXT
  5
E5
330
17
100
AcDbEntity
  8
TEXT_RU
100
AcDbText
 10
536.0
 20
92.0
 30
0.0
 40
6.65
  1
вода 138 м³/ч · ΔT ≈ 4,2 К
  7
TXTRU
 72
1
 11
536.0
 21
92.0
 31
0.0
100
AcDbText
  0
LWPOLYLINE
  5
E6
330
17
100
AcDbEntity
  8
DUST
100
AcDbPolyline
 90
8
 70
1
 10
707.0
 20
148.0
 10
853.0
 20
148.0
 42
0.41421356237309837
 10
860.0
 20
141.0
 10
860.0
 20
89.0
 42
0.4142135623731064
 10
853.0
 20
82.0
 10
707.0
 20
82.0
 42
0.4142135623731064
 10
700.0
 20
89.0
 10
700.0
 20
141.0
 42
0.41421356237309837
  0
TEXT
  5
E7
330
17
100
AcDbEntity
  8
TEXT_RU
100
AcDbText
 10
780.0
 20
130.0
 30
0.0
 40
8.05
  1
ЭЖЕКТОР II СТ. 2
  7
TXTRU
 72
1
 11
780.0
 21
130.0
 31
0.0
100
AcDbText
  0
TEXT
  5
E8
330
17
100
AcDbEntity
  8
TEXT_RU
100
AcDbText
 10
780.0
 20
116.0
 30
0.0
 40
6.65
  1
рабочий пар 0,18 т/ч (6 атм)
  7
TXTRU
 72
1
 11
780.0
 21
116.0
 31
0.0
100
AcDbText
  0
TEXT
  5
E9
330
17
100
AcDbEntity
  8
TEXT_RU
100
AcDbText
 10
780.0
 20
104.0
 30
0.0
 40
6.65
  1
производит. 0,090 т/ч сок. пара
  7
TXTRU
 72
1
 11
780.0
 21
104.0
 31
0.0
100
AcDbText
  0
TEXT
  5
EA
330
17
100
AcDbEntity
  8
TEXT_RU
100
AcDbText
 10
780.0
 20
92.0
 30
0.0
 40
6.65
  1
коэфф. эжекции u = 0,5
  7
TXTRU
 72
1
 11
780.0
 21
92.0
 31
0.0
100
AcDbText
  0
LWPOLYLINE
  5
EB
330
17
100
AcDbEntity
  8
OUTLINE
420
828172
100
AcDbPolyline
 90
8
 70
1
 10
945.0
 20
148.0
 10
1135.0
 20
148.0
 42
0.4142135623730821
 10
1142.0
 20
141.0
 10
1142.0
 20
89.0
 42
0.4142135623730902
 10
1135.0
 20
82.0
 10
945.0
 20
82.0
 42
0.4142135623731064
 10
938.0
 20
89.0
 10
938.0
 20
141.0
 42
0.41421356237309837
  0
TEXT
  5
EC
330
17
100
AcDbEntity
  8
TEXT_RU
100
AcDbText
 10
1040.0
 20
130.0
 30
0.0
 40
8.05
  1
ФАСОВКА — ГРАНИЦА 4.3.5
  7
TXTRU
 72
1
 11
1040.0
 21
130.0
 31
0.0
100
AcDbText
  0
TEXT
  5
ED
330
17
100
AcDbEntity
  8
TEXT_RU
100
AcDbText
 10
1040.0
 20
116.0
 30
0.0
 40
6.65
  1
биг-беги с ПЭ-вкладышем
  7
TXTRU
 72
1
 11
1040.0
 21
116.0
 31
0.0
100
AcDbText
  0
TEXT
  5
EE
330
17
100
AcDbEntity
  8
TEXT_RU
100
AcDbText
 10
1040.0
 20
104.0
 30
0.0
 40
6.65
  1
взвешивание · пробоотбор
  7
TXTRU
 72
1
 11
1040.0
 21
104.0
 31
0.0
100
AcDbText
  0
TEXT
  5
EF
330
17
100
AcDbEntity
  8
TEXT_RU
100
AcDbText
 10
1040.0
 20
92.0
 30
0.0
 40
6.65
  1
через склад → NNH
  7
TXTRU
 72
1
 11
1040.0
 21
92.0
 31
0.0
100
AcDbText
  0
LINE
  5
F0
330
17
100
AcDbEntity
  8
DUST
100
AcDbLine
 10
610.0
 20
192.0
 30
0.0
 11
610.0
 21
148.0
 31
0.0
  0
SOLID
  5
F1
330
17
100
AcDbEntity
  8
DUST
100
AcDbTrace
 10
616.8
 20
161.60000000000002
 30
0.0
 11
610.0
 21
146.3
 31
0.0
 12
603.2
 22
161.60000000000002
 32
0.0
 13
603.2
 23
161.60000000000002
 33
0.0
  0
TEXT
  5
F2
330
17
100
AcDbEntity
  8
TEXT_RU
420
10702494
100
AcDbText
 10
616.0
 20
162.0
 30
0.0
 40
6.51
  1
сок. пар 0,7–0,8 т/ч
  7
TXTRU
 11
616.0
 21
162.0
 31
0.0
100
AcDbText
  0
LINE
  5
F3
330
17
100
AcDbEntity
  8
DUST
100
AcDbLine
 10
800.0
 20
192.0
 30
0.0
 11
800.0
 21
148.0
 31
0.0
  0
SOLID
  5
F4
330
17
100
AcDbEntity
  8
DUST
100
AcDbTrace
 10
806.8
 20
161.60000000000002
 30
0.0
 11
800.0
 21
146.3
 31
0.0
 12
793.2
 22
161.60000000000002
 32
0.0
 13
793.2
 23
161.60000000000002
 33
0.0
  0
HATCH
  5
F5
330
17
100
AcDbEntity
  8
DIM
 62
7
100
AcDbHatch
 10
0.0
 20
0.0
 30
0.0
210
0.0
220
0.0
230
1.0
  2
SOLID
 70
1
 71
0
 91
1
 92
1
 93
1
 72
2
 10
560.0
 20
173.0
 40
3.0
 50
0
 51
360
 73
1
 97
0
 75
0
 76
1
 98
0
  0
LINE
  5
F6
330
17
100
AcDbEntity
  8
DIM
100
AcDbLine
 10
560.0
 20
170.0
 30
0.0
 11
560.0
 21
148.0
 31
0.0
  0
SOLID
  5
F7
330
17
100
AcDbEntity
  8
DIM
100
AcDbTrace
 10
566.8
 20
161.60000000000002
 30
0.0
 11
560.0
 21
146.3
 31
0.0
 12
553.2
 22
161.60000000000002
 32
0.0
 13
553.2
 23
161.60000000000002
 33
0.0
  0
TEXT
  5
F8
330
17
100
AcDbEntity
  8
TEXT_RU
100
AcDbText
 10
554.0
 20
159.0
 30
0.0
 40
6.51
  1
вода СОВ 138 м³/ч
  7
TXTRU
 72
2
 11
554.0
 21
159.0
 31
0.0
100
AcDbText
  0
HATCH
  5
F9
330
17
100
AcDbEntity
  8
GAS
 62
7
100
AcDbHatch
 10
0.0
 20
0.0
 30
0.0
210
0.0
220
0.0
230
1.0
  2
SOLID
 70
1
 71
0
 91
1
 92
1
 93
1
 72
2
 10
730.0
 20
173.0
 40
3.0
 50
0
 51
360
 73
1
 97
0
 75
0
 76
1
 98
0
  0
LINE
  5
FA
330
17
100
AcDbEntity
  8
GAS
100
AcDbLine
 10
730.0
 20
170.0
 30
0.0
 11
730.0
 21
148.0
 31
0.0
  0
SOLID
  5
FB
330
17
100
AcDbEntity
  8
GAS
100
AcDbTrace
 10
736.8
 20
161.60000000000002
 30
0.0
 11
730.0
 21
146.3
 31
0.0
 12
723.2
 22
161.60000000000002
 32
0.0
 13
723.2
 23
161.60000000000002
 33
0.0
  0
TEXT
  5
FC
330
17
100
AcDbEntity
  8
TEXT_RU
420
14712622
100
AcDbText
 10
722.0
 20
178.0
 30
0.0
 40
6.51
  1
пар 6 атм · 0,18 т/ч
  7
TXTRU
 72
2
 11
722.0
 21
178.0
 31
0.0
100
AcDbText
  0
LINE
  5
FD
330
17
100
AcDbEntity
  8
LIQUID
100
AcDbLine
 10
1035.0
 20
192.0
 30
0.0
 11
1035.0
 21
148.0
 31
0.0
  0
SOLID
  5
FE
330
17
100
AcDbEntity
  8
LIQUID
100
AcDbTrace
 10
1041.8
 20
161.60000000000002
 30
0.0
 11
1035.0
 21
146.3
 31
0.0
 12
1028.2
 22
161.60000000000002
 32
0.0
 13
1028.2
 23
161.60000000000002
 33
0.0
  0
TEXT
  5
FF
330
17
100
AcDbEntity
  8
TEXT_RU
420
2783446
100
AcDbText
 10
1041.0
 20
162.0
 30
0.0
 40
6.51
  1
смеш. купорос 0,80 т/ч
  7
TXTRU
 11
1041.0
 21
162.0
 31
0.0
100
AcDbText
  0
LINE
  5
100
330
17
100
AcDbEntity
  8
DUST
100
AcDbLine
 10
700.0
 20
115.0
 30
0.0
 11
628.0
 21
115.0
 31
0.0
  0
SOLID
  5
101
330
17
100
AcDbEntity
  8
DUST
100
AcDbTrace
 10
641.6
 20
108.20000000000005
 30
0.0
 11
626.3
 21
115.0
 31
0.0
 12
641.6
 22
121.79999999999995
 32
0.0
 13
641.6
 23
121.79999999999995
 33
0.0
  0
TEXT
  5
102
330
17
100
AcDbEntity
  8
TEXT_RU
420
10702494
100
AcDbText
 10
664.0
 20
121.0
 30
0.0
 40
6.51
  1
выхлоп
  7
TXTRU
 72
1
 11
664.0
 21
121.0
 31
0.0
100
AcDbText
  0
LINE
  5
103
330
17
100
AcDbEntity
  8
DUST
100
AcDbLine
 10
444.0
 20
115.0
 30
0.0
 11
410.0
 21
115.0
 31
0.0
  0
SOLID
  5
104
330
17
100
AcDbEntity
  8
DUST
100
AcDbTrace
 10
423.6
 20
108.20000000000005
 30
0.0
 11
408.3
 21
115.0
 31
0.0
 12
423.6
 22
121.79999999999995
 32
0.0
 13
423.6
 23
121.79999999999995
 33
0.0
  0
TEXT
  5
105
330
17
100
AcDbEntity
  8
TEXT_RU
420
10702494
100
AcDbText
 10
427.0
 20
121.0
 30
0.0
 40
6.51
  1
ПГС
  7
TXTRU
 72
1
 11
427.0
 21
121.0
 31
0.0
100
AcDbText
  0
LWPOLYLINE
  5
106
330
17
100
AcDbEntity
  8
DIM
100
AcDbPolyline
 90
8
 70
1
 10
187.0
 20
72.0
 10
423.0
 20
72.0
 42
0.41421356237309837
 10
430.0
 20
65.0
 10
430.0
 20
35.0
 42
0.41421356237309837
 10
423.0
 20
28.0
 10
187.0
 20
28.0
 42
0.4142135623731024
 10
180.0
 20
35.0
 10
180.0
 20
65.0
 42
0.4142135623731024
  0
TEXT
  5
107
330
17
100
AcDbEntity
  8
TEXT_RU
100
AcDbText
 10
305.0
 20
54.0
 30
0.0
 40
8.05
  1
В КИСЛУЮ СОВ
  7
TXTRU
 72
1
 11
305.0
 21
54.0
 31
0.0
100
AcDbText
  0
TEXT
  5
108
330
17
100
AcDbEntity
  8
TEXT_RU
100
AcDbText
 10
305.0
 20
40.0
 30
0.0
 40
6.65
  1
на градирню кислой СОВ
  7
TXTRU
 72
1
 11
305.0
 21
40.0
 31
0.0
100
AcDbText
  0
LINE
  5
109
330
17
100
AcDbEntity
  8
DUST
100
AcDbLine
 10
300.0
 20
82.0
 30
0.0
 11
300.0
 21
72.0
 31
0.0
  0
SOLID
  5
10A
330
17
100
AcDbEntity
  8
DUST
100
AcDbTrace
 10
306.8
 20
85.60000000000002
 30
0.0
 11
300.0
 21
70.29999999999995
 31
0.0
 12
293.2
 22
85.60000000000002
 32
0.0
 13
293.2
 23
85.60000000000002
 33
0.0
  0
LWPOLYLINE
  5
10B
330
17
100
AcDbEntity
  8
DUST
100
AcDbPolyline
 90
3
 70
0
 10
470.0
 20
82.0
 10
470.0
 20
50.0
 10
430.0
 20
50.0
  0
SOLID
  5
10C
330
17
100
AcDbEntity
  8
DUST
100
AcDbTrace
 10
443.6
 20
43.200000000000045
 30
0.0
 11
428.3
 21
50.0
 31
0.0
 12
443.6
 22
56.799999999999955
 32
0.0
 13
443.6
 23
56.799999999999955
 33
0.0
  0
TEXT
  5
10D
330
17
100
AcDbEntity
  8
TEXT_RU
420
10702494
100
AcDbText
 10
478.0
 20
60.0
 30
0.0
 40
6.51
  1
баром. труба Ду 200–250
  7
TXTRU
 11
478.0
 21
60.0
 31
0.0
100
AcDbText
  0
LWPOLYLINE
  5
10E
330
17
100
AcDbEntity
  8
OUTLINE
420
828172
100
AcDbPolyline
 90
8
 70
1
 10
657.0
 20
72.0
 10
873.0
 20
72.0
 42
0.4142135623731064
 10
880.0
 20
65.0
 10
880.0
 20
35.0
 42
0.4142135623731064
 10
873.0
 20
28.0
 10
657.0
 20
28.0
 42
0.4142135623731064
 10
650.0
 20
35.0
 10
650.0
 20
65.0
 42
0.4142135623731064
  0
TEXT
  5
10F
330
17
100
AcDbEntity
  8
TEXT_RU
100
AcDbText
 10
765.0
 20
54.0
 30
0.0
 40
8.05
  1
ПРОЧИЕ ГРАНИЦЫ ЛОТА
  7
TXTRU
 72
1
 11
765.0
 21
54.0
 31
0.0
100
AcDbText
  0
TEXT
  5
110
330
17
100
AcDbEntity
  8
TEXT_RU
100
AcDbText
 10
765.0
 20
40.0
 30
0.0
 40
6.65
  1
4.3.2 воздух · 4.3.6 вода · 4.3.7 эл. 0,4 кВ
  7
TXTRU
 72
1
 11
765.0
 21
40.0
 31
0.0
100
AcDbText
  0
LWPOLYLINE
  5
111
330
17
100
AcDbEntity
  8
OUTLINE
420
828172
100
AcDbPolyline
 90
8
 70
1
 10
957.0
 20
72.0
 10
1113.0
 20
72.0
 42
0.4142135623730902
 10
1120.0
 20
65.0
 10
1120.0
 20
35.0
 42
0.4142135623730902
 10
1113.0
 20
28.0
 10
957.0
 20
28.0
 42
0.4142135623731064
 10
950.0
 20
35.0
 10
950.0
 20
65.0
 42
0.4142135623731064
  0
TEXT
  5
112
330
17
100
AcDbEntity
  8
TEXT_RU
100
AcDbText
 10
1035.0
 20
54.0
 30
0.0
 40
8.05
  1
МАТОЧНИК-2 — В ЦЭН
  7
TXTRU
 72
1
 11
1035.0
 21
54.0
 31
0.0
100
AcDbText
  0
TEXT
  5
113
330
17
100
AcDbEntity
  8
TEXT_RU
100
AcDbText
 10
1035.0
 20
40.0
 30
0.0
 40
6.65
  1
1,8 тыс. м³/год · бак поз. 4.1.26
  7
TXTRU
 72
1
 11
1035.0
 21
40.0
 31
0.0
100
AcDbText
  0
LWPOLYLINE
  5
114
330
17
100
AcDbEntity
  8
LIQUID
100
AcDbPolyline
 90
3
 70
0
 10
895.0
 20
192.0
 10
895.0
 20
50.0
 10
950.0
 20
50.0
  0
SOLID
  5
115
330
17
100
AcDbEntity
  8
LIQUID
100
AcDbTrace
 10
936.4
 20
56.799999999999955
 30
0.0
 11
951.7
 21
50.0
 31
0.0
 12
936.4
 22
43.200000000000045
 32
0.0
 13
936.4
 23
43.200000000000045
 33
0.0
  0
TEXT
  5
116
330
17
100
AcDbEntity
  8
TEXT_RU
420
2783446
100
AcDbText
 10
903.0
 20
120.0
 30
0.0
 40
6.3
  1
маточник-2 · 1,8 тыс. м³/год
 50
90.0
  7
TXTRU
 72
1
 11
903.0
 21
120.0
 31
0.0
100
AcDbText
  0
ENDSEC
  0
SECTION
  2
OBJECTS
  0
DICTIONARY
  5
A
330
0
100
AcDbDictionary
281
1
  3
ACAD_COLOR
350
B
  3
ACAD_GROUP
350
C
  3
ACAD_LAYOUT
350
D
  3
ACAD_MATERIAL
350
E
  3
ACAD_MLEADERSTYLE
350
F
  3
ACAD_MLINESTYLE
350
10
  3
ACAD_PLOTSETTINGS
350
11
  3
ACAD_PLOTSTYLENAME
350
12
  3
ACAD_SCALELIST
350
14
  3
ACAD_TABLESTYLE
350
15
  3
ACAD_VISUALSTYLE
350
16
  3
EZDXF_META
350
2D
  0
DICTIONARY
  5
B
330
A
100
AcDbDictionary
281
1
  0
DICTIONARY
  5
C
330
A
100
AcDbDictionary
281
1
  0
DICTIONARY
  5
D
330
A
100
AcDbDictionary
281
1
  3
Model
350
1A
  3
Layout1
350
1E
  0
DICTIONARY
  5
E
330
A
100
AcDbDictionary
281
1
  3
ByBlock
350
1F
  3
ByLayer
350
20
  3
Global
350
21
  0
DICTIONARY
  5
F
330
A
100
AcDbDictionary
281
1
  3
Standard
350
2C
  0
DICTIONARY
  5
10
330
A
100
AcDbDictionary
281
1
  3
Standard
350
22
  0
DICTIONARY
  5
11
330
A
100
AcDbDictionary
281
1
  0
ACDBDICTIONARYWDFLT
  5
12
330
A
100
AcDbDictionary
281
1
  3
Normal
350
13
100
AcDbDictionaryWithDefault
340
13
  0
ACDBPLACEHOLDER
  5
13
330
12
  0
DICTIONARY
  5
14
330
A
100
AcDbDictionary
281
1
  0
DICTIONARY
  5
15
330
A
100
AcDbDictionary
281
1
  0
DICTIONARY
  5
16
330
A
100
AcDbDictionary
281
1
  0
LAYOUT
  5
1A
330
D
100
AcDbPlotSettings
  1

  4
A3
  6

 40
7.5
 41
20.0
 42
7.5
 43
20.0
 44
420.0
 45
297.0
 46
0.0
 47
0.0
 48
0.0
 49
0.0
140
0.0
141
0.0
142
1.0
143
1.0
 70
1024
 72
1
 73
0
 74
5
  7

 75
16
 76
0
 77
2
 78
300
147
1.0
148
0.0
149
0.0
100
AcDbLayout
  1
Model
 70
1
 71
0
 10
0.0
 20
0.0
 11
1190.0
 21
640.0
 12
0.0
 22
0.0
 32
0.0
 14
-0.01
 24
-0.01
 34
0.0
 15
1190.0
 25
640.0
 35
0.0
146
0.0
 13
0.0
 23
0.0
 33
0.0
 16
1.0
 26
0.0
 36
0.0
 17
0.0
 27
1.0
 37
0.0
 76
1
330
17
  0
LAYOUT
  5
1E
330
D
100
AcDbPlotSettings
  1

  4
A3
  6

 40
7.5
 41
20.0
 42
7.5
 43
20.0
 44
420.0
 45
297.0
 46
0.0
 47
0.0
 48
0.0
 49
0.0
140
0.0
141
0.0
142
1.0
143
1.0
 70
0
 72
1
 73
0
 74
5
  7

 75
16
 76
0
 77
2
 78
300
147
1.0
148
0.0
149
0.0
100
AcDbLayout
  1
Layout1
 70
1
 71
1
 10
0.0
 20
0.0
 11
420.0
 21
297.0
 12
0.0
 22
0.0
 32
0.0
 14
1e+20
 24
1e+20
 34
1e+20
 15
-1e+20
 25
-1e+20
 35
-1e+20
146
0.0
 13
0.0
 23
0.0
 33
0.0
 16
1.0
 26
0.0
 36
0.0
 17
0.0
 27
1.0
 37
0.0
 76
1
330
1B
  0
MATERIAL
  5
1F
102
{ACAD_REACTORS
330
E
102
}
330
E
100
AcDbMaterial
  1
ByBlock
  2

 70
0
 40
1.0
 71
1
 41
1.0
 91
-1023410177
 42
1.0
 72
1
  3

 73
1
 74
1
 75
1
 44
0.5
 73
0
 45
1.0
 46
1.0
 77
1
  4

 78
1
 79
1
170
1
 48
1.0
171
1
  6

172
1
173
1
174
1
140
1.0
141
1.0
175
1
  7

176
1
177
1
178
1
143
1.0
179
1
  8

270
1
271
1
272
1
145
1.0
146
1.0
273
1
  9

274
1
275
1
276
1
 42
1.0
 72
1
  3

 73
1
 74
1
 75
1
 94
63
  0
MATERIAL
  5
20
102
{ACAD_REACTORS
330
E
102
}
330
E
100
AcDbMaterial
  1
ByLayer
  2

 70
0
 40
1.0
 71
1
 41
1.0
 91
-1023410177
 42
1.0
 72
1
  3

 73
1
 74
1
 75
1
 44
0.5
 73
0
 45
1.0
 46
1.0
 77
1
  4

 78
1
 79
1
170
1
 48
1.0
171
1
  6

172
1
173
1
174
1
140
1.0
141
1.0
175
1
  7

176
1
177
1
178
1
143
1.0
179
1
  8

270
1
271
1
272
1
145
1.0
146
1.0
273
1
  9

274
1
275
1
276
1
 42
1.0
 72
1
  3

 73
1
 74
1
 75
1
 94
63
  0
MATERIAL
  5
21
102
{ACAD_REACTORS
330
E
102
}
330
E
100
AcDbMaterial
  1
Global
  2

 70
0
 40
1.0
 71
1
 41
1.0
 91
-1023410177
 42
1.0
 72
1
  3

 73
1
 74
1
 75
1
 44
0.5
 73
0
 45
1.0
 46
1.0
 77
1
  4

 78
1
 79
1
170
1
 48
1.0
171
1
  6

172
1
173
1
174
1
140
1.0
141
1.0
175
1
  7

176
1
177
1
178
1
143
1.0
179
1
  8

270
1
271
1
272
1
145
1.0
146
1.0
273
1
  9

274
1
275
1
276
1
 42
1.0
 72
1
  3

 73
1
 74
1
 75
1
 94
63
  0
MLINESTYLE
  5
22
102
{ACAD_REACTORS
330
10
102
}
330
10
100
AcDbMlineStyle
  2
Standard
 70
0
  3

 62
256
 51
90.0
 52
90.0
 71
2
 49
0.5
 62
256
  6
BYLAYER
 49
-0.5
 62
256
  6
BYLAYER
  0
MLEADERSTYLE
  5
2C
102
{ACAD_REACTORS
330
F
102
}
330
F
100
AcDbMLeaderStyle
179
2
170
2
171
1
172
0
 90
2
 40
0.0
 41
0.0
173
1
 91
-1056964608
 92
-2
290
1
 42
2.0
291
1
 43
8.0
  3
Standard
 44
4.0
300

342
29
174
1
175
1
176
0
178
1
 93
-1056964608
 45
4.0
292
0
297
0
 46
4.0
 94
-1056964608
 47
1.0
 49
1.0
140
1.0
294
1
141
0.0
177
0
142
1.0
295
0
296
0
143
3.75
271
0
272
9
273
9
  0
DICTIONARY
  5
2D
330
A
100
AcDbDictionary
280
1
281
1
  3
CREATED_BY_EZDXF
350
2E
  3
WRITTEN_BY_EZDXF
350
119
  0
DICTIONARYVAR
  5
2E
330
2D
100
DictionaryVariables
280
0
  1
1.4.4 @ 2026-08-28T02:58:58.088955+00:00
  0
DICTIONARYVAR
  5
119
330
2D
100
DictionaryVariables
280
0
  1
1.4.4 @ 2026-08-28T02:58:58.101505+00:00
  0
ENDSEC
  0
EOF
