  0
SECTION
  2
HEADER
  9
$ACADVER
  1
AC1024
  9
$ACADMAINTVER
 70
6
  9
$DWGCODEPAGE
  3
ANSI_1252
  9
$LASTSAVEDBY
  1
ezdxf
  9
$INSBASE
 10
0.0
 20
0.0
 30
0.0
  9
$EXTMIN
 10
-0.01
 20
-0.01
 30
0.0
  9
$EXTMAX
 10
1190.0
 20
640.0
 30
0.0
  9
$LIMMIN
 10
0.0
 20
0.0
  9
$LIMMAX
 10
1190.0
 20
640.0
  9
$ORTHOMODE
 70
0
  9
$REGENMODE
 70
1
  9
$FILLMODE
 70
1
  9
$QTEXTMODE
 70
0
  9
$MIRRTEXT
 70
1
  9
$LTSCALE
 40
1.0
  9
$ATTMODE
 70
1
  9
$TEXTSIZE
 40
2.5
  9
$TRACEWID
 40
1.0
  9
$TEXTSTYLE
  7
Standard
  9
$CLAYER
  8
0
  9
$CELTYPE
  6
ByLayer
  9
$CECOLOR
 62
256
  9
$CELTSCALE
 40
1.0
  9
$DISPSILH
 70
0
  9
$DIMSCALE
 40
1.0
  9
$DIMASZ
 40
2.5
  9
$DIMEXO
 40
0.625
  9
$DIMDLI
 40
3.75
  9
$DIMRND
 40
0.0
  9
$DIMDLE
 40
0.0
  9
$DIMEXE
 40
1.25
  9
$DIMTP
 40
0.0
  9
$DIMTM
 40
0.0
  9
$DIMTXT
 40
2.5
  9
$DIMCEN
 40
2.5
  9
$DIMTSZ
 40
0.0
  9
$DIMTOL
 70
0
  9
$DIMLIM
 70
0
  9
$DIMTIH
 70
0
  9
$DIMTOH
 70
0
  9
$DIMSE1
 70
0
  9
$DIMSE2
 70
0
  9
$DIMTAD
 70
1
  9
$DIMZIN
 70
8
  9
$DIMBLK
  1

  9
$DIMASO
 70
1
  9
$DIMSHO
 70
1
  9
$DIMPOST
  1

  9
$DIMAPOST
  1

  9
$DIMALT
 70
0
  9
$DIMALTD
 70
3
  9
$DIMALTF
 40
0.03937007874
  9
$DIMLFAC
 40
1.0
  9
$DIMTOFL
 70
1
  9
$DIMTVP
 40
0.0
  9
$DIMTIX
 70
0
  9
$DIMSOXD
 70
0
  9
$DIMSAH
 70
0
  9
$DIMBLK1
  1

  9
$DIMBLK2
  1

  9
$DIMSTYLE
  2
ISO-25
  9
$DIMCLRD
 70
0
  9
$DIMCLRE
 70
0
  9
$DIMCLRT
 70
0
  9
$DIMTFAC
 40
1.0
  9
$DIMGAP
 40
0.625
  9
$DIMJUST
 70
0
  9
$DIMSD1
 70
0
  9
$DIMSD2
 70
0
  9
$DIMTOLJ
 70
0
  9
$DIMTZIN
 70
8
  9
$DIMALTZ
 70
0
  9
$DIMALTTZ
 70
0
  9
$DIMUPT
 70
0
  9
$DIMDEC
 70
2
  9
$DIMTDEC
 70
2
  9
$DIMALTU
 70
2
  9
$DIMALTTD
 70
3
  9
$DIMTXSTY
  7
Standard
  9
$DIMAUNIT
 70
0
  9
$DIMADEC
 70
0
  9
$DIMALTRND
 40
0.0
  9
$DIMAZIN
 70
0
  9
$DIMDSEP
 70
44
  9
$DIMATFIT
 70
3
  9
$DIMFRAC
 70
0
  9
$DIMLDRBLK
  1

  9
$DIMLUNIT
 70
2
  9
$DIMLWD
 70
-2
  9
$DIMLWE
 70
-2
  9
$DIMTMOVE
 70
0
  9
$DIMFXL
 40
1.0
  9
$DIMFXLON
 70
0
  9
$DIMJOGANG
 40
0.785398163397
  9
$DIMTFILL
 70
0
  9
$DIMTFILLCLR
 70
0
  9
$DIMARCSYM
 70
0
  9
$DIMLTYPE
  6

  9
$DIMLTEX1
  6

  9
$DIMLTEX2
  6

  9
$DIMTXTDIRECTION
 70
0
  9
$LUNITS
 70
2
  9
$LUPREC
 70
4
  9
$SKETCHINC
 40
1.0
  9
$FILLETRAD
 40
10.0
  9
$AUNITS
 70
0
  9
$AUPREC
 70
2
  9
$MENU
  1
.
  9
$ELEVATION
 40
0.0
  9
$PELEVATION
 40
0.0
  9
$THICKNESS
 40
0.0
  9
$LIMCHECK
 70
0
  9
$CHAMFERA
 40
0.0
  9
$CHAMFERB
 40
0.0
  9
$CHAMFERC
 40
0.0
  9
$CHAMFERD
 40
0.0
  9
$SKPOLY
 70
0
  9
$TDCREATE
 40
2461281.1242708336
  9
$TDUCREATE
 40
2458532.153996898
  9
$TDUPDATE
 40
2461281.1242708336
  9
$TDUUPDATE
 40
2458532.1544311
  9
$TDINDWG
 40
0.0
  9
$TDUSRTIMER
 40
0.0
  9
$USRTIMER
 70
1
  9
$ANGBASE
 50
0.0
  9
$ANGDIR
 70
0
  9
$PDMODE
 70
0
  9
$PDSIZE
 40
0.0
  9
$PLINEWID
 40
0.0
  9
$SPLFRAME
 70
0
  9
$SPLINETYPE
 70
6
  9
$SPLINESEGS
 70
8
  9
$HANDSEED
  5
17A
  9
$SURFTAB1
 70
6
  9
$SURFTAB2
 70
6
  9
$SURFTYPE
 70
6
  9
$SURFU
 70
6
  9
$SURFV
 70
6
  9
$UCSBASE
  2

  9
$UCSNAME
  2

  9
$UCSORG
 10
0.0
 20
0.0
 30
0.0
  9
$UCSXDIR
 10
1.0
 20
0.0
 30
0.0
  9
$UCSYDIR
 10
0.0
 20
1.0
 30
0.0
  9
$UCSORTHOREF
  2

  9
$UCSORTHOVIEW
 70
0
  9
$UCSORGTOP
 10
0.0
 20
0.0
 30
0.0
  9
$UCSORGBOTTOM
 10
0.0
 20
0.0
 30
0.0
  9
$UCSORGLEFT
 10
0.0
 20
0.0
 30
0.0
  9
$UCSORGRIGHT
 10
0.0
 20
0.0
 30
0.0
  9
$UCSORGFRONT
 10
0.0
 20
0.0
 30
0.0
  9
$UCSORGBACK
 10
0.0
 20
0.0
 30
0.0
  9
$PUCSBASE
  2

  9
$PUCSNAME
  2

  9
$PUCSORG
 10
0.0
 20
0.0
 30
0.0
  9
$PUCSXDIR
 10
1.0
 20
0.0
 30
0.0
  9
$PUCSYDIR
 10
0.0
 20
1.0
 30
0.0
  9
$PUCSORTHOREF
  2

  9
$PUCSORTHOVIEW
 70
0
  9
$PUCSORGTOP
 10
0.0
 20
0.0
 30
0.0
  9
$PUCSORGBOTTOM
 10
0.0
 20
0.0
 30
0.0
  9
$PUCSORGLEFT
 10
0.0
 20
0.0
 30
0.0
  9
$PUCSORGRIGHT
 10
0.0
 20
0.0
 30
0.0
  9
$PUCSORGFRONT
 10
0.0
 20
0.0
 30
0.0
  9
$PUCSORGBACK
 10
0.0
 20
0.0
 30
0.0
  9
$USERI1
 70
0
  9
$USERI2
 70
0
  9
$USERI3
 70
0
  9
$USERI4
 70
0
  9
$USERI5
 70
0
  9
$USERR1
 40
0.0
  9
$USERR2
 40
0.0
  9
$USERR3
 40
0.0
  9
$USERR4
 40
0.0
  9
$USERR5
 40
0.0
  9
$WORLDVIEW
 70
1
  9
$SHADEDGE
 70
3
  9
$SHADEDIF
 70
70
  9
$TILEMODE
 70
1
  9
$MAXACTVP
 70
64
  9
$PINSBASE
 10
0.0
 20
0.0
 30
0.0
  9
$PLIMCHECK
 70
0
  9
$PEXTMIN
 10
1e+20
 20
1e+20
 30
1e+20
  9
$PEXTMAX
 10
-1e+20
 20
-1e+20
 30
-1e+20
  9
$PLIMMIN
 10
0.0
 20
0.0
  9
$PLIMMAX
 10
420.0
 20
297.0
  9
$UNITMODE
 70
0
  9
$VISRETAIN
 70
1
  9
$PLINEGEN
 70
0
  9
$PSLTSCALE
 70
1
  9
$TREEDEPTH
 70
3020
  9
$CMLSTYLE
  2
Standard
  9
$CMLJUST
 70
0
  9
$CMLSCALE
 40
20.0
  9
$PROXYGRAPHICS
 70
1
  9
$MEASUREMENT
 70
1
  9
$CELWEIGHT
370
-1
  9
$ENDCAPS
280
0
  9
$JOINSTYLE
280
0
  9
$LWDISPLAY
290
0
  9
$INSUNITS
 70
4
  9
$HYPERLINKBASE
  1

  9
$STYLESHEET
  1

  9
$XEDIT
290
1
  9
$CEPSNTYPE
380
0
  9
$PSTYLEMODE
290
1
  9
$FINGERPRINTGUID
  2
{09026695-42D6-4721-8C2E-0C210B6DC15B}
  9
$VERSIONGUID
  2
{9324F4A3-2131-49CE-B703-DC63A7601AAF}
  9
$EXTNAMES
290
1
  9
$PSVPSCALE
 40
0.0
  9
$OLESTARTUP
290
0
  9
$SORTENTS
280
127
  9
$INDEXCTL
280
0
  9
$HIDETEXT
280
1
  9
$XCLIPFRAME
280
1
  9
$HALOGAP
280
0
  9
$OBSCOLOR
 70
257
  9
$OBSLTYPE
280
0
  9
$INTERSECTIONDISPLAY
280
0
  9
$INTERSECTIONCOLOR
 70
257
  9
$DIMASSOC
280
2
  9
$PROJECTNAME
  1

  9
$CAMERADISPLAY
290
0
  9
$LENSLENGTH
 40
50.0
  9
$CAMERAHEIGHT
 40
0.0
  9
$STEPSPERSEC
 40
24.0
  9
$STEPSIZE
 40
100.0
  9
$3DDWFPREC
 40
2.0
  9
$PSOLWIDTH
 40
0.005
  9
$PSOLHEIGHT
 40
0.08
  9
$LOFTANG1
 40
1.570796326795
  9
$LOFTANG2
 40
1.570796326795
  9
$LOFTMAG1
 40
0.0
  9
$LOFTMAG2
 40
0.0
  9
$LOFTPARAM
 70
7
  9
$LOFTNORMALS
280
1
  9
$LATITUDE
 40
37.795
  9
$LONGITUDE
 40
-122.394
  9
$NORTHDIRECTION
 40
0.0
  9
$TIMEZONE
 70
-8000
  9
$LIGHTGLYPHDISPLAY
280
1
  9
$TILEMODELIGHTSYNCH
280
1
  9
$CMATERIAL
347
20
  9
$SOLIDHIST
280
0
  9
$SHOWHIST
280
1
  9
$DWFFRAME
280
2
  9
$DGNFRAME
280
2
  9
$REALWORLDSCALE
290
1
  9
$INTERFERECOLOR
 62
256
  9
$CSHADOW
280
0
  9
$SHADOWPLANELOCATION
 40
0.0
  0
ENDSEC
  0
SECTION
  2
CLASSES
  0
CLASS
  1
ACDBDICTIONARYWDFLT
  2
AcDbDictionaryWithDefault
  3
ObjectDBX Classes
 90
0
 91
0
280
0
281
0
  0
CLASS
  1
SUN
  2
AcDbSun
  3
SCENEOE
 90
1153
 91
0
280
0
281
0
  0
CLASS
  1
VISUALSTYLE
  2
AcDbVisualStyle
  3
ObjectDBX Classes
 90
4095
 91
0
280
0
281
0
  0
CLASS
  1
MATERIAL
  2
AcDbMaterial
  3
ObjectDBX Classes
 90
1153
 91
0
280
0
281
0
  0
CLASS
  1
SCALE
  2
AcDbScale
  3
ObjectDBX Classes
 90
1153
 91
0
280
0
281
0
  0
CLASS
  1
TABLESTYLE
  2
AcDbTableStyle
  3
ObjectDBX Classes
 90
4095
 91
0
280
0
281
0
  0
CLASS
  1
MLEADERSTYLE
  2
AcDbMLeaderStyle
  3
ACDB_MLEADERSTYLE_CLASS
 90
4095
 91
0
280
0
281
0
  0
CLASS
  1
DICTIONARYVAR
  2
AcDbDictionaryVar
  3
ObjectDBX Classes
 90
0
 91
0
280
0
281
0
  0
CLASS
  1
CELLSTYLEMAP
  2
AcDbCellStyleMap
  3
ObjectDBX Classes
 90
1152
 91
0
280
0
281
0
  0
CLASS
  1
MENTALRAYRENDERSETTINGS
  2
AcDbMentalRayRenderSettings
  3
SCENEOE
 90
1024
 91
0
280
0
281
0
  0
CLASS
  1
ACDBDETAILVIEWSTYLE
  2
AcDbDetailViewStyle
  3
ObjectDBX Classes
 90
1025
 91
0
280
0
281
0
  0
CLASS
  1
ACDBSECTIONVIEWSTYLE
  2
AcDbSectionViewStyle
  3
ObjectDBX Classes
 90
1025
 91
0
280
0
281
0
  0
CLASS
  1
RASTERVARIABLES
  2
AcDbRasterVariables
  3
ISM
 90
0
 91
0
280
0
281
0
  0
CLASS
  1
LAYOUT
  2
AcDbLayout
  3
ObjectDBX Classes
 90
0
 91
0
280
0
281
0
  0
CLASS
  1
ACDBPLACEHOLDER
  2
AcDbPlaceHolder
  3
ObjectDBX Classes
 90
0
 91
0
280
0
281
0
  0
ENDSEC
  0
SECTION
  2
TABLES
  0
TABLE
  2
VPORT
  5
8
330
0
100
AcDbSymbolTable
 70
1
  0
VPORT
  5
23
330
8
100
AcDbSymbolTableRecord
100
AcDbViewportTableRecord
  2
*Active
 70
0
 10
0.0
 20
0.0
 11
1.0
 21
1.0
 12
0.0
 22
0.0
 13
0.0
 23
0.0
 14
0.5
 24
0.5
 15
0.5
 25
0.5
 16
0.0
 26
0.0
 36
1.0
 17
0.0
 27
0.0
 37
0.0
 40
1000.0
 41
1.34
 42
50.0
 43
0.0
 44
0.0
 50
0.0
 51
0.0
 71
0
 72
1000
 73
1
 74
3
 75
0
 76
0
 77
0
 78
0
281
0
 65
0
146
0.0
  0
ENDTAB
  0
TABLE
  2
LTYPE
  5
2
330
0
100
AcDbSymbolTable
 70
5
  0
LTYPE
  5
24
330
2
100
AcDbSymbolTableRecord
100
AcDbLinetypeTableRecord
  2
ByBlock
 70
0
  3

 72
65
 73
0
 40
0.0
  0
LTYPE
  5
25
330
2
100
AcDbSymbolTableRecord
100
AcDbLinetypeTableRecord
  2
ByLayer
 70
0
  3

 72
65
 73
0
 40
0.0
  0
LTYPE
  5
26
330
2
100
AcDbSymbolTableRecord
100
AcDbLinetypeTableRecord
  2
Continuous
 70
0
  3

 72
65
 73
0
 40
0.0
  0
LTYPE
  5
2F
330
2
100
AcDbSymbolTableRecord
100
AcDbLinetypeTableRecord
  2
DASHED
 70
0
  3
Штриховая — — — —
 72
65
 73
2
 40
9.0
 49
6.0
 74
0
 49
-3.0
 74
0
  0
LTYPE
  5
30
330
2
100
AcDbSymbolTableRecord
100
AcDbLinetypeTableRecord
  2
DASHDOT
 70
0
  3
Штрихпунктирная — · — · —
 72
65
 73
4
 40
14.0
 49
8.0
 74
0
 49
-3.0
 74
0
 49
0.0
 74
0
 49
-3.0
 74
0
  0
ENDTAB
  0
TABLE
  2
LAYER
  5
1
330
0
100
AcDbSymbolTable
 70
10
  0
LAYER
  5
27
330
1
100
AcDbSymbolTableRecord
100
AcDbLayerTableRecord
  2
0
 70
0
 62
7
  6
Continuous
370
-3
390
13
347
21
  0
LAYER
  5
28
330
1
100
AcDbSymbolTableRecord
100
AcDbLayerTableRecord
  2
Defpoints
 70
0
 62
7
  6
Continuous
290
0
370
-3
390
13
347
21
  0
LAYER
  5
32
330
1
100
AcDbSymbolTableRecord
100
AcDbLayerTableRecord
  2
GAS
 70
0
 62
30
420
14712622
  6
Continuous
370
35
390
13
347
21
1001
AcAecLayerStandard
1000

1000
Газовый тракт (оранжевый)
  0
LAYER
  5
34
330
1
100
AcDbSymbolTableRecord
100
AcDbLayerTableRecord
  2
LIQUID
 70
0
 62
5
420
2783446
  6
Continuous
370
35
390
13
347
21
1001
AcAecLayerStandard
1000

1000
Жидкостные потоки: кислота, растворы, вода (синий)
  0
LAYER
  5
35
330
1
100
AcDbSymbolTableRecord
100
AcDbLayerTableRecord
  2
DUST
 70
0
 62
6
420
10702494
  6
Continuous
370
35
390
13
347
21
1001
AcAecLayerStandard
1000

1000
Пылевой тракт: циклоны, фильтры (фиолетовый)
  0
LAYER
  5
36
330
1
100
AcDbSymbolTableRecord
100
AcDbLayerTableRecord
  2
ELECTRIC
 70
0
 62
2
420
16429593
  6
Continuous
370
30
390
13
347
21
1001
AcAecLayerStandard
1000

1000
Электрика / энергоснабжение (жёлтый)
  0
LAYER
  5
37
330
1
100
AcDbSymbolTableRecord
100
AcDbLayerTableRecord
  2
INTERLOCK
 70
0
 62
1
420
13646651
  6
Continuous
370
30
390
13
347
21
1001
AcAecLayerStandard
1000

1000
Блокировки и защиты (красный)
  0
LAYER
  5
38
330
1
100
AcDbSymbolTableRecord
100
AcDbLayerTableRecord
  2
OUTLINE
 70
0
 62
7
  6
Continuous
370
25
390
13
347
21
1001
AcAecLayerStandard
1000

1000
Контуры оборудования, строительная графика (ink)
  0
LAYER
  5
39
330
1
100
AcDbSymbolTableRecord
100
AcDbLayerTableRecord
  2
TEXT_RU
 70
0
 62
7
  6
Continuous
370
25
390
13
347
21
1001
AcAecLayerStandard
1000

1000
Надписи (русские, UTF-8)
  0
LAYER
  5
3A
330
1
100
AcDbSymbolTableRecord
100
AcDbLayerTableRecord
  2
DIM
 70
0
 62
8
  6
Continuous
370
13
390
13
347
21
1001
AcAecLayerStandard
1000

1000
Размерные и вспомогательные линии, рамка, сетка
  0
ENDTAB
  0
TABLE
  2
STYLE
  5
5
330
0
100
AcDbSymbolTable
 70
2
  0
STYLE
  5
29
330
5
100
AcDbSymbolTableRecord
100
AcDbTextStyleTableRecord
  2
Standard
 70
0
 40
0.0
 41
1.0
 50
0.0
 71
0
 42
2.5
  3
txt
  4

  0
STYLE
  5
31
330
5
100
AcDbSymbolTableRecord
100
AcDbTextStyleTableRecord
  2
TXTRU
 70
0
 40
0.0
 41
1.0
 50
0.0
 71
0
 42
2.5
  3
arial.ttf
  4

  0
ENDTAB
  0
TABLE
  2
VIEW
  5
7
330
0
100
AcDbSymbolTable
 70
0
  0
ENDTAB
  0
TABLE
  2
UCS
  5
6
330
0
100
AcDbSymbolTable
 70
0
  0
ENDTAB
  0
TABLE
  2
APPID
  5
3
330
0
100
AcDbSymbolTable
 70
4
  0
APPID
  5
2A
330
3
100
AcDbSymbolTableRecord
100
AcDbRegAppTableRecord
  2
ACAD
 70
0
  0
APPID
  5
33
330
3
100
AcDbSymbolTableRecord
100
AcDbRegAppTableRecord
  2
AcAecLayerStandard
 70
0
  0
APPID
  5
177
330
3
100
AcDbSymbolTableRecord
100
AcDbRegAppTableRecord
  2
HATCHBACKGROUNDCOLOR
 70
0
  0
APPID
  5
178
330
3
100
AcDbSymbolTableRecord
100
AcDbRegAppTableRecord
  2
EZDXF
 70
0
  0
ENDTAB
  0
TABLE
  2
DIMSTYLE
  5
4
330
0
100
AcDbSymbolTable
 70
1
100
AcDbDimStyleTable
  0
DIMSTYLE
105
2B
330
4
100
AcDbSymbolTableRecord
100
AcDbDimStyleTableRecord
  2
Standard
 70
0
 40
1.0
 41
2.5
 42
0.625
 43
3.75
 44
1.25
 45
0.0
 46
0.0
 47
0.0
 48
0.0
 49
2.5
140
2.5
141
2.5
142
0.0
143
0.03937007874
144
1.0
145
0.0
146
1.0
147
0.625
148
0.0
 69
0
 70
0
 71
0
 72
0
 73
0
 74
0
 75
0
 76
0
 77
1
 78
8
 79
3
170
0
171
3
172
1
173
0
174
0
175
0
176
0
177
0
178
0
179
2
271
2
272
2
273
2
274
3
275
0
276
0
277
2
278
44
279
0
280
0
281
0
282
0
283
0
284
8
285
0
286
0
288
0
289
3
290
0
371
-2
372
-2
  0
ENDTAB
  0
TABLE
  2
BLOCK_RECORD
  5
9
330
0
100
AcDbSymbolTable
 70
2
  0
BLOCK_RECORD
  5
17
330
9
100
AcDbSymbolTableRecord
100
AcDbBlockTableRecord
  2
*Model_Space
340
1A
 70
0
280
1
281
0
  0
BLOCK_RECORD
  5
1B
330
9
100
AcDbSymbolTableRecord
100
AcDbBlockTableRecord
  2
*Paper_Space
340
1E
 70
0
280
1
281
0
  0
ENDTAB
  0
ENDSEC
  0
SECTION
  2
BLOCKS
  0
BLOCK
  5
18
330
17
100
AcDbEntity
  8
0
100
AcDbBlockBegin
  2
*Model_Space
 70
0
 10
0.0
 20
0.0
 30
0.0
  3
*Model_Space
  1

  0
ENDBLK
  5
19
330
17
100
AcDbEntity
  8
0
100
AcDbBlockEnd
  0
BLOCK
  5
1C
330
1B
100
AcDbEntity
  8
0
100
AcDbBlockBegin
  2
*Paper_Space
 70
0
 10
0.0
 20
0.0
 30
0.0
  3
*Paper_Space
  1

  0
ENDBLK
  5
1D
330
1B
100
AcDbEntity
  8
0
100
AcDbBlockEnd
  0
ENDSEC
  0
SECTION
  2
ENTITIES
  0
LWPOLYLINE
  5
3B
330
17
100
AcDbEntity
  8
DIM
420
15198183
100
AcDbPolyline
 90
4
 70
1
 10
6.0
 20
634.0
 10
1184.0
 20
634.0
 10
1184.0
 20
6.0
 10
6.0
 20
6.0
  0
TEXT
  5
3C
330
17
100
AcDbEntity
  8
TEXT_RU
100
AcDbText
 10
1174.0
 20
616.0
 30
0.0
 40
8.4
  1
ВЫСОТНАЯ СХЕМА · ЛОТ №1 — ГЛАВНЫЙ КОРПУС ЦЕХА ОБЖИГА
  7
TXTRU
 72
2
 11
1174.0
 21
616.0
 31
0.0
100
AcDbText
  0
TEXT
  5
3D
330
17
100
AcDbEntity
  8
TEXT_RU
100
AcDbText
 10
1174.0
 20
602.0
 30
0.0
 40
5.6
  1
продольный технологический разрез-схема (развёртка по цепочке аппаратов) · отметки в метрах
  7
TXTRU
 72
2
 11
1174.0
 21
602.0
 31
0.0
100
AcDbText
  0
TEXT
  5
3E
330
17
100
AcDbEntity
  8
TEXT_RU
100
AcDbText
 10
20.0
 20
14.0
 30
0.0
 40
7.0
  1
ЭСКИЗ — не для строительства · высотная схема гл. корпуса цеха обжига (Лот №1), разрез-развёртка · источники: БИ Лот №1 — компоновка, теплобалансы, PFD (ИД табл. 23; ТЗ п.3.5) · КВАНТ, черновик БИ
  7
TXTRU
 11
20.0
 21
14.0
 31
0.0
100
AcDbText
  0
LINE
  5
3F
330
17
100
AcDbEntity
  8
DIM
  6
DASHED
420
15198183
100
AcDbLine
 10
66.0
 20
180.0
 30
0.0
 11
1032.0
 21
180.0
 31
0.0
  0
TEXT
  5
40
330
17
100
AcDbEntity
  8
TEXT_RU
100
AcDbText
 10
62.0
 20
177.0
 30
0.0
 40
6.3
  1
+4,5
  7
TXTRU
 72
2
 11
62.0
 21
177.0
 31
0.0
100
AcDbText
  0
LWPOLYLINE
  5
41
330
17
100
AcDbEntity
  8
OUTLINE
100
AcDbPolyline
 90
3
 70
1
 10
66.0
 20
180.0
 10
71.0
 20
188.0
 10
61.0
 20
188.0
  0
LINE
  5
42
330
17
100
AcDbEntity
  8
DIM
  6
DASHED
420
15198183
100
AcDbLine
 10
66.0
 20
210.0
 30
0.0
 11
1032.0
 21
210.0
 31
0.0
  0
TEXT
  5
43
330
17
100
AcDbEntity
  8
TEXT_RU
100
AcDbText
 10
62.0
 20
207.0
 30
0.0
 40
6.3
  1
+6,0
  7
TXTRU
 72
2
 11
62.0
 21
207.0
 31
0.0
100
AcDbText
  0
LWPOLYLINE
  5
44
330
17
100
AcDbEntity
  8
OUTLINE
100
AcDbPolyline
 90
3
 70
1
 10
66.0
 20
210.0
 10
71.0
 20
218.0
 10
61.0
 20
218.0
  0
LINE
  5
45
330
17
100
AcDbEntity
  8
DIM
  6
DASHED
420
15198183
100
AcDbLine
 10
66.0
 20
364.0
 30
0.0
 11
1032.0
 21
364.0
 31
0.0
  0
TEXT
  5
46
330
17
100
AcDbEntity
  8
TEXT_RU
100
AcDbText
 10
62.0
 20
361.0
 30
0.0
 40
6.3
  1
+13,7
  7
TXTRU
 72
2
 11
62.0
 21
361.0
 31
0.0
100
AcDbText
  0
LWPOLYLINE
  5
47
330
17
100
AcDbEntity
  8
OUTLINE
100
AcDbPolyline
 90
3
 70
1
 10
66.0
 20
364.0
 10
71.0
 20
372.0
 10
61.0
 20
372.0
  0
LINE
  5
48
330
17
100
AcDbEntity
  8
DIM
  6
DASHED
420
15198183
100
AcDbLine
 10
66.0
 20
464.0
 30
0.0
 11
1032.0
 21
464.0
 31
0.0
  0
TEXT
  5
49
330
17
100
AcDbEntity
  8
TEXT_RU
100
AcDbText
 10
62.0
 20
461.0
 30
0.0
 40
6.3
  1
+18,7
  7
TXTRU
 72
2
 11
62.0
 21
461.0
 31
0.0
100
AcDbText
  0
LWPOLYLINE
  5
4A
330
17
100
AcDbEntity
  8
OUTLINE
100
AcDbPolyline
 90
3
 70
1
 10
66.0
 20
464.0
 10
71.0
 20
472.0
 10
61.0
 20
472.0
  0
TEXT
  5
4B
330
17
100
AcDbEntity
  8
TEXT_RU
100
AcDbText
 10
62.0
 20
87.0
 30
0.0
 40
6.3
  1
0,000
  7
TXTRU
 72
2
 11
62.0
 21
87.0
 31
0.0
100
AcDbText
  0
LWPOLYLINE
  5
4C
330
17
100
AcDbEntity
  8
OUTLINE
100
AcDbPolyline
 90
3
 70
1
 10
66.0
 20
90.0
 10
71.0
 20
98.0
 10
61.0
 20
98.0
  0
LINE
  5
4D
330
17
100
AcDbEntity
  8
DIM
  6
DASHED
100
AcDbLine
 10
72.0
 20
528.0
 30
0.0
 11
1032.0
 21
528.0
 31
0.0
  0
TEXT
  5
4E
330
17
100
AcDbEntity
  8
TEXT_RU
100
AcDbText
 10
140.0
 20
534.0
 30
0.0
 40
5.25
  1
отм. низа ферм / покрытия — уточняется
  7
TXTRU
 11
140.0
 21
534.0
 31
0.0
100
AcDbText
  0
LINE
  5
4F
330
17
100
AcDbEntity
  8
OUTLINE
100
AcDbLine
 10
72.0
 20
528.0
 30
0.0
 11
72.0
 21
90.0
 31
0.0
  0
LINE
  5
50
330
17
100
AcDbEntity
  8
OUTLINE
100
AcDbLine
 10
1032.0
 20
528.0
 30
0.0
 11
1032.0
 21
90.0
 31
0.0
  0
LINE
  5
51
330
17
100
AcDbEntity
  8
DIM
  6
DASHDOT
100
AcDbLine
 10
192.0
 20
522.0
 30
0.0
 11
192.0
 21
90.0
 31
0.0
  0
LINE
  5
52
330
17
100
AcDbEntity
  8
DIM
  6
DASHDOT
100
AcDbLine
 10
432.0
 20
522.0
 30
0.0
 11
432.0
 21
90.0
 31
0.0
  0
LINE
  5
53
330
17
100
AcDbEntity
  8
DIM
  6
DASHDOT
100
AcDbLine
 10
672.0
 20
522.0
 30
0.0
 11
672.0
 21
90.0
 31
0.0
  0
LINE
  5
54
330
17
100
AcDbEntity
  8
OUTLINE
100
AcDbLine
 10
60.0
 20
90.0
 30
0.0
 11
1170.0
 21
90.0
 31
0.0
  0
LINE
  5
55
330
17
100
AcDbEntity
  8
DIM
100
AcDbLine
 10
66.0
 20
90.0
 30
0.0
 11
59.0
 21
83.0
 31
0.0
  0
LINE
  5
56
330
17
100
AcDbEntity
  8
DIM
100
AcDbLine
 10
90.0
 20
90.0
 30
0.0
 11
83.0
 21
83.0
 31
0.0
  0
LINE
  5
57
330
17
100
AcDbEntity
  8
DIM
100
AcDbLine
 10
114.0
 20
90.0
 30
0.0
 11
107.0
 21
83.0
 31
0.0
  0
LINE
  5
58
330
17
100
AcDbEntity
  8
DIM
100
AcDbLine
 10
138.0
 20
90.0
 30
0.0
 11
131.0
 21
83.0
 31
0.0
  0
LINE
  5
59
330
17
100
AcDbEntity
  8
DIM
100
AcDbLine
 10
162.0
 20
90.0
 30
0.0
 11
155.0
 21
83.0
 31
0.0
  0
LINE
  5
5A
330
17
100
AcDbEntity
  8
DIM
100
AcDbLine
 10
186.0
 20
90.0
 30
0.0
 11
179.0
 21
83.0
 31
0.0
  0
LINE
  5
5B
330
17
100
AcDbEntity
  8
DIM
100
AcDbLine
 10
210.0
 20
90.0
 30
0.0
 11
203.0
 21
83.0
 31
0.0
  0
LINE
  5
5C
330
17
100
AcDbEntity
  8
DIM
100
AcDbLine
 10
234.0
 20
90.0
 30
0.0
 11
227.0
 21
83.0
 31
0.0
  0
LINE
  5
5D
330
17
100
AcDbEntity
  8
DIM
100
AcDbLine
 10
258.0
 20
90.0
 30
0.0
 11
251.0
 21
83.0
 31
0.0
  0
LINE
  5
5E
330
17
100
AcDbEntity
  8
DIM
100
AcDbLine
 10
282.0
 20
90.0
 30
0.0
 11
275.0
 21
83.0
 31
0.0
  0
LINE
  5
5F
330
17
100
AcDbEntity
  8
DIM
100
AcDbLine
 10
306.0
 20
90.0
 30
0.0
 11
299.0
 21
83.0
 31
0.0
  0
LINE
  5
60
330
17
100
AcDbEntity
  8
DIM
100
AcDbLine
 10
330.0
 20
90.0
 30
0.0
 11
323.0
 21
83.0
 31
0.0
  0
LINE
  5
61
330
17
100
AcDbEntity
  8
DIM
100
AcDbLine
 10
354.0
 20
90.0
 30
0.0
 11
347.0
 21
83.0
 31
0.0
  0
LINE
  5
62
330
17
100
AcDbEntity
  8
DIM
100
AcDbLine
 10
378.0
 20
90.0
 30
0.0
 11
371.0
 21
83.0
 31
0.0
  0
LINE
  5
63
330
17
100
AcDbEntity
  8
DIM
100
AcDbLine
 10
402.0
 20
90.0
 30
0.0
 11
395.0
 21
83.0
 31
0.0
  0
LINE
  5
64
330
17
100
AcDbEntity
  8
DIM
100
AcDbLine
 10
426.0
 20
90.0
 30
0.0
 11
419.0
 21
83.0
 31
0.0
  0
LINE
  5
65
330
17
100
AcDbEntity
  8
DIM
100
AcDbLine
 10
450.0
 20
90.0
 30
0.0
 11
443.0
 21
83.0
 31
0.0
  0
LINE
  5
66
330
17
100
AcDbEntity
  8
DIM
100
AcDbLine
 10
474.0
 20
90.0
 30
0.0
 11
467.0
 21
83.0
 31
0.0
  0
LINE
  5
67
330
17
100
AcDbEntity
  8
DIM
100
AcDbLine
 10
498.0
 20
90.0
 30
0.0
 11
491.0
 21
83.0
 31
0.0
  0
LINE
  5
68
330
17
100
AcDbEntity
  8
DIM
100
AcDbLine
 10
522.0
 20
90.0
 30
0.0
 11
515.0
 21
83.0
 31
0.0
  0
LINE
  5
69
330
17
100
AcDbEntity
  8
DIM
100
AcDbLine
 10
546.0
 20
90.0
 30
0.0
 11
539.0
 21
83.0
 31
0.0
  0
LINE
  5
6A
330
17
100
AcDbEntity
  8
DIM
100
AcDbLine
 10
570.0
 20
90.0
 30
0.0
 11
563.0
 21
83.0
 31
0.0
  0
LINE
  5
6B
330
17
100
AcDbEntity
  8
DIM
100
AcDbLine
 10
594.0
 20
90.0
 30
0.0
 11
587.0
 21
83.0
 31
0.0
  0
LINE
  5
6C
330
17
100
AcDbEntity
  8
DIM
100
AcDbLine
 10
618.0
 20
90.0
 30
0.0
 11
611.0
 21
83.0
 31
0.0
  0
LINE
  5
6D
330
17
100
AcDbEntity
  8
DIM
100
AcDbLine
 10
642.0
 20
90.0
 30
0.0
 11
635.0
 21
83.0
 31
0.0
  0
LINE
  5
6E
330
17
100
AcDbEntity
  8
DIM
100
AcDbLine
 10
666.0
 20
90.0
 30
0.0
 11
659.0
 21
83.0
 31
0.0
  0
LINE
  5
6F
330
17
100
AcDbEntity
  8
DIM
100
AcDbLine
 10
690.0
 20
90.0
 30
0.0
 11
683.0
 21
83.0
 31
0.0
  0
LINE
  5
70
330
17
100
AcDbEntity
  8
DIM
100
AcDbLine
 10
714.0
 20
90.0
 30
0.0
 11
707.0
 21
83.0
 31
0.0
  0
LINE
  5
71
330
17
100
AcDbEntity
  8
DIM
100
AcDbLine
 10
738.0
 20
90.0
 30
0.0
 11
731.0
 21
83.0
 31
0.0
  0
LINE
  5
72
330
17
100
AcDbEntity
  8
DIM
100
AcDbLine
 10
762.0
 20
90.0
 30
0.0
 11
755.0
 21
83.0
 31
0.0
  0
LINE
  5
73
330
17
100
AcDbEntity
  8
DIM
100
AcDbLine
 10
786.0
 20
90.0
 30
0.0
 11
779.0
 21
83.0
 31
0.0
  0
LINE
  5
74
330
17
100
AcDbEntity
  8
DIM
100
AcDbLine
 10
810.0
 20
90.0
 30
0.0
 11
803.0
 21
83.0
 31
0.0
  0
LINE
  5
75
330
17
100
AcDbEntity
  8
DIM
100
AcDbLine
 10
834.0
 20
90.0
 30
0.0
 11
827.0
 21
83.0
 31
0.0
  0
LINE
  5
76
330
17
100
AcDbEntity
  8
DIM
100
AcDbLine
 10
858.0
 20
90.0
 30
0.0
 11
851.0
 21
83.0
 31
0.0
  0
LINE
  5
77
330
17
100
AcDbEntity
  8
DIM
100
AcDbLine
 10
882.0
 20
90.0
 30
0.0
 11
875.0
 21
83.0
 31
0.0
  0
LINE
  5
78
330
17
100
AcDbEntity
  8
DIM
100
AcDbLine
 10
906.0
 20
90.0
 30
0.0
 11
899.0
 21
83.0
 31
0.0
  0
LINE
  5
79
330
17
100
AcDbEntity
  8
DIM
100
AcDbLine
 10
930.0
 20
90.0
 30
0.0
 11
923.0
 21
83.0
 31
0.0
  0
LINE
  5
7A
330
17
100
AcDbEntity
  8
DIM
100
AcDbLine
 10
954.0
 20
90.0
 30
0.0
 11
947.0
 21
83.0
 31
0.0
  0
LINE
  5
7B
330
17
100
AcDbEntity
  8
DIM
100
AcDbLine
 10
978.0
 20
90.0
 30
0.0
 11
971.0
 21
83.0
 31
0.0
  0
LINE
  5
7C
330
17
100
AcDbEntity
  8
DIM
100
AcDbLine
 10
1002.0
 20
90.0
 30
0.0
 11
995.0
 21
83.0
 31
0.0
  0
LINE
  5
7D
330
17
100
AcDbEntity
  8
DIM
100
AcDbLine
 10
1026.0
 20
90.0
 30
0.0
 11
1019.0
 21
83.0
 31
0.0
  0
LINE
  5
7E
330
17
100
AcDbEntity
  8
DIM
100
AcDbLine
 10
1050.0
 20
90.0
 30
0.0
 11
1043.0
 21
83.0
 31
0.0
  0
LINE
  5
7F
330
17
100
AcDbEntity
  8
DIM
100
AcDbLine
 10
1074.0
 20
90.0
 30
0.0
 11
1067.0
 21
83.0
 31
0.0
  0
LINE
  5
80
330
17
100
AcDbEntity
  8
DIM
100
AcDbLine
 10
1098.0
 20
90.0
 30
0.0
 11
1091.0
 21
83.0
 31
0.0
  0
LINE
  5
81
330
17
100
AcDbEntity
  8
DIM
100
AcDbLine
 10
1122.0
 20
90.0
 30
0.0
 11
1115.0
 21
83.0
 31
0.0
  0
LINE
  5
82
330
17
100
AcDbEntity
  8
DIM
100
AcDbLine
 10
1146.0
 20
90.0
 30
0.0
 11
1139.0
 21
83.0
 31
0.0
  0
LINE
  5
83
330
17
100
AcDbEntity
  8
OUTLINE
100
AcDbLine
 10
84.0
 20
210.0
 30
0.0
 11
188.0
 21
210.0
 31
0.0
  0
TEXT
  5
84
330
17
100
AcDbEntity
  8
TEXT_RU
100
AcDbText
 10
88.0
 20
197.0
 30
0.0
 40
5.25
  1
отм. +6,0 (предв.)
  7
TXTRU
 11
88.0
 21
197.0
 31
0.0
100
AcDbText
  0
LWPOLYLINE
  5
85
330
17
100
AcDbEntity
  8
LIQUID
100
AcDbPolyline
 90
4
 70
1
 10
90.0
 20
256.0
 10
182.0
 20
256.0
 10
182.0
 20
212.0
 10
90.0
 20
212.0
  0
TEXT
  5
86
330
17
100
AcDbEntity
  8
TEXT_RU
100
AcDbText
 10
136.0
 20
240.0
 30
0.0
 40
6.3
  1
ВАКУУМ-ФИЛЬТРЫ
  7
TXTRU
 72
1
 11
136.0
 21
240.0
 31
0.0
100
AcDbText
  0
TEXT
  5
87
330
17
100
AcDbEntity
  8
TEXT_RU
100
AcDbText
 10
136.0
 20
228.0
 30
0.0
 40
4.9
  1
барабанные · 2 шт. × 32 м²
  7
TXTRU
 72
1
 11
136.0
 21
228.0
 31
0.0
100
AcDbText
  0
TEXT
  5
88
330
17
100
AcDbEntity
  8
TEXT_RU
100
AcDbText
 10
136.0
 20
218.0
 30
0.0
 40
4.55
  1
разгрузка кека вниз
  7
TXTRU
 72
1
 11
136.0
 21
218.0
 31
0.0
100
AcDbText
  0
LINE
  5
89
330
17
100
AcDbEntity
  8
INTERLOCK
100
AcDbLine
 10
90.0
 20
300.0
 30
0.0
 11
182.0
 21
300.0
 31
0.0
  0
LINE
  5
8A
330
17
100
AcDbEntity
  8
INTERLOCK
100
AcDbLine
 10
100.0
 20
300.0
 30
0.0
 11
100.0
 21
294.0
 31
0.0
  0
LINE
  5
8B
330
17
100
AcDbEntity
  8
INTERLOCK
100
AcDbLine
 10
172.0
 20
300.0
 30
0.0
 11
172.0
 21
294.0
 31
0.0
  0
TEXT
  5
8C
330
17
100
AcDbEntity
  8
TEXT_RU
420
13646651
100
AcDbText
 10
136.0
 20
307.0
 30
0.0
 40
5.6
  1
кран-балка
  7
TXTRU
 72
1
 11
136.0
 21
307.0
 31
0.0
100
AcDbText
  0
LWPOLYLINE
  5
8D
330
17
100
AcDbEntity
  8
DIM
100
AcDbPolyline
 90
4
 70
1
 10
86.0
 20
138.0
 10
186.0
 20
138.0
 10
186.0
 20
94.0
 10
86.0
 20
94.0
  0
TEXT
  5
8E
330
17
100
AcDbEntity
  8
TEXT_RU
100
AcDbText
 10
136.0
 20
126.0
 30
0.0
 40
4.9
  1
вакуум-станция, ёмкость,
  7
TXTRU
 72
1
 11
136.0
 21
126.0
 31
0.0
100
AcDbText
  0
TEXT
  5
8F
330
17
100
AcDbEntity
  8
TEXT_RU
100
AcDbText
 10
136.0
 20
116.0
 30
0.0
 40
4.9
  1
насосы фильтрата · 0,000
  7
TXTRU
 72
1
 11
136.0
 21
116.0
 31
0.0
100
AcDbText
  0
TEXT
  5
90
330
17
100
AcDbEntity
  8
TEXT_RU
420
2783446
100
AcDbText
 10
136.0
 20
103.0
 30
0.0
 40
4.55
  1
фильтрат → возврат в ОРФ
  7
TXTRU
 72
1
 11
136.0
 21
103.0
 31
0.0
100
AcDbText
  0
LINE
  5
91
330
17
100
AcDbEntity
  8
LIQUID
100
AcDbLine
 10
86.0
 20
118.0
 30
0.0
 11
74.0
 21
118.0
 31
0.0
  0
SOLID
  5
92
330
17
100
AcDbEntity
  8
LIQUID
100
AcDbTrace
 10
83.0
 20
113.5
 30
0.0
 11
73.0
 21
118.0
 31
0.0
 12
83.0
 22
122.5
 32
0.0
 13
83.0
 23
122.5
 33
0.0
  0
LINE
  5
93
330
17
100
AcDbEntity
  8
LIQUID
100
AcDbLine
 10
168.0
 20
208.0
 30
0.0
 11
168.0
 21
192.0
 31
0.0
  0
SOLID
  5
94
330
17
100
AcDbEntity
  8
LIQUID
100
AcDbTrace
 10
172.5
 20
201.0
 30
0.0
 11
168.0
 21
191.0
 31
0.0
 12
163.5
 22
201.0
 32
0.0
 13
163.5
 23
201.0
 33
0.0
  0
LINE
  5
95
330
17
100
AcDbEntity
  8
LIQUID
100
AcDbLine
 10
96.0
 20
188.0
 30
0.0
 11
188.0
 21
188.0
 31
0.0
  0
TEXT
  5
96
330
17
100
AcDbEntity
  8
TEXT_RU
420
2783446
100
AcDbText
 10
134.0
 20
173.0
 30
0.0
 40
5.25
  1
конвейер кека
  7
TXTRU
 72
1
 11
134.0
 21
173.0
 31
0.0
100
AcDbText
  0
LINE
  5
97
330
17
100
AcDbEntity
  8
LIQUID
100
AcDbLine
 10
188.0
 20
188.0
 30
0.0
 11
212.0
 21
380.0
 31
0.0
  0
SOLID
  5
98
330
17
100
AcDbEntity
  8
LIQUID
100
AcDbTrace
 10
206.41843694348563
 20
371.62765541522845
 30
0.0
 11
212.1240347345892
 21
380.9922778767137
 31
0.0
 12
215.34893783390862
 22
370.5113428039256
 32
0.0
 13
215.34893783390862
 23
370.5113428039256
 33
0.0
  0
TEXT
  5
99
330
17
100
AcDbEntity
  8
TEXT_RU
100
AcDbText
 10
296.0
 20
408.0
 30
0.0
 40
5.6
  1
верх загрузочных конвейеров ~+14…16
  7
TXTRU
 72
1
 11
296.0
 21
408.0
 31
0.0
100
AcDbText
  0
TEXT
  5
9A
330
17
100
AcDbEntity
  8
TEXT_RU
100
AcDbText
 10
294.0
 20
394.0
 30
0.0
 40
5.95
  1
приёмные бункеры 60 / 20 / 10 / 50 м³
  7
TXTRU
 72
1
 11
294.0
 21
394.0
 31
0.0
100
AcDbText
  0
LINE
  5
9B
330
17
100
AcDbEntity
  8
LIQUID
100
AcDbLine
 10
214.0
 20
382.0
 30
0.0
 11
370.0
 21
382.0
 31
0.0
  0
LWPOLYLINE
  5
9C
330
17
100
AcDbEntity
  8
LIQUID
100
AcDbPolyline
 90
6
 70
1
 10
206.0
 20
370.0
 10
244.0
 20
370.0
 10
244.0
 20
292.0
 10
229.0
 20
248.0
 10
221.0
 20
248.0
 10
206.0
 20
292.0
  0
TEXT
  5
9D
330
17
100
AcDbEntity
  8
TEXT_RU
100
AcDbText
 10
225.0
 20
342.0
 30
0.0
 40
5.6
  1
60 м³
  7
TXTRU
 72
1
 11
225.0
 21
342.0
 31
0.0
100
AcDbText
  0
TEXT
  5
9E
330
17
100
AcDbEntity
  8
TEXT_RU
100
AcDbText
 10
225.0
 20
328.0
 30
0.0
 40
4.55
  1
конц.
  7
TXTRU
 72
1
 11
225.0
 21
328.0
 31
0.0
100
AcDbText
  0
LINE
  5
9F
330
17
100
AcDbEntity
  8
LIQUID
100
AcDbLine
 10
225.0
 20
380.0
 30
0.0
 11
225.0
 21
373.0
 31
0.0
  0
SOLID
  5
A0
330
17
100
AcDbEntity
  8
LIQUID
100
AcDbTrace
 10
229.5
 20
382.0
 30
0.0
 11
225.0
 21
372.0
 31
0.0
 12
220.5
 22
382.0
 32
0.0
 13
220.5
 23
382.0
 33
0.0
  0
LWPOLYLINE
  5
A1
330
17
100
AcDbEntity
  8
LIQUID
100
AcDbPolyline
 90
6
 70
1
 10
252.0
 20
370.0
 10
290.0
 20
370.0
 10
290.0
 20
292.0
 10
275.0
 20
248.0
 10
267.0
 20
248.0
 10
252.0
 20
292.0
  0
TEXT
  5
A2
330
17
100
AcDbEntity
  8
TEXT_RU
100
AcDbText
 10
271.0
 20
342.0
 30
0.0
 40
5.6
  1
20 м³
  7
TXTRU
 72
1
 11
271.0
 21
342.0
 31
0.0
100
AcDbText
  0
TEXT
  5
A3
330
17
100
AcDbEntity
  8
TEXT_RU
100
AcDbText
 10
271.0
 20
328.0
 30
0.0
 40
4.55
  1
кек NNH
  7
TXTRU
 72
1
 11
271.0
 21
328.0
 31
0.0
100
AcDbText
  0
LINE
  5
A4
330
17
100
AcDbEntity
  8
LIQUID
100
AcDbLine
 10
271.0
 20
380.0
 30
0.0
 11
271.0
 21
373.0
 31
0.0
  0
SOLID
  5
A5
330
17
100
AcDbEntity
  8
LIQUID
100
AcDbTrace
 10
275.5
 20
382.0
 30
0.0
 11
271.0
 21
372.0
 31
0.0
 12
266.5
 22
382.0
 32
0.0
 13
266.5
 23
382.0
 33
0.0
  0
LWPOLYLINE
  5
A6
330
17
100
AcDbEntity
  8
LIQUID
100
AcDbPolyline
 90
6
 70
1
 10
298.0
 20
370.0
 10
336.0
 20
370.0
 10
336.0
 20
292.0
 10
321.0
 20
248.0
 10
313.0
 20
248.0
 10
298.0
 20
292.0
  0
TEXT
  5
A7
330
17
100
AcDbEntity
  8
TEXT_RU
100
AcDbText
 10
317.0
 20
342.0
 30
0.0
 40
5.6
  1
10 м³
  7
TXTRU
 72
1
 11
317.0
 21
342.0
 31
0.0
100
AcDbText
  0
TEXT
  5
A8
330
17
100
AcDbEntity
  8
TEXT_RU
100
AcDbText
 10
317.0
 20
328.0
 30
0.0
 40
4.55
  1
цем. медь
  7
TXTRU
 72
1
 11
317.0
 21
328.0
 31
0.0
100
AcDbText
  0
LINE
  5
A9
330
17
100
AcDbEntity
  8
LIQUID
100
AcDbLine
 10
317.0
 20
380.0
 30
0.0
 11
317.0
 21
373.0
 31
0.0
  0
SOLID
  5
AA
330
17
100
AcDbEntity
  8
LIQUID
100
AcDbTrace
 10
321.5
 20
382.0
 30
0.0
 11
317.0
 21
372.0
 31
0.0
 12
312.5
 22
382.0
 32
0.0
 13
312.5
 23
382.0
 33
0.0
  0
LWPOLYLINE
  5
AB
330
17
100
AcDbEntity
  8
LIQUID
100
AcDbPolyline
 90
6
 70
1
 10
344.0
 20
370.0
 10
382.0
 20
370.0
 10
382.0
 20
292.0
 10
367.0
 20
248.0
 10
359.0
 20
248.0
 10
344.0
 20
292.0
  0
TEXT
  5
AC
330
17
100
AcDbEntity
  8
TEXT_RU
100
AcDbText
 10
363.0
 20
342.0
 30
0.0
 40
5.6
  1
50 м³
  7
TXTRU
 72
1
 11
363.0
 21
342.0
 31
0.0
100
AcDbText
  0
TEXT
  5
AD
330
17
100
AcDbEntity
  8
TEXT_RU
100
AcDbText
 10
363.0
 20
328.0
 30
0.0
 40
4.55
  1
оборот.
  7
TXTRU
 72
1
 11
363.0
 21
328.0
 31
0.0
100
AcDbText
  0
LINE
  5
AE
330
17
100
AcDbEntity
  8
LIQUID
100
AcDbLine
 10
363.0
 20
380.0
 30
0.0
 11
363.0
 21
373.0
 31
0.0
  0
SOLID
  5
AF
330
17
100
AcDbEntity
  8
LIQUID
100
AcDbTrace
 10
367.5
 20
382.0
 30
0.0
 11
363.0
 21
372.0
 31
0.0
 12
358.5
 22
382.0
 32
0.0
 13
358.5
 23
382.0
 33
0.0
  0
LWPOLYLINE
  5
B0
330
17
100
AcDbEntity
  8
LIQUID
100
AcDbPolyline
 90
4
 70
1
 10
210.0
 20
244.0
 10
378.0
 20
244.0
 10
378.0
 20
226.0
 10
210.0
 20
226.0
  0
TEXT
  5
B1
330
17
100
AcDbEntity
  8
TEXT_RU
100
AcDbText
 10
290.0
 20
232.0
 30
0.0
 40
4.76
  1
питатели + весовые дозаторы · +7…8
  7
TXTRU
 72
1
 11
290.0
 21
232.0
 31
0.0
100
AcDbText
  0
LINE
  5
B2
330
17
100
AcDbEntity
  8
LIQUID
100
AcDbLine
 10
294.0
 20
226.0
 30
0.0
 11
294.0
 21
206.0
 31
0.0
  0
SOLID
  5
B3
330
17
100
AcDbEntity
  8
LIQUID
100
AcDbTrace
 10
298.5
 20
215.0
 30
0.0
 11
294.0
 21
205.0
 31
0.0
 12
289.5
 22
215.0
 32
0.0
 13
289.5
 23
215.0
 33
0.0
  0
LWPOLYLINE
  5
B4
330
17
100
AcDbEntity
  8
LIQUID
100
AcDbPolyline
 90
4
 70
1
 10
240.0
 20
204.0
 10
336.0
 20
204.0
 10
336.0
 20
178.0
 10
240.0
 20
178.0
  0
TEXT
  5
B5
330
17
100
AcDbEntity
  8
TEXT_RU
100
AcDbText
 10
288.0
 20
194.0
 30
0.0
 40
5.95
  1
СМЕСИТЕЛЬ СШ-25
  7
TXTRU
 72
1
 11
288.0
 21
194.0
 31
0.0
100
AcDbText
  0
TEXT
  5
B6
330
17
100
AcDbEntity
  8
TEXT_RU
100
AcDbText
 10
288.0
 20
183.0
 30
0.0
 40
4.9
  1
отм. +5
  7
TXTRU
 72
1
 11
288.0
 21
183.0
 31
0.0
100
AcDbText
  0
LWPOLYLINE
  5
B7
330
17
100
AcDbEntity
  8
DIM
100
AcDbPolyline
 90
4
 70
1
 10
190.0
 20
134.0
 10
350.0
 20
134.0
 10
350.0
 20
94.0
 10
190.0
 20
94.0
  0
TEXT
  5
B8
330
17
100
AcDbEntity
  8
TEXT_RU
100
AcDbText
 10
270.0
 20
122.0
 30
0.0
 40
4.9
  1
станция растаривания биг-бэгов;
  7
TXTRU
 72
1
 11
270.0
 21
122.0
 31
0.0
100
AcDbText
  0
TEXT
  5
B9
330
17
100
AcDbEntity
  8
TEXT_RU
100
AcDbText
 10
270.0
 20
111.0
 30
0.0
 40
4.9
  1
пост разгрузки цементной меди
  7
TXTRU
 72
1
 11
270.0
 21
111.0
 31
0.0
100
AcDbText
  0
TEXT
  5
BA
330
17
100
AcDbEntity
  8
TEXT_RU
100
AcDbText
 10
270.0
 20
100.0
 30
0.0
 40
4.55
  1
0,000 · у ворот (граница по ТЗ)
  7
TXTRU
 72
1
 11
270.0
 21
100.0
 31
0.0
100
AcDbText
  0
LINE
  5
BB
330
17
100
AcDbEntity
  8
LIQUID
100
AcDbLine
 10
336.0
 20
190.0
 30
0.0
 11
446.0
 21
332.0
 31
0.0
  0
SOLID
  5
BC
330
17
100
AcDbEntity
  8
LIQUID
100
AcDbTrace
 10
436.9309461675258
 20
327.64084152803724
 30
0.0
 11
446.61239774191046
 21
332.79054981228444
 31
0.0
 12
444.04589447808564
 22
322.12926185084297
 32
0.0
 13
444.04589447808564
 23
322.12926185084297
 33
0.0
  0
TEXT
  5
BD
330
17
100
AcDbEntity
  8
TEXT_RU
420
2783446
100
AcDbText
 10
262.0
 20
161.0
 30
0.0
 40
4.9
  1
наклонный конвейер УКВ-320-Ц-95
  7
TXTRU
 72
1
 11
262.0
 21
161.0
 31
0.0
100
AcDbText
  0
TEXT
  5
BE
330
17
100
AcDbEntity
  8
TEXT_RU
420
2783446
100
AcDbText
 10
262.0
 20
150.0
 30
0.0
 40
4.9
  1
→ на расходные бункеры у печи
  7
TXTRU
 72
1
 11
262.0
 21
150.0
 31
0.0
100
AcDbText
  0
TEXT
  5
BF
330
17
100
AcDbEntity
  8
TEXT_RU
100
AcDbText
 10
498.0
 20
348.0
 30
0.0
 40
5.6
  1
расходные бункеры
  7
TXTRU
 72
2
 11
498.0
 21
348.0
 31
0.0
100
AcDbText
  0
TEXT
  5
C0
330
17
100
AcDbEntity
  8
TEXT_RU
100
AcDbText
 10
498.0
 20
338.0
 30
0.0
 40
5.6
  1
2×60 м³
  7
TXTRU
 72
2
 11
498.0
 21
338.0
 31
0.0
100
AcDbText
  0
LWPOLYLINE
  5
C1
330
17
100
AcDbEntity
  8
LIQUID
100
AcDbPolyline
 90
6
 70
1
 10
434.0
 20
332.0
 10
464.0
 20
332.0
 10
464.0
 20
280.0
 10
453.0
 20
244.0
 10
445.0
 20
244.0
 10
434.0
 20
280.0
  0
LWPOLYLINE
  5
C2
330
17
100
AcDbEntity
  8
LIQUID
100
AcDbPolyline
 90
6
 70
1
 10
470.0
 20
332.0
 10
500.0
 20
332.0
 10
500.0
 20
280.0
 10
489.0
 20
244.0
 10
481.0
 20
244.0
 10
470.0
 20
280.0
  0
LWPOLYLINE
  5
C3
330
17
100
AcDbEntity
  8
LIQUID
100
AcDbPolyline
 90
4
 70
1
 10
438.0
 20
240.0
 10
496.0
 20
240.0
 10
496.0
 20
228.0
 10
438.0
 20
228.0
  0
TEXT
  5
C4
330
17
100
AcDbEntity
  8
TEXT_RU
100
AcDbText
 10
467.0
 20
231.0
 30
0.0
 40
4.41
  1
питатель-дозатор
  7
TXTRU
 72
1
 11
467.0
 21
231.0
 31
0.0
100
AcDbText
  0
LWPOLYLINE
  5
C5
330
17
100
AcDbEntity
  8
LIQUID
100
AcDbPolyline
 90
3
 70
0
 10
467.0
 20
228.0
 10
467.0
 20
216.0
 10
498.0
 20
216.0
  0
SOLID
  5
C6
330
17
100
AcDbEntity
  8
LIQUID
100
AcDbTrace
 10
489.0
 20
220.5
 30
0.0
 11
499.0
 21
216.0
 31
0.0
 12
489.0
 22
211.5
 32
0.0
 13
489.0
 23
211.5
 33
0.0
  0
TEXT
  5
C7
330
17
100
AcDbEntity
  8
TEXT_RU
100
AcDbText
 10
452.0
 20
204.0
 30
0.0
 40
4.9
  1
шнековый забрасыватель
  7
TXTRU
 72
1
 11
452.0
 21
204.0
 31
0.0
100
AcDbText
  0
LWPOLYLINE
  5
C8
330
17
100
AcDbEntity
  8
GAS
100
AcDbPolyline
 90
15
 70
1
 10
500.0
 20
180.0
 10
500.0
 20
350.0
 10
506.66666666666663
 20
354.2777777777778
 10
513.3333333333334
 20
357.77777777777777
 10
520.0
 20
360.5
 10
526.6666666666667
 20
362.4444444444444
 10
533.3333333333333
 20
363.61111111111114
 10
540.0
 20
364.0
 10
546.6666666666667
 20
363.6111111111111
 10
553.3333333333334
 20
362.44444444444446
 10
560.0
 20
360.5
 10
566.6666666666667
 20
357.77777777777777
 10
573.3333333333333
 20
354.2777777777778
 10
580.0
 20
350.0
 10
580.0
 20
180.0
  0
HATCH
  5
C9
330
17
100
AcDbEntity
  8
GAS
 62
7
420
16444640
100
AcDbHatch
 10
0.0
 20
0.0
 30
0.0
210
0.0
220
0.0
230
1.0
  2
SOLID
 70
1
 71
0
 91
1
 92
3
 72
0
 73
1
 93
4
 10
502.0
 20
222.0
 10
578.0
 20
222.0
 10
578.0
 20
182.0
 10
502.0
 20
182.0
 97
0
 75
0
 76
1
 98
0
  0
LINE
  5
CA
330
17
100
AcDbEntity
  8
GAS
100
AcDbLine
 10
500.0
 20
180.0
 30
0.0
 11
580.0
 21
180.0
 31
0.0
  0
TEXT
  5
CB
330
17
100
AcDbEntity
  8
TEXT_RU
100
AcDbText
 10
540.0
 20
324.0
 30
0.0
 40
7.0
  1
ПЕЧЬ КС
  7
TXTRU
 72
1
 11
540.0
 21
324.0
 31
0.0
100
AcDbText
  0
TEXT
  5
CC
330
17
100
AcDbEntity
  8
TEXT_RU
100
AcDbText
 10
540.0
 20
236.0
 30
0.0
 40
5.25
  1
порог ~+6,4…6,6
  7
TXTRU
 72
1
 11
540.0
 21
236.0
 31
0.0
100
AcDbText
  0
TEXT
  5
CD
330
17
100
AcDbEntity
  8
TEXT_RU
420
14712622
100
AcDbText
 10
540.0
 20
199.0
 30
0.0
 40
5.6
  1
слой КС · 930 °C
  7
TXTRU
 72
1
 11
540.0
 21
199.0
 31
0.0
100
AcDbText
  0
TEXT
  5
CE
330
17
100
AcDbEntity
  8
TEXT_RU
100
AcDbText
 10
494.0
 20
372.0
 30
0.0
 40
5.25
  1
свод ~+13,7
  7
TXTRU
 72
2
 11
494.0
 21
372.0
 31
0.0
100
AcDbText
  0
TEXT
  5
CF
330
17
100
AcDbEntity
  8
TEXT_RU
100
AcDbText
 10
494.0
 20
186.0
 30
0.0
 40
5.25
  1
подина — отм. +4,5 (предв.)
  7
TXTRU
 72
2
 11
494.0
 21
186.0
 31
0.0
100
AcDbText
  0
LINE
  5
D0
330
17
100
AcDbEntity
  8
OUTLINE
100
AcDbLine
 10
506.0
 20
180.0
 30
0.0
 11
506.0
 21
90.0
 31
0.0
  0
LINE
  5
D1
330
17
100
AcDbEntity
  8
OUTLINE
100
AcDbLine
 10
574.0
 20
180.0
 30
0.0
 11
574.0
 21
90.0
 31
0.0
  0
LWPOLYLINE
  5
D2
330
17
100
AcDbEntity
  8
DIM
100
AcDbPolyline
 90
4
 70
1
 10
512.0
 20
170.0
 10
568.0
 20
170.0
 10
568.0
 20
142.0
 10
512.0
 20
142.0
  0
TEXT
  5
D3
330
17
100
AcDbEntity
  8
TEXT_RU
100
AcDbText
 10
534.0
 20
160.0
 30
0.0
 40
4.55
  1
газ. коробка,
  7
TXTRU
 72
1
 11
534.0
 21
160.0
 31
0.0
100
AcDbText
  0
TEXT
  5
D4
330
17
100
AcDbEntity
  8
TEXT_RU
100
AcDbText
 10
534.0
 20
150.0
 30
0.0
 40
4.55
  1
дут. коллектор
  7
TXTRU
 72
1
 11
534.0
 21
150.0
 31
0.0
100
AcDbText
  0
LINE
  5
D5
330
17
100
AcDbEntity
  8
GAS
  6
DASHED
100
AcDbLine
 10
561.0
 20
178.0
 30
0.0
 11
561.0
 21
122.0
 31
0.0
  0
SOLID
  5
D6
330
17
100
AcDbEntity
  8
GAS
100
AcDbTrace
 10
565.5
 20
131.0
 30
0.0
 11
561.0
 21
121.0
 31
0.0
 12
556.5
 22
131.0
 32
0.0
 13
556.5
 23
131.0
 33
0.0
  0
LWPOLYLINE
  5
D7
330
17
100
AcDbEntity
  8
OUTLINE
100
AcDbPolyline
 90
4
 70
1
 10
546.0
 20
118.0
 10
572.0
 20
118.0
 10
572.0
 20
94.0
 10
546.0
 20
94.0
  0
TEXT
  5
D8
330
17
100
AcDbEntity
  8
TEXT_RU
100
AcDbText
 10
559.0
 20
104.0
 30
0.0
 40
4.2
  1
кюбель
  7
TXTRU
 72
1
 11
559.0
 21
104.0
 31
0.0
100
AcDbText
  0
TEXT
  5
D9
330
17
100
AcDbEntity
  8
TEXT_RU
100
AcDbText
 10
578.0
 20
110.0
 30
0.0
 40
4.9
  1
авар. донная выгрузка
  7
TXTRU
 11
578.0
 21
110.0
 31
0.0
100
AcDbText
  0
TEXT
  5
DA
330
17
100
AcDbEntity
  8
TEXT_RU
100
AcDbText
 10
578.0
 20
100.0
 30
0.0
 40
4.9
  1
в кюбель · 0,000
  7
TXTRU
 11
578.0
 21
100.0
 31
0.0
100
AcDbText
  0
LWPOLYLINE
  5
DB
330
17
100
AcDbEntity
  8
DIM
100
AcDbPolyline
 90
4
 70
1
 10
430.0
 20
134.0
 10
498.0
 20
134.0
 10
498.0
 20
94.0
 10
430.0
 20
94.0
  0
TEXT
  5
DC
330
17
100
AcDbEntity
  8
TEXT_RU
100
AcDbText
 10
464.0
 20
123.0
 30
0.0
 40
5.25
  1
ВОЗДУХОДУВКА
  7
TXTRU
 72
1
 11
464.0
 21
123.0
 31
0.0
100
AcDbText
  0
TEXT
  5
DD
330
17
100
AcDbEntity
  8
TEXT_RU
100
AcDbText
 10
464.0
 20
113.0
 30
0.0
 40
4.9
  1
ДУТЬЯ · 0,000
  7
TXTRU
 72
1
 11
464.0
 21
113.0
 31
0.0
100
AcDbText
  0
TEXT
  5
DE
330
17
100
AcDbEntity
  8
TEXT_RU
100
AcDbText
 10
464.0
 20
102.0
 30
0.0
 40
4.55
  1
шумоизолир. бокс
  7
TXTRU
 72
1
 11
464.0
 21
102.0
 31
0.0
100
AcDbText
  0
LWPOLYLINE
  5
DF
330
17
100
AcDbEntity
  8
DIM
100
AcDbPolyline
 90
3
 70
0
 10
464.0
 20
134.0
 10
464.0
 20
156.0
 10
510.0
 20
156.0
  0
SOLID
  5
E0
330
17
100
AcDbEntity
  8
DIM
100
AcDbTrace
 10
501.0
 20
160.5
 30
0.0
 11
511.0
 21
156.0
 31
0.0
 12
501.0
 22
151.5
 32
0.0
 13
501.0
 23
151.5
 33
0.0
  0
TEXT
  5
E1
330
17
100
AcDbEntity
  8
TEXT_RU
100
AcDbText
 10
452.0
 20
162.0
 30
0.0
 40
4.9
  1
дутьё (воздух + O₂)
  7
TXTRU
 72
1
 11
452.0
 21
162.0
 31
0.0
100
AcDbText
  0
LWPOLYLINE
  5
E2
330
17
100
AcDbEntity
  8
GAS
100
AcDbPolyline
 90
4
 70
1
 10
606.0
 20
432.0
 10
662.0
 20
432.0
 10
662.0
 20
250.0
 10
606.0
 20
250.0
  0
LWPOLYLINE
  5
E3
330
17
100
AcDbEntity
  8
GAS
100
AcDbPolyline
 90
4
 70
1
 10
606.0
 20
250.0
 10
662.0
 20
250.0
 10
640.0
 20
198.0
 10
628.0
 20
198.0
  0
LWPOLYLINE
  5
E4
330
17
100
AcDbEntity
  8
GAS
100
AcDbPolyline
 90
4
 70
0
 10
540.0
 20
372.0
 10
540.0
 20
408.0
 10
634.0
 20
408.0
 10
634.0
 20
434.0
  0
SOLID
  5
E5
330
17
100
AcDbEntity
  8
GAS
100
AcDbTrace
 10
629.5
 20
425.0
 30
0.0
 11
634.0
 21
435.0
 31
0.0
 12
638.5
 22
425.0
 32
0.0
 13
638.5
 23
425.0
 33
0.0
  0
TEXT
  5
E6
330
17
100
AcDbEntity
  8
TEXT_RU
420
14712622
100
AcDbText
 10
630.0
 20
414.0
 30
0.0
 40
5.6
  1
Ø2000 · 882,8 °C
  7
TXTRU
 72
2
 11
630.0
 21
414.0
 31
0.0
100
AcDbText
  0
TEXT
  5
E7
330
17
100
AcDbEntity
  8
TEXT_RU
100
AcDbText
 10
634.0
 20
438.0
 30
0.0
 40
6.3
  1
КОТЁЛ-УТИЛИЗАТОР
  7
TXTRU
 72
1
 11
634.0
 21
438.0
 31
0.0
100
AcDbText
  0
TEXT
  5
E8
330
17
100
AcDbEntity
  8
TEXT_RU
100
AcDbText
 10
634.0
 20
340.0
 30
0.0
 40
4.9
  1
на самостоятельном каркасе
 50
90.0
  7
TXTRU
 72
1
 11
634.0
 21
340.0
 31
0.0
100
AcDbText
  0
CIRCLE
  5
E9
330
17
100
AcDbEntity
  8
GAS
  6
DASHED
100
AcDbCircle
 10
634.0
 20
458.0
 30
0.0
 40
12.0
  0
TEXT
  5
EA
330
17
100
AcDbEntity
  8
TEXT_RU
100
AcDbText
 10
664.0
 20
464.0
 30
0.0
 40
4.9
  1
барабан ~+18…20 (по КД завода)
  7
TXTRU
 11
664.0
 21
464.0
 31
0.0
100
AcDbText
  0
LINE
  5
EB
330
17
100
AcDbEntity
  8
LIQUID
100
AcDbLine
 10
644.0
 20
466.0
 30
0.0
 11
662.0
 21
484.0
 31
0.0
  0
SOLID
  5
EC
330
17
100
AcDbEntity
  8
LIQUID
100
AcDbTrace
 10
652.4540584539816
 20
480.81801948466057
 30
0.0
 11
662.7071067811866
 21
484.70710678118655
 31
0.0
 12
658.8180194846605
 22
474.4540584539816
 32
0.0
 13
658.8180194846605
 23
474.4540584539816
 33
0.0
  0
TEXT
  5
ED
330
17
100
AcDbEntity
  8
TEXT_RU
420
2783446
100
AcDbText
 10
666.0
 20
488.0
 30
0.0
 40
4.9
  1
пар 1,9 МПа / 375 °C · 4,102 т/ч
  7
TXTRU
 11
666.0
 21
488.0
 31
0.0
100
AcDbText
  0
LINE
  5
EE
330
17
100
AcDbEntity
  8
LIQUID
100
AcDbLine
 10
584.0
 20
390.0
 30
0.0
 11
604.0
 21
390.0
 31
0.0
  0
SOLID
  5
EF
330
17
100
AcDbEntity
  8
LIQUID
100
AcDbTrace
 10
595.0
 20
394.5
 30
0.0
 11
605.0
 21
390.0
 31
0.0
 12
595.0
 22
385.5
 32
0.0
 13
595.0
 23
385.5
 33
0.0
  0
TEXT
  5
F0
330
17
100
AcDbEntity
  8
TEXT_RU
420
2783446
100
AcDbText
 10
588.0
 20
396.0
 30
0.0
 40
4.55
  1
ХОВ 105 °C
  7
TXTRU
 72
2
 11
588.0
 21
396.0
 31
0.0
100
AcDbText
  0
TEXT
  5
F1
330
17
100
AcDbEntity
  8
TEXT_RU
100
AcDbText
 10
668.0
 20
220.0
 30
0.0
 40
4.9
  1
шнек пыли КУ · +4…5
  7
TXTRU
 11
668.0
 21
220.0
 31
0.0
100
AcDbText
  0
LINE
  5
F2
330
17
100
AcDbEntity
  8
DUST
100
AcDbLine
 10
634.0
 20
196.0
 30
0.0
 11
634.0
 21
184.0
 31
0.0
  0
SOLID
  5
F3
330
17
100
AcDbEntity
  8
DUST
100
AcDbTrace
 10
638.5
 20
193.0
 30
0.0
 11
634.0
 21
183.0
 31
0.0
 12
629.5
 22
193.0
 32
0.0
 13
629.5
 23
193.0
 33
0.0
  0
TEXT
  5
F4
330
17
100
AcDbEntity
  8
TEXT_RU
420
10702494
100
AcDbText
 10
646.0
 20
188.0
 30
0.0
 40
4.9
  1
пыль КУ
  7
TXTRU
 11
646.0
 21
188.0
 31
0.0
100
AcDbText
  0
TEXT
  5
F5
330
17
100
AcDbEntity
  8
TEXT_RU
420
13646651
100
AcDbText
 10
548.0
 20
516.0
 30
0.0
 40
5.6
  1
мостовой кран печи/КУ · 20/5 т (предв., по массе барабана КУ)
  7
TXTRU
 72
1
 11
548.0
 21
516.0
 31
0.0
100
AcDbText
  0
LINE
  5
F6
330
17
100
AcDbEntity
  8
INTERLOCK
100
AcDbLine
 10
436.0
 20
506.0
 30
0.0
 11
668.0
 21
506.0
 31
0.0
  0
LWPOLYLINE
  5
F7
330
17
100
AcDbEntity
  8
INTERLOCK
100
AcDbPolyline
 90
4
 70
1
 10
540.0
 20
504.0
 10
564.0
 20
504.0
 10
564.0
 20
496.0
 10
540.0
 20
496.0
  0
LINE
  5
F8
330
17
100
AcDbEntity
  8
INTERLOCK
100
AcDbLine
 10
552.0
 20
496.0
 30
0.0
 11
552.0
 21
484.0
 31
0.0
  0
LWPOLYLINE
  5
F9
330
17
100
AcDbEntity
  8
INTERLOCK
100
AcDbPolyline
 90
25
 70
0
 10
552.0
 20
484.0
 10
551.2196387119354
 20
483.92314112161296
 10
550.4692662705396
 20
483.6955181300451
 10
549.7777190679216
 20
483.3258784492102
 10
549.1715728752538
 20
482.8284271247462
 10
548.6741215507898
 20
482.22228093207843
 10
548.3044818699549
 20
481.5307337294604
 10
548.076858878387
 20
480.7803612880645
 10
548.0
 20
480.0
 10
548.076858878387
 20
479.2196387119355
 10
548.3044818699549
 20
478.4692662705396
 10
548.6741215507898
 20
477.77771906792157
 10
549.1715728752538
 20
477.1715728752538
 10
549.7777190679216
 20
476.6741215507898
 10
550.4692662705396
 20
476.3044818699549
 10
551.2196387119355
 20
476.07685887838704
 10
552.0
 20
476.0
 10
552.7803612880645
 20
476.07685887838704
 10
553.5307337294604
 20
476.3044818699549
 10
554.2222809320784
 20
476.6741215507898
 10
554.8284271247462
 20
477.1715728752538
 10
555.3258784492102
 20
477.77771906792157
 10
555.6955181300451
 20
478.4692662705396
 10
555.923141121613
 20
479.2196387119355
 10
556.0
 20
480.0
  0
LINE
  5
FA
330
17
100
AcDbEntity
  8
GAS
100
AcDbLine
 10
580.0
 20
218.0
 30
0.0
 11
614.0
 21
184.0
 31
0.0
  0
SOLID
  5
FB
330
17
100
AcDbEntity
  8
GAS
100
AcDbTrace
 10
610.8180194846605
 20
193.5459415460184
 30
0.0
 11
614.7071067811866
 21
183.29289321881345
 31
0.0
 12
604.4540584539816
 22
187.18198051533943
 32
0.0
 13
604.4540584539816
 23
187.18198051533943
 33
0.0
  0
TEXT
  5
FC
330
17
100
AcDbEntity
  8
TEXT_RU
420
14712622
100
AcDbText
 10
600.0
 20
208.0
 30
0.0
 40
4.9
  1
огарок
  7
TXTRU
 11
600.0
 21
208.0
 31
0.0
100
AcDbText
  0
LWPOLYLINE
  5
FD
330
17
100
AcDbEntity
  8
LIQUID
100
AcDbPolyline
 90
4
 70
1
 10
600.0
 20
182.0
 10
702.0
 20
182.0
 10
702.0
 20
156.0
 10
600.0
 20
156.0
  0
TEXT
  5
FE
330
17
100
AcDbEntity
  8
TEXT_RU
100
AcDbText
 10
651.0
 20
172.0
 30
0.0
 40
4.9
  1
ХОЛОДИЛЬНИК D2424-6
  7
TXTRU
 72
1
 11
651.0
 21
172.0
 31
0.0
100
AcDbText
  0
TEXT
  5
FF
330
17
100
AcDbEntity
  8
TEXT_RU
100
AcDbText
 10
651.0
 20
162.0
 30
0.0
 40
4.55
  1
огарок+пыль 837,6→70 °C
  7
TXTRU
 72
1
 11
651.0
 21
162.0
 31
0.0
100
AcDbText
  0
TEXT
  5
100
330
17
100
AcDbEntity
  8
TEXT_RU
100
AcDbText
 10
655.0
 20
144.0
 30
0.0
 40
4.9
  1
загруз. патрубок +5,2…5,5 (уточняется по КД печи)
  7
TXTRU
 72
1
 11
655.0
 21
144.0
 31
0.0
100
AcDbText
  0
TEXT
  5
101
330
17
100
AcDbEntity
  8
TEXT_RU
420
2783446
100
AcDbText
 10
655.0
 20
134.0
 30
0.0
 40
4.9
  1
выдача: шнеками в силосные башни →
  7
TXTRU
 72
1
 11
655.0
 21
134.0
 31
0.0
100
AcDbText
  0
LINE
  5
102
330
17
100
AcDbEntity
  8
OUTLINE
100
AcDbLine
 10
744.0
 20
210.0
 30
0.0
 11
788.0
 21
210.0
 31
0.0
  0
LINE
  5
103
330
17
100
AcDbEntity
  8
OUTLINE
100
AcDbLine
 10
750.0
 20
210.0
 30
0.0
 11
750.0
 21
90.0
 31
0.0
  0
LINE
  5
104
330
17
100
AcDbEntity
  8
OUTLINE
100
AcDbLine
 10
782.0
 20
210.0
 30
0.0
 11
782.0
 21
90.0
 31
0.0
  0
LWPOLYLINE
  5
105
330
17
100
AcDbEntity
  8
DUST
100
AcDbPolyline
 90
4
 70
1
 10
748.0
 20
330.0
 10
784.0
 20
330.0
 10
784.0
 20
268.0
 10
748.0
 20
268.0
  0
LWPOLYLINE
  5
106
330
17
100
AcDbEntity
  8
DUST
100
AcDbPolyline
 90
4
 70
1
 10
748.0
 20
268.0
 10
784.0
 20
268.0
 10
772.0
 20
222.0
 10
760.0
 20
222.0
  0
LWPOLYLINE
  5
107
330
17
100
AcDbEntity
  8
DUST
100
AcDbPolyline
 90
4
 70
1
 10
752.0
 20
222.0
 10
780.0
 20
222.0
 10
780.0
 20
210.0
 10
752.0
 20
210.0
  0
TEXT
  5
108
330
17
100
AcDbEntity
  8
TEXT_RU
100
AcDbText
 10
760.0
 20
352.0
 30
0.0
 40
5.6
  1
ЦИКЛОН СЦН-50
  7
TXTRU
 72
2
 11
760.0
 21
352.0
 31
0.0
100
AcDbText
  0
TEXT
  5
109
330
17
100
AcDbEntity
  8
TEXT_RU
100
AcDbText
 10
760.0
 20
342.0
 30
0.0
 40
4.9
  1
H=6,1 м · бункер 8,5 м³
  7
TXTRU
 72
2
 11
760.0
 21
342.0
 31
0.0
100
AcDbText
  0
LWPOLYLINE
  5
10A
330
17
100
AcDbEntity
  8
DUST
100
AcDbPolyline
 90
4
 70
1
 10
704.0
 20
188.0
 10
786.0
 20
188.0
 10
786.0
 20
178.0
 10
704.0
 20
178.0
  0
LINE
  5
10B
330
17
100
AcDbEntity
  8
DUST
100
AcDbLine
 10
766.0
 20
210.0
 30
0.0
 11
766.0
 21
190.0
 31
0.0
  0
SOLID
  5
10C
330
17
100
AcDbEntity
  8
DUST
100
AcDbTrace
 10
770.5
 20
199.0
 30
0.0
 11
766.0
 21
189.0
 31
0.0
 12
761.5
 22
199.0
 32
0.0
 13
761.5
 23
199.0
 33
0.0
  0
LINE
  5
10D
330
17
100
AcDbEntity
  8
DUST
100
AcDbLine
 10
704.0
 20
183.0
 30
0.0
 11
701.0
 21
183.0
 31
0.0
  0
SOLID
  5
10E
330
17
100
AcDbEntity
  8
DUST
100
AcDbTrace
 10
710.0
 20
178.5
 30
0.0
 11
700.0
 21
183.0
 31
0.0
 12
710.0
 22
187.5
 32
0.0
 13
710.0
 23
187.5
 33
0.0
  0
TEXT
  5
10F
330
17
100
AcDbEntity
  8
TEXT_RU
420
10702494
100
AcDbText
 10
745.0
 20
180.0
 30
0.0
 40
4.55
  1
шнек грубой пыли
  7
TXTRU
 72
1
 11
745.0
 21
180.0
 31
0.0
100
AcDbText
  0
LINE
  5
110
330
17
100
AcDbEntity
  8
GAS
100
AcDbLine
 10
662.0
 20
310.0
 30
0.0
 11
746.0
 21
310.0
 31
0.0
  0
SOLID
  5
111
330
17
100
AcDbEntity
  8
GAS
100
AcDbTrace
 10
737.0
 20
314.5
 30
0.0
 11
747.0
 21
310.0
 31
0.0
 12
737.0
 22
305.5
 32
0.0
 13
737.0
 23
305.5
 33
0.0
  0
TEXT
  5
112
330
17
100
AcDbEntity
  8
TEXT_RU
420
14712622
100
AcDbText
 10
704.0
 20
317.0
 30
0.0
 40
5.6
  1
400 °C
  7
TXTRU
 72
1
 11
704.0
 21
317.0
 31
0.0
100
AcDbText
  0
LWPOLYLINE
  5
113
330
17
100
AcDbEntity
  8
GAS
100
AcDbPolyline
 90
3
 70
0
 10
766.0
 20
330.0
 10
766.0
 20
378.0
 10
786.0
 20
378.0
  0
SOLID
  5
114
330
17
100
AcDbEntity
  8
GAS
100
AcDbTrace
 10
777.0
 20
382.5
 30
0.0
 11
787.0
 21
378.0
 31
0.0
 12
777.0
 22
373.5
 32
0.0
 13
777.0
 23
373.5
 33
0.0
  0
LWPOLYLINE
  5
115
330
17
100
AcDbEntity
  8
DUST
100
AcDbPolyline
 90
4
 70
1
 10
788.0
 20
464.0
 10
969.0
 20
464.0
 10
969.0
 20
242.0
 10
788.0
 20
242.0
  0
LINE
  5
116
330
17
100
AcDbEntity
  8
DIM
  6
DASHED
100
AcDbLine
 10
833.0
 20
400.0
 30
0.0
 11
833.0
 21
252.0
 31
0.0
  0
LINE
  5
117
330
17
100
AcDbEntity
  8
DIM
  6
DASHED
100
AcDbLine
 10
878.0
 20
400.0
 30
0.0
 11
878.0
 21
252.0
 31
0.0
  0
LINE
  5
118
330
17
100
AcDbEntity
  8
DIM
  6
DASHED
100
AcDbLine
 10
923.0
 20
400.0
 30
0.0
 11
923.0
 21
252.0
 31
0.0
  0
LWPOLYLINE
  5
119
330
17
100
AcDbEntity
  8
DUST
100
AcDbPolyline
 90
4
 70
1
 10
788.0
 20
242.0
 10
848.0
 20
242.0
 10
823.0
 20
188.0
 10
813.0
 20
188.0
  0
LWPOLYLINE
  5
11A
330
17
100
AcDbEntity
  8
DUST
100
AcDbPolyline
 90
4
 70
1
 10
848.0
 20
242.0
 10
909.0
 20
242.0
 10
883.5
 20
188.0
 10
873.5
 20
188.0
  0
LWPOLYLINE
  5
11B
330
17
100
AcDbEntity
  8
DUST
100
AcDbPolyline
 90
4
 70
1
 10
909.0
 20
242.0
 10
969.0
 20
242.0
 10
944.0
 20
188.0
 10
934.0
 20
188.0
  0
LINE
  5
11C
330
17
100
AcDbEntity
  8
DUST
100
AcDbLine
 10
800.0
 20
184.0
 30
0.0
 11
950.0
 21
184.0
 31
0.0
  0
LINE
  5
11D
330
17
100
AcDbEntity
  8
OUTLINE
100
AcDbLine
 10
800.0
 20
184.0
 30
0.0
 11
800.0
 21
90.0
 31
0.0
  0
LINE
  5
11E
330
17
100
AcDbEntity
  8
OUTLINE
100
AcDbLine
 10
936.0
 20
184.0
 30
0.0
 11
936.0
 21
90.0
 31
0.0
  0
TEXT
  5
11F
330
17
100
AcDbEntity
  8
TEXT_RU
100
AcDbText
 10
878.0
 20
448.0
 30
0.0
 40
6.3
  1
ЭЛЕКТРОФИЛЬТРЫ УГТ1-20-4
  7
TXTRU
 72
1
 11
878.0
 21
448.0
 31
0.0
100
AcDbText
  0
TEXT
  5
120
330
17
100
AcDbEntity
  8
TEXT_RU
100
AcDbText
 10
878.0
 20
435.0
 30
0.0
 40
4.9
  1
2 шт. — рабочий/резерв (второй за разрезом)
  7
TXTRU
 72
1
 11
878.0
 21
435.0
 31
0.0
100
AcDbText
  0
TEXT
  5
121
330
17
100
AcDbEntity
  8
TEXT_RU
100
AcDbText
 10
878.0
 20
422.0
 30
0.0
 40
4.9
  1
в плане 18,1 × 4,8 м · высота 18,7 м
  7
TXTRU
 72
1
 11
878.0
 21
422.0
 31
0.0
100
AcDbText
  0
LINE
  5
122
330
17
100
AcDbEntity
  8
DUST
100
AcDbLine
 10
878.0
 20
184.0
 30
0.0
 11
878.0
 21
140.0
 31
0.0
  0
SOLID
  5
123
330
17
100
AcDbEntity
  8
DUST
100
AcDbTrace
 10
882.5
 20
149.0
 30
0.0
 11
878.0
 21
139.0
 31
0.0
 12
873.5
 22
149.0
 32
0.0
 13
873.5
 23
149.0
 33
0.0
  0
TEXT
  5
124
330
17
100
AcDbEntity
  8
TEXT_RU
420
10702494
100
AcDbText
 10
872.0
 20
158.0
 30
0.0
 40
4.9
  1
тонкая пыль
  7
TXTRU
 72
2
 11
872.0
 21
158.0
 31
0.0
100
AcDbText
  0
LWPOLYLINE
  5
125
330
17
100
AcDbEntity
  8
DUST
100
AcDbPolyline
 90
4
 70
1
 10
828.0
 20
138.0
 10
932.0
 20
138.0
 10
932.0
 20
94.0
 10
828.0
 20
94.0
  0
TEXT
  5
126
330
17
100
AcDbEntity
  8
TEXT_RU
100
AcDbText
 10
880.0
 20
128.0
 30
0.0
 40
4.9
  1
ХОЛОДИЛЬНИК
  7
TXTRU
 72
1
 11
880.0
 21
128.0
 31
0.0
100
AcDbText
  0
TEXT
  5
127
330
17
100
AcDbEntity
  8
TEXT_RU
100
AcDbText
 10
880.0
 20
119.0
 30
0.0
 40
4.9
  1
ТОНКОЙ ПЫЛИ
  7
TXTRU
 72
1
 11
880.0
 21
119.0
 31
0.0
100
AcDbText
  0
TEXT
  5
128
330
17
100
AcDbEntity
  8
TEXT_RU
100
AcDbText
 10
880.0
 20
109.0
 30
0.0
 40
4.55
  1
S710-4 · 387→70 °C
  7
TXTRU
 72
1
 11
880.0
 21
109.0
 31
0.0
100
AcDbText
  0
TEXT
  5
129
330
17
100
AcDbEntity
  8
TEXT_RU
100
AcDbText
 10
880.0
 20
99.0
 30
0.0
 40
4.55
  1
→ силос 10 м³, в оборотные
  7
TXTRU
 72
1
 11
880.0
 21
99.0
 31
0.0
100
AcDbText
  0
LWPOLYLINE
  5
12A
330
17
100
AcDbEntity
  8
GAS
100
AcDbPolyline
 90
3
 70
0
 10
969.0
 20
340.0
 10
990.0
 20
340.0
 10
990.0
 20
172.0
  0
LINE
  5
12B
330
17
100
AcDbEntity
  8
GAS
100
AcDbLine
 10
990.0
 20
150.0
 30
0.0
 11
990.0
 21
138.0
 31
0.0
  0
SOLID
  5
12C
330
17
100
AcDbEntity
  8
GAS
100
AcDbTrace
 10
994.5
 20
147.0
 30
0.0
 11
990.0
 21
137.0
 31
0.0
 12
985.5
 22
147.0
 32
0.0
 13
985.5
 23
147.0
 33
0.0
  0
LWPOLYLINE
  5
12D
330
17
100
AcDbEntity
  8
GAS
100
AcDbPolyline
 90
4
 70
1
 10
952.0
 20
136.0
 10
1028.0
 20
136.0
 10
1028.0
 20
94.0
 10
952.0
 20
94.0
  0
TEXT
  5
12E
330
17
100
AcDbEntity
  8
TEXT_RU
100
AcDbText
 10
990.0
 20
124.0
 30
0.0
 40
5.6
  1
ДЫМОСОСЫ
  7
TXTRU
 72
1
 11
990.0
 21
124.0
 31
0.0
100
AcDbText
  0
TEXT
  5
12F
330
17
100
AcDbEntity
  8
TEXT_RU
100
AcDbText
 10
990.0
 20
113.0
 30
0.0
 40
4.41
  1
ДН-15БНЖ · 2 шт.
  7
TXTRU
 72
1
 11
990.0
 21
113.0
 31
0.0
100
AcDbText
  0
TEXT
  5
130
330
17
100
AcDbEntity
  8
TEXT_RU
100
AcDbText
 10
990.0
 20
102.0
 30
0.0
 40
4.41
  1
0,000 · инд. фундаменты
  7
TXTRU
 72
1
 11
990.0
 21
102.0
 31
0.0
100
AcDbText
  0
LWPOLYLINE
  5
131
330
17
100
AcDbEntity
  8
DIM
100
AcDbPolyline
 90
4
 70
1
 10
962.0
 20
94.0
 10
986.0
 20
94.0
 10
986.0
 20
88.0
 10
962.0
 20
88.0
  0
LWPOLYLINE
  5
132
330
17
100
AcDbEntity
  8
DIM
100
AcDbPolyline
 90
4
 70
1
 10
994.0
 20
94.0
 10
1018.0
 20
94.0
 10
1018.0
 20
88.0
 10
994.0
 20
88.0
  0
LINE
  5
133
330
17
100
AcDbEntity
  8
INTERLOCK
100
AcDbLine
 10
962.0
 20
156.0
 30
0.0
 11
1018.0
 21
156.0
 31
0.0
  0
LINE
  5
134
330
17
100
AcDbEntity
  8
INTERLOCK
100
AcDbLine
 10
970.0
 20
156.0
 30
0.0
 11
970.0
 21
150.0
 31
0.0
  0
LINE
  5
135
330
17
100
AcDbEntity
  8
INTERLOCK
100
AcDbLine
 10
1010.0
 20
156.0
 30
0.0
 11
1010.0
 21
150.0
 31
0.0
  0
TEXT
  5
136
330
17
100
AcDbEntity
  8
TEXT_RU
420
13646651
100
AcDbText
 10
1016.0
 20
161.0
 30
0.0
 40
5.25
  1
кран-балка 5 т
  7
TXTRU
 72
2
 11
1016.0
 21
161.0
 31
0.0
100
AcDbText
  0
LWPOLYLINE
  5
137
330
17
100
AcDbEntity
  8
GAS
100
AcDbPolyline
 90
4
 70
0
 10
1016.0
 20
118.0
 10
1026.0
 20
118.0
 10
1026.0
 20
490.0
 10
1170.0
 20
490.0
  0
SOLID
  5
138
330
17
100
AcDbEntity
  8
GAS
100
AcDbTrace
 10
1161.0
 20
494.5
 30
0.0
 11
1171.0
 21
490.0
 31
0.0
 12
1161.0
 22
485.5
 32
0.0
 13
1161.0
 23
485.5
 33
0.0
  0
TEXT
  5
139
330
17
100
AcDbEntity
  8
TEXT_RU
420
14712622
100
AcDbText
 10
1018.0
 20
320.0
 30
0.0
 40
5.25
  1
387 °C
 50
90.0
  7
TXTRU
 72
1
 11
1018.0
 21
320.0
 31
0.0
100
AcDbText
  0
TEXT
  5
13A
330
17
100
AcDbEntity
  8
TEXT_RU
420
828172
100
AcDbText
 10
1168.0
 20
498.0
 30
0.0
 40
5.25
  1
в СКЦ · Ø1100 мм · 387 °C · 13 262 нм³/ч · 9,4 м/с
  7
TXTRU
 72
2
 11
1168.0
 21
498.0
 31
0.0
100
AcDbText
  0
TEXT
  5
13B
330
17
100
AcDbEntity
  8
TEXT_RU
100
AcDbText
 10
1034.0
 20
479.0
 30
0.0
 40
4.9
  1
эстакада; трасса по генплану (уточн.)
  7
TXTRU
 11
1034.0
 21
479.0
 31
0.0
100
AcDbText
  0
LWPOLYLINE
  5
13C
330
17
100
AcDbEntity
  8
DIM
  6
DASHED
100
AcDbPolyline
 90
4
 70
1
 10
1050.0
 20
450.0
 10
1164.0
 20
450.0
 10
1164.0
 20
88.0
 10
1050.0
 20
88.0
  0
TEXT
  5
13D
330
17
100
AcDbEntity
  8
TEXT_RU
420
2783446
100
AcDbText
 10
1107.0
 20
438.0
 30
0.0
 40
4.55
  1
загрузка: шнеками от холодильников
  7
TXTRU
 72
1
 11
1107.0
 21
438.0
 31
0.0
100
AcDbText
  0
LWPOLYLINE
  5
13E
330
17
100
AcDbEntity
  8
LIQUID
100
AcDbPolyline
 90
4
 70
1
 10
1056.0
 20
428.0
 10
1096.0
 20
428.0
 10
1096.0
 20
232.0
 10
1056.0
 20
232.0
  0
LWPOLYLINE
  5
13F
330
17
100
AcDbEntity
  8
LIQUID
100
AcDbPolyline
 90
4
 70
1
 10
1056.0
 20
232.0
 10
1096.0
 20
232.0
 10
1080.0
 20
174.0
 10
1072.0
 20
174.0
  0
TEXT
  5
140
330
17
100
AcDbEntity
  8
TEXT_RU
100
AcDbText
 10
1076.0
 20
330.0
 30
0.0
 40
5.6
  1
100 м³
  7
TXTRU
 72
1
 11
1076.0
 21
330.0
 31
0.0
100
AcDbText
  0
LWPOLYLINE
  5
141
330
17
100
AcDbEntity
  8
LIQUID
100
AcDbPolyline
 90
4
 70
1
 10
1112.0
 20
288.0
 10
1140.0
 20
288.0
 10
1140.0
 20
220.0
 10
1112.0
 20
220.0
  0
LWPOLYLINE
  5
142
330
17
100
AcDbEntity
  8
LIQUID
100
AcDbPolyline
 90
4
 70
1
 10
1112.0
 20
220.0
 10
1140.0
 20
220.0
 10
1130.0
 20
174.0
 10
1122.0
 20
174.0
  0
TEXT
  5
143
330
17
100
AcDbEntity
  8
TEXT_RU
100
AcDbText
 10
1126.0
 20
250.0
 30
0.0
 40
4.55
  1
10 м³
  7
TXTRU
 72
1
 11
1126.0
 21
250.0
 31
0.0
100
AcDbText
  0
TEXT
  5
144
330
17
100
AcDbEntity
  8
TEXT_RU
100
AcDbText
 10
1100.0
 20
424.0
 30
0.0
 40
4.9
  1
верх ~+17
  7
TXTRU
 11
1100.0
 21
424.0
 31
0.0
100
AcDbText
  0
TEXT
  5
145
330
17
100
AcDbEntity
  8
TEXT_RU
100
AcDbText
 10
1098.0
 20
168.0
 30
0.0
 40
4.9
  1
низ конуса +4,2
  7
TXTRU
 11
1098.0
 21
168.0
 31
0.0
100
AcDbText
  0
LINE
  5
146
330
17
100
AcDbEntity
  8
LIQUID
  6
DASHED
100
AcDbLine
 10
1076.0
 20
174.0
 30
0.0
 11
1076.0
 21
162.0
 31
0.0
  0
LWPOLYLINE
  5
147
330
17
100
AcDbEntity
  8
OUTLINE
100
AcDbPolyline
 90
4
 70
1
 10
1050.0
 20
162.0
 10
1142.0
 20
162.0
 10
1142.0
 20
104.0
 10
1050.0
 20
104.0
  0
CIRCLE
  5
148
330
17
100
AcDbEntity
  8
OUTLINE
100
AcDbCircle
 10
1068.0
 20
102.0
 30
0.0
 40
7.0
  0
CIRCLE
  5
149
330
17
100
AcDbEntity
  8
OUTLINE
100
AcDbCircle
 10
1122.0
 20
102.0
 30
0.0
 40
7.0
  0
TEXT
  5
14A
330
17
100
AcDbEntity
  8
TEXT_RU
100
AcDbText
 10
1096.0
 20
132.0
 30
0.0
 40
4.55
  1
автоцементовоз · H=4,0 м
  7
TXTRU
 72
1
 11
1096.0
 21
132.0
 31
0.0
100
AcDbText
  0
TEXT
  5
14B
330
17
100
AcDbEntity
  8
TEXT_RU
100
AcDbText
 10
1096.0
 20
120.0
 30
0.0
 40
4.2
  1
налив — гофрорукав DN100
  7
TXTRU
 72
1
 11
1096.0
 21
120.0
 31
0.0
100
AcDbText
  0
TEXT
  5
14C
330
17
100
AcDbEntity
  8
TEXT_RU
100
AcDbText
 10
132.0
 20
70.0
 30
0.0
 40
5.6
  1
А · ФИЛЬТРАЦИЯ · пролёт 12 м
  7
TXTRU
 72
1
 11
132.0
 21
70.0
 31
0.0
100
AcDbText
  0
TEXT
  5
14D
330
17
100
AcDbEntity
  8
TEXT_RU
100
AcDbText
 10
312.0
 20
70.0
 30
0.0
 40
5.6
  1
Б · ШИХТОВКА · пролёт 12–24 м
  7
TXTRU
 72
1
 11
312.0
 21
70.0
 31
0.0
100
AcDbText
  0
TEXT
  5
14E
330
17
100
AcDbEntity
  8
TEXT_RU
100
AcDbText
 10
552.0
 20
70.0
 30
0.0
 40
5.6
  1
В · ОБЖИГ / КОТЁЛ-УТИЛИЗАТОР · пролёт 24 м (2×12)
  7
TXTRU
 72
1
 11
552.0
 21
70.0
 31
0.0
100
AcDbText
  0
TEXT
  5
14F
330
17
100
AcDbEntity
  8
TEXT_RU
100
AcDbText
 10
852.0
 20
70.0
 30
0.0
 40
5.6
  1
Г · ГАЗООЧИСТКА · пролёты по сетке 6/12 м
  7
TXTRU
 72
1
 11
852.0
 21
70.0
 31
0.0
100
AcDbText
  0
TEXT
  5
150
330
17
100
AcDbEntity
  8
TEXT_RU
100
AcDbText
 10
1107.0
 20
70.0
 30
0.0
 40
5.6
  1
НАРУЖНАЯ ЭТАЖЕРКА
  7
TXTRU
 72
1
 11
1107.0
 21
70.0
 31
0.0
100
AcDbText
  0
TEXT
  5
151
330
17
100
AcDbEntity
  8
TEXT_RU
100
AcDbText
 10
1107.0
 20
59.0
 30
0.0
 40
4.9
  1
СИЛОСОВ (решение БИ)
  7
TXTRU
 72
1
 11
1107.0
 21
59.0
 31
0.0
100
AcDbText
  0
LINE
  5
152
330
17
100
AcDbEntity
  8
DIM
420
5394766
100
AcDbLine
 10
72.0
 20
46.0
 30
0.0
 11
1032.0
 21
46.0
 31
0.0
  0
LINE
  5
153
330
17
100
AcDbEntity
  8
DIM
420
5394766
100
AcDbLine
 10
69.0
 20
43.0
 30
0.0
 11
75.0
 21
49.0
 31
0.0
  0
LINE
  5
154
330
17
100
AcDbEntity
  8
DIM
420
5394766
100
AcDbLine
 10
1029.0
 20
43.0
 30
0.0
 11
1035.0
 21
49.0
 31
0.0
  0
LINE
  5
155
330
17
100
AcDbEntity
  8
OUTLINE
100
AcDbLine
 10
132.0
 20
49.0
 30
0.0
 11
132.0
 21
43.0
 31
0.0
  0
LINE
  5
156
330
17
100
AcDbEntity
  8
OUTLINE
100
AcDbLine
 10
192.0
 20
49.0
 30
0.0
 11
192.0
 21
43.0
 31
0.0
  0
LINE
  5
157
330
17
100
AcDbEntity
  8
OUTLINE
100
AcDbLine
 10
252.0
 20
49.0
 30
0.0
 11
252.0
 21
43.0
 31
0.0
  0
LINE
  5
158
330
17
100
AcDbEntity
  8
OUTLINE
100
AcDbLine
 10
312.0
 20
49.0
 30
0.0
 11
312.0
 21
43.0
 31
0.0
  0
LINE
  5
159
330
17
100
AcDbEntity
  8
OUTLINE
100
AcDbLine
 10
372.0
 20
49.0
 30
0.0
 11
372.0
 21
43.0
 31
0.0
  0
LINE
  5
15A
330
17
100
AcDbEntity
  8
OUTLINE
100
AcDbLine
 10
432.0
 20
49.0
 30
0.0
 11
432.0
 21
43.0
 31
0.0
  0
LINE
  5
15B
330
17
100
AcDbEntity
  8
OUTLINE
100
AcDbLine
 10
492.0
 20
49.0
 30
0.0
 11
492.0
 21
43.0
 31
0.0
  0
LINE
  5
15C
330
17
100
AcDbEntity
  8
OUTLINE
100
AcDbLine
 10
552.0
 20
49.0
 30
0.0
 11
552.0
 21
43.0
 31
0.0
  0
LINE
  5
15D
330
17
100
AcDbEntity
  8
OUTLINE
100
AcDbLine
 10
612.0
 20
49.0
 30
0.0
 11
612.0
 21
43.0
 31
0.0
  0
LINE
  5
15E
330
17
100
AcDbEntity
  8
OUTLINE
100
AcDbLine
 10
672.0
 20
49.0
 30
0.0
 11
672.0
 21
43.0
 31
0.0
  0
LINE
  5
15F
330
17
100
AcDbEntity
  8
OUTLINE
100
AcDbLine
 10
732.0
 20
49.0
 30
0.0
 11
732.0
 21
43.0
 31
0.0
  0
LINE
  5
160
330
17
100
AcDbEntity
  8
OUTLINE
100
AcDbLine
 10
792.0
 20
49.0
 30
0.0
 11
792.0
 21
43.0
 31
0.0
  0
LINE
  5
161
330
17
100
AcDbEntity
  8
OUTLINE
100
AcDbLine
 10
852.0
 20
49.0
 30
0.0
 11
852.0
 21
43.0
 31
0.0
  0
LINE
  5
162
330
17
100
AcDbEntity
  8
OUTLINE
100
AcDbLine
 10
912.0
 20
49.0
 30
0.0
 11
912.0
 21
43.0
 31
0.0
  0
LINE
  5
163
330
17
100
AcDbEntity
  8
OUTLINE
100
AcDbLine
 10
972.0
 20
49.0
 30
0.0
 11
972.0
 21
43.0
 31
0.0
  0
LINE
  5
164
330
17
100
AcDbEntity
  8
OUTLINE
100
AcDbLine
 10
192.0
 20
46.0
 30
0.0
 11
192.0
 21
45.99000000000001
 31
0.0
  0
LINE
  5
165
330
17
100
AcDbEntity
  8
OUTLINE
100
AcDbLine
 10
189.0
 20
49.0
 30
0.0
 11
195.0
 21
43.0
 31
0.0
  0
LINE
  5
166
330
17
100
AcDbEntity
  8
OUTLINE
100
AcDbLine
 10
432.0
 20
46.0
 30
0.0
 11
432.0
 21
45.99000000000001
 31
0.0
  0
LINE
  5
167
330
17
100
AcDbEntity
  8
OUTLINE
100
AcDbLine
 10
429.0
 20
49.0
 30
0.0
 11
435.0
 21
43.0
 31
0.0
  0
LINE
  5
168
330
17
100
AcDbEntity
  8
OUTLINE
100
AcDbLine
 10
672.0
 20
46.0
 30
0.0
 11
672.0
 21
45.99000000000001
 31
0.0
  0
LINE
  5
169
330
17
100
AcDbEntity
  8
OUTLINE
100
AcDbLine
 10
669.0
 20
49.0
 30
0.0
 11
675.0
 21
43.0
 31
0.0
  0
TEXT
  5
16A
330
17
100
AcDbEntity
  8
TEXT_RU
100
AcDbText
 10
552.0
 20
32.0
 30
0.0
 40
5.6
  1
сетка колонн 6/12 м: шаг колонн 6 м (засечки), пролёты 12 и 24 м · ТЗ п.3.5
  7
TXTRU
 72
1
 11
552.0
 21
32.0
 31
0.0
100
AcDbText
  0
LINE
  5
16B
330
17
100
AcDbEntity
  8
GAS
100
AcDbLine
 10
80.0
 20
614.0
 30
0.0
 11
98.0
 21
614.0
 31
0.0
  0
TEXT
  5
16C
330
17
100
AcDbEntity
  8
TEXT_RU
100
AcDbText
 10
103.0
 20
611.0
 30
0.0
 40
5.25
  1
газовый тракт
  7
TXTRU
 11
103.0
 21
611.0
 31
0.0
100
AcDbText
  0
LINE
  5
16D
330
17
100
AcDbEntity
  8
LIQUID
100
AcDbLine
 10
172.0
 20
614.0
 30
0.0
 11
190.0
 21
614.0
 31
0.0
  0
TEXT
  5
16E
330
17
100
AcDbEntity
  8
TEXT_RU
100
AcDbText
 10
195.0
 20
611.0
 30
0.0
 40
5.25
  1
кек / шихта / огарок / пар
  7
TXTRU
 11
195.0
 21
611.0
 31
0.0
100
AcDbText
  0
LINE
  5
16F
330
17
100
AcDbEntity
  8
DUST
100
AcDbLine
 10
302.0
 20
614.0
 30
0.0
 11
320.0
 21
614.0
 31
0.0
  0
TEXT
  5
170
330
17
100
AcDbEntity
  8
TEXT_RU
100
AcDbText
 10
325.0
 20
611.0
 30
0.0
 40
5.25
  1
пыль
  7
TXTRU
 11
325.0
 21
611.0
 31
0.0
100
AcDbText
  0
LINE
  5
171
330
17
100
AcDbEntity
  8
DIM
100
AcDbLine
 10
358.0
 20
614.0
 30
0.0
 11
376.0
 21
614.0
 31
0.0
  0
TEXT
  5
172
330
17
100
AcDbEntity
  8
TEXT_RU
100
AcDbText
 10
381.0
 20
611.0
 30
0.0
 40
5.25
  1
дутьё / вспом.
  7
TXTRU
 11
381.0
 21
611.0
 31
0.0
100
AcDbText
  0
LINE
  5
173
330
17
100
AcDbEntity
  8
INTERLOCK
100
AcDbLine
 10
448.0
 20
614.0
 30
0.0
 11
466.0
 21
614.0
 31
0.0
  0
TEXT
  5
174
330
17
100
AcDbEntity
  8
TEXT_RU
100
AcDbText
 10
471.0
 20
611.0
 30
0.0
 40
5.25
  1
краны
  7
TXTRU
 11
471.0
 21
611.0
 31
0.0
100
AcDbText
  0
LINE
  5
175
330
17
100
AcDbEntity
  8
DIM
  6
DASHED
100
AcDbLine
 10
510.0
 20
614.0
 30
0.0
 11
528.0
 21
614.0
 31
0.0
  0
TEXT
  5
176
330
17
100
AcDbEntity
  8
TEXT_RU
100
AcDbText
 10
533.0
 20
611.0
 30
0.0
 40
5.25
  1
пунктир — уточняется / предложение БИ
  7
TXTRU
 11
533.0
 21
611.0
 31
0.0
100
AcDbText
  0
ENDSEC
  0
SECTION
  2
OBJECTS
  0
DICTIONARY
  5
A
330
0
100
AcDbDictionary
281
1
  3
ACAD_COLOR
350
B
  3
ACAD_GROUP
350
C
  3
ACAD_LAYOUT
350
D
  3
ACAD_MATERIAL
350
E
  3
ACAD_MLEADERSTYLE
350
F
  3
ACAD_MLINESTYLE
350
10
  3
ACAD_PLOTSETTINGS
350
11
  3
ACAD_PLOTSTYLENAME
350
12
  3
ACAD_SCALELIST
350
14
  3
ACAD_TABLESTYLE
350
15
  3
ACAD_VISUALSTYLE
350
16
  3
EZDXF_META
350
2D
  0
DICTIONARY
  5
B
330
A
100
AcDbDictionary
281
1
  0
DICTIONARY
  5
C
330
A
100
AcDbDictionary
281
1
  0
DICTIONARY
  5
D
330
A
100
AcDbDictionary
281
1
  3
Model
350
1A
  3
Layout1
350
1E
  0
DICTIONARY
  5
E
330
A
100
AcDbDictionary
281
1
  3
ByBlock
350
1F
  3
ByLayer
350
20
  3
Global
350
21
  0
DICTIONARY
  5
F
330
A
100
AcDbDictionary
281
1
  3
Standard
350
2C
  0
DICTIONARY
  5
10
330
A
100
AcDbDictionary
281
1
  3
Standard
350
22
  0
DICTIONARY
  5
11
330
A
100
AcDbDictionary
281
1
  0
ACDBDICTIONARYWDFLT
  5
12
330
A
100
AcDbDictionary
281
1
  3
Normal
350
13
100
AcDbDictionaryWithDefault
340
13
  0
ACDBPLACEHOLDER
  5
13
330
12
  0
DICTIONARY
  5
14
330
A
100
AcDbDictionary
281
1
  0
DICTIONARY
  5
15
330
A
100
AcDbDictionary
281
1
  0
DICTIONARY
  5
16
330
A
100
AcDbDictionary
281
1
  0
LAYOUT
  5
1A
330
D
100
AcDbPlotSettings
  1

  4
A3
  6

 40
7.5
 41
20.0
 42
7.5
 43
20.0
 44
420.0
 45
297.0
 46
0.0
 47
0.0
 48
0.0
 49
0.0
140
0.0
141
0.0
142
1.0
143
1.0
 70
1024
 72
1
 73
0
 74
5
  7

 75
16
 76
0
 77
2
 78
300
147
1.0
148
0.0
149
0.0
100
AcDbLayout
  1
Model
 70
1
 71
0
 10
0.0
 20
0.0
 11
1190.0
 21
640.0
 12
0.0
 22
0.0
 32
0.0
 14
-0.01
 24
-0.01
 34
0.0
 15
1190.0
 25
640.0
 35
0.0
146
0.0
 13
0.0
 23
0.0
 33
0.0
 16
1.0
 26
0.0
 36
0.0
 17
0.0
 27
1.0
 37
0.0
 76
1
330
17
  0
LAYOUT
  5
1E
330
D
100
AcDbPlotSettings
  1

  4
A3
  6

 40
7.5
 41
20.0
 42
7.5
 43
20.0
 44
420.0
 45
297.0
 46
0.0
 47
0.0
 48
0.0
 49
0.0
140
0.0
141
0.0
142
1.0
143
1.0
 70
0
 72
1
 73
0
 74
5
  7

 75
16
 76
0
 77
2
 78
300
147
1.0
148
0.0
149
0.0
100
AcDbLayout
  1
Layout1
 70
1
 71
1
 10
0.0
 20
0.0
 11
420.0
 21
297.0
 12
0.0
 22
0.0
 32
0.0
 14
1e+20
 24
1e+20
 34
1e+20
 15
-1e+20
 25
-1e+20
 35
-1e+20
146
0.0
 13
0.0
 23
0.0
 33
0.0
 16
1.0
 26
0.0
 36
0.0
 17
0.0
 27
1.0
 37
0.0
 76
1
330
1B
  0
MATERIAL
  5
1F
102
{ACAD_REACTORS
330
E
102
}
330
E
100
AcDbMaterial
  1
ByBlock
  2

 70
0
 40
1.0
 71
1
 41
1.0
 91
-1023410177
 42
1.0
 72
1
  3

 73
1
 74
1
 75
1
 44
0.5
 73
0
 45
1.0
 46
1.0
 77
1
  4

 78
1
 79
1
170
1
 48
1.0
171
1
  6

172
1
173
1
174
1
140
1.0
141
1.0
175
1
  7

176
1
177
1
178
1
143
1.0
179
1
  8

270
1
271
1
272
1
145
1.0
146
1.0
273
1
  9

274
1
275
1
276
1
 42
1.0
 72
1
  3

 73
1
 74
1
 75
1
 94
63
  0
MATERIAL
  5
20
102
{ACAD_REACTORS
330
E
102
}
330
E
100
AcDbMaterial
  1
ByLayer
  2

 70
0
 40
1.0
 71
1
 41
1.0
 91
-1023410177
 42
1.0
 72
1
  3

 73
1
 74
1
 75
1
 44
0.5
 73
0
 45
1.0
 46
1.0
 77
1
  4

 78
1
 79
1
170
1
 48
1.0
171
1
  6

172
1
173
1
174
1
140
1.0
141
1.0
175
1
  7

176
1
177
1
178
1
143
1.0
179
1
  8

270
1
271
1
272
1
145
1.0
146
1.0
273
1
  9

274
1
275
1
276
1
 42
1.0
 72
1
  3

 73
1
 74
1
 75
1
 94
63
  0
MATERIAL
  5
21
102
{ACAD_REACTORS
330
E
102
}
330
E
100
AcDbMaterial
  1
Global
  2

 70
0
 40
1.0
 71
1
 41
1.0
 91
-1023410177
 42
1.0
 72
1
  3

 73
1
 74
1
 75
1
 44
0.5
 73
0
 45
1.0
 46
1.0
 77
1
  4

 78
1
 79
1
170
1
 48
1.0
171
1
  6

172
1
173
1
174
1
140
1.0
141
1.0
175
1
  7

176
1
177
1
178
1
143
1.0
179
1
  8

270
1
271
1
272
1
145
1.0
146
1.0
273
1
  9

274
1
275
1
276
1
 42
1.0
 72
1
  3

 73
1
 74
1
 75
1
 94
63
  0
MLINESTYLE
  5
22
102
{ACAD_REACTORS
330
10
102
}
330
10
100
AcDbMlineStyle
  2
Standard
 70
0
  3

 62
256
 51
90.0
 52
90.0
 71
2
 49
0.5
 62
256
  6
BYLAYER
 49
-0.5
 62
256
  6
BYLAYER
  0
MLEADERSTYLE
  5
2C
102
{ACAD_REACTORS
330
F
102
}
330
F
100
AcDbMLeaderStyle
179
2
170
2
171
1
172
0
 90
2
 40
0.0
 41
0.0
173
1
 91
-1056964608
 92
-2
290
1
 42
2.0
291
1
 43
8.0
  3
Standard
 44
4.0
300

342
29
174
1
175
1
176
0
178
1
 93
-1056964608
 45
4.0
292
0
297
0
 46
4.0
 94
-1056964608
 47
1.0
 49
1.0
140
1.0
294
1
141
0.0
177
0
142
1.0
295
0
296
0
143
3.75
271
0
272
9
273
9
  0
DICTIONARY
  5
2D
330
A
100
AcDbDictionary
280
1
281
1
  3
CREATED_BY_EZDXF
350
2E
  3
WRITTEN_BY_EZDXF
350
179
  0
DICTIONARYVAR
  5
2E
330
2D
100
DictionaryVariables
280
0
  1
1.4.4 @ 2026-08-28T02:58:57.958642+00:00
  0
DICTIONARYVAR
  5
179
330
2D
100
DictionaryVariables
280
0
  1
1.4.4 @ 2026-08-28T02:58:57.978045+00:00
  0
ENDSEC
  0
EOF
