  0
SECTION
  2
HEADER
  9
$ACADVER
  1
AC1024
  9
$ACADMAINTVER
 70
6
  9
$DWGCODEPAGE
  3
ANSI_1252
  9
$LASTSAVEDBY
  1
ezdxf
  9
$INSBASE
 10
0.0
 20
0.0
 30
0.0
  9
$EXTMIN
 10
-0.01
 20
-0.01
 30
0.0
  9
$EXTMAX
 10
1190.0
 20
600.0
 30
0.0
  9
$LIMMIN
 10
0.0
 20
0.0
  9
$LIMMAX
 10
1190.0
 20
600.0
  9
$ORTHOMODE
 70
0
  9
$REGENMODE
 70
1
  9
$FILLMODE
 70
1
  9
$QTEXTMODE
 70
0
  9
$MIRRTEXT
 70
1
  9
$LTSCALE
 40
1.0
  9
$ATTMODE
 70
1
  9
$TEXTSIZE
 40
2.5
  9
$TRACEWID
 40
1.0
  9
$TEXTSTYLE
  7
Standard
  9
$CLAYER
  8
0
  9
$CELTYPE
  6
ByLayer
  9
$CECOLOR
 62
256
  9
$CELTSCALE
 40
1.0
  9
$DISPSILH
 70
0
  9
$DIMSCALE
 40
1.0
  9
$DIMASZ
 40
2.5
  9
$DIMEXO
 40
0.625
  9
$DIMDLI
 40
3.75
  9
$DIMRND
 40
0.0
  9
$DIMDLE
 40
0.0
  9
$DIMEXE
 40
1.25
  9
$DIMTP
 40
0.0
  9
$DIMTM
 40
0.0
  9
$DIMTXT
 40
2.5
  9
$DIMCEN
 40
2.5
  9
$DIMTSZ
 40
0.0
  9
$DIMTOL
 70
0
  9
$DIMLIM
 70
0
  9
$DIMTIH
 70
0
  9
$DIMTOH
 70
0
  9
$DIMSE1
 70
0
  9
$DIMSE2
 70
0
  9
$DIMTAD
 70
1
  9
$DIMZIN
 70
8
  9
$DIMBLK
  1

  9
$DIMASO
 70
1
  9
$DIMSHO
 70
1
  9
$DIMPOST
  1

  9
$DIMAPOST
  1

  9
$DIMALT
 70
0
  9
$DIMALTD
 70
3
  9
$DIMALTF
 40
0.03937007874
  9
$DIMLFAC
 40
1.0
  9
$DIMTOFL
 70
1
  9
$DIMTVP
 40
0.0
  9
$DIMTIX
 70
0
  9
$DIMSOXD
 70
0
  9
$DIMSAH
 70
0
  9
$DIMBLK1
  1

  9
$DIMBLK2
  1

  9
$DIMSTYLE
  2
ISO-25
  9
$DIMCLRD
 70
0
  9
$DIMCLRE
 70
0
  9
$DIMCLRT
 70
0
  9
$DIMTFAC
 40
1.0
  9
$DIMGAP
 40
0.625
  9
$DIMJUST
 70
0
  9
$DIMSD1
 70
0
  9
$DIMSD2
 70
0
  9
$DIMTOLJ
 70
0
  9
$DIMTZIN
 70
8
  9
$DIMALTZ
 70
0
  9
$DIMALTTZ
 70
0
  9
$DIMUPT
 70
0
  9
$DIMDEC
 70
2
  9
$DIMTDEC
 70
2
  9
$DIMALTU
 70
2
  9
$DIMALTTD
 70
3
  9
$DIMTXSTY
  7
Standard
  9
$DIMAUNIT
 70
0
  9
$DIMADEC
 70
0
  9
$DIMALTRND
 40
0.0
  9
$DIMAZIN
 70
0
  9
$DIMDSEP
 70
44
  9
$DIMATFIT
 70
3
  9
$DIMFRAC
 70
0
  9
$DIMLDRBLK
  1

  9
$DIMLUNIT
 70
2
  9
$DIMLWD
 70
-2
  9
$DIMLWE
 70
-2
  9
$DIMTMOVE
 70
0
  9
$DIMFXL
 40
1.0
  9
$DIMFXLON
 70
0
  9
$DIMJOGANG
 40
0.785398163397
  9
$DIMTFILL
 70
0
  9
$DIMTFILLCLR
 70
0
  9
$DIMARCSYM
 70
0
  9
$DIMLTYPE
  6

  9
$DIMLTEX1
  6

  9
$DIMLTEX2
  6

  9
$DIMTXTDIRECTION
 70
0
  9
$LUNITS
 70
2
  9
$LUPREC
 70
4
  9
$SKETCHINC
 40
1.0
  9
$FILLETRAD
 40
10.0
  9
$AUNITS
 70
0
  9
$AUPREC
 70
2
  9
$MENU
  1
.
  9
$ELEVATION
 40
0.0
  9
$PELEVATION
 40
0.0
  9
$THICKNESS
 40
0.0
  9
$LIMCHECK
 70
0
  9
$CHAMFERA
 40
0.0
  9
$CHAMFERB
 40
0.0
  9
$CHAMFERC
 40
0.0
  9
$CHAMFERD
 40
0.0
  9
$SKPOLY
 70
0
  9
$TDCREATE
 40
2461281.1242824076
  9
$TDUCREATE
 40
2458532.153996898
  9
$TDUPDATE
 40
2461281.1242824076
  9
$TDUUPDATE
 40
2458532.1544311
  9
$TDINDWG
 40
0.0
  9
$TDUSRTIMER
 40
0.0
  9
$USRTIMER
 70
1
  9
$ANGBASE
 50
0.0
  9
$ANGDIR
 70
0
  9
$PDMODE
 70
0
  9
$PDSIZE
 40
0.0
  9
$PLINEWID
 40
0.0
  9
$SPLFRAME
 70
0
  9
$SPLINETYPE
 70
6
  9
$SPLINESEGS
 70
8
  9
$HANDSEED
  5
CE
  9
$SURFTAB1
 70
6
  9
$SURFTAB2
 70
6
  9
$SURFTYPE
 70
6
  9
$SURFU
 70
6
  9
$SURFV
 70
6
  9
$UCSBASE
  2

  9
$UCSNAME
  2

  9
$UCSORG
 10
0.0
 20
0.0
 30
0.0
  9
$UCSXDIR
 10
1.0
 20
0.0
 30
0.0
  9
$UCSYDIR
 10
0.0
 20
1.0
 30
0.0
  9
$UCSORTHOREF
  2

  9
$UCSORTHOVIEW
 70
0
  9
$UCSORGTOP
 10
0.0
 20
0.0
 30
0.0
  9
$UCSORGBOTTOM
 10
0.0
 20
0.0
 30
0.0
  9
$UCSORGLEFT
 10
0.0
 20
0.0
 30
0.0
  9
$UCSORGRIGHT
 10
0.0
 20
0.0
 30
0.0
  9
$UCSORGFRONT
 10
0.0
 20
0.0
 30
0.0
  9
$UCSORGBACK
 10
0.0
 20
0.0
 30
0.0
  9
$PUCSBASE
  2

  9
$PUCSNAME
  2

  9
$PUCSORG
 10
0.0
 20
0.0
 30
0.0
  9
$PUCSXDIR
 10
1.0
 20
0.0
 30
0.0
  9
$PUCSYDIR
 10
0.0
 20
1.0
 30
0.0
  9
$PUCSORTHOREF
  2

  9
$PUCSORTHOVIEW
 70
0
  9
$PUCSORGTOP
 10
0.0
 20
0.0
 30
0.0
  9
$PUCSORGBOTTOM
 10
0.0
 20
0.0
 30
0.0
  9
$PUCSORGLEFT
 10
0.0
 20
0.0
 30
0.0
  9
$PUCSORGRIGHT
 10
0.0
 20
0.0
 30
0.0
  9
$PUCSORGFRONT
 10
0.0
 20
0.0
 30
0.0
  9
$PUCSORGBACK
 10
0.0
 20
0.0
 30
0.0
  9
$USERI1
 70
0
  9
$USERI2
 70
0
  9
$USERI3
 70
0
  9
$USERI4
 70
0
  9
$USERI5
 70
0
  9
$USERR1
 40
0.0
  9
$USERR2
 40
0.0
  9
$USERR3
 40
0.0
  9
$USERR4
 40
0.0
  9
$USERR5
 40
0.0
  9
$WORLDVIEW
 70
1
  9
$SHADEDGE
 70
3
  9
$SHADEDIF
 70
70
  9
$TILEMODE
 70
1
  9
$MAXACTVP
 70
64
  9
$PINSBASE
 10
0.0
 20
0.0
 30
0.0
  9
$PLIMCHECK
 70
0
  9
$PEXTMIN
 10
1e+20
 20
1e+20
 30
1e+20
  9
$PEXTMAX
 10
-1e+20
 20
-1e+20
 30
-1e+20
  9
$PLIMMIN
 10
0.0
 20
0.0
  9
$PLIMMAX
 10
420.0
 20
297.0
  9
$UNITMODE
 70
0
  9
$VISRETAIN
 70
1
  9
$PLINEGEN
 70
0
  9
$PSLTSCALE
 70
1
  9
$TREEDEPTH
 70
3020
  9
$CMLSTYLE
  2
Standard
  9
$CMLJUST
 70
0
  9
$CMLSCALE
 40
20.0
  9
$PROXYGRAPHICS
 70
1
  9
$MEASUREMENT
 70
1
  9
$CELWEIGHT
370
-1
  9
$ENDCAPS
280
0
  9
$JOINSTYLE
280
0
  9
$LWDISPLAY
290
0
  9
$INSUNITS
 70
4
  9
$HYPERLINKBASE
  1

  9
$STYLESHEET
  1

  9
$XEDIT
290
1
  9
$CEPSNTYPE
380
0
  9
$PSTYLEMODE
290
1
  9
$FINGERPRINTGUID
  2
{73E8F015-93E8-4E0F-8393-0F82B613F604}
  9
$VERSIONGUID
  2
{170A6169-22E6-4A12-B652-B0D89877429D}
  9
$EXTNAMES
290
1
  9
$PSVPSCALE
 40
0.0
  9
$OLESTARTUP
290
0
  9
$SORTENTS
280
127
  9
$INDEXCTL
280
0
  9
$HIDETEXT
280
1
  9
$XCLIPFRAME
280
1
  9
$HALOGAP
280
0
  9
$OBSCOLOR
 70
257
  9
$OBSLTYPE
280
0
  9
$INTERSECTIONDISPLAY
280
0
  9
$INTERSECTIONCOLOR
 70
257
  9
$DIMASSOC
280
2
  9
$PROJECTNAME
  1

  9
$CAMERADISPLAY
290
0
  9
$LENSLENGTH
 40
50.0
  9
$CAMERAHEIGHT
 40
0.0
  9
$STEPSPERSEC
 40
24.0
  9
$STEPSIZE
 40
100.0
  9
$3DDWFPREC
 40
2.0
  9
$PSOLWIDTH
 40
0.005
  9
$PSOLHEIGHT
 40
0.08
  9
$LOFTANG1
 40
1.570796326795
  9
$LOFTANG2
 40
1.570796326795
  9
$LOFTMAG1
 40
0.0
  9
$LOFTMAG2
 40
0.0
  9
$LOFTPARAM
 70
7
  9
$LOFTNORMALS
280
1
  9
$LATITUDE
 40
37.795
  9
$LONGITUDE
 40
-122.394
  9
$NORTHDIRECTION
 40
0.0
  9
$TIMEZONE
 70
-8000
  9
$LIGHTGLYPHDISPLAY
280
1
  9
$TILEMODELIGHTSYNCH
280
1
  9
$CMATERIAL
347
20
  9
$SOLIDHIST
280
0
  9
$SHOWHIST
280
1
  9
$DWFFRAME
280
2
  9
$DGNFRAME
280
2
  9
$REALWORLDSCALE
290
1
  9
$INTERFERECOLOR
 62
256
  9
$CSHADOW
280
0
  9
$SHADOWPLANELOCATION
 40
0.0
  0
ENDSEC
  0
SECTION
  2
CLASSES
  0
CLASS
  1
ACDBDICTIONARYWDFLT
  2
AcDbDictionaryWithDefault
  3
ObjectDBX Classes
 90
0
 91
0
280
0
281
0
  0
CLASS
  1
SUN
  2
AcDbSun
  3
SCENEOE
 90
1153
 91
0
280
0
281
0
  0
CLASS
  1
VISUALSTYLE
  2
AcDbVisualStyle
  3
ObjectDBX Classes
 90
4095
 91
0
280
0
281
0
  0
CLASS
  1
MATERIAL
  2
AcDbMaterial
  3
ObjectDBX Classes
 90
1153
 91
0
280
0
281
0
  0
CLASS
  1
SCALE
  2
AcDbScale
  3
ObjectDBX Classes
 90
1153
 91
0
280
0
281
0
  0
CLASS
  1
TABLESTYLE
  2
AcDbTableStyle
  3
ObjectDBX Classes
 90
4095
 91
0
280
0
281
0
  0
CLASS
  1
MLEADERSTYLE
  2
AcDbMLeaderStyle
  3
ACDB_MLEADERSTYLE_CLASS
 90
4095
 91
0
280
0
281
0
  0
CLASS
  1
DICTIONARYVAR
  2
AcDbDictionaryVar
  3
ObjectDBX Classes
 90
0
 91
0
280
0
281
0
  0
CLASS
  1
CELLSTYLEMAP
  2
AcDbCellStyleMap
  3
ObjectDBX Classes
 90
1152
 91
0
280
0
281
0
  0
CLASS
  1
MENTALRAYRENDERSETTINGS
  2
AcDbMentalRayRenderSettings
  3
SCENEOE
 90
1024
 91
0
280
0
281
0
  0
CLASS
  1
ACDBDETAILVIEWSTYLE
  2
AcDbDetailViewStyle
  3
ObjectDBX Classes
 90
1025
 91
0
280
0
281
0
  0
CLASS
  1
ACDBSECTIONVIEWSTYLE
  2
AcDbSectionViewStyle
  3
ObjectDBX Classes
 90
1025
 91
0
280
0
281
0
  0
CLASS
  1
RASTERVARIABLES
  2
AcDbRasterVariables
  3
ISM
 90
0
 91
0
280
0
281
0
  0
CLASS
  1
LAYOUT
  2
AcDbLayout
  3
ObjectDBX Classes
 90
0
 91
0
280
0
281
0
  0
CLASS
  1
ACDBPLACEHOLDER
  2
AcDbPlaceHolder
  3
ObjectDBX Classes
 90
0
 91
0
280
0
281
0
  0
ENDSEC
  0
SECTION
  2
TABLES
  0
TABLE
  2
VPORT
  5
8
330
0
100
AcDbSymbolTable
 70
1
  0
VPORT
  5
23
330
8
100
AcDbSymbolTableRecord
100
AcDbViewportTableRecord
  2
*Active
 70
0
 10
0.0
 20
0.0
 11
1.0
 21
1.0
 12
0.0
 22
0.0
 13
0.0
 23
0.0
 14
0.5
 24
0.5
 15
0.5
 25
0.5
 16
0.0
 26
0.0
 36
1.0
 17
0.0
 27
0.0
 37
0.0
 40
1000.0
 41
1.34
 42
50.0
 43
0.0
 44
0.0
 50
0.0
 51
0.0
 71
0
 72
1000
 73
1
 74
3
 75
0
 76
0
 77
0
 78
0
281
0
 65
0
146
0.0
  0
ENDTAB
  0
TABLE
  2
LTYPE
  5
2
330
0
100
AcDbSymbolTable
 70
5
  0
LTYPE
  5
24
330
2
100
AcDbSymbolTableRecord
100
AcDbLinetypeTableRecord
  2
ByBlock
 70
0
  3

 72
65
 73
0
 40
0.0
  0
LTYPE
  5
25
330
2
100
AcDbSymbolTableRecord
100
AcDbLinetypeTableRecord
  2
ByLayer
 70
0
  3

 72
65
 73
0
 40
0.0
  0
LTYPE
  5
26
330
2
100
AcDbSymbolTableRecord
100
AcDbLinetypeTableRecord
  2
Continuous
 70
0
  3

 72
65
 73
0
 40
0.0
  0
LTYPE
  5
2F
330
2
100
AcDbSymbolTableRecord
100
AcDbLinetypeTableRecord
  2
DASHED
 70
0
  3
Штриховая — — — —
 72
65
 73
2
 40
9.0
 49
6.0
 74
0
 49
-3.0
 74
0
  0
LTYPE
  5
30
330
2
100
AcDbSymbolTableRecord
100
AcDbLinetypeTableRecord
  2
DASHDOT
 70
0
  3
Штрихпунктирная — · — · —
 72
65
 73
4
 40
14.0
 49
8.0
 74
0
 49
-3.0
 74
0
 49
0.0
 74
0
 49
-3.0
 74
0
  0
ENDTAB
  0
TABLE
  2
LAYER
  5
1
330
0
100
AcDbSymbolTable
 70
10
  0
LAYER
  5
27
330
1
100
AcDbSymbolTableRecord
100
AcDbLayerTableRecord
  2
0
 70
0
 62
7
  6
Continuous
370
-3
390
13
347
21
  0
LAYER
  5
28
330
1
100
AcDbSymbolTableRecord
100
AcDbLayerTableRecord
  2
Defpoints
 70
0
 62
7
  6
Continuous
290
0
370
-3
390
13
347
21
  0
LAYER
  5
32
330
1
100
AcDbSymbolTableRecord
100
AcDbLayerTableRecord
  2
GAS
 70
0
 62
30
420
14712622
  6
Continuous
370
35
390
13
347
21
1001
AcAecLayerStandard
1000

1000
Газовый тракт (оранжевый)
  0
LAYER
  5
34
330
1
100
AcDbSymbolTableRecord
100
AcDbLayerTableRecord
  2
LIQUID
 70
0
 62
5
420
2783446
  6
Continuous
370
35
390
13
347
21
1001
AcAecLayerStandard
1000

1000
Жидкостные потоки: кислота, растворы, вода (синий)
  0
LAYER
  5
35
330
1
100
AcDbSymbolTableRecord
100
AcDbLayerTableRecord
  2
DUST
 70
0
 62
6
420
10702494
  6
Continuous
370
35
390
13
347
21
1001
AcAecLayerStandard
1000

1000
Пылевой тракт: циклоны, фильтры (фиолетовый)
  0
LAYER
  5
36
330
1
100
AcDbSymbolTableRecord
100
AcDbLayerTableRecord
  2
ELECTRIC
 70
0
 62
2
420
16429593
  6
Continuous
370
30
390
13
347
21
1001
AcAecLayerStandard
1000

1000
Электрика / энергоснабжение (жёлтый)
  0
LAYER
  5
37
330
1
100
AcDbSymbolTableRecord
100
AcDbLayerTableRecord
  2
INTERLOCK
 70
0
 62
1
420
13646651
  6
Continuous
370
30
390
13
347
21
1001
AcAecLayerStandard
1000

1000
Блокировки и защиты (красный)
  0
LAYER
  5
38
330
1
100
AcDbSymbolTableRecord
100
AcDbLayerTableRecord
  2
OUTLINE
 70
0
 62
7
  6
Continuous
370
25
390
13
347
21
1001
AcAecLayerStandard
1000

1000
Контуры оборудования, строительная графика (ink)
  0
LAYER
  5
39
330
1
100
AcDbSymbolTableRecord
100
AcDbLayerTableRecord
  2
TEXT_RU
 70
0
 62
7
  6
Continuous
370
25
390
13
347
21
1001
AcAecLayerStandard
1000

1000
Надписи (русские, UTF-8)
  0
LAYER
  5
3A
330
1
100
AcDbSymbolTableRecord
100
AcDbLayerTableRecord
  2
DIM
 70
0
 62
8
  6
Continuous
370
13
390
13
347
21
1001
AcAecLayerStandard
1000

1000
Размерные и вспомогательные линии, рамка, сетка
  0
ENDTAB
  0
TABLE
  2
STYLE
  5
5
330
0
100
AcDbSymbolTable
 70
2
  0
STYLE
  5
29
330
5
100
AcDbSymbolTableRecord
100
AcDbTextStyleTableRecord
  2
Standard
 70
0
 40
0.0
 41
1.0
 50
0.0
 71
0
 42
2.5
  3
txt
  4

  0
STYLE
  5
31
330
5
100
AcDbSymbolTableRecord
100
AcDbTextStyleTableRecord
  2
TXTRU
 70
0
 40
0.0
 41
1.0
 50
0.0
 71
0
 42
2.5
  3
arial.ttf
  4

  0
ENDTAB
  0
TABLE
  2
VIEW
  5
7
330
0
100
AcDbSymbolTable
 70
0
  0
ENDTAB
  0
TABLE
  2
UCS
  5
6
330
0
100
AcDbSymbolTable
 70
0
  0
ENDTAB
  0
TABLE
  2
APPID
  5
3
330
0
100
AcDbSymbolTable
 70
4
  0
APPID
  5
2A
330
3
100
AcDbSymbolTableRecord
100
AcDbRegAppTableRecord
  2
ACAD
 70
0
  0
APPID
  5
33
330
3
100
AcDbSymbolTableRecord
100
AcDbRegAppTableRecord
  2
AcAecLayerStandard
 70
0
  0
APPID
  5
CB
330
3
100
AcDbSymbolTableRecord
100
AcDbRegAppTableRecord
  2
HATCHBACKGROUNDCOLOR
 70
0
  0
APPID
  5
CC
330
3
100
AcDbSymbolTableRecord
100
AcDbRegAppTableRecord
  2
EZDXF
 70
0
  0
ENDTAB
  0
TABLE
  2
DIMSTYLE
  5
4
330
0
100
AcDbSymbolTable
 70
1
100
AcDbDimStyleTable
  0
DIMSTYLE
105
2B
330
4
100
AcDbSymbolTableRecord
100
AcDbDimStyleTableRecord
  2
Standard
 70
0
 40
1.0
 41
2.5
 42
0.625
 43
3.75
 44
1.25
 45
0.0
 46
0.0
 47
0.0
 48
0.0
 49
2.5
140
2.5
141
2.5
142
0.0
143
0.03937007874
144
1.0
145
0.0
146
1.0
147
0.625
148
0.0
 69
0
 70
0
 71
0
 72
0
 73
0
 74
0
 75
0
 76
0
 77
1
 78
8
 79
3
170
0
171
3
172
1
173
0
174
0
175
0
176
0
177
0
178
0
179
2
271
2
272
2
273
2
274
3
275
0
276
0
277
2
278
44
279
0
280
0
281
0
282
0
283
0
284
8
285
0
286
0
288
0
289
3
290
0
371
-2
372
-2
  0
ENDTAB
  0
TABLE
  2
BLOCK_RECORD
  5
9
330
0
100
AcDbSymbolTable
 70
2
  0
BLOCK_RECORD
  5
17
330
9
100
AcDbSymbolTableRecord
100
AcDbBlockTableRecord
  2
*Model_Space
340
1A
 70
0
280
1
281
0
  0
BLOCK_RECORD
  5
1B
330
9
100
AcDbSymbolTableRecord
100
AcDbBlockTableRecord
  2
*Paper_Space
340
1E
 70
0
280
1
281
0
  0
ENDTAB
  0
ENDSEC
  0
SECTION
  2
BLOCKS
  0
BLOCK
  5
18
330
17
100
AcDbEntity
  8
0
100
AcDbBlockBegin
  2
*Model_Space
 70
0
 10
0.0
 20
0.0
 30
0.0
  3
*Model_Space
  1

  0
ENDBLK
  5
19
330
17
100
AcDbEntity
  8
0
100
AcDbBlockEnd
  0
BLOCK
  5
1C
330
1B
100
AcDbEntity
  8
0
100
AcDbBlockBegin
  2
*Paper_Space
 70
0
 10
0.0
 20
0.0
 30
0.0
  3
*Paper_Space
  1

  0
ENDBLK
  5
1D
330
1B
100
AcDbEntity
  8
0
100
AcDbBlockEnd
  0
ENDSEC
  0
SECTION
  2
ENTITIES
  0
LWPOLYLINE
  5
3B
330
17
100
AcDbEntity
  8
DIM
420
15198183
100
AcDbPolyline
 90
4
 70
1
 10
6.0
 20
594.0
 10
1184.0
 20
594.0
 10
1184.0
 20
6.0
 10
6.0
 20
6.0
  0
TEXT
  5
3C
330
17
100
AcDbEntity
  8
TEXT_RU
100
AcDbText
 10
20.0
 20
16.0
 30
0.0
 40
7.0
  1
ЭСКИЗ — не для строительства · материальные потоки СГП (Лот №4) · источники: bi_lot4.json — ТЗ п. 6.2–6.4, ИД п. 1.3.11, Прил. №5; производные величины — расчёт БИ · КВАНТ, черновик БИ
  7
TXTRU
 11
20.0
 21
16.0
 31
0.0
100
AcDbText
  0
TEXT
  5
3D
330
17
100
AcDbEntity
  8
TEXT_RU
100
AcDbText
 10
1174.0
 20
570.0
 30
0.0
 40
8.4
  1
МАТЕРИАЛЬНЫЕ ПОТОКИ · ЛОТ №4 — СКЛАД ГОТОВОЙ ПРОДУКЦИИ
  7
TXTRU
 72
2
 11
1174.0
 21
570.0
 31
0.0
100
AcDbText
  0
LWPOLYLINE
  5
3E
330
17
100
AcDbEntity
  8
OUTLINE
420
828172
100
AcDbPolyline
 90
8
 70
1
 10
25.0
 20
548.0
 10
195.0
 20
548.0
 42
0.4142135623731024
 10
202.0
 20
541.0
 10
202.0
 20
451.0
 42
0.4142135623731024
 10
195.0
 20
444.0
 10
25.0
 20
444.0
 42
0.41421356237310086
 10
18.0
 20
451.0
 10
18.0
 20
541.0
 42
0.41421356237310086
  0
TEXT
  5
3F
330
17
100
AcDbEntity
  8
TEXT_RU
100
AcDbText
 10
110.0
 20
531.0
 30
0.0
 40
8.05
  1
ИЗ ЭЭ — ЛОТ №3
  7
TXTRU
 72
1
 11
110.0
 21
531.0
 31
0.0
100
AcDbText
  0
TEXT
  5
40
330
17
100
AcDbEntity
  8
TEXT_RU
100
AcDbText
 10
110.0
 20
517.0
 30
0.0
 40
6.65
  1
выходной конвейер КСМ
  7
TXTRU
 72
1
 11
110.0
 21
517.0
 31
0.0
100
AcDbText
  0
TEXT
  5
41
330
17
100
AcDbEntity
  8
TEXT_RU
100
AcDbText
 10
110.0
 20
505.0
 30
0.0
 40
6.65
  1
катоды М00к · 75 000 т/год
  7
TXTRU
 72
1
 11
110.0
 21
505.0
 31
0.0
100
AcDbText
  0
TEXT
  5
42
330
17
100
AcDbEntity
  8
TEXT_RU
100
AcDbText
 10
110.0
 20
493.0
 30
0.0
 40
6.65
  1
пакет 2500 ± 50 кг · 1,0 × 1,0 м
  7
TXTRU
 72
1
 11
110.0
 21
493.0
 31
0.0
100
AcDbText
  0
TEXT
  5
43
330
17
100
AcDbEntity
  8
TEXT_RU
100
AcDbText
 10
110.0
 20
481.0
 30
0.0
 40
6.65
  1
56–64 листа (при номинале ≈54)
  7
TXTRU
 72
1
 11
110.0
 21
481.0
 31
0.0
100
AcDbText
  0
TEXT
  5
44
330
17
100
AcDbEntity
  8
TEXT_RU
100
AcDbText
 10
110.0
 20
469.0
 30
0.0
 40
6.65
  1
3 ленты увязки
  7
TXTRU
 72
1
 11
110.0
 21
469.0
 31
0.0
100
AcDbText
  0
TEXT
  5
45
330
17
100
AcDbEntity
  8
TEXT_RU
100
AcDbText
 10
110.0
 20
457.0
 30
0.0
 40
6.65
  1
приёмка 358 сут (8585 ч/год)
  7
TXTRU
 72
1
 11
110.0
 21
457.0
 31
0.0
100
AcDbText
  0
LINE
  5
46
330
17
100
AcDbEntity
  8
OUTLINE
  6
DASHED
420
828172
100
AcDbLine
 10
208.0
 20
554.0
 30
0.0
 11
208.0
 21
440.0
 31
0.0
  0
TEXT
  5
47
330
17
100
AcDbEntity
  8
TEXT_RU
420
828172
100
AcDbText
 10
208.0
 20
560.0
 30
0.0
 40
5.6
  1
передаточные ворота — граница проектирования (ТЗ п. 6.2)
  7
TXTRU
 72
1
 11
208.0
 21
560.0
 31
0.0
100
AcDbText
  0
LWPOLYLINE
  5
48
330
17
100
AcDbEntity
  8
LIQUID
100
AcDbPolyline
 90
8
 70
1
 10
243.0
 20
544.0
 10
387.0
 20
544.0
 42
0.41421356237309837
 10
394.0
 20
537.0
 10
394.0
 20
479.0
 42
0.4142135623730902
 10
387.0
 20
472.0
 10
243.0
 20
472.0
 42
0.4142135623730943
 10
236.0
 20
479.0
 10
236.0
 20
537.0
 42
0.4142135623731024
  0
TEXT
  5
49
330
17
100
AcDbEntity
  8
TEXT_RU
100
AcDbText
 10
315.0
 20
527.0
 30
0.0
 40
8.05
  1
КОНВЕЙЕР ПРИЁМКИ
  7
TXTRU
 72
1
 11
315.0
 21
527.0
 31
0.0
100
AcDbText
  0
TEXT
  5
4A
330
17
100
AcDbEntity
  8
TEXT_RU
100
AcDbText
 10
315.0
 20
513.0
 30
0.0
 40
6.65
  1
3,5 пакета/ч средний
  7
TXTRU
 72
1
 11
315.0
 21
513.0
 31
0.0
100
AcDbText
  0
TEXT
  5
4B
330
17
100
AcDbEntity
  8
TEXT_RU
100
AcDbText
 10
315.0
 20
501.0
 30
0.0
 40
6.65
  1
пик до 7 пакетов/ч
  7
TXTRU
 72
1
 11
315.0
 21
501.0
 31
0.0
100
AcDbText
  0
TEXT
  5
4C
330
17
100
AcDbEntity
  8
TEXT_RU
100
AcDbText
 10
315.0
 20
489.0
 30
0.0
 40
6.65
  1
идентификация — QR с КСМ
  7
TXTRU
 72
1
 11
315.0
 21
489.0
 31
0.0
100
AcDbText
  0
LWPOLYLINE
  5
4D
330
17
100
AcDbEntity
  8
LIQUID
100
AcDbPolyline
 90
8
 70
1
 10
459.0
 20
544.0
 10
621.0
 20
544.0
 42
0.4142135623731064
 10
628.0
 20
537.0
 10
628.0
 20
479.0
 42
0.41421356237309837
 10
621.0
 20
472.0
 10
459.0
 20
472.0
 42
0.4142135623730902
 10
452.0
 20
479.0
 10
452.0
 20
537.0
 42
0.41421356237309837
  0
TEXT
  5
4E
330
17
100
AcDbEntity
  8
TEXT_RU
100
AcDbText
 10
540.0
 20
527.0
 30
0.0
 40
8.05
  1
ВЕСЫ ПРИЁМКИ
  7
TXTRU
 72
1
 11
540.0
 21
527.0
 31
0.0
100
AcDbText
  0
TEXT
  5
4F
330
17
100
AcDbEntity
  8
TEXT_RU
100
AcDbText
 10
540.0
 20
513.0
 30
0.0
 40
6.65
  1
платформенные · НПВ 3 т
  7
TXTRU
 72
1
 11
540.0
 21
513.0
 31
0.0
100
AcDbText
  0
TEXT
  5
50
330
17
100
AcDbEntity
  8
TEXT_RU
100
AcDbText
 10
540.0
 20
501.0
 30
0.0
 40
6.65
  1
класс точности «высокий»
  7
TXTRU
 72
1
 11
540.0
 21
501.0
 31
0.0
100
AcDbText
  0
TEXT
  5
51
330
17
100
AcDbEntity
  8
TEXT_RU
100
AcDbText
 10
540.0
 20
489.0
 30
0.0
 40
6.65
  1
допуск 2500 ± 50 кг → АИС
  7
TXTRU
 72
1
 11
540.0
 21
489.0
 31
0.0
100
AcDbText
  0
LWPOLYLINE
  5
52
330
17
100
AcDbEntity
  8
LIQUID
100
AcDbPolyline
 90
8
 70
1
 10
697.0
 20
544.0
 10
883.0
 20
544.0
 42
0.4142135623731064
 10
890.0
 20
537.0
 10
890.0
 20
471.0
 42
0.4142135623731064
 10
883.0
 20
464.0
 10
697.0
 20
464.0
 42
0.4142135623731064
 10
690.0
 20
471.0
 10
690.0
 20
537.0
 42
0.4142135623731064
  0
TEXT
  5
53
330
17
100
AcDbEntity
  8
TEXT_RU
100
AcDbText
 10
790.0
 20
527.0
 30
0.0
 40
8.05
  1
УВЯЗКА И МАРКИРОВКА
  7
TXTRU
 72
1
 11
790.0
 21
527.0
 31
0.0
100
AcDbText
  0
TEXT
  5
54
330
17
100
AcDbEntity
  8
TEXT_RU
100
AcDbText
 10
790.0
 20
513.0
 30
0.0
 40
6.65
  1
контроль/дотяжка 3 лент увязки
  7
TXTRU
 72
1
 11
790.0
 21
513.0
 31
0.0
100
AcDbText
  0
TEXT
  5
55
330
17
100
AcDbEntity
  8
TEXT_RU
100
AcDbText
 10
790.0
 20
501.0
 30
0.0
 40
6.65
  1
2 этикетки с QR на пакет
  7
TXTRU
 72
1
 11
790.0
 21
501.0
 31
0.0
100
AcDbText
  0
TEXT
  5
56
330
17
100
AcDbEntity
  8
TEXT_RU
100
AcDbText
 10
790.0
 20
489.0
 30
0.0
 40
6.65
  1
принтеры: термо (Zebra) + лазерный
  7
TXTRU
 72
1
 11
790.0
 21
489.0
 31
0.0
100
AcDbText
  0
TEXT
  5
57
330
17
100
AcDbEntity
  8
TEXT_RU
100
AcDbText
 10
790.0
 20
477.0
 30
0.0
 40
6.65
  1
маркировка — ГОСТ 14192-96
  7
TXTRU
 72
1
 11
790.0
 21
477.0
 31
0.0
100
AcDbText
  0
LINE
  5
58
330
17
100
AcDbEntity
  8
LIQUID
100
AcDbLine
 10
202.0
 20
506.0
 30
0.0
 11
236.0
 21
506.0
 31
0.0
  0
SOLID
  5
59
330
17
100
AcDbEntity
  8
LIQUID
100
AcDbTrace
 10
222.4
 20
512.8
 30
0.0
 11
237.7
 21
506.0
 31
0.0
 12
222.4
 22
499.2
 32
0.0
 13
222.4
 23
499.2
 33
0.0
  0
LINE
  5
5A
330
17
100
AcDbEntity
  8
LIQUID
100
AcDbLine
 10
394.0
 20
506.0
 30
0.0
 11
452.0
 21
506.0
 31
0.0
  0
SOLID
  5
5B
330
17
100
AcDbEntity
  8
LIQUID
100
AcDbTrace
 10
438.4
 20
512.8
 30
0.0
 11
453.7
 21
506.0
 31
0.0
 12
438.4
 22
499.2
 32
0.0
 13
438.4
 23
499.2
 33
0.0
  0
LINE
  5
5C
330
17
100
AcDbEntity
  8
LIQUID
100
AcDbLine
 10
628.0
 20
506.0
 30
0.0
 11
690.0
 21
506.0
 31
0.0
  0
SOLID
  5
5D
330
17
100
AcDbEntity
  8
LIQUID
100
AcDbTrace
 10
676.4
 20
512.8
 30
0.0
 11
691.7
 21
506.0
 31
0.0
 12
676.4
 22
499.2
 32
0.0
 13
676.4
 23
499.2
 33
0.0
  0
TEXT
  5
5E
330
17
100
AcDbEntity
  8
TEXT_RU
420
2783446
100
AcDbText
 10
423.0
 20
512.0
 30
0.0
 40
5.6
  1
84 пак./сут
  7
TXTRU
 72
1
 11
423.0
 21
512.0
 31
0.0
100
AcDbText
  0
LWPOLYLINE
  5
5F
330
17
100
AcDbEntity
  8
LIQUID
100
AcDbPolyline
 90
4
 70
0
 10
540.0
 20
472.0
 10
540.0
 20
432.0
 10
311.0
 20
432.0
 10
311.0
 20
404.0
  0
SOLID
  5
60
330
17
100
AcDbEntity
  8
LIQUID
100
AcDbTrace
 10
317.8
 20
417.6
 30
0.0
 11
311.0
 21
402.3
 31
0.0
 12
304.2
 22
417.6
 32
0.0
 13
304.2
 23
417.6
 33
0.0
  0
TEXT
  5
61
330
17
100
AcDbEntity
  8
TEXT_RU
420
2783446
100
AcDbText
 10
430.0
 20
439.0
 30
0.0
 40
5.95
  1
вне допуска · пробы (ТЗ п. 6.4)
  7
TXTRU
 72
1
 11
430.0
 21
439.0
 31
0.0
100
AcDbText
  0
LWPOLYLINE
  5
62
330
17
100
AcDbEntity
  8
LIQUID
100
AcDbPolyline
 90
4
 70
0
 10
790.0
 20
464.0
 10
790.0
 20
432.0
 10
660.0
 20
432.0
 10
660.0
 20
404.0
  0
SOLID
  5
63
330
17
100
AcDbEntity
  8
LIQUID
100
AcDbTrace
 10
666.8
 20
417.6
 30
0.0
 11
660.0
 21
402.3
 31
0.0
 12
653.2
 22
417.6
 32
0.0
 13
653.2
 23
417.6
 33
0.0
  0
TEXT
  5
64
330
17
100
AcDbEntity
  8
TEXT_RU
420
2783446
100
AcDbText
 10
800.0
 20
442.0
 30
0.0
 40
5.95
  1
позиция выдачи → штабелёр
  7
TXTRU
 11
800.0
 21
442.0
 31
0.0
100
AcDbText
  0
LWPOLYLINE
  5
65
330
17
100
AcDbEntity
  8
LIQUID
100
AcDbPolyline
 90
8
 70
1
 10
235.0
 20
404.0
 10
387.0
 20
404.0
 42
0.41421356237309837
 10
394.0
 20
397.0
 10
394.0
 20
339.0
 42
0.4142135623730902
 10
387.0
 20
332.0
 10
235.0
 20
332.0
 42
0.4142135623730943
 10
228.0
 20
339.0
 10
228.0
 20
397.0
 42
0.4142135623731024
  0
TEXT
  5
66
330
17
100
AcDbEntity
  8
TEXT_RU
100
AcDbText
 10
311.0
 20
387.0
 30
0.0
 40
8.05
  1
РАЗБРАКОВКА · ПРОБЫ
  7
TXTRU
 72
1
 11
311.0
 21
387.0
 31
0.0
100
AcDbText
  0
TEXT
  5
67
330
17
100
AcDbEntity
  8
TEXT_RU
100
AcDbText
 10
311.0
 20
373.0
 30
0.0
 40
6.65
  1
пакеты вне допуска массы
  7
TXTRU
 72
1
 11
311.0
 21
373.0
 31
0.0
100
AcDbText
  0
TEXT
  5
68
330
17
100
AcDbEntity
  8
TEXT_RU
100
AcDbText
 10
311.0
 20
361.0
 30
0.0
 40
6.65
  1
сверловка проб на химанализ
  7
TXTRU
 72
1
 11
311.0
 21
361.0
 31
0.0
100
AcDbText
  0
TEXT
  5
69
330
17
100
AcDbEntity
  8
TEXT_RU
100
AcDbText
 10
311.0
 20
349.0
 30
0.0
 40
6.65
  1
возврат листов в пакет
  7
TXTRU
 72
1
 11
311.0
 21
349.0
 31
0.0
100
AcDbText
  0
LINE
  5
6A
330
17
100
AcDbEntity
  8
LIQUID
100
AcDbLine
 10
394.0
 20
368.0
 30
0.0
 11
430.0
 21
368.0
 31
0.0
  0
SOLID
  5
6B
330
17
100
AcDbEntity
  8
LIQUID
100
AcDbTrace
 10
416.4
 20
374.8
 30
0.0
 11
431.7
 21
368.0
 31
0.0
 12
416.4
 22
361.2
 32
0.0
 13
416.4
 23
361.2
 33
0.0
  0
TEXT
  5
6C
330
17
100
AcDbEntity
  8
TEXT_RU
420
2783446
100
AcDbText
 10
412.0
 20
375.0
 30
0.0
 40
5.6
  1
возврат
  7
TXTRU
 72
1
 11
412.0
 21
375.0
 31
0.0
100
AcDbText
  0
LWPOLYLINE
  5
6D
330
17
100
AcDbEntity
  8
LIQUID
100
AcDbPolyline
 90
8
 70
1
 10
437.0
 20
404.0
 10
733.0
 20
404.0
 42
0.4142135623731064
 10
740.0
 20
397.0
 10
740.0
 20
313.0
 42
0.41421356237309837
 10
733.0
 20
306.0
 10
437.0
 20
306.0
 42
0.4142135623730902
 10
430.0
 20
313.0
 10
430.0
 20
397.0
 42
0.41421356237309837
  0
TEXT
  5
6E
330
17
100
AcDbEntity
  8
TEXT_RU
100
AcDbText
 10
585.0
 20
387.0
 30
0.0
 40
8.05
  1
ЗОНА АДРЕСНОГО ХРАНЕНИЯ
  7
TXTRU
 72
1
 11
585.0
 21
387.0
 31
0.0
100
AcDbText
  0
TEXT
  5
6F
330
17
100
AcDbEntity
  8
TEXT_RU
100
AcDbText
 10
585.0
 20
373.0
 30
0.0
 40
6.65
  1
буфер 1200 пакетов = 3000 т ≈ 14,3 сут (расчёт БИ)
  7
TXTRU
 72
1
 11
585.0
 21
373.0
 31
0.0
100
AcDbText
  0
TEXT
  5
70
330
17
100
AcDbEntity
  8
TEXT_RU
100
AcDbText
 10
585.0
 20
361.0
 30
0.0
 40
6.65
  1
диапазон проверки 7–15 сут = 1467–3143 т
  7
TXTRU
 72
1
 11
585.0
 21
361.0
 31
0.0
100
AcDbText
  0
TEXT
  5
71
330
17
100
AcDbEntity
  8
TEXT_RU
100
AcDbText
 10
585.0
 20
349.0
 30
0.0
 40
6.65
  1
2 яруса · пятно ≈1600 м² · адресные линии 1,0 × 1,0 м
  7
TXTRU
 72
1
 11
585.0
 21
349.0
 31
0.0
100
AcDbText
  0
TEXT
  5
72
330
17
100
AcDbEntity
  8
TEXT_RU
100
AcDbText
 10
585.0
 20
337.0
 30
0.0
 40
6.65
  1
адрес = линия × позиция × ярус · FIFO · резерв партий
  7
TXTRU
 72
1
 11
585.0
 21
337.0
 31
0.0
100
AcDbText
  0
TEXT
  5
73
330
17
100
AcDbEntity
  8
TEXT_RU
100
AcDbText
 10
585.0
 20
325.0
 30
0.0
 40
6.65
  1
штабелёры 3 шт. (2 раб. + 1 рез.) · г/п 3,2–5 т · Li-ion
  7
TXTRU
 72
1
 11
585.0
 21
325.0
 31
0.0
100
AcDbText
  0
TEXT
  5
74
330
17
100
AcDbEntity
  8
TEXT_RU
100
AcDbText
 10
610.0
 20
292.0
 30
0.0
 40
5.6
  1
3-й ярус — по результатам обследования пола (уточняется)
  7
TXTRU
 72
1
 11
610.0
 21
292.0
 31
0.0
100
AcDbText
  0
LINE
  5
75
330
17
100
AcDbEntity
  8
LIQUID
100
AcDbLine
 10
740.0
 20
355.0
 30
0.0
 11
790.0
 21
355.0
 31
0.0
  0
SOLID
  5
76
330
17
100
AcDbEntity
  8
LIQUID
100
AcDbTrace
 10
776.4
 20
361.8
 30
0.0
 11
791.7
 21
355.0
 31
0.0
 12
776.4
 22
348.2
 32
0.0
 13
776.4
 23
348.2
 33
0.0
  0
LWPOLYLINE
  5
77
330
17
100
AcDbEntity
  8
LIQUID
100
AcDbPolyline
 90
8
 70
1
 10
797.0
 20
390.0
 10
967.0
 20
390.0
 42
0.4142135623731064
 10
974.0
 20
383.0
 10
974.0
 20
307.0
 42
0.41421356237309837
 10
967.0
 20
300.0
 10
797.0
 20
300.0
 42
0.41421356237309837
 10
790.0
 20
307.0
 10
790.0
 20
383.0
 42
0.4142135623731064
  0
TEXT
  5
78
330
17
100
AcDbEntity
  8
TEXT_RU
100
AcDbText
 10
882.0
 20
373.0
 30
0.0
 40
8.05
  1
КОМПЛЕКТАЦИЯ ПАРТИИ
  7
TXTRU
 72
1
 11
882.0
 21
373.0
 31
0.0
100
AcDbText
  0
TEXT
  5
79
330
17
100
AcDbEntity
  8
TEXT_RU
100
AcDbText
 10
882.0
 20
359.0
 30
0.0
 40
6.65
  1
контрольные весы · НПВ 3 т
  7
TXTRU
 72
1
 11
882.0
 21
359.0
 31
0.0
100
AcDbText
  0
TEXT
  5
7A
330
17
100
AcDbEntity
  8
TEXT_RU
100
AcDbText
 10
882.0
 20
347.0
 30
0.0
 40
6.65
  1
резервирование адресов у фронтов
  7
TXTRU
 72
1
 11
882.0
 21
347.0
 31
0.0
100
AcDbText
  0
TEXT
  5
7B
330
17
100
AcDbEntity
  8
TEXT_RU
100
AcDbText
 10
882.0
 20
335.0
 30
0.0
 40
6.65
  1
партия (пример): 20 ваг. = 1350 т
  7
TXTRU
 72
1
 11
882.0
 21
335.0
 31
0.0
100
AcDbText
  0
TEXT
  5
7C
330
17
100
AcDbEntity
  8
TEXT_RU
100
AcDbText
 10
882.0
 20
323.0
 30
0.0
 40
6.65
  1
отгрузка — после химанализа проб
  7
TXTRU
 72
1
 11
882.0
 21
323.0
 31
0.0
100
AcDbText
  0
LWPOLYLINE
  5
7D
330
17
100
AcDbEntity
  8
LIQUID
100
AcDbPolyline
 90
4
 70
0
 10
974.0
 20
368.0
 10
988.0
 20
368.0
 10
988.0
 20
396.0
 10
1004.0
 20
396.0
  0
SOLID
  5
7E
330
17
100
AcDbEntity
  8
LIQUID
100
AcDbTrace
 10
990.4
 20
402.8
 30
0.0
 11
1005.7
 21
396.0
 31
0.0
 12
990.4
 22
389.2
 32
0.0
 13
990.4
 23
389.2
 33
0.0
  0
LWPOLYLINE
  5
7F
330
17
100
AcDbEntity
  8
LIQUID
100
AcDbPolyline
 90
4
 70
0
 10
974.0
 20
332.0
 10
988.0
 20
332.0
 10
988.0
 20
282.0
 10
1004.0
 20
282.0
  0
SOLID
  5
80
330
17
100
AcDbEntity
  8
LIQUID
100
AcDbTrace
 10
990.4
 20
288.8
 30
0.0
 11
1005.7
 21
282.0
 31
0.0
 12
990.4
 22
275.2
 32
0.0
 13
990.4
 23
275.2
 33
0.0
  0
LWPOLYLINE
  5
81
330
17
100
AcDbEntity
  8
OUTLINE
420
828172
100
AcDbPolyline
 90
8
 70
1
 10
1011.0
 20
432.0
 10
1167.0
 20
432.0
 42
0.4142135623730902
 10
1174.0
 20
425.0
 10
1174.0
 20
347.0
 42
0.4142135623730821
 10
1167.0
 20
340.0
 10
1011.0
 20
340.0
 42
0.41421356237309837
 10
1004.0
 20
347.0
 10
1004.0
 20
425.0
 42
0.4142135623731064
  0
TEXT
  5
82
330
17
100
AcDbEntity
  8
TEXT_RU
100
AcDbText
 10
1089.0
 20
415.0
 30
0.0
 40
8.05
  1
ОТГРУЗКА Ж/Д
  7
TXTRU
 72
1
 11
1089.0
 21
415.0
 31
0.0
100
AcDbText
  0
TEXT
  5
83
330
17
100
AcDbEntity
  8
TEXT_RU
100
AcDbText
 10
1089.0
 20
401.0
 30
0.0
 40
6.65
  1
фронт 4–6 вагонов (60–90 м)
  7
TXTRU
 72
1
 11
1089.0
 21
401.0
 31
0.0
100
AcDbText
  0
TEXT
  5
84
330
17
100
AcDbEntity
  8
TEXT_RU
100
AcDbText
 10
1089.0
 20
389.0
 30
0.0
 40
6.65
  1
полувагоны — кран с траверсой
  7
TXTRU
 72
1
 11
1089.0
 21
389.0
 31
0.0
100
AcDbText
  0
TEXT
  5
85
330
17
100
AcDbEntity
  8
TEXT_RU
100
AcDbText
 10
1089.0
 20
377.0
 30
0.0
 40
6.65
  1
крытые вагоны — штабелёры
  7
TXTRU
 72
1
 11
1089.0
 21
377.0
 31
0.0
100
AcDbText
  0
TEXT
  5
86
330
17
100
AcDbEntity
  8
TEXT_RU
100
AcDbText
 10
1089.0
 20
365.0
 30
0.0
 40
6.65
  1
вагонные весы · ≈3 вагона/сут
  7
TXTRU
 72
1
 11
1089.0
 21
365.0
 31
0.0
100
AcDbText
  0
TEXT
  5
87
330
17
100
AcDbEntity
  8
TEXT_RU
100
AcDbText
 10
1089.0
 20
353.0
 30
0.0
 40
6.65
  1
(оба варианта — БИ, уточняется)
  7
TXTRU
 72
1
 11
1089.0
 21
353.0
 31
0.0
100
AcDbText
  0
LWPOLYLINE
  5
88
330
17
100
AcDbEntity
  8
OUTLINE
420
828172
100
AcDbPolyline
 90
8
 70
1
 10
1011.0
 20
310.0
 10
1167.0
 20
310.0
 42
0.4142135623730821
 10
1174.0
 20
303.0
 10
1174.0
 20
257.0
 42
0.4142135623730821
 10
1167.0
 20
250.0
 10
1011.0
 20
250.0
 42
0.41421356237309837
 10
1004.0
 20
257.0
 10
1004.0
 20
303.0
 42
0.41421356237309837
  0
TEXT
  5
89
330
17
100
AcDbEntity
  8
TEXT_RU
100
AcDbText
 10
1089.0
 20
293.0
 30
0.0
 40
8.05
  1
ОТГРУЗКА АВТО
  7
TXTRU
 72
1
 11
1089.0
 21
293.0
 31
0.0
100
AcDbText
  0
TEXT
  5
8A
330
17
100
AcDbEntity
  8
TEXT_RU
100
AcDbText
 10
1089.0
 20
279.0
 30
0.0
 40
6.65
  1
2 поста погрузки штабелёром
  7
TXTRU
 72
1
 11
1089.0
 21
279.0
 31
0.0
100
AcDbText
  0
TEXT
  5
8B
330
17
100
AcDbEntity
  8
TEXT_RU
100
AcDbText
 10
1089.0
 20
267.0
 30
0.0
 40
6.65
  1
автомобильные весы на выезде
  7
TXTRU
 72
1
 11
1089.0
 21
267.0
 31
0.0
100
AcDbText
  0
TEXT
  5
8C
330
17
100
AcDbEntity
  8
TEXT_RU
420
828172
100
AcDbText
 10
1174.0
 20
228.0
 30
0.0
 40
5.95
  1
ворота ж/д и авто — граница проектирования (ТЗ п. 6.2)
  7
TXTRU
 72
2
 11
1174.0
 21
228.0
 31
0.0
100
AcDbText
  0
LWPOLYLINE
  5
8D
330
17
100
AcDbEntity
  8
DIM
  6
DASHED
100
AcDbPolyline
 90
8
 70
1
 10
25.0
 20
198.0
 10
201.0
 20
198.0
 42
0.4142135623730943
 10
208.0
 20
191.0
 10
208.0
 20
145.0
 42
0.4142135623730943
 10
201.0
 20
138.0
 10
25.0
 20
138.0
 42
0.4142135623730928
 10
18.0
 20
145.0
 10
18.0
 20
191.0
 42
0.4142135623730928
  0
TEXT
  5
8E
330
17
100
AcDbEntity
  8
TEXT_RU
100
AcDbText
 10
113.0
 20
181.0
 30
0.0
 40
8.05
  1
ИС КСМ — ЛОТ №3
  7
TXTRU
 72
1
 11
113.0
 21
181.0
 31
0.0
100
AcDbText
  0
TEXT
  5
8F
330
17
100
AcDbEntity
  8
TEXT_RU
100
AcDbText
 10
113.0
 20
167.0
 30
0.0
 40
6.65
  1
атрибуты пакета: №, масса,
  7
TXTRU
 72
1
 11
113.0
 21
167.0
 31
0.0
100
AcDbText
  0
TEXT
  5
90
330
17
100
AcDbEntity
  8
TEXT_RU
100
AcDbText
 10
113.0
 20
155.0
 30
0.0
 40
6.65
  1
партия/плавка · график выгрузки
  7
TXTRU
 72
1
 11
113.0
 21
155.0
 31
0.0
100
AcDbText
  0
LWPOLYLINE
  5
91
330
17
100
AcDbEntity
  8
DIM
  6
DASHED
100
AcDbPolyline
 90
8
 70
1
 10
25.0
 20
110.0
 10
201.0
 20
110.0
 42
0.4142135623730943
 10
208.0
 20
103.0
 10
208.0
 20
61.0
 42
0.4142135623731024
 10
201.0
 20
54.0
 10
25.0
 20
54.0
 42
0.41421356237310086
 10
18.0
 20
61.0
 10
18.0
 20
103.0
 42
0.4142135623730928
  0
TEXT
  5
92
330
17
100
AcDbEntity
  8
TEXT_RU
100
AcDbText
 10
113.0
 20
93.0
 30
0.0
 40
8.05
  1
СКУД
  7
TXTRU
 72
1
 11
113.0
 21
93.0
 31
0.0
100
AcDbText
  0
TEXT
  5
93
330
17
100
AcDbEntity
  8
TEXT_RU
100
AcDbText
 10
113.0
 20
79.0
 30
0.0
 40
6.65
  1
идентификация оператора
  7
TXTRU
 72
1
 11
113.0
 21
79.0
 31
0.0
100
AcDbText
  0
TEXT
  5
94
330
17
100
AcDbEntity
  8
TEXT_RU
100
AcDbText
 10
113.0
 20
67.0
 30
0.0
 40
6.65
  1
доступ в автоматическую зону
  7
TXTRU
 72
1
 11
113.0
 21
67.0
 31
0.0
100
AcDbText
  0
LWPOLYLINE
  5
95
330
17
100
AcDbEntity
  8
DIM
100
AcDbPolyline
 90
8
 70
1
 10
287.0
 20
204.0
 10
573.0
 20
204.0
 42
0.41421356237309837
 10
580.0
 20
197.0
 10
580.0
 20
115.0
 42
0.41421356237309837
 10
573.0
 20
108.0
 10
287.0
 20
108.0
 42
0.4142135623730902
 10
280.0
 20
115.0
 10
280.0
 20
197.0
 42
0.4142135623730902
  0
TEXT
  5
96
330
17
100
AcDbEntity
  8
TEXT_RU
100
AcDbText
 10
430.0
 20
187.0
 30
0.0
 40
8.05
  1
АСУ СГП (WMS) — ТЗ п. 6.4
  7
TXTRU
 72
1
 11
430.0
 21
187.0
 31
0.0
100
AcDbText
  0
TEXT
  5
97
330
17
100
AcDbEntity
  8
TEXT_RU
100
AcDbText
 10
430.0
 20
173.0
 30
0.0
 40
6.65
  1
роботы · набор партий · разбраковка
  7
TXTRU
 72
1
 11
430.0
 21
173.0
 31
0.0
100
AcDbText
  0
TEXT
  5
98
330
17
100
AcDbEntity
  8
TEXT_RU
100
AcDbText
 10
430.0
 20
161.0
 30
0.0
 40
6.65
  1
взвешивание · отбор проб на сверловку
  7
TXTRU
 72
1
 11
430.0
 21
161.0
 31
0.0
100
AcDbText
  0
TEXT
  5
99
330
17
100
AcDbEntity
  8
TEXT_RU
100
AcDbText
 10
430.0
 20
149.0
 30
0.0
 40
6.65
  1
ПЛК REGUL RX00/АБАК · AlphaScada (Linux)
  7
TXTRU
 72
1
 11
430.0
 21
149.0
 31
0.0
100
AcDbText
  0
TEXT
  5
9A
330
17
100
AcDbEntity
  8
TEXT_RU
100
AcDbText
 10
430.0
 20
137.0
 30
0.0
 40
6.65
  1
серверы WMS — горячее резервирование
  7
TXTRU
 72
1
 11
430.0
 21
137.0
 31
0.0
100
AcDbText
  0
TEXT
  5
9B
330
17
100
AcDbEntity
  8
TEXT_RU
100
AcDbText
 10
430.0
 20
125.0
 30
0.0
 40
6.65
  1
карта «что и где стоит» · задания по Wi-Fi
  7
TXTRU
 72
1
 11
430.0
 21
125.0
 31
0.0
100
AcDbText
  0
LWPOLYLINE
  5
9C
330
17
100
AcDbEntity
  8
DIM
100
AcDbPolyline
 90
8
 70
1
 10
647.0
 20
204.0
 10
933.0
 20
204.0
 42
0.41421356237309837
 10
940.0
 20
197.0
 10
940.0
 20
115.0
 42
0.41421356237309837
 10
933.0
 20
108.0
 10
647.0
 20
108.0
 42
0.41421356237309837
 10
640.0
 20
115.0
 10
640.0
 20
197.0
 42
0.41421356237309837
  0
TEXT
  5
9D
330
17
100
AcDbEntity
  8
TEXT_RU
100
AcDbText
 10
790.0
 20
187.0
 30
0.0
 40
8.05
  1
АИС ВЕСОИЗМЕРЕНИЯ — ПРИЛ. №5
  7
TXTRU
 72
1
 11
790.0
 21
187.0
 31
0.0
100
AcDbText
  0
TEXT
  5
9E
330
17
100
AcDbEntity
  8
TEXT_RU
100
AcDbText
 10
790.0
 20
173.0
 30
0.0
 40
6.65
  1
весы: приёмка · контроль · вагонные · авто
  7
TXTRU
 72
1
 11
790.0
 21
173.0
 31
0.0
100
AcDbText
  0
TEXT
  5
9F
330
17
100
AcDbEntity
  8
TEXT_RU
100
AcDbText
 10
790.0
 20
161.0
 30
0.0
 40
6.65
  1
класс «высокий» · СИ из Госреестра, поверка
  7
TXTRU
 72
1
 11
790.0
 21
161.0
 31
0.0
100
AcDbText
  0
TEXT
  5
A0
330
17
100
AcDbEntity
  8
TEXT_RU
100
AcDbText
 10
790.0
 20
149.0
 30
0.0
 40
6.65
  1
«безадресные» по QR · передача REST
  7
TXTRU
 72
1
 11
790.0
 21
149.0
 31
0.0
100
AcDbText
  0
TEXT
  5
A1
330
17
100
AcDbEntity
  8
TEXT_RU
100
AcDbText
 10
790.0
 20
137.0
 30
0.0
 40
6.65
  1
терминалы → атрибуты → ХТД PIMS
  7
TXTRU
 72
1
 11
790.0
 21
137.0
 31
0.0
100
AcDbText
  0
TEXT
  5
A2
330
17
100
AcDbEntity
  8
TEXT_RU
100
AcDbText
 10
790.0
 20
125.0
 30
0.0
 40
6.65
  1
ИБП ≥20 мин · автономность без связи
  7
TXTRU
 72
1
 11
790.0
 21
125.0
 31
0.0
100
AcDbText
  0
LWPOLYLINE
  5
A3
330
17
100
AcDbEntity
  8
DIM
  6
DASHED
100
AcDbPolyline
 90
8
 70
1
 10
1011.0
 20
204.0
 10
1167.0
 20
204.0
 42
0.4142135623730821
 10
1174.0
 20
197.0
 10
1174.0
 20
163.0
 42
0.4142135623730821
 10
1167.0
 20
156.0
 10
1011.0
 20
156.0
 42
0.41421356237309837
 10
1004.0
 20
163.0
 10
1004.0
 20
197.0
 42
0.41421356237309837
  0
TEXT
  5
A4
330
17
100
AcDbEntity
  8
TEXT_RU
100
AcDbText
 10
1089.0
 20
187.0
 30
0.0
 40
8.05
  1
ХТД PIMS
  7
TXTRU
 72
1
 11
1089.0
 21
187.0
 31
0.0
100
AcDbText
  0
TEXT
  5
A5
330
17
100
AcDbEntity
  8
TEXT_RU
100
AcDbText
 10
1089.0
 20
173.0
 30
0.0
 40
6.65
  1
все результаты взвешиваний
  7
TXTRU
 72
1
 11
1089.0
 21
173.0
 31
0.0
100
AcDbText
  0
LWPOLYLINE
  5
A6
330
17
100
AcDbEntity
  8
DIM
  6
DASHED
100
AcDbPolyline
 90
8
 70
1
 10
1011.0
 20
114.0
 10
1167.0
 20
114.0
 42
0.4142135623730821
 10
1174.0
 20
107.0
 10
1174.0
 20
73.0
 42
0.4142135623730902
 10
1167.0
 20
66.0
 10
1011.0
 20
66.0
 42
0.4142135623731064
 10
1004.0
 20
73.0
 10
1004.0
 20
107.0
 42
0.41421356237309837
  0
TEXT
  5
A7
330
17
100
AcDbEntity
  8
TEXT_RU
100
AcDbText
 10
1089.0
 20
97.0
 30
0.0
 40
8.05
  1
ЕДИНАЯ ДИСПЕТЧЕРСКАЯ
  7
TXTRU
 72
1
 11
1089.0
 21
97.0
 31
0.0
100
AcDbText
  0
TEXT
  5
A8
330
17
100
AcDbEntity
  8
TEXT_RU
100
AcDbText
 10
1089.0
 20
83.0
 30
0.0
 40
6.65
  1
вывод показателей (ТЗ п. 2.10)
  7
TXTRU
 72
1
 11
1089.0
 21
83.0
 31
0.0
100
AcDbText
  0
LINE
  5
A9
330
17
100
AcDbEntity
  8
DIM
  6
DASHED
100
AcDbLine
 10
208.0
 20
170.0
 30
0.0
 11
280.0
 21
170.0
 31
0.0
  0
SOLID
  5
AA
330
17
100
AcDbEntity
  8
DIM
100
AcDbTrace
 10
272.0
 20
174.0
 30
0.0
 11
281.0
 21
170.0
 31
0.0
 12
272.0
 22
166.0
 32
0.0
 13
272.0
 23
166.0
 33
0.0
  0
TEXT
  5
AB
330
17
100
AcDbEntity
  8
TEXT_RU
100
AcDbText
 10
244.0
 20
177.0
 30
0.0
 40
5.6
  1
атрибуты пакета
  7
TXTRU
 72
1
 11
244.0
 21
177.0
 31
0.0
100
AcDbText
  0
LINE
  5
AC
330
17
100
AcDbEntity
  8
DIM
  6
DASHED
100
AcDbLine
 10
580.0
 20
176.0
 30
0.0
 11
640.0
 21
176.0
 31
0.0
  0
SOLID
  5
AD
330
17
100
AcDbEntity
  8
DIM
100
AcDbTrace
 10
632.0
 20
180.0
 30
0.0
 11
641.0
 21
176.0
 31
0.0
 12
632.0
 22
172.0
 32
0.0
 13
632.0
 23
172.0
 33
0.0
  0
TEXT
  5
AE
330
17
100
AcDbEntity
  8
TEXT_RU
100
AcDbText
 10
610.0
 20
183.0
 30
0.0
 40
5.6
  1
массы, допуски
  7
TXTRU
 72
1
 11
610.0
 21
183.0
 31
0.0
100
AcDbText
  0
LINE
  5
AF
330
17
100
AcDbEntity
  8
DIM
  6
DASHED
100
AcDbLine
 10
640.0
 20
148.0
 30
0.0
 11
580.0
 21
148.0
 31
0.0
  0
SOLID
  5
B0
330
17
100
AcDbEntity
  8
DIM
100
AcDbTrace
 10
588.0
 20
144.0
 30
0.0
 11
579.0
 21
148.0
 31
0.0
 12
588.0
 22
152.0
 32
0.0
 13
588.0
 23
152.0
 33
0.0
  0
TEXT
  5
B1
330
17
100
AcDbEntity
  8
TEXT_RU
100
AcDbText
 10
610.0
 20
136.0
 30
0.0
 40
5.6
  1
адреса, статусы
  7
TXTRU
 72
1
 11
610.0
 21
136.0
 31
0.0
100
AcDbText
  0
LINE
  5
B2
330
17
100
AcDbEntity
  8
DIM
  6
DASHED
100
AcDbLine
 10
940.0
 20
180.0
 30
0.0
 11
1004.0
 21
180.0
 31
0.0
  0
SOLID
  5
B3
330
17
100
AcDbEntity
  8
DIM
100
AcDbTrace
 10
996.0
 20
184.0
 30
0.0
 11
1005.0
 21
180.0
 31
0.0
 12
996.0
 22
176.0
 32
0.0
 13
996.0
 23
176.0
 33
0.0
  0
TEXT
  5
B4
330
17
100
AcDbEntity
  8
TEXT_RU
100
AcDbText
 10
972.0
 20
187.0
 30
0.0
 40
5.6
  1
взвешивания
  7
TXTRU
 72
1
 11
972.0
 21
187.0
 31
0.0
100
AcDbText
  0
LWPOLYLINE
  5
B5
330
17
100
AcDbEntity
  8
DIM
  6
DASHED
100
AcDbPolyline
 90
5
 70
0
 10
430.0
 20
108.0
 10
430.0
 20
44.0
 10
980.0
 20
44.0
 10
980.0
 20
90.0
 10
1004.0
 20
90.0
  0
SOLID
  5
B6
330
17
100
AcDbEntity
  8
DIM
100
AcDbTrace
 10
996.0
 20
94.0
 30
0.0
 11
1005.0
 21
90.0
 31
0.0
 12
996.0
 22
86.0
 32
0.0
 13
996.0
 23
86.0
 33
0.0
  0
TEXT
  5
B7
330
17
100
AcDbEntity
  8
TEXT_RU
100
AcDbText
 10
700.0
 20
50.0
 30
0.0
 40
5.6
  1
показатели — в единую диспетчерскую
  7
TXTRU
 72
1
 11
700.0
 21
50.0
 31
0.0
100
AcDbText
  0
LWPOLYLINE
  5
B8
330
17
100
AcDbEntity
  8
DIM
  6
DASHED
100
AcDbPolyline
 90
3
 70
0
 10
208.0
 20
82.0
 10
700.0
 20
82.0
 10
700.0
 20
108.0
  0
SOLID
  5
B9
330
17
100
AcDbEntity
  8
DIM
100
AcDbTrace
 10
696.0
 20
100.0
 30
0.0
 11
700.0
 21
109.0
 31
0.0
 12
704.0
 22
100.0
 32
0.0
 13
704.0
 23
100.0
 33
0.0
  0
TEXT
  5
BA
330
17
100
AcDbEntity
  8
TEXT_RU
100
AcDbText
 10
350.0
 20
89.0
 30
0.0
 40
5.6
  1
идентификация — в АИС
  7
TXTRU
 72
1
 11
350.0
 21
89.0
 31
0.0
100
AcDbText
  0
LINE
  5
BB
330
17
100
AcDbEntity
  8
DIM
  6
DASHED
100
AcDbLine
 10
470.0
 20
204.0
 30
0.0
 11
470.0
 21
306.0
 31
0.0
  0
SOLID
  5
BC
330
17
100
AcDbEntity
  8
DIM
100
AcDbTrace
 10
466.0
 20
298.0
 30
0.0
 11
470.0
 21
307.0
 31
0.0
 12
474.0
 22
298.0
 32
0.0
 13
474.0
 23
298.0
 33
0.0
  0
TEXT
  5
BD
330
17
100
AcDbEntity
  8
TEXT_RU
100
AcDbText
 10
462.0
 20
255.0
 30
0.0
 40
5.6
  1
задания штабелёрам
 50
90.0
  7
TXTRU
 72
1
 11
462.0
 21
255.0
 31
0.0
100
AcDbText
  0
LINE
  5
BE
330
17
100
AcDbEntity
  8
DIM
  6
DASHED
100
AcDbLine
 10
330.0
 20
204.0
 30
0.0
 11
330.0
 21
332.0
 31
0.0
  0
SOLID
  5
BF
330
17
100
AcDbEntity
  8
DIM
100
AcDbTrace
 10
326.0
 20
324.0
 30
0.0
 11
330.0
 21
333.0
 31
0.0
 12
334.0
 22
324.0
 32
0.0
 13
334.0
 23
324.0
 33
0.0
  0
TEXT
  5
C0
330
17
100
AcDbEntity
  8
TEXT_RU
100
AcDbText
 10
322.0
 20
268.0
 30
0.0
 40
5.6
  1
задание на разбраковку/пробы
 50
90.0
  7
TXTRU
 72
1
 11
322.0
 21
268.0
 31
0.0
100
AcDbText
  0
LWPOLYLINE
  5
C1
330
17
100
AcDbEntity
  8
DIM
  6
DASHED
100
AcDbPolyline
 90
4
 70
0
 10
750.0
 20
204.0
 10
750.0
 20
284.0
 10
830.0
 20
284.0
 10
830.0
 20
310.0
  0
SOLID
  5
C2
330
17
100
AcDbEntity
  8
DIM
100
AcDbTrace
 10
826.0
 20
302.0
 30
0.0
 11
830.0
 21
311.0
 31
0.0
 12
834.0
 22
302.0
 32
0.0
 13
834.0
 23
302.0
 33
0.0
  0
TEXT
  5
C3
330
17
100
AcDbEntity
  8
TEXT_RU
100
AcDbText
 10
758.0
 20
290.0
 30
0.0
 40
5.6
  1
контрольное взвешивание
  7
TXTRU
 11
758.0
 21
290.0
 31
0.0
100
AcDbText
  0
LINE
  5
C4
330
17
100
AcDbEntity
  8
LIQUID
100
AcDbLine
 10
628.0
 20
559.0
 30
0.0
 11
654.0
 21
559.0
 31
0.0
  0
SOLID
  5
C5
330
17
100
AcDbEntity
  8
LIQUID
100
AcDbTrace
 10
640.4
 20
565.8
 30
0.0
 11
655.7
 21
559.0
 31
0.0
 12
640.4
 22
552.2
 32
0.0
 13
640.4
 23
552.2
 33
0.0
  0
TEXT
  5
C6
330
17
100
AcDbEntity
  8
TEXT_RU
100
AcDbText
 10
660.0
 20
556.0
 30
0.0
 40
5.6
  1
материальный поток (пакеты)
  7
TXTRU
 11
660.0
 21
556.0
 31
0.0
100
AcDbText
  0
LINE
  5
C7
330
17
100
AcDbEntity
  8
DIM
  6
DASHED
100
AcDbLine
 10
822.0
 20
559.0
 30
0.0
 11
848.0
 21
559.0
 31
0.0
  0
TEXT
  5
C8
330
17
100
AcDbEntity
  8
TEXT_RU
100
AcDbText
 10
854.0
 20
556.0
 30
0.0
 40
5.6
  1
инф. связи АСУ/АИС
  7
TXTRU
 11
854.0
 21
556.0
 31
0.0
100
AcDbText
  0
LINE
  5
C9
330
17
100
AcDbEntity
  8
OUTLINE
  6
DASHED
420
828172
100
AcDbLine
 10
1008.0
 20
559.0
 30
0.0
 11
1034.0
 21
559.0
 31
0.0
  0
TEXT
  5
CA
330
17
100
AcDbEntity
  8
TEXT_RU
100
AcDbText
 10
1040.0
 20
556.0
 30
0.0
 40
5.6
  1
границы (ТЗ п. 6.2)
  7
TXTRU
 11
1040.0
 21
556.0
 31
0.0
100
AcDbText
  0
ENDSEC
  0
SECTION
  2
OBJECTS
  0
DICTIONARY
  5
A
330
0
100
AcDbDictionary
281
1
  3
ACAD_COLOR
350
B
  3
ACAD_GROUP
350
C
  3
ACAD_LAYOUT
350
D
  3
ACAD_MATERIAL
350
E
  3
ACAD_MLEADERSTYLE
350
F
  3
ACAD_MLINESTYLE
350
10
  3
ACAD_PLOTSETTINGS
350
11
  3
ACAD_PLOTSTYLENAME
350
12
  3
ACAD_SCALELIST
350
14
  3
ACAD_TABLESTYLE
350
15
  3
ACAD_VISUALSTYLE
350
16
  3
EZDXF_META
350
2D
  0
DICTIONARY
  5
B
330
A
100
AcDbDictionary
281
1
  0
DICTIONARY
  5
C
330
A
100
AcDbDictionary
281
1
  0
DICTIONARY
  5
D
330
A
100
AcDbDictionary
281
1
  3
Model
350
1A
  3
Layout1
350
1E
  0
DICTIONARY
  5
E
330
A
100
AcDbDictionary
281
1
  3
ByBlock
350
1F
  3
ByLayer
350
20
  3
Global
350
21
  0
DICTIONARY
  5
F
330
A
100
AcDbDictionary
281
1
  3
Standard
350
2C
  0
DICTIONARY
  5
10
330
A
100
AcDbDictionary
281
1
  3
Standard
350
22
  0
DICTIONARY
  5
11
330
A
100
AcDbDictionary
281
1
  0
ACDBDICTIONARYWDFLT
  5
12
330
A
100
AcDbDictionary
281
1
  3
Normal
350
13
100
AcDbDictionaryWithDefault
340
13
  0
ACDBPLACEHOLDER
  5
13
330
12
  0
DICTIONARY
  5
14
330
A
100
AcDbDictionary
281
1
  0
DICTIONARY
  5
15
330
A
100
AcDbDictionary
281
1
  0
DICTIONARY
  5
16
330
A
100
AcDbDictionary
281
1
  0
LAYOUT
  5
1A
330
D
100
AcDbPlotSettings
  1

  4
A3
  6

 40
7.5
 41
20.0
 42
7.5
 43
20.0
 44
420.0
 45
297.0
 46
0.0
 47
0.0
 48
0.0
 49
0.0
140
0.0
141
0.0
142
1.0
143
1.0
 70
1024
 72
1
 73
0
 74
5
  7

 75
16
 76
0
 77
2
 78
300
147
1.0
148
0.0
149
0.0
100
AcDbLayout
  1
Model
 70
1
 71
0
 10
0.0
 20
0.0
 11
1190.0
 21
600.0
 12
0.0
 22
0.0
 32
0.0
 14
-0.01
 24
-0.01
 34
0.0
 15
1190.0
 25
600.0
 35
0.0
146
0.0
 13
0.0
 23
0.0
 33
0.0
 16
1.0
 26
0.0
 36
0.0
 17
0.0
 27
1.0
 37
0.0
 76
1
330
17
  0
LAYOUT
  5
1E
330
D
100
AcDbPlotSettings
  1

  4
A3
  6

 40
7.5
 41
20.0
 42
7.5
 43
20.0
 44
420.0
 45
297.0
 46
0.0
 47
0.0
 48
0.0
 49
0.0
140
0.0
141
0.0
142
1.0
143
1.0
 70
0
 72
1
 73
0
 74
5
  7

 75
16
 76
0
 77
2
 78
300
147
1.0
148
0.0
149
0.0
100
AcDbLayout
  1
Layout1
 70
1
 71
1
 10
0.0
 20
0.0
 11
420.0
 21
297.0
 12
0.0
 22
0.0
 32
0.0
 14
1e+20
 24
1e+20
 34
1e+20
 15
-1e+20
 25
-1e+20
 35
-1e+20
146
0.0
 13
0.0
 23
0.0
 33
0.0
 16
1.0
 26
0.0
 36
0.0
 17
0.0
 27
1.0
 37
0.0
 76
1
330
1B
  0
MATERIAL
  5
1F
102
{ACAD_REACTORS
330
E
102
}
330
E
100
AcDbMaterial
  1
ByBlock
  2

 70
0
 40
1.0
 71
1
 41
1.0
 91
-1023410177
 42
1.0
 72
1
  3

 73
1
 74
1
 75
1
 44
0.5
 73
0
 45
1.0
 46
1.0
 77
1
  4

 78
1
 79
1
170
1
 48
1.0
171
1
  6

172
1
173
1
174
1
140
1.0
141
1.0
175
1
  7

176
1
177
1
178
1
143
1.0
179
1
  8

270
1
271
1
272
1
145
1.0
146
1.0
273
1
  9

274
1
275
1
276
1
 42
1.0
 72
1
  3

 73
1
 74
1
 75
1
 94
63
  0
MATERIAL
  5
20
102
{ACAD_REACTORS
330
E
102
}
330
E
100
AcDbMaterial
  1
ByLayer
  2

 70
0
 40
1.0
 71
1
 41
1.0
 91
-1023410177
 42
1.0
 72
1
  3

 73
1
 74
1
 75
1
 44
0.5
 73
0
 45
1.0
 46
1.0
 77
1
  4

 78
1
 79
1
170
1
 48
1.0
171
1
  6

172
1
173
1
174
1
140
1.0
141
1.0
175
1
  7

176
1
177
1
178
1
143
1.0
179
1
  8

270
1
271
1
272
1
145
1.0
146
1.0
273
1
  9

274
1
275
1
276
1
 42
1.0
 72
1
  3

 73
1
 74
1
 75
1
 94
63
  0
MATERIAL
  5
21
102
{ACAD_REACTORS
330
E
102
}
330
E
100
AcDbMaterial
  1
Global
  2

 70
0
 40
1.0
 71
1
 41
1.0
 91
-1023410177
 42
1.0
 72
1
  3

 73
1
 74
1
 75
1
 44
0.5
 73
0
 45
1.0
 46
1.0
 77
1
  4

 78
1
 79
1
170
1
 48
1.0
171
1
  6

172
1
173
1
174
1
140
1.0
141
1.0
175
1
  7

176
1
177
1
178
1
143
1.0
179
1
  8

270
1
271
1
272
1
145
1.0
146
1.0
273
1
  9

274
1
275
1
276
1
 42
1.0
 72
1
  3

 73
1
 74
1
 75
1
 94
63
  0
MLINESTYLE
  5
22
102
{ACAD_REACTORS
330
10
102
}
330
10
100
AcDbMlineStyle
  2
Standard
 70
0
  3

 62
256
 51
90.0
 52
90.0
 71
2
 49
0.5
 62
256
  6
BYLAYER
 49
-0.5
 62
256
  6
BYLAYER
  0
MLEADERSTYLE
  5
2C
102
{ACAD_REACTORS
330
F
102
}
330
F
100
AcDbMLeaderStyle
179
2
170
2
171
1
172
0
 90
2
 40
0.0
 41
0.0
173
1
 91
-1056964608
 92
-2
290
1
 42
2.0
291
1
 43
8.0
  3
Standard
 44
4.0
300

342
29
174
1
175
1
176
0
178
1
 93
-1056964608
 45
4.0
292
0
297
0
 46
4.0
 94
-1056964608
 47
1.0
 49
1.0
140
1.0
294
1
141
0.0
177
0
142
1.0
295
0
296
0
143
3.75
271
0
272
9
273
9
  0
DICTIONARY
  5
2D
330
A
100
AcDbDictionary
280
1
281
1
  3
CREATED_BY_EZDXF
350
2E
  3
WRITTEN_BY_EZDXF
350
CD
  0
DICTIONARYVAR
  5
2E
330
2D
100
DictionaryVariables
280
0
  1
1.4.4 @ 2026-08-28T02:58:58.403639+00:00
  0
DICTIONARYVAR
  5
CD
330
2D
100
DictionaryVariables
280
0
  1
1.4.4 @ 2026-08-28T02:58:58.413104+00:00
  0
ENDSEC
  0
EOF
