  0
SECTION
  2
HEADER
  9
$ACADVER
  1
AC1024
  9
$ACADMAINTVER
 70
6
  9
$DWGCODEPAGE
  3
ANSI_1252
  9
$LASTSAVEDBY
  1
ezdxf
  9
$INSBASE
 10
0.0
 20
0.0
 30
0.0
  9
$EXTMIN
 10
-0.01
 20
-0.01
 30
0.0
  9
$EXTMAX
 10
1190.0
 20
640.0
 30
0.0
  9
$LIMMIN
 10
0.0
 20
0.0
  9
$LIMMAX
 10
1190.0
 20
640.0
  9
$ORTHOMODE
 70
0
  9
$REGENMODE
 70
1
  9
$FILLMODE
 70
1
  9
$QTEXTMODE
 70
0
  9
$MIRRTEXT
 70
1
  9
$LTSCALE
 40
1.0
  9
$ATTMODE
 70
1
  9
$TEXTSIZE
 40
2.5
  9
$TRACEWID
 40
1.0
  9
$TEXTSTYLE
  7
Standard
  9
$CLAYER
  8
0
  9
$CELTYPE
  6
ByLayer
  9
$CECOLOR
 62
256
  9
$CELTSCALE
 40
1.0
  9
$DISPSILH
 70
0
  9
$DIMSCALE
 40
1.0
  9
$DIMASZ
 40
2.5
  9
$DIMEXO
 40
0.625
  9
$DIMDLI
 40
3.75
  9
$DIMRND
 40
0.0
  9
$DIMDLE
 40
0.0
  9
$DIMEXE
 40
1.25
  9
$DIMTP
 40
0.0
  9
$DIMTM
 40
0.0
  9
$DIMTXT
 40
2.5
  9
$DIMCEN
 40
2.5
  9
$DIMTSZ
 40
0.0
  9
$DIMTOL
 70
0
  9
$DIMLIM
 70
0
  9
$DIMTIH
 70
0
  9
$DIMTOH
 70
0
  9
$DIMSE1
 70
0
  9
$DIMSE2
 70
0
  9
$DIMTAD
 70
1
  9
$DIMZIN
 70
8
  9
$DIMBLK
  1

  9
$DIMASO
 70
1
  9
$DIMSHO
 70
1
  9
$DIMPOST
  1

  9
$DIMAPOST
  1

  9
$DIMALT
 70
0
  9
$DIMALTD
 70
3
  9
$DIMALTF
 40
0.03937007874
  9
$DIMLFAC
 40
1.0
  9
$DIMTOFL
 70
1
  9
$DIMTVP
 40
0.0
  9
$DIMTIX
 70
0
  9
$DIMSOXD
 70
0
  9
$DIMSAH
 70
0
  9
$DIMBLK1
  1

  9
$DIMBLK2
  1

  9
$DIMSTYLE
  2
ISO-25
  9
$DIMCLRD
 70
0
  9
$DIMCLRE
 70
0
  9
$DIMCLRT
 70
0
  9
$DIMTFAC
 40
1.0
  9
$DIMGAP
 40
0.625
  9
$DIMJUST
 70
0
  9
$DIMSD1
 70
0
  9
$DIMSD2
 70
0
  9
$DIMTOLJ
 70
0
  9
$DIMTZIN
 70
8
  9
$DIMALTZ
 70
0
  9
$DIMALTTZ
 70
0
  9
$DIMUPT
 70
0
  9
$DIMDEC
 70
2
  9
$DIMTDEC
 70
2
  9
$DIMALTU
 70
2
  9
$DIMALTTD
 70
3
  9
$DIMTXSTY
  7
Standard
  9
$DIMAUNIT
 70
0
  9
$DIMADEC
 70
0
  9
$DIMALTRND
 40
0.0
  9
$DIMAZIN
 70
0
  9
$DIMDSEP
 70
44
  9
$DIMATFIT
 70
3
  9
$DIMFRAC
 70
0
  9
$DIMLDRBLK
  1

  9
$DIMLUNIT
 70
2
  9
$DIMLWD
 70
-2
  9
$DIMLWE
 70
-2
  9
$DIMTMOVE
 70
0
  9
$DIMFXL
 40
1.0
  9
$DIMFXLON
 70
0
  9
$DIMJOGANG
 40
0.785398163397
  9
$DIMTFILL
 70
0
  9
$DIMTFILLCLR
 70
0
  9
$DIMARCSYM
 70
0
  9
$DIMLTYPE
  6

  9
$DIMLTEX1
  6

  9
$DIMLTEX2
  6

  9
$DIMTXTDIRECTION
 70
0
  9
$LUNITS
 70
2
  9
$LUPREC
 70
4
  9
$SKETCHINC
 40
1.0
  9
$FILLETRAD
 40
10.0
  9
$AUNITS
 70
0
  9
$AUPREC
 70
2
  9
$MENU
  1
.
  9
$ELEVATION
 40
0.0
  9
$PELEVATION
 40
0.0
  9
$THICKNESS
 40
0.0
  9
$LIMCHECK
 70
0
  9
$CHAMFERA
 40
0.0
  9
$CHAMFERB
 40
0.0
  9
$CHAMFERC
 40
0.0
  9
$CHAMFERD
 40
0.0
  9
$SKPOLY
 70
0
  9
$TDCREATE
 40
2461281.1242824076
  9
$TDUCREATE
 40
2458532.153996898
  9
$TDUPDATE
 40
2461281.1242824076
  9
$TDUUPDATE
 40
2458532.1544311
  9
$TDINDWG
 40
0.0
  9
$TDUSRTIMER
 40
0.0
  9
$USRTIMER
 70
1
  9
$ANGBASE
 50
0.0
  9
$ANGDIR
 70
0
  9
$PDMODE
 70
0
  9
$PDSIZE
 40
0.0
  9
$PLINEWID
 40
0.0
  9
$SPLFRAME
 70
0
  9
$SPLINETYPE
 70
6
  9
$SPLINESEGS
 70
8
  9
$HANDSEED
  5
2C1
  9
$SURFTAB1
 70
6
  9
$SURFTAB2
 70
6
  9
$SURFTYPE
 70
6
  9
$SURFU
 70
6
  9
$SURFV
 70
6
  9
$UCSBASE
  2

  9
$UCSNAME
  2

  9
$UCSORG
 10
0.0
 20
0.0
 30
0.0
  9
$UCSXDIR
 10
1.0
 20
0.0
 30
0.0
  9
$UCSYDIR
 10
0.0
 20
1.0
 30
0.0
  9
$UCSORTHOREF
  2

  9
$UCSORTHOVIEW
 70
0
  9
$UCSORGTOP
 10
0.0
 20
0.0
 30
0.0
  9
$UCSORGBOTTOM
 10
0.0
 20
0.0
 30
0.0
  9
$UCSORGLEFT
 10
0.0
 20
0.0
 30
0.0
  9
$UCSORGRIGHT
 10
0.0
 20
0.0
 30
0.0
  9
$UCSORGFRONT
 10
0.0
 20
0.0
 30
0.0
  9
$UCSORGBACK
 10
0.0
 20
0.0
 30
0.0
  9
$PUCSBASE
  2

  9
$PUCSNAME
  2

  9
$PUCSORG
 10
0.0
 20
0.0
 30
0.0
  9
$PUCSXDIR
 10
1.0
 20
0.0
 30
0.0
  9
$PUCSYDIR
 10
0.0
 20
1.0
 30
0.0
  9
$PUCSORTHOREF
  2

  9
$PUCSORTHOVIEW
 70
0
  9
$PUCSORGTOP
 10
0.0
 20
0.0
 30
0.0
  9
$PUCSORGBOTTOM
 10
0.0
 20
0.0
 30
0.0
  9
$PUCSORGLEFT
 10
0.0
 20
0.0
 30
0.0
  9
$PUCSORGRIGHT
 10
0.0
 20
0.0
 30
0.0
  9
$PUCSORGFRONT
 10
0.0
 20
0.0
 30
0.0
  9
$PUCSORGBACK
 10
0.0
 20
0.0
 30
0.0
  9
$USERI1
 70
0
  9
$USERI2
 70
0
  9
$USERI3
 70
0
  9
$USERI4
 70
0
  9
$USERI5
 70
0
  9
$USERR1
 40
0.0
  9
$USERR2
 40
0.0
  9
$USERR3
 40
0.0
  9
$USERR4
 40
0.0
  9
$USERR5
 40
0.0
  9
$WORLDVIEW
 70
1
  9
$SHADEDGE
 70
3
  9
$SHADEDIF
 70
70
  9
$TILEMODE
 70
1
  9
$MAXACTVP
 70
64
  9
$PINSBASE
 10
0.0
 20
0.0
 30
0.0
  9
$PLIMCHECK
 70
0
  9
$PEXTMIN
 10
1e+20
 20
1e+20
 30
1e+20
  9
$PEXTMAX
 10
-1e+20
 20
-1e+20
 30
-1e+20
  9
$PLIMMIN
 10
0.0
 20
0.0
  9
$PLIMMAX
 10
420.0
 20
297.0
  9
$UNITMODE
 70
0
  9
$VISRETAIN
 70
1
  9
$PLINEGEN
 70
0
  9
$PSLTSCALE
 70
1
  9
$TREEDEPTH
 70
3020
  9
$CMLSTYLE
  2
Standard
  9
$CMLJUST
 70
0
  9
$CMLSCALE
 40
20.0
  9
$PROXYGRAPHICS
 70
1
  9
$MEASUREMENT
 70
1
  9
$CELWEIGHT
370
-1
  9
$ENDCAPS
280
0
  9
$JOINSTYLE
280
0
  9
$LWDISPLAY
290
0
  9
$INSUNITS
 70
4
  9
$HYPERLINKBASE
  1

  9
$STYLESHEET
  1

  9
$XEDIT
290
1
  9
$CEPSNTYPE
380
0
  9
$PSTYLEMODE
290
1
  9
$FINGERPRINTGUID
  2
{C0DB92A3-5C5A-42E7-A908-302DEF4BEB26}
  9
$VERSIONGUID
  2
{BBFF7D36-85AC-4313-A645-8F221736F024}
  9
$EXTNAMES
290
1
  9
$PSVPSCALE
 40
0.0
  9
$OLESTARTUP
290
0
  9
$SORTENTS
280
127
  9
$INDEXCTL
280
0
  9
$HIDETEXT
280
1
  9
$XCLIPFRAME
280
1
  9
$HALOGAP
280
0
  9
$OBSCOLOR
 70
257
  9
$OBSLTYPE
280
0
  9
$INTERSECTIONDISPLAY
280
0
  9
$INTERSECTIONCOLOR
 70
257
  9
$DIMASSOC
280
2
  9
$PROJECTNAME
  1

  9
$CAMERADISPLAY
290
0
  9
$LENSLENGTH
 40
50.0
  9
$CAMERAHEIGHT
 40
0.0
  9
$STEPSPERSEC
 40
24.0
  9
$STEPSIZE
 40
100.0
  9
$3DDWFPREC
 40
2.0
  9
$PSOLWIDTH
 40
0.005
  9
$PSOLHEIGHT
 40
0.08
  9
$LOFTANG1
 40
1.570796326795
  9
$LOFTANG2
 40
1.570796326795
  9
$LOFTMAG1
 40
0.0
  9
$LOFTMAG2
 40
0.0
  9
$LOFTPARAM
 70
7
  9
$LOFTNORMALS
280
1
  9
$LATITUDE
 40
37.795
  9
$LONGITUDE
 40
-122.394
  9
$NORTHDIRECTION
 40
0.0
  9
$TIMEZONE
 70
-8000
  9
$LIGHTGLYPHDISPLAY
280
1
  9
$TILEMODELIGHTSYNCH
280
1
  9
$CMATERIAL
347
20
  9
$SOLIDHIST
280
0
  9
$SHOWHIST
280
1
  9
$DWFFRAME
280
2
  9
$DGNFRAME
280
2
  9
$REALWORLDSCALE
290
1
  9
$INTERFERECOLOR
 62
256
  9
$CSHADOW
280
0
  9
$SHADOWPLANELOCATION
 40
0.0
  0
ENDSEC
  0
SECTION
  2
CLASSES
  0
CLASS
  1
ACDBDICTIONARYWDFLT
  2
AcDbDictionaryWithDefault
  3
ObjectDBX Classes
 90
0
 91
0
280
0
281
0
  0
CLASS
  1
SUN
  2
AcDbSun
  3
SCENEOE
 90
1153
 91
0
280
0
281
0
  0
CLASS
  1
VISUALSTYLE
  2
AcDbVisualStyle
  3
ObjectDBX Classes
 90
4095
 91
0
280
0
281
0
  0
CLASS
  1
MATERIAL
  2
AcDbMaterial
  3
ObjectDBX Classes
 90
1153
 91
0
280
0
281
0
  0
CLASS
  1
SCALE
  2
AcDbScale
  3
ObjectDBX Classes
 90
1153
 91
0
280
0
281
0
  0
CLASS
  1
TABLESTYLE
  2
AcDbTableStyle
  3
ObjectDBX Classes
 90
4095
 91
0
280
0
281
0
  0
CLASS
  1
MLEADERSTYLE
  2
AcDbMLeaderStyle
  3
ACDB_MLEADERSTYLE_CLASS
 90
4095
 91
0
280
0
281
0
  0
CLASS
  1
DICTIONARYVAR
  2
AcDbDictionaryVar
  3
ObjectDBX Classes
 90
0
 91
0
280
0
281
0
  0
CLASS
  1
CELLSTYLEMAP
  2
AcDbCellStyleMap
  3
ObjectDBX Classes
 90
1152
 91
0
280
0
281
0
  0
CLASS
  1
MENTALRAYRENDERSETTINGS
  2
AcDbMentalRayRenderSettings
  3
SCENEOE
 90
1024
 91
0
280
0
281
0
  0
CLASS
  1
ACDBDETAILVIEWSTYLE
  2
AcDbDetailViewStyle
  3
ObjectDBX Classes
 90
1025
 91
0
280
0
281
0
  0
CLASS
  1
ACDBSECTIONVIEWSTYLE
  2
AcDbSectionViewStyle
  3
ObjectDBX Classes
 90
1025
 91
0
280
0
281
0
  0
CLASS
  1
RASTERVARIABLES
  2
AcDbRasterVariables
  3
ISM
 90
0
 91
0
280
0
281
0
  0
CLASS
  1
LAYOUT
  2
AcDbLayout
  3
ObjectDBX Classes
 90
0
 91
0
280
0
281
0
  0
CLASS
  1
ACDBPLACEHOLDER
  2
AcDbPlaceHolder
  3
ObjectDBX Classes
 90
0
 91
0
280
0
281
0
  0
ENDSEC
  0
SECTION
  2
TABLES
  0
TABLE
  2
VPORT
  5
8
330
0
100
AcDbSymbolTable
 70
1
  0
VPORT
  5
23
330
8
100
AcDbSymbolTableRecord
100
AcDbViewportTableRecord
  2
*Active
 70
0
 10
0.0
 20
0.0
 11
1.0
 21
1.0
 12
0.0
 22
0.0
 13
0.0
 23
0.0
 14
0.5
 24
0.5
 15
0.5
 25
0.5
 16
0.0
 26
0.0
 36
1.0
 17
0.0
 27
0.0
 37
0.0
 40
1000.0
 41
1.34
 42
50.0
 43
0.0
 44
0.0
 50
0.0
 51
0.0
 71
0
 72
1000
 73
1
 74
3
 75
0
 76
0
 77
0
 78
0
281
0
 65
0
146
0.0
  0
ENDTAB
  0
TABLE
  2
LTYPE
  5
2
330
0
100
AcDbSymbolTable
 70
5
  0
LTYPE
  5
24
330
2
100
AcDbSymbolTableRecord
100
AcDbLinetypeTableRecord
  2
ByBlock
 70
0
  3

 72
65
 73
0
 40
0.0
  0
LTYPE
  5
25
330
2
100
AcDbSymbolTableRecord
100
AcDbLinetypeTableRecord
  2
ByLayer
 70
0
  3

 72
65
 73
0
 40
0.0
  0
LTYPE
  5
26
330
2
100
AcDbSymbolTableRecord
100
AcDbLinetypeTableRecord
  2
Continuous
 70
0
  3

 72
65
 73
0
 40
0.0
  0
LTYPE
  5
2F
330
2
100
AcDbSymbolTableRecord
100
AcDbLinetypeTableRecord
  2
DASHED
 70
0
  3
Штриховая — — — —
 72
65
 73
2
 40
9.0
 49
6.0
 74
0
 49
-3.0
 74
0
  0
LTYPE
  5
30
330
2
100
AcDbSymbolTableRecord
100
AcDbLinetypeTableRecord
  2
DASHDOT
 70
0
  3
Штрихпунктирная — · — · —
 72
65
 73
4
 40
14.0
 49
8.0
 74
0
 49
-3.0
 74
0
 49
0.0
 74
0
 49
-3.0
 74
0
  0
ENDTAB
  0
TABLE
  2
LAYER
  5
1
330
0
100
AcDbSymbolTable
 70
10
  0
LAYER
  5
27
330
1
100
AcDbSymbolTableRecord
100
AcDbLayerTableRecord
  2
0
 70
0
 62
7
  6
Continuous
370
-3
390
13
347
21
  0
LAYER
  5
28
330
1
100
AcDbSymbolTableRecord
100
AcDbLayerTableRecord
  2
Defpoints
 70
0
 62
7
  6
Continuous
290
0
370
-3
390
13
347
21
  0
LAYER
  5
32
330
1
100
AcDbSymbolTableRecord
100
AcDbLayerTableRecord
  2
GAS
 70
0
 62
30
420
14712622
  6
Continuous
370
35
390
13
347
21
1001
AcAecLayerStandard
1000

1000
Газовый тракт (оранжевый)
  0
LAYER
  5
34
330
1
100
AcDbSymbolTableRecord
100
AcDbLayerTableRecord
  2
LIQUID
 70
0
 62
5
420
2783446
  6
Continuous
370
35
390
13
347
21
1001
AcAecLayerStandard
1000

1000
Жидкостные потоки: кислота, растворы, вода (синий)
  0
LAYER
  5
35
330
1
100
AcDbSymbolTableRecord
100
AcDbLayerTableRecord
  2
DUST
 70
0
 62
6
420
10702494
  6
Continuous
370
35
390
13
347
21
1001
AcAecLayerStandard
1000

1000
Пылевой тракт: циклоны, фильтры (фиолетовый)
  0
LAYER
  5
36
330
1
100
AcDbSymbolTableRecord
100
AcDbLayerTableRecord
  2
ELECTRIC
 70
0
 62
2
420
16429593
  6
Continuous
370
30
390
13
347
21
1001
AcAecLayerStandard
1000

1000
Электрика / энергоснабжение (жёлтый)
  0
LAYER
  5
37
330
1
100
AcDbSymbolTableRecord
100
AcDbLayerTableRecord
  2
INTERLOCK
 70
0
 62
1
420
13646651
  6
Continuous
370
30
390
13
347
21
1001
AcAecLayerStandard
1000

1000
Блокировки и защиты (красный)
  0
LAYER
  5
38
330
1
100
AcDbSymbolTableRecord
100
AcDbLayerTableRecord
  2
OUTLINE
 70
0
 62
7
  6
Continuous
370
25
390
13
347
21
1001
AcAecLayerStandard
1000

1000
Контуры оборудования, строительная графика (ink)
  0
LAYER
  5
39
330
1
100
AcDbSymbolTableRecord
100
AcDbLayerTableRecord
  2
TEXT_RU
 70
0
 62
7
  6
Continuous
370
25
390
13
347
21
1001
AcAecLayerStandard
1000

1000
Надписи (русские, UTF-8)
  0
LAYER
  5
3A
330
1
100
AcDbSymbolTableRecord
100
AcDbLayerTableRecord
  2
DIM
 70
0
 62
8
  6
Continuous
370
13
390
13
347
21
1001
AcAecLayerStandard
1000

1000
Размерные и вспомогательные линии, рамка, сетка
  0
ENDTAB
  0
TABLE
  2
STYLE
  5
5
330
0
100
AcDbSymbolTable
 70
2
  0
STYLE
  5
29
330
5
100
AcDbSymbolTableRecord
100
AcDbTextStyleTableRecord
  2
Standard
 70
0
 40
0.0
 41
1.0
 50
0.0
 71
0
 42
2.5
  3
txt
  4

  0
STYLE
  5
31
330
5
100
AcDbSymbolTableRecord
100
AcDbTextStyleTableRecord
  2
TXTRU
 70
0
 40
0.0
 41
1.0
 50
0.0
 71
0
 42
2.5
  3
arial.ttf
  4

  0
ENDTAB
  0
TABLE
  2
VIEW
  5
7
330
0
100
AcDbSymbolTable
 70
0
  0
ENDTAB
  0
TABLE
  2
UCS
  5
6
330
0
100
AcDbSymbolTable
 70
0
  0
ENDTAB
  0
TABLE
  2
APPID
  5
3
330
0
100
AcDbSymbolTable
 70
4
  0
APPID
  5
2A
330
3
100
AcDbSymbolTableRecord
100
AcDbRegAppTableRecord
  2
ACAD
 70
0
  0
APPID
  5
33
330
3
100
AcDbSymbolTableRecord
100
AcDbRegAppTableRecord
  2
AcAecLayerStandard
 70
0
  0
APPID
  5
2BE
330
3
100
AcDbSymbolTableRecord
100
AcDbRegAppTableRecord
  2
HATCHBACKGROUNDCOLOR
 70
0
  0
APPID
  5
2BF
330
3
100
AcDbSymbolTableRecord
100
AcDbRegAppTableRecord
  2
EZDXF
 70
0
  0
ENDTAB
  0
TABLE
  2
DIMSTYLE
  5
4
330
0
100
AcDbSymbolTable
 70
1
100
AcDbDimStyleTable
  0
DIMSTYLE
105
2B
330
4
100
AcDbSymbolTableRecord
100
AcDbDimStyleTableRecord
  2
Standard
 70
0
 40
1.0
 41
2.5
 42
0.625
 43
3.75
 44
1.25
 45
0.0
 46
0.0
 47
0.0
 48
0.0
 49
2.5
140
2.5
141
2.5
142
0.0
143
0.03937007874
144
1.0
145
0.0
146
1.0
147
0.625
148
0.0
 69
0
 70
0
 71
0
 72
0
 73
0
 74
0
 75
0
 76
0
 77
1
 78
8
 79
3
170
0
171
3
172
1
173
0
174
0
175
0
176
0
177
0
178
0
179
2
271
2
272
2
273
2
274
3
275
0
276
0
277
2
278
44
279
0
280
0
281
0
282
0
283
0
284
8
285
0
286
0
288
0
289
3
290
0
371
-2
372
-2
  0
ENDTAB
  0
TABLE
  2
BLOCK_RECORD
  5
9
330
0
100
AcDbSymbolTable
 70
2
  0
BLOCK_RECORD
  5
17
330
9
100
AcDbSymbolTableRecord
100
AcDbBlockTableRecord
  2
*Model_Space
340
1A
 70
0
280
1
281
0
  0
BLOCK_RECORD
  5
1B
330
9
100
AcDbSymbolTableRecord
100
AcDbBlockTableRecord
  2
*Paper_Space
340
1E
 70
0
280
1
281
0
  0
ENDTAB
  0
ENDSEC
  0
SECTION
  2
BLOCKS
  0
BLOCK
  5
18
330
17
100
AcDbEntity
  8
0
100
AcDbBlockBegin
  2
*Model_Space
 70
0
 10
0.0
 20
0.0
 30
0.0
  3
*Model_Space
  1

  0
ENDBLK
  5
19
330
17
100
AcDbEntity
  8
0
100
AcDbBlockEnd
  0
BLOCK
  5
1C
330
1B
100
AcDbEntity
  8
0
100
AcDbBlockBegin
  2
*Paper_Space
 70
0
 10
0.0
 20
0.0
 30
0.0
  3
*Paper_Space
  1

  0
ENDBLK
  5
1D
330
1B
100
AcDbEntity
  8
0
100
AcDbBlockEnd
  0
ENDSEC
  0
SECTION
  2
ENTITIES
  0
LWPOLYLINE
  5
3B
330
17
100
AcDbEntity
  8
DIM
420
15198183
100
AcDbPolyline
 90
4
 70
1
 10
6.0
 20
634.0
 10
1184.0
 20
634.0
 10
1184.0
 20
6.0
 10
6.0
 20
6.0
  0
TEXT
  5
3C
330
17
100
AcDbEntity
  8
TEXT_RU
100
AcDbText
 10
20.0
 20
18.0
 30
0.0
 40
7.0
  1
ЭСКИЗ — не для строительства · Лот №4: план склада готовой продукции (пролёт 24 м, сценарий А) · источники: bi_lot4.json («Компоновка», «Ёмкость», «Полы», техпроцесс) · КВАНТ, черновик БИ
  7
TXTRU
 11
20.0
 21
18.0
 31
0.0
100
AcDbText
  0
TEXT
  5
3D
330
17
100
AcDbEntity
  8
TEXT_RU
100
AcDbText
 10
1174.0
 20
610.0
 30
0.0
 40
8.4
  1
ПЛАН · ЛОТ №4 — СКЛАД ГОТОВОЙ ПРОДУКЦИИ
  7
TXTRU
 72
2
 11
1174.0
 21
610.0
 31
0.0
100
AcDbText
  0
TEXT
  5
3E
330
17
100
AcDbEntity
  8
TEXT_RU
100
AcDbText
 10
1174.0
 20
596.0
 30
0.0
 40
5.95
  1
эскиз компоновки · приёмка → адресное хранение → фронты отгрузки
  7
TXTRU
 72
2
 11
1174.0
 21
596.0
 31
0.0
100
AcDbText
  0
TEXT
  5
3F
330
17
100
AcDbEntity
  8
TEXT_RU
100
AcDbText
 10
20.0
 20
608.0
 30
0.0
 40
5.95
  1
75 000 т/год · приёмка 209,5 т/сут = 84 пакета/сут (по 2,5 т) · пик 7 пак./ч · буфер 1200 пакетов = 3000 т ≈ 14,3 сут · площадь СГП ≈2500–3000 м²
  7
TXTRU
 11
20.0
 21
608.0
 31
0.0
100
AcDbText
  0
TEXT
  5
40
330
17
100
AcDbEntity
  8
TEXT_RU
100
AcDbText
 10
145.2
 20
548.0
 30
0.0
 40
6.65
  1
ПРИЁМКА · УПАКОВКА
  7
TXTRU
 72
1
 11
145.2
 21
548.0
 31
0.0
100
AcDbText
  0
TEXT
  5
41
330
17
100
AcDbEntity
  8
TEXT_RU
100
AcDbText
 10
145.2
 20
534.0
 30
0.0
 40
5.6
  1
≈200–250 м² · ≈100–150 м²
  7
TXTRU
 72
1
 11
145.2
 21
534.0
 31
0.0
100
AcDbText
  0
TEXT
  5
42
330
17
100
AcDbEntity
  8
TEXT_RU
420
2783446
100
AcDbText
 10
465.0
 20
548.0
 30
0.0
 40
7.35
  1
ЗОНА АДРЕСНОГО ХРАНЕНИЯ — БУФЕР 1200 ПАКЕТОВ (3000 т ≈ 14,3 сут)
  7
TXTRU
 72
1
 11
465.0
 21
548.0
 31
0.0
100
AcDbText
  0
TEXT
  5
43
330
17
100
AcDbEntity
  8
TEXT_RU
100
AcDbText
 10
465.0
 20
534.0
 30
0.0
 40
5.6
  1
длина ≈70–90 м · 600 позиций 1,1×1,1 м × 2 яруса · пятно 726 м² · зона ≈1600 м²
  7
TXTRU
 72
1
 11
465.0
 21
534.0
 31
0.0
100
AcDbText
  0
TEXT
  5
44
330
17
100
AcDbEntity
  8
TEXT_RU
420
828172
100
AcDbText
 10
892.4
 20
548.0
 30
0.0
 40
7.35
  1
ФРОНТЫ ОТГРУЗКИ — Ж/Д И АВТО
  7
TXTRU
 72
1
 11
892.4
 21
548.0
 31
0.0
100
AcDbText
  0
TEXT
  5
45
330
17
100
AcDbEntity
  8
TEXT_RU
100
AcDbText
 10
892.4
 20
534.0
 30
0.0
 40
5.6
  1
ж/д 4–6 вагонов (60–90 м): полувагоны — краном (вариант), крытые — штабелёрами · авто — 2 поста
  7
TXTRU
 72
1
 11
892.4
 21
534.0
 31
0.0
100
AcDbText
  0
HATCH
  5
46
330
17
100
AcDbEntity
  8
LIQUID
 62
7
420
13952247
100
AcDbHatch
 10
0.0
 20
0.0
 30
0.0
210
0.0
220
0.0
230
1.0
  2
SOLID
 70
1
 71
0
 91
1
 92
3
 72
0
 73
1
 93
4
 10
234.4
 20
497.2
 10
660.6
 20
497.2
 10
660.6
 20
483.7
 10
234.4
 20
483.7
 97
0
 75
0
 76
1
 98
0
  0
LWPOLYLINE
  5
47
330
17
100
AcDbEntity
  8
LIQUID
100
AcDbPolyline
 90
4
 70
1
 10
234.4
 20
497.2
 10
660.6
 20
497.2
 10
660.6
 20
483.7
 10
234.4
 20
483.7
  0
LINE
  5
48
330
17
100
AcDbEntity
  8
LIQUID
420
6988002
100
AcDbLine
 10
234.4
 20
490.5
 30
0.0
 11
660.6
 21
490.5
 31
0.0
  0
LINE
  5
49
330
17
100
AcDbEntity
  8
LIQUID
420
9090536
100
AcDbLine
 10
241.1
 20
497.2
 30
0.0
 11
241.1
 21
483.7
 31
0.0
  0
LINE
  5
4A
330
17
100
AcDbEntity
  8
LIQUID
420
9090536
100
AcDbLine
 10
247.87
 20
497.2
 30
0.0
 11
247.87
 21
483.7
 31
0.0
  0
LINE
  5
4B
330
17
100
AcDbEntity
  8
LIQUID
420
9090536
100
AcDbLine
 10
254.64000000000001
 20
497.2
 30
0.0
 11
254.64000000000001
 21
483.7
 31
0.0
  0
LINE
  5
4C
330
17
100
AcDbEntity
  8
LIQUID
420
9090536
100
AcDbLine
 10
261.41
 20
497.2
 30
0.0
 11
261.41
 21
483.7
 31
0.0
  0
LINE
  5
4D
330
17
100
AcDbEntity
  8
LIQUID
420
9090536
100
AcDbLine
 10
268.18
 20
497.2
 30
0.0
 11
268.18
 21
483.7
 31
0.0
  0
LINE
  5
4E
330
17
100
AcDbEntity
  8
LIQUID
420
9090536
100
AcDbLine
 10
274.95
 20
497.2
 30
0.0
 11
274.95
 21
483.7
 31
0.0
  0
LINE
  5
4F
330
17
100
AcDbEntity
  8
LIQUID
420
9090536
100
AcDbLine
 10
281.71999999999997
 20
497.2
 30
0.0
 11
281.71999999999997
 21
483.7
 31
0.0
  0
LINE
  5
50
330
17
100
AcDbEntity
  8
LIQUID
420
9090536
100
AcDbLine
 10
288.48999999999995
 20
497.2
 30
0.0
 11
288.48999999999995
 21
483.7
 31
0.0
  0
LINE
  5
51
330
17
100
AcDbEntity
  8
LIQUID
420
9090536
100
AcDbLine
 10
295.25999999999993
 20
497.2
 30
0.0
 11
295.25999999999993
 21
483.7
 31
0.0
  0
LINE
  5
52
330
17
100
AcDbEntity
  8
LIQUID
420
9090536
100
AcDbLine
 10
302.0299999999999
 20
497.2
 30
0.0
 11
302.0299999999999
 21
483.7
 31
0.0
  0
LINE
  5
53
330
17
100
AcDbEntity
  8
LIQUID
420
9090536
100
AcDbLine
 10
308.7999999999999
 20
497.2
 30
0.0
 11
308.7999999999999
 21
483.7
 31
0.0
  0
LINE
  5
54
330
17
100
AcDbEntity
  8
LIQUID
420
9090536
100
AcDbLine
 10
315.5699999999999
 20
497.2
 30
0.0
 11
315.5699999999999
 21
483.7
 31
0.0
  0
LINE
  5
55
330
17
100
AcDbEntity
  8
LIQUID
420
9090536
100
AcDbLine
 10
322.33999999999986
 20
497.2
 30
0.0
 11
322.33999999999986
 21
483.7
 31
0.0
  0
LINE
  5
56
330
17
100
AcDbEntity
  8
LIQUID
420
9090536
100
AcDbLine
 10
329.10999999999984
 20
497.2
 30
0.0
 11
329.10999999999984
 21
483.7
 31
0.0
  0
LINE
  5
57
330
17
100
AcDbEntity
  8
LIQUID
420
9090536
100
AcDbLine
 10
335.8799999999998
 20
497.2
 30
0.0
 11
335.8799999999998
 21
483.7
 31
0.0
  0
LINE
  5
58
330
17
100
AcDbEntity
  8
LIQUID
420
9090536
100
AcDbLine
 10
342.6499999999998
 20
497.2
 30
0.0
 11
342.6499999999998
 21
483.7
 31
0.0
  0
LINE
  5
59
330
17
100
AcDbEntity
  8
LIQUID
420
9090536
100
AcDbLine
 10
349.4199999999998
 20
497.2
 30
0.0
 11
349.4199999999998
 21
483.7
 31
0.0
  0
LINE
  5
5A
330
17
100
AcDbEntity
  8
LIQUID
420
9090536
100
AcDbLine
 10
356.18999999999977
 20
497.2
 30
0.0
 11
356.18999999999977
 21
483.7
 31
0.0
  0
LINE
  5
5B
330
17
100
AcDbEntity
  8
LIQUID
420
9090536
100
AcDbLine
 10
362.95999999999975
 20
497.2
 30
0.0
 11
362.95999999999975
 21
483.7
 31
0.0
  0
LINE
  5
5C
330
17
100
AcDbEntity
  8
LIQUID
420
9090536
100
AcDbLine
 10
369.72999999999973
 20
497.2
 30
0.0
 11
369.72999999999973
 21
483.7
 31
0.0
  0
LINE
  5
5D
330
17
100
AcDbEntity
  8
LIQUID
420
9090536
100
AcDbLine
 10
376.4999999999997
 20
497.2
 30
0.0
 11
376.4999999999997
 21
483.7
 31
0.0
  0
LINE
  5
5E
330
17
100
AcDbEntity
  8
LIQUID
420
9090536
100
AcDbLine
 10
383.2699999999997
 20
497.2
 30
0.0
 11
383.2699999999997
 21
483.7
 31
0.0
  0
LINE
  5
5F
330
17
100
AcDbEntity
  8
LIQUID
420
9090536
100
AcDbLine
 10
390.0399999999997
 20
497.2
 30
0.0
 11
390.0399999999997
 21
483.7
 31
0.0
  0
LINE
  5
60
330
17
100
AcDbEntity
  8
LIQUID
420
9090536
100
AcDbLine
 10
396.80999999999966
 20
497.2
 30
0.0
 11
396.80999999999966
 21
483.7
 31
0.0
  0
LINE
  5
61
330
17
100
AcDbEntity
  8
LIQUID
420
9090536
100
AcDbLine
 10
403.57999999999964
 20
497.2
 30
0.0
 11
403.57999999999964
 21
483.7
 31
0.0
  0
LINE
  5
62
330
17
100
AcDbEntity
  8
LIQUID
420
9090536
100
AcDbLine
 10
410.3499999999996
 20
497.2
 30
0.0
 11
410.3499999999996
 21
483.7
 31
0.0
  0
LINE
  5
63
330
17
100
AcDbEntity
  8
LIQUID
420
9090536
100
AcDbLine
 10
417.1199999999996
 20
497.2
 30
0.0
 11
417.1199999999996
 21
483.7
 31
0.0
  0
LINE
  5
64
330
17
100
AcDbEntity
  8
LIQUID
420
9090536
100
AcDbLine
 10
423.8899999999996
 20
497.2
 30
0.0
 11
423.8899999999996
 21
483.7
 31
0.0
  0
LINE
  5
65
330
17
100
AcDbEntity
  8
LIQUID
420
9090536
100
AcDbLine
 10
430.65999999999957
 20
497.2
 30
0.0
 11
430.65999999999957
 21
483.7
 31
0.0
  0
LINE
  5
66
330
17
100
AcDbEntity
  8
LIQUID
420
9090536
100
AcDbLine
 10
437.42999999999955
 20
497.2
 30
0.0
 11
437.42999999999955
 21
483.7
 31
0.0
  0
LINE
  5
67
330
17
100
AcDbEntity
  8
LIQUID
420
9090536
100
AcDbLine
 10
444.19999999999953
 20
497.2
 30
0.0
 11
444.19999999999953
 21
483.7
 31
0.0
  0
LINE
  5
68
330
17
100
AcDbEntity
  8
LIQUID
420
9090536
100
AcDbLine
 10
450.9699999999995
 20
497.2
 30
0.0
 11
450.9699999999995
 21
483.7
 31
0.0
  0
LINE
  5
69
330
17
100
AcDbEntity
  8
LIQUID
420
9090536
100
AcDbLine
 10
457.7399999999995
 20
497.2
 30
0.0
 11
457.7399999999995
 21
483.7
 31
0.0
  0
LINE
  5
6A
330
17
100
AcDbEntity
  8
LIQUID
420
9090536
100
AcDbLine
 10
464.5099999999995
 20
497.2
 30
0.0
 11
464.5099999999995
 21
483.7
 31
0.0
  0
LINE
  5
6B
330
17
100
AcDbEntity
  8
LIQUID
420
9090536
100
AcDbLine
 10
471.27999999999946
 20
497.2
 30
0.0
 11
471.27999999999946
 21
483.7
 31
0.0
  0
LINE
  5
6C
330
17
100
AcDbEntity
  8
LIQUID
420
9090536
100
AcDbLine
 10
478.04999999999944
 20
497.2
 30
0.0
 11
478.04999999999944
 21
483.7
 31
0.0
  0
LINE
  5
6D
330
17
100
AcDbEntity
  8
LIQUID
420
9090536
100
AcDbLine
 10
484.8199999999994
 20
497.2
 30
0.0
 11
484.8199999999994
 21
483.7
 31
0.0
  0
LINE
  5
6E
330
17
100
AcDbEntity
  8
LIQUID
420
9090536
100
AcDbLine
 10
491.5899999999994
 20
497.2
 30
0.0
 11
491.5899999999994
 21
483.7
 31
0.0
  0
LINE
  5
6F
330
17
100
AcDbEntity
  8
LIQUID
420
9090536
100
AcDbLine
 10
498.3599999999994
 20
497.2
 30
0.0
 11
498.3599999999994
 21
483.7
 31
0.0
  0
LINE
  5
70
330
17
100
AcDbEntity
  8
LIQUID
420
9090536
100
AcDbLine
 10
505.12999999999937
 20
497.2
 30
0.0
 11
505.12999999999937
 21
483.7
 31
0.0
  0
LINE
  5
71
330
17
100
AcDbEntity
  8
LIQUID
420
9090536
100
AcDbLine
 10
511.89999999999935
 20
497.2
 30
0.0
 11
511.89999999999935
 21
483.7
 31
0.0
  0
LINE
  5
72
330
17
100
AcDbEntity
  8
LIQUID
420
9090536
100
AcDbLine
 10
518.6699999999994
 20
497.2
 30
0.0
 11
518.6699999999994
 21
483.7
 31
0.0
  0
LINE
  5
73
330
17
100
AcDbEntity
  8
LIQUID
420
9090536
100
AcDbLine
 10
525.4399999999994
 20
497.2
 30
0.0
 11
525.4399999999994
 21
483.7
 31
0.0
  0
LINE
  5
74
330
17
100
AcDbEntity
  8
LIQUID
420
9090536
100
AcDbLine
 10
532.2099999999994
 20
497.2
 30
0.0
 11
532.2099999999994
 21
483.7
 31
0.0
  0
LINE
  5
75
330
17
100
AcDbEntity
  8
LIQUID
420
9090536
100
AcDbLine
 10
538.9799999999993
 20
497.2
 30
0.0
 11
538.9799999999993
 21
483.7
 31
0.0
  0
LINE
  5
76
330
17
100
AcDbEntity
  8
LIQUID
420
9090536
100
AcDbLine
 10
545.7499999999993
 20
497.2
 30
0.0
 11
545.7499999999993
 21
483.7
 31
0.0
  0
LINE
  5
77
330
17
100
AcDbEntity
  8
LIQUID
420
9090536
100
AcDbLine
 10
552.5199999999993
 20
497.2
 30
0.0
 11
552.5199999999993
 21
483.7
 31
0.0
  0
LINE
  5
78
330
17
100
AcDbEntity
  8
LIQUID
420
9090536
100
AcDbLine
 10
559.2899999999993
 20
497.2
 30
0.0
 11
559.2899999999993
 21
483.7
 31
0.0
  0
LINE
  5
79
330
17
100
AcDbEntity
  8
LIQUID
420
9090536
100
AcDbLine
 10
566.0599999999993
 20
497.2
 30
0.0
 11
566.0599999999993
 21
483.7
 31
0.0
  0
LINE
  5
7A
330
17
100
AcDbEntity
  8
LIQUID
420
9090536
100
AcDbLine
 10
572.8299999999992
 20
497.2
 30
0.0
 11
572.8299999999992
 21
483.7
 31
0.0
  0
LINE
  5
7B
330
17
100
AcDbEntity
  8
LIQUID
420
9090536
100
AcDbLine
 10
579.5999999999992
 20
497.2
 30
0.0
 11
579.5999999999992
 21
483.7
 31
0.0
  0
LINE
  5
7C
330
17
100
AcDbEntity
  8
LIQUID
420
9090536
100
AcDbLine
 10
586.3699999999992
 20
497.2
 30
0.0
 11
586.3699999999992
 21
483.7
 31
0.0
  0
LINE
  5
7D
330
17
100
AcDbEntity
  8
LIQUID
420
9090536
100
AcDbLine
 10
593.1399999999992
 20
497.2
 30
0.0
 11
593.1399999999992
 21
483.7
 31
0.0
  0
LINE
  5
7E
330
17
100
AcDbEntity
  8
LIQUID
420
9090536
100
AcDbLine
 10
599.9099999999992
 20
497.2
 30
0.0
 11
599.9099999999992
 21
483.7
 31
0.0
  0
LINE
  5
7F
330
17
100
AcDbEntity
  8
LIQUID
420
9090536
100
AcDbLine
 10
606.6799999999992
 20
497.2
 30
0.0
 11
606.6799999999992
 21
483.7
 31
0.0
  0
LINE
  5
80
330
17
100
AcDbEntity
  8
LIQUID
420
9090536
100
AcDbLine
 10
613.4499999999991
 20
497.2
 30
0.0
 11
613.4499999999991
 21
483.7
 31
0.0
  0
LINE
  5
81
330
17
100
AcDbEntity
  8
LIQUID
420
9090536
100
AcDbLine
 10
620.2199999999991
 20
497.2
 30
0.0
 11
620.2199999999991
 21
483.7
 31
0.0
  0
LINE
  5
82
330
17
100
AcDbEntity
  8
LIQUID
420
9090536
100
AcDbLine
 10
626.9899999999991
 20
497.2
 30
0.0
 11
626.9899999999991
 21
483.7
 31
0.0
  0
LINE
  5
83
330
17
100
AcDbEntity
  8
LIQUID
420
9090536
100
AcDbLine
 10
633.7599999999991
 20
497.2
 30
0.0
 11
633.7599999999991
 21
483.7
 31
0.0
  0
LINE
  5
84
330
17
100
AcDbEntity
  8
LIQUID
420
9090536
100
AcDbLine
 10
640.5299999999991
 20
497.2
 30
0.0
 11
640.5299999999991
 21
483.7
 31
0.0
  0
LINE
  5
85
330
17
100
AcDbEntity
  8
LIQUID
420
9090536
100
AcDbLine
 10
647.299999999999
 20
497.2
 30
0.0
 11
647.299999999999
 21
483.7
 31
0.0
  0
LINE
  5
86
330
17
100
AcDbEntity
  8
LIQUID
420
9090536
100
AcDbLine
 10
654.069999999999
 20
497.2
 30
0.0
 11
654.069999999999
 21
483.7
 31
0.0
  0
HATCH
  5
87
330
17
100
AcDbEntity
  8
LIQUID
 62
7
420
13952247
100
AcDbHatch
 10
0.0
 20
0.0
 30
0.0
210
0.0
220
0.0
230
1.0
  2
SOLID
 70
1
 71
0
 91
1
 92
3
 72
0
 73
1
 93
4
 10
234.4
 20
478.5
 10
660.6
 20
478.5
 10
660.6
 20
465.0
 10
234.4
 20
465.0
 97
0
 75
0
 76
1
 98
0
  0
LWPOLYLINE
  5
88
330
17
100
AcDbEntity
  8
LIQUID
100
AcDbPolyline
 90
4
 70
1
 10
234.4
 20
478.5
 10
660.6
 20
478.5
 10
660.6
 20
465.0
 10
234.4
 20
465.0
  0
LINE
  5
89
330
17
100
AcDbEntity
  8
LIQUID
420
6988002
100
AcDbLine
 10
234.4
 20
471.7
 30
0.0
 11
660.6
 21
471.7
 31
0.0
  0
LINE
  5
8A
330
17
100
AcDbEntity
  8
LIQUID
420
9090536
100
AcDbLine
 10
241.1
 20
478.5
 30
0.0
 11
241.1
 21
465.0
 31
0.0
  0
LINE
  5
8B
330
17
100
AcDbEntity
  8
LIQUID
420
9090536
100
AcDbLine
 10
247.87
 20
478.5
 30
0.0
 11
247.87
 21
465.0
 31
0.0
  0
LINE
  5
8C
330
17
100
AcDbEntity
  8
LIQUID
420
9090536
100
AcDbLine
 10
254.64000000000001
 20
478.5
 30
0.0
 11
254.64000000000001
 21
465.0
 31
0.0
  0
LINE
  5
8D
330
17
100
AcDbEntity
  8
LIQUID
420
9090536
100
AcDbLine
 10
261.41
 20
478.5
 30
0.0
 11
261.41
 21
465.0
 31
0.0
  0
LINE
  5
8E
330
17
100
AcDbEntity
  8
LIQUID
420
9090536
100
AcDbLine
 10
268.18
 20
478.5
 30
0.0
 11
268.18
 21
465.0
 31
0.0
  0
LINE
  5
8F
330
17
100
AcDbEntity
  8
LIQUID
420
9090536
100
AcDbLine
 10
274.95
 20
478.5
 30
0.0
 11
274.95
 21
465.0
 31
0.0
  0
LINE
  5
90
330
17
100
AcDbEntity
  8
LIQUID
420
9090536
100
AcDbLine
 10
281.71999999999997
 20
478.5
 30
0.0
 11
281.71999999999997
 21
465.0
 31
0.0
  0
LINE
  5
91
330
17
100
AcDbEntity
  8
LIQUID
420
9090536
100
AcDbLine
 10
288.48999999999995
 20
478.5
 30
0.0
 11
288.48999999999995
 21
465.0
 31
0.0
  0
LINE
  5
92
330
17
100
AcDbEntity
  8
LIQUID
420
9090536
100
AcDbLine
 10
295.25999999999993
 20
478.5
 30
0.0
 11
295.25999999999993
 21
465.0
 31
0.0
  0
LINE
  5
93
330
17
100
AcDbEntity
  8
LIQUID
420
9090536
100
AcDbLine
 10
302.0299999999999
 20
478.5
 30
0.0
 11
302.0299999999999
 21
465.0
 31
0.0
  0
LINE
  5
94
330
17
100
AcDbEntity
  8
LIQUID
420
9090536
100
AcDbLine
 10
308.7999999999999
 20
478.5
 30
0.0
 11
308.7999999999999
 21
465.0
 31
0.0
  0
LINE
  5
95
330
17
100
AcDbEntity
  8
LIQUID
420
9090536
100
AcDbLine
 10
315.5699999999999
 20
478.5
 30
0.0
 11
315.5699999999999
 21
465.0
 31
0.0
  0
LINE
  5
96
330
17
100
AcDbEntity
  8
LIQUID
420
9090536
100
AcDbLine
 10
322.33999999999986
 20
478.5
 30
0.0
 11
322.33999999999986
 21
465.0
 31
0.0
  0
LINE
  5
97
330
17
100
AcDbEntity
  8
LIQUID
420
9090536
100
AcDbLine
 10
329.10999999999984
 20
478.5
 30
0.0
 11
329.10999999999984
 21
465.0
 31
0.0
  0
LINE
  5
98
330
17
100
AcDbEntity
  8
LIQUID
420
9090536
100
AcDbLine
 10
335.8799999999998
 20
478.5
 30
0.0
 11
335.8799999999998
 21
465.0
 31
0.0
  0
LINE
  5
99
330
17
100
AcDbEntity
  8
LIQUID
420
9090536
100
AcDbLine
 10
342.6499999999998
 20
478.5
 30
0.0
 11
342.6499999999998
 21
465.0
 31
0.0
  0
LINE
  5
9A
330
17
100
AcDbEntity
  8
LIQUID
420
9090536
100
AcDbLine
 10
349.4199999999998
 20
478.5
 30
0.0
 11
349.4199999999998
 21
465.0
 31
0.0
  0
LINE
  5
9B
330
17
100
AcDbEntity
  8
LIQUID
420
9090536
100
AcDbLine
 10
356.18999999999977
 20
478.5
 30
0.0
 11
356.18999999999977
 21
465.0
 31
0.0
  0
LINE
  5
9C
330
17
100
AcDbEntity
  8
LIQUID
420
9090536
100
AcDbLine
 10
362.95999999999975
 20
478.5
 30
0.0
 11
362.95999999999975
 21
465.0
 31
0.0
  0
LINE
  5
9D
330
17
100
AcDbEntity
  8
LIQUID
420
9090536
100
AcDbLine
 10
369.72999999999973
 20
478.5
 30
0.0
 11
369.72999999999973
 21
465.0
 31
0.0
  0
LINE
  5
9E
330
17
100
AcDbEntity
  8
LIQUID
420
9090536
100
AcDbLine
 10
376.4999999999997
 20
478.5
 30
0.0
 11
376.4999999999997
 21
465.0
 31
0.0
  0
LINE
  5
9F
330
17
100
AcDbEntity
  8
LIQUID
420
9090536
100
AcDbLine
 10
383.2699999999997
 20
478.5
 30
0.0
 11
383.2699999999997
 21
465.0
 31
0.0
  0
LINE
  5
A0
330
17
100
AcDbEntity
  8
LIQUID
420
9090536
100
AcDbLine
 10
390.0399999999997
 20
478.5
 30
0.0
 11
390.0399999999997
 21
465.0
 31
0.0
  0
LINE
  5
A1
330
17
100
AcDbEntity
  8
LIQUID
420
9090536
100
AcDbLine
 10
396.80999999999966
 20
478.5
 30
0.0
 11
396.80999999999966
 21
465.0
 31
0.0
  0
LINE
  5
A2
330
17
100
AcDbEntity
  8
LIQUID
420
9090536
100
AcDbLine
 10
403.57999999999964
 20
478.5
 30
0.0
 11
403.57999999999964
 21
465.0
 31
0.0
  0
LINE
  5
A3
330
17
100
AcDbEntity
  8
LIQUID
420
9090536
100
AcDbLine
 10
410.3499999999996
 20
478.5
 30
0.0
 11
410.3499999999996
 21
465.0
 31
0.0
  0
LINE
  5
A4
330
17
100
AcDbEntity
  8
LIQUID
420
9090536
100
AcDbLine
 10
417.1199999999996
 20
478.5
 30
0.0
 11
417.1199999999996
 21
465.0
 31
0.0
  0
LINE
  5
A5
330
17
100
AcDbEntity
  8
LIQUID
420
9090536
100
AcDbLine
 10
423.8899999999996
 20
478.5
 30
0.0
 11
423.8899999999996
 21
465.0
 31
0.0
  0
LINE
  5
A6
330
17
100
AcDbEntity
  8
LIQUID
420
9090536
100
AcDbLine
 10
430.65999999999957
 20
478.5
 30
0.0
 11
430.65999999999957
 21
465.0
 31
0.0
  0
LINE
  5
A7
330
17
100
AcDbEntity
  8
LIQUID
420
9090536
100
AcDbLine
 10
437.42999999999955
 20
478.5
 30
0.0
 11
437.42999999999955
 21
465.0
 31
0.0
  0
LINE
  5
A8
330
17
100
AcDbEntity
  8
LIQUID
420
9090536
100
AcDbLine
 10
444.19999999999953
 20
478.5
 30
0.0
 11
444.19999999999953
 21
465.0
 31
0.0
  0
LINE
  5
A9
330
17
100
AcDbEntity
  8
LIQUID
420
9090536
100
AcDbLine
 10
450.9699999999995
 20
478.5
 30
0.0
 11
450.9699999999995
 21
465.0
 31
0.0
  0
LINE
  5
AA
330
17
100
AcDbEntity
  8
LIQUID
420
9090536
100
AcDbLine
 10
457.7399999999995
 20
478.5
 30
0.0
 11
457.7399999999995
 21
465.0
 31
0.0
  0
LINE
  5
AB
330
17
100
AcDbEntity
  8
LIQUID
420
9090536
100
AcDbLine
 10
464.5099999999995
 20
478.5
 30
0.0
 11
464.5099999999995
 21
465.0
 31
0.0
  0
LINE
  5
AC
330
17
100
AcDbEntity
  8
LIQUID
420
9090536
100
AcDbLine
 10
471.27999999999946
 20
478.5
 30
0.0
 11
471.27999999999946
 21
465.0
 31
0.0
  0
LINE
  5
AD
330
17
100
AcDbEntity
  8
LIQUID
420
9090536
100
AcDbLine
 10
478.04999999999944
 20
478.5
 30
0.0
 11
478.04999999999944
 21
465.0
 31
0.0
  0
LINE
  5
AE
330
17
100
AcDbEntity
  8
LIQUID
420
9090536
100
AcDbLine
 10
484.8199999999994
 20
478.5
 30
0.0
 11
484.8199999999994
 21
465.0
 31
0.0
  0
LINE
  5
AF
330
17
100
AcDbEntity
  8
LIQUID
420
9090536
100
AcDbLine
 10
491.5899999999994
 20
478.5
 30
0.0
 11
491.5899999999994
 21
465.0
 31
0.0
  0
LINE
  5
B0
330
17
100
AcDbEntity
  8
LIQUID
420
9090536
100
AcDbLine
 10
498.3599999999994
 20
478.5
 30
0.0
 11
498.3599999999994
 21
465.0
 31
0.0
  0
LINE
  5
B1
330
17
100
AcDbEntity
  8
LIQUID
420
9090536
100
AcDbLine
 10
505.12999999999937
 20
478.5
 30
0.0
 11
505.12999999999937
 21
465.0
 31
0.0
  0
LINE
  5
B2
330
17
100
AcDbEntity
  8
LIQUID
420
9090536
100
AcDbLine
 10
511.89999999999935
 20
478.5
 30
0.0
 11
511.89999999999935
 21
465.0
 31
0.0
  0
LINE
  5
B3
330
17
100
AcDbEntity
  8
LIQUID
420
9090536
100
AcDbLine
 10
518.6699999999994
 20
478.5
 30
0.0
 11
518.6699999999994
 21
465.0
 31
0.0
  0
LINE
  5
B4
330
17
100
AcDbEntity
  8
LIQUID
420
9090536
100
AcDbLine
 10
525.4399999999994
 20
478.5
 30
0.0
 11
525.4399999999994
 21
465.0
 31
0.0
  0
LINE
  5
B5
330
17
100
AcDbEntity
  8
LIQUID
420
9090536
100
AcDbLine
 10
532.2099999999994
 20
478.5
 30
0.0
 11
532.2099999999994
 21
465.0
 31
0.0
  0
LINE
  5
B6
330
17
100
AcDbEntity
  8
LIQUID
420
9090536
100
AcDbLine
 10
538.9799999999993
 20
478.5
 30
0.0
 11
538.9799999999993
 21
465.0
 31
0.0
  0
LINE
  5
B7
330
17
100
AcDbEntity
  8
LIQUID
420
9090536
100
AcDbLine
 10
545.7499999999993
 20
478.5
 30
0.0
 11
545.7499999999993
 21
465.0
 31
0.0
  0
LINE
  5
B8
330
17
100
AcDbEntity
  8
LIQUID
420
9090536
100
AcDbLine
 10
552.5199999999993
 20
478.5
 30
0.0
 11
552.5199999999993
 21
465.0
 31
0.0
  0
LINE
  5
B9
330
17
100
AcDbEntity
  8
LIQUID
420
9090536
100
AcDbLine
 10
559.2899999999993
 20
478.5
 30
0.0
 11
559.2899999999993
 21
465.0
 31
0.0
  0
LINE
  5
BA
330
17
100
AcDbEntity
  8
LIQUID
420
9090536
100
AcDbLine
 10
566.0599999999993
 20
478.5
 30
0.0
 11
566.0599999999993
 21
465.0
 31
0.0
  0
LINE
  5
BB
330
17
100
AcDbEntity
  8
LIQUID
420
9090536
100
AcDbLine
 10
572.8299999999992
 20
478.5
 30
0.0
 11
572.8299999999992
 21
465.0
 31
0.0
  0
LINE
  5
BC
330
17
100
AcDbEntity
  8
LIQUID
420
9090536
100
AcDbLine
 10
579.5999999999992
 20
478.5
 30
0.0
 11
579.5999999999992
 21
465.0
 31
0.0
  0
LINE
  5
BD
330
17
100
AcDbEntity
  8
LIQUID
420
9090536
100
AcDbLine
 10
586.3699999999992
 20
478.5
 30
0.0
 11
586.3699999999992
 21
465.0
 31
0.0
  0
LINE
  5
BE
330
17
100
AcDbEntity
  8
LIQUID
420
9090536
100
AcDbLine
 10
593.1399999999992
 20
478.5
 30
0.0
 11
593.1399999999992
 21
465.0
 31
0.0
  0
LINE
  5
BF
330
17
100
AcDbEntity
  8
LIQUID
420
9090536
100
AcDbLine
 10
599.9099999999992
 20
478.5
 30
0.0
 11
599.9099999999992
 21
465.0
 31
0.0
  0
LINE
  5
C0
330
17
100
AcDbEntity
  8
LIQUID
420
9090536
100
AcDbLine
 10
606.6799999999992
 20
478.5
 30
0.0
 11
606.6799999999992
 21
465.0
 31
0.0
  0
LINE
  5
C1
330
17
100
AcDbEntity
  8
LIQUID
420
9090536
100
AcDbLine
 10
613.4499999999991
 20
478.5
 30
0.0
 11
613.4499999999991
 21
465.0
 31
0.0
  0
LINE
  5
C2
330
17
100
AcDbEntity
  8
LIQUID
420
9090536
100
AcDbLine
 10
620.2199999999991
 20
478.5
 30
0.0
 11
620.2199999999991
 21
465.0
 31
0.0
  0
LINE
  5
C3
330
17
100
AcDbEntity
  8
LIQUID
420
9090536
100
AcDbLine
 10
626.9899999999991
 20
478.5
 30
0.0
 11
626.9899999999991
 21
465.0
 31
0.0
  0
LINE
  5
C4
330
17
100
AcDbEntity
  8
LIQUID
420
9090536
100
AcDbLine
 10
633.7599999999991
 20
478.5
 30
0.0
 11
633.7599999999991
 21
465.0
 31
0.0
  0
LINE
  5
C5
330
17
100
AcDbEntity
  8
LIQUID
420
9090536
100
AcDbLine
 10
640.5299999999991
 20
478.5
 30
0.0
 11
640.5299999999991
 21
465.0
 31
0.0
  0
LINE
  5
C6
330
17
100
AcDbEntity
  8
LIQUID
420
9090536
100
AcDbLine
 10
647.299999999999
 20
478.5
 30
0.0
 11
647.299999999999
 21
465.0
 31
0.0
  0
LINE
  5
C7
330
17
100
AcDbEntity
  8
LIQUID
420
9090536
100
AcDbLine
 10
654.069999999999
 20
478.5
 30
0.0
 11
654.069999999999
 21
465.0
 31
0.0
  0
HATCH
  5
C8
330
17
100
AcDbEntity
  8
LIQUID
 62
7
420
13952247
100
AcDbHatch
 10
0.0
 20
0.0
 30
0.0
210
0.0
220
0.0
230
1.0
  2
SOLID
 70
1
 71
0
 91
1
 92
3
 72
0
 73
1
 93
4
 10
234.4
 20
459.7
 10
660.6
 20
459.7
 10
660.6
 20
446.2
 10
234.4
 20
446.2
 97
0
 75
0
 76
1
 98
0
  0
LWPOLYLINE
  5
C9
330
17
100
AcDbEntity
  8
LIQUID
100
AcDbPolyline
 90
4
 70
1
 10
234.4
 20
459.7
 10
660.6
 20
459.7
 10
660.6
 20
446.2
 10
234.4
 20
446.2
  0
LINE
  5
CA
330
17
100
AcDbEntity
  8
LIQUID
420
6988002
100
AcDbLine
 10
234.4
 20
453.0
 30
0.0
 11
660.6
 21
453.0
 31
0.0
  0
LINE
  5
CB
330
17
100
AcDbEntity
  8
LIQUID
420
9090536
100
AcDbLine
 10
241.1
 20
459.7
 30
0.0
 11
241.1
 21
446.2
 31
0.0
  0
LINE
  5
CC
330
17
100
AcDbEntity
  8
LIQUID
420
9090536
100
AcDbLine
 10
247.87
 20
459.7
 30
0.0
 11
247.87
 21
446.2
 31
0.0
  0
LINE
  5
CD
330
17
100
AcDbEntity
  8
LIQUID
420
9090536
100
AcDbLine
 10
254.64000000000001
 20
459.7
 30
0.0
 11
254.64000000000001
 21
446.2
 31
0.0
  0
LINE
  5
CE
330
17
100
AcDbEntity
  8
LIQUID
420
9090536
100
AcDbLine
 10
261.41
 20
459.7
 30
0.0
 11
261.41
 21
446.2
 31
0.0
  0
LINE
  5
CF
330
17
100
AcDbEntity
  8
LIQUID
420
9090536
100
AcDbLine
 10
268.18
 20
459.7
 30
0.0
 11
268.18
 21
446.2
 31
0.0
  0
LINE
  5
D0
330
17
100
AcDbEntity
  8
LIQUID
420
9090536
100
AcDbLine
 10
274.95
 20
459.7
 30
0.0
 11
274.95
 21
446.2
 31
0.0
  0
LINE
  5
D1
330
17
100
AcDbEntity
  8
LIQUID
420
9090536
100
AcDbLine
 10
281.71999999999997
 20
459.7
 30
0.0
 11
281.71999999999997
 21
446.2
 31
0.0
  0
LINE
  5
D2
330
17
100
AcDbEntity
  8
LIQUID
420
9090536
100
AcDbLine
 10
288.48999999999995
 20
459.7
 30
0.0
 11
288.48999999999995
 21
446.2
 31
0.0
  0
LINE
  5
D3
330
17
100
AcDbEntity
  8
LIQUID
420
9090536
100
AcDbLine
 10
295.25999999999993
 20
459.7
 30
0.0
 11
295.25999999999993
 21
446.2
 31
0.0
  0
LINE
  5
D4
330
17
100
AcDbEntity
  8
LIQUID
420
9090536
100
AcDbLine
 10
302.0299999999999
 20
459.7
 30
0.0
 11
302.0299999999999
 21
446.2
 31
0.0
  0
LINE
  5
D5
330
17
100
AcDbEntity
  8
LIQUID
420
9090536
100
AcDbLine
 10
308.7999999999999
 20
459.7
 30
0.0
 11
308.7999999999999
 21
446.2
 31
0.0
  0
LINE
  5
D6
330
17
100
AcDbEntity
  8
LIQUID
420
9090536
100
AcDbLine
 10
315.5699999999999
 20
459.7
 30
0.0
 11
315.5699999999999
 21
446.2
 31
0.0
  0
LINE
  5
D7
330
17
100
AcDbEntity
  8
LIQUID
420
9090536
100
AcDbLine
 10
322.33999999999986
 20
459.7
 30
0.0
 11
322.33999999999986
 21
446.2
 31
0.0
  0
LINE
  5
D8
330
17
100
AcDbEntity
  8
LIQUID
420
9090536
100
AcDbLine
 10
329.10999999999984
 20
459.7
 30
0.0
 11
329.10999999999984
 21
446.2
 31
0.0
  0
LINE
  5
D9
330
17
100
AcDbEntity
  8
LIQUID
420
9090536
100
AcDbLine
 10
335.8799999999998
 20
459.7
 30
0.0
 11
335.8799999999998
 21
446.2
 31
0.0
  0
LINE
  5
DA
330
17
100
AcDbEntity
  8
LIQUID
420
9090536
100
AcDbLine
 10
342.6499999999998
 20
459.7
 30
0.0
 11
342.6499999999998
 21
446.2
 31
0.0
  0
LINE
  5
DB
330
17
100
AcDbEntity
  8
LIQUID
420
9090536
100
AcDbLine
 10
349.4199999999998
 20
459.7
 30
0.0
 11
349.4199999999998
 21
446.2
 31
0.0
  0
LINE
  5
DC
330
17
100
AcDbEntity
  8
LIQUID
420
9090536
100
AcDbLine
 10
356.18999999999977
 20
459.7
 30
0.0
 11
356.18999999999977
 21
446.2
 31
0.0
  0
LINE
  5
DD
330
17
100
AcDbEntity
  8
LIQUID
420
9090536
100
AcDbLine
 10
362.95999999999975
 20
459.7
 30
0.0
 11
362.95999999999975
 21
446.2
 31
0.0
  0
LINE
  5
DE
330
17
100
AcDbEntity
  8
LIQUID
420
9090536
100
AcDbLine
 10
369.72999999999973
 20
459.7
 30
0.0
 11
369.72999999999973
 21
446.2
 31
0.0
  0
LINE
  5
DF
330
17
100
AcDbEntity
  8
LIQUID
420
9090536
100
AcDbLine
 10
376.4999999999997
 20
459.7
 30
0.0
 11
376.4999999999997
 21
446.2
 31
0.0
  0
LINE
  5
E0
330
17
100
AcDbEntity
  8
LIQUID
420
9090536
100
AcDbLine
 10
383.2699999999997
 20
459.7
 30
0.0
 11
383.2699999999997
 21
446.2
 31
0.0
  0
LINE
  5
E1
330
17
100
AcDbEntity
  8
LIQUID
420
9090536
100
AcDbLine
 10
390.0399999999997
 20
459.7
 30
0.0
 11
390.0399999999997
 21
446.2
 31
0.0
  0
LINE
  5
E2
330
17
100
AcDbEntity
  8
LIQUID
420
9090536
100
AcDbLine
 10
396.80999999999966
 20
459.7
 30
0.0
 11
396.80999999999966
 21
446.2
 31
0.0
  0
LINE
  5
E3
330
17
100
AcDbEntity
  8
LIQUID
420
9090536
100
AcDbLine
 10
403.57999999999964
 20
459.7
 30
0.0
 11
403.57999999999964
 21
446.2
 31
0.0
  0
LINE
  5
E4
330
17
100
AcDbEntity
  8
LIQUID
420
9090536
100
AcDbLine
 10
410.3499999999996
 20
459.7
 30
0.0
 11
410.3499999999996
 21
446.2
 31
0.0
  0
LINE
  5
E5
330
17
100
AcDbEntity
  8
LIQUID
420
9090536
100
AcDbLine
 10
417.1199999999996
 20
459.7
 30
0.0
 11
417.1199999999996
 21
446.2
 31
0.0
  0
LINE
  5
E6
330
17
100
AcDbEntity
  8
LIQUID
420
9090536
100
AcDbLine
 10
423.8899999999996
 20
459.7
 30
0.0
 11
423.8899999999996
 21
446.2
 31
0.0
  0
LINE
  5
E7
330
17
100
AcDbEntity
  8
LIQUID
420
9090536
100
AcDbLine
 10
430.65999999999957
 20
459.7
 30
0.0
 11
430.65999999999957
 21
446.2
 31
0.0
  0
LINE
  5
E8
330
17
100
AcDbEntity
  8
LIQUID
420
9090536
100
AcDbLine
 10
437.42999999999955
 20
459.7
 30
0.0
 11
437.42999999999955
 21
446.2
 31
0.0
  0
LINE
  5
E9
330
17
100
AcDbEntity
  8
LIQUID
420
9090536
100
AcDbLine
 10
444.19999999999953
 20
459.7
 30
0.0
 11
444.19999999999953
 21
446.2
 31
0.0
  0
LINE
  5
EA
330
17
100
AcDbEntity
  8
LIQUID
420
9090536
100
AcDbLine
 10
450.9699999999995
 20
459.7
 30
0.0
 11
450.9699999999995
 21
446.2
 31
0.0
  0
LINE
  5
EB
330
17
100
AcDbEntity
  8
LIQUID
420
9090536
100
AcDbLine
 10
457.7399999999995
 20
459.7
 30
0.0
 11
457.7399999999995
 21
446.2
 31
0.0
  0
LINE
  5
EC
330
17
100
AcDbEntity
  8
LIQUID
420
9090536
100
AcDbLine
 10
464.5099999999995
 20
459.7
 30
0.0
 11
464.5099999999995
 21
446.2
 31
0.0
  0
LINE
  5
ED
330
17
100
AcDbEntity
  8
LIQUID
420
9090536
100
AcDbLine
 10
471.27999999999946
 20
459.7
 30
0.0
 11
471.27999999999946
 21
446.2
 31
0.0
  0
LINE
  5
EE
330
17
100
AcDbEntity
  8
LIQUID
420
9090536
100
AcDbLine
 10
478.04999999999944
 20
459.7
 30
0.0
 11
478.04999999999944
 21
446.2
 31
0.0
  0
LINE
  5
EF
330
17
100
AcDbEntity
  8
LIQUID
420
9090536
100
AcDbLine
 10
484.8199999999994
 20
459.7
 30
0.0
 11
484.8199999999994
 21
446.2
 31
0.0
  0
LINE
  5
F0
330
17
100
AcDbEntity
  8
LIQUID
420
9090536
100
AcDbLine
 10
491.5899999999994
 20
459.7
 30
0.0
 11
491.5899999999994
 21
446.2
 31
0.0
  0
LINE
  5
F1
330
17
100
AcDbEntity
  8
LIQUID
420
9090536
100
AcDbLine
 10
498.3599999999994
 20
459.7
 30
0.0
 11
498.3599999999994
 21
446.2
 31
0.0
  0
LINE
  5
F2
330
17
100
AcDbEntity
  8
LIQUID
420
9090536
100
AcDbLine
 10
505.12999999999937
 20
459.7
 30
0.0
 11
505.12999999999937
 21
446.2
 31
0.0
  0
LINE
  5
F3
330
17
100
AcDbEntity
  8
LIQUID
420
9090536
100
AcDbLine
 10
511.89999999999935
 20
459.7
 30
0.0
 11
511.89999999999935
 21
446.2
 31
0.0
  0
LINE
  5
F4
330
17
100
AcDbEntity
  8
LIQUID
420
9090536
100
AcDbLine
 10
518.6699999999994
 20
459.7
 30
0.0
 11
518.6699999999994
 21
446.2
 31
0.0
  0
LINE
  5
F5
330
17
100
AcDbEntity
  8
LIQUID
420
9090536
100
AcDbLine
 10
525.4399999999994
 20
459.7
 30
0.0
 11
525.4399999999994
 21
446.2
 31
0.0
  0
LINE
  5
F6
330
17
100
AcDbEntity
  8
LIQUID
420
9090536
100
AcDbLine
 10
532.2099999999994
 20
459.7
 30
0.0
 11
532.2099999999994
 21
446.2
 31
0.0
  0
LINE
  5
F7
330
17
100
AcDbEntity
  8
LIQUID
420
9090536
100
AcDbLine
 10
538.9799999999993
 20
459.7
 30
0.0
 11
538.9799999999993
 21
446.2
 31
0.0
  0
LINE
  5
F8
330
17
100
AcDbEntity
  8
LIQUID
420
9090536
100
AcDbLine
 10
545.7499999999993
 20
459.7
 30
0.0
 11
545.7499999999993
 21
446.2
 31
0.0
  0
LINE
  5
F9
330
17
100
AcDbEntity
  8
LIQUID
420
9090536
100
AcDbLine
 10
552.5199999999993
 20
459.7
 30
0.0
 11
552.5199999999993
 21
446.2
 31
0.0
  0
LINE
  5
FA
330
17
100
AcDbEntity
  8
LIQUID
420
9090536
100
AcDbLine
 10
559.2899999999993
 20
459.7
 30
0.0
 11
559.2899999999993
 21
446.2
 31
0.0
  0
LINE
  5
FB
330
17
100
AcDbEntity
  8
LIQUID
420
9090536
100
AcDbLine
 10
566.0599999999993
 20
459.7
 30
0.0
 11
566.0599999999993
 21
446.2
 31
0.0
  0
LINE
  5
FC
330
17
100
AcDbEntity
  8
LIQUID
420
9090536
100
AcDbLine
 10
572.8299999999992
 20
459.7
 30
0.0
 11
572.8299999999992
 21
446.2
 31
0.0
  0
LINE
  5
FD
330
17
100
AcDbEntity
  8
LIQUID
420
9090536
100
AcDbLine
 10
579.5999999999992
 20
459.7
 30
0.0
 11
579.5999999999992
 21
446.2
 31
0.0
  0
LINE
  5
FE
330
17
100
AcDbEntity
  8
LIQUID
420
9090536
100
AcDbLine
 10
586.3699999999992
 20
459.7
 30
0.0
 11
586.3699999999992
 21
446.2
 31
0.0
  0
LINE
  5
FF
330
17
100
AcDbEntity
  8
LIQUID
420
9090536
100
AcDbLine
 10
593.1399999999992
 20
459.7
 30
0.0
 11
593.1399999999992
 21
446.2
 31
0.0
  0
LINE
  5
100
330
17
100
AcDbEntity
  8
LIQUID
420
9090536
100
AcDbLine
 10
599.9099999999992
 20
459.7
 30
0.0
 11
599.9099999999992
 21
446.2
 31
0.0
  0
LINE
  5
101
330
17
100
AcDbEntity
  8
LIQUID
420
9090536
100
AcDbLine
 10
606.6799999999992
 20
459.7
 30
0.0
 11
606.6799999999992
 21
446.2
 31
0.0
  0
LINE
  5
102
330
17
100
AcDbEntity
  8
LIQUID
420
9090536
100
AcDbLine
 10
613.4499999999991
 20
459.7
 30
0.0
 11
613.4499999999991
 21
446.2
 31
0.0
  0
LINE
  5
103
330
17
100
AcDbEntity
  8
LIQUID
420
9090536
100
AcDbLine
 10
620.2199999999991
 20
459.7
 30
0.0
 11
620.2199999999991
 21
446.2
 31
0.0
  0
LINE
  5
104
330
17
100
AcDbEntity
  8
LIQUID
420
9090536
100
AcDbLine
 10
626.9899999999991
 20
459.7
 30
0.0
 11
626.9899999999991
 21
446.2
 31
0.0
  0
LINE
  5
105
330
17
100
AcDbEntity
  8
LIQUID
420
9090536
100
AcDbLine
 10
633.7599999999991
 20
459.7
 30
0.0
 11
633.7599999999991
 21
446.2
 31
0.0
  0
LINE
  5
106
330
17
100
AcDbEntity
  8
LIQUID
420
9090536
100
AcDbLine
 10
640.5299999999991
 20
459.7
 30
0.0
 11
640.5299999999991
 21
446.2
 31
0.0
  0
LINE
  5
107
330
17
100
AcDbEntity
  8
LIQUID
420
9090536
100
AcDbLine
 10
647.299999999999
 20
459.7
 30
0.0
 11
647.299999999999
 21
446.2
 31
0.0
  0
LINE
  5
108
330
17
100
AcDbEntity
  8
LIQUID
420
9090536
100
AcDbLine
 10
654.069999999999
 20
459.7
 30
0.0
 11
654.069999999999
 21
446.2
 31
0.0
  0
HATCH
  5
109
330
17
100
AcDbEntity
  8
LIQUID
 62
7
420
13952247
100
AcDbHatch
 10
0.0
 20
0.0
 30
0.0
210
0.0
220
0.0
230
1.0
  2
SOLID
 70
1
 71
0
 91
1
 92
3
 72
0
 73
1
 93
4
 10
234.4
 20
422.5
 10
660.6
 20
422.5
 10
660.6
 20
409.0
 10
234.4
 20
409.0
 97
0
 75
0
 76
1
 98
0
  0
LWPOLYLINE
  5
10A
330
17
100
AcDbEntity
  8
LIQUID
100
AcDbPolyline
 90
4
 70
1
 10
234.4
 20
422.5
 10
660.6
 20
422.5
 10
660.6
 20
409.0
 10
234.4
 20
409.0
  0
LINE
  5
10B
330
17
100
AcDbEntity
  8
LIQUID
420
6988002
100
AcDbLine
 10
234.4
 20
415.8
 30
0.0
 11
660.6
 21
415.8
 31
0.0
  0
LINE
  5
10C
330
17
100
AcDbEntity
  8
LIQUID
420
9090536
100
AcDbLine
 10
241.1
 20
422.5
 30
0.0
 11
241.1
 21
409.0
 31
0.0
  0
LINE
  5
10D
330
17
100
AcDbEntity
  8
LIQUID
420
9090536
100
AcDbLine
 10
247.87
 20
422.5
 30
0.0
 11
247.87
 21
409.0
 31
0.0
  0
LINE
  5
10E
330
17
100
AcDbEntity
  8
LIQUID
420
9090536
100
AcDbLine
 10
254.64000000000001
 20
422.5
 30
0.0
 11
254.64000000000001
 21
409.0
 31
0.0
  0
LINE
  5
10F
330
17
100
AcDbEntity
  8
LIQUID
420
9090536
100
AcDbLine
 10
261.41
 20
422.5
 30
0.0
 11
261.41
 21
409.0
 31
0.0
  0
LINE
  5
110
330
17
100
AcDbEntity
  8
LIQUID
420
9090536
100
AcDbLine
 10
268.18
 20
422.5
 30
0.0
 11
268.18
 21
409.0
 31
0.0
  0
LINE
  5
111
330
17
100
AcDbEntity
  8
LIQUID
420
9090536
100
AcDbLine
 10
274.95
 20
422.5
 30
0.0
 11
274.95
 21
409.0
 31
0.0
  0
LINE
  5
112
330
17
100
AcDbEntity
  8
LIQUID
420
9090536
100
AcDbLine
 10
281.71999999999997
 20
422.5
 30
0.0
 11
281.71999999999997
 21
409.0
 31
0.0
  0
LINE
  5
113
330
17
100
AcDbEntity
  8
LIQUID
420
9090536
100
AcDbLine
 10
288.48999999999995
 20
422.5
 30
0.0
 11
288.48999999999995
 21
409.0
 31
0.0
  0
LINE
  5
114
330
17
100
AcDbEntity
  8
LIQUID
420
9090536
100
AcDbLine
 10
295.25999999999993
 20
422.5
 30
0.0
 11
295.25999999999993
 21
409.0
 31
0.0
  0
LINE
  5
115
330
17
100
AcDbEntity
  8
LIQUID
420
9090536
100
AcDbLine
 10
302.0299999999999
 20
422.5
 30
0.0
 11
302.0299999999999
 21
409.0
 31
0.0
  0
LINE
  5
116
330
17
100
AcDbEntity
  8
LIQUID
420
9090536
100
AcDbLine
 10
308.7999999999999
 20
422.5
 30
0.0
 11
308.7999999999999
 21
409.0
 31
0.0
  0
LINE
  5
117
330
17
100
AcDbEntity
  8
LIQUID
420
9090536
100
AcDbLine
 10
315.5699999999999
 20
422.5
 30
0.0
 11
315.5699999999999
 21
409.0
 31
0.0
  0
LINE
  5
118
330
17
100
AcDbEntity
  8
LIQUID
420
9090536
100
AcDbLine
 10
322.33999999999986
 20
422.5
 30
0.0
 11
322.33999999999986
 21
409.0
 31
0.0
  0
LINE
  5
119
330
17
100
AcDbEntity
  8
LIQUID
420
9090536
100
AcDbLine
 10
329.10999999999984
 20
422.5
 30
0.0
 11
329.10999999999984
 21
409.0
 31
0.0
  0
LINE
  5
11A
330
17
100
AcDbEntity
  8
LIQUID
420
9090536
100
AcDbLine
 10
335.8799999999998
 20
422.5
 30
0.0
 11
335.8799999999998
 21
409.0
 31
0.0
  0
LINE
  5
11B
330
17
100
AcDbEntity
  8
LIQUID
420
9090536
100
AcDbLine
 10
342.6499999999998
 20
422.5
 30
0.0
 11
342.6499999999998
 21
409.0
 31
0.0
  0
LINE
  5
11C
330
17
100
AcDbEntity
  8
LIQUID
420
9090536
100
AcDbLine
 10
349.4199999999998
 20
422.5
 30
0.0
 11
349.4199999999998
 21
409.0
 31
0.0
  0
LINE
  5
11D
330
17
100
AcDbEntity
  8
LIQUID
420
9090536
100
AcDbLine
 10
356.18999999999977
 20
422.5
 30
0.0
 11
356.18999999999977
 21
409.0
 31
0.0
  0
LINE
  5
11E
330
17
100
AcDbEntity
  8
LIQUID
420
9090536
100
AcDbLine
 10
362.95999999999975
 20
422.5
 30
0.0
 11
362.95999999999975
 21
409.0
 31
0.0
  0
LINE
  5
11F
330
17
100
AcDbEntity
  8
LIQUID
420
9090536
100
AcDbLine
 10
369.72999999999973
 20
422.5
 30
0.0
 11
369.72999999999973
 21
409.0
 31
0.0
  0
LINE
  5
120
330
17
100
AcDbEntity
  8
LIQUID
420
9090536
100
AcDbLine
 10
376.4999999999997
 20
422.5
 30
0.0
 11
376.4999999999997
 21
409.0
 31
0.0
  0
LINE
  5
121
330
17
100
AcDbEntity
  8
LIQUID
420
9090536
100
AcDbLine
 10
383.2699999999997
 20
422.5
 30
0.0
 11
383.2699999999997
 21
409.0
 31
0.0
  0
LINE
  5
122
330
17
100
AcDbEntity
  8
LIQUID
420
9090536
100
AcDbLine
 10
390.0399999999997
 20
422.5
 30
0.0
 11
390.0399999999997
 21
409.0
 31
0.0
  0
LINE
  5
123
330
17
100
AcDbEntity
  8
LIQUID
420
9090536
100
AcDbLine
 10
396.80999999999966
 20
422.5
 30
0.0
 11
396.80999999999966
 21
409.0
 31
0.0
  0
LINE
  5
124
330
17
100
AcDbEntity
  8
LIQUID
420
9090536
100
AcDbLine
 10
403.57999999999964
 20
422.5
 30
0.0
 11
403.57999999999964
 21
409.0
 31
0.0
  0
LINE
  5
125
330
17
100
AcDbEntity
  8
LIQUID
420
9090536
100
AcDbLine
 10
410.3499999999996
 20
422.5
 30
0.0
 11
410.3499999999996
 21
409.0
 31
0.0
  0
LINE
  5
126
330
17
100
AcDbEntity
  8
LIQUID
420
9090536
100
AcDbLine
 10
417.1199999999996
 20
422.5
 30
0.0
 11
417.1199999999996
 21
409.0
 31
0.0
  0
LINE
  5
127
330
17
100
AcDbEntity
  8
LIQUID
420
9090536
100
AcDbLine
 10
423.8899999999996
 20
422.5
 30
0.0
 11
423.8899999999996
 21
409.0
 31
0.0
  0
LINE
  5
128
330
17
100
AcDbEntity
  8
LIQUID
420
9090536
100
AcDbLine
 10
430.65999999999957
 20
422.5
 30
0.0
 11
430.65999999999957
 21
409.0
 31
0.0
  0
LINE
  5
129
330
17
100
AcDbEntity
  8
LIQUID
420
9090536
100
AcDbLine
 10
437.42999999999955
 20
422.5
 30
0.0
 11
437.42999999999955
 21
409.0
 31
0.0
  0
LINE
  5
12A
330
17
100
AcDbEntity
  8
LIQUID
420
9090536
100
AcDbLine
 10
444.19999999999953
 20
422.5
 30
0.0
 11
444.19999999999953
 21
409.0
 31
0.0
  0
LINE
  5
12B
330
17
100
AcDbEntity
  8
LIQUID
420
9090536
100
AcDbLine
 10
450.9699999999995
 20
422.5
 30
0.0
 11
450.9699999999995
 21
409.0
 31
0.0
  0
LINE
  5
12C
330
17
100
AcDbEntity
  8
LIQUID
420
9090536
100
AcDbLine
 10
457.7399999999995
 20
422.5
 30
0.0
 11
457.7399999999995
 21
409.0
 31
0.0
  0
LINE
  5
12D
330
17
100
AcDbEntity
  8
LIQUID
420
9090536
100
AcDbLine
 10
464.5099999999995
 20
422.5
 30
0.0
 11
464.5099999999995
 21
409.0
 31
0.0
  0
LINE
  5
12E
330
17
100
AcDbEntity
  8
LIQUID
420
9090536
100
AcDbLine
 10
471.27999999999946
 20
422.5
 30
0.0
 11
471.27999999999946
 21
409.0
 31
0.0
  0
LINE
  5
12F
330
17
100
AcDbEntity
  8
LIQUID
420
9090536
100
AcDbLine
 10
478.04999999999944
 20
422.5
 30
0.0
 11
478.04999999999944
 21
409.0
 31
0.0
  0
LINE
  5
130
330
17
100
AcDbEntity
  8
LIQUID
420
9090536
100
AcDbLine
 10
484.8199999999994
 20
422.5
 30
0.0
 11
484.8199999999994
 21
409.0
 31
0.0
  0
LINE
  5
131
330
17
100
AcDbEntity
  8
LIQUID
420
9090536
100
AcDbLine
 10
491.5899999999994
 20
422.5
 30
0.0
 11
491.5899999999994
 21
409.0
 31
0.0
  0
LINE
  5
132
330
17
100
AcDbEntity
  8
LIQUID
420
9090536
100
AcDbLine
 10
498.3599999999994
 20
422.5
 30
0.0
 11
498.3599999999994
 21
409.0
 31
0.0
  0
LINE
  5
133
330
17
100
AcDbEntity
  8
LIQUID
420
9090536
100
AcDbLine
 10
505.12999999999937
 20
422.5
 30
0.0
 11
505.12999999999937
 21
409.0
 31
0.0
  0
LINE
  5
134
330
17
100
AcDbEntity
  8
LIQUID
420
9090536
100
AcDbLine
 10
511.89999999999935
 20
422.5
 30
0.0
 11
511.89999999999935
 21
409.0
 31
0.0
  0
LINE
  5
135
330
17
100
AcDbEntity
  8
LIQUID
420
9090536
100
AcDbLine
 10
518.6699999999994
 20
422.5
 30
0.0
 11
518.6699999999994
 21
409.0
 31
0.0
  0
LINE
  5
136
330
17
100
AcDbEntity
  8
LIQUID
420
9090536
100
AcDbLine
 10
525.4399999999994
 20
422.5
 30
0.0
 11
525.4399999999994
 21
409.0
 31
0.0
  0
LINE
  5
137
330
17
100
AcDbEntity
  8
LIQUID
420
9090536
100
AcDbLine
 10
532.2099999999994
 20
422.5
 30
0.0
 11
532.2099999999994
 21
409.0
 31
0.0
  0
LINE
  5
138
330
17
100
AcDbEntity
  8
LIQUID
420
9090536
100
AcDbLine
 10
538.9799999999993
 20
422.5
 30
0.0
 11
538.9799999999993
 21
409.0
 31
0.0
  0
LINE
  5
139
330
17
100
AcDbEntity
  8
LIQUID
420
9090536
100
AcDbLine
 10
545.7499999999993
 20
422.5
 30
0.0
 11
545.7499999999993
 21
409.0
 31
0.0
  0
LINE
  5
13A
330
17
100
AcDbEntity
  8
LIQUID
420
9090536
100
AcDbLine
 10
552.5199999999993
 20
422.5
 30
0.0
 11
552.5199999999993
 21
409.0
 31
0.0
  0
LINE
  5
13B
330
17
100
AcDbEntity
  8
LIQUID
420
9090536
100
AcDbLine
 10
559.2899999999993
 20
422.5
 30
0.0
 11
559.2899999999993
 21
409.0
 31
0.0
  0
LINE
  5
13C
330
17
100
AcDbEntity
  8
LIQUID
420
9090536
100
AcDbLine
 10
566.0599999999993
 20
422.5
 30
0.0
 11
566.0599999999993
 21
409.0
 31
0.0
  0
LINE
  5
13D
330
17
100
AcDbEntity
  8
LIQUID
420
9090536
100
AcDbLine
 10
572.8299999999992
 20
422.5
 30
0.0
 11
572.8299999999992
 21
409.0
 31
0.0
  0
LINE
  5
13E
330
17
100
AcDbEntity
  8
LIQUID
420
9090536
100
AcDbLine
 10
579.5999999999992
 20
422.5
 30
0.0
 11
579.5999999999992
 21
409.0
 31
0.0
  0
LINE
  5
13F
330
17
100
AcDbEntity
  8
LIQUID
420
9090536
100
AcDbLine
 10
586.3699999999992
 20
422.5
 30
0.0
 11
586.3699999999992
 21
409.0
 31
0.0
  0
LINE
  5
140
330
17
100
AcDbEntity
  8
LIQUID
420
9090536
100
AcDbLine
 10
593.1399999999992
 20
422.5
 30
0.0
 11
593.1399999999992
 21
409.0
 31
0.0
  0
LINE
  5
141
330
17
100
AcDbEntity
  8
LIQUID
420
9090536
100
AcDbLine
 10
599.9099999999992
 20
422.5
 30
0.0
 11
599.9099999999992
 21
409.0
 31
0.0
  0
LINE
  5
142
330
17
100
AcDbEntity
  8
LIQUID
420
9090536
100
AcDbLine
 10
606.6799999999992
 20
422.5
 30
0.0
 11
606.6799999999992
 21
409.0
 31
0.0
  0
LINE
  5
143
330
17
100
AcDbEntity
  8
LIQUID
420
9090536
100
AcDbLine
 10
613.4499999999991
 20
422.5
 30
0.0
 11
613.4499999999991
 21
409.0
 31
0.0
  0
LINE
  5
144
330
17
100
AcDbEntity
  8
LIQUID
420
9090536
100
AcDbLine
 10
620.2199999999991
 20
422.5
 30
0.0
 11
620.2199999999991
 21
409.0
 31
0.0
  0
LINE
  5
145
330
17
100
AcDbEntity
  8
LIQUID
420
9090536
100
AcDbLine
 10
626.9899999999991
 20
422.5
 30
0.0
 11
626.9899999999991
 21
409.0
 31
0.0
  0
LINE
  5
146
330
17
100
AcDbEntity
  8
LIQUID
420
9090536
100
AcDbLine
 10
633.7599999999991
 20
422.5
 30
0.0
 11
633.7599999999991
 21
409.0
 31
0.0
  0
LINE
  5
147
330
17
100
AcDbEntity
  8
LIQUID
420
9090536
100
AcDbLine
 10
640.5299999999991
 20
422.5
 30
0.0
 11
640.5299999999991
 21
409.0
 31
0.0
  0
LINE
  5
148
330
17
100
AcDbEntity
  8
LIQUID
420
9090536
100
AcDbLine
 10
647.299999999999
 20
422.5
 30
0.0
 11
647.299999999999
 21
409.0
 31
0.0
  0
LINE
  5
149
330
17
100
AcDbEntity
  8
LIQUID
420
9090536
100
AcDbLine
 10
654.069999999999
 20
422.5
 30
0.0
 11
654.069999999999
 21
409.0
 31
0.0
  0
HATCH
  5
14A
330
17
100
AcDbEntity
  8
LIQUID
 62
7
420
13952247
100
AcDbHatch
 10
0.0
 20
0.0
 30
0.0
210
0.0
220
0.0
230
1.0
  2
SOLID
 70
1
 71
0
 91
1
 92
3
 72
0
 73
1
 93
4
 10
234.4
 20
404.7
 10
660.6
 20
404.7
 10
660.6
 20
391.2
 10
234.4
 20
391.2
 97
0
 75
0
 76
1
 98
0
  0
LWPOLYLINE
  5
14B
330
17
100
AcDbEntity
  8
LIQUID
100
AcDbPolyline
 90
4
 70
1
 10
234.4
 20
404.7
 10
660.6
 20
404.7
 10
660.6
 20
391.2
 10
234.4
 20
391.2
  0
LINE
  5
14C
330
17
100
AcDbEntity
  8
LIQUID
420
6988002
100
AcDbLine
 10
234.4
 20
397.9
 30
0.0
 11
660.6
 21
397.9
 31
0.0
  0
LINE
  5
14D
330
17
100
AcDbEntity
  8
LIQUID
420
9090536
100
AcDbLine
 10
241.1
 20
404.7
 30
0.0
 11
241.1
 21
391.2
 31
0.0
  0
LINE
  5
14E
330
17
100
AcDbEntity
  8
LIQUID
420
9090536
100
AcDbLine
 10
247.87
 20
404.7
 30
0.0
 11
247.87
 21
391.2
 31
0.0
  0
LINE
  5
14F
330
17
100
AcDbEntity
  8
LIQUID
420
9090536
100
AcDbLine
 10
254.64000000000001
 20
404.7
 30
0.0
 11
254.64000000000001
 21
391.2
 31
0.0
  0
LINE
  5
150
330
17
100
AcDbEntity
  8
LIQUID
420
9090536
100
AcDbLine
 10
261.41
 20
404.7
 30
0.0
 11
261.41
 21
391.2
 31
0.0
  0
LINE
  5
151
330
17
100
AcDbEntity
  8
LIQUID
420
9090536
100
AcDbLine
 10
268.18
 20
404.7
 30
0.0
 11
268.18
 21
391.2
 31
0.0
  0
LINE
  5
152
330
17
100
AcDbEntity
  8
LIQUID
420
9090536
100
AcDbLine
 10
274.95
 20
404.7
 30
0.0
 11
274.95
 21
391.2
 31
0.0
  0
LINE
  5
153
330
17
100
AcDbEntity
  8
LIQUID
420
9090536
100
AcDbLine
 10
281.71999999999997
 20
404.7
 30
0.0
 11
281.71999999999997
 21
391.2
 31
0.0
  0
LINE
  5
154
330
17
100
AcDbEntity
  8
LIQUID
420
9090536
100
AcDbLine
 10
288.48999999999995
 20
404.7
 30
0.0
 11
288.48999999999995
 21
391.2
 31
0.0
  0
LINE
  5
155
330
17
100
AcDbEntity
  8
LIQUID
420
9090536
100
AcDbLine
 10
295.25999999999993
 20
404.7
 30
0.0
 11
295.25999999999993
 21
391.2
 31
0.0
  0
LINE
  5
156
330
17
100
AcDbEntity
  8
LIQUID
420
9090536
100
AcDbLine
 10
302.0299999999999
 20
404.7
 30
0.0
 11
302.0299999999999
 21
391.2
 31
0.0
  0
LINE
  5
157
330
17
100
AcDbEntity
  8
LIQUID
420
9090536
100
AcDbLine
 10
308.7999999999999
 20
404.7
 30
0.0
 11
308.7999999999999
 21
391.2
 31
0.0
  0
LINE
  5
158
330
17
100
AcDbEntity
  8
LIQUID
420
9090536
100
AcDbLine
 10
315.5699999999999
 20
404.7
 30
0.0
 11
315.5699999999999
 21
391.2
 31
0.0
  0
LINE
  5
159
330
17
100
AcDbEntity
  8
LIQUID
420
9090536
100
AcDbLine
 10
322.33999999999986
 20
404.7
 30
0.0
 11
322.33999999999986
 21
391.2
 31
0.0
  0
LINE
  5
15A
330
17
100
AcDbEntity
  8
LIQUID
420
9090536
100
AcDbLine
 10
329.10999999999984
 20
404.7
 30
0.0
 11
329.10999999999984
 21
391.2
 31
0.0
  0
LINE
  5
15B
330
17
100
AcDbEntity
  8
LIQUID
420
9090536
100
AcDbLine
 10
335.8799999999998
 20
404.7
 30
0.0
 11
335.8799999999998
 21
391.2
 31
0.0
  0
LINE
  5
15C
330
17
100
AcDbEntity
  8
LIQUID
420
9090536
100
AcDbLine
 10
342.6499999999998
 20
404.7
 30
0.0
 11
342.6499999999998
 21
391.2
 31
0.0
  0
LINE
  5
15D
330
17
100
AcDbEntity
  8
LIQUID
420
9090536
100
AcDbLine
 10
349.4199999999998
 20
404.7
 30
0.0
 11
349.4199999999998
 21
391.2
 31
0.0
  0
LINE
  5
15E
330
17
100
AcDbEntity
  8
LIQUID
420
9090536
100
AcDbLine
 10
356.18999999999977
 20
404.7
 30
0.0
 11
356.18999999999977
 21
391.2
 31
0.0
  0
LINE
  5
15F
330
17
100
AcDbEntity
  8
LIQUID
420
9090536
100
AcDbLine
 10
362.95999999999975
 20
404.7
 30
0.0
 11
362.95999999999975
 21
391.2
 31
0.0
  0
LINE
  5
160
330
17
100
AcDbEntity
  8
LIQUID
420
9090536
100
AcDbLine
 10
369.72999999999973
 20
404.7
 30
0.0
 11
369.72999999999973
 21
391.2
 31
0.0
  0
LINE
  5
161
330
17
100
AcDbEntity
  8
LIQUID
420
9090536
100
AcDbLine
 10
376.4999999999997
 20
404.7
 30
0.0
 11
376.4999999999997
 21
391.2
 31
0.0
  0
LINE
  5
162
330
17
100
AcDbEntity
  8
LIQUID
420
9090536
100
AcDbLine
 10
383.2699999999997
 20
404.7
 30
0.0
 11
383.2699999999997
 21
391.2
 31
0.0
  0
LINE
  5
163
330
17
100
AcDbEntity
  8
LIQUID
420
9090536
100
AcDbLine
 10
390.0399999999997
 20
404.7
 30
0.0
 11
390.0399999999997
 21
391.2
 31
0.0
  0
LINE
  5
164
330
17
100
AcDbEntity
  8
LIQUID
420
9090536
100
AcDbLine
 10
396.80999999999966
 20
404.7
 30
0.0
 11
396.80999999999966
 21
391.2
 31
0.0
  0
LINE
  5
165
330
17
100
AcDbEntity
  8
LIQUID
420
9090536
100
AcDbLine
 10
403.57999999999964
 20
404.7
 30
0.0
 11
403.57999999999964
 21
391.2
 31
0.0
  0
LINE
  5
166
330
17
100
AcDbEntity
  8
LIQUID
420
9090536
100
AcDbLine
 10
410.3499999999996
 20
404.7
 30
0.0
 11
410.3499999999996
 21
391.2
 31
0.0
  0
LINE
  5
167
330
17
100
AcDbEntity
  8
LIQUID
420
9090536
100
AcDbLine
 10
417.1199999999996
 20
404.7
 30
0.0
 11
417.1199999999996
 21
391.2
 31
0.0
  0
LINE
  5
168
330
17
100
AcDbEntity
  8
LIQUID
420
9090536
100
AcDbLine
 10
423.8899999999996
 20
404.7
 30
0.0
 11
423.8899999999996
 21
391.2
 31
0.0
  0
LINE
  5
169
330
17
100
AcDbEntity
  8
LIQUID
420
9090536
100
AcDbLine
 10
430.65999999999957
 20
404.7
 30
0.0
 11
430.65999999999957
 21
391.2
 31
0.0
  0
LINE
  5
16A
330
17
100
AcDbEntity
  8
LIQUID
420
9090536
100
AcDbLine
 10
437.42999999999955
 20
404.7
 30
0.0
 11
437.42999999999955
 21
391.2
 31
0.0
  0
LINE
  5
16B
330
17
100
AcDbEntity
  8
LIQUID
420
9090536
100
AcDbLine
 10
444.19999999999953
 20
404.7
 30
0.0
 11
444.19999999999953
 21
391.2
 31
0.0
  0
LINE
  5
16C
330
17
100
AcDbEntity
  8
LIQUID
420
9090536
100
AcDbLine
 10
450.9699999999995
 20
404.7
 30
0.0
 11
450.9699999999995
 21
391.2
 31
0.0
  0
LINE
  5
16D
330
17
100
AcDbEntity
  8
LIQUID
420
9090536
100
AcDbLine
 10
457.7399999999995
 20
404.7
 30
0.0
 11
457.7399999999995
 21
391.2
 31
0.0
  0
LINE
  5
16E
330
17
100
AcDbEntity
  8
LIQUID
420
9090536
100
AcDbLine
 10
464.5099999999995
 20
404.7
 30
0.0
 11
464.5099999999995
 21
391.2
 31
0.0
  0
LINE
  5
16F
330
17
100
AcDbEntity
  8
LIQUID
420
9090536
100
AcDbLine
 10
471.27999999999946
 20
404.7
 30
0.0
 11
471.27999999999946
 21
391.2
 31
0.0
  0
LINE
  5
170
330
17
100
AcDbEntity
  8
LIQUID
420
9090536
100
AcDbLine
 10
478.04999999999944
 20
404.7
 30
0.0
 11
478.04999999999944
 21
391.2
 31
0.0
  0
LINE
  5
171
330
17
100
AcDbEntity
  8
LIQUID
420
9090536
100
AcDbLine
 10
484.8199999999994
 20
404.7
 30
0.0
 11
484.8199999999994
 21
391.2
 31
0.0
  0
LINE
  5
172
330
17
100
AcDbEntity
  8
LIQUID
420
9090536
100
AcDbLine
 10
491.5899999999994
 20
404.7
 30
0.0
 11
491.5899999999994
 21
391.2
 31
0.0
  0
LINE
  5
173
330
17
100
AcDbEntity
  8
LIQUID
420
9090536
100
AcDbLine
 10
498.3599999999994
 20
404.7
 30
0.0
 11
498.3599999999994
 21
391.2
 31
0.0
  0
LINE
  5
174
330
17
100
AcDbEntity
  8
LIQUID
420
9090536
100
AcDbLine
 10
505.12999999999937
 20
404.7
 30
0.0
 11
505.12999999999937
 21
391.2
 31
0.0
  0
LINE
  5
175
330
17
100
AcDbEntity
  8
LIQUID
420
9090536
100
AcDbLine
 10
511.89999999999935
 20
404.7
 30
0.0
 11
511.89999999999935
 21
391.2
 31
0.0
  0
LINE
  5
176
330
17
100
AcDbEntity
  8
LIQUID
420
9090536
100
AcDbLine
 10
518.6699999999994
 20
404.7
 30
0.0
 11
518.6699999999994
 21
391.2
 31
0.0
  0
LINE
  5
177
330
17
100
AcDbEntity
  8
LIQUID
420
9090536
100
AcDbLine
 10
525.4399999999994
 20
404.7
 30
0.0
 11
525.4399999999994
 21
391.2
 31
0.0
  0
LINE
  5
178
330
17
100
AcDbEntity
  8
LIQUID
420
9090536
100
AcDbLine
 10
532.2099999999994
 20
404.7
 30
0.0
 11
532.2099999999994
 21
391.2
 31
0.0
  0
LINE
  5
179
330
17
100
AcDbEntity
  8
LIQUID
420
9090536
100
AcDbLine
 10
538.9799999999993
 20
404.7
 30
0.0
 11
538.9799999999993
 21
391.2
 31
0.0
  0
LINE
  5
17A
330
17
100
AcDbEntity
  8
LIQUID
420
9090536
100
AcDbLine
 10
545.7499999999993
 20
404.7
 30
0.0
 11
545.7499999999993
 21
391.2
 31
0.0
  0
LINE
  5
17B
330
17
100
AcDbEntity
  8
LIQUID
420
9090536
100
AcDbLine
 10
552.5199999999993
 20
404.7
 30
0.0
 11
552.5199999999993
 21
391.2
 31
0.0
  0
LINE
  5
17C
330
17
100
AcDbEntity
  8
LIQUID
420
9090536
100
AcDbLine
 10
559.2899999999993
 20
404.7
 30
0.0
 11
559.2899999999993
 21
391.2
 31
0.0
  0
LINE
  5
17D
330
17
100
AcDbEntity
  8
LIQUID
420
9090536
100
AcDbLine
 10
566.0599999999993
 20
404.7
 30
0.0
 11
566.0599999999993
 21
391.2
 31
0.0
  0
LINE
  5
17E
330
17
100
AcDbEntity
  8
LIQUID
420
9090536
100
AcDbLine
 10
572.8299999999992
 20
404.7
 30
0.0
 11
572.8299999999992
 21
391.2
 31
0.0
  0
LINE
  5
17F
330
17
100
AcDbEntity
  8
LIQUID
420
9090536
100
AcDbLine
 10
579.5999999999992
 20
404.7
 30
0.0
 11
579.5999999999992
 21
391.2
 31
0.0
  0
LINE
  5
180
330
17
100
AcDbEntity
  8
LIQUID
420
9090536
100
AcDbLine
 10
586.3699999999992
 20
404.7
 30
0.0
 11
586.3699999999992
 21
391.2
 31
0.0
  0
LINE
  5
181
330
17
100
AcDbEntity
  8
LIQUID
420
9090536
100
AcDbLine
 10
593.1399999999992
 20
404.7
 30
0.0
 11
593.1399999999992
 21
391.2
 31
0.0
  0
LINE
  5
182
330
17
100
AcDbEntity
  8
LIQUID
420
9090536
100
AcDbLine
 10
599.9099999999992
 20
404.7
 30
0.0
 11
599.9099999999992
 21
391.2
 31
0.0
  0
LINE
  5
183
330
17
100
AcDbEntity
  8
LIQUID
420
9090536
100
AcDbLine
 10
606.6799999999992
 20
404.7
 30
0.0
 11
606.6799999999992
 21
391.2
 31
0.0
  0
LINE
  5
184
330
17
100
AcDbEntity
  8
LIQUID
420
9090536
100
AcDbLine
 10
613.4499999999991
 20
404.7
 30
0.0
 11
613.4499999999991
 21
391.2
 31
0.0
  0
LINE
  5
185
330
17
100
AcDbEntity
  8
LIQUID
420
9090536
100
AcDbLine
 10
620.2199999999991
 20
404.7
 30
0.0
 11
620.2199999999991
 21
391.2
 31
0.0
  0
LINE
  5
186
330
17
100
AcDbEntity
  8
LIQUID
420
9090536
100
AcDbLine
 10
626.9899999999991
 20
404.7
 30
0.0
 11
626.9899999999991
 21
391.2
 31
0.0
  0
LINE
  5
187
330
17
100
AcDbEntity
  8
LIQUID
420
9090536
100
AcDbLine
 10
633.7599999999991
 20
404.7
 30
0.0
 11
633.7599999999991
 21
391.2
 31
0.0
  0
LINE
  5
188
330
17
100
AcDbEntity
  8
LIQUID
420
9090536
100
AcDbLine
 10
640.5299999999991
 20
404.7
 30
0.0
 11
640.5299999999991
 21
391.2
 31
0.0
  0
LINE
  5
189
330
17
100
AcDbEntity
  8
LIQUID
420
9090536
100
AcDbLine
 10
647.299999999999
 20
404.7
 30
0.0
 11
647.299999999999
 21
391.2
 31
0.0
  0
LINE
  5
18A
330
17
100
AcDbEntity
  8
LIQUID
420
9090536
100
AcDbLine
 10
654.069999999999
 20
404.7
 30
0.0
 11
654.069999999999
 21
391.2
 31
0.0
  0
HATCH
  5
18B
330
17
100
AcDbEntity
  8
LIQUID
 62
7
420
13952247
100
AcDbHatch
 10
0.0
 20
0.0
 30
0.0
210
0.0
220
0.0
230
1.0
  2
SOLID
 70
1
 71
0
 91
1
 92
3
 72
0
 73
1
 93
4
 10
234.4
 20
386.9
 10
660.6
 20
386.9
 10
660.6
 20
373.4
 10
234.4
 20
373.4
 97
0
 75
0
 76
1
 98
0
  0
LWPOLYLINE
  5
18C
330
17
100
AcDbEntity
  8
LIQUID
100
AcDbPolyline
 90
4
 70
1
 10
234.4
 20
386.9
 10
660.6
 20
386.9
 10
660.6
 20
373.4
 10
234.4
 20
373.4
  0
LINE
  5
18D
330
17
100
AcDbEntity
  8
LIQUID
420
6988002
100
AcDbLine
 10
234.4
 20
380.1
 30
0.0
 11
660.6
 21
380.1
 31
0.0
  0
LINE
  5
18E
330
17
100
AcDbEntity
  8
LIQUID
420
9090536
100
AcDbLine
 10
241.1
 20
386.9
 30
0.0
 11
241.1
 21
373.4
 31
0.0
  0
LINE
  5
18F
330
17
100
AcDbEntity
  8
LIQUID
420
9090536
100
AcDbLine
 10
247.87
 20
386.9
 30
0.0
 11
247.87
 21
373.4
 31
0.0
  0
LINE
  5
190
330
17
100
AcDbEntity
  8
LIQUID
420
9090536
100
AcDbLine
 10
254.64000000000001
 20
386.9
 30
0.0
 11
254.64000000000001
 21
373.4
 31
0.0
  0
LINE
  5
191
330
17
100
AcDbEntity
  8
LIQUID
420
9090536
100
AcDbLine
 10
261.41
 20
386.9
 30
0.0
 11
261.41
 21
373.4
 31
0.0
  0
LINE
  5
192
330
17
100
AcDbEntity
  8
LIQUID
420
9090536
100
AcDbLine
 10
268.18
 20
386.9
 30
0.0
 11
268.18
 21
373.4
 31
0.0
  0
LINE
  5
193
330
17
100
AcDbEntity
  8
LIQUID
420
9090536
100
AcDbLine
 10
274.95
 20
386.9
 30
0.0
 11
274.95
 21
373.4
 31
0.0
  0
LINE
  5
194
330
17
100
AcDbEntity
  8
LIQUID
420
9090536
100
AcDbLine
 10
281.71999999999997
 20
386.9
 30
0.0
 11
281.71999999999997
 21
373.4
 31
0.0
  0
LINE
  5
195
330
17
100
AcDbEntity
  8
LIQUID
420
9090536
100
AcDbLine
 10
288.48999999999995
 20
386.9
 30
0.0
 11
288.48999999999995
 21
373.4
 31
0.0
  0
LINE
  5
196
330
17
100
AcDbEntity
  8
LIQUID
420
9090536
100
AcDbLine
 10
295.25999999999993
 20
386.9
 30
0.0
 11
295.25999999999993
 21
373.4
 31
0.0
  0
LINE
  5
197
330
17
100
AcDbEntity
  8
LIQUID
420
9090536
100
AcDbLine
 10
302.0299999999999
 20
386.9
 30
0.0
 11
302.0299999999999
 21
373.4
 31
0.0
  0
LINE
  5
198
330
17
100
AcDbEntity
  8
LIQUID
420
9090536
100
AcDbLine
 10
308.7999999999999
 20
386.9
 30
0.0
 11
308.7999999999999
 21
373.4
 31
0.0
  0
LINE
  5
199
330
17
100
AcDbEntity
  8
LIQUID
420
9090536
100
AcDbLine
 10
315.5699999999999
 20
386.9
 30
0.0
 11
315.5699999999999
 21
373.4
 31
0.0
  0
LINE
  5
19A
330
17
100
AcDbEntity
  8
LIQUID
420
9090536
100
AcDbLine
 10
322.33999999999986
 20
386.9
 30
0.0
 11
322.33999999999986
 21
373.4
 31
0.0
  0
LINE
  5
19B
330
17
100
AcDbEntity
  8
LIQUID
420
9090536
100
AcDbLine
 10
329.10999999999984
 20
386.9
 30
0.0
 11
329.10999999999984
 21
373.4
 31
0.0
  0
LINE
  5
19C
330
17
100
AcDbEntity
  8
LIQUID
420
9090536
100
AcDbLine
 10
335.8799999999998
 20
386.9
 30
0.0
 11
335.8799999999998
 21
373.4
 31
0.0
  0
LINE
  5
19D
330
17
100
AcDbEntity
  8
LIQUID
420
9090536
100
AcDbLine
 10
342.6499999999998
 20
386.9
 30
0.0
 11
342.6499999999998
 21
373.4
 31
0.0
  0
LINE
  5
19E
330
17
100
AcDbEntity
  8
LIQUID
420
9090536
100
AcDbLine
 10
349.4199999999998
 20
386.9
 30
0.0
 11
349.4199999999998
 21
373.4
 31
0.0
  0
LINE
  5
19F
330
17
100
AcDbEntity
  8
LIQUID
420
9090536
100
AcDbLine
 10
356.18999999999977
 20
386.9
 30
0.0
 11
356.18999999999977
 21
373.4
 31
0.0
  0
LINE
  5
1A0
330
17
100
AcDbEntity
  8
LIQUID
420
9090536
100
AcDbLine
 10
362.95999999999975
 20
386.9
 30
0.0
 11
362.95999999999975
 21
373.4
 31
0.0
  0
LINE
  5
1A1
330
17
100
AcDbEntity
  8
LIQUID
420
9090536
100
AcDbLine
 10
369.72999999999973
 20
386.9
 30
0.0
 11
369.72999999999973
 21
373.4
 31
0.0
  0
LINE
  5
1A2
330
17
100
AcDbEntity
  8
LIQUID
420
9090536
100
AcDbLine
 10
376.4999999999997
 20
386.9
 30
0.0
 11
376.4999999999997
 21
373.4
 31
0.0
  0
LINE
  5
1A3
330
17
100
AcDbEntity
  8
LIQUID
420
9090536
100
AcDbLine
 10
383.2699999999997
 20
386.9
 30
0.0
 11
383.2699999999997
 21
373.4
 31
0.0
  0
LINE
  5
1A4
330
17
100
AcDbEntity
  8
LIQUID
420
9090536
100
AcDbLine
 10
390.0399999999997
 20
386.9
 30
0.0
 11
390.0399999999997
 21
373.4
 31
0.0
  0
LINE
  5
1A5
330
17
100
AcDbEntity
  8
LIQUID
420
9090536
100
AcDbLine
 10
396.80999999999966
 20
386.9
 30
0.0
 11
396.80999999999966
 21
373.4
 31
0.0
  0
LINE
  5
1A6
330
17
100
AcDbEntity
  8
LIQUID
420
9090536
100
AcDbLine
 10
403.57999999999964
 20
386.9
 30
0.0
 11
403.57999999999964
 21
373.4
 31
0.0
  0
LINE
  5
1A7
330
17
100
AcDbEntity
  8
LIQUID
420
9090536
100
AcDbLine
 10
410.3499999999996
 20
386.9
 30
0.0
 11
410.3499999999996
 21
373.4
 31
0.0
  0
LINE
  5
1A8
330
17
100
AcDbEntity
  8
LIQUID
420
9090536
100
AcDbLine
 10
417.1199999999996
 20
386.9
 30
0.0
 11
417.1199999999996
 21
373.4
 31
0.0
  0
LINE
  5
1A9
330
17
100
AcDbEntity
  8
LIQUID
420
9090536
100
AcDbLine
 10
423.8899999999996
 20
386.9
 30
0.0
 11
423.8899999999996
 21
373.4
 31
0.0
  0
LINE
  5
1AA
330
17
100
AcDbEntity
  8
LIQUID
420
9090536
100
AcDbLine
 10
430.65999999999957
 20
386.9
 30
0.0
 11
430.65999999999957
 21
373.4
 31
0.0
  0
LINE
  5
1AB
330
17
100
AcDbEntity
  8
LIQUID
420
9090536
100
AcDbLine
 10
437.42999999999955
 20
386.9
 30
0.0
 11
437.42999999999955
 21
373.4
 31
0.0
  0
LINE
  5
1AC
330
17
100
AcDbEntity
  8
LIQUID
420
9090536
100
AcDbLine
 10
444.19999999999953
 20
386.9
 30
0.0
 11
444.19999999999953
 21
373.4
 31
0.0
  0
LINE
  5
1AD
330
17
100
AcDbEntity
  8
LIQUID
420
9090536
100
AcDbLine
 10
450.9699999999995
 20
386.9
 30
0.0
 11
450.9699999999995
 21
373.4
 31
0.0
  0
LINE
  5
1AE
330
17
100
AcDbEntity
  8
LIQUID
420
9090536
100
AcDbLine
 10
457.7399999999995
 20
386.9
 30
0.0
 11
457.7399999999995
 21
373.4
 31
0.0
  0
LINE
  5
1AF
330
17
100
AcDbEntity
  8
LIQUID
420
9090536
100
AcDbLine
 10
464.5099999999995
 20
386.9
 30
0.0
 11
464.5099999999995
 21
373.4
 31
0.0
  0
LINE
  5
1B0
330
17
100
AcDbEntity
  8
LIQUID
420
9090536
100
AcDbLine
 10
471.27999999999946
 20
386.9
 30
0.0
 11
471.27999999999946
 21
373.4
 31
0.0
  0
LINE
  5
1B1
330
17
100
AcDbEntity
  8
LIQUID
420
9090536
100
AcDbLine
 10
478.04999999999944
 20
386.9
 30
0.0
 11
478.04999999999944
 21
373.4
 31
0.0
  0
LINE
  5
1B2
330
17
100
AcDbEntity
  8
LIQUID
420
9090536
100
AcDbLine
 10
484.8199999999994
 20
386.9
 30
0.0
 11
484.8199999999994
 21
373.4
 31
0.0
  0
LINE
  5
1B3
330
17
100
AcDbEntity
  8
LIQUID
420
9090536
100
AcDbLine
 10
491.5899999999994
 20
386.9
 30
0.0
 11
491.5899999999994
 21
373.4
 31
0.0
  0
LINE
  5
1B4
330
17
100
AcDbEntity
  8
LIQUID
420
9090536
100
AcDbLine
 10
498.3599999999994
 20
386.9
 30
0.0
 11
498.3599999999994
 21
373.4
 31
0.0
  0
LINE
  5
1B5
330
17
100
AcDbEntity
  8
LIQUID
420
9090536
100
AcDbLine
 10
505.12999999999937
 20
386.9
 30
0.0
 11
505.12999999999937
 21
373.4
 31
0.0
  0
LINE
  5
1B6
330
17
100
AcDbEntity
  8
LIQUID
420
9090536
100
AcDbLine
 10
511.89999999999935
 20
386.9
 30
0.0
 11
511.89999999999935
 21
373.4
 31
0.0
  0
LINE
  5
1B7
330
17
100
AcDbEntity
  8
LIQUID
420
9090536
100
AcDbLine
 10
518.6699999999994
 20
386.9
 30
0.0
 11
518.6699999999994
 21
373.4
 31
0.0
  0
LINE
  5
1B8
330
17
100
AcDbEntity
  8
LIQUID
420
9090536
100
AcDbLine
 10
525.4399999999994
 20
386.9
 30
0.0
 11
525.4399999999994
 21
373.4
 31
0.0
  0
LINE
  5
1B9
330
17
100
AcDbEntity
  8
LIQUID
420
9090536
100
AcDbLine
 10
532.2099999999994
 20
386.9
 30
0.0
 11
532.2099999999994
 21
373.4
 31
0.0
  0
LINE
  5
1BA
330
17
100
AcDbEntity
  8
LIQUID
420
9090536
100
AcDbLine
 10
538.9799999999993
 20
386.9
 30
0.0
 11
538.9799999999993
 21
373.4
 31
0.0
  0
LINE
  5
1BB
330
17
100
AcDbEntity
  8
LIQUID
420
9090536
100
AcDbLine
 10
545.7499999999993
 20
386.9
 30
0.0
 11
545.7499999999993
 21
373.4
 31
0.0
  0
LINE
  5
1BC
330
17
100
AcDbEntity
  8
LIQUID
420
9090536
100
AcDbLine
 10
552.5199999999993
 20
386.9
 30
0.0
 11
552.5199999999993
 21
373.4
 31
0.0
  0
LINE
  5
1BD
330
17
100
AcDbEntity
  8
LIQUID
420
9090536
100
AcDbLine
 10
559.2899999999993
 20
386.9
 30
0.0
 11
559.2899999999993
 21
373.4
 31
0.0
  0
LINE
  5
1BE
330
17
100
AcDbEntity
  8
LIQUID
420
9090536
100
AcDbLine
 10
566.0599999999993
 20
386.9
 30
0.0
 11
566.0599999999993
 21
373.4
 31
0.0
  0
LINE
  5
1BF
330
17
100
AcDbEntity
  8
LIQUID
420
9090536
100
AcDbLine
 10
572.8299999999992
 20
386.9
 30
0.0
 11
572.8299999999992
 21
373.4
 31
0.0
  0
LINE
  5
1C0
330
17
100
AcDbEntity
  8
LIQUID
420
9090536
100
AcDbLine
 10
579.5999999999992
 20
386.9
 30
0.0
 11
579.5999999999992
 21
373.4
 31
0.0
  0
LINE
  5
1C1
330
17
100
AcDbEntity
  8
LIQUID
420
9090536
100
AcDbLine
 10
586.3699999999992
 20
386.9
 30
0.0
 11
586.3699999999992
 21
373.4
 31
0.0
  0
LINE
  5
1C2
330
17
100
AcDbEntity
  8
LIQUID
420
9090536
100
AcDbLine
 10
593.1399999999992
 20
386.9
 30
0.0
 11
593.1399999999992
 21
373.4
 31
0.0
  0
LINE
  5
1C3
330
17
100
AcDbEntity
  8
LIQUID
420
9090536
100
AcDbLine
 10
599.9099999999992
 20
386.9
 30
0.0
 11
599.9099999999992
 21
373.4
 31
0.0
  0
LINE
  5
1C4
330
17
100
AcDbEntity
  8
LIQUID
420
9090536
100
AcDbLine
 10
606.6799999999992
 20
386.9
 30
0.0
 11
606.6799999999992
 21
373.4
 31
0.0
  0
LINE
  5
1C5
330
17
100
AcDbEntity
  8
LIQUID
420
9090536
100
AcDbLine
 10
613.4499999999991
 20
386.9
 30
0.0
 11
613.4499999999991
 21
373.4
 31
0.0
  0
LINE
  5
1C6
330
17
100
AcDbEntity
  8
LIQUID
420
9090536
100
AcDbLine
 10
620.2199999999991
 20
386.9
 30
0.0
 11
620.2199999999991
 21
373.4
 31
0.0
  0
LINE
  5
1C7
330
17
100
AcDbEntity
  8
LIQUID
420
9090536
100
AcDbLine
 10
626.9899999999991
 20
386.9
 30
0.0
 11
626.9899999999991
 21
373.4
 31
0.0
  0
LINE
  5
1C8
330
17
100
AcDbEntity
  8
LIQUID
420
9090536
100
AcDbLine
 10
633.7599999999991
 20
386.9
 30
0.0
 11
633.7599999999991
 21
373.4
 31
0.0
  0
LINE
  5
1C9
330
17
100
AcDbEntity
  8
LIQUID
420
9090536
100
AcDbLine
 10
640.5299999999991
 20
386.9
 30
0.0
 11
640.5299999999991
 21
373.4
 31
0.0
  0
LINE
  5
1CA
330
17
100
AcDbEntity
  8
LIQUID
420
9090536
100
AcDbLine
 10
647.299999999999
 20
386.9
 30
0.0
 11
647.299999999999
 21
373.4
 31
0.0
  0
LINE
  5
1CB
330
17
100
AcDbEntity
  8
LIQUID
420
9090536
100
AcDbLine
 10
654.069999999999
 20
386.9
 30
0.0
 11
654.069999999999
 21
373.4
 31
0.0
  0
LINE
  5
1CC
330
17
100
AcDbEntity
  8
DIM
  6
DASHED
100
AcDbLine
 10
157.5
 20
520.0
 30
0.0
 11
157.5
 21
372.4
 31
0.0
  0
LINE
  5
1CD
330
17
100
AcDbEntity
  8
DIM
  6
DASHED
100
AcDbLine
 10
194.4
 20
520.0
 30
0.0
 11
194.4
 21
372.4
 31
0.0
  0
LINE
  5
1CE
330
17
100
AcDbEntity
  8
DIM
  6
DASHED
100
AcDbLine
 10
228.2
 20
520.0
 30
0.0
 11
228.2
 21
372.4
 31
0.0
  0
LINE
  5
1CF
330
17
100
AcDbEntity
  8
DIM
  6
DASHED
100
AcDbLine
 10
671.0
 20
520.0
 30
0.0
 11
671.0
 21
372.4
 31
0.0
  0
LINE
  5
1D0
330
17
100
AcDbEntity
  8
DIM
  6
DASHED
100
AcDbLine
 10
707.9
 20
520.0
 30
0.0
 11
707.9
 21
372.4
 31
0.0
  0
HATCH
  5
1D1
330
17
100
AcDbEntity
  8
LIQUID
 62
7
420
14674937
100
AcDbHatch
 10
0.0
 20
0.0
 30
0.0
210
0.0
220
0.0
230
1.0
  2
SOLID
 70
1
 71
0
 91
1
 92
3
 72
0
 73
1
 93
4
 10
96.0
 20
453.6
 10
194.4
 20
453.6
 10
194.4
 20
438.79999999999995
 10
96.0
 20
438.79999999999995
 97
0
 75
0
 76
1
 98
0
  0
LWPOLYLINE
  5
1D2
330
17
100
AcDbEntity
  8
LIQUID
100
AcDbPolyline
 90
4
 70
1
 10
96.0
 20
453.6
 10
194.4
 20
453.6
 10
194.4
 20
438.79999999999995
 10
96.0
 20
438.79999999999995
  0
LINE
  5
1D3
330
17
100
AcDbEntity
  8
LIQUID
100
AcDbLine
 10
99.0
 20
446.2
 30
0.0
 11
114.0
 21
446.2
 31
0.0
  0
SOLID
  5
1D4
330
17
100
AcDbEntity
  8
LIQUID
100
AcDbTrace
 10
102.8
 20
451.79999999999995
 30
0.0
 11
115.4
 21
446.2
 31
0.0
 12
102.8
 22
440.6
 32
0.0
 13
102.8
 23
440.6
 33
0.0
  0
LINE
  5
1D5
330
17
100
AcDbEntity
  8
LIQUID
100
AcDbLine
 10
144.0
 20
446.2
 30
0.0
 11
157.0
 21
446.2
 31
0.0
  0
SOLID
  5
1D6
330
17
100
AcDbEntity
  8
LIQUID
100
AcDbTrace
 10
145.8
 20
451.79999999999995
 30
0.0
 11
158.4
 21
446.2
 31
0.0
 12
145.8
 22
440.6
 32
0.0
 13
145.8
 23
440.6
 33
0.0
  0
LWPOLYLINE
  5
1D7
330
17
100
AcDbEntity
  8
DUST
  6
DASHED
100
AcDbPolyline
 90
4
 70
1
 10
118.1
 20
459.1
 10
141.5
 20
459.1
 10
141.5
 20
433.29999999999995
 10
118.1
 20
433.29999999999995
  0
LWPOLYLINE
  5
1D8
330
17
100
AcDbEntity
  8
DUST
100
AcDbPolyline
 90
4
 70
1
 10
120.6
 20
456.7
 10
139.1
 20
456.7
 10
139.1
 20
435.79999999999995
 10
120.6
 20
435.79999999999995
  0
TEXT
  5
1D9
330
17
100
AcDbEntity
  8
TEXT_RU
420
10702494
100
AcDbText
 10
129.8
 20
448.0
 30
0.0
 40
4.41
  1
весы
  7
TXTRU
 72
1
 11
129.8
 21
448.0
 31
0.0
100
AcDbText
  0
TEXT
  5
1DA
330
17
100
AcDbEntity
  8
TEXT_RU
420
10702494
100
AcDbText
 10
129.8
 20
440.0
 30
0.0
 40
4.41
  1
3 т
  7
TXTRU
 72
1
 11
129.8
 21
440.0
 31
0.0
100
AcDbText
  0
LWPOLYLINE
  5
1DB
330
17
100
AcDbEntity
  8
INTERLOCK
100
AcDbPolyline
 90
4
 70
1
 10
108.3
 20
421.6
 10
145.2
 20
421.6
 10
145.2
 20
390.79999999999995
 10
108.3
 20
390.79999999999995
  0
TEXT
  5
1DC
330
17
100
AcDbEntity
  8
TEXT_RU
420
13646651
100
AcDbText
 10
126.8
 20
409.0
 30
0.0
 40
5.25
  1
разбра-
  7
TXTRU
 72
1
 11
126.8
 21
409.0
 31
0.0
100
AcDbText
  0
TEXT
  5
1DD
330
17
100
AcDbEntity
  8
TEXT_RU
420
13646651
100
AcDbText
 10
126.8
 20
399.5
 30
0.0
 40
5.25
  1
ковка
  7
TXTRU
 72
1
 11
126.8
 21
399.5
 31
0.0
100
AcDbText
  0
LINE
  5
1DE
330
17
100
AcDbEntity
  8
INTERLOCK
  6
DASHED
100
AcDbLine
 10
129.8
 20
433.0
 30
0.0
 11
129.8
 21
424.0
 31
0.0
  0
SOLID
  5
1DF
330
17
100
AcDbEntity
  8
INTERLOCK
100
AcDbTrace
 10
134.60000000000002
 20
433.6
 30
0.0
 11
129.8
 21
422.8
 31
0.0
 12
125.00000000000001
 22
433.6
 32
0.0
 13
125.00000000000001
 23
433.6
 33
0.0
  0
LWPOLYLINE
  5
1E0
330
17
100
AcDbEntity
  8
LIQUID
100
AcDbPolyline
 90
4
 70
1
 10
108.3
 20
501.6
 10
145.2
 20
501.6
 10
145.2
 20
470.79999999999995
 10
108.3
 20
470.79999999999995
  0
TEXT
  5
1E1
330
17
100
AcDbEntity
  8
TEXT_RU
420
2783446
100
AcDbText
 10
126.8
 20
489.5
 30
0.0
 40
5.25
  1
сверлов.
  7
TXTRU
 72
1
 11
126.8
 21
489.5
 31
0.0
100
AcDbText
  0
TEXT
  5
1E2
330
17
100
AcDbEntity
  8
TEXT_RU
420
2783446
100
AcDbText
 10
126.8
 20
480.0
 30
0.0
 40
5.25
  1
проб
  7
TXTRU
 72
1
 11
126.8
 21
480.0
 31
0.0
100
AcDbText
  0
LINE
  5
1E3
330
17
100
AcDbEntity
  8
LIQUID
  6
DASHED
100
AcDbLine
 10
126.8
 20
460.0
 30
0.0
 11
126.8
 21
469.0
 31
0.0
  0
SOLID
  5
1E4
330
17
100
AcDbEntity
  8
LIQUID
100
AcDbTrace
 10
122.39999999999999
 20
460.2
 30
0.0
 11
126.8
 21
470.1
 31
0.0
 12
131.2
 22
460.2
 32
0.0
 13
131.2
 23
460.2
 33
0.0
  0
LWPOLYLINE
  5
1E5
330
17
100
AcDbEntity
  8
LIQUID
100
AcDbPolyline
 90
4
 70
1
 10
160.6
 20
459.7
 10
191.4
 20
459.7
 10
191.4
 20
432.6
 10
160.6
 20
432.6
  0
TEXT
  5
1E6
330
17
100
AcDbEntity
  8
TEXT_RU
420
2783446
100
AcDbText
 10
175.9
 20
450.0
 30
0.0
 40
4.41
  1
увязка
  7
TXTRU
 72
1
 11
175.9
 21
450.0
 31
0.0
100
AcDbText
  0
TEXT
  5
1E7
330
17
100
AcDbEntity
  8
TEXT_RU
420
2783446
100
AcDbText
 10
175.9
 20
442.0
 30
0.0
 40
4.41
  1
маркир.
  7
TXTRU
 72
1
 11
175.9
 21
442.0
 31
0.0
100
AcDbText
  0
LWPOLYLINE
  5
1E8
330
17
100
AcDbEntity
  8
ELECTRIC
  6
DASHED
100
AcDbPolyline
 90
4
 70
1
 10
157.5
 20
507.7
 10
191.3
 20
507.7
 10
191.3
 20
473.9
 10
157.5
 20
473.9
  0
LINE
  5
1E9
330
17
100
AcDbEntity
  8
DIM
100
AcDbLine
 10
174.4
 20
507.7
 30
0.0
 11
174.4
 21
523.0
 31
0.0
  0
TEXT
  5
1EA
330
17
100
AcDbEntity
  8
TEXT_RU
100
AcDbText
 10
105.0
 20
526.0
 30
0.0
 40
5.25
  1
зарядная · операторская (уточняется)
  7
TXTRU
 11
105.0
 21
526.0
 31
0.0
100
AcDbText
  0
TEXT
  5
1EB
330
17
100
AcDbEntity
  8
TEXT_RU
100
AcDbText
 10
200.0
 20
404.0
 30
0.0
 40
5.6
  1
магистральный
 50
90.0
  7
TXTRU
 72
1
 11
200.0
 21
404.0
 31
0.0
100
AcDbText
  0
TEXT
  5
1EC
330
17
100
AcDbEntity
  8
TEXT_RU
100
AcDbText
 10
210.0
 20
404.0
 30
0.0
 40
5.6
  1
проезд 4,5–6 м
 50
90.0
  7
TXTRU
 72
1
 11
210.0
 21
404.0
 31
0.0
100
AcDbText
  0
TEXT
  5
1ED
330
17
100
AcDbEntity
  8
TEXT_RU
100
AcDbText
 10
449.6
 20
506.5
 30
0.0
 40
5.6
  1
проезд штабелёров 3,5–4,0 м · фронтальный штабелёр г/п 3,2–5 т (пакет 1×1 м)
  7
TXTRU
 72
1
 11
449.6
 21
506.5
 31
0.0
100
AcDbText
  0
TEXT
  5
1EE
330
17
100
AcDbEntity
  8
TEXT_RU
100
AcDbText
 10
460.0
 20
431.5
 30
0.0
 40
5.6
  1
проезд штабелёров 3,5–4,0 м
  7
TXTRU
 72
1
 11
460.0
 21
431.5
 31
0.0
100
AcDbText
  0
LWPOLYLINE
  5
1EF
330
17
100
AcDbEntity
  8
OUTLINE
100
AcDbPolyline
 90
4
 70
1
 10
264.0
 20
440.0
 10
280.0
 20
440.0
 10
280.0
 20
428.0
 10
264.0
 20
428.0
  0
LINE
  5
1F0
330
17
100
AcDbEntity
  8
OUTLINE
100
AcDbLine
 10
280.0
 20
442.0
 30
0.0
 11
280.0
 21
426.0
 31
0.0
  0
LINE
  5
1F1
330
17
100
AcDbEntity
  8
OUTLINE
100
AcDbLine
 10
281.0
 20
436.0
 30
0.0
 11
290.0
 21
436.0
 31
0.0
  0
LINE
  5
1F2
330
17
100
AcDbEntity
  8
OUTLINE
100
AcDbLine
 10
281.0
 20
430.0
 30
0.0
 11
290.0
 21
430.0
 31
0.0
  0
TEXT
  5
1F3
330
17
100
AcDbEntity
  8
TEXT_RU
100
AcDbText
 10
686.0
 20
462.0
 30
0.0
 40
5.25
  1
комплектация
 50
90.0
  7
TXTRU
 72
1
 11
686.0
 21
462.0
 31
0.0
100
AcDbText
  0
TEXT
  5
1F4
330
17
100
AcDbEntity
  8
TEXT_RU
100
AcDbText
 10
697.0
 20
462.0
 30
0.0
 40
5.25
  1
партии
 50
90.0
  7
TXTRU
 72
1
 11
697.0
 21
462.0
 31
0.0
100
AcDbText
  0
LINE
  5
1F5
330
17
100
AcDbEntity
  8
OUTLINE
100
AcDbLine
 10
712.0
 20
504.0
 30
0.0
 11
712.0
 21
488.0
 31
0.0
  0
LINE
  5
1F6
330
17
100
AcDbEntity
  8
OUTLINE
100
AcDbLine
 10
712.0
 20
500.3
 30
0.0
 11
1141.0
 21
500.3
 31
0.0
  0
LINE
  5
1F7
330
17
100
AcDbEntity
  8
OUTLINE
100
AcDbLine
 10
712.0
 20
491.0
 30
0.0
 11
1141.0
 21
491.0
 31
0.0
  0
LWPOLYLINE
  5
1F8
330
17
100
AcDbEntity
  8
OUTLINE
100
AcDbPolyline
 90
4
 70
1
 10
723.3
 20
505.5
 10
806.3
 20
505.5
 10
806.3
 20
485.8
 10
723.3
 20
485.8
  0
LWPOLYLINE
  5
1F9
330
17
100
AcDbEntity
  8
OUTLINE
100
AcDbPolyline
 90
4
 70
1
 10
815.6
 20
505.5
 10
898.6
 20
505.5
 10
898.6
 20
485.8
 10
815.6
 20
485.8
  0
LWPOLYLINE
  5
1FA
330
17
100
AcDbEntity
  8
OUTLINE
100
AcDbPolyline
 90
4
 70
1
 10
907.8
 20
505.5
 10
990.8
 20
505.5
 10
990.8
 20
485.8
 10
907.8
 20
485.8
  0
LWPOLYLINE
  5
1FB
330
17
100
AcDbEntity
  8
OUTLINE
100
AcDbPolyline
 90
4
 70
1
 10
993.9
 20
505.5
 10
1067.7
 20
505.5
 10
1067.7
 20
485.8
 10
993.9
 20
485.8
  0
LWPOLYLINE
  5
1FC
330
17
100
AcDbEntity
  8
DUST
  6
DASHED
100
AcDbPolyline
 90
4
 70
1
 10
987.8
 20
512.6
 10
1070.8
 20
512.6
 10
1070.8
 20
473.2
 10
987.8
 20
473.2
  0
TEXT
  5
1FD
330
17
100
AcDbEntity
  8
TEXT_RU
420
10702494
100
AcDbText
 10
1070.0
 20
464.5
 30
0.0
 40
5.46
  1
вагонные весы
  7
TXTRU
 72
2
 11
1070.0
 21
464.5
 31
0.0
100
AcDbText
  0
TEXT
  5
1FE
330
17
100
AcDbEntity
  8
TEXT_RU
100
AcDbText
 10
1070.0
 20
456.5
 30
0.0
 40
5.25
  1
отдельный фундамент (Прил. №5)
  7
TXTRU
 72
2
 11
1070.0
 21
456.5
 31
0.0
100
AcDbText
  0
TEXT
  5
1FF
330
17
100
AcDbEntity
  8
TEXT_RU
100
AcDbText
 10
745.0
 20
472.6
 30
0.0
 40
5.6
  1
полувагон: 27 пакетов = 67,5 т
  7
TXTRU
 11
745.0
 21
472.6
 31
0.0
100
AcDbText
  0
TEXT
  5
200
330
17
100
AcDbEntity
  8
TEXT_RU
100
AcDbText
 10
745.0
 20
462.8
 30
0.0
 40
5.6
  1
отгрузка 84 пак./сут ≈ 3 полувагона/сут
  7
TXTRU
 11
745.0
 21
462.8
 31
0.0
100
AcDbText
  0
TEXT
  5
201
330
17
100
AcDbEntity
  8
TEXT_RU
420
13646651
100
AcDbText
 10
745.0
 20
445.0
 30
0.0
 40
5.6
  1
мостовой кран с траверсой — вариант полувагонов (уточняется)
  7
TXTRU
 11
745.0
 21
445.0
 31
0.0
100
AcDbText
  0
LINE
  5
202
330
17
100
AcDbEntity
  8
INTERLOCK
  6
DASHED
100
AcDbLine
 10
735.0
 20
512.0
 30
0.0
 11
735.0
 21
380.0
 31
0.0
  0
LWPOLYLINE
  5
203
330
17
100
AcDbEntity
  8
OUTLINE
100
AcDbPolyline
 90
4
 70
1
 10
96.0
 20
520.0
 10
1076.9
 20
520.0
 10
1076.9
 20
372.4
 10
96.0
 20
372.4
  0
HATCH
  5
204
330
17
100
AcDbEntity
  8
OUTLINE
 62
7
100
AcDbHatch
 10
0.0
 20
0.0
 30
0.0
210
0.0
220
0.0
230
1.0
  2
SOLID
 70
1
 71
0
 91
1
 92
3
 72
0
 73
1
 93
4
 10
93.9
 20
522.1
 10
98.10000000000001
 20
522.1
 10
98.10000000000001
 20
517.9
 10
93.9
 20
517.9
 97
0
 75
0
 76
1
 98
0
  0
HATCH
  5
205
330
17
100
AcDbEntity
  8
OUTLINE
 62
7
100
AcDbHatch
 10
0.0
 20
0.0
 30
0.0
210
0.0
220
0.0
230
1.0
  2
SOLID
 70
1
 71
0
 91
1
 92
3
 72
0
 73
1
 93
4
 10
93.9
 20
374.5
 10
98.10000000000001
 20
374.5
 10
98.10000000000001
 20
370.3
 10
93.9
 20
370.3
 97
0
 75
0
 76
1
 98
0
  0
HATCH
  5
206
330
17
100
AcDbEntity
  8
OUTLINE
 62
7
100
AcDbHatch
 10
0.0
 20
0.0
 30
0.0
210
0.0
220
0.0
230
1.0
  2
SOLID
 70
1
 71
0
 91
1
 92
3
 72
0
 73
1
 93
4
 10
130.8
 20
522.1
 10
135.0
 20
522.1
 10
135.0
 20
517.9
 10
130.8
 20
517.9
 97
0
 75
0
 76
1
 98
0
  0
HATCH
  5
207
330
17
100
AcDbEntity
  8
OUTLINE
 62
7
100
AcDbHatch
 10
0.0
 20
0.0
 30
0.0
210
0.0
220
0.0
230
1.0
  2
SOLID
 70
1
 71
0
 91
1
 92
3
 72
0
 73
1
 93
4
 10
130.8
 20
374.5
 10
135.0
 20
374.5
 10
135.0
 20
370.3
 10
130.8
 20
370.3
 97
0
 75
0
 76
1
 98
0
  0
HATCH
  5
208
330
17
100
AcDbEntity
  8
OUTLINE
 62
7
100
AcDbHatch
 10
0.0
 20
0.0
 30
0.0
210
0.0
220
0.0
230
1.0
  2
SOLID
 70
1
 71
0
 91
1
 92
3
 72
0
 73
1
 93
4
 10
167.70000000000002
 20
522.1
 10
171.9
 20
522.1
 10
171.9
 20
517.9
 10
167.70000000000002
 20
517.9
 97
0
 75
0
 76
1
 98
0
  0
HATCH
  5
209
330
17
100
AcDbEntity
  8
OUTLINE
 62
7
100
AcDbHatch
 10
0.0
 20
0.0
 30
0.0
210
0.0
220
0.0
230
1.0
  2
SOLID
 70
1
 71
0
 91
1
 92
3
 72
0
 73
1
 93
4
 10
167.70000000000002
 20
374.5
 10
171.9
 20
374.5
 10
171.9
 20
370.3
 10
167.70000000000002
 20
370.3
 97
0
 75
0
 76
1
 98
0
  0
HATCH
  5
20A
330
17
100
AcDbEntity
  8
OUTLINE
 62
7
100
AcDbHatch
 10
0.0
 20
0.0
 30
0.0
210
0.0
220
0.0
230
1.0
  2
SOLID
 70
1
 71
0
 91
1
 92
3
 72
0
 73
1
 93
4
 10
204.6
 20
522.1
 10
208.79999999999998
 20
522.1
 10
208.79999999999998
 20
517.9
 10
204.6
 20
517.9
 97
0
 75
0
 76
1
 98
0
  0
HATCH
  5
20B
330
17
100
AcDbEntity
  8
OUTLINE
 62
7
100
AcDbHatch
 10
0.0
 20
0.0
 30
0.0
210
0.0
220
0.0
230
1.0
  2
SOLID
 70
1
 71
0
 91
1
 92
3
 72
0
 73
1
 93
4
 10
204.6
 20
374.5
 10
208.79999999999998
 20
374.5
 10
208.79999999999998
 20
370.3
 10
204.6
 20
370.3
 97
0
 75
0
 76
1
 98
0
  0
HATCH
  5
20C
330
17
100
AcDbEntity
  8
OUTLINE
 62
7
100
AcDbHatch
 10
0.0
 20
0.0
 30
0.0
210
0.0
220
0.0
230
1.0
  2
SOLID
 70
1
 71
0
 91
1
 92
3
 72
0
 73
1
 93
4
 10
241.5
 20
522.1
 10
245.7
 20
522.1
 10
245.7
 20
517.9
 10
241.5
 20
517.9
 97
0
 75
0
 76
1
 98
0
  0
HATCH
  5
20D
330
17
100
AcDbEntity
  8
OUTLINE
 62
7
100
AcDbHatch
 10
0.0
 20
0.0
 30
0.0
210
0.0
220
0.0
230
1.0
  2
SOLID
 70
1
 71
0
 91
1
 92
3
 72
0
 73
1
 93
4
 10
241.5
 20
374.5
 10
245.7
 20
374.5
 10
245.7
 20
370.3
 10
241.5
 20
370.3
 97
0
 75
0
 76
1
 98
0
  0
HATCH
  5
20E
330
17
100
AcDbEntity
  8
OUTLINE
 62
7
100
AcDbHatch
 10
0.0
 20
0.0
 30
0.0
210
0.0
220
0.0
230
1.0
  2
SOLID
 70
1
 71
0
 91
1
 92
3
 72
0
 73
1
 93
4
 10
278.4
 20
522.1
 10
282.59999999999997
 20
522.1
 10
282.59999999999997
 20
517.9
 10
278.4
 20
517.9
 97
0
 75
0
 76
1
 98
0
  0
HATCH
  5
20F
330
17
100
AcDbEntity
  8
OUTLINE
 62
7
100
AcDbHatch
 10
0.0
 20
0.0
 30
0.0
210
0.0
220
0.0
230
1.0
  2
SOLID
 70
1
 71
0
 91
1
 92
3
 72
0
 73
1
 93
4
 10
278.4
 20
374.5
 10
282.59999999999997
 20
374.5
 10
282.59999999999997
 20
370.3
 10
278.4
 20
370.3
 97
0
 75
0
 76
1
 98
0
  0
HATCH
  5
210
330
17
100
AcDbEntity
  8
OUTLINE
 62
7
100
AcDbHatch
 10
0.0
 20
0.0
 30
0.0
210
0.0
220
0.0
230
1.0
  2
SOLID
 70
1
 71
0
 91
1
 92
3
 72
0
 73
1
 93
4
 10
315.29999999999995
 20
522.1
 10
319.49999999999994
 20
522.1
 10
319.49999999999994
 20
517.9
 10
315.29999999999995
 20
517.9
 97
0
 75
0
 76
1
 98
0
  0
HATCH
  5
211
330
17
100
AcDbEntity
  8
OUTLINE
 62
7
100
AcDbHatch
 10
0.0
 20
0.0
 30
0.0
210
0.0
220
0.0
230
1.0
  2
SOLID
 70
1
 71
0
 91
1
 92
3
 72
0
 73
1
 93
4
 10
315.29999999999995
 20
374.5
 10
319.49999999999994
 20
374.5
 10
319.49999999999994
 20
370.3
 10
315.29999999999995
 20
370.3
 97
0
 75
0
 76
1
 98
0
  0
HATCH
  5
212
330
17
100
AcDbEntity
  8
OUTLINE
 62
7
100
AcDbHatch
 10
0.0
 20
0.0
 30
0.0
210
0.0
220
0.0
230
1.0
  2
SOLID
 70
1
 71
0
 91
1
 92
3
 72
0
 73
1
 93
4
 10
352.2
 20
522.1
 10
356.4
 20
522.1
 10
356.4
 20
517.9
 10
352.2
 20
517.9
 97
0
 75
0
 76
1
 98
0
  0
HATCH
  5
213
330
17
100
AcDbEntity
  8
OUTLINE
 62
7
100
AcDbHatch
 10
0.0
 20
0.0
 30
0.0
210
0.0
220
0.0
230
1.0
  2
SOLID
 70
1
 71
0
 91
1
 92
3
 72
0
 73
1
 93
4
 10
352.2
 20
374.5
 10
356.4
 20
374.5
 10
356.4
 20
370.3
 10
352.2
 20
370.3
 97
0
 75
0
 76
1
 98
0
  0
HATCH
  5
214
330
17
100
AcDbEntity
  8
OUTLINE
 62
7
100
AcDbHatch
 10
0.0
 20
0.0
 30
0.0
210
0.0
220
0.0
230
1.0
  2
SOLID
 70
1
 71
0
 91
1
 92
3
 72
0
 73
1
 93
4
 10
389.09999999999997
 20
522.1
 10
393.29999999999995
 20
522.1
 10
393.29999999999995
 20
517.9
 10
389.09999999999997
 20
517.9
 97
0
 75
0
 76
1
 98
0
  0
HATCH
  5
215
330
17
100
AcDbEntity
  8
OUTLINE
 62
7
100
AcDbHatch
 10
0.0
 20
0.0
 30
0.0
210
0.0
220
0.0
230
1.0
  2
SOLID
 70
1
 71
0
 91
1
 92
3
 72
0
 73
1
 93
4
 10
389.09999999999997
 20
374.5
 10
393.29999999999995
 20
374.5
 10
393.29999999999995
 20
370.3
 10
389.09999999999997
 20
370.3
 97
0
 75
0
 76
1
 98
0
  0
HATCH
  5
216
330
17
100
AcDbEntity
  8
OUTLINE
 62
7
100
AcDbHatch
 10
0.0
 20
0.0
 30
0.0
210
0.0
220
0.0
230
1.0
  2
SOLID
 70
1
 71
0
 91
1
 92
3
 72
0
 73
1
 93
4
 10
426.0
 20
522.1
 10
430.2
 20
522.1
 10
430.2
 20
517.9
 10
426.0
 20
517.9
 97
0
 75
0
 76
1
 98
0
  0
HATCH
  5
217
330
17
100
AcDbEntity
  8
OUTLINE
 62
7
100
AcDbHatch
 10
0.0
 20
0.0
 30
0.0
210
0.0
220
0.0
230
1.0
  2
SOLID
 70
1
 71
0
 91
1
 92
3
 72
0
 73
1
 93
4
 10
426.0
 20
374.5
 10
430.2
 20
374.5
 10
430.2
 20
370.3
 10
426.0
 20
370.3
 97
0
 75
0
 76
1
 98
0
  0
HATCH
  5
218
330
17
100
AcDbEntity
  8
OUTLINE
 62
7
100
AcDbHatch
 10
0.0
 20
0.0
 30
0.0
210
0.0
220
0.0
230
1.0
  2
SOLID
 70
1
 71
0
 91
1
 92
3
 72
0
 73
1
 93
4
 10
462.9
 20
522.1
 10
467.09999999999997
 20
522.1
 10
467.09999999999997
 20
517.9
 10
462.9
 20
517.9
 97
0
 75
0
 76
1
 98
0
  0
HATCH
  5
219
330
17
100
AcDbEntity
  8
OUTLINE
 62
7
100
AcDbHatch
 10
0.0
 20
0.0
 30
0.0
210
0.0
220
0.0
230
1.0
  2
SOLID
 70
1
 71
0
 91
1
 92
3
 72
0
 73
1
 93
4
 10
462.9
 20
374.5
 10
467.09999999999997
 20
374.5
 10
467.09999999999997
 20
370.3
 10
462.9
 20
370.3
 97
0
 75
0
 76
1
 98
0
  0
HATCH
  5
21A
330
17
100
AcDbEntity
  8
OUTLINE
 62
7
100
AcDbHatch
 10
0.0
 20
0.0
 30
0.0
210
0.0
220
0.0
230
1.0
  2
SOLID
 70
1
 71
0
 91
1
 92
3
 72
0
 73
1
 93
4
 10
499.79999999999995
 20
522.1
 10
503.99999999999994
 20
522.1
 10
503.99999999999994
 20
517.9
 10
499.79999999999995
 20
517.9
 97
0
 75
0
 76
1
 98
0
  0
HATCH
  5
21B
330
17
100
AcDbEntity
  8
OUTLINE
 62
7
100
AcDbHatch
 10
0.0
 20
0.0
 30
0.0
210
0.0
220
0.0
230
1.0
  2
SOLID
 70
1
 71
0
 91
1
 92
3
 72
0
 73
1
 93
4
 10
499.79999999999995
 20
374.5
 10
503.99999999999994
 20
374.5
 10
503.99999999999994
 20
370.3
 10
499.79999999999995
 20
370.3
 97
0
 75
0
 76
1
 98
0
  0
HATCH
  5
21C
330
17
100
AcDbEntity
  8
OUTLINE
 62
7
100
AcDbHatch
 10
0.0
 20
0.0
 30
0.0
210
0.0
220
0.0
230
1.0
  2
SOLID
 70
1
 71
0
 91
1
 92
3
 72
0
 73
1
 93
4
 10
536.6999999999999
 20
522.1
 10
540.9
 20
522.1
 10
540.9
 20
517.9
 10
536.6999999999999
 20
517.9
 97
0
 75
0
 76
1
 98
0
  0
HATCH
  5
21D
330
17
100
AcDbEntity
  8
OUTLINE
 62
7
100
AcDbHatch
 10
0.0
 20
0.0
 30
0.0
210
0.0
220
0.0
230
1.0
  2
SOLID
 70
1
 71
0
 91
1
 92
3
 72
0
 73
1
 93
4
 10
536.6999999999999
 20
374.5
 10
540.9
 20
374.5
 10
540.9
 20
370.3
 10
536.6999999999999
 20
370.3
 97
0
 75
0
 76
1
 98
0
  0
HATCH
  5
21E
330
17
100
AcDbEntity
  8
OUTLINE
 62
7
100
AcDbHatch
 10
0.0
 20
0.0
 30
0.0
210
0.0
220
0.0
230
1.0
  2
SOLID
 70
1
 71
0
 91
1
 92
3
 72
0
 73
1
 93
4
 10
573.6
 20
522.1
 10
577.8000000000001
 20
522.1
 10
577.8000000000001
 20
517.9
 10
573.6
 20
517.9
 97
0
 75
0
 76
1
 98
0
  0
HATCH
  5
21F
330
17
100
AcDbEntity
  8
OUTLINE
 62
7
100
AcDbHatch
 10
0.0
 20
0.0
 30
0.0
210
0.0
220
0.0
230
1.0
  2
SOLID
 70
1
 71
0
 91
1
 92
3
 72
0
 73
1
 93
4
 10
573.6
 20
374.5
 10
577.8000000000001
 20
374.5
 10
577.8000000000001
 20
370.3
 10
573.6
 20
370.3
 97
0
 75
0
 76
1
 98
0
  0
HATCH
  5
220
330
17
100
AcDbEntity
  8
OUTLINE
 62
7
100
AcDbHatch
 10
0.0
 20
0.0
 30
0.0
210
0.0
220
0.0
230
1.0
  2
SOLID
 70
1
 71
0
 91
1
 92
3
 72
0
 73
1
 93
4
 10
610.5
 20
522.1
 10
614.7
 20
522.1
 10
614.7
 20
517.9
 10
610.5
 20
517.9
 97
0
 75
0
 76
1
 98
0
  0
HATCH
  5
221
330
17
100
AcDbEntity
  8
OUTLINE
 62
7
100
AcDbHatch
 10
0.0
 20
0.0
 30
0.0
210
0.0
220
0.0
230
1.0
  2
SOLID
 70
1
 71
0
 91
1
 92
3
 72
0
 73
1
 93
4
 10
610.5
 20
374.5
 10
614.7
 20
374.5
 10
614.7
 20
370.3
 10
610.5
 20
370.3
 97
0
 75
0
 76
1
 98
0
  0
HATCH
  5
222
330
17
100
AcDbEntity
  8
OUTLINE
 62
7
100
AcDbHatch
 10
0.0
 20
0.0
 30
0.0
210
0.0
220
0.0
230
1.0
  2
SOLID
 70
1
 71
0
 91
1
 92
3
 72
0
 73
1
 93
4
 10
647.4
 20
522.1
 10
651.6
 20
522.1
 10
651.6
 20
517.9
 10
647.4
 20
517.9
 97
0
 75
0
 76
1
 98
0
  0
HATCH
  5
223
330
17
100
AcDbEntity
  8
OUTLINE
 62
7
100
AcDbHatch
 10
0.0
 20
0.0
 30
0.0
210
0.0
220
0.0
230
1.0
  2
SOLID
 70
1
 71
0
 91
1
 92
3
 72
0
 73
1
 93
4
 10
647.4
 20
374.5
 10
651.6
 20
374.5
 10
651.6
 20
370.3
 10
647.4
 20
370.3
 97
0
 75
0
 76
1
 98
0
  0
HATCH
  5
224
330
17
100
AcDbEntity
  8
OUTLINE
 62
7
100
AcDbHatch
 10
0.0
 20
0.0
 30
0.0
210
0.0
220
0.0
230
1.0
  2
SOLID
 70
1
 71
0
 91
1
 92
3
 72
0
 73
1
 93
4
 10
684.3
 20
522.1
 10
688.5
 20
522.1
 10
688.5
 20
517.9
 10
684.3
 20
517.9
 97
0
 75
0
 76
1
 98
0
  0
HATCH
  5
225
330
17
100
AcDbEntity
  8
OUTLINE
 62
7
100
AcDbHatch
 10
0.0
 20
0.0
 30
0.0
210
0.0
220
0.0
230
1.0
  2
SOLID
 70
1
 71
0
 91
1
 92
3
 72
0
 73
1
 93
4
 10
684.3
 20
374.5
 10
688.5
 20
374.5
 10
688.5
 20
370.3
 10
684.3
 20
370.3
 97
0
 75
0
 76
1
 98
0
  0
HATCH
  5
226
330
17
100
AcDbEntity
  8
OUTLINE
 62
7
100
AcDbHatch
 10
0.0
 20
0.0
 30
0.0
210
0.0
220
0.0
230
1.0
  2
SOLID
 70
1
 71
0
 91
1
 92
3
 72
0
 73
1
 93
4
 10
721.1999999999999
 20
522.1
 10
725.4
 20
522.1
 10
725.4
 20
517.9
 10
721.1999999999999
 20
517.9
 97
0
 75
0
 76
1
 98
0
  0
HATCH
  5
227
330
17
100
AcDbEntity
  8
OUTLINE
 62
7
100
AcDbHatch
 10
0.0
 20
0.0
 30
0.0
210
0.0
220
0.0
230
1.0
  2
SOLID
 70
1
 71
0
 91
1
 92
3
 72
0
 73
1
 93
4
 10
721.1999999999999
 20
374.5
 10
725.4
 20
374.5
 10
725.4
 20
370.3
 10
721.1999999999999
 20
370.3
 97
0
 75
0
 76
1
 98
0
  0
HATCH
  5
228
330
17
100
AcDbEntity
  8
OUTLINE
 62
7
100
AcDbHatch
 10
0.0
 20
0.0
 30
0.0
210
0.0
220
0.0
230
1.0
  2
SOLID
 70
1
 71
0
 91
1
 92
3
 72
0
 73
1
 93
4
 10
758.1
 20
522.1
 10
762.3000000000001
 20
522.1
 10
762.3000000000001
 20
517.9
 10
758.1
 20
517.9
 97
0
 75
0
 76
1
 98
0
  0
HATCH
  5
229
330
17
100
AcDbEntity
  8
OUTLINE
 62
7
100
AcDbHatch
 10
0.0
 20
0.0
 30
0.0
210
0.0
220
0.0
230
1.0
  2
SOLID
 70
1
 71
0
 91
1
 92
3
 72
0
 73
1
 93
4
 10
758.1
 20
374.5
 10
762.3000000000001
 20
374.5
 10
762.3000000000001
 20
370.3
 10
758.1
 20
370.3
 97
0
 75
0
 76
1
 98
0
  0
HATCH
  5
22A
330
17
100
AcDbEntity
  8
OUTLINE
 62
7
100
AcDbHatch
 10
0.0
 20
0.0
 30
0.0
210
0.0
220
0.0
230
1.0
  2
SOLID
 70
1
 71
0
 91
1
 92
3
 72
0
 73
1
 93
4
 10
795.0
 20
522.1
 10
799.2
 20
522.1
 10
799.2
 20
517.9
 10
795.0
 20
517.9
 97
0
 75
0
 76
1
 98
0
  0
HATCH
  5
22B
330
17
100
AcDbEntity
  8
OUTLINE
 62
7
100
AcDbHatch
 10
0.0
 20
0.0
 30
0.0
210
0.0
220
0.0
230
1.0
  2
SOLID
 70
1
 71
0
 91
1
 92
3
 72
0
 73
1
 93
4
 10
795.0
 20
374.5
 10
799.2
 20
374.5
 10
799.2
 20
370.3
 10
795.0
 20
370.3
 97
0
 75
0
 76
1
 98
0
  0
HATCH
  5
22C
330
17
100
AcDbEntity
  8
OUTLINE
 62
7
100
AcDbHatch
 10
0.0
 20
0.0
 30
0.0
210
0.0
220
0.0
230
1.0
  2
SOLID
 70
1
 71
0
 91
1
 92
3
 72
0
 73
1
 93
4
 10
831.9
 20
522.1
 10
836.1
 20
522.1
 10
836.1
 20
517.9
 10
831.9
 20
517.9
 97
0
 75
0
 76
1
 98
0
  0
HATCH
  5
22D
330
17
100
AcDbEntity
  8
OUTLINE
 62
7
100
AcDbHatch
 10
0.0
 20
0.0
 30
0.0
210
0.0
220
0.0
230
1.0
  2
SOLID
 70
1
 71
0
 91
1
 92
3
 72
0
 73
1
 93
4
 10
831.9
 20
374.5
 10
836.1
 20
374.5
 10
836.1
 20
370.3
 10
831.9
 20
370.3
 97
0
 75
0
 76
1
 98
0
  0
HATCH
  5
22E
330
17
100
AcDbEntity
  8
OUTLINE
 62
7
100
AcDbHatch
 10
0.0
 20
0.0
 30
0.0
210
0.0
220
0.0
230
1.0
  2
SOLID
 70
1
 71
0
 91
1
 92
3
 72
0
 73
1
 93
4
 10
868.8
 20
522.1
 10
873.0
 20
522.1
 10
873.0
 20
517.9
 10
868.8
 20
517.9
 97
0
 75
0
 76
1
 98
0
  0
HATCH
  5
22F
330
17
100
AcDbEntity
  8
OUTLINE
 62
7
100
AcDbHatch
 10
0.0
 20
0.0
 30
0.0
210
0.0
220
0.0
230
1.0
  2
SOLID
 70
1
 71
0
 91
1
 92
3
 72
0
 73
1
 93
4
 10
868.8
 20
374.5
 10
873.0
 20
374.5
 10
873.0
 20
370.3
 10
868.8
 20
370.3
 97
0
 75
0
 76
1
 98
0
  0
HATCH
  5
230
330
17
100
AcDbEntity
  8
OUTLINE
 62
7
100
AcDbHatch
 10
0.0
 20
0.0
 30
0.0
210
0.0
220
0.0
230
1.0
  2
SOLID
 70
1
 71
0
 91
1
 92
3
 72
0
 73
1
 93
4
 10
905.6999999999999
 20
522.1
 10
909.9
 20
522.1
 10
909.9
 20
517.9
 10
905.6999999999999
 20
517.9
 97
0
 75
0
 76
1
 98
0
  0
HATCH
  5
231
330
17
100
AcDbEntity
  8
OUTLINE
 62
7
100
AcDbHatch
 10
0.0
 20
0.0
 30
0.0
210
0.0
220
0.0
230
1.0
  2
SOLID
 70
1
 71
0
 91
1
 92
3
 72
0
 73
1
 93
4
 10
905.6999999999999
 20
374.5
 10
909.9
 20
374.5
 10
909.9
 20
370.3
 10
905.6999999999999
 20
370.3
 97
0
 75
0
 76
1
 98
0
  0
HATCH
  5
232
330
17
100
AcDbEntity
  8
OUTLINE
 62
7
100
AcDbHatch
 10
0.0
 20
0.0
 30
0.0
210
0.0
220
0.0
230
1.0
  2
SOLID
 70
1
 71
0
 91
1
 92
3
 72
0
 73
1
 93
4
 10
942.6
 20
522.1
 10
946.8000000000001
 20
522.1
 10
946.8000000000001
 20
517.9
 10
942.6
 20
517.9
 97
0
 75
0
 76
1
 98
0
  0
HATCH
  5
233
330
17
100
AcDbEntity
  8
OUTLINE
 62
7
100
AcDbHatch
 10
0.0
 20
0.0
 30
0.0
210
0.0
220
0.0
230
1.0
  2
SOLID
 70
1
 71
0
 91
1
 92
3
 72
0
 73
1
 93
4
 10
942.6
 20
374.5
 10
946.8000000000001
 20
374.5
 10
946.8000000000001
 20
370.3
 10
942.6
 20
370.3
 97
0
 75
0
 76
1
 98
0
  0
HATCH
  5
234
330
17
100
AcDbEntity
  8
OUTLINE
 62
7
100
AcDbHatch
 10
0.0
 20
0.0
 30
0.0
210
0.0
220
0.0
230
1.0
  2
SOLID
 70
1
 71
0
 91
1
 92
3
 72
0
 73
1
 93
4
 10
979.5
 20
522.1
 10
983.7
 20
522.1
 10
983.7
 20
517.9
 10
979.5
 20
517.9
 97
0
 75
0
 76
1
 98
0
  0
HATCH
  5
235
330
17
100
AcDbEntity
  8
OUTLINE
 62
7
100
AcDbHatch
 10
0.0
 20
0.0
 30
0.0
210
0.0
220
0.0
230
1.0
  2
SOLID
 70
1
 71
0
 91
1
 92
3
 72
0
 73
1
 93
4
 10
979.5
 20
374.5
 10
983.7
 20
374.5
 10
983.7
 20
370.3
 10
979.5
 20
370.3
 97
0
 75
0
 76
1
 98
0
  0
HATCH
  5
236
330
17
100
AcDbEntity
  8
OUTLINE
 62
7
100
AcDbHatch
 10
0.0
 20
0.0
 30
0.0
210
0.0
220
0.0
230
1.0
  2
SOLID
 70
1
 71
0
 91
1
 92
3
 72
0
 73
1
 93
4
 10
1016.4
 20
522.1
 10
1020.6
 20
522.1
 10
1020.6
 20
517.9
 10
1016.4
 20
517.9
 97
0
 75
0
 76
1
 98
0
  0
HATCH
  5
237
330
17
100
AcDbEntity
  8
OUTLINE
 62
7
100
AcDbHatch
 10
0.0
 20
0.0
 30
0.0
210
0.0
220
0.0
230
1.0
  2
SOLID
 70
1
 71
0
 91
1
 92
3
 72
0
 73
1
 93
4
 10
1016.4
 20
374.5
 10
1020.6
 20
374.5
 10
1020.6
 20
370.3
 10
1016.4
 20
370.3
 97
0
 75
0
 76
1
 98
0
  0
HATCH
  5
238
330
17
100
AcDbEntity
  8
OUTLINE
 62
7
100
AcDbHatch
 10
0.0
 20
0.0
 30
0.0
210
0.0
220
0.0
230
1.0
  2
SOLID
 70
1
 71
0
 91
1
 92
3
 72
0
 73
1
 93
4
 10
1053.3000000000002
 20
522.1
 10
1057.5000000000002
 20
522.1
 10
1057.5000000000002
 20
517.9
 10
1053.3000000000002
 20
517.9
 97
0
 75
0
 76
1
 98
0
  0
HATCH
  5
239
330
17
100
AcDbEntity
  8
OUTLINE
 62
7
100
AcDbHatch
 10
0.0
 20
0.0
 30
0.0
210
0.0
220
0.0
230
1.0
  2
SOLID
 70
1
 71
0
 91
1
 92
3
 72
0
 73
1
 93
4
 10
1053.3000000000002
 20
374.5
 10
1057.5000000000002
 20
374.5
 10
1057.5000000000002
 20
370.3
 10
1053.3000000000002
 20
370.3
 97
0
 75
0
 76
1
 98
0
  0
LINE
  5
23A
330
17
100
AcDbEntity
  8
OUTLINE
  6
DASHED
420
828172
100
AcDbLine
 10
96.0
 20
459.1
 30
0.0
 11
96.0
 21
433.3
 31
0.0
  0
LINE
  5
23B
330
17
100
AcDbEntity
  8
OUTLINE
  6
DASHED
420
828172
100
AcDbLine
 10
1076.9
 20
509.5
 30
0.0
 11
1076.9
 21
478.2
 31
0.0
  0
LINE
  5
23C
330
17
100
AcDbEntity
  8
OUTLINE
  6
DASHED
420
828172
100
AcDbLine
 10
729.5
 20
372.4
 30
0.0
 11
754.1
 21
372.4
 31
0.0
  0
LINE
  5
23D
330
17
100
AcDbEntity
  8
OUTLINE
  6
DASHED
420
828172
100
AcDbLine
 10
766.4
 20
372.4
 30
0.0
 11
791.0
 21
372.4
 31
0.0
  0
LINE
  5
23E
330
17
100
AcDbEntity
  8
LIQUID
100
AcDbLine
 10
34.0
 20
446.2
 30
0.0
 11
90.0
 21
446.2
 31
0.0
  0
SOLID
  5
23F
330
17
100
AcDbEntity
  8
LIQUID
100
AcDbTrace
 10
76.4
 20
453.0
 30
0.0
 11
91.7
 21
446.2
 31
0.0
 12
76.4
 22
439.4
 32
0.0
 13
76.4
 23
439.4
 33
0.0
  0
TEXT
  5
240
330
17
100
AcDbEntity
  8
TEXT_RU
420
2783446
100
AcDbText
 10
20.0
 20
462.0
 30
0.0
 40
5.46
  1
от КСМ
  7
TXTRU
 11
20.0
 21
462.0
 31
0.0
100
AcDbText
  0
TEXT
  5
241
330
17
100
AcDbEntity
  8
TEXT_RU
420
2783446
100
AcDbText
 10
20.0
 20
452.0
 30
0.0
 40
5.46
  1
(Лот №3)
  7
TXTRU
 11
20.0
 21
452.0
 31
0.0
100
AcDbText
  0
TEXT
  5
242
330
17
100
AcDbEntity
  8
TEXT_RU
420
828172
100
AcDbText
 10
20.0
 20
424.0
 30
0.0
 40
5.46
  1
передаточные
  7
TXTRU
 11
20.0
 21
424.0
 31
0.0
100
AcDbText
  0
TEXT
  5
243
330
17
100
AcDbEntity
  8
TEXT_RU
420
828172
100
AcDbText
 10
20.0
 20
414.0
 30
0.0
 40
5.46
  1
ворота —
  7
TXTRU
 11
20.0
 21
414.0
 31
0.0
100
AcDbText
  0
TEXT
  5
244
330
17
100
AcDbEntity
  8
TEXT_RU
420
828172
100
AcDbText
 10
20.0
 20
404.0
 30
0.0
 40
5.46
  1
граница ТЗ
  7
TXTRU
 11
20.0
 21
404.0
 31
0.0
100
AcDbText
  0
TEXT
  5
245
330
17
100
AcDbEntity
  8
TEXT_RU
420
828172
100
AcDbText
 10
1082.0
 20
514.0
 30
0.0
 40
5.46
  1
ворота ж/д (граница ТЗ)
  7
TXTRU
 11
1082.0
 21
514.0
 31
0.0
100
AcDbText
  0
TEXT
  5
246
330
17
100
AcDbEntity
  8
TEXT_RU
100
AcDbText
 10
1082.0
 20
478.0
 30
0.0
 40
5.25
  1
проём — проверка
  7
TXTRU
 11
1082.0
 21
478.0
 31
0.0
100
AcDbText
  0
TEXT
  5
247
330
17
100
AcDbEntity
  8
TEXT_RU
100
AcDbText
 10
1082.0
 20
468.0
 30
0.0
 40
5.25
  1
по ГОСТ 9238-2013
  7
TXTRU
 11
1082.0
 21
468.0
 31
0.0
100
AcDbText
  0
TEXT
  5
248
330
17
100
AcDbEntity
  8
TEXT_RU
100
AcDbText
 10
1082.0
 20
458.0
 30
0.0
 40
5.25
  1
выход на существующие
  7
TXTRU
 11
1082.0
 21
458.0
 31
0.0
100
AcDbText
  0
TEXT
  5
249
330
17
100
AcDbEntity
  8
TEXT_RU
100
AcDbText
 10
1082.0
 20
448.0
 30
0.0
 40
5.25
  1
ж/д пути
  7
TXTRU
 11
1082.0
 21
448.0
 31
0.0
100
AcDbText
  0
LINE
  5
24A
330
17
100
AcDbEntity
  8
LIQUID
100
AcDbLine
 10
194.4
 20
446.2
 30
0.0
 11
211.3
 21
446.2
 31
0.0
  0
LWPOLYLINE
  5
24B
330
17
100
AcDbEntity
  8
LIQUID
100
AcDbPolyline
 90
3
 70
0
 10
211.3
 20
446.2
 10
211.3
 20
509.2
 10
237.5
 20
509.2
  0
SOLID
  5
24C
330
17
100
AcDbEntity
  8
LIQUID
100
AcDbTrace
 10
224.7
 20
515.6
 30
0.0
 11
239.1
 21
509.2
 31
0.0
 12
224.7
 22
502.79999999999995
 32
0.0
 13
224.7
 23
502.79999999999995
 33
0.0
  0
LWPOLYLINE
  5
24D
330
17
100
AcDbEntity
  8
LIQUID
100
AcDbPolyline
 90
3
 70
0
 10
211.3
 20
446.2
 10
211.3
 20
434.2
 10
237.5
 20
434.2
  0
SOLID
  5
24E
330
17
100
AcDbEntity
  8
LIQUID
100
AcDbTrace
 10
224.7
 20
440.6
 30
0.0
 11
239.1
 21
434.2
 31
0.0
 12
224.7
 22
427.79999999999995
 32
0.0
 13
224.7
 23
427.79999999999995
 33
0.0
  0
LWPOLYLINE
  5
24F
330
17
100
AcDbEntity
  8
LIQUID
100
AcDbPolyline
 90
3
 70
0
 10
655.7
 20
434.2
 10
725.0
 20
434.2
 10
725.0
 20
483.0
  0
SOLID
  5
250
330
17
100
AcDbEntity
  8
LIQUID
100
AcDbTrace
 10
718.6
 20
470.2
 30
0.0
 11
725.0
 21
484.6
 31
0.0
 12
731.4
 22
470.2
 32
0.0
 13
731.4
 23
470.2
 33
0.0
  0
LWPOLYLINE
  5
251
330
17
100
AcDbEntity
  8
LIQUID
100
AcDbPolyline
 90
3
 70
0
 10
700.0
 20
434.2
 10
741.7
 20
434.2
 10
741.7
 20
377.0
  0
SOLID
  5
252
330
17
100
AcDbEntity
  8
LIQUID
100
AcDbTrace
 10
748.1
 20
389.8
 30
0.0
 11
741.7
 21
375.4
 31
0.0
 12
735.3000000000001
 22
389.8
 32
0.0
 13
735.3000000000001
 23
389.8
 33
0.0
  0
TEXT
  5
253
330
17
100
AcDbEntity
  8
TEXT_RU
420
2783446
100
AcDbText
 10
660.0
 20
426.0
 30
0.0
 40
5.25
  1
штабелёрами
  7
TXTRU
 11
660.0
 21
426.0
 31
0.0
100
AcDbText
  0
LWPOLYLINE
  5
254
330
17
100
AcDbEntity
  8
DIM
  6
DASHED
100
AcDbPolyline
 90
4
 70
1
 10
732.6
 20
368.0
 10
751.0
 20
368.0
 10
751.0
 20
319.0
 10
732.6
 20
319.0
  0
LINE
  5
255
330
17
100
AcDbEntity
  8
DIM
100
AcDbLine
 10
732.6
 20
330.0
 30
0.0
 11
751.0
 21
330.0
 31
0.0
  0
LWPOLYLINE
  5
256
330
17
100
AcDbEntity
  8
DIM
  6
DASHED
100
AcDbPolyline
 90
4
 70
1
 10
770.0
 20
368.0
 10
788.4
 20
368.0
 10
788.4
 20
319.0
 10
770.0
 20
319.0
  0
LINE
  5
257
330
17
100
AcDbEntity
  8
DIM
100
AcDbLine
 10
770.0
 20
330.0
 30
0.0
 11
788.4
 21
330.0
 31
0.0
  0
TEXT
  5
258
330
17
100
AcDbEntity
  8
TEXT_RU
420
828172
100
AcDbText
 10
780.0
 20
308.0
 30
0.0
 40
5.46
  1
ворота автоотгрузки — граница ТЗ · 2 поста
  7
TXTRU
 72
1
 11
780.0
 21
308.0
 31
0.0
100
AcDbText
  0
TEXT
  5
259
330
17
100
AcDbEntity
  8
TEXT_RU
100
AcDbText
 10
697.0
 20
297.0
 30
0.0
 40
5.25
  1
проёмы ворот ≥3,5 м · мачта штабелёра до 3 м
  7
TXTRU
 72
1
 11
697.0
 21
297.0
 31
0.0
100
AcDbText
  0
LWPOLYLINE
  5
25A
330
17
100
AcDbEntity
  8
DUST
  6
DASHED
100
AcDbPolyline
 90
4
 70
1
 10
837.0
 20
364.0
 10
929.3
 20
364.0
 10
929.3
 20
340.0
 10
837.0
 20
340.0
  0
TEXT
  5
25B
330
17
100
AcDbEntity
  8
TEXT_RU
420
10702494
100
AcDbText
 10
883.0
 20
354.5
 30
0.0
 40
5.25
  1
автомобильные весы
  7
TXTRU
 72
1
 11
883.0
 21
354.5
 31
0.0
100
AcDbText
  0
TEXT
  5
25C
330
17
100
AcDbEntity
  8
TEXT_RU
420
10702494
100
AcDbText
 10
883.0
 20
345.0
 30
0.0
 40
4.9
  1
(подъезд, вне здания)
  7
TXTRU
 72
1
 11
883.0
 21
345.0
 31
0.0
100
AcDbText
  0
TEXT
  5
25D
330
17
100
AcDbEntity
  8
TEXT_RU
100
AcDbText
 10
940.0
 20
356.0
 30
0.0
 40
5.25
  1
весы на подъезде — пандусы,
  7
TXTRU
 11
940.0
 21
356.0
 31
0.0
100
AcDbText
  0
TEXT
  5
25E
330
17
100
AcDbEntity
  8
TEXT_RU
100
AcDbText
 10
940.0
 20
345.0
 30
0.0
 40
5.25
  1
отбойники, демаркация (Прил. №5)
  7
TXTRU
 11
940.0
 21
345.0
 31
0.0
100
AcDbText
  0
TEXT
  5
25F
330
17
100
AcDbEntity
  8
TEXT_RU
100
AcDbText
 10
96.0
 20
356.0
 30
0.0
 40
5.25
  1
весы приёмки: платформенные
  7
TXTRU
 11
96.0
 21
356.0
 31
0.0
100
AcDbText
  0
TEXT
  5
260
330
17
100
AcDbEntity
  8
TEXT_RU
100
AcDbText
 10
96.0
 20
345.0
 30
0.0
 40
5.25
  1
конвейерные, НПВ 3 т, класс «высокий»,
  7
TXTRU
 11
96.0
 21
345.0
 31
0.0
100
AcDbText
  0
TEXT
  5
261
330
17
100
AcDbEntity
  8
TEXT_RU
100
AcDbText
 10
96.0
 20
334.0
 30
0.0
 40
5.25
  1
допуск 2500 ± 50 кг; вне допуска —
  7
TXTRU
 11
96.0
 21
334.0
 31
0.0
100
AcDbText
  0
TEXT
  5
262
330
17
100
AcDbEntity
  8
TEXT_RU
100
AcDbText
 10
96.0
 20
323.0
 30
0.0
 40
5.25
  1
разбраковка · сверловка проб по АСУ
  7
TXTRU
 11
96.0
 21
323.0
 31
0.0
100
AcDbText
  0
TEXT
  5
263
330
17
100
AcDbEntity
  8
TEXT_RU
100
AcDbText
 10
292.0
 20
356.0
 30
0.0
 40
5.25
  1
увязка: контроль 3 лент, дотяжка;
  7
TXTRU
 11
292.0
 21
356.0
 31
0.0
100
AcDbText
  0
TEXT
  5
264
330
17
100
AcDbEntity
  8
TEXT_RU
100
AcDbText
 10
292.0
 20
345.0
 30
0.0
 40
5.25
  1
маркировка: этикетки партии
  7
TXTRU
 11
292.0
 21
345.0
 31
0.0
100
AcDbText
  0
TEXT
  5
265
330
17
100
AcDbEntity
  8
TEXT_RU
100
AcDbText
 10
292.0
 20
334.0
 30
0.0
 40
5.25
  1
зоны: приёмка ≈200–250 м²,
  7
TXTRU
 11
292.0
 21
334.0
 31
0.0
100
AcDbText
  0
TEXT
  5
266
330
17
100
AcDbEntity
  8
TEXT_RU
100
AcDbText
 10
292.0
 20
323.0
 30
0.0
 40
5.25
  1
упаковка ≈100–150 м²
  7
TXTRU
 11
292.0
 21
323.0
 31
0.0
100
AcDbText
  0
TEXT
  5
267
330
17
100
AcDbEntity
  8
TEXT_RU
100
AcDbText
 10
565.0
 20
356.0
 30
0.0
 40
5.25
  1
адресные линии: стопы 1,0×1,0 м, зазоры 100 мм,
  7
TXTRU
 72
1
 11
565.0
 21
356.0
 31
0.0
100
AcDbText
  0
TEXT
  5
268
330
17
100
AcDbEntity
  8
TEXT_RU
100
AcDbText
 10
565.0
 20
345.0
 30
0.0
 40
5.25
  1
продольные линии по 2 пакета в глубину · разметка машиночитаемая
  7
TXTRU
 72
1
 11
565.0
 21
345.0
 31
0.0
100
AcDbText
  0
TEXT
  5
269
330
17
100
AcDbEntity
  8
TEXT_RU
100
AcDbText
 10
565.0
 20
334.0
 30
0.0
 40
5.25
  1
движение однонаправленное: приёмка → хранение → отгрузка
  7
TXTRU
 72
1
 11
565.0
 21
334.0
 31
0.0
100
AcDbText
  0
TEXT
  5
26A
330
17
100
AcDbEntity
  8
TEXT_RU
100
AcDbText
 10
565.0
 20
323.0
 30
0.0
 40
5.25
  1
резерв адресов готовых партий — у фронтов
  7
TXTRU
 72
1
 11
565.0
 21
323.0
 31
0.0
100
AcDbText
  0
LINE
  5
26B
330
17
100
AcDbEntity
  8
DIM
420
5394766
100
AcDbLine
 10
86.0
 20
520.0
 30
0.0
 11
86.0
 21
372.4
 31
0.0
  0
LINE
  5
26C
330
17
100
AcDbEntity
  8
DIM
420
5394766
100
AcDbLine
 10
83.3
 20
522.7
 30
0.0
 11
88.7
 21
517.3
 31
0.0
  0
LINE
  5
26D
330
17
100
AcDbEntity
  8
DIM
420
5394766
100
AcDbLine
 10
83.3
 20
375.09999999999997
 30
0.0
 11
88.7
 21
369.7
 31
0.0
  0
TEXT
  5
26E
330
17
100
AcDbEntity
  8
TEXT_RU
100
AcDbText
 10
76.0
 20
485.0
 30
0.0
 40
5.25
  1
24 000 — пролёт
 50
90.0
  7
TXTRU
 72
1
 11
76.0
 21
485.0
 31
0.0
100
AcDbText
  0
TEXT
  5
26F
330
17
100
AcDbEntity
  8
TEXT_RU
100
AcDbText
 10
76.0
 20
409.0
 30
0.0
 40
5.25
  1
(крановый 22 000)
 50
90.0
  7
TXTRU
 72
1
 11
76.0
 21
409.0
 31
0.0
100
AcDbText
  0
LINE
  5
270
330
17
100
AcDbEntity
  8
DIM
100
AcDbLine
 10
222.0
 20
498.5
 30
0.0
 11
222.0
 21
445.0
 31
0.0
  0
LINE
  5
271
330
17
100
AcDbEntity
  8
DIM
100
AcDbLine
 10
222.0
 20
423.4
 30
0.0
 11
222.0
 21
372.4
 31
0.0
  0
LINE
  5
272
330
17
100
AcDbEntity
  8
DIM
100
AcDbLine
 10
216.0
 20
498.5
 30
0.0
 11
229.0
 21
498.5
 31
0.0
  0
LINE
  5
273
330
17
100
AcDbEntity
  8
DIM
100
AcDbLine
 10
216.0
 20
445.0
 30
0.0
 11
229.0
 21
445.0
 31
0.0
  0
LINE
  5
274
330
17
100
AcDbEntity
  8
DIM
100
AcDbLine
 10
216.0
 20
423.4
 30
0.0
 11
229.0
 21
423.4
 31
0.0
  0
LINE
  5
275
330
17
100
AcDbEntity
  8
DIM
100
AcDbLine
 10
216.0
 20
372.4
 30
0.0
 11
229.0
 21
372.4
 31
0.0
  0
TEXT
  5
276
330
17
100
AcDbEntity
  8
TEXT_RU
100
AcDbText
 10
218.0
 20
471.7
 30
0.0
 40
4.76
  1
~9 м
 50
90.0
  7
TXTRU
 72
1
 11
218.0
 21
471.7
 31
0.0
100
AcDbText
  0
TEXT
  5
277
330
17
100
AcDbEntity
  8
TEXT_RU
100
AcDbText
 10
218.0
 20
397.9
 30
0.0
 40
4.76
  1
~9 м
 50
90.0
  7
TXTRU
 72
1
 11
218.0
 21
397.9
 31
0.0
100
AcDbText
  0
TEXT
  5
278
330
17
100
AcDbEntity
  8
TEXT_RU
100
AcDbText
 10
96.0
 20
288.0
 30
0.0
 40
6.65
  1
УЗЕЛ ПРИЁМКИ И УПАКОВКИ — СХЕМА ПРОЦЕССА (операции 1–5 техпроцесса)
  7
TXTRU
 11
96.0
 21
288.0
 31
0.0
100
AcDbText
  0
LWPOLYLINE
  5
279
330
17
100
AcDbEntity
  8
LIQUID
100
AcDbPolyline
 90
8
 70
1
 10
103.0
 20
276.0
 10
241.0
 20
276.0
 42
0.4142135623730943
 10
248.0
 20
269.0
 10
248.0
 20
221.0
 42
0.4142135623730943
 10
241.0
 20
214.0
 10
103.0
 20
214.0
 42
0.41421356237309226
 10
96.0
 20
221.0
 10
96.0
 20
269.0
 42
0.41421356237309226
  0
TEXT
  5
27A
330
17
100
AcDbEntity
  8
TEXT_RU
100
AcDbText
 10
172.0
 20
260.0
 30
0.0
 40
7.35
  1
КОНВЕЙЕР ПРИЁМКИ
  7
TXTRU
 72
1
 11
172.0
 21
260.0
 31
0.0
100
AcDbText
  0
TEXT
  5
27B
330
17
100
AcDbEntity
  8
TEXT_RU
100
AcDbText
 10
172.0
 20
247.0
 30
0.0
 40
6.3
  1
от КСМ (Лот №3), через
  7
TXTRU
 72
1
 11
172.0
 21
247.0
 31
0.0
100
AcDbText
  0
TEXT
  5
27C
330
17
100
AcDbEntity
  8
TEXT_RU
100
AcDbText
 10
172.0
 20
235.5
 30
0.0
 40
6.3
  1
передаточные ворота
  7
TXTRU
 72
1
 11
172.0
 21
235.5
 31
0.0
100
AcDbText
  0
TEXT
  5
27D
330
17
100
AcDbEntity
  8
TEXT_RU
100
AcDbText
 10
172.0
 20
224.0
 30
0.0
 40
6.3
  1
3,5 пак./ч, пик до 7
  7
TXTRU
 72
1
 11
172.0
 21
224.0
 31
0.0
100
AcDbText
  0
LWPOLYLINE
  5
27E
330
17
100
AcDbEntity
  8
DUST
100
AcDbPolyline
 90
8
 70
1
 10
289.0
 20
276.0
 10
431.0
 20
276.0
 42
0.4142135623730902
 10
438.0
 20
269.0
 10
438.0
 20
221.0
 42
0.4142135623730902
 10
431.0
 20
214.0
 10
289.0
 20
214.0
 42
0.4142135623730902
 10
282.0
 20
221.0
 10
282.0
 20
269.0
 42
0.4142135623730902
  0
TEXT
  5
27F
330
17
100
AcDbEntity
  8
TEXT_RU
100
AcDbText
 10
360.0
 20
260.0
 30
0.0
 40
7.35
  1
ВЕСЫ ПРИЁМКИ
  7
TXTRU
 72
1
 11
360.0
 21
260.0
 31
0.0
100
AcDbText
  0
TEXT
  5
280
330
17
100
AcDbEntity
  8
TEXT_RU
100
AcDbText
 10
360.0
 20
247.0
 30
0.0
 40
6.3
  1
платформенные конвейерные
  7
TXTRU
 72
1
 11
360.0
 21
247.0
 31
0.0
100
AcDbText
  0
TEXT
  5
281
330
17
100
AcDbEntity
  8
TEXT_RU
100
AcDbText
 10
360.0
 20
235.5
 30
0.0
 40
6.3
  1
НПВ 3 т · класс «высокий»
  7
TXTRU
 72
1
 11
360.0
 21
235.5
 31
0.0
100
AcDbText
  0
TEXT
  5
282
330
17
100
AcDbEntity
  8
TEXT_RU
100
AcDbText
 10
360.0
 20
224.0
 30
0.0
 40
6.3
  1
допуск 2500 ± 50 кг
  7
TXTRU
 72
1
 11
360.0
 21
224.0
 31
0.0
100
AcDbText
  0
LWPOLYLINE
  5
283
330
17
100
AcDbEntity
  8
LIQUID
100
AcDbPolyline
 90
8
 70
1
 10
479.0
 20
276.0
 10
621.0
 20
276.0
 42
0.41421356237309837
 10
628.0
 20
269.0
 10
628.0
 20
221.0
 42
0.41421356237309837
 10
621.0
 20
214.0
 10
479.0
 20
214.0
 42
0.4142135623730902
 10
472.0
 20
221.0
 10
472.0
 20
269.0
 42
0.4142135623730902
  0
TEXT
  5
284
330
17
100
AcDbEntity
  8
TEXT_RU
100
AcDbText
 10
550.0
 20
260.0
 30
0.0
 40
7.35
  1
УВЯЗКА · МАРКИРОВКА
  7
TXTRU
 72
1
 11
550.0
 21
260.0
 31
0.0
100
AcDbText
  0
TEXT
  5
285
330
17
100
AcDbEntity
  8
TEXT_RU
100
AcDbText
 10
550.0
 20
247.0
 30
0.0
 40
6.3
  1
контроль/дотяжка увязки
  7
TXTRU
 72
1
 11
550.0
 21
247.0
 31
0.0
100
AcDbText
  0
TEXT
  5
286
330
17
100
AcDbEntity
  8
TEXT_RU
100
AcDbText
 10
550.0
 20
235.5
 30
0.0
 40
6.3
  1
(3 ленты) · этикетирование
  7
TXTRU
 72
1
 11
550.0
 21
235.5
 31
0.0
100
AcDbText
  0
TEXT
  5
287
330
17
100
AcDbEntity
  8
TEXT_RU
100
AcDbText
 10
550.0
 20
224.0
 30
0.0
 40
6.3
  1
партийная маркировка
  7
TXTRU
 72
1
 11
550.0
 21
224.0
 31
0.0
100
AcDbText
  0
LWPOLYLINE
  5
288
330
17
100
AcDbEntity
  8
LIQUID
100
AcDbPolyline
 90
8
 70
1
 10
655.0
 20
276.0
 10
805.0
 20
276.0
 42
0.41421356237309837
 10
812.0
 20
269.0
 10
812.0
 20
221.0
 42
0.41421356237309837
 10
805.0
 20
214.0
 10
655.0
 20
214.0
 42
0.41421356237309837
 10
648.0
 20
221.0
 10
648.0
 20
269.0
 42
0.41421356237309837
  0
TEXT
  5
289
330
17
100
AcDbEntity
  8
TEXT_RU
100
AcDbText
 10
730.0
 20
260.0
 30
0.0
 40
7.35
  1
ВЫДАЧА НА ШТАБЕЛЁР
  7
TXTRU
 72
1
 11
730.0
 21
260.0
 31
0.0
100
AcDbText
  0
TEXT
  5
28A
330
17
100
AcDbEntity
  8
TEXT_RU
100
AcDbText
 10
730.0
 20
247.0
 30
0.0
 40
6.3
  1
по размеченным линиям
  7
TXTRU
 72
1
 11
730.0
 21
247.0
 31
0.0
100
AcDbText
  0
TEXT
  5
28B
330
17
100
AcDbEntity
  8
TEXT_RU
100
AcDbText
 10
730.0
 20
235.5
 30
0.0
 40
6.3
  1
в стопы до 2 ярусов
  7
TXTRU
 72
1
 11
730.0
 21
235.5
 31
0.0
100
AcDbText
  0
TEXT
  5
28C
330
17
100
AcDbEntity
  8
TEXT_RU
100
AcDbText
 10
730.0
 20
224.0
 30
0.0
 40
6.3
  1
→ адресное хранение
  7
TXTRU
 72
1
 11
730.0
 21
224.0
 31
0.0
100
AcDbText
  0
LINE
  5
28D
330
17
100
AcDbEntity
  8
LIQUID
100
AcDbLine
 10
248.0
 20
245.0
 30
0.0
 11
282.0
 21
245.0
 31
0.0
  0
SOLID
  5
28E
330
17
100
AcDbEntity
  8
LIQUID
100
AcDbTrace
 10
268.4
 20
251.8
 30
0.0
 11
283.7
 21
245.0
 31
0.0
 12
268.4
 22
238.2
 32
0.0
 13
268.4
 23
238.2
 33
0.0
  0
LINE
  5
28F
330
17
100
AcDbEntity
  8
LIQUID
100
AcDbLine
 10
438.0
 20
245.0
 30
0.0
 11
472.0
 21
245.0
 31
0.0
  0
SOLID
  5
290
330
17
100
AcDbEntity
  8
LIQUID
100
AcDbTrace
 10
458.4
 20
251.8
 30
0.0
 11
473.7
 21
245.0
 31
0.0
 12
458.4
 22
238.2
 32
0.0
 13
458.4
 23
238.2
 33
0.0
  0
LINE
  5
291
330
17
100
AcDbEntity
  8
LIQUID
100
AcDbLine
 10
628.0
 20
245.0
 30
0.0
 11
648.0
 21
245.0
 31
0.0
  0
SOLID
  5
292
330
17
100
AcDbEntity
  8
LIQUID
100
AcDbTrace
 10
634.4
 20
251.8
 30
0.0
 11
649.7
 21
245.0
 31
0.0
 12
634.4
 22
238.2
 32
0.0
 13
634.4
 23
238.2
 33
0.0
  0
LWPOLYLINE
  5
293
330
17
100
AcDbEntity
  8
INTERLOCK
100
AcDbPolyline
 90
8
 70
1
 10
269.0
 20
188.0
 10
375.0
 20
188.0
 42
0.4142135623730902
 10
382.0
 20
181.0
 10
382.0
 20
143.0
 42
0.4142135623730902
 10
375.0
 20
136.0
 10
269.0
 20
136.0
 42
0.4142135623730902
 10
262.0
 20
143.0
 10
262.0
 20
181.0
 42
0.4142135623730902
  0
TEXT
  5
294
330
17
100
AcDbEntity
  8
TEXT_RU
100
AcDbText
 10
322.0
 20
172.0
 30
0.0
 40
7.35
  1
РАЗБРАКОВКА
  7
TXTRU
 72
1
 11
322.0
 21
172.0
 31
0.0
100
AcDbText
  0
TEXT
  5
295
330
17
100
AcDbEntity
  8
TEXT_RU
100
AcDbText
 10
322.0
 20
159.0
 30
0.0
 40
6.3
  1
вне допуска массы
  7
TXTRU
 72
1
 11
322.0
 21
159.0
 31
0.0
100
AcDbText
  0
TEXT
  5
296
330
17
100
AcDbEntity
  8
TEXT_RU
100
AcDbText
 10
322.0
 20
147.5
 30
0.0
 40
6.3
  1
переукладка по АСУ
  7
TXTRU
 72
1
 11
322.0
 21
147.5
 31
0.0
100
AcDbText
  0
LWPOLYLINE
  5
297
330
17
100
AcDbEntity
  8
LIQUID
100
AcDbPolyline
 90
8
 70
1
 10
405.0
 20
188.0
 10
521.0
 20
188.0
 42
0.41421356237309837
 10
528.0
 20
181.0
 10
528.0
 20
143.0
 42
0.41421356237309837
 10
521.0
 20
136.0
 10
405.0
 20
136.0
 42
0.4142135623730902
 10
398.0
 20
143.0
 10
398.0
 20
181.0
 42
0.4142135623730902
  0
TEXT
  5
298
330
17
100
AcDbEntity
  8
TEXT_RU
100
AcDbText
 10
463.0
 20
172.0
 30
0.0
 40
7.35
  1
СВЕРЛОВКА ПРОБ
  7
TXTRU
 72
1
 11
463.0
 21
172.0
 31
0.0
100
AcDbText
  0
TEXT
  5
299
330
17
100
AcDbEntity
  8
TEXT_RU
100
AcDbText
 10
463.0
 20
159.0
 30
0.0
 40
6.3
  1
часть катодов
  7
TXTRU
 72
1
 11
463.0
 21
159.0
 31
0.0
100
AcDbText
  0
TEXT
  5
29A
330
17
100
AcDbEntity
  8
TEXT_RU
100
AcDbText
 10
463.0
 20
147.5
 30
0.0
 40
6.3
  1
по заданию АСУ
  7
TXTRU
 72
1
 11
463.0
 21
147.5
 31
0.0
100
AcDbText
  0
LINE
  5
29B
330
17
100
AcDbEntity
  8
INTERLOCK
  6
DASHED
100
AcDbLine
 10
330.0
 20
214.0
 30
0.0
 11
330.0
 21
188.0
 31
0.0
  0
SOLID
  5
29C
330
17
100
AcDbEntity
  8
INTERLOCK
100
AcDbTrace
 10
335.2
 20
198.39999999999998
 30
0.0
 11
330.0
 21
186.7
 31
0.0
 12
324.8
 22
198.39999999999998
 32
0.0
 13
324.8
 23
198.39999999999998
 33
0.0
  0
TEXT
  5
29D
330
17
100
AcDbEntity
  8
TEXT_RU
420
13646651
100
AcDbText
 10
336.0
 20
198.0
 30
0.0
 40
5.25
  1
вне допуска
  7
TXTRU
 11
336.0
 21
198.0
 31
0.0
100
AcDbText
  0
LINE
  5
29E
330
17
100
AcDbEntity
  8
LIQUID
  6
DASHED
100
AcDbLine
 10
430.0
 20
214.0
 30
0.0
 11
430.0
 21
188.0
 31
0.0
  0
SOLID
  5
29F
330
17
100
AcDbEntity
  8
LIQUID
100
AcDbTrace
 10
435.2
 20
198.39999999999998
 30
0.0
 11
430.0
 21
186.7
 31
0.0
 12
424.8
 22
198.39999999999998
 32
0.0
 13
424.8
 23
198.39999999999998
 33
0.0
  0
TEXT
  5
2A0
330
17
100
AcDbEntity
  8
TEXT_RU
420
2783446
100
AcDbText
 10
436.0
 20
198.0
 30
0.0
 40
5.25
  1
по заданию АСУ
  7
TXTRU
 11
436.0
 21
198.0
 31
0.0
100
AcDbText
  0
TEXT
  5
2A1
330
17
100
AcDbEntity
  8
TEXT_RU
100
AcDbText
 10
96.0
 20
110.0
 30
0.0
 40
5.46
  1
Поток: 75 000 т/год = 209,5 т/сут (358 сут) · буфер покрывает: партия-маршрут 1350 т (20 полувагонов × 27 пакетов) в наборе +
  7
TXTRU
 11
96.0
 21
110.0
 31
0.0
100
AcDbText
  0
TEXT
  5
2A2
330
17
100
AcDbEntity
  8
TEXT_RU
100
AcDbText
 10
96.0
 20
98.0
 30
0.0
 40
5.46
  1
готовая партия в ожидании подачи + страховой запас 2–3 сут + технологический запас (химанализ) 1–2 сут · минимум 1500 т (7 сут)
  7
TXTRU
 11
96.0
 21
98.0
 31
0.0
100
AcDbText
  0
TEXT
  5
2A3
330
17
100
AcDbEntity
  8
TEXT_RU
100
AcDbText
 10
810.0
 20
288.0
 30
0.0
 40
6.65
  1
ЯРУСНОСТЬ И НАГРУЗКИ НА ПОЛ
  7
TXTRU
 11
810.0
 21
288.0
 31
0.0
100
AcDbText
  0
LINE
  5
2A4
330
17
100
AcDbEntity
  8
OUTLINE
100
AcDbLine
 10
812.0
 20
140.0
 30
0.0
 11
905.0
 21
140.0
 31
0.0
  0
HATCH
  5
2A5
330
17
100
AcDbEntity
  8
LIQUID
 62
7
420
13689334
100
AcDbHatch
 10
0.0
 20
0.0
 30
0.0
210
0.0
220
0.0
230
1.0
  2
SOLID
 70
1
 71
0
 91
1
 92
3
 72
0
 73
1
 93
4
 10
826.0
 20
162.0
 10
890.0
 20
162.0
 10
890.0
 20
140.0
 10
826.0
 20
140.0
 97
0
 75
0
 76
1
 98
0
  0
LWPOLYLINE
  5
2A6
330
17
100
AcDbEntity
  8
LIQUID
100
AcDbPolyline
 90
4
 70
1
 10
826.0
 20
162.0
 10
890.0
 20
162.0
 10
890.0
 20
140.0
 10
826.0
 20
140.0
  0
HATCH
  5
2A7
330
17
100
AcDbEntity
  8
LIQUID
 62
7
420
13689334
100
AcDbHatch
 10
0.0
 20
0.0
 30
0.0
210
0.0
220
0.0
230
1.0
  2
SOLID
 70
1
 71
0
 91
1
 92
3
 72
0
 73
1
 93
4
 10
826.0
 20
184.0
 10
890.0
 20
184.0
 10
890.0
 20
162.0
 10
826.0
 20
162.0
 97
0
 75
0
 76
1
 98
0
  0
LWPOLYLINE
  5
2A8
330
17
100
AcDbEntity
  8
LIQUID
100
AcDbPolyline
 90
4
 70
1
 10
826.0
 20
184.0
 10
890.0
 20
184.0
 10
890.0
 20
162.0
 10
826.0
 20
162.0
  0
LWPOLYLINE
  5
2A9
330
17
100
AcDbEntity
  8
LIQUID
  6
DASHED
100
AcDbPolyline
 90
4
 70
1
 10
826.0
 20
206.0
 10
890.0
 20
206.0
 10
890.0
 20
184.0
 10
826.0
 20
184.0
  0
TEXT
  5
2AA
330
17
100
AcDbEntity
  8
TEXT_RU
100
AcDbText
 10
858.0
 20
147.5
 30
0.0
 40
4.9
  1
пакет 2,5 т
  7
TXTRU
 72
1
 11
858.0
 21
147.5
 31
0.0
100
AcDbText
  0
TEXT
  5
2AB
330
17
100
AcDbEntity
  8
TEXT_RU
100
AcDbText
 10
858.0
 20
169.5
 30
0.0
 40
4.9
  1
1,0 × 1,0 м
  7
TXTRU
 72
1
 11
858.0
 21
169.5
 31
0.0
100
AcDbText
  0
TEXT
  5
2AC
330
17
100
AcDbEntity
  8
TEXT_RU
100
AcDbText
 10
858.0
 20
191.5
 30
0.0
 40
4.9
  1
3-й ярус?
  7
TXTRU
 72
1
 11
858.0
 21
191.5
 31
0.0
100
AcDbText
  0
LINE
  5
2AD
330
17
100
AcDbEntity
  8
DIM
420
5394766
100
AcDbLine
 10
818.0
 20
184.0
 30
0.0
 11
818.0
 21
140.0
 31
0.0
  0
LINE
  5
2AE
330
17
100
AcDbEntity
  8
DIM
420
5394766
100
AcDbLine
 10
815.3
 20
186.7
 30
0.0
 11
820.7
 21
181.3
 31
0.0
  0
LINE
  5
2AF
330
17
100
AcDbEntity
  8
DIM
420
5394766
100
AcDbLine
 10
815.3
 20
142.7
 30
0.0
 11
820.7
 21
137.3
 31
0.0
  0
TEXT
  5
2B0
330
17
100
AcDbEntity
  8
TEXT_RU
100
AcDbText
 10
812.0
 20
162.0
 30
0.0
 40
4.76
  1
≈0,9–1,1 м
 50
90.0
  7
TXTRU
 72
1
 11
812.0
 21
162.0
 31
0.0
100
AcDbText
  0
TEXT
  5
2B1
330
17
100
AcDbEntity
  8
TEXT_RU
100
AcDbText
 10
858.0
 20
128.0
 30
0.0
 40
5.25
  1
стопа 2 яруса (базово)
  7
TXTRU
 72
1
 11
858.0
 21
128.0
 31
0.0
100
AcDbText
  0
TEXT
  5
2B2
330
17
100
AcDbEntity
  8
TEXT_RU
100
AcDbText
 10
915.0
 20
272.0
 30
0.0
 40
5.74
  1
хранение в стопах: 2 яруса — базово;
  7
TXTRU
 11
915.0
 21
272.0
 31
0.0
100
AcDbText
  0
TEXT
  5
2B3
330
17
100
AcDbEntity
  8
TEXT_RU
100
AcDbText
 10
915.0
 20
259.0
 30
0.0
 40
5.74
  1
3-й ярус — по обследованию пола (уточняется)
  7
TXTRU
 11
915.0
 21
259.0
 31
0.0
100
AcDbText
  0
TEXT
  5
2B4
330
17
100
AcDbEntity
  8
TEXT_RU
100
AcDbText
 10
915.0
 20
246.0
 30
0.0
 40
5.74
  1
пакет 2,5 т на пятне 1,0×1,0 м
  7
TXTRU
 11
915.0
 21
246.0
 31
0.0
100
AcDbText
  0
TEXT
  5
2B5
330
17
100
AcDbEntity
  8
TEXT_RU
100
AcDbText
 10
915.0
 20
233.0
 30
0.0
 40
5.74
  1
нагрузка от стоп (СП 20.13330): 24,5 кПа/ярус
  7
TXTRU
 11
915.0
 21
233.0
 31
0.0
100
AcDbText
  0
TEXT
  5
2B6
330
17
100
AcDbEntity
  8
TEXT_RU
100
AcDbText
 10
915.0
 20
220.0
 30
0.0
 40
5.74
  1
2 яруса — 49,1 кПа (расчётная 58,9)
  7
TXTRU
 11
915.0
 21
220.0
 31
0.0
100
AcDbText
  0
TEXT
  5
2B7
330
17
100
AcDbEntity
  8
TEXT_RU
100
AcDbText
 10
915.0
 20
207.0
 30
0.0
 40
5.74
  1
3 яруса — 73,6 кПа (расчётная 88,3)
  7
TXTRU
 11
915.0
 21
207.0
 31
0.0
100
AcDbText
  0
TEXT
  5
2B8
330
17
100
AcDbEntity
  8
TEXT_RU
100
AcDbText
 10
915.0
 20
194.0
 30
0.0
 40
5.74
  1
колесо штабелёра 3,5–4,5 тс (масса 8–11 т)
  7
TXTRU
 11
915.0
 21
194.0
 31
0.0
100
AcDbText
  0
TEXT
  5
2B9
330
17
100
AcDbEntity
  8
TEXT_RU
100
AcDbText
 10
915.0
 20
181.0
 30
0.0
 40
5.74
  1
плита пола по СП 29.13330, топпинг, безуклонная
  7
TXTRU
 11
915.0
 21
181.0
 31
0.0
100
AcDbText
  0
TEXT
  5
2BA
330
17
100
AcDbEntity
  8
TEXT_RU
100
AcDbText
 10
915.0
 20
168.0
 30
0.0
 40
5.74
  1
ровность: просвет ≤4 мм под 2-м рейкой
  7
TXTRU
 11
915.0
 21
168.0
 31
0.0
100
AcDbText
  0
TEXT
  5
2BB
330
17
100
AcDbEntity
  8
TEXT_RU
100
AcDbText
 10
915.0
 20
155.0
 30
0.0
 40
5.74
  1
весовые зоны — отдельные фундаменты (Прил. №5)
  7
TXTRU
 11
915.0
 21
155.0
 31
0.0
100
AcDbText
  0
TEXT
  5
2BC
330
17
100
AcDbEntity
  8
TEXT_RU
100
AcDbText
 10
96.0
 20
74.0
 30
0.0
 40
5.46
  1
Базис размещения — ТЗ v4.1 п. 1.3 (новый склад ГП, задание на новый корпус); показана компоновка в пролёте 24 м с шагом колонн 6 м по разд. «Компоновочные решения» (резервный сценарий А — ЦЭМ); зонирование нового корпуса аналогично.
  7
TXTRU
 11
96.0
 21
74.0
 31
0.0
100
AcDbText
  0
TEXT
  5
2BD
330
17
100
AcDbEntity
  8
TEXT_RU
100
AcDbText
 10
96.0
 20
62.0
 30
0.0
 40
5.46
  1
Цвета: синий — поток продукции и адресные линии · фиолетовый — весовые зоны · зелёный пунктир — границы проектирования по ТЗ (ворота) · красный — разбраковка, кран (вариант) · жёлтый — зарядная · пунктиром — предложения БИ (уточняется).
  7
TXTRU
 11
96.0
 21
62.0
 31
0.0
100
AcDbText
  0
ENDSEC
  0
SECTION
  2
OBJECTS
  0
DICTIONARY
  5
A
330
0
100
AcDbDictionary
281
1
  3
ACAD_COLOR
350
B
  3
ACAD_GROUP
350
C
  3
ACAD_LAYOUT
350
D
  3
ACAD_MATERIAL
350
E
  3
ACAD_MLEADERSTYLE
350
F
  3
ACAD_MLINESTYLE
350
10
  3
ACAD_PLOTSETTINGS
350
11
  3
ACAD_PLOTSTYLENAME
350
12
  3
ACAD_SCALELIST
350
14
  3
ACAD_TABLESTYLE
350
15
  3
ACAD_VISUALSTYLE
350
16
  3
EZDXF_META
350
2D
  0
DICTIONARY
  5
B
330
A
100
AcDbDictionary
281
1
  0
DICTIONARY
  5
C
330
A
100
AcDbDictionary
281
1
  0
DICTIONARY
  5
D
330
A
100
AcDbDictionary
281
1
  3
Model
350
1A
  3
Layout1
350
1E
  0
DICTIONARY
  5
E
330
A
100
AcDbDictionary
281
1
  3
ByBlock
350
1F
  3
ByLayer
350
20
  3
Global
350
21
  0
DICTIONARY
  5
F
330
A
100
AcDbDictionary
281
1
  3
Standard
350
2C
  0
DICTIONARY
  5
10
330
A
100
AcDbDictionary
281
1
  3
Standard
350
22
  0
DICTIONARY
  5
11
330
A
100
AcDbDictionary
281
1
  0
ACDBDICTIONARYWDFLT
  5
12
330
A
100
AcDbDictionary
281
1
  3
Normal
350
13
100
AcDbDictionaryWithDefault
340
13
  0
ACDBPLACEHOLDER
  5
13
330
12
  0
DICTIONARY
  5
14
330
A
100
AcDbDictionary
281
1
  0
DICTIONARY
  5
15
330
A
100
AcDbDictionary
281
1
  0
DICTIONARY
  5
16
330
A
100
AcDbDictionary
281
1
  0
LAYOUT
  5
1A
330
D
100
AcDbPlotSettings
  1

  4
A3
  6

 40
7.5
 41
20.0
 42
7.5
 43
20.0
 44
420.0
 45
297.0
 46
0.0
 47
0.0
 48
0.0
 49
0.0
140
0.0
141
0.0
142
1.0
143
1.0
 70
1024
 72
1
 73
0
 74
5
  7

 75
16
 76
0
 77
2
 78
300
147
1.0
148
0.0
149
0.0
100
AcDbLayout
  1
Model
 70
1
 71
0
 10
0.0
 20
0.0
 11
1190.0
 21
640.0
 12
0.0
 22
0.0
 32
0.0
 14
-0.01
 24
-0.01
 34
0.0
 15
1190.0
 25
640.0
 35
0.0
146
0.0
 13
0.0
 23
0.0
 33
0.0
 16
1.0
 26
0.0
 36
0.0
 17
0.0
 27
1.0
 37
0.0
 76
1
330
17
  0
LAYOUT
  5
1E
330
D
100
AcDbPlotSettings
  1

  4
A3
  6

 40
7.5
 41
20.0
 42
7.5
 43
20.0
 44
420.0
 45
297.0
 46
0.0
 47
0.0
 48
0.0
 49
0.0
140
0.0
141
0.0
142
1.0
143
1.0
 70
0
 72
1
 73
0
 74
5
  7

 75
16
 76
0
 77
2
 78
300
147
1.0
148
0.0
149
0.0
100
AcDbLayout
  1
Layout1
 70
1
 71
1
 10
0.0
 20
0.0
 11
420.0
 21
297.0
 12
0.0
 22
0.0
 32
0.0
 14
1e+20
 24
1e+20
 34
1e+20
 15
-1e+20
 25
-1e+20
 35
-1e+20
146
0.0
 13
0.0
 23
0.0
 33
0.0
 16
1.0
 26
0.0
 36
0.0
 17
0.0
 27
1.0
 37
0.0
 76
1
330
1B
  0
MATERIAL
  5
1F
102
{ACAD_REACTORS
330
E
102
}
330
E
100
AcDbMaterial
  1
ByBlock
  2

 70
0
 40
1.0
 71
1
 41
1.0
 91
-1023410177
 42
1.0
 72
1
  3

 73
1
 74
1
 75
1
 44
0.5
 73
0
 45
1.0
 46
1.0
 77
1
  4

 78
1
 79
1
170
1
 48
1.0
171
1
  6

172
1
173
1
174
1
140
1.0
141
1.0
175
1
  7

176
1
177
1
178
1
143
1.0
179
1
  8

270
1
271
1
272
1
145
1.0
146
1.0
273
1
  9

274
1
275
1
276
1
 42
1.0
 72
1
  3

 73
1
 74
1
 75
1
 94
63
  0
MATERIAL
  5
20
102
{ACAD_REACTORS
330
E
102
}
330
E
100
AcDbMaterial
  1
ByLayer
  2

 70
0
 40
1.0
 71
1
 41
1.0
 91
-1023410177
 42
1.0
 72
1
  3

 73
1
 74
1
 75
1
 44
0.5
 73
0
 45
1.0
 46
1.0
 77
1
  4

 78
1
 79
1
170
1
 48
1.0
171
1
  6

172
1
173
1
174
1
140
1.0
141
1.0
175
1
  7

176
1
177
1
178
1
143
1.0
179
1
  8

270
1
271
1
272
1
145
1.0
146
1.0
273
1
  9

274
1
275
1
276
1
 42
1.0
 72
1
  3

 73
1
 74
1
 75
1
 94
63
  0
MATERIAL
  5
21
102
{ACAD_REACTORS
330
E
102
}
330
E
100
AcDbMaterial
  1
Global
  2

 70
0
 40
1.0
 71
1
 41
1.0
 91
-1023410177
 42
1.0
 72
1
  3

 73
1
 74
1
 75
1
 44
0.5
 73
0
 45
1.0
 46
1.0
 77
1
  4

 78
1
 79
1
170
1
 48
1.0
171
1
  6

172
1
173
1
174
1
140
1.0
141
1.0
175
1
  7

176
1
177
1
178
1
143
1.0
179
1
  8

270
1
271
1
272
1
145
1.0
146
1.0
273
1
  9

274
1
275
1
276
1
 42
1.0
 72
1
  3

 73
1
 74
1
 75
1
 94
63
  0
MLINESTYLE
  5
22
102
{ACAD_REACTORS
330
10
102
}
330
10
100
AcDbMlineStyle
  2
Standard
 70
0
  3

 62
256
 51
90.0
 52
90.0
 71
2
 49
0.5
 62
256
  6
BYLAYER
 49
-0.5
 62
256
  6
BYLAYER
  0
MLEADERSTYLE
  5
2C
102
{ACAD_REACTORS
330
F
102
}
330
F
100
AcDbMLeaderStyle
179
2
170
2
171
1
172
0
 90
2
 40
0.0
 41
0.0
173
1
 91
-1056964608
 92
-2
290
1
 42
2.0
291
1
 43
8.0
  3
Standard
 44
4.0
300

342
29
174
1
175
1
176
0
178
1
 93
-1056964608
 45
4.0
292
0
297
0
 46
4.0
 94
-1056964608
 47
1.0
 49
1.0
140
1.0
294
1
141
0.0
177
0
142
1.0
295
0
296
0
143
3.75
271
0
272
9
273
9
  0
DICTIONARY
  5
2D
330
A
100
AcDbDictionary
280
1
281
1
  3
CREATED_BY_EZDXF
350
2E
  3
WRITTEN_BY_EZDXF
350
2C0
  0
DICTIONARYVAR
  5
2E
330
2D
100
DictionaryVariables
280
0
  1
1.4.4 @ 2026-08-28T02:58:58.436044+00:00
  0
DICTIONARYVAR
  5
2C0
330
2D
100
DictionaryVariables
280
0
  1
1.4.4 @ 2026-08-28T02:58:58.459447+00:00
  0
ENDSEC
  0
EOF
