  0
SECTION
  2
HEADER
  9
$ACADVER
  1
AC1024
  9
$ACADMAINTVER
 70
6
  9
$DWGCODEPAGE
  3
ANSI_1252
  9
$LASTSAVEDBY
  1
ezdxf
  9
$INSBASE
 10
0.0
 20
0.0
 30
0.0
  9
$EXTMIN
 10
-0.01
 20
-0.01
 30
0.0
  9
$EXTMAX
 10
1190.0
 20
640.0
 30
0.0
  9
$LIMMIN
 10
0.0
 20
0.0
  9
$LIMMAX
 10
1190.0
 20
640.0
  9
$ORTHOMODE
 70
0
  9
$REGENMODE
 70
1
  9
$FILLMODE
 70
1
  9
$QTEXTMODE
 70
0
  9
$MIRRTEXT
 70
1
  9
$LTSCALE
 40
1.0
  9
$ATTMODE
 70
1
  9
$TEXTSIZE
 40
2.5
  9
$TRACEWID
 40
1.0
  9
$TEXTSTYLE
  7
Standard
  9
$CLAYER
  8
0
  9
$CELTYPE
  6
ByLayer
  9
$CECOLOR
 62
256
  9
$CELTSCALE
 40
1.0
  9
$DISPSILH
 70
0
  9
$DIMSCALE
 40
1.0
  9
$DIMASZ
 40
2.5
  9
$DIMEXO
 40
0.625
  9
$DIMDLI
 40
3.75
  9
$DIMRND
 40
0.0
  9
$DIMDLE
 40
0.0
  9
$DIMEXE
 40
1.25
  9
$DIMTP
 40
0.0
  9
$DIMTM
 40
0.0
  9
$DIMTXT
 40
2.5
  9
$DIMCEN
 40
2.5
  9
$DIMTSZ
 40
0.0
  9
$DIMTOL
 70
0
  9
$DIMLIM
 70
0
  9
$DIMTIH
 70
0
  9
$DIMTOH
 70
0
  9
$DIMSE1
 70
0
  9
$DIMSE2
 70
0
  9
$DIMTAD
 70
1
  9
$DIMZIN
 70
8
  9
$DIMBLK
  1

  9
$DIMASO
 70
1
  9
$DIMSHO
 70
1
  9
$DIMPOST
  1

  9
$DIMAPOST
  1

  9
$DIMALT
 70
0
  9
$DIMALTD
 70
3
  9
$DIMALTF
 40
0.03937007874
  9
$DIMLFAC
 40
1.0
  9
$DIMTOFL
 70
1
  9
$DIMTVP
 40
0.0
  9
$DIMTIX
 70
0
  9
$DIMSOXD
 70
0
  9
$DIMSAH
 70
0
  9
$DIMBLK1
  1

  9
$DIMBLK2
  1

  9
$DIMSTYLE
  2
ISO-25
  9
$DIMCLRD
 70
0
  9
$DIMCLRE
 70
0
  9
$DIMCLRT
 70
0
  9
$DIMTFAC
 40
1.0
  9
$DIMGAP
 40
0.625
  9
$DIMJUST
 70
0
  9
$DIMSD1
 70
0
  9
$DIMSD2
 70
0
  9
$DIMTOLJ
 70
0
  9
$DIMTZIN
 70
8
  9
$DIMALTZ
 70
0
  9
$DIMALTTZ
 70
0
  9
$DIMUPT
 70
0
  9
$DIMDEC
 70
2
  9
$DIMTDEC
 70
2
  9
$DIMALTU
 70
2
  9
$DIMALTTD
 70
3
  9
$DIMTXSTY
  7
Standard
  9
$DIMAUNIT
 70
0
  9
$DIMADEC
 70
0
  9
$DIMALTRND
 40
0.0
  9
$DIMAZIN
 70
0
  9
$DIMDSEP
 70
44
  9
$DIMATFIT
 70
3
  9
$DIMFRAC
 70
0
  9
$DIMLDRBLK
  1

  9
$DIMLUNIT
 70
2
  9
$DIMLWD
 70
-2
  9
$DIMLWE
 70
-2
  9
$DIMTMOVE
 70
0
  9
$DIMFXL
 40
1.0
  9
$DIMFXLON
 70
0
  9
$DIMJOGANG
 40
0.785398163397
  9
$DIMTFILL
 70
0
  9
$DIMTFILLCLR
 70
0
  9
$DIMARCSYM
 70
0
  9
$DIMLTYPE
  6

  9
$DIMLTEX1
  6

  9
$DIMLTEX2
  6

  9
$DIMTXTDIRECTION
 70
0
  9
$LUNITS
 70
2
  9
$LUPREC
 70
4
  9
$SKETCHINC
 40
1.0
  9
$FILLETRAD
 40
10.0
  9
$AUNITS
 70
0
  9
$AUPREC
 70
2
  9
$MENU
  1
.
  9
$ELEVATION
 40
0.0
  9
$PELEVATION
 40
0.0
  9
$THICKNESS
 40
0.0
  9
$LIMCHECK
 70
0
  9
$CHAMFERA
 40
0.0
  9
$CHAMFERB
 40
0.0
  9
$CHAMFERC
 40
0.0
  9
$CHAMFERD
 40
0.0
  9
$SKPOLY
 70
0
  9
$TDCREATE
 40
2461281.1242824076
  9
$TDUCREATE
 40
2458532.153996898
  9
$TDUPDATE
 40
2461281.1242824076
  9
$TDUUPDATE
 40
2458532.1544311
  9
$TDINDWG
 40
0.0
  9
$TDUSRTIMER
 40
0.0
  9
$USRTIMER
 70
1
  9
$ANGBASE
 50
0.0
  9
$ANGDIR
 70
0
  9
$PDMODE
 70
0
  9
$PDSIZE
 40
0.0
  9
$PLINEWID
 40
0.0
  9
$SPLFRAME
 70
0
  9
$SPLINETYPE
 70
6
  9
$SPLINESEGS
 70
8
  9
$HANDSEED
  5
11C
  9
$SURFTAB1
 70
6
  9
$SURFTAB2
 70
6
  9
$SURFTYPE
 70
6
  9
$SURFU
 70
6
  9
$SURFV
 70
6
  9
$UCSBASE
  2

  9
$UCSNAME
  2

  9
$UCSORG
 10
0.0
 20
0.0
 30
0.0
  9
$UCSXDIR
 10
1.0
 20
0.0
 30
0.0
  9
$UCSYDIR
 10
0.0
 20
1.0
 30
0.0
  9
$UCSORTHOREF
  2

  9
$UCSORTHOVIEW
 70
0
  9
$UCSORGTOP
 10
0.0
 20
0.0
 30
0.0
  9
$UCSORGBOTTOM
 10
0.0
 20
0.0
 30
0.0
  9
$UCSORGLEFT
 10
0.0
 20
0.0
 30
0.0
  9
$UCSORGRIGHT
 10
0.0
 20
0.0
 30
0.0
  9
$UCSORGFRONT
 10
0.0
 20
0.0
 30
0.0
  9
$UCSORGBACK
 10
0.0
 20
0.0
 30
0.0
  9
$PUCSBASE
  2

  9
$PUCSNAME
  2

  9
$PUCSORG
 10
0.0
 20
0.0
 30
0.0
  9
$PUCSXDIR
 10
1.0
 20
0.0
 30
0.0
  9
$PUCSYDIR
 10
0.0
 20
1.0
 30
0.0
  9
$PUCSORTHOREF
  2

  9
$PUCSORTHOVIEW
 70
0
  9
$PUCSORGTOP
 10
0.0
 20
0.0
 30
0.0
  9
$PUCSORGBOTTOM
 10
0.0
 20
0.0
 30
0.0
  9
$PUCSORGLEFT
 10
0.0
 20
0.0
 30
0.0
  9
$PUCSORGRIGHT
 10
0.0
 20
0.0
 30
0.0
  9
$PUCSORGFRONT
 10
0.0
 20
0.0
 30
0.0
  9
$PUCSORGBACK
 10
0.0
 20
0.0
 30
0.0
  9
$USERI1
 70
0
  9
$USERI2
 70
0
  9
$USERI3
 70
0
  9
$USERI4
 70
0
  9
$USERI5
 70
0
  9
$USERR1
 40
0.0
  9
$USERR2
 40
0.0
  9
$USERR3
 40
0.0
  9
$USERR4
 40
0.0
  9
$USERR5
 40
0.0
  9
$WORLDVIEW
 70
1
  9
$SHADEDGE
 70
3
  9
$SHADEDIF
 70
70
  9
$TILEMODE
 70
1
  9
$MAXACTVP
 70
64
  9
$PINSBASE
 10
0.0
 20
0.0
 30
0.0
  9
$PLIMCHECK
 70
0
  9
$PEXTMIN
 10
1e+20
 20
1e+20
 30
1e+20
  9
$PEXTMAX
 10
-1e+20
 20
-1e+20
 30
-1e+20
  9
$PLIMMIN
 10
0.0
 20
0.0
  9
$PLIMMAX
 10
420.0
 20
297.0
  9
$UNITMODE
 70
0
  9
$VISRETAIN
 70
1
  9
$PLINEGEN
 70
0
  9
$PSLTSCALE
 70
1
  9
$TREEDEPTH
 70
3020
  9
$CMLSTYLE
  2
Standard
  9
$CMLJUST
 70
0
  9
$CMLSCALE
 40
20.0
  9
$PROXYGRAPHICS
 70
1
  9
$MEASUREMENT
 70
1
  9
$CELWEIGHT
370
-1
  9
$ENDCAPS
280
0
  9
$JOINSTYLE
280
0
  9
$LWDISPLAY
290
0
  9
$INSUNITS
 70
4
  9
$HYPERLINKBASE
  1

  9
$STYLESHEET
  1

  9
$XEDIT
290
1
  9
$CEPSNTYPE
380
0
  9
$PSTYLEMODE
290
1
  9
$FINGERPRINTGUID
  2
{D598FD05-6E1E-4596-9A92-1E09BD917ABE}
  9
$VERSIONGUID
  2
{DFB3EA09-74E9-4CC6-AC6A-2C693D3FB6D2}
  9
$EXTNAMES
290
1
  9
$PSVPSCALE
 40
0.0
  9
$OLESTARTUP
290
0
  9
$SORTENTS
280
127
  9
$INDEXCTL
280
0
  9
$HIDETEXT
280
1
  9
$XCLIPFRAME
280
1
  9
$HALOGAP
280
0
  9
$OBSCOLOR
 70
257
  9
$OBSLTYPE
280
0
  9
$INTERSECTIONDISPLAY
280
0
  9
$INTERSECTIONCOLOR
 70
257
  9
$DIMASSOC
280
2
  9
$PROJECTNAME
  1

  9
$CAMERADISPLAY
290
0
  9
$LENSLENGTH
 40
50.0
  9
$CAMERAHEIGHT
 40
0.0
  9
$STEPSPERSEC
 40
24.0
  9
$STEPSIZE
 40
100.0
  9
$3DDWFPREC
 40
2.0
  9
$PSOLWIDTH
 40
0.005
  9
$PSOLHEIGHT
 40
0.08
  9
$LOFTANG1
 40
1.570796326795
  9
$LOFTANG2
 40
1.570796326795
  9
$LOFTMAG1
 40
0.0
  9
$LOFTMAG2
 40
0.0
  9
$LOFTPARAM
 70
7
  9
$LOFTNORMALS
280
1
  9
$LATITUDE
 40
37.795
  9
$LONGITUDE
 40
-122.394
  9
$NORTHDIRECTION
 40
0.0
  9
$TIMEZONE
 70
-8000
  9
$LIGHTGLYPHDISPLAY
280
1
  9
$TILEMODELIGHTSYNCH
280
1
  9
$CMATERIAL
347
20
  9
$SOLIDHIST
280
0
  9
$SHOWHIST
280
1
  9
$DWFFRAME
280
2
  9
$DGNFRAME
280
2
  9
$REALWORLDSCALE
290
1
  9
$INTERFERECOLOR
 62
256
  9
$CSHADOW
280
0
  9
$SHADOWPLANELOCATION
 40
0.0
  0
ENDSEC
  0
SECTION
  2
CLASSES
  0
CLASS
  1
ACDBDICTIONARYWDFLT
  2
AcDbDictionaryWithDefault
  3
ObjectDBX Classes
 90
0
 91
0
280
0
281
0
  0
CLASS
  1
SUN
  2
AcDbSun
  3
SCENEOE
 90
1153
 91
0
280
0
281
0
  0
CLASS
  1
VISUALSTYLE
  2
AcDbVisualStyle
  3
ObjectDBX Classes
 90
4095
 91
0
280
0
281
0
  0
CLASS
  1
MATERIAL
  2
AcDbMaterial
  3
ObjectDBX Classes
 90
1153
 91
0
280
0
281
0
  0
CLASS
  1
SCALE
  2
AcDbScale
  3
ObjectDBX Classes
 90
1153
 91
0
280
0
281
0
  0
CLASS
  1
TABLESTYLE
  2
AcDbTableStyle
  3
ObjectDBX Classes
 90
4095
 91
0
280
0
281
0
  0
CLASS
  1
MLEADERSTYLE
  2
AcDbMLeaderStyle
  3
ACDB_MLEADERSTYLE_CLASS
 90
4095
 91
0
280
0
281
0
  0
CLASS
  1
DICTIONARYVAR
  2
AcDbDictionaryVar
  3
ObjectDBX Classes
 90
0
 91
0
280
0
281
0
  0
CLASS
  1
CELLSTYLEMAP
  2
AcDbCellStyleMap
  3
ObjectDBX Classes
 90
1152
 91
0
280
0
281
0
  0
CLASS
  1
MENTALRAYRENDERSETTINGS
  2
AcDbMentalRayRenderSettings
  3
SCENEOE
 90
1024
 91
0
280
0
281
0
  0
CLASS
  1
ACDBDETAILVIEWSTYLE
  2
AcDbDetailViewStyle
  3
ObjectDBX Classes
 90
1025
 91
0
280
0
281
0
  0
CLASS
  1
ACDBSECTIONVIEWSTYLE
  2
AcDbSectionViewStyle
  3
ObjectDBX Classes
 90
1025
 91
0
280
0
281
0
  0
CLASS
  1
RASTERVARIABLES
  2
AcDbRasterVariables
  3
ISM
 90
0
 91
0
280
0
281
0
  0
CLASS
  1
LAYOUT
  2
AcDbLayout
  3
ObjectDBX Classes
 90
0
 91
0
280
0
281
0
  0
CLASS
  1
ACDBPLACEHOLDER
  2
AcDbPlaceHolder
  3
ObjectDBX Classes
 90
0
 91
0
280
0
281
0
  0
ENDSEC
  0
SECTION
  2
TABLES
  0
TABLE
  2
VPORT
  5
8
330
0
100
AcDbSymbolTable
 70
1
  0
VPORT
  5
23
330
8
100
AcDbSymbolTableRecord
100
AcDbViewportTableRecord
  2
*Active
 70
0
 10
0.0
 20
0.0
 11
1.0
 21
1.0
 12
0.0
 22
0.0
 13
0.0
 23
0.0
 14
0.5
 24
0.5
 15
0.5
 25
0.5
 16
0.0
 26
0.0
 36
1.0
 17
0.0
 27
0.0
 37
0.0
 40
1000.0
 41
1.34
 42
50.0
 43
0.0
 44
0.0
 50
0.0
 51
0.0
 71
0
 72
1000
 73
1
 74
3
 75
0
 76
0
 77
0
 78
0
281
0
 65
0
146
0.0
  0
ENDTAB
  0
TABLE
  2
LTYPE
  5
2
330
0
100
AcDbSymbolTable
 70
5
  0
LTYPE
  5
24
330
2
100
AcDbSymbolTableRecord
100
AcDbLinetypeTableRecord
  2
ByBlock
 70
0
  3

 72
65
 73
0
 40
0.0
  0
LTYPE
  5
25
330
2
100
AcDbSymbolTableRecord
100
AcDbLinetypeTableRecord
  2
ByLayer
 70
0
  3

 72
65
 73
0
 40
0.0
  0
LTYPE
  5
26
330
2
100
AcDbSymbolTableRecord
100
AcDbLinetypeTableRecord
  2
Continuous
 70
0
  3

 72
65
 73
0
 40
0.0
  0
LTYPE
  5
2F
330
2
100
AcDbSymbolTableRecord
100
AcDbLinetypeTableRecord
  2
DASHED
 70
0
  3
Штриховая — — — —
 72
65
 73
2
 40
9.0
 49
6.0
 74
0
 49
-3.0
 74
0
  0
LTYPE
  5
30
330
2
100
AcDbSymbolTableRecord
100
AcDbLinetypeTableRecord
  2
DASHDOT
 70
0
  3
Штрихпунктирная — · — · —
 72
65
 73
4
 40
14.0
 49
8.0
 74
0
 49
-3.0
 74
0
 49
0.0
 74
0
 49
-3.0
 74
0
  0
ENDTAB
  0
TABLE
  2
LAYER
  5
1
330
0
100
AcDbSymbolTable
 70
10
  0
LAYER
  5
27
330
1
100
AcDbSymbolTableRecord
100
AcDbLayerTableRecord
  2
0
 70
0
 62
7
  6
Continuous
370
-3
390
13
347
21
  0
LAYER
  5
28
330
1
100
AcDbSymbolTableRecord
100
AcDbLayerTableRecord
  2
Defpoints
 70
0
 62
7
  6
Continuous
290
0
370
-3
390
13
347
21
  0
LAYER
  5
32
330
1
100
AcDbSymbolTableRecord
100
AcDbLayerTableRecord
  2
GAS
 70
0
 62
30
420
14712622
  6
Continuous
370
35
390
13
347
21
1001
AcAecLayerStandard
1000

1000
Газовый тракт (оранжевый)
  0
LAYER
  5
34
330
1
100
AcDbSymbolTableRecord
100
AcDbLayerTableRecord
  2
LIQUID
 70
0
 62
5
420
2783446
  6
Continuous
370
35
390
13
347
21
1001
AcAecLayerStandard
1000

1000
Жидкостные потоки: кислота, растворы, вода (синий)
  0
LAYER
  5
35
330
1
100
AcDbSymbolTableRecord
100
AcDbLayerTableRecord
  2
DUST
 70
0
 62
6
420
10702494
  6
Continuous
370
35
390
13
347
21
1001
AcAecLayerStandard
1000

1000
Пылевой тракт: циклоны, фильтры (фиолетовый)
  0
LAYER
  5
36
330
1
100
AcDbSymbolTableRecord
100
AcDbLayerTableRecord
  2
ELECTRIC
 70
0
 62
2
420
16429593
  6
Continuous
370
30
390
13
347
21
1001
AcAecLayerStandard
1000

1000
Электрика / энергоснабжение (жёлтый)
  0
LAYER
  5
37
330
1
100
AcDbSymbolTableRecord
100
AcDbLayerTableRecord
  2
INTERLOCK
 70
0
 62
1
420
13646651
  6
Continuous
370
30
390
13
347
21
1001
AcAecLayerStandard
1000

1000
Блокировки и защиты (красный)
  0
LAYER
  5
38
330
1
100
AcDbSymbolTableRecord
100
AcDbLayerTableRecord
  2
OUTLINE
 70
0
 62
7
  6
Continuous
370
25
390
13
347
21
1001
AcAecLayerStandard
1000

1000
Контуры оборудования, строительная графика (ink)
  0
LAYER
  5
39
330
1
100
AcDbSymbolTableRecord
100
AcDbLayerTableRecord
  2
TEXT_RU
 70
0
 62
7
  6
Continuous
370
25
390
13
347
21
1001
AcAecLayerStandard
1000

1000
Надписи (русские, UTF-8)
  0
LAYER
  5
3A
330
1
100
AcDbSymbolTableRecord
100
AcDbLayerTableRecord
  2
DIM
 70
0
 62
8
  6
Continuous
370
13
390
13
347
21
1001
AcAecLayerStandard
1000

1000
Размерные и вспомогательные линии, рамка, сетка
  0
ENDTAB
  0
TABLE
  2
STYLE
  5
5
330
0
100
AcDbSymbolTable
 70
2
  0
STYLE
  5
29
330
5
100
AcDbSymbolTableRecord
100
AcDbTextStyleTableRecord
  2
Standard
 70
0
 40
0.0
 41
1.0
 50
0.0
 71
0
 42
2.5
  3
txt
  4

  0
STYLE
  5
31
330
5
100
AcDbSymbolTableRecord
100
AcDbTextStyleTableRecord
  2
TXTRU
 70
0
 40
0.0
 41
1.0
 50
0.0
 71
0
 42
2.5
  3
arial.ttf
  4

  0
ENDTAB
  0
TABLE
  2
VIEW
  5
7
330
0
100
AcDbSymbolTable
 70
0
  0
ENDTAB
  0
TABLE
  2
UCS
  5
6
330
0
100
AcDbSymbolTable
 70
0
  0
ENDTAB
  0
TABLE
  2
APPID
  5
3
330
0
100
AcDbSymbolTable
 70
4
  0
APPID
  5
2A
330
3
100
AcDbSymbolTableRecord
100
AcDbRegAppTableRecord
  2
ACAD
 70
0
  0
APPID
  5
33
330
3
100
AcDbSymbolTableRecord
100
AcDbRegAppTableRecord
  2
AcAecLayerStandard
 70
0
  0
APPID
  5
119
330
3
100
AcDbSymbolTableRecord
100
AcDbRegAppTableRecord
  2
HATCHBACKGROUNDCOLOR
 70
0
  0
APPID
  5
11A
330
3
100
AcDbSymbolTableRecord
100
AcDbRegAppTableRecord
  2
EZDXF
 70
0
  0
ENDTAB
  0
TABLE
  2
DIMSTYLE
  5
4
330
0
100
AcDbSymbolTable
 70
1
100
AcDbDimStyleTable
  0
DIMSTYLE
105
2B
330
4
100
AcDbSymbolTableRecord
100
AcDbDimStyleTableRecord
  2
Standard
 70
0
 40
1.0
 41
2.5
 42
0.625
 43
3.75
 44
1.25
 45
0.0
 46
0.0
 47
0.0
 48
0.0
 49
2.5
140
2.5
141
2.5
142
0.0
143
0.03937007874
144
1.0
145
0.0
146
1.0
147
0.625
148
0.0
 69
0
 70
0
 71
0
 72
0
 73
0
 74
0
 75
0
 76
0
 77
1
 78
8
 79
3
170
0
171
3
172
1
173
0
174
0
175
0
176
0
177
0
178
0
179
2
271
2
272
2
273
2
274
3
275
0
276
0
277
2
278
44
279
0
280
0
281
0
282
0
283
0
284
8
285
0
286
0
288
0
289
3
290
0
371
-2
372
-2
  0
ENDTAB
  0
TABLE
  2
BLOCK_RECORD
  5
9
330
0
100
AcDbSymbolTable
 70
2
  0
BLOCK_RECORD
  5
17
330
9
100
AcDbSymbolTableRecord
100
AcDbBlockTableRecord
  2
*Model_Space
340
1A
 70
0
280
1
281
0
  0
BLOCK_RECORD
  5
1B
330
9
100
AcDbSymbolTableRecord
100
AcDbBlockTableRecord
  2
*Paper_Space
340
1E
 70
0
280
1
281
0
  0
ENDTAB
  0
ENDSEC
  0
SECTION
  2
BLOCKS
  0
BLOCK
  5
18
330
17
100
AcDbEntity
  8
0
100
AcDbBlockBegin
  2
*Model_Space
 70
0
 10
0.0
 20
0.0
 30
0.0
  3
*Model_Space
  1

  0
ENDBLK
  5
19
330
17
100
AcDbEntity
  8
0
100
AcDbBlockEnd
  0
BLOCK
  5
1C
330
1B
100
AcDbEntity
  8
0
100
AcDbBlockBegin
  2
*Paper_Space
 70
0
 10
0.0
 20
0.0
 30
0.0
  3
*Paper_Space
  1

  0
ENDBLK
  5
1D
330
1B
100
AcDbEntity
  8
0
100
AcDbBlockEnd
  0
ENDSEC
  0
SECTION
  2
ENTITIES
  0
LWPOLYLINE
  5
3B
330
17
100
AcDbEntity
  8
DIM
420
15198183
100
AcDbPolyline
 90
4
 70
1
 10
6.0
 20
634.0
 10
1184.0
 20
634.0
 10
1184.0
 20
6.0
 10
6.0
 20
6.0
  0
TEXT
  5
3C
330
17
100
AcDbEntity
  8
TEXT_RU
100
AcDbText
 10
20.0
 20
14.0
 30
0.0
 40
7.0
  1
ЭСКИЗ — не для строительства · поперечный разрез корпуса ЭЭ, Лот №3, сценарий Б (36 × 190 м) · источники: черновик ПЗ Лота №3 «Компоновка», ИД ч.2 прил. В · КВАНТ, черновик БИ
  7
TXTRU
 11
20.0
 21
14.0
 31
0.0
100
AcDbText
  0
TEXT
  5
3D
330
17
100
AcDbEntity
  8
TEXT_RU
100
AcDbText
 10
1174.0
 20
610.0
 30
0.0
 40
8.4
  1
РАЗРЕЗ · ЛОТ №3 — КОРПУС ЭЛЕКТРОЭКСТРАКЦИИ (СЦЕНАРИЙ Б)
  7
TXTRU
 72
2
 11
1174.0
 21
610.0
 31
0.0
100
AcDbText
  0
LINE
  5
3E
330
17
100
AcDbEntity
  8
DIM
  6
DASHED
100
AcDbLine
 10
176.0
 20
556.0
 30
0.0
 11
176.0
 21
100.0
 31
0.0
  0
CIRCLE
  5
3F
330
17
100
AcDbEntity
  8
OUTLINE
100
AcDbCircle
 10
176.0
 20
566.0
 30
0.0
 40
10.0
  0
TEXT
  5
40
330
17
100
AcDbEntity
  8
TEXT_RU
100
AcDbText
 10
176.0
 20
562.0
 30
0.0
 40
7.7
  1
А
  7
TXTRU
 72
1
 11
176.0
 21
562.0
 31
0.0
100
AcDbText
  0
LINE
  5
41
330
17
100
AcDbEntity
  8
DIM
  6
DASHED
100
AcDbLine
 10
572.0
 20
556.0
 30
0.0
 11
572.0
 21
100.0
 31
0.0
  0
CIRCLE
  5
42
330
17
100
AcDbEntity
  8
OUTLINE
100
AcDbCircle
 10
572.0
 20
566.0
 30
0.0
 40
10.0
  0
TEXT
  5
43
330
17
100
AcDbEntity
  8
TEXT_RU
100
AcDbText
 10
572.0
 20
562.0
 30
0.0
 40
7.7
  1
Б
  7
TXTRU
 72
1
 11
572.0
 21
562.0
 31
0.0
100
AcDbText
  0
LINE
  5
44
330
17
100
AcDbEntity
  8
DIM
  6
DASHED
100
AcDbLine
 10
968.0
 20
556.0
 30
0.0
 11
968.0
 21
100.0
 31
0.0
  0
CIRCLE
  5
45
330
17
100
AcDbEntity
  8
OUTLINE
100
AcDbCircle
 10
968.0
 20
566.0
 30
0.0
 40
10.0
  0
TEXT
  5
46
330
17
100
AcDbEntity
  8
TEXT_RU
100
AcDbText
 10
968.0
 20
562.0
 30
0.0
 40
7.7
  1
В
  7
TXTRU
 72
1
 11
968.0
 21
562.0
 31
0.0
100
AcDbText
  0
LINE
  5
47
330
17
100
AcDbEntity
  8
DIM
420
5394766
100
AcDbLine
 10
176.0
 20
544.0
 30
0.0
 11
968.0
 21
544.0
 31
0.0
  0
LINE
  5
48
330
17
100
AcDbEntity
  8
DIM
420
5394766
100
AcDbLine
 10
173.3
 20
541.3
 30
0.0
 11
178.7
 21
546.7
 31
0.0
  0
LINE
  5
49
330
17
100
AcDbEntity
  8
DIM
420
5394766
100
AcDbLine
 10
965.3
 20
541.3
 30
0.0
 11
970.7
 21
546.7
 31
0.0
  0
TEXT
  5
4A
330
17
100
AcDbEntity
  8
TEXT_RU
100
AcDbText
 10
572.0
 20
549.0
 30
0.0
 40
7.0
  1
36 000
  7
TXTRU
 72
1
 11
572.0
 21
549.0
 31
0.0
100
AcDbText
  0
LINE
  5
4B
330
17
100
AcDbEntity
  8
DIM
420
5394766
100
AcDbLine
 10
176.0
 20
522.0
 30
0.0
 11
572.0
 21
522.0
 31
0.0
  0
LINE
  5
4C
330
17
100
AcDbEntity
  8
DIM
420
5394766
100
AcDbLine
 10
173.3
 20
519.3
 30
0.0
 11
178.7
 21
524.7
 31
0.0
  0
LINE
  5
4D
330
17
100
AcDbEntity
  8
DIM
420
5394766
100
AcDbLine
 10
569.3
 20
519.3
 30
0.0
 11
574.7
 21
524.7
 31
0.0
  0
TEXT
  5
4E
330
17
100
AcDbEntity
  8
TEXT_RU
100
AcDbText
 10
374.0
 20
527.0
 30
0.0
 40
7.0
  1
18 000
  7
TXTRU
 72
1
 11
374.0
 21
527.0
 31
0.0
100
AcDbText
  0
LINE
  5
4F
330
17
100
AcDbEntity
  8
DIM
420
5394766
100
AcDbLine
 10
572.0
 20
522.0
 30
0.0
 11
968.0
 21
522.0
 31
0.0
  0
LINE
  5
50
330
17
100
AcDbEntity
  8
DIM
420
5394766
100
AcDbLine
 10
569.3
 20
519.3
 30
0.0
 11
574.7
 21
524.7
 31
0.0
  0
LINE
  5
51
330
17
100
AcDbEntity
  8
DIM
420
5394766
100
AcDbLine
 10
965.3
 20
519.3
 30
0.0
 11
970.7
 21
524.7
 31
0.0
  0
TEXT
  5
52
330
17
100
AcDbEntity
  8
TEXT_RU
100
AcDbText
 10
770.0
 20
527.0
 30
0.0
 40
7.0
  1
18 000
  7
TXTRU
 72
1
 11
770.0
 21
527.0
 31
0.0
100
AcDbText
  0
LINE
  5
53
330
17
100
AcDbEntity
  8
DIM
  6
DASHED
420
15198183
100
AcDbLine
 10
178.0
 20
243.0
 30
0.0
 11
961.0
 21
243.0
 31
0.0
  0
LINE
  5
54
330
17
100
AcDbEntity
  8
DIM
  6
DASHED
420
15198183
100
AcDbLine
 10
178.0
 20
124.0
 30
0.0
 11
961.0
 21
124.0
 31
0.0
  0
LWPOLYLINE
  5
55
330
17
100
AcDbEntity
  8
OUTLINE
100
AcDbPolyline
 90
4
 70
1
 10
159.0
 20
510.0
 10
167.0
 20
510.0
 10
167.0
 20
100.0
 10
159.0
 20
100.0
  0
LWPOLYLINE
  5
56
330
17
100
AcDbEntity
  8
OUTLINE
100
AcDbPolyline
 90
4
 70
1
 10
977.0
 20
510.0
 10
985.0
 20
510.0
 10
985.0
 20
100.0
 10
977.0
 20
100.0
  0
LINE
  5
57
330
17
100
AcDbEntity
  8
OUTLINE
100
AcDbLine
 10
159.0
 20
506.0
 30
0.0
 11
985.0
 21
506.0
 31
0.0
  0
LINE
  5
58
330
17
100
AcDbEntity
  8
OUTLINE
100
AcDbLine
 10
159.0
 20
502.0
 30
0.0
 11
985.0
 21
502.0
 31
0.0
  0
LWPOLYLINE
  5
59
330
17
100
AcDbEntity
  8
OUTLINE
100
AcDbPolyline
 90
4
 70
1
 10
169.0
 20
452.0
 10
183.0
 20
452.0
 10
183.0
 20
100.0
 10
169.0
 20
100.0
  0
LWPOLYLINE
  5
5A
330
17
100
AcDbEntity
  8
OUTLINE
100
AcDbPolyline
 90
4
 70
1
 10
565.0
 20
452.0
 10
579.0
 20
452.0
 10
579.0
 20
100.0
 10
565.0
 20
100.0
  0
LWPOLYLINE
  5
5B
330
17
100
AcDbEntity
  8
OUTLINE
100
AcDbPolyline
 90
4
 70
1
 10
961.0
 20
452.0
 10
975.0
 20
452.0
 10
975.0
 20
100.0
 10
961.0
 20
100.0
  0
LINE
  5
5C
330
17
100
AcDbEntity
  8
OUTLINE
100
AcDbLine
 10
176.0
 20
452.0
 30
0.0
 11
968.0
 21
452.0
 31
0.0
  0
LINE
  5
5D
330
17
100
AcDbEntity
  8
OUTLINE
100
AcDbLine
 10
176.0
 20
498.0
 30
0.0
 11
968.0
 21
498.0
 31
0.0
  0
LINE
  5
5E
330
17
100
AcDbEntity
  8
OUTLINE
100
AcDbLine
 10
176.0
 20
452.0
 30
0.0
 11
198.0
 21
498.0
 31
0.0
  0
LINE
  5
5F
330
17
100
AcDbEntity
  8
OUTLINE
100
AcDbLine
 10
198.0
 20
498.0
 30
0.0
 11
220.0
 21
452.0
 31
0.0
  0
LINE
  5
60
330
17
100
AcDbEntity
  8
OUTLINE
100
AcDbLine
 10
220.0
 20
452.0
 30
0.0
 11
242.0
 21
498.0
 31
0.0
  0
LINE
  5
61
330
17
100
AcDbEntity
  8
OUTLINE
100
AcDbLine
 10
242.0
 20
498.0
 30
0.0
 11
264.0
 21
452.0
 31
0.0
  0
LINE
  5
62
330
17
100
AcDbEntity
  8
OUTLINE
100
AcDbLine
 10
264.0
 20
452.0
 30
0.0
 11
286.0
 21
498.0
 31
0.0
  0
LINE
  5
63
330
17
100
AcDbEntity
  8
OUTLINE
100
AcDbLine
 10
286.0
 20
498.0
 30
0.0
 11
308.0
 21
452.0
 31
0.0
  0
LINE
  5
64
330
17
100
AcDbEntity
  8
OUTLINE
100
AcDbLine
 10
308.0
 20
452.0
 30
0.0
 11
330.0
 21
498.0
 31
0.0
  0
LINE
  5
65
330
17
100
AcDbEntity
  8
OUTLINE
100
AcDbLine
 10
330.0
 20
498.0
 30
0.0
 11
352.0
 21
452.0
 31
0.0
  0
LINE
  5
66
330
17
100
AcDbEntity
  8
OUTLINE
100
AcDbLine
 10
352.0
 20
452.0
 30
0.0
 11
374.0
 21
498.0
 31
0.0
  0
LINE
  5
67
330
17
100
AcDbEntity
  8
OUTLINE
100
AcDbLine
 10
374.0
 20
498.0
 30
0.0
 11
396.0
 21
452.0
 31
0.0
  0
LINE
  5
68
330
17
100
AcDbEntity
  8
OUTLINE
100
AcDbLine
 10
396.0
 20
452.0
 30
0.0
 11
418.0
 21
498.0
 31
0.0
  0
LINE
  5
69
330
17
100
AcDbEntity
  8
OUTLINE
100
AcDbLine
 10
418.0
 20
498.0
 30
0.0
 11
440.0
 21
452.0
 31
0.0
  0
LINE
  5
6A
330
17
100
AcDbEntity
  8
OUTLINE
100
AcDbLine
 10
440.0
 20
452.0
 30
0.0
 11
462.0
 21
498.0
 31
0.0
  0
LINE
  5
6B
330
17
100
AcDbEntity
  8
OUTLINE
100
AcDbLine
 10
462.0
 20
498.0
 30
0.0
 11
484.0
 21
452.0
 31
0.0
  0
LINE
  5
6C
330
17
100
AcDbEntity
  8
OUTLINE
100
AcDbLine
 10
484.0
 20
452.0
 30
0.0
 11
506.0
 21
498.0
 31
0.0
  0
LINE
  5
6D
330
17
100
AcDbEntity
  8
OUTLINE
100
AcDbLine
 10
506.0
 20
498.0
 30
0.0
 11
528.0
 21
452.0
 31
0.0
  0
LINE
  5
6E
330
17
100
AcDbEntity
  8
OUTLINE
100
AcDbLine
 10
528.0
 20
452.0
 30
0.0
 11
550.0
 21
498.0
 31
0.0
  0
LINE
  5
6F
330
17
100
AcDbEntity
  8
OUTLINE
100
AcDbLine
 10
550.0
 20
498.0
 30
0.0
 11
572.0
 21
452.0
 31
0.0
  0
LINE
  5
70
330
17
100
AcDbEntity
  8
OUTLINE
100
AcDbLine
 10
572.0
 20
452.0
 30
0.0
 11
594.0
 21
498.0
 31
0.0
  0
LINE
  5
71
330
17
100
AcDbEntity
  8
OUTLINE
100
AcDbLine
 10
594.0
 20
498.0
 30
0.0
 11
616.0
 21
452.0
 31
0.0
  0
LINE
  5
72
330
17
100
AcDbEntity
  8
OUTLINE
100
AcDbLine
 10
616.0
 20
452.0
 30
0.0
 11
638.0
 21
498.0
 31
0.0
  0
LINE
  5
73
330
17
100
AcDbEntity
  8
OUTLINE
100
AcDbLine
 10
638.0
 20
498.0
 30
0.0
 11
660.0
 21
452.0
 31
0.0
  0
LINE
  5
74
330
17
100
AcDbEntity
  8
OUTLINE
100
AcDbLine
 10
660.0
 20
452.0
 30
0.0
 11
682.0
 21
498.0
 31
0.0
  0
LINE
  5
75
330
17
100
AcDbEntity
  8
OUTLINE
100
AcDbLine
 10
682.0
 20
498.0
 30
0.0
 11
704.0
 21
452.0
 31
0.0
  0
LINE
  5
76
330
17
100
AcDbEntity
  8
OUTLINE
100
AcDbLine
 10
704.0
 20
452.0
 30
0.0
 11
726.0
 21
498.0
 31
0.0
  0
LINE
  5
77
330
17
100
AcDbEntity
  8
OUTLINE
100
AcDbLine
 10
726.0
 20
498.0
 30
0.0
 11
748.0
 21
452.0
 31
0.0
  0
LINE
  5
78
330
17
100
AcDbEntity
  8
OUTLINE
100
AcDbLine
 10
748.0
 20
452.0
 30
0.0
 11
770.0
 21
498.0
 31
0.0
  0
LINE
  5
79
330
17
100
AcDbEntity
  8
OUTLINE
100
AcDbLine
 10
770.0
 20
498.0
 30
0.0
 11
792.0
 21
452.0
 31
0.0
  0
LINE
  5
7A
330
17
100
AcDbEntity
  8
OUTLINE
100
AcDbLine
 10
792.0
 20
452.0
 30
0.0
 11
814.0
 21
498.0
 31
0.0
  0
LINE
  5
7B
330
17
100
AcDbEntity
  8
OUTLINE
100
AcDbLine
 10
814.0
 20
498.0
 30
0.0
 11
836.0
 21
452.0
 31
0.0
  0
LINE
  5
7C
330
17
100
AcDbEntity
  8
OUTLINE
100
AcDbLine
 10
836.0
 20
452.0
 30
0.0
 11
858.0
 21
498.0
 31
0.0
  0
LINE
  5
7D
330
17
100
AcDbEntity
  8
OUTLINE
100
AcDbLine
 10
858.0
 20
498.0
 30
0.0
 11
880.0
 21
452.0
 31
0.0
  0
LINE
  5
7E
330
17
100
AcDbEntity
  8
OUTLINE
100
AcDbLine
 10
880.0
 20
452.0
 30
0.0
 11
902.0
 21
498.0
 31
0.0
  0
LINE
  5
7F
330
17
100
AcDbEntity
  8
OUTLINE
100
AcDbLine
 10
902.0
 20
498.0
 30
0.0
 11
924.0
 21
452.0
 31
0.0
  0
LINE
  5
80
330
17
100
AcDbEntity
  8
OUTLINE
100
AcDbLine
 10
924.0
 20
452.0
 30
0.0
 11
946.0
 21
498.0
 31
0.0
  0
LINE
  5
81
330
17
100
AcDbEntity
  8
OUTLINE
100
AcDbLine
 10
946.0
 20
498.0
 30
0.0
 11
968.0
 21
452.0
 31
0.0
  0
TEXT
  5
82
330
17
100
AcDbEntity
  8
TEXT_RU
100
AcDbText
 10
374.0
 20
436.0
 30
0.0
 40
6.3
  1
стропильные фермы (низ на отм. ~ +16,0)
  7
TXTRU
 72
1
 11
374.0
 21
436.0
 31
0.0
100
AcDbText
  0
LINE
  5
83
330
17
100
AcDbEntity
  8
OUTLINE
100
AcDbLine
 10
167.0
 20
100.0
 30
0.0
 11
266.0
 21
100.0
 31
0.0
  0
LINE
  5
84
330
17
100
AcDbEntity
  8
OUTLINE
100
AcDbLine
 10
482.0
 20
100.0
 30
0.0
 11
662.0
 21
100.0
 31
0.0
  0
LINE
  5
85
330
17
100
AcDbEntity
  8
OUTLINE
100
AcDbLine
 10
878.0
 20
100.0
 30
0.0
 11
977.0
 21
100.0
 31
0.0
  0
LINE
  5
86
330
17
100
AcDbEntity
  8
DIM
  6
DASHED
100
AcDbLine
 10
266.0
 20
100.0
 30
0.0
 11
266.0
 21
60.0
 31
0.0
  0
LINE
  5
87
330
17
100
AcDbEntity
  8
DIM
  6
DASHED
100
AcDbLine
 10
482.0
 20
100.0
 30
0.0
 11
482.0
 21
60.0
 31
0.0
  0
LINE
  5
88
330
17
100
AcDbEntity
  8
DIM
  6
DASHED
100
AcDbLine
 10
266.0
 20
60.0
 30
0.0
 11
482.0
 21
60.0
 31
0.0
  0
LWPOLYLINE
  5
89
330
17
100
AcDbEntity
  8
DIM
  6
DASHED
100
AcDbPolyline
 90
4
 70
1
 10
267.0
 20
66.0
 10
273.0
 20
66.0
 10
273.0
 20
60.0
 10
267.0
 20
60.0
  0
LWPOLYLINE
  5
8A
330
17
100
AcDbEntity
  8
DIM
  6
DASHED
100
AcDbPolyline
 90
4
 70
1
 10
475.0
 20
66.0
 10
481.0
 20
66.0
 10
481.0
 20
60.0
 10
475.0
 20
60.0
  0
LINE
  5
8B
330
17
100
AcDbEntity
  8
DIM
  6
DASHED
100
AcDbLine
 10
662.0
 20
100.0
 30
0.0
 11
662.0
 21
60.0
 31
0.0
  0
LINE
  5
8C
330
17
100
AcDbEntity
  8
DIM
  6
DASHED
100
AcDbLine
 10
878.0
 20
100.0
 30
0.0
 11
878.0
 21
60.0
 31
0.0
  0
LINE
  5
8D
330
17
100
AcDbEntity
  8
DIM
  6
DASHED
100
AcDbLine
 10
662.0
 20
60.0
 30
0.0
 11
878.0
 21
60.0
 31
0.0
  0
LWPOLYLINE
  5
8E
330
17
100
AcDbEntity
  8
DIM
  6
DASHED
100
AcDbPolyline
 90
4
 70
1
 10
663.0
 20
66.0
 10
669.0
 20
66.0
 10
669.0
 20
60.0
 10
663.0
 20
60.0
  0
LWPOLYLINE
  5
8F
330
17
100
AcDbEntity
  8
DIM
  6
DASHED
100
AcDbPolyline
 90
4
 70
1
 10
871.0
 20
66.0
 10
877.0
 20
66.0
 10
877.0
 20
60.0
 10
871.0
 20
60.0
  0
LINE
  5
90
330
17
100
AcDbEntity
  8
DIM
  6
DASHED
100
AcDbLine
 10
176.0
 20
60.0
 30
0.0
 11
266.0
 21
60.0
 31
0.0
  0
HATCH
  5
91
330
17
100
AcDbEntity
  8
LIQUID
 62
7
420
11849969
100
AcDbHatch
 10
0.0
 20
0.0
 30
0.0
210
0.0
220
0.0
230
1.0
  2
SOLID
 70
1
 71
0
 91
1
 92
3
 72
0
 73
1
 93
5
 10
283.0
 20
116.0
 10
465.0
 20
116.0
 10
465.0
 20
93.0
 10
374.0
 20
88.0
 10
283.0
 20
93.0
 97
0
 75
0
 76
1
 98
0
  0
LWPOLYLINE
  5
92
330
17
100
AcDbEntity
  8
LIQUID
100
AcDbPolyline
 90
4
 70
1
 10
279.0
 20
124.0
 10
469.0
 20
124.0
 10
469.0
 20
86.0
 10
279.0
 20
86.0
  0
LWPOLYLINE
  5
93
330
17
100
AcDbEntity
  8
LIQUID
100
AcDbPolyline
 90
3
 70
0
 10
283.0
 20
93.0
 10
374.0
 20
88.0
 10
465.0
 20
93.0
  0
LWPOLYLINE
  5
94
330
17
100
AcDbEntity
  8
LIQUID
100
AcDbPolyline
 90
4
 70
1
 10
370.0
 20
86.0
 10
378.0
 20
86.0
 10
378.0
 20
81.0
 10
370.0
 20
81.0
  0
LWPOLYLINE
  5
95
330
17
100
AcDbEntity
  8
OUTLINE
100
AcDbPolyline
 90
4
 70
1
 10
293.0
 20
86.0
 10
307.0
 20
86.0
 10
307.0
 20
60.0
 10
293.0
 20
60.0
  0
LWPOLYLINE
  5
96
330
17
100
AcDbEntity
  8
OUTLINE
100
AcDbPolyline
 90
4
 70
1
 10
341.0
 20
86.0
 10
355.0
 20
86.0
 10
355.0
 20
60.0
 10
341.0
 20
60.0
  0
LWPOLYLINE
  5
97
330
17
100
AcDbEntity
  8
OUTLINE
100
AcDbPolyline
 90
4
 70
1
 10
393.0
 20
86.0
 10
407.0
 20
86.0
 10
407.0
 20
60.0
 10
393.0
 20
60.0
  0
LWPOLYLINE
  5
98
330
17
100
AcDbEntity
  8
OUTLINE
100
AcDbPolyline
 90
4
 70
1
 10
441.0
 20
86.0
 10
455.0
 20
86.0
 10
455.0
 20
60.0
 10
441.0
 20
60.0
  0
LINE
  5
99
330
17
100
AcDbEntity
  8
LIQUID
  6
DASHED
100
AcDbLine
 10
374.0
 20
81.0
 30
0.0
 11
374.0
 21
70.0
 31
0.0
  0
HATCH
  5
9A
330
17
100
AcDbEntity
  8
OUTLINE
 62
7
100
AcDbHatch
 10
0.0
 20
0.0
 30
0.0
210
0.0
220
0.0
230
1.0
  2
SOLID
 70
1
 71
0
 91
1
 92
3
 72
0
 73
1
 93
4
 10
359.0
 20
65.0
 10
365.0
 20
65.0
 10
365.0
 20
60.0
 10
359.0
 20
60.0
 97
0
 75
0
 76
1
 98
0
  0
HATCH
  5
9B
330
17
100
AcDbEntity
  8
OUTLINE
 62
7
100
AcDbHatch
 10
0.0
 20
0.0
 30
0.0
210
0.0
220
0.0
230
1.0
  2
SOLID
 70
1
 71
0
 91
1
 92
3
 72
0
 73
1
 93
4
 10
383.0
 20
65.0
 10
389.0
 20
65.0
 10
389.0
 20
60.0
 10
383.0
 20
60.0
 97
0
 75
0
 76
1
 98
0
  0
LWPOLYLINE
  5
9C
330
17
100
AcDbEntity
  8
LIQUID
  6
DASHED
100
AcDbPolyline
 90
4
 70
1
 10
315.0
 20
60.0
 10
333.0
 20
60.0
 10
333.0
 20
53.0
 10
315.0
 20
53.0
  0
HATCH
  5
9D
330
17
100
AcDbEntity
  8
LIQUID
 62
7
420
11849969
100
AcDbHatch
 10
0.0
 20
0.0
 30
0.0
210
0.0
220
0.0
230
1.0
  2
SOLID
 70
1
 71
0
 91
1
 92
3
 72
0
 73
1
 93
5
 10
679.0
 20
116.0
 10
861.0
 20
116.0
 10
861.0
 20
93.0
 10
770.0
 20
88.0
 10
679.0
 20
93.0
 97
0
 75
0
 76
1
 98
0
  0
LWPOLYLINE
  5
9E
330
17
100
AcDbEntity
  8
LIQUID
100
AcDbPolyline
 90
4
 70
1
 10
675.0
 20
124.0
 10
865.0
 20
124.0
 10
865.0
 20
86.0
 10
675.0
 20
86.0
  0
LWPOLYLINE
  5
9F
330
17
100
AcDbEntity
  8
LIQUID
100
AcDbPolyline
 90
3
 70
0
 10
679.0
 20
93.0
 10
770.0
 20
88.0
 10
861.0
 20
93.0
  0
LWPOLYLINE
  5
A0
330
17
100
AcDbEntity
  8
LIQUID
100
AcDbPolyline
 90
4
 70
1
 10
766.0
 20
86.0
 10
774.0
 20
86.0
 10
774.0
 20
81.0
 10
766.0
 20
81.0
  0
LWPOLYLINE
  5
A1
330
17
100
AcDbEntity
  8
OUTLINE
100
AcDbPolyline
 90
4
 70
1
 10
689.0
 20
86.0
 10
703.0
 20
86.0
 10
703.0
 20
60.0
 10
689.0
 20
60.0
  0
LWPOLYLINE
  5
A2
330
17
100
AcDbEntity
  8
OUTLINE
100
AcDbPolyline
 90
4
 70
1
 10
737.0
 20
86.0
 10
751.0
 20
86.0
 10
751.0
 20
60.0
 10
737.0
 20
60.0
  0
LWPOLYLINE
  5
A3
330
17
100
AcDbEntity
  8
OUTLINE
100
AcDbPolyline
 90
4
 70
1
 10
789.0
 20
86.0
 10
803.0
 20
86.0
 10
803.0
 20
60.0
 10
789.0
 20
60.0
  0
LWPOLYLINE
  5
A4
330
17
100
AcDbEntity
  8
OUTLINE
100
AcDbPolyline
 90
4
 70
1
 10
837.0
 20
86.0
 10
851.0
 20
86.0
 10
851.0
 20
60.0
 10
837.0
 20
60.0
  0
LINE
  5
A5
330
17
100
AcDbEntity
  8
LIQUID
  6
DASHED
100
AcDbLine
 10
770.0
 20
81.0
 30
0.0
 11
770.0
 21
70.0
 31
0.0
  0
HATCH
  5
A6
330
17
100
AcDbEntity
  8
OUTLINE
 62
7
100
AcDbHatch
 10
0.0
 20
0.0
 30
0.0
210
0.0
220
0.0
230
1.0
  2
SOLID
 70
1
 71
0
 91
1
 92
3
 72
0
 73
1
 93
4
 10
755.0
 20
65.0
 10
761.0
 20
65.0
 10
761.0
 20
60.0
 10
755.0
 20
60.0
 97
0
 75
0
 76
1
 98
0
  0
HATCH
  5
A7
330
17
100
AcDbEntity
  8
OUTLINE
 62
7
100
AcDbHatch
 10
0.0
 20
0.0
 30
0.0
210
0.0
220
0.0
230
1.0
  2
SOLID
 70
1
 71
0
 91
1
 92
3
 72
0
 73
1
 93
4
 10
779.0
 20
65.0
 10
785.0
 20
65.0
 10
785.0
 20
60.0
 10
779.0
 20
60.0
 97
0
 75
0
 76
1
 98
0
  0
LWPOLYLINE
  5
A8
330
17
100
AcDbEntity
  8
LIQUID
  6
DASHED
100
AcDbPolyline
 90
4
 70
1
 10
711.0
 20
60.0
 10
729.0
 20
60.0
 10
729.0
 20
53.0
 10
711.0
 20
53.0
  0
TEXT
  5
A9
330
17
100
AcDbEntity
  8
TEXT_RU
100
AcDbText
 10
374.0
 20
106.0
 30
0.0
 40
6.3
  1
электролит
  7
TXTRU
 72
1
 11
374.0
 21
106.0
 31
0.0
100
AcDbText
  0
LWPOLYLINE
  5
AA
330
17
100
AcDbEntity
  8
DUST
  6
DASHED
100
AcDbPolyline
 90
4
 70
1
 10
356.0
 20
82.0
 10
392.0
 20
82.0
 10
392.0
 20
66.0
 10
356.0
 20
66.0
  0
LWPOLYLINE
  5
AB
330
17
100
AcDbEntity
  8
OUTLINE
100
AcDbPolyline
 90
4
 70
0
 10
679.0
 20
124.0
 10
683.0
 20
131.0
 10
857.0
 20
131.0
 10
861.0
 20
124.0
  0
TEXT
  5
AC
330
17
100
AcDbEntity
  8
TEXT_RU
100
AcDbText
 10
770.0
 20
135.0
 30
0.0
 40
5.6
  1
колпак (крышка) ванны
  7
TXTRU
 72
1
 11
770.0
 21
135.0
 31
0.0
100
AcDbText
  0
LWPOLYLINE
  5
AD
330
17
100
AcDbEntity
  8
OUTLINE
100
AcDbPolyline
 90
4
 70
1
 10
244.0
 20
126.0
 10
279.0
 20
126.0
 10
279.0
 20
122.0
 10
244.0
 20
122.0
  0
LINE
  5
AE
330
17
100
AcDbEntity
  8
OUTLINE
100
AcDbLine
 10
250.0
 20
122.0
 30
0.0
 11
250.0
 21
100.0
 31
0.0
  0
LINE
  5
AF
330
17
100
AcDbEntity
  8
OUTLINE
100
AcDbLine
 10
273.0
 20
122.0
 30
0.0
 11
273.0
 21
100.0
 31
0.0
  0
LINE
  5
B0
330
17
100
AcDbEntity
  8
OUTLINE
100
AcDbLine
 10
246.0
 20
126.0
 30
0.0
 11
246.0
 21
148.0
 31
0.0
  0
LINE
  5
B1
330
17
100
AcDbEntity
  8
OUTLINE
100
AcDbLine
 10
241.0
 20
148.0
 30
0.0
 11
252.0
 21
148.0
 31
0.0
  0
LWPOLYLINE
  5
B2
330
17
100
AcDbEntity
  8
OUTLINE
100
AcDbPolyline
 90
4
 70
1
 10
469.0
 20
126.0
 10
504.0
 20
126.0
 10
504.0
 20
122.0
 10
469.0
 20
122.0
  0
LINE
  5
B3
330
17
100
AcDbEntity
  8
OUTLINE
100
AcDbLine
 10
475.0
 20
122.0
 30
0.0
 11
475.0
 21
100.0
 31
0.0
  0
LINE
  5
B4
330
17
100
AcDbEntity
  8
OUTLINE
100
AcDbLine
 10
498.0
 20
122.0
 30
0.0
 11
498.0
 21
100.0
 31
0.0
  0
LINE
  5
B5
330
17
100
AcDbEntity
  8
OUTLINE
100
AcDbLine
 10
502.0
 20
126.0
 30
0.0
 11
502.0
 21
148.0
 31
0.0
  0
LINE
  5
B6
330
17
100
AcDbEntity
  8
OUTLINE
100
AcDbLine
 10
497.0
 20
148.0
 30
0.0
 11
508.0
 21
148.0
 31
0.0
  0
LWPOLYLINE
  5
B7
330
17
100
AcDbEntity
  8
OUTLINE
100
AcDbPolyline
 90
4
 70
1
 10
640.0
 20
126.0
 10
675.0
 20
126.0
 10
675.0
 20
122.0
 10
640.0
 20
122.0
  0
LINE
  5
B8
330
17
100
AcDbEntity
  8
OUTLINE
100
AcDbLine
 10
646.0
 20
122.0
 30
0.0
 11
646.0
 21
100.0
 31
0.0
  0
LINE
  5
B9
330
17
100
AcDbEntity
  8
OUTLINE
100
AcDbLine
 10
669.0
 20
122.0
 30
0.0
 11
669.0
 21
100.0
 31
0.0
  0
LINE
  5
BA
330
17
100
AcDbEntity
  8
OUTLINE
100
AcDbLine
 10
642.0
 20
126.0
 30
0.0
 11
642.0
 21
148.0
 31
0.0
  0
LINE
  5
BB
330
17
100
AcDbEntity
  8
OUTLINE
100
AcDbLine
 10
637.0
 20
148.0
 30
0.0
 11
648.0
 21
148.0
 31
0.0
  0
LWPOLYLINE
  5
BC
330
17
100
AcDbEntity
  8
OUTLINE
100
AcDbPolyline
 90
4
 70
1
 10
865.0
 20
126.0
 10
900.0
 20
126.0
 10
900.0
 20
122.0
 10
865.0
 20
122.0
  0
LINE
  5
BD
330
17
100
AcDbEntity
  8
OUTLINE
100
AcDbLine
 10
871.0
 20
122.0
 30
0.0
 11
871.0
 21
100.0
 31
0.0
  0
LINE
  5
BE
330
17
100
AcDbEntity
  8
OUTLINE
100
AcDbLine
 10
894.0
 20
122.0
 30
0.0
 11
894.0
 21
100.0
 31
0.0
  0
LINE
  5
BF
330
17
100
AcDbEntity
  8
OUTLINE
100
AcDbLine
 10
898.0
 20
126.0
 30
0.0
 11
898.0
 21
148.0
 31
0.0
  0
LINE
  5
C0
330
17
100
AcDbEntity
  8
OUTLINE
100
AcDbLine
 10
893.0
 20
148.0
 30
0.0
 11
904.0
 21
148.0
 31
0.0
  0
CIRCLE
  5
C1
330
17
100
AcDbEntity
  8
GAS
100
AcDbCircle
 10
487.0
 20
111.0
 30
0.0
 40
9.0
  0
LINE
  5
C2
330
17
100
AcDbEntity
  8
GAS
100
AcDbLine
 10
481.0
 20
117.0
 30
0.0
 11
493.0
 21
105.0
 31
0.0
  0
LINE
  5
C3
330
17
100
AcDbEntity
  8
GAS
100
AcDbLine
 10
481.0
 20
105.0
 30
0.0
 11
493.0
 21
117.0
 31
0.0
  0
CIRCLE
  5
C4
330
17
100
AcDbEntity
  8
GAS
100
AcDbCircle
 10
657.0
 20
111.0
 30
0.0
 40
9.0
  0
LINE
  5
C5
330
17
100
AcDbEntity
  8
GAS
100
AcDbLine
 10
651.0
 20
117.0
 30
0.0
 11
663.0
 21
105.0
 31
0.0
  0
LINE
  5
C6
330
17
100
AcDbEntity
  8
GAS
100
AcDbLine
 10
651.0
 20
105.0
 30
0.0
 11
663.0
 21
117.0
 31
0.0
  0
LINE
  5
C7
330
17
100
AcDbEntity
  8
GAS
100
AcDbLine
 10
492.0
 20
104.0
 30
0.0
 11
520.0
 21
91.0
 31
0.0
  0
TEXT
  5
C8
330
17
100
AcDbEntity
  8
TEXT_RU
420
14712622
100
AcDbText
 10
568.0
 20
81.0
 30
0.0
 40
5.95
  1
сборный воздуховод бортового отсоса
  7
TXTRU
 72
1
 11
568.0
 21
81.0
 31
0.0
100
AcDbText
  0
TEXT
  5
C9
330
17
100
AcDbEntity
  8
TEXT_RU
420
14712622
100
AcDbText
 10
568.0
 20
70.0
 30
0.0
 40
5.95
  1
под площадкой, 12–15 м/с
  7
TXTRU
 72
1
 11
568.0
 21
70.0
 31
0.0
100
AcDbText
  0
HATCH
  5
CA
330
17
100
AcDbEntity
  8
LIQUID
 62
7
420
13295093
100
AcDbHatch
 10
0.0
 20
0.0
 30
0.0
210
0.0
220
0.0
230
1.0
  2
SOLID
 70
1
 71
0
 91
1
 92
1
 93
1
 72
2
 10
212.0
 20
114.0
 40
5.5
 50
0
 51
360
 73
1
 97
0
 75
0
 76
1
 98
0
  0
CIRCLE
  5
CB
330
17
100
AcDbEntity
  8
LIQUID
100
AcDbCircle
 10
212.0
 20
114.0
 30
0.0
 40
5.5
  0
LINE
  5
CC
330
17
100
AcDbEntity
  8
OUTLINE
100
AcDbLine
 10
210.0
 20
108.0
 30
0.0
 11
210.0
 21
100.0
 31
0.0
  0
LINE
  5
CD
330
17
100
AcDbEntity
  8
OUTLINE
100
AcDbLine
 10
214.0
 20
108.0
 30
0.0
 11
214.0
 21
100.0
 31
0.0
  0
TEXT
  5
CE
330
17
100
AcDbEntity
  8
TEXT_RU
420
2783446
100
AcDbText
 10
212.0
 20
131.0
 30
0.0
 40
5.95
  1
DN300–350
  7
TXTRU
 72
1
 11
212.0
 21
131.0
 31
0.0
100
AcDbText
  0
HATCH
  5
CF
330
17
100
AcDbEntity
  8
LIQUID
 62
7
420
13295093
100
AcDbHatch
 10
0.0
 20
0.0
 30
0.0
210
0.0
220
0.0
230
1.0
  2
SOLID
 70
1
 71
0
 91
1
 92
1
 93
1
 72
2
 10
934.0
 20
114.0
 40
5.5
 50
0
 51
360
 73
1
 97
0
 75
0
 76
1
 98
0
  0
CIRCLE
  5
D0
330
17
100
AcDbEntity
  8
LIQUID
100
AcDbCircle
 10
934.0
 20
114.0
 30
0.0
 40
5.5
  0
LINE
  5
D1
330
17
100
AcDbEntity
  8
OUTLINE
100
AcDbLine
 10
932.0
 20
108.0
 30
0.0
 11
932.0
 21
100.0
 31
0.0
  0
LINE
  5
D2
330
17
100
AcDbEntity
  8
OUTLINE
100
AcDbLine
 10
936.0
 20
108.0
 30
0.0
 11
936.0
 21
100.0
 31
0.0
  0
TEXT
  5
D3
330
17
100
AcDbEntity
  8
TEXT_RU
420
2783446
100
AcDbText
 10
934.0
 20
131.0
 30
0.0
 40
5.95
  1
DN300–350
  7
TXTRU
 72
1
 11
934.0
 21
131.0
 31
0.0
100
AcDbText
  0
TEXT
  5
D4
330
17
100
AcDbEntity
  8
TEXT_RU
420
2783446
100
AcDbText
 10
196.0
 20
182.0
 30
0.0
 40
5.95
  1
напорный коллектор электролита
  7
TXTRU
 11
196.0
 21
182.0
 31
0.0
100
AcDbText
  0
TEXT
  5
D5
330
17
100
AcDbEntity
  8
TEXT_RU
420
2783446
100
AcDbText
 10
196.0
 20
171.0
 30
0.0
 40
5.95
  1
DN300–350 на стойках вдоль стен
  7
TXTRU
 11
196.0
 21
171.0
 31
0.0
100
AcDbText
  0
LWPOLYLINE
  5
D6
330
17
100
AcDbEntity
  8
LIQUID
100
AcDbPolyline
 90
4
 70
0
 10
216.0
 20
119.0
 10
232.0
 20
138.0
 10
292.0
 20
138.0
 10
292.0
 20
129.0
  0
SOLID
  5
D7
330
17
100
AcDbEntity
  8
LIQUID
100
AcDbTrace
 10
296.8
 20
138.60000000000002
 30
0.0
 11
292.0
 21
127.79999999999995
 31
0.0
 12
287.2
 22
138.60000000000002
 32
0.0
 13
287.2
 23
138.60000000000002
 33
0.0
  0
TEXT
  5
D8
330
17
100
AcDbEntity
  8
TEXT_RU
420
2783446
100
AcDbText
 10
300.0
 20
141.0
 30
0.0
 40
5.95
  1
подвод DN80, разрыв струи
  7
TXTRU
 11
300.0
 21
141.0
 31
0.0
100
AcDbText
  0
LWPOLYLINE
  5
D9
330
17
100
AcDbEntity
  8
OUTLINE
100
AcDbPolyline
 90
4
 70
1
 10
183.0
 20
346.0
 10
203.0
 20
346.0
 10
203.0
 20
324.0
 10
183.0
 20
324.0
  0
LWPOLYLINE
  5
DA
330
17
100
AcDbEntity
  8
OUTLINE
100
AcDbPolyline
 90
4
 70
1
 10
549.0
 20
346.0
 10
569.0
 20
346.0
 10
569.0
 20
324.0
 10
549.0
 20
324.0
  0
LWPOLYLINE
  5
DB
330
17
100
AcDbEntity
  8
OUTLINE
100
AcDbPolyline
 90
4
 70
1
 10
579.0
 20
346.0
 10
599.0
 20
346.0
 10
599.0
 20
324.0
 10
579.0
 20
324.0
  0
LWPOLYLINE
  5
DC
330
17
100
AcDbEntity
  8
OUTLINE
100
AcDbPolyline
 90
4
 70
1
 10
941.0
 20
346.0
 10
961.0
 20
346.0
 10
961.0
 20
324.0
 10
941.0
 20
324.0
  0
HATCH
  5
DD
330
17
100
AcDbEntity
  8
OUTLINE
 62
7
100
AcDbHatch
 10
0.0
 20
0.0
 30
0.0
210
0.0
220
0.0
230
1.0
  2
SOLID
 70
1
 71
0
 91
1
 92
3
 72
0
 73
1
 93
4
 10
189.0
 20
352.0
 10
196.0
 20
352.0
 10
196.0
 20
346.0
 10
189.0
 20
346.0
 97
0
 75
0
 76
1
 98
0
  0
HATCH
  5
DE
330
17
100
AcDbEntity
  8
OUTLINE
 62
7
100
AcDbHatch
 10
0.0
 20
0.0
 30
0.0
210
0.0
220
0.0
230
1.0
  2
SOLID
 70
1
 71
0
 91
1
 92
3
 72
0
 73
1
 93
4
 10
555.0
 20
352.0
 10
562.0
 20
352.0
 10
562.0
 20
346.0
 10
555.0
 20
346.0
 97
0
 75
0
 76
1
 98
0
  0
HATCH
  5
DF
330
17
100
AcDbEntity
  8
OUTLINE
 62
7
100
AcDbHatch
 10
0.0
 20
0.0
 30
0.0
210
0.0
220
0.0
230
1.0
  2
SOLID
 70
1
 71
0
 91
1
 92
3
 72
0
 73
1
 93
4
 10
585.0
 20
352.0
 10
592.0
 20
352.0
 10
592.0
 20
346.0
 10
585.0
 20
346.0
 97
0
 75
0
 76
1
 98
0
  0
HATCH
  5
E0
330
17
100
AcDbEntity
  8
OUTLINE
 62
7
100
AcDbHatch
 10
0.0
 20
0.0
 30
0.0
210
0.0
220
0.0
230
1.0
  2
SOLID
 70
1
 71
0
 91
1
 92
3
 72
0
 73
1
 93
4
 10
947.0
 20
352.0
 10
954.0
 20
352.0
 10
954.0
 20
346.0
 10
947.0
 20
346.0
 97
0
 75
0
 76
1
 98
0
  0
LWPOLYLINE
  5
E1
330
17
100
AcDbEntity
  8
OUTLINE
100
AcDbPolyline
 90
4
 70
1
 10
188.0
 20
378.0
 10
564.0
 20
378.0
 10
564.0
 20
352.0
 10
188.0
 20
352.0
  0
LWPOLYLINE
  5
E2
330
17
100
AcDbEntity
  8
OUTLINE
100
AcDbPolyline
 90
4
 70
1
 10
580.0
 20
378.0
 10
956.0
 20
378.0
 10
956.0
 20
352.0
 10
580.0
 20
352.0
  0
LWPOLYLINE
  5
E3
330
17
100
AcDbEntity
  8
OUTLINE
100
AcDbPolyline
 90
4
 70
1
 10
352.0
 20
394.0
 10
396.0
 20
394.0
 10
396.0
 20
378.0
 10
352.0
 20
378.0
  0
LWPOLYLINE
  5
E4
330
17
100
AcDbEntity
  8
OUTLINE
100
AcDbPolyline
 90
4
 70
1
 10
748.0
 20
394.0
 10
792.0
 20
394.0
 10
792.0
 20
378.0
 10
748.0
 20
378.0
  0
LINE
  5
E5
330
17
100
AcDbEntity
  8
OUTLINE
100
AcDbLine
 10
374.0
 20
378.0
 30
0.0
 11
374.0
 21
246.0
 31
0.0
  0
HATCH
  5
E6
330
17
100
AcDbEntity
  8
OUTLINE
 62
7
100
AcDbHatch
 10
0.0
 20
0.0
 30
0.0
210
0.0
220
0.0
230
1.0
  2
SOLID
 70
1
 71
0
 91
1
 92
1
 93
1
 72
2
 10
374.0
 20
243.0
 40
2.6
 50
0
 51
360
 73
1
 97
0
 75
0
 76
1
 98
0
  0
LINE
  5
E7
330
17
100
AcDbEntity
  8
OUTLINE
100
AcDbLine
 10
374.0
 20
240.0
 30
0.0
 11
374.0
 21
236.0
 31
0.0
  0
LINE
  5
E8
330
17
100
AcDbEntity
  8
OUTLINE
100
AcDbLine
 10
334.0
 20
236.0
 30
0.0
 11
414.0
 21
236.0
 31
0.0
  0
LINE
  5
E9
330
17
100
AcDbEntity
  8
OUTLINE
100
AcDbLine
 10
342.0
 20
236.0
 30
0.0
 11
342.0
 21
207.0
 31
0.0
  0
LWPOLYLINE
  5
EA
330
17
100
AcDbEntity
  8
OUTLINE
100
AcDbPolyline
 90
4
 70
1
 10
338.5
 20
207.0
 10
345.5
 20
207.0
 10
345.5
 20
185.0
 10
338.5
 20
185.0
  0
LINE
  5
EB
330
17
100
AcDbEntity
  8
OUTLINE
100
AcDbLine
 10
362.0
 20
236.0
 30
0.0
 11
362.0
 21
207.0
 31
0.0
  0
LWPOLYLINE
  5
EC
330
17
100
AcDbEntity
  8
OUTLINE
100
AcDbPolyline
 90
4
 70
1
 10
358.5
 20
207.0
 10
365.5
 20
207.0
 10
365.5
 20
185.0
 10
358.5
 20
185.0
  0
LINE
  5
ED
330
17
100
AcDbEntity
  8
OUTLINE
100
AcDbLine
 10
386.0
 20
236.0
 30
0.0
 11
386.0
 21
207.0
 31
0.0
  0
LWPOLYLINE
  5
EE
330
17
100
AcDbEntity
  8
OUTLINE
100
AcDbPolyline
 90
4
 70
1
 10
382.5
 20
207.0
 10
389.5
 20
207.0
 10
389.5
 20
185.0
 10
382.5
 20
185.0
  0
LINE
  5
EF
330
17
100
AcDbEntity
  8
OUTLINE
100
AcDbLine
 10
406.0
 20
236.0
 30
0.0
 11
406.0
 21
207.0
 31
0.0
  0
LWPOLYLINE
  5
F0
330
17
100
AcDbEntity
  8
OUTLINE
100
AcDbPolyline
 90
4
 70
1
 10
402.5
 20
207.0
 10
409.5
 20
207.0
 10
409.5
 20
185.0
 10
402.5
 20
185.0
  0
LINE
  5
F1
330
17
100
AcDbEntity
  8
OUTLINE
100
AcDbLine
 10
770.0
 20
378.0
 30
0.0
 11
770.0
 21
308.0
 31
0.0
  0
HATCH
  5
F2
330
17
100
AcDbEntity
  8
OUTLINE
 62
7
100
AcDbHatch
 10
0.0
 20
0.0
 30
0.0
210
0.0
220
0.0
230
1.0
  2
SOLID
 70
1
 71
0
 91
1
 92
1
 93
1
 72
2
 10
770.0
 20
305.0
 40
2.6
 50
0
 51
360
 73
1
 97
0
 75
0
 76
1
 98
0
  0
LINE
  5
F3
330
17
100
AcDbEntity
  8
OUTLINE
100
AcDbLine
 10
770.0
 20
302.0
 30
0.0
 11
770.0
 21
297.0
 31
0.0
  0
TEXT
  5
F4
330
17
100
AcDbEntity
  8
TEXT_RU
420
13646651
100
AcDbText
 10
374.0
 20
400.0
 30
0.0
 40
6.3
  1
мостовой кран пролёта А-Б — обслуживание ванн (отм. путей уточняется)
  7
TXTRU
 72
1
 11
374.0
 21
400.0
 31
0.0
100
AcDbText
  0
TEXT
  5
F5
330
17
100
AcDbEntity
  8
TEXT_RU
420
13646651
100
AcDbText
 10
770.0
 20
400.0
 30
0.0
 40
6.3
  1
мостовой кран пролёта Б-В — аналогично
  7
TXTRU
 72
1
 11
770.0
 21
400.0
 31
0.0
100
AcDbText
  0
TEXT
  5
F6
330
17
100
AcDbEntity
  8
TEXT_RU
100
AcDbText
 10
418.0
 20
228.0
 30
0.0
 40
5.95
  1
траверса с матрицами:
  7
TXTRU
 11
418.0
 21
228.0
 31
0.0
100
AcDbText
  0
TEXT
  5
F7
330
17
100
AcDbEntity
  8
TEXT_RU
100
AcDbText
 10
418.0
 20
217.0
 30
0.0
 40
5.95
  1
штанга 1,325 м + полотно 1,0 м,
  7
TXTRU
 11
418.0
 21
217.0
 31
0.0
100
AcDbText
  0
TEXT
  5
F8
330
17
100
AcDbEntity
  8
TEXT_RU
100
AcDbText
 10
418.0
 20
206.0
 30
0.0
 40
5.95
  1
подъём над колпаками ванн
  7
TXTRU
 11
418.0
 21
206.0
 31
0.0
100
AcDbText
  0
TEXT
  5
F9
330
17
100
AcDbEntity
  8
TEXT_RU
100
AcDbText
 10
770.0
 20
182.0
 30
0.0
 40
5.95
  1
обслуживающие площадки вдоль ванн; ширины проходов — предложение БИ
  7
TXTRU
 72
1
 11
770.0
 21
182.0
 31
0.0
100
AcDbText
  0
TEXT
  5
FA
330
17
100
AcDbEntity
  8
TEXT_RU
100
AcDbText
 10
770.0
 20
166.0
 30
0.0
 40
5.95
  1
ванна: наружный габарит 8,645 × 1,315 м · глубина 1,65 м · стенка 80 мм (внутр. 8485 × 1155 × 1650 мм)
  7
TXTRU
 72
1
 11
770.0
 21
166.0
 31
0.0
100
AcDbText
  0
LINE
  5
FB
330
17
100
AcDbEntity
  8
OUTLINE
100
AcDbLine
 10
675.0
 20
124.0
 30
0.0
 11
675.0
 21
153.0
 31
0.0
  0
LINE
  5
FC
330
17
100
AcDbEntity
  8
OUTLINE
100
AcDbLine
 10
865.0
 20
124.0
 30
0.0
 11
865.0
 21
153.0
 31
0.0
  0
LINE
  5
FD
330
17
100
AcDbEntity
  8
DIM
420
5394766
100
AcDbLine
 10
675.0
 20
148.0
 30
0.0
 11
865.0
 21
148.0
 31
0.0
  0
LINE
  5
FE
330
17
100
AcDbEntity
  8
DIM
420
5394766
100
AcDbLine
 10
672.3
 20
145.3
 30
0.0
 11
677.7
 21
150.7
 31
0.0
  0
LINE
  5
FF
330
17
100
AcDbEntity
  8
DIM
420
5394766
100
AcDbLine
 10
862.3
 20
145.3
 30
0.0
 11
867.7
 21
150.7
 31
0.0
  0
TEXT
  5
100
330
17
100
AcDbEntity
  8
TEXT_RU
100
AcDbText
 10
770.0
 20
153.0
 30
0.0
 40
6.3
  1
8 645
  7
TXTRU
 72
1
 11
770.0
 21
153.0
 31
0.0
100
AcDbText
  0
LWPOLYLINE
  5
101
330
17
100
AcDbEntity
  8
OUTLINE
100
AcDbPolyline
 90
3
 70
1
 10
172.0
 20
452.0
 10
166.0
 20
460.0
 10
178.0
 20
460.0
  0
TEXT
  5
102
330
17
100
AcDbEntity
  8
TEXT_RU
100
AcDbText
 10
158.0
 20
455.0
 30
0.0
 40
7.0
  1
~ +16,000
  7
TXTRU
 72
2
 11
158.0
 21
455.0
 31
0.0
100
AcDbText
  0
TEXT
  5
103
330
17
100
AcDbEntity
  8
TEXT_RU
100
AcDbText
 10
158.0
 20
443.0
 30
0.0
 40
5.95
  1
низ ферм
  7
TXTRU
 72
2
 11
158.0
 21
443.0
 31
0.0
100
AcDbText
  0
LWPOLYLINE
  5
104
330
17
100
AcDbEntity
  8
OUTLINE
100
AcDbPolyline
 90
3
 70
1
 10
172.0
 20
243.0
 10
166.0
 20
251.0
 10
178.0
 20
251.0
  0
TEXT
  5
105
330
17
100
AcDbEntity
  8
TEXT_RU
100
AcDbText
 10
158.0
 20
246.0
 30
0.0
 40
7.0
  1
+6…+7
  7
TXTRU
 72
2
 11
158.0
 21
246.0
 31
0.0
100
AcDbText
  0
TEXT
  5
106
330
17
100
AcDbEntity
  8
TEXT_RU
100
AcDbText
 10
158.0
 20
234.0
 30
0.0
 40
5.95
  1
ход крюка
  7
TXTRU
 72
2
 11
158.0
 21
234.0
 31
0.0
100
AcDbText
  0
LWPOLYLINE
  5
107
330
17
100
AcDbEntity
  8
OUTLINE
100
AcDbPolyline
 90
3
 70
1
 10
172.0
 20
124.0
 10
166.0
 20
132.0
 10
178.0
 20
132.0
  0
TEXT
  5
108
330
17
100
AcDbEntity
  8
TEXT_RU
100
AcDbText
 10
158.0
 20
127.0
 30
0.0
 40
7.0
  1
+1,0…+1,2
  7
TXTRU
 72
2
 11
158.0
 21
127.0
 31
0.0
100
AcDbText
  0
TEXT
  5
109
330
17
100
AcDbEntity
  8
TEXT_RU
100
AcDbText
 10
158.0
 20
115.0
 30
0.0
 40
5.95
  1
верх борта ванны
  7
TXTRU
 72
2
 11
158.0
 21
115.0
 31
0.0
100
AcDbText
  0
LWPOLYLINE
  5
10A
330
17
100
AcDbEntity
  8
OUTLINE
100
AcDbPolyline
 90
3
 70
1
 10
172.0
 20
100.0
 10
166.0
 20
108.0
 10
178.0
 20
108.0
  0
TEXT
  5
10B
330
17
100
AcDbEntity
  8
TEXT_RU
100
AcDbText
 10
158.0
 20
103.0
 30
0.0
 40
7.0
  1
0,000
  7
TXTRU
 72
2
 11
158.0
 21
103.0
 31
0.0
100
AcDbText
  0
TEXT
  5
10C
330
17
100
AcDbEntity
  8
TEXT_RU
100
AcDbText
 10
158.0
 20
91.0
 30
0.0
 40
5.95
  1
пол зала
  7
TXTRU
 72
2
 11
158.0
 21
91.0
 31
0.0
100
AcDbText
  0
LWPOLYLINE
  5
10D
330
17
100
AcDbEntity
  8
DIM
100
AcDbPolyline
 90
3
 70
1
 10
172.0
 20
60.0
 10
166.0
 20
68.0
 10
178.0
 20
68.0
  0
TEXT
  5
10E
330
17
100
AcDbEntity
  8
TEXT_RU
100
AcDbText
 10
158.0
 20
63.0
 30
0.0
 40
5.95
  1
отм. поддона
  7
TXTRU
 72
2
 11
158.0
 21
63.0
 31
0.0
100
AcDbText
  0
TEXT
  5
10F
330
17
100
AcDbEntity
  8
TEXT_RU
100
AcDbText
 10
158.0
 20
51.0
 30
0.0
 40
5.95
  1
предложение БИ
  7
TXTRU
 72
2
 11
158.0
 21
51.0
 31
0.0
100
AcDbText
  0
LINE
  5
110
330
17
100
AcDbEntity
  8
OUTLINE
100
AcDbLine
 10
970.0
 20
452.0
 30
0.0
 11
1022.0
 21
452.0
 31
0.0
  0
LINE
  5
111
330
17
100
AcDbEntity
  8
OUTLINE
100
AcDbLine
 10
985.0
 20
100.0
 30
0.0
 11
1022.0
 21
100.0
 31
0.0
  0
LINE
  5
112
330
17
100
AcDbEntity
  8
DIM
420
5394766
100
AcDbLine
 10
1014.0
 20
452.0
 30
0.0
 11
1014.0
 21
100.0
 31
0.0
  0
LINE
  5
113
330
17
100
AcDbEntity
  8
DIM
420
5394766
100
AcDbLine
 10
1011.3
 20
454.7
 30
0.0
 11
1016.7
 21
449.3
 31
0.0
  0
LINE
  5
114
330
17
100
AcDbEntity
  8
DIM
420
5394766
100
AcDbLine
 10
1011.3
 20
102.70000000000005
 30
0.0
 11
1016.7
 21
97.29999999999995
 31
0.0
  0
TEXT
  5
115
330
17
100
AcDbEntity
  8
TEXT_RU
100
AcDbText
 10
1006.0
 20
276.0
 30
0.0
 40
7.0
  1
~16 000 — от пола до низа ферм
 50
90.0
  7
TXTRU
 72
1
 11
1006.0
 21
276.0
 31
0.0
100
AcDbText
  0
TEXT
  5
116
330
17
100
AcDbEntity
  8
TEXT_RU
100
AcDbText
 10
540.0
 20
42.0
 30
0.0
 40
6.3
  1
подванное пространство (оба пролёта): опорные тумбы · донная пробка с уклоном дна к центру · рельсы и мобильный нутч-фильтр · сливные карманы · поддон-пол с бортами
  7
TXTRU
 72
1
 11
540.0
 21
42.0
 31
0.0
100
AcDbText
  0
TEXT
  5
117
330
17
100
AcDbEntity
  8
TEXT_RU
100
AcDbText
 10
540.0
 20
30.0
 30
0.0
 40
5.95
  1
глубина и отметки подванного пространства не заданы — пунктир, предложение БИ · полы по СП 29.13330, химзащита по СП 28.13330 · нормативный проход у ванн не менее 1,2 м (ПУЭ 7.10, ФНП № 512)
  7
TXTRU
 72
1
 11
540.0
 21
30.0
 31
0.0
100
AcDbText
  0
TEXT
  5
118
330
17
100
AcDbEntity
  8
TEXT_RU
100
AcDbText
 10
1174.0
 20
594.0
 30
0.0
 40
5.95
  1
синий — электролит и коллекторы · оранжевый — воздуховод отсоса · фиолетовый — нутч-фильтр · пунктир — предложение БИ / уточняется
  7
TXTRU
 72
2
 11
1174.0
 21
594.0
 31
0.0
100
AcDbText
  0
ENDSEC
  0
SECTION
  2
OBJECTS
  0
DICTIONARY
  5
A
330
0
100
AcDbDictionary
281
1
  3
ACAD_COLOR
350
B
  3
ACAD_GROUP
350
C
  3
ACAD_LAYOUT
350
D
  3
ACAD_MATERIAL
350
E
  3
ACAD_MLEADERSTYLE
350
F
  3
ACAD_MLINESTYLE
350
10
  3
ACAD_PLOTSETTINGS
350
11
  3
ACAD_PLOTSTYLENAME
350
12
  3
ACAD_SCALELIST
350
14
  3
ACAD_TABLESTYLE
350
15
  3
ACAD_VISUALSTYLE
350
16
  3
EZDXF_META
350
2D
  0
DICTIONARY
  5
B
330
A
100
AcDbDictionary
281
1
  0
DICTIONARY
  5
C
330
A
100
AcDbDictionary
281
1
  0
DICTIONARY
  5
D
330
A
100
AcDbDictionary
281
1
  3
Model
350
1A
  3
Layout1
350
1E
  0
DICTIONARY
  5
E
330
A
100
AcDbDictionary
281
1
  3
ByBlock
350
1F
  3
ByLayer
350
20
  3
Global
350
21
  0
DICTIONARY
  5
F
330
A
100
AcDbDictionary
281
1
  3
Standard
350
2C
  0
DICTIONARY
  5
10
330
A
100
AcDbDictionary
281
1
  3
Standard
350
22
  0
DICTIONARY
  5
11
330
A
100
AcDbDictionary
281
1
  0
ACDBDICTIONARYWDFLT
  5
12
330
A
100
AcDbDictionary
281
1
  3
Normal
350
13
100
AcDbDictionaryWithDefault
340
13
  0
ACDBPLACEHOLDER
  5
13
330
12
  0
DICTIONARY
  5
14
330
A
100
AcDbDictionary
281
1
  0
DICTIONARY
  5
15
330
A
100
AcDbDictionary
281
1
  0
DICTIONARY
  5
16
330
A
100
AcDbDictionary
281
1
  0
LAYOUT
  5
1A
330
D
100
AcDbPlotSettings
  1

  4
A3
  6

 40
7.5
 41
20.0
 42
7.5
 43
20.0
 44
420.0
 45
297.0
 46
0.0
 47
0.0
 48
0.0
 49
0.0
140
0.0
141
0.0
142
1.0
143
1.0
 70
1024
 72
1
 73
0
 74
5
  7

 75
16
 76
0
 77
2
 78
300
147
1.0
148
0.0
149
0.0
100
AcDbLayout
  1
Model
 70
1
 71
0
 10
0.0
 20
0.0
 11
1190.0
 21
640.0
 12
0.0
 22
0.0
 32
0.0
 14
-0.01
 24
-0.01
 34
0.0
 15
1190.0
 25
640.0
 35
0.0
146
0.0
 13
0.0
 23
0.0
 33
0.0
 16
1.0
 26
0.0
 36
0.0
 17
0.0
 27
1.0
 37
0.0
 76
1
330
17
  0
LAYOUT
  5
1E
330
D
100
AcDbPlotSettings
  1

  4
A3
  6

 40
7.5
 41
20.0
 42
7.5
 43
20.0
 44
420.0
 45
297.0
 46
0.0
 47
0.0
 48
0.0
 49
0.0
140
0.0
141
0.0
142
1.0
143
1.0
 70
0
 72
1
 73
0
 74
5
  7

 75
16
 76
0
 77
2
 78
300
147
1.0
148
0.0
149
0.0
100
AcDbLayout
  1
Layout1
 70
1
 71
1
 10
0.0
 20
0.0
 11
420.0
 21
297.0
 12
0.0
 22
0.0
 32
0.0
 14
1e+20
 24
1e+20
 34
1e+20
 15
-1e+20
 25
-1e+20
 35
-1e+20
146
0.0
 13
0.0
 23
0.0
 33
0.0
 16
1.0
 26
0.0
 36
0.0
 17
0.0
 27
1.0
 37
0.0
 76
1
330
1B
  0
MATERIAL
  5
1F
102
{ACAD_REACTORS
330
E
102
}
330
E
100
AcDbMaterial
  1
ByBlock
  2

 70
0
 40
1.0
 71
1
 41
1.0
 91
-1023410177
 42
1.0
 72
1
  3

 73
1
 74
1
 75
1
 44
0.5
 73
0
 45
1.0
 46
1.0
 77
1
  4

 78
1
 79
1
170
1
 48
1.0
171
1
  6

172
1
173
1
174
1
140
1.0
141
1.0
175
1
  7

176
1
177
1
178
1
143
1.0
179
1
  8

270
1
271
1
272
1
145
1.0
146
1.0
273
1
  9

274
1
275
1
276
1
 42
1.0
 72
1
  3

 73
1
 74
1
 75
1
 94
63
  0
MATERIAL
  5
20
102
{ACAD_REACTORS
330
E
102
}
330
E
100
AcDbMaterial
  1
ByLayer
  2

 70
0
 40
1.0
 71
1
 41
1.0
 91
-1023410177
 42
1.0
 72
1
  3

 73
1
 74
1
 75
1
 44
0.5
 73
0
 45
1.0
 46
1.0
 77
1
  4

 78
1
 79
1
170
1
 48
1.0
171
1
  6

172
1
173
1
174
1
140
1.0
141
1.0
175
1
  7

176
1
177
1
178
1
143
1.0
179
1
  8

270
1
271
1
272
1
145
1.0
146
1.0
273
1
  9

274
1
275
1
276
1
 42
1.0
 72
1
  3

 73
1
 74
1
 75
1
 94
63
  0
MATERIAL
  5
21
102
{ACAD_REACTORS
330
E
102
}
330
E
100
AcDbMaterial
  1
Global
  2

 70
0
 40
1.0
 71
1
 41
1.0
 91
-1023410177
 42
1.0
 72
1
  3

 73
1
 74
1
 75
1
 44
0.5
 73
0
 45
1.0
 46
1.0
 77
1
  4

 78
1
 79
1
170
1
 48
1.0
171
1
  6

172
1
173
1
174
1
140
1.0
141
1.0
175
1
  7

176
1
177
1
178
1
143
1.0
179
1
  8

270
1
271
1
272
1
145
1.0
146
1.0
273
1
  9

274
1
275
1
276
1
 42
1.0
 72
1
  3

 73
1
 74
1
 75
1
 94
63
  0
MLINESTYLE
  5
22
102
{ACAD_REACTORS
330
10
102
}
330
10
100
AcDbMlineStyle
  2
Standard
 70
0
  3

 62
256
 51
90.0
 52
90.0
 71
2
 49
0.5
 62
256
  6
BYLAYER
 49
-0.5
 62
256
  6
BYLAYER
  0
MLEADERSTYLE
  5
2C
102
{ACAD_REACTORS
330
F
102
}
330
F
100
AcDbMLeaderStyle
179
2
170
2
171
1
172
0
 90
2
 40
0.0
 41
0.0
173
1
 91
-1056964608
 92
-2
290
1
 42
2.0
291
1
 43
8.0
  3
Standard
 44
4.0
300

342
29
174
1
175
1
176
0
178
1
 93
-1056964608
 45
4.0
292
0
297
0
 46
4.0
 94
-1056964608
 47
1.0
 49
1.0
140
1.0
294
1
141
0.0
177
0
142
1.0
295
0
296
0
143
3.75
271
0
272
9
273
9
  0
DICTIONARY
  5
2D
330
A
100
AcDbDictionary
280
1
281
1
  3
CREATED_BY_EZDXF
350
2E
  3
WRITTEN_BY_EZDXF
350
11B
  0
DICTIONARYVAR
  5
2E
330
2D
100
DictionaryVariables
280
0
  1
1.4.4 @ 2026-08-28T02:58:58.363783+00:00
  0
DICTIONARYVAR
  5
11B
330
2D
100
DictionaryVariables
280
0
  1
1.4.4 @ 2026-08-28T02:58:58.373800+00:00
  0
ENDSEC
  0
EOF
