  0
SECTION
  2
HEADER
  9
$ACADVER
  1
AC1024
  9
$ACADMAINTVER
 70
6
  9
$DWGCODEPAGE
  3
ANSI_1252
  9
$LASTSAVEDBY
  1
ezdxf
  9
$INSBASE
 10
0.0
 20
0.0
 30
0.0
  9
$EXTMIN
 10
-0.01
 20
-0.01
 30
0.0
  9
$EXTMAX
 10
1190.0
 20
620.0
 30
0.0
  9
$LIMMIN
 10
0.0
 20
0.0
  9
$LIMMAX
 10
1190.0
 20
620.0
  9
$ORTHOMODE
 70
0
  9
$REGENMODE
 70
1
  9
$FILLMODE
 70
1
  9
$QTEXTMODE
 70
0
  9
$MIRRTEXT
 70
1
  9
$LTSCALE
 40
1.0
  9
$ATTMODE
 70
1
  9
$TEXTSIZE
 40
2.5
  9
$TRACEWID
 40
1.0
  9
$TEXTSTYLE
  7
Standard
  9
$CLAYER
  8
0
  9
$CELTYPE
  6
ByLayer
  9
$CECOLOR
 62
256
  9
$CELTSCALE
 40
1.0
  9
$DISPSILH
 70
0
  9
$DIMSCALE
 40
1.0
  9
$DIMASZ
 40
2.5
  9
$DIMEXO
 40
0.625
  9
$DIMDLI
 40
3.75
  9
$DIMRND
 40
0.0
  9
$DIMDLE
 40
0.0
  9
$DIMEXE
 40
1.25
  9
$DIMTP
 40
0.0
  9
$DIMTM
 40
0.0
  9
$DIMTXT
 40
2.5
  9
$DIMCEN
 40
2.5
  9
$DIMTSZ
 40
0.0
  9
$DIMTOL
 70
0
  9
$DIMLIM
 70
0
  9
$DIMTIH
 70
0
  9
$DIMTOH
 70
0
  9
$DIMSE1
 70
0
  9
$DIMSE2
 70
0
  9
$DIMTAD
 70
1
  9
$DIMZIN
 70
8
  9
$DIMBLK
  1

  9
$DIMASO
 70
1
  9
$DIMSHO
 70
1
  9
$DIMPOST
  1

  9
$DIMAPOST
  1

  9
$DIMALT
 70
0
  9
$DIMALTD
 70
3
  9
$DIMALTF
 40
0.03937007874
  9
$DIMLFAC
 40
1.0
  9
$DIMTOFL
 70
1
  9
$DIMTVP
 40
0.0
  9
$DIMTIX
 70
0
  9
$DIMSOXD
 70
0
  9
$DIMSAH
 70
0
  9
$DIMBLK1
  1

  9
$DIMBLK2
  1

  9
$DIMSTYLE
  2
ISO-25
  9
$DIMCLRD
 70
0
  9
$DIMCLRE
 70
0
  9
$DIMCLRT
 70
0
  9
$DIMTFAC
 40
1.0
  9
$DIMGAP
 40
0.625
  9
$DIMJUST
 70
0
  9
$DIMSD1
 70
0
  9
$DIMSD2
 70
0
  9
$DIMTOLJ
 70
0
  9
$DIMTZIN
 70
8
  9
$DIMALTZ
 70
0
  9
$DIMALTTZ
 70
0
  9
$DIMUPT
 70
0
  9
$DIMDEC
 70
2
  9
$DIMTDEC
 70
2
  9
$DIMALTU
 70
2
  9
$DIMALTTD
 70
3
  9
$DIMTXSTY
  7
Standard
  9
$DIMAUNIT
 70
0
  9
$DIMADEC
 70
0
  9
$DIMALTRND
 40
0.0
  9
$DIMAZIN
 70
0
  9
$DIMDSEP
 70
44
  9
$DIMATFIT
 70
3
  9
$DIMFRAC
 70
0
  9
$DIMLDRBLK
  1

  9
$DIMLUNIT
 70
2
  9
$DIMLWD
 70
-2
  9
$DIMLWE
 70
-2
  9
$DIMTMOVE
 70
0
  9
$DIMFXL
 40
1.0
  9
$DIMFXLON
 70
0
  9
$DIMJOGANG
 40
0.785398163397
  9
$DIMTFILL
 70
0
  9
$DIMTFILLCLR
 70
0
  9
$DIMARCSYM
 70
0
  9
$DIMLTYPE
  6

  9
$DIMLTEX1
  6

  9
$DIMLTEX2
  6

  9
$DIMTXTDIRECTION
 70
0
  9
$LUNITS
 70
2
  9
$LUPREC
 70
4
  9
$SKETCHINC
 40
1.0
  9
$FILLETRAD
 40
10.0
  9
$AUNITS
 70
0
  9
$AUPREC
 70
2
  9
$MENU
  1
.
  9
$ELEVATION
 40
0.0
  9
$PELEVATION
 40
0.0
  9
$THICKNESS
 40
0.0
  9
$LIMCHECK
 70
0
  9
$CHAMFERA
 40
0.0
  9
$CHAMFERB
 40
0.0
  9
$CHAMFERC
 40
0.0
  9
$CHAMFERD
 40
0.0
  9
$SKPOLY
 70
0
  9
$TDCREATE
 40
2461281.1242708336
  9
$TDUCREATE
 40
2458532.153996898
  9
$TDUPDATE
 40
2461281.1242708336
  9
$TDUUPDATE
 40
2458532.1544311
  9
$TDINDWG
 40
0.0
  9
$TDUSRTIMER
 40
0.0
  9
$USRTIMER
 70
1
  9
$ANGBASE
 50
0.0
  9
$ANGDIR
 70
0
  9
$PDMODE
 70
0
  9
$PDSIZE
 40
0.0
  9
$PLINEWID
 40
0.0
  9
$SPLFRAME
 70
0
  9
$SPLINETYPE
 70
6
  9
$SPLINESEGS
 70
8
  9
$HANDSEED
  5
C1
  9
$SURFTAB1
 70
6
  9
$SURFTAB2
 70
6
  9
$SURFTYPE
 70
6
  9
$SURFU
 70
6
  9
$SURFV
 70
6
  9
$UCSBASE
  2

  9
$UCSNAME
  2

  9
$UCSORG
 10
0.0
 20
0.0
 30
0.0
  9
$UCSXDIR
 10
1.0
 20
0.0
 30
0.0
  9
$UCSYDIR
 10
0.0
 20
1.0
 30
0.0
  9
$UCSORTHOREF
  2

  9
$UCSORTHOVIEW
 70
0
  9
$UCSORGTOP
 10
0.0
 20
0.0
 30
0.0
  9
$UCSORGBOTTOM
 10
0.0
 20
0.0
 30
0.0
  9
$UCSORGLEFT
 10
0.0
 20
0.0
 30
0.0
  9
$UCSORGRIGHT
 10
0.0
 20
0.0
 30
0.0
  9
$UCSORGFRONT
 10
0.0
 20
0.0
 30
0.0
  9
$UCSORGBACK
 10
0.0
 20
0.0
 30
0.0
  9
$PUCSBASE
  2

  9
$PUCSNAME
  2

  9
$PUCSORG
 10
0.0
 20
0.0
 30
0.0
  9
$PUCSXDIR
 10
1.0
 20
0.0
 30
0.0
  9
$PUCSYDIR
 10
0.0
 20
1.0
 30
0.0
  9
$PUCSORTHOREF
  2

  9
$PUCSORTHOVIEW
 70
0
  9
$PUCSORGTOP
 10
0.0
 20
0.0
 30
0.0
  9
$PUCSORGBOTTOM
 10
0.0
 20
0.0
 30
0.0
  9
$PUCSORGLEFT
 10
0.0
 20
0.0
 30
0.0
  9
$PUCSORGRIGHT
 10
0.0
 20
0.0
 30
0.0
  9
$PUCSORGFRONT
 10
0.0
 20
0.0
 30
0.0
  9
$PUCSORGBACK
 10
0.0
 20
0.0
 30
0.0
  9
$USERI1
 70
0
  9
$USERI2
 70
0
  9
$USERI3
 70
0
  9
$USERI4
 70
0
  9
$USERI5
 70
0
  9
$USERR1
 40
0.0
  9
$USERR2
 40
0.0
  9
$USERR3
 40
0.0
  9
$USERR4
 40
0.0
  9
$USERR5
 40
0.0
  9
$WORLDVIEW
 70
1
  9
$SHADEDGE
 70
3
  9
$SHADEDIF
 70
70
  9
$TILEMODE
 70
1
  9
$MAXACTVP
 70
64
  9
$PINSBASE
 10
0.0
 20
0.0
 30
0.0
  9
$PLIMCHECK
 70
0
  9
$PEXTMIN
 10
1e+20
 20
1e+20
 30
1e+20
  9
$PEXTMAX
 10
-1e+20
 20
-1e+20
 30
-1e+20
  9
$PLIMMIN
 10
0.0
 20
0.0
  9
$PLIMMAX
 10
420.0
 20
297.0
  9
$UNITMODE
 70
0
  9
$VISRETAIN
 70
1
  9
$PLINEGEN
 70
0
  9
$PSLTSCALE
 70
1
  9
$TREEDEPTH
 70
3020
  9
$CMLSTYLE
  2
Standard
  9
$CMLJUST
 70
0
  9
$CMLSCALE
 40
20.0
  9
$PROXYGRAPHICS
 70
1
  9
$MEASUREMENT
 70
1
  9
$CELWEIGHT
370
-1
  9
$ENDCAPS
280
0
  9
$JOINSTYLE
280
0
  9
$LWDISPLAY
290
0
  9
$INSUNITS
 70
4
  9
$HYPERLINKBASE
  1

  9
$STYLESHEET
  1

  9
$XEDIT
290
1
  9
$CEPSNTYPE
380
0
  9
$PSTYLEMODE
290
1
  9
$FINGERPRINTGUID
  2
{225E7854-1BA4-4C1B-91F4-6AA100A41C24}
  9
$VERSIONGUID
  2
{2EE552AE-A6AD-4023-8CC8-16C1D0C7DB62}
  9
$EXTNAMES
290
1
  9
$PSVPSCALE
 40
0.0
  9
$OLESTARTUP
290
0
  9
$SORTENTS
280
127
  9
$INDEXCTL
280
0
  9
$HIDETEXT
280
1
  9
$XCLIPFRAME
280
1
  9
$HALOGAP
280
0
  9
$OBSCOLOR
 70
257
  9
$OBSLTYPE
280
0
  9
$INTERSECTIONDISPLAY
280
0
  9
$INTERSECTIONCOLOR
 70
257
  9
$DIMASSOC
280
2
  9
$PROJECTNAME
  1

  9
$CAMERADISPLAY
290
0
  9
$LENSLENGTH
 40
50.0
  9
$CAMERAHEIGHT
 40
0.0
  9
$STEPSPERSEC
 40
24.0
  9
$STEPSIZE
 40
100.0
  9
$3DDWFPREC
 40
2.0
  9
$PSOLWIDTH
 40
0.005
  9
$PSOLHEIGHT
 40
0.08
  9
$LOFTANG1
 40
1.570796326795
  9
$LOFTANG2
 40
1.570796326795
  9
$LOFTMAG1
 40
0.0
  9
$LOFTMAG2
 40
0.0
  9
$LOFTPARAM
 70
7
  9
$LOFTNORMALS
280
1
  9
$LATITUDE
 40
37.795
  9
$LONGITUDE
 40
-122.394
  9
$NORTHDIRECTION
 40
0.0
  9
$TIMEZONE
 70
-8000
  9
$LIGHTGLYPHDISPLAY
280
1
  9
$TILEMODELIGHTSYNCH
280
1
  9
$CMATERIAL
347
20
  9
$SOLIDHIST
280
0
  9
$SHOWHIST
280
1
  9
$DWFFRAME
280
2
  9
$DGNFRAME
280
2
  9
$REALWORLDSCALE
290
1
  9
$INTERFERECOLOR
 62
256
  9
$CSHADOW
280
0
  9
$SHADOWPLANELOCATION
 40
0.0
  0
ENDSEC
  0
SECTION
  2
CLASSES
  0
CLASS
  1
ACDBDICTIONARYWDFLT
  2
AcDbDictionaryWithDefault
  3
ObjectDBX Classes
 90
0
 91
0
280
0
281
0
  0
CLASS
  1
SUN
  2
AcDbSun
  3
SCENEOE
 90
1153
 91
0
280
0
281
0
  0
CLASS
  1
VISUALSTYLE
  2
AcDbVisualStyle
  3
ObjectDBX Classes
 90
4095
 91
0
280
0
281
0
  0
CLASS
  1
MATERIAL
  2
AcDbMaterial
  3
ObjectDBX Classes
 90
1153
 91
0
280
0
281
0
  0
CLASS
  1
SCALE
  2
AcDbScale
  3
ObjectDBX Classes
 90
1153
 91
0
280
0
281
0
  0
CLASS
  1
TABLESTYLE
  2
AcDbTableStyle
  3
ObjectDBX Classes
 90
4095
 91
0
280
0
281
0
  0
CLASS
  1
MLEADERSTYLE
  2
AcDbMLeaderStyle
  3
ACDB_MLEADERSTYLE_CLASS
 90
4095
 91
0
280
0
281
0
  0
CLASS
  1
DICTIONARYVAR
  2
AcDbDictionaryVar
  3
ObjectDBX Classes
 90
0
 91
0
280
0
281
0
  0
CLASS
  1
CELLSTYLEMAP
  2
AcDbCellStyleMap
  3
ObjectDBX Classes
 90
1152
 91
0
280
0
281
0
  0
CLASS
  1
MENTALRAYRENDERSETTINGS
  2
AcDbMentalRayRenderSettings
  3
SCENEOE
 90
1024
 91
0
280
0
281
0
  0
CLASS
  1
ACDBDETAILVIEWSTYLE
  2
AcDbDetailViewStyle
  3
ObjectDBX Classes
 90
1025
 91
0
280
0
281
0
  0
CLASS
  1
ACDBSECTIONVIEWSTYLE
  2
AcDbSectionViewStyle
  3
ObjectDBX Classes
 90
1025
 91
0
280
0
281
0
  0
CLASS
  1
RASTERVARIABLES
  2
AcDbRasterVariables
  3
ISM
 90
0
 91
0
280
0
281
0
  0
CLASS
  1
LAYOUT
  2
AcDbLayout
  3
ObjectDBX Classes
 90
0
 91
0
280
0
281
0
  0
CLASS
  1
ACDBPLACEHOLDER
  2
AcDbPlaceHolder
  3
ObjectDBX Classes
 90
0
 91
0
280
0
281
0
  0
ENDSEC
  0
SECTION
  2
TABLES
  0
TABLE
  2
VPORT
  5
8
330
0
100
AcDbSymbolTable
 70
1
  0
VPORT
  5
23
330
8
100
AcDbSymbolTableRecord
100
AcDbViewportTableRecord
  2
*Active
 70
0
 10
0.0
 20
0.0
 11
1.0
 21
1.0
 12
0.0
 22
0.0
 13
0.0
 23
0.0
 14
0.5
 24
0.5
 15
0.5
 25
0.5
 16
0.0
 26
0.0
 36
1.0
 17
0.0
 27
0.0
 37
0.0
 40
1000.0
 41
1.34
 42
50.0
 43
0.0
 44
0.0
 50
0.0
 51
0.0
 71
0
 72
1000
 73
1
 74
3
 75
0
 76
0
 77
0
 78
0
281
0
 65
0
146
0.0
  0
ENDTAB
  0
TABLE
  2
LTYPE
  5
2
330
0
100
AcDbSymbolTable
 70
5
  0
LTYPE
  5
24
330
2
100
AcDbSymbolTableRecord
100
AcDbLinetypeTableRecord
  2
ByBlock
 70
0
  3

 72
65
 73
0
 40
0.0
  0
LTYPE
  5
25
330
2
100
AcDbSymbolTableRecord
100
AcDbLinetypeTableRecord
  2
ByLayer
 70
0
  3

 72
65
 73
0
 40
0.0
  0
LTYPE
  5
26
330
2
100
AcDbSymbolTableRecord
100
AcDbLinetypeTableRecord
  2
Continuous
 70
0
  3

 72
65
 73
0
 40
0.0
  0
LTYPE
  5
2F
330
2
100
AcDbSymbolTableRecord
100
AcDbLinetypeTableRecord
  2
DASHED
 70
0
  3
Штриховая — — — —
 72
65
 73
2
 40
9.0
 49
6.0
 74
0
 49
-3.0
 74
0
  0
LTYPE
  5
30
330
2
100
AcDbSymbolTableRecord
100
AcDbLinetypeTableRecord
  2
DASHDOT
 70
0
  3
Штрихпунктирная — · — · —
 72
65
 73
4
 40
14.0
 49
8.0
 74
0
 49
-3.0
 74
0
 49
0.0
 74
0
 49
-3.0
 74
0
  0
ENDTAB
  0
TABLE
  2
LAYER
  5
1
330
0
100
AcDbSymbolTable
 70
10
  0
LAYER
  5
27
330
1
100
AcDbSymbolTableRecord
100
AcDbLayerTableRecord
  2
0
 70
0
 62
7
  6
Continuous
370
-3
390
13
347
21
  0
LAYER
  5
28
330
1
100
AcDbSymbolTableRecord
100
AcDbLayerTableRecord
  2
Defpoints
 70
0
 62
7
  6
Continuous
290
0
370
-3
390
13
347
21
  0
LAYER
  5
32
330
1
100
AcDbSymbolTableRecord
100
AcDbLayerTableRecord
  2
GAS
 70
0
 62
30
420
14712622
  6
Continuous
370
35
390
13
347
21
1001
AcAecLayerStandard
1000

1000
Газовый тракт (оранжевый)
  0
LAYER
  5
34
330
1
100
AcDbSymbolTableRecord
100
AcDbLayerTableRecord
  2
LIQUID
 70
0
 62
5
420
2783446
  6
Continuous
370
35
390
13
347
21
1001
AcAecLayerStandard
1000

1000
Жидкостные потоки: кислота, растворы, вода (синий)
  0
LAYER
  5
35
330
1
100
AcDbSymbolTableRecord
100
AcDbLayerTableRecord
  2
DUST
 70
0
 62
6
420
10702494
  6
Continuous
370
35
390
13
347
21
1001
AcAecLayerStandard
1000

1000
Пылевой тракт: циклоны, фильтры (фиолетовый)
  0
LAYER
  5
36
330
1
100
AcDbSymbolTableRecord
100
AcDbLayerTableRecord
  2
ELECTRIC
 70
0
 62
2
420
16429593
  6
Continuous
370
30
390
13
347
21
1001
AcAecLayerStandard
1000

1000
Электрика / энергоснабжение (жёлтый)
  0
LAYER
  5
37
330
1
100
AcDbSymbolTableRecord
100
AcDbLayerTableRecord
  2
INTERLOCK
 70
0
 62
1
420
13646651
  6
Continuous
370
30
390
13
347
21
1001
AcAecLayerStandard
1000

1000
Блокировки и защиты (красный)
  0
LAYER
  5
38
330
1
100
AcDbSymbolTableRecord
100
AcDbLayerTableRecord
  2
OUTLINE
 70
0
 62
7
  6
Continuous
370
25
390
13
347
21
1001
AcAecLayerStandard
1000

1000
Контуры оборудования, строительная графика (ink)
  0
LAYER
  5
39
330
1
100
AcDbSymbolTableRecord
100
AcDbLayerTableRecord
  2
TEXT_RU
 70
0
 62
7
  6
Continuous
370
25
390
13
347
21
1001
AcAecLayerStandard
1000

1000
Надписи (русские, UTF-8)
  0
LAYER
  5
3A
330
1
100
AcDbSymbolTableRecord
100
AcDbLayerTableRecord
  2
DIM
 70
0
 62
8
  6
Continuous
370
13
390
13
347
21
1001
AcAecLayerStandard
1000

1000
Размерные и вспомогательные линии, рамка, сетка
  0
ENDTAB
  0
TABLE
  2
STYLE
  5
5
330
0
100
AcDbSymbolTable
 70
2
  0
STYLE
  5
29
330
5
100
AcDbSymbolTableRecord
100
AcDbTextStyleTableRecord
  2
Standard
 70
0
 40
0.0
 41
1.0
 50
0.0
 71
0
 42
2.5
  3
txt
  4

  0
STYLE
  5
31
330
5
100
AcDbSymbolTableRecord
100
AcDbTextStyleTableRecord
  2
TXTRU
 70
0
 40
0.0
 41
1.0
 50
0.0
 71
0
 42
2.5
  3
arial.ttf
  4

  0
ENDTAB
  0
TABLE
  2
VIEW
  5
7
330
0
100
AcDbSymbolTable
 70
0
  0
ENDTAB
  0
TABLE
  2
UCS
  5
6
330
0
100
AcDbSymbolTable
 70
0
  0
ENDTAB
  0
TABLE
  2
APPID
  5
3
330
0
100
AcDbSymbolTable
 70
4
  0
APPID
  5
2A
330
3
100
AcDbSymbolTableRecord
100
AcDbRegAppTableRecord
  2
ACAD
 70
0
  0
APPID
  5
33
330
3
100
AcDbSymbolTableRecord
100
AcDbRegAppTableRecord
  2
AcAecLayerStandard
 70
0
  0
APPID
  5
BE
330
3
100
AcDbSymbolTableRecord
100
AcDbRegAppTableRecord
  2
HATCHBACKGROUNDCOLOR
 70
0
  0
APPID
  5
BF
330
3
100
AcDbSymbolTableRecord
100
AcDbRegAppTableRecord
  2
EZDXF
 70
0
  0
ENDTAB
  0
TABLE
  2
DIMSTYLE
  5
4
330
0
100
AcDbSymbolTable
 70
1
100
AcDbDimStyleTable
  0
DIMSTYLE
105
2B
330
4
100
AcDbSymbolTableRecord
100
AcDbDimStyleTableRecord
  2
Standard
 70
0
 40
1.0
 41
2.5
 42
0.625
 43
3.75
 44
1.25
 45
0.0
 46
0.0
 47
0.0
 48
0.0
 49
2.5
140
2.5
141
2.5
142
0.0
143
0.03937007874
144
1.0
145
0.0
146
1.0
147
0.625
148
0.0
 69
0
 70
0
 71
0
 72
0
 73
0
 74
0
 75
0
 76
0
 77
1
 78
8
 79
3
170
0
171
3
172
1
173
0
174
0
175
0
176
0
177
0
178
0
179
2
271
2
272
2
273
2
274
3
275
0
276
0
277
2
278
44
279
0
280
0
281
0
282
0
283
0
284
8
285
0
286
0
288
0
289
3
290
0
371
-2
372
-2
  0
ENDTAB
  0
TABLE
  2
BLOCK_RECORD
  5
9
330
0
100
AcDbSymbolTable
 70
2
  0
BLOCK_RECORD
  5
17
330
9
100
AcDbSymbolTableRecord
100
AcDbBlockTableRecord
  2
*Model_Space
340
1A
 70
0
280
1
281
0
  0
BLOCK_RECORD
  5
1B
330
9
100
AcDbSymbolTableRecord
100
AcDbBlockTableRecord
  2
*Paper_Space
340
1E
 70
0
280
1
281
0
  0
ENDTAB
  0
ENDSEC
  0
SECTION
  2
BLOCKS
  0
BLOCK
  5
18
330
17
100
AcDbEntity
  8
0
100
AcDbBlockBegin
  2
*Model_Space
 70
0
 10
0.0
 20
0.0
 30
0.0
  3
*Model_Space
  1

  0
ENDBLK
  5
19
330
17
100
AcDbEntity
  8
0
100
AcDbBlockEnd
  0
BLOCK
  5
1C
330
1B
100
AcDbEntity
  8
0
100
AcDbBlockBegin
  2
*Paper_Space
 70
0
 10
0.0
 20
0.0
 30
0.0
  3
*Paper_Space
  1

  0
ENDBLK
  5
1D
330
1B
100
AcDbEntity
  8
0
100
AcDbBlockEnd
  0
ENDSEC
  0
SECTION
  2
ENTITIES
  0
LWPOLYLINE
  5
3B
330
17
100
AcDbEntity
  8
DIM
420
15198183
100
AcDbPolyline
 90
4
 70
1
 10
6.0
 20
614.0
 10
1184.0
 20
614.0
 10
1184.0
 20
6.0
 10
6.0
 20
6.0
  0
TEXT
  5
3C
330
17
100
AcDbEntity
  8
TEXT_RU
100
AcDbText
 10
20.0
 20
18.0
 30
0.0
 40
7.0
  1
ЭСКИЗ — не для строительства · структурная схема КТС АСУ ТП (общая для лотов) · источники: Прил. №5 к ТЗ КГМК «Базовые требования… пл. Мончегорск», выпрямители — ИД ч.2 табл. 4.2 · КВАНТ, черновик БИ
  7
TXTRU
 11
20.0
 21
18.0
 31
0.0
100
AcDbText
  0
TEXT
  5
3D
330
17
100
AcDbEntity
  8
TEXT_RU
100
AcDbText
 10
1174.0
 20
590.0
 30
0.0
 40
8.4
  1
КТС АСУ ТП · СТРУКТУРНАЯ СХЕМА (ОБЩАЯ ДЛЯ ЛОТОВ)
  7
TXTRU
 72
2
 11
1174.0
 21
590.0
 31
0.0
100
AcDbText
  0
LINE
  5
3E
330
17
100
AcDbEntity
  8
DIM
  6
DASHED
420
15198183
100
AcDbLine
 10
16.0
 20
424.0
 30
0.0
 11
928.0
 21
424.0
 31
0.0
  0
LINE
  5
3F
330
17
100
AcDbEntity
  8
DIM
  6
DASHED
420
15198183
100
AcDbLine
 10
16.0
 20
352.0
 30
0.0
 11
928.0
 21
352.0
 31
0.0
  0
LINE
  5
40
330
17
100
AcDbEntity
  8
DIM
  6
DASHED
420
15198183
100
AcDbLine
 10
16.0
 20
160.0
 30
0.0
 11
928.0
 21
160.0
 31
0.0
  0
LINE
  5
41
330
17
100
AcDbEntity
  8
DIM
  6
DASHED
420
15198183
100
AcDbLine
 10
934.0
 20
574.0
 30
0.0
 11
934.0
 21
30.0
 31
0.0
  0
TEXT
  5
42
330
17
100
AcDbEntity
  8
TEXT_RU
100
AcDbText
 10
26.0
 20
556.0
 30
0.0
 40
7.0
  1
ВЕРХНИЙ УРОВЕНЬ · SCADA, СЕРВЕРЫ, АРМ
  7
TXTRU
 11
26.0
 21
556.0
 31
0.0
100
AcDbText
  0
TEXT
  5
43
330
17
100
AcDbEntity
  8
TEXT_RU
100
AcDbText
 10
26.0
 20
336.0
 30
0.0
 40
7.0
  1
СРЕДНИЙ УРОВЕНЬ · ПЛК И УСО
  7
TXTRU
 11
26.0
 21
336.0
 31
0.0
100
AcDbText
  0
TEXT
  5
44
330
17
100
AcDbEntity
  8
TEXT_RU
100
AcDbText
 10
26.0
 20
142.0
 30
0.0
 40
7.0
  1
ПОЛЕВОЙ УРОВЕНЬ
  7
TXTRU
 11
26.0
 21
142.0
 31
0.0
100
AcDbText
  0
TEXT
  5
45
330
17
100
AcDbEntity
  8
TEXT_RU
100
AcDbText
 10
1065.0
 20
556.0
 30
0.0
 40
7.0
  1
СМЕЖНЫЕ / ВНЕШНИЕ СИСТЕМЫ
  7
TXTRU
 72
1
 11
1065.0
 21
556.0
 31
0.0
100
AcDbText
  0
LINE
  5
46
330
17
100
AcDbEntity
  8
LIQUID
100
AcDbLine
 10
30.0
 20
396.0
 30
0.0
 11
944.0
 21
396.0
 31
0.0
  0
LINE
  5
47
330
17
100
AcDbEntity
  8
LIQUID
100
AcDbLine
 10
30.0
 20
388.0
 30
0.0
 11
944.0
 21
388.0
 31
0.0
  0
TEXT
  5
48
330
17
100
AcDbEntity
  8
TEXT_RU
420
2783446
100
AcDbText
 10
112.0
 20
407.0
 30
0.0
 40
6.3
  1
МАГИСТРАЛЬ INDUSTRIAL ETHERNET (IEEE 802.3) · TCP/IP
  7
TXTRU
 11
112.0
 21
407.0
 31
0.0
100
AcDbText
  0
TEXT
  5
49
330
17
100
AcDbEntity
  8
TEXT_RU
420
2783446
100
AcDbText
 10
660.0
 20
407.0
 30
0.0
 40
6.3
  1
РЕЗЕРВИРОВАННАЯ СЕТЬ
  7
TXTRU
 11
660.0
 21
407.0
 31
0.0
100
AcDbText
  0
TEXT
  5
4A
330
17
100
AcDbEntity
  8
TEXT_RU
100
AcDbText
 10
205.0
 20
371.0
 30
0.0
 40
5.95
  1
управляемые промышленные коммутаторы · кольцо / звезда / иерархия
  7
TXTRU
 11
205.0
 21
371.0
 31
0.0
100
AcDbText
  0
TEXT
  5
4B
330
17
100
AcDbEntity
  8
TEXT_RU
100
AcDbText
 10
650.0
 20
371.0
 30
0.0
 40
5.95
  1
оптика SC (одномод) / витая пара кат. 5 · без вентиляторов
  7
TXTRU
 11
650.0
 21
371.0
 31
0.0
100
AcDbText
  0
LINE
  5
4C
330
17
100
AcDbEntity
  8
LIQUID
100
AcDbLine
 10
100.0
 20
444.0
 30
0.0
 11
100.0
 21
398.0
 31
0.0
  0
LINE
  5
4D
330
17
100
AcDbEntity
  8
LIQUID
100
AcDbLine
 10
470.0
 20
444.0
 30
0.0
 11
470.0
 21
398.0
 31
0.0
  0
LINE
  5
4E
330
17
100
AcDbEntity
  8
LIQUID
100
AcDbLine
 10
640.0
 20
444.0
 30
0.0
 11
640.0
 21
398.0
 31
0.0
  0
LINE
  5
4F
330
17
100
AcDbEntity
  8
LIQUID
100
AcDbLine
 10
908.0
 20
444.0
 30
0.0
 11
908.0
 21
398.0
 31
0.0
  0
TEXT
  5
50
330
17
100
AcDbEntity
  8
TEXT_RU
100
AcDbText
 10
914.0
 20
415.0
 30
0.0
 40
5.6
  1
SNMP
  7
TXTRU
 11
914.0
 21
415.0
 31
0.0
100
AcDbText
  0
LWPOLYLINE
  5
51
330
17
100
AcDbEntity
  8
LIQUID
420
10470125
100
AcDbPolyline
 90
8
 70
1
 10
50.0
 20
521.0
 10
251.0
 20
521.0
 42
0.4142135623731024
 10
258.0
 20
514.0
 10
258.0
 20
444.0
 42
0.4142135623731024
 10
251.0
 20
437.0
 10
50.0
 20
437.0
 42
0.41421356237310036
 10
43.0
 20
444.0
 10
43.0
 20
514.0
 42
0.41421356237310036
  0
LWPOLYLINE
  5
52
330
17
100
AcDbEntity
  8
LIQUID
100
AcDbPolyline
 90
8
 70
1
 10
43.0
 20
528.0
 10
244.0
 20
528.0
 42
0.4142135623731024
 10
251.0
 20
521.0
 10
251.0
 20
451.0
 42
0.4142135623731024
 10
244.0
 20
444.0
 10
43.0
 20
444.0
 42
0.41421356237310036
 10
36.0
 20
451.0
 10
36.0
 20
521.0
 42
0.41421356237310036
  0
TEXT
  5
53
330
17
100
AcDbEntity
  8
TEXT_RU
100
AcDbText
 10
143.5
 20
511.0
 30
0.0
 40
7.7
  1
СЕРВЕРЫ SCADA ×2
  7
TXTRU
 72
1
 11
143.5
 21
511.0
 31
0.0
100
AcDbText
  0
TEXT
  5
54
330
17
100
AcDbEntity
  8
TEXT_RU
100
AcDbText
 10
143.5
 20
498.0
 30
0.0
 40
6.3
  1
AlphaScada · АО «Атомик Софт» · ОС Linux
  7
TXTRU
 72
1
 11
143.5
 21
498.0
 31
0.0
100
AcDbText
  0
TEXT
  5
55
330
17
100
AcDbEntity
  8
TEXT_RU
100
AcDbText
 10
143.5
 20
486.0
 30
0.0
 40
6.3
  1
горячее резервирование верхнего уровня
  7
TXTRU
 72
1
 11
143.5
 21
486.0
 31
0.0
100
AcDbText
  0
TEXT
  5
56
330
17
100
AcDbEntity
  8
TEXT_RU
100
AcDbText
 10
143.5
 20
474.0
 30
0.0
 40
6.3
  1
ИВК: сбор, обработка, хранение,
  7
TXTRU
 72
1
 11
143.5
 21
474.0
 31
0.0
100
AcDbText
  0
TEXT
  5
57
330
17
100
AcDbEntity
  8
TEXT_RU
100
AcDbText
 10
143.5
 20
462.0
 30
0.0
 40
6.3
  1
диагностика; история процесса
  7
TXTRU
 72
1
 11
143.5
 21
462.0
 31
0.0
100
AcDbText
  0
LWPOLYLINE
  5
58
330
17
100
AcDbEntity
  8
LIQUID
100
AcDbPolyline
 90
8
 70
1
 10
281.0
 20
528.0
 10
487.0
 20
528.0
 42
0.41421356237309837
 10
494.0
 20
521.0
 10
494.0
 20
451.0
 42
0.41421356237309837
 10
487.0
 20
444.0
 10
281.0
 20
444.0
 42
0.41421356237309837
 10
274.0
 20
451.0
 10
274.0
 20
521.0
 42
0.41421356237309837
  0
TEXT
  5
59
330
17
100
AcDbEntity
  8
TEXT_RU
100
AcDbText
 10
384.0
 20
511.0
 30
0.0
 40
7.7
  1
АРМ ОПЕРАТОРОВ
  7
TXTRU
 72
1
 11
384.0
 21
511.0
 31
0.0
100
AcDbText
  0
TEXT
  5
5A
330
17
100
AcDbEntity
  8
TEXT_RU
100
AcDbText
 10
384.0
 20
498.0
 30
0.0
 40
6.3
  1
безвентиляторные, не более 2 мониторов
  7
TXTRU
 72
1
 11
384.0
 21
498.0
 31
0.0
100
AcDbText
  0
TEXT
  5
5B
330
17
100
AcDbEntity
  8
TEXT_RU
100
AcDbText
 10
384.0
 20
486.0
 30
0.0
 40
6.3
  1
дистанционное управление, блокировки
  7
TXTRU
 72
1
 11
384.0
 21
486.0
 31
0.0
100
AcDbText
  0
TEXT
  5
5C
330
17
100
AcDbEntity
  8
TEXT_RU
100
AcDbText
 10
384.0
 20
474.0
 30
0.0
 40
6.3
  1
мнемосхемы, тренды, история
  7
TXTRU
 72
1
 11
384.0
 21
474.0
 31
0.0
100
AcDbText
  0
TEXT
  5
5D
330
17
100
AcDbEntity
  8
TEXT_RU
100
AcDbText
 10
384.0
 20
462.0
 30
0.0
 40
6.3
  1
сигнализация с квитированием
  7
TXTRU
 72
1
 11
384.0
 21
462.0
 31
0.0
100
AcDbText
  0
LWPOLYLINE
  5
5E
330
17
100
AcDbEntity
  8
LIQUID
100
AcDbPolyline
 90
8
 70
1
 10
513.0
 20
528.0
 10
649.0
 20
528.0
 42
0.4142135623731064
 10
656.0
 20
521.0
 10
656.0
 20
451.0
 42
0.4142135623731064
 10
649.0
 20
444.0
 10
513.0
 20
444.0
 42
0.41421356237309837
 10
506.0
 20
451.0
 10
506.0
 20
521.0
 42
0.41421356237309837
  0
TEXT
  5
5F
330
17
100
AcDbEntity
  8
TEXT_RU
100
AcDbText
 10
581.0
 20
511.0
 30
0.0
 40
7.7
  1
ИНЖЕНЕРНАЯ СТАНЦИЯ
  7
TXTRU
 72
1
 11
581.0
 21
511.0
 31
0.0
100
AcDbText
  0
TEXT
  5
60
330
17
100
AcDbEntity
  8
TEXT_RU
100
AcDbText
 10
581.0
 20
498.0
 30
0.0
 40
6.3
  1
питание — I «особая»
  7
TXTRU
 72
1
 11
581.0
 21
498.0
 31
0.0
100
AcDbText
  0
TEXT
  5
61
330
17
100
AcDbEntity
  8
TEXT_RU
100
AcDbText
 10
581.0
 20
486.0
 30
0.0
 40
6.3
  1
категория (с ИБП)
  7
TXTRU
 72
1
 11
581.0
 21
486.0
 31
0.0
100
AcDbText
  0
LWPOLYLINE
  5
62
330
17
100
AcDbEntity
  8
ELECTRIC
420
16637080
100
AcDbPolyline
 90
8
 70
1
 10
686.0
 20
521.0
 10
924.0
 20
521.0
 42
0.4142135623731064
 10
931.0
 20
514.0
 10
931.0
 20
444.0
 42
0.4142135623731064
 10
924.0
 20
437.0
 10
686.0
 20
437.0
 42
0.4142135623731064
 10
679.0
 20
444.0
 10
679.0
 20
514.0
 42
0.4142135623731064
  0
LWPOLYLINE
  5
63
330
17
100
AcDbEntity
  8
ELECTRIC
100
AcDbPolyline
 90
8
 70
1
 10
679.0
 20
528.0
 10
917.0
 20
528.0
 42
0.4142135623731064
 10
924.0
 20
521.0
 10
924.0
 20
451.0
 42
0.4142135623731064
 10
917.0
 20
444.0
 10
679.0
 20
444.0
 42
0.4142135623731064
 10
672.0
 20
451.0
 10
672.0
 20
521.0
 42
0.4142135623731064
  0
TEXT
  5
64
330
17
100
AcDbEntity
  8
TEXT_RU
100
AcDbText
 10
798.0
 20
511.0
 30
0.0
 40
7.7
  1
ИБП ДВОЙНОГО ПРЕОБРАЗОВАНИЯ
  7
TXTRU
 72
1
 11
798.0
 21
511.0
 31
0.0
100
AcDbText
  0
TEXT
  5
65
330
17
100
AcDbEntity
  8
TEXT_RU
100
AcDbText
 10
798.0
 20
498.0
 30
0.0
 40
6.3
  1
I «особая» категория · АВР «на сеть»
  7
TXTRU
 72
1
 11
798.0
 21
498.0
 31
0.0
100
AcDbText
  0
TEXT
  5
66
330
17
100
AcDbEntity
  8
TEXT_RU
100
AcDbText
 10
798.0
 20
486.0
 30
0.0
 40
6.3
  1
автоматический байпас · Ethernet + SNMP
  7
TXTRU
 72
1
 11
798.0
 21
486.0
 31
0.0
100
AcDbText
  0
TEXT
  5
67
330
17
100
AcDbEntity
  8
TEXT_RU
100
AcDbText
 10
798.0
 20
474.0
 30
0.0
 40
6.3
  1
230 В, 50 Гц стабилизированное, 10 мин и более
  7
TXTRU
 72
1
 11
798.0
 21
474.0
 31
0.0
100
AcDbText
  0
LINE
  5
68
330
17
100
AcDbEntity
  8
LIQUID
100
AcDbLine
 10
188.0
 20
388.0
 30
0.0
 11
188.0
 21
324.0
 31
0.0
  0
LINE
  5
69
330
17
100
AcDbEntity
  8
LIQUID
100
AcDbLine
 10
635.0
 20
388.0
 30
0.0
 11
635.0
 21
302.0
 31
0.0
  0
HATCH
  5
6A
330
17
100
AcDbEntity
  8
LIQUID
 62
7
100
AcDbHatch
 10
0.0
 20
0.0
 30
0.0
210
0.0
220
0.0
230
1.0
  2
SOLID
 70
1
 71
0
 91
1
 92
1
 93
1
 72
2
 10
188.0
 20
392.0
 40
3.0
 50
0
 51
360
 73
1
 97
0
 75
0
 76
1
 98
0
  0
HATCH
  5
6B
330
17
100
AcDbEntity
  8
LIQUID
 62
7
100
AcDbHatch
 10
0.0
 20
0.0
 30
0.0
210
0.0
220
0.0
230
1.0
  2
SOLID
 70
1
 71
0
 91
1
 92
1
 93
1
 72
2
 10
635.0
 20
392.0
 40
3.0
 50
0
 51
360
 73
1
 97
0
 75
0
 76
1
 98
0
  0
LWPOLYLINE
  5
6C
330
17
100
AcDbEntity
  8
OUTLINE
100
AcDbPolyline
 90
8
 70
1
 10
44.0
 20
324.0
 10
480.0
 20
324.0
 42
0.4142135623730922
 10
488.0
 20
316.0
 10
488.0
 20
212.0
 42
0.4142135623730922
 10
480.0
 20
204.0
 10
44.0
 20
204.0
 42
0.41421356237309404
 10
36.0
 20
212.0
 10
36.0
 20
316.0
 42
0.41421356237309404
  0
TEXT
  5
6D
330
17
100
AcDbEntity
  8
TEXT_RU
100
AcDbText
 10
46.0
 20
310.0
 30
0.0
 40
5.95
  1
ШКАФЫ АСУ: IP65 · избыточное давление осушенного воздуха · вводы снизу, сальники
  7
TXTRU
 11
46.0
 21
310.0
 31
0.0
100
AcDbText
  0
LWPOLYLINE
  5
6E
330
17
100
AcDbEntity
  8
LIQUID
100
AcDbPolyline
 90
8
 70
1
 10
55.0
 20
302.0
 10
321.0
 20
302.0
 42
0.4142135623730902
 10
328.0
 20
295.0
 10
328.0
 20
221.0
 42
0.4142135623730902
 10
321.0
 20
214.0
 10
55.0
 20
214.0
 42
0.41421356237309226
 10
48.0
 20
221.0
 10
48.0
 20
295.0
 42
0.41421356237309226
  0
TEXT
  5
6F
330
17
100
AcDbEntity
  8
TEXT_RU
100
AcDbText
 10
188.0
 20
285.0
 30
0.0
 40
7.7
  1
ПЛК РОССИЙСКОГО ПРОИЗВОДСТВА
  7
TXTRU
 72
1
 11
188.0
 21
285.0
 31
0.0
100
AcDbText
  0
TEXT
  5
70
330
17
100
AcDbEntity
  8
TEXT_RU
100
AcDbText
 10
188.0
 20
272.0
 30
0.0
 40
6.3
  1
REGUL RX00 (Прософт-Системы) · АБАК («Инкомсистем»)
  7
TXTRU
 72
1
 11
188.0
 21
272.0
 31
0.0
100
AcDbText
  0
TEXT
  5
71
330
17
100
AcDbEntity
  8
TEXT_RU
100
AcDbText
 10
188.0
 20
260.0
 30
0.0
 40
6.3
  1
сбор и обработка, буферизация, управление,
  7
TXTRU
 72
1
 11
188.0
 21
260.0
 31
0.0
100
AcDbText
  0
TEXT
  5
72
330
17
100
AcDbEntity
  8
TEXT_RU
100
AcDbText
 10
188.0
 20
248.0
 30
0.0
 40
6.3
  1
защиты и блокировки по алгоритмам
  7
TXTRU
 72
1
 11
188.0
 21
248.0
 31
0.0
100
AcDbText
  0
TEXT
  5
73
330
17
100
AcDbEntity
  8
TEXT_RU
100
AcDbText
 10
188.0
 20
236.0
 30
0.0
 40
6.3
  1
запас каналов и мест 30 % и более · conformal coating
  7
TXTRU
 72
1
 11
188.0
 21
236.0
 31
0.0
100
AcDbText
  0
LWPOLYLINE
  5
74
330
17
100
AcDbEntity
  8
ELECTRIC
100
AcDbPolyline
 90
8
 70
1
 10
347.0
 20
302.0
 10
469.0
 20
302.0
 42
0.4142135623730902
 10
476.0
 20
295.0
 10
476.0
 20
221.0
 42
0.4142135623730902
 10
469.0
 20
214.0
 10
347.0
 20
214.0
 42
0.4142135623730902
 10
340.0
 20
221.0
 10
340.0
 20
295.0
 42
0.4142135623730902
  0
TEXT
  5
75
330
17
100
AcDbEntity
  8
TEXT_RU
100
AcDbText
 10
408.0
 20
285.0
 30
0.0
 40
7.7
  1
ПИТАНИЕ 24 VDC
  7
TXTRU
 72
1
 11
408.0
 21
285.0
 31
0.0
100
AcDbText
  0
TEXT
  5
76
330
17
100
AcDbEntity
  8
TEXT_RU
100
AcDbText
 10
408.0
 20
272.0
 30
0.0
 40
6.3
  1
I категория (ПУЭ)
  7
TXTRU
 72
1
 11
408.0
 21
272.0
 31
0.0
100
AcDbText
  0
TEXT
  5
77
330
17
100
AcDbEntity
  8
TEXT_RU
100
AcDbText
 10
408.0
 20
260.0
 30
0.0
 40
6.3
  1
резервирование,
  7
TXTRU
 72
1
 11
408.0
 21
260.0
 31
0.0
100
AcDbText
  0
TEXT
  5
78
330
17
100
AcDbEntity
  8
TEXT_RU
100
AcDbText
 10
408.0
 20
248.0
 30
0.0
 40
6.3
  1
элементы автономности
  7
TXTRU
 72
1
 11
408.0
 21
248.0
 31
0.0
100
AcDbText
  0
TEXT
  5
79
330
17
100
AcDbEntity
  8
TEXT_RU
100
AcDbText
 10
408.0
 20
236.0
 30
0.0
 40
6.3
  1
отдельные БП для В/В
  7
TXTRU
 72
1
 11
408.0
 21
236.0
 31
0.0
100
AcDbText
  0
LWPOLYLINE
  5
7A
330
17
100
AcDbEntity
  8
LIQUID
  6
DASHED
420
10470125
100
AcDbPolyline
 90
8
 70
1
 10
534.0
 20
295.0
 10
750.0
 20
295.0
 42
0.41421356237309837
 10
757.0
 20
288.0
 10
757.0
 20
214.0
 42
0.41421356237309837
 10
750.0
 20
207.0
 10
534.0
 20
207.0
 42
0.41421356237309837
 10
527.0
 20
214.0
 10
527.0
 20
288.0
 42
0.41421356237309837
  0
LWPOLYLINE
  5
7B
330
17
100
AcDbEntity
  8
LIQUID
  6
DASHED
100
AcDbPolyline
 90
8
 70
1
 10
527.0
 20
302.0
 10
743.0
 20
302.0
 42
0.41421356237309837
 10
750.0
 20
295.0
 10
750.0
 20
221.0
 42
0.41421356237309837
 10
743.0
 20
214.0
 10
527.0
 20
214.0
 42
0.41421356237309837
 10
520.0
 20
221.0
 10
520.0
 20
295.0
 42
0.41421356237309837
  0
TEXT
  5
7C
330
17
100
AcDbEntity
  8
TEXT_RU
100
AcDbText
 10
635.0
 20
285.0
 30
0.0
 40
7.7
  1
СТАНЦИИ УДАЛЁННОГО В/В
  7
TXTRU
 72
1
 11
635.0
 21
285.0
 31
0.0
100
AcDbText
  0
TEXT
  5
7D
330
17
100
AcDbEntity
  8
TEXT_RU
100
AcDbText
 10
635.0
 20
272.0
 30
0.0
 40
6.3
  1
выносные станции УСО
  7
TXTRU
 72
1
 11
635.0
 21
272.0
 31
0.0
100
AcDbText
  0
TEXT
  5
7E
330
17
100
AcDbEntity
  8
TEXT_RU
100
AcDbText
 10
635.0
 20
260.0
 30
0.0
 40
6.3
  1
по отделениям и участкам
  7
TXTRU
 72
1
 11
635.0
 21
260.0
 31
0.0
100
AcDbText
  0
TEXT
  5
7F
330
17
100
AcDbEntity
  8
TEXT_RU
100
AcDbText
 10
635.0
 20
248.0
 30
0.0
 40
6.3
  1
подключение в резервированную сеть
  7
TXTRU
 72
1
 11
635.0
 21
248.0
 31
0.0
100
AcDbText
  0
TEXT
  5
80
330
17
100
AcDbEntity
  8
TEXT_RU
100
AcDbText
 10
635.0
 20
236.0
 30
0.0
 40
6.3
  1
предложение БИ — уточняется
  7
TXTRU
 72
1
 11
635.0
 21
236.0
 31
0.0
100
AcDbText
  0
LWPOLYLINE
  5
81
330
17
100
AcDbEntity
  8
DIM
100
AcDbPolyline
 90
8
 70
1
 10
777.0
 20
302.0
 10
921.0
 20
302.0
 42
0.41421356237309837
 10
928.0
 20
295.0
 10
928.0
 20
221.0
 42
0.41421356237309837
 10
921.0
 20
214.0
 10
777.0
 20
214.0
 42
0.41421356237309837
 10
770.0
 20
221.0
 10
770.0
 20
295.0
 42
0.41421356237309837
  0
TEXT
  5
82
330
17
100
AcDbEntity
  8
TEXT_RU
100
AcDbText
 10
849.0
 20
285.0
 30
0.0
 40
7.7
  1
КАБЕЛЬНЫЕ ТРАССЫ
  7
TXTRU
 72
1
 11
849.0
 21
285.0
 31
0.0
100
AcDbText
  0
TEXT
  5
83
330
17
100
AcDbEntity
  8
TEXT_RU
100
AcDbText
 10
849.0
 20
272.0
 30
0.0
 40
6.3
  1
композитные материалы,
  7
TXTRU
 72
1
 11
849.0
 21
272.0
 31
0.0
100
AcDbText
  0
TEXT
  5
84
330
17
100
AcDbEntity
  8
TEXT_RU
100
AcDbText
 10
849.0
 20
260.0
 30
0.0
 40
6.3
  1
цвет RAL 5015 · экраны
  7
TXTRU
 72
1
 11
849.0
 21
260.0
 31
0.0
100
AcDbText
  0
TEXT
  5
85
330
17
100
AcDbEntity
  8
TEXT_RU
100
AcDbText
 10
849.0
 20
248.0
 30
0.0
 40
6.3
  1
разнос от силовых цепей
  7
TXTRU
 72
1
 11
849.0
 21
248.0
 31
0.0
100
AcDbText
  0
TEXT
  5
86
330
17
100
AcDbEntity
  8
TEXT_RU
100
AcDbText
 10
849.0
 20
236.0
 30
0.0
 40
6.3
  1
ЧРП и АСУ — разные шкафы
  7
TXTRU
 72
1
 11
849.0
 21
236.0
 31
0.0
100
AcDbText
  0
LWPOLYLINE
  5
87
330
17
100
AcDbEntity
  8
DUST
100
AcDbPolyline
 90
8
 70
1
 10
42.0
 20
196.0
 10
744.0
 20
196.0
 42
0.41421356237309703
 10
750.0
 20
190.0
 10
750.0
 20
172.0
 42
0.41421356237309703
 10
744.0
 20
166.0
 10
42.0
 20
166.0
 42
0.4142135623730911
 10
36.0
 20
172.0
 10
36.0
 20
190.0
 42
0.4142135623730911
  0
TEXT
  5
88
330
17
100
AcDbEntity
  8
TEXT_RU
420
10702494
100
AcDbText
 10
393.0
 20
183.0
 30
0.0
 40
6.65
  1
ГАЛЬВАНИЧЕСКАЯ РАЗВЯЗКА КАЖДОГО КАНАЛА
  7
TXTRU
 72
1
 11
393.0
 21
183.0
 31
0.0
100
AcDbText
  0
TEXT
  5
89
330
17
100
AcDbEntity
  8
TEXT_RU
100
AcDbText
 10
393.0
 20
172.0
 30
0.0
 40
5.95
  1
модуль — на каждый аналоговый · реле — на каждый дискретный · развязка цифровых (кроме Ethernet), включая резервные
  7
TXTRU
 72
1
 11
393.0
 21
172.0
 31
0.0
100
AcDbText
  0
LINE
  5
8A
330
17
100
AcDbEntity
  8
DUST
100
AcDbLine
 10
188.0
 20
214.0
 30
0.0
 11
188.0
 21
196.0
 31
0.0
  0
LINE
  5
8B
330
17
100
AcDbEntity
  8
DUST
100
AcDbLine
 10
635.0
 20
214.0
 30
0.0
 11
635.0
 21
196.0
 31
0.0
  0
LINE
  5
8C
330
17
100
AcDbEntity
  8
DUST
100
AcDbLine
 10
200.0
 20
124.0
 30
0.0
 11
200.0
 21
162.0
 31
0.0
  0
SOLID
  5
8D
330
17
100
AcDbEntity
  8
DUST
100
AcDbTrace
 10
193.6
 20
149.2
 30
0.0
 11
200.0
 21
163.60000000000002
 31
0.0
 12
206.4
 22
149.2
 32
0.0
 13
206.4
 23
149.2
 33
0.0
  0
TEXT
  5
8E
330
17
100
AcDbEntity
  8
TEXT_RU
420
10702494
100
AcDbText
 10
206.0
 20
142.0
 30
0.0
 40
6.3
  1
4–20 мА (AI) · Modbus RTU (HART — уточняется)
  7
TXTRU
 11
206.0
 21
142.0
 31
0.0
100
AcDbText
  0
LINE
  5
8F
330
17
100
AcDbEntity
  8
DUST
100
AcDbLine
 10
455.0
 20
162.0
 30
0.0
 11
455.0
 21
124.0
 31
0.0
  0
SOLID
  5
90
330
17
100
AcDbEntity
  8
DUST
100
AcDbTrace
 10
461.4
 20
136.8
 30
0.0
 11
455.0
 21
122.39999999999998
 31
0.0
 12
448.6
 22
136.8
 32
0.0
 13
448.6
 23
136.8
 33
0.0
  0
TEXT
  5
91
330
17
100
AcDbEntity
  8
TEXT_RU
420
10702494
100
AcDbText
 10
461.0
 20
142.0
 30
0.0
 40
6.3
  1
DI/DO · управление
  7
TXTRU
 11
461.0
 21
142.0
 31
0.0
100
AcDbText
  0
LWPOLYLINE
  5
92
330
17
100
AcDbEntity
  8
LIQUID
100
AcDbPolyline
 90
8
 70
1
 10
43.0
 20
124.0
 10
289.0
 20
124.0
 42
0.4142135623730902
 10
296.0
 20
117.0
 10
296.0
 20
61.0
 42
0.41421356237309837
 10
289.0
 20
54.0
 10
43.0
 20
54.0
 42
0.41421356237310036
 10
36.0
 20
61.0
 10
36.0
 20
117.0
 42
0.41421356237309226
  0
TEXT
  5
93
330
17
100
AcDbEntity
  8
TEXT_RU
100
AcDbText
 10
166.0
 20
107.0
 30
0.0
 40
7.7
  1
ДАТЧИКИ КИП
  7
TXTRU
 72
1
 11
166.0
 21
107.0
 31
0.0
100
AcDbText
  0
TEXT
  5
94
330
17
100
AcDbEntity
  8
TEXT_RU
100
AcDbText
 10
166.0
 20
94.0
 30
0.0
 40
6.3
  1
первичные преобразователи — линейки КГМК
  7
TXTRU
 72
1
 11
166.0
 21
94.0
 31
0.0
100
AcDbText
  0
TEXT
  5
95
330
17
100
AcDbEntity
  8
TEXT_RU
100
AcDbText
 10
166.0
 20
82.0
 30
0.0
 40
6.3
  1
(согласуются с Заказчиком)
  7
TXTRU
 72
1
 11
166.0
 21
82.0
 31
0.0
100
AcDbText
  0
TEXT
  5
96
330
17
100
AcDbEntity
  8
TEXT_RU
100
AcDbText
 10
166.0
 20
70.0
 30
0.0
 40
6.3
  1
индивидуальный источник питания каждого КИП
  7
TXTRU
 72
1
 11
166.0
 21
70.0
 31
0.0
100
AcDbText
  0
LWPOLYLINE
  5
97
330
17
100
AcDbEntity
  8
LIQUID
100
AcDbPolyline
 90
8
 70
1
 10
337.0
 20
124.0
 10
573.0
 20
124.0
 42
0.41421356237309837
 10
580.0
 20
117.0
 10
580.0
 20
61.0
 42
0.4142135623731064
 10
573.0
 20
54.0
 10
337.0
 20
54.0
 42
0.41421356237309837
 10
330.0
 20
61.0
 10
330.0
 20
117.0
 42
0.4142135623730902
  0
TEXT
  5
98
330
17
100
AcDbEntity
  8
TEXT_RU
100
AcDbText
 10
455.0
 20
107.0
 30
0.0
 40
7.7
  1
ИСПОЛНИТЕЛЬНЫЕ МЕХАНИЗМЫ
  7
TXTRU
 72
1
 11
455.0
 21
107.0
 31
0.0
100
AcDbText
  0
TEXT
  5
99
330
17
100
AcDbEntity
  8
TEXT_RU
100
AcDbText
 10
455.0
 20
94.0
 30
0.0
 40
6.3
  1
элементы управления ИМ — как на КГМК
  7
TXTRU
 72
1
 11
455.0
 21
94.0
 31
0.0
100
AcDbText
  0
TEXT
  5
9A
330
17
100
AcDbEntity
  8
TEXT_RU
100
AcDbText
 10
455.0
 20
82.0
 30
0.0
 40
6.3
  1
датчики положения — беспотенциальные,
  7
TXTRU
 72
1
 11
455.0
 21
82.0
 31
0.0
100
AcDbText
  0
TEXT
  5
9B
330
17
100
AcDbEntity
  8
TEXT_RU
100
AcDbText
 10
455.0
 20
70.0
 30
0.0
 40
6.3
  1
предпочтителен индуктивный метод
  7
TXTRU
 72
1
 11
455.0
 21
70.0
 31
0.0
100
AcDbText
  0
LWPOLYLINE
  5
9C
330
17
100
AcDbEntity
  8
DIM
100
AcDbPolyline
 90
8
 70
1
 10
621.0
 20
124.0
 10
857.0
 20
124.0
 42
0.41421356237309837
 10
864.0
 20
117.0
 10
864.0
 20
61.0
 42
0.4142135623731064
 10
857.0
 20
54.0
 10
621.0
 20
54.0
 42
0.4142135623731064
 10
614.0
 20
61.0
 10
614.0
 20
117.0
 42
0.41421356237309837
  0
TEXT
  5
9D
330
17
100
AcDbEntity
  8
TEXT_RU
100
AcDbText
 10
739.0
 20
107.0
 30
0.0
 40
7.7
  1
ШКАФЫ ПНЕВМОУПРАВЛЕНИЯ
  7
TXTRU
 72
1
 11
739.0
 21
107.0
 31
0.0
100
AcDbText
  0
TEXT
  5
9E
330
17
100
AcDbEntity
  8
TEXT_RU
100
AcDbText
 10
739.0
 20
94.0
 30
0.0
 40
6.3
  1
пневмоострова, плиты горячей замены
  7
TXTRU
 72
1
 11
739.0
 21
94.0
 31
0.0
100
AcDbText
  0
TEXT
  5
9F
330
17
100
AcDbEntity
  8
TEXT_RU
100
AcDbText
 10
739.0
 20
82.0
 30
0.0
 40
6.3
  1
сдвоенные блоки подготовки воздуха с байпасом
  7
TXTRU
 72
1
 11
739.0
 21
82.0
 31
0.0
100
AcDbText
  0
TEXT
  5
A0
330
17
100
AcDbEntity
  8
TEXT_RU
100
AcDbText
 10
739.0
 20
70.0
 30
0.0
 40
6.3
  1
безопасная зона с подпором воздуха
  7
TXTRU
 72
1
 11
739.0
 21
70.0
 31
0.0
100
AcDbText
  0
LINE
  5
A1
330
17
100
AcDbEntity
  8
DIM
100
AcDbLine
 10
614.0
 20
72.0
 30
0.0
 11
584.0
 21
72.0
 31
0.0
  0
SOLID
  5
A2
330
17
100
AcDbEntity
  8
DIM
100
AcDbTrace
 10
596.8
 20
65.60000000000002
 30
0.0
 11
582.4
 21
72.0
 31
0.0
 12
596.8
 22
78.39999999999998
 32
0.0
 13
596.8
 23
78.39999999999998
 33
0.0
  0
LWPOLYLINE
  5
A3
330
17
100
AcDbEntity
  8
LIQUID
100
AcDbPolyline
 90
3
 70
0
 10
944.0
 20
398.0
 10
944.0
 20
499.0
 10
960.0
 20
499.0
  0
LWPOLYLINE
  5
A4
330
17
100
AcDbEntity
  8
LIQUID
100
AcDbPolyline
 90
3
 70
0
 10
944.0
 20
386.0
 10
944.0
 20
180.0
 10
960.0
 20
180.0
  0
LINE
  5
A5
330
17
100
AcDbEntity
  8
LIQUID
100
AcDbLine
 10
944.0
 20
290.0
 30
0.0
 11
960.0
 21
290.0
 31
0.0
  0
LWPOLYLINE
  5
A6
330
17
100
AcDbEntity
  8
ELECTRIC
  6
DASHED
100
AcDbPolyline
 90
3
 70
0
 10
944.0
 20
180.0
 10
944.0
 20
82.0
 10
960.0
 20
82.0
  0
LWPOLYLINE
  5
A7
330
17
100
AcDbEntity
  8
OUTLINE
420
828172
100
AcDbPolyline
 90
8
 70
1
 10
967.0
 20
528.0
 10
1163.0
 20
528.0
 42
0.4142135623730902
 10
1170.0
 20
521.0
 10
1170.0
 20
477.0
 42
0.4142135623730902
 10
1163.0
 20
470.0
 10
967.0
 20
470.0
 42
0.4142135623731064
 10
960.0
 20
477.0
 10
960.0
 20
521.0
 42
0.4142135623731064
  0
TEXT
  5
A8
330
17
100
AcDbEntity
  8
TEXT_RU
100
AcDbText
 10
1065.0
 20
511.0
 30
0.0
 40
7.7
  1
КОРПОРАТИВНЫЕ ИС
  7
TXTRU
 72
1
 11
1065.0
 21
511.0
 31
0.0
100
AcDbText
  0
TEXT
  5
A9
330
17
100
AcDbEntity
  8
TEXT_RU
100
AcDbText
 10
1065.0
 20
498.0
 30
0.0
 40
6.3
  1
интеграция существующих ИС
  7
TXTRU
 72
1
 11
1065.0
 21
498.0
 31
0.0
100
AcDbText
  0
TEXT
  5
AA
330
17
100
AcDbEntity
  8
TEXT_RU
100
AcDbText
 10
1065.0
 20
486.0
 30
0.0
 40
6.3
  1
стандартизированным методом
  7
TXTRU
 72
1
 11
1065.0
 21
486.0
 31
0.0
100
AcDbText
  0
TEXT
  5
AB
330
17
100
AcDbEntity
  8
TEXT_RU
420
2783446
100
AcDbText
 10
960.0
 20
340.0
 30
0.0
 40
5.95
  1
IEEE 802.3 / 802.11 (Wi-Fi) · TCP/IP
  7
TXTRU
 11
960.0
 21
340.0
 31
0.0
100
AcDbText
  0
LWPOLYLINE
  5
AC
330
17
100
AcDbEntity
  8
DIM
100
AcDbPolyline
 90
8
 70
1
 10
967.0
 20
334.0
 10
1163.0
 20
334.0
 42
0.4142135623730821
 10
1170.0
 20
327.0
 10
1170.0
 20
253.0
 42
0.4142135623730821
 10
1163.0
 20
246.0
 10
967.0
 20
246.0
 42
0.41421356237309837
 10
960.0
 20
253.0
 10
960.0
 20
327.0
 42
0.41421356237309837
  0
TEXT
  5
AD
330
17
100
AcDbEntity
  8
TEXT_RU
100
AcDbText
 10
1065.0
 20
317.0
 30
0.0
 40
7.7
  1
АИС ВЕСОИЗМЕРЕНИЯ
  7
TXTRU
 72
1
 11
1065.0
 21
317.0
 31
0.0
100
AcDbText
  0
TEXT
  5
AE
330
17
100
AcDbEntity
  8
TEXT_RU
100
AcDbText
 10
1065.0
 20
304.0
 30
0.0
 40
6.3
  1
весовые терминалы → ХТД PIMS
  7
TXTRU
 72
1
 11
1065.0
 21
304.0
 31
0.0
100
AcDbText
  0
TEXT
  5
AF
330
17
100
AcDbEntity
  8
TEXT_RU
100
AcDbText
 10
1065.0
 20
292.0
 30
0.0
 40
6.3
  1
идентификация по пропуску (СКУД)
  7
TXTRU
 72
1
 11
1065.0
 21
292.0
 31
0.0
100
AcDbText
  0
TEXT
  5
B0
330
17
100
AcDbEntity
  8
TEXT_RU
100
AcDbText
 10
1065.0
 20
280.0
 30
0.0
 40
6.3
  1
Wi-Fi точка в каждом шкафу, GSM-резерв
  7
TXTRU
 72
1
 11
1065.0
 21
280.0
 31
0.0
100
AcDbText
  0
TEXT
  5
B1
330
17
100
AcDbEntity
  8
TEXT_RU
100
AcDbText
 10
1065.0
 20
268.0
 30
0.0
 40
6.3
  1
ИБП: дв. преобразование, АВР, 20 мин
  7
TXTRU
 72
1
 11
1065.0
 21
268.0
 31
0.0
100
AcDbText
  0
TEXT
  5
B2
330
17
100
AcDbEntity
  8
TEXT_RU
420
2783446
100
AcDbText
 10
960.0
 20
228.0
 30
0.0
 40
5.95
  1
Ethernet · IP-видео (PoE)
  7
TXTRU
 11
960.0
 21
228.0
 31
0.0
100
AcDbText
  0
LWPOLYLINE
  5
B3
330
17
100
AcDbEntity
  8
DIM
100
AcDbPolyline
 90
8
 70
1
 10
967.0
 20
222.0
 10
1163.0
 20
222.0
 42
0.4142135623730821
 10
1170.0
 20
215.0
 10
1170.0
 20
145.0
 42
0.4142135623730821
 10
1163.0
 20
138.0
 10
967.0
 20
138.0
 42
0.41421356237309837
 10
960.0
 20
145.0
 10
960.0
 20
215.0
 42
0.41421356237309837
  0
TEXT
  5
B4
330
17
100
AcDbEntity
  8
TEXT_RU
100
AcDbText
 10
1065.0
 20
205.0
 30
0.0
 40
7.7
  1
СПТ · ВИДЕОНАБЛЮДЕНИЕ
  7
TXTRU
 72
1
 11
1065.0
 21
205.0
 31
0.0
100
AcDbText
  0
TEXT
  5
B5
330
17
100
AcDbEntity
  8
TEXT_RU
100
AcDbText
 10
1065.0
 20
192.0
 30
0.0
 40
6.3
  1
SCADA «Интеллект» (ITV, Москва)
  7
TXTRU
 72
1
 11
1065.0
 21
192.0
 31
0.0
100
AcDbText
  0
TEXT
  5
B6
330
17
100
AcDbEntity
  8
TEXT_RU
100
AcDbText
 10
1065.0
 20
180.0
 30
0.0
 40
6.3
  1
IP-камеры (PoE), видеорегистратор
  7
TXTRU
 72
1
 11
1065.0
 21
180.0
 31
0.0
100
AcDbText
  0
TEXT
  5
B7
330
17
100
AcDbEntity
  8
TEXT_RU
100
AcDbText
 10
1065.0
 20
168.0
 30
0.0
 40
6.3
  1
архив не менее 1,5 месяцев
  7
TXTRU
 72
1
 11
1065.0
 21
168.0
 31
0.0
100
AcDbText
  0
TEXT
  5
B8
330
17
100
AcDbEntity
  8
TEXT_RU
420
16429593
100
AcDbText
 10
960.0
 20
128.0
 30
0.0
 40
5.95
  1
Modbus TCP (вне лотов)
  7
TXTRU
 11
960.0
 21
128.0
 31
0.0
100
AcDbText
  0
LWPOLYLINE
  5
B9
330
17
100
AcDbEntity
  8
ELECTRIC
  6
DASHED
100
AcDbPolyline
 90
8
 70
1
 10
967.0
 20
122.0
 10
1163.0
 20
122.0
 42
0.4142135623730821
 10
1170.0
 20
115.0
 10
1170.0
 20
49.0
 42
0.4142135623730902
 10
1163.0
 20
42.0
 10
967.0
 20
42.0
 42
0.4142135623731064
 10
960.0
 20
49.0
 10
960.0
 20
115.0
 42
0.41421356237309837
  0
TEXT
  5
BA
330
17
100
AcDbEntity
  8
TEXT_RU
100
AcDbText
 10
1065.0
 20
105.0
 30
0.0
 40
7.7
  1
ВЫПРЯМИТЕЛЬНЫЕ АГРЕГАТЫ
  7
TXTRU
 72
1
 11
1065.0
 21
105.0
 31
0.0
100
AcDbText
  0
TEXT
  5
BB
330
17
100
AcDbEntity
  8
TEXT_RU
100
AcDbText
 10
1065.0
 20
92.0
 30
0.0
 40
6.3
  1
смежная поставка — вне лотов
  7
TXTRU
 72
1
 11
1065.0
 21
92.0
 31
0.0
100
AcDbText
  0
TEXT
  5
BC
330
17
100
AcDbEntity
  8
TEXT_RU
100
AcDbText
 10
1065.0
 20
80.0
 30
0.0
 40
6.3
  1
задание и телеметрия по Modbus TCP
  7
TXTRU
 72
1
 11
1065.0
 21
80.0
 31
0.0
100
AcDbText
  0
TEXT
  5
BD
330
17
100
AcDbEntity
  8
TEXT_RU
100
AcDbText
 10
1065.0
 20
68.0
 30
0.0
 40
6.3
  1
Лот №3: 3 × 47 кА / 227(250) В
  7
TXTRU
 72
1
 11
1065.0
 21
68.0
 31
0.0
100
AcDbText
  0
ENDSEC
  0
SECTION
  2
OBJECTS
  0
DICTIONARY
  5
A
330
0
100
AcDbDictionary
281
1
  3
ACAD_COLOR
350
B
  3
ACAD_GROUP
350
C
  3
ACAD_LAYOUT
350
D
  3
ACAD_MATERIAL
350
E
  3
ACAD_MLEADERSTYLE
350
F
  3
ACAD_MLINESTYLE
350
10
  3
ACAD_PLOTSETTINGS
350
11
  3
ACAD_PLOTSTYLENAME
350
12
  3
ACAD_SCALELIST
350
14
  3
ACAD_TABLESTYLE
350
15
  3
ACAD_VISUALSTYLE
350
16
  3
EZDXF_META
350
2D
  0
DICTIONARY
  5
B
330
A
100
AcDbDictionary
281
1
  0
DICTIONARY
  5
C
330
A
100
AcDbDictionary
281
1
  0
DICTIONARY
  5
D
330
A
100
AcDbDictionary
281
1
  3
Model
350
1A
  3
Layout1
350
1E
  0
DICTIONARY
  5
E
330
A
100
AcDbDictionary
281
1
  3
ByBlock
350
1F
  3
ByLayer
350
20
  3
Global
350
21
  0
DICTIONARY
  5
F
330
A
100
AcDbDictionary
281
1
  3
Standard
350
2C
  0
DICTIONARY
  5
10
330
A
100
AcDbDictionary
281
1
  3
Standard
350
22
  0
DICTIONARY
  5
11
330
A
100
AcDbDictionary
281
1
  0
ACDBDICTIONARYWDFLT
  5
12
330
A
100
AcDbDictionary
281
1
  3
Normal
350
13
100
AcDbDictionaryWithDefault
340
13
  0
ACDBPLACEHOLDER
  5
13
330
12
  0
DICTIONARY
  5
14
330
A
100
AcDbDictionary
281
1
  0
DICTIONARY
  5
15
330
A
100
AcDbDictionary
281
1
  0
DICTIONARY
  5
16
330
A
100
AcDbDictionary
281
1
  0
LAYOUT
  5
1A
330
D
100
AcDbPlotSettings
  1

  4
A3
  6

 40
7.5
 41
20.0
 42
7.5
 43
20.0
 44
420.0
 45
297.0
 46
0.0
 47
0.0
 48
0.0
 49
0.0
140
0.0
141
0.0
142
1.0
143
1.0
 70
1024
 72
1
 73
0
 74
5
  7

 75
16
 76
0
 77
2
 78
300
147
1.0
148
0.0
149
0.0
100
AcDbLayout
  1
Model
 70
1
 71
0
 10
0.0
 20
0.0
 11
1190.0
 21
620.0
 12
0.0
 22
0.0
 32
0.0
 14
-0.01
 24
-0.01
 34
0.0
 15
1190.0
 25
620.0
 35
0.0
146
0.0
 13
0.0
 23
0.0
 33
0.0
 16
1.0
 26
0.0
 36
0.0
 17
0.0
 27
1.0
 37
0.0
 76
1
330
17
  0
LAYOUT
  5
1E
330
D
100
AcDbPlotSettings
  1

  4
A3
  6

 40
7.5
 41
20.0
 42
7.5
 43
20.0
 44
420.0
 45
297.0
 46
0.0
 47
0.0
 48
0.0
 49
0.0
140
0.0
141
0.0
142
1.0
143
1.0
 70
0
 72
1
 73
0
 74
5
  7

 75
16
 76
0
 77
2
 78
300
147
1.0
148
0.0
149
0.0
100
AcDbLayout
  1
Layout1
 70
1
 71
1
 10
0.0
 20
0.0
 11
420.0
 21
297.0
 12
0.0
 22
0.0
 32
0.0
 14
1e+20
 24
1e+20
 34
1e+20
 15
-1e+20
 25
-1e+20
 35
-1e+20
146
0.0
 13
0.0
 23
0.0
 33
0.0
 16
1.0
 26
0.0
 36
0.0
 17
0.0
 27
1.0
 37
0.0
 76
1
330
1B
  0
MATERIAL
  5
1F
102
{ACAD_REACTORS
330
E
102
}
330
E
100
AcDbMaterial
  1
ByBlock
  2

 70
0
 40
1.0
 71
1
 41
1.0
 91
-1023410177
 42
1.0
 72
1
  3

 73
1
 74
1
 75
1
 44
0.5
 73
0
 45
1.0
 46
1.0
 77
1
  4

 78
1
 79
1
170
1
 48
1.0
171
1
  6

172
1
173
1
174
1
140
1.0
141
1.0
175
1
  7

176
1
177
1
178
1
143
1.0
179
1
  8

270
1
271
1
272
1
145
1.0
146
1.0
273
1
  9

274
1
275
1
276
1
 42
1.0
 72
1
  3

 73
1
 74
1
 75
1
 94
63
  0
MATERIAL
  5
20
102
{ACAD_REACTORS
330
E
102
}
330
E
100
AcDbMaterial
  1
ByLayer
  2

 70
0
 40
1.0
 71
1
 41
1.0
 91
-1023410177
 42
1.0
 72
1
  3

 73
1
 74
1
 75
1
 44
0.5
 73
0
 45
1.0
 46
1.0
 77
1
  4

 78
1
 79
1
170
1
 48
1.0
171
1
  6

172
1
173
1
174
1
140
1.0
141
1.0
175
1
  7

176
1
177
1
178
1
143
1.0
179
1
  8

270
1
271
1
272
1
145
1.0
146
1.0
273
1
  9

274
1
275
1
276
1
 42
1.0
 72
1
  3

 73
1
 74
1
 75
1
 94
63
  0
MATERIAL
  5
21
102
{ACAD_REACTORS
330
E
102
}
330
E
100
AcDbMaterial
  1
Global
  2

 70
0
 40
1.0
 71
1
 41
1.0
 91
-1023410177
 42
1.0
 72
1
  3

 73
1
 74
1
 75
1
 44
0.5
 73
0
 45
1.0
 46
1.0
 77
1
  4

 78
1
 79
1
170
1
 48
1.0
171
1
  6

172
1
173
1
174
1
140
1.0
141
1.0
175
1
  7

176
1
177
1
178
1
143
1.0
179
1
  8

270
1
271
1
272
1
145
1.0
146
1.0
273
1
  9

274
1
275
1
276
1
 42
1.0
 72
1
  3

 73
1
 74
1
 75
1
 94
63
  0
MLINESTYLE
  5
22
102
{ACAD_REACTORS
330
10
102
}
330
10
100
AcDbMlineStyle
  2
Standard
 70
0
  3

 62
256
 51
90.0
 52
90.0
 71
2
 49
0.5
 62
256
  6
BYLAYER
 49
-0.5
 62
256
  6
BYLAYER
  0
MLEADERSTYLE
  5
2C
102
{ACAD_REACTORS
330
F
102
}
330
F
100
AcDbMLeaderStyle
179
2
170
2
171
1
172
0
 90
2
 40
0.0
 41
0.0
173
1
 91
-1056964608
 92
-2
290
1
 42
2.0
291
1
 43
8.0
  3
Standard
 44
4.0
300

342
29
174
1
175
1
176
0
178
1
 93
-1056964608
 45
4.0
292
0
297
0
 46
4.0
 94
-1056964608
 47
1.0
 49
1.0
140
1.0
294
1
141
0.0
177
0
142
1.0
295
0
296
0
143
3.75
271
0
272
9
273
9
  0
DICTIONARY
  5
2D
330
A
100
AcDbDictionary
280
1
281
1
  3
CREATED_BY_EZDXF
350
2E
  3
WRITTEN_BY_EZDXF
350
C0
  0
DICTIONARYVAR
  5
2E
330
2D
100
DictionaryVariables
280
0
  1
1.4.4 @ 2026-08-28T02:58:57.813880+00:00
  0
DICTIONARYVAR
  5
C0
330
2D
100
DictionaryVariables
280
0
  1
1.4.4 @ 2026-08-28T02:58:57.825468+00:00
  0
ENDSEC
  0
EOF
