  0
SECTION
  2
HEADER
  9
$ACADVER
  1
AC1024
  9
$ACADMAINTVER
 70
6
  9
$DWGCODEPAGE
  3
ANSI_1252
  9
$LASTSAVEDBY
  1
ezdxf
  9
$INSBASE
 10
0.0
 20
0.0
 30
0.0
  9
$EXTMIN
 10
-0.01
 20
-0.01
 30
0.0
  9
$EXTMAX
 10
1190.0
 20
590.0
 30
0.0
  9
$LIMMIN
 10
0.0
 20
0.0
  9
$LIMMAX
 10
1190.0
 20
590.0
  9
$ORTHOMODE
 70
0
  9
$REGENMODE
 70
1
  9
$FILLMODE
 70
1
  9
$QTEXTMODE
 70
0
  9
$MIRRTEXT
 70
1
  9
$LTSCALE
 40
1.0
  9
$ATTMODE
 70
1
  9
$TEXTSIZE
 40
2.5
  9
$TRACEWID
 40
1.0
  9
$TEXTSTYLE
  7
Standard
  9
$CLAYER
  8
0
  9
$CELTYPE
  6
ByLayer
  9
$CECOLOR
 62
256
  9
$CELTSCALE
 40
1.0
  9
$DISPSILH
 70
0
  9
$DIMSCALE
 40
1.0
  9
$DIMASZ
 40
2.5
  9
$DIMEXO
 40
0.625
  9
$DIMDLI
 40
3.75
  9
$DIMRND
 40
0.0
  9
$DIMDLE
 40
0.0
  9
$DIMEXE
 40
1.25
  9
$DIMTP
 40
0.0
  9
$DIMTM
 40
0.0
  9
$DIMTXT
 40
2.5
  9
$DIMCEN
 40
2.5
  9
$DIMTSZ
 40
0.0
  9
$DIMTOL
 70
0
  9
$DIMLIM
 70
0
  9
$DIMTIH
 70
0
  9
$DIMTOH
 70
0
  9
$DIMSE1
 70
0
  9
$DIMSE2
 70
0
  9
$DIMTAD
 70
1
  9
$DIMZIN
 70
8
  9
$DIMBLK
  1

  9
$DIMASO
 70
1
  9
$DIMSHO
 70
1
  9
$DIMPOST
  1

  9
$DIMAPOST
  1

  9
$DIMALT
 70
0
  9
$DIMALTD
 70
3
  9
$DIMALTF
 40
0.03937007874
  9
$DIMLFAC
 40
1.0
  9
$DIMTOFL
 70
1
  9
$DIMTVP
 40
0.0
  9
$DIMTIX
 70
0
  9
$DIMSOXD
 70
0
  9
$DIMSAH
 70
0
  9
$DIMBLK1
  1

  9
$DIMBLK2
  1

  9
$DIMSTYLE
  2
ISO-25
  9
$DIMCLRD
 70
0
  9
$DIMCLRE
 70
0
  9
$DIMCLRT
 70
0
  9
$DIMTFAC
 40
1.0
  9
$DIMGAP
 40
0.625
  9
$DIMJUST
 70
0
  9
$DIMSD1
 70
0
  9
$DIMSD2
 70
0
  9
$DIMTOLJ
 70
0
  9
$DIMTZIN
 70
8
  9
$DIMALTZ
 70
0
  9
$DIMALTTZ
 70
0
  9
$DIMUPT
 70
0
  9
$DIMDEC
 70
2
  9
$DIMTDEC
 70
2
  9
$DIMALTU
 70
2
  9
$DIMALTTD
 70
3
  9
$DIMTXSTY
  7
Standard
  9
$DIMAUNIT
 70
0
  9
$DIMADEC
 70
0
  9
$DIMALTRND
 40
0.0
  9
$DIMAZIN
 70
0
  9
$DIMDSEP
 70
44
  9
$DIMATFIT
 70
3
  9
$DIMFRAC
 70
0
  9
$DIMLDRBLK
  1

  9
$DIMLUNIT
 70
2
  9
$DIMLWD
 70
-2
  9
$DIMLWE
 70
-2
  9
$DIMTMOVE
 70
0
  9
$DIMFXL
 40
1.0
  9
$DIMFXLON
 70
0
  9
$DIMJOGANG
 40
0.785398163397
  9
$DIMTFILL
 70
0
  9
$DIMTFILLCLR
 70
0
  9
$DIMARCSYM
 70
0
  9
$DIMLTYPE
  6

  9
$DIMLTEX1
  6

  9
$DIMLTEX2
  6

  9
$DIMTXTDIRECTION
 70
0
  9
$LUNITS
 70
2
  9
$LUPREC
 70
4
  9
$SKETCHINC
 40
1.0
  9
$FILLETRAD
 40
10.0
  9
$AUNITS
 70
0
  9
$AUPREC
 70
2
  9
$MENU
  1
.
  9
$ELEVATION
 40
0.0
  9
$PELEVATION
 40
0.0
  9
$THICKNESS
 40
0.0
  9
$LIMCHECK
 70
0
  9
$CHAMFERA
 40
0.0
  9
$CHAMFERB
 40
0.0
  9
$CHAMFERC
 40
0.0
  9
$CHAMFERD
 40
0.0
  9
$SKPOLY
 70
0
  9
$TDCREATE
 40
2461281.1242824076
  9
$TDUCREATE
 40
2458532.153996898
  9
$TDUPDATE
 40
2461281.1242824076
  9
$TDUUPDATE
 40
2458532.1544311
  9
$TDINDWG
 40
0.0
  9
$TDUSRTIMER
 40
0.0
  9
$USRTIMER
 70
1
  9
$ANGBASE
 50
0.0
  9
$ANGDIR
 70
0
  9
$PDMODE
 70
0
  9
$PDSIZE
 40
0.0
  9
$PLINEWID
 40
0.0
  9
$SPLFRAME
 70
0
  9
$SPLINETYPE
 70
6
  9
$SPLINESEGS
 70
8
  9
$HANDSEED
  5
A6
  9
$SURFTAB1
 70
6
  9
$SURFTAB2
 70
6
  9
$SURFTYPE
 70
6
  9
$SURFU
 70
6
  9
$SURFV
 70
6
  9
$UCSBASE
  2

  9
$UCSNAME
  2

  9
$UCSORG
 10
0.0
 20
0.0
 30
0.0
  9
$UCSXDIR
 10
1.0
 20
0.0
 30
0.0
  9
$UCSYDIR
 10
0.0
 20
1.0
 30
0.0
  9
$UCSORTHOREF
  2

  9
$UCSORTHOVIEW
 70
0
  9
$UCSORGTOP
 10
0.0
 20
0.0
 30
0.0
  9
$UCSORGBOTTOM
 10
0.0
 20
0.0
 30
0.0
  9
$UCSORGLEFT
 10
0.0
 20
0.0
 30
0.0
  9
$UCSORGRIGHT
 10
0.0
 20
0.0
 30
0.0
  9
$UCSORGFRONT
 10
0.0
 20
0.0
 30
0.0
  9
$UCSORGBACK
 10
0.0
 20
0.0
 30
0.0
  9
$PUCSBASE
  2

  9
$PUCSNAME
  2

  9
$PUCSORG
 10
0.0
 20
0.0
 30
0.0
  9
$PUCSXDIR
 10
1.0
 20
0.0
 30
0.0
  9
$PUCSYDIR
 10
0.0
 20
1.0
 30
0.0
  9
$PUCSORTHOREF
  2

  9
$PUCSORTHOVIEW
 70
0
  9
$PUCSORGTOP
 10
0.0
 20
0.0
 30
0.0
  9
$PUCSORGBOTTOM
 10
0.0
 20
0.0
 30
0.0
  9
$PUCSORGLEFT
 10
0.0
 20
0.0
 30
0.0
  9
$PUCSORGRIGHT
 10
0.0
 20
0.0
 30
0.0
  9
$PUCSORGFRONT
 10
0.0
 20
0.0
 30
0.0
  9
$PUCSORGBACK
 10
0.0
 20
0.0
 30
0.0
  9
$USERI1
 70
0
  9
$USERI2
 70
0
  9
$USERI3
 70
0
  9
$USERI4
 70
0
  9
$USERI5
 70
0
  9
$USERR1
 40
0.0
  9
$USERR2
 40
0.0
  9
$USERR3
 40
0.0
  9
$USERR4
 40
0.0
  9
$USERR5
 40
0.0
  9
$WORLDVIEW
 70
1
  9
$SHADEDGE
 70
3
  9
$SHADEDIF
 70
70
  9
$TILEMODE
 70
1
  9
$MAXACTVP
 70
64
  9
$PINSBASE
 10
0.0
 20
0.0
 30
0.0
  9
$PLIMCHECK
 70
0
  9
$PEXTMIN
 10
1e+20
 20
1e+20
 30
1e+20
  9
$PEXTMAX
 10
-1e+20
 20
-1e+20
 30
-1e+20
  9
$PLIMMIN
 10
0.0
 20
0.0
  9
$PLIMMAX
 10
420.0
 20
297.0
  9
$UNITMODE
 70
0
  9
$VISRETAIN
 70
1
  9
$PLINEGEN
 70
0
  9
$PSLTSCALE
 70
1
  9
$TREEDEPTH
 70
3020
  9
$CMLSTYLE
  2
Standard
  9
$CMLJUST
 70
0
  9
$CMLSCALE
 40
20.0
  9
$PROXYGRAPHICS
 70
1
  9
$MEASUREMENT
 70
1
  9
$CELWEIGHT
370
-1
  9
$ENDCAPS
280
0
  9
$JOINSTYLE
280
0
  9
$LWDISPLAY
290
0
  9
$INSUNITS
 70
4
  9
$HYPERLINKBASE
  1

  9
$STYLESHEET
  1

  9
$XEDIT
290
1
  9
$CEPSNTYPE
380
0
  9
$PSTYLEMODE
290
1
  9
$FINGERPRINTGUID
  2
{00D5119C-E1C9-4E58-A179-5171F5580C9B}
  9
$VERSIONGUID
  2
{FF967497-1A99-4B48-858C-3AF2DE4F6B59}
  9
$EXTNAMES
290
1
  9
$PSVPSCALE
 40
0.0
  9
$OLESTARTUP
290
0
  9
$SORTENTS
280
127
  9
$INDEXCTL
280
0
  9
$HIDETEXT
280
1
  9
$XCLIPFRAME
280
1
  9
$HALOGAP
280
0
  9
$OBSCOLOR
 70
257
  9
$OBSLTYPE
280
0
  9
$INTERSECTIONDISPLAY
280
0
  9
$INTERSECTIONCOLOR
 70
257
  9
$DIMASSOC
280
2
  9
$PROJECTNAME
  1

  9
$CAMERADISPLAY
290
0
  9
$LENSLENGTH
 40
50.0
  9
$CAMERAHEIGHT
 40
0.0
  9
$STEPSPERSEC
 40
24.0
  9
$STEPSIZE
 40
100.0
  9
$3DDWFPREC
 40
2.0
  9
$PSOLWIDTH
 40
0.005
  9
$PSOLHEIGHT
 40
0.08
  9
$LOFTANG1
 40
1.570796326795
  9
$LOFTANG2
 40
1.570796326795
  9
$LOFTMAG1
 40
0.0
  9
$LOFTMAG2
 40
0.0
  9
$LOFTPARAM
 70
7
  9
$LOFTNORMALS
280
1
  9
$LATITUDE
 40
37.795
  9
$LONGITUDE
 40
-122.394
  9
$NORTHDIRECTION
 40
0.0
  9
$TIMEZONE
 70
-8000
  9
$LIGHTGLYPHDISPLAY
280
1
  9
$TILEMODELIGHTSYNCH
280
1
  9
$CMATERIAL
347
20
  9
$SOLIDHIST
280
0
  9
$SHOWHIST
280
1
  9
$DWFFRAME
280
2
  9
$DGNFRAME
280
2
  9
$REALWORLDSCALE
290
1
  9
$INTERFERECOLOR
 62
256
  9
$CSHADOW
280
0
  9
$SHADOWPLANELOCATION
 40
0.0
  0
ENDSEC
  0
SECTION
  2
CLASSES
  0
CLASS
  1
ACDBDICTIONARYWDFLT
  2
AcDbDictionaryWithDefault
  3
ObjectDBX Classes
 90
0
 91
0
280
0
281
0
  0
CLASS
  1
SUN
  2
AcDbSun
  3
SCENEOE
 90
1153
 91
0
280
0
281
0
  0
CLASS
  1
VISUALSTYLE
  2
AcDbVisualStyle
  3
ObjectDBX Classes
 90
4095
 91
0
280
0
281
0
  0
CLASS
  1
MATERIAL
  2
AcDbMaterial
  3
ObjectDBX Classes
 90
1153
 91
0
280
0
281
0
  0
CLASS
  1
SCALE
  2
AcDbScale
  3
ObjectDBX Classes
 90
1153
 91
0
280
0
281
0
  0
CLASS
  1
TABLESTYLE
  2
AcDbTableStyle
  3
ObjectDBX Classes
 90
4095
 91
0
280
0
281
0
  0
CLASS
  1
MLEADERSTYLE
  2
AcDbMLeaderStyle
  3
ACDB_MLEADERSTYLE_CLASS
 90
4095
 91
0
280
0
281
0
  0
CLASS
  1
DICTIONARYVAR
  2
AcDbDictionaryVar
  3
ObjectDBX Classes
 90
0
 91
0
280
0
281
0
  0
CLASS
  1
CELLSTYLEMAP
  2
AcDbCellStyleMap
  3
ObjectDBX Classes
 90
1152
 91
0
280
0
281
0
  0
CLASS
  1
MENTALRAYRENDERSETTINGS
  2
AcDbMentalRayRenderSettings
  3
SCENEOE
 90
1024
 91
0
280
0
281
0
  0
CLASS
  1
ACDBDETAILVIEWSTYLE
  2
AcDbDetailViewStyle
  3
ObjectDBX Classes
 90
1025
 91
0
280
0
281
0
  0
CLASS
  1
ACDBSECTIONVIEWSTYLE
  2
AcDbSectionViewStyle
  3
ObjectDBX Classes
 90
1025
 91
0
280
0
281
0
  0
CLASS
  1
RASTERVARIABLES
  2
AcDbRasterVariables
  3
ISM
 90
0
 91
0
280
0
281
0
  0
CLASS
  1
LAYOUT
  2
AcDbLayout
  3
ObjectDBX Classes
 90
0
 91
0
280
0
281
0
  0
CLASS
  1
ACDBPLACEHOLDER
  2
AcDbPlaceHolder
  3
ObjectDBX Classes
 90
0
 91
0
280
0
281
0
  0
ENDSEC
  0
SECTION
  2
TABLES
  0
TABLE
  2
VPORT
  5
8
330
0
100
AcDbSymbolTable
 70
1
  0
VPORT
  5
23
330
8
100
AcDbSymbolTableRecord
100
AcDbViewportTableRecord
  2
*Active
 70
0
 10
0.0
 20
0.0
 11
1.0
 21
1.0
 12
0.0
 22
0.0
 13
0.0
 23
0.0
 14
0.5
 24
0.5
 15
0.5
 25
0.5
 16
0.0
 26
0.0
 36
1.0
 17
0.0
 27
0.0
 37
0.0
 40
1000.0
 41
1.34
 42
50.0
 43
0.0
 44
0.0
 50
0.0
 51
0.0
 71
0
 72
1000
 73
1
 74
3
 75
0
 76
0
 77
0
 78
0
281
0
 65
0
146
0.0
  0
ENDTAB
  0
TABLE
  2
LTYPE
  5
2
330
0
100
AcDbSymbolTable
 70
5
  0
LTYPE
  5
24
330
2
100
AcDbSymbolTableRecord
100
AcDbLinetypeTableRecord
  2
ByBlock
 70
0
  3

 72
65
 73
0
 40
0.0
  0
LTYPE
  5
25
330
2
100
AcDbSymbolTableRecord
100
AcDbLinetypeTableRecord
  2
ByLayer
 70
0
  3

 72
65
 73
0
 40
0.0
  0
LTYPE
  5
26
330
2
100
AcDbSymbolTableRecord
100
AcDbLinetypeTableRecord
  2
Continuous
 70
0
  3

 72
65
 73
0
 40
0.0
  0
LTYPE
  5
2F
330
2
100
AcDbSymbolTableRecord
100
AcDbLinetypeTableRecord
  2
DASHED
 70
0
  3
Штриховая — — — —
 72
65
 73
2
 40
9.0
 49
6.0
 74
0
 49
-3.0
 74
0
  0
LTYPE
  5
30
330
2
100
AcDbSymbolTableRecord
100
AcDbLinetypeTableRecord
  2
DASHDOT
 70
0
  3
Штрихпунктирная — · — · —
 72
65
 73
4
 40
14.0
 49
8.0
 74
0
 49
-3.0
 74
0
 49
0.0
 74
0
 49
-3.0
 74
0
  0
ENDTAB
  0
TABLE
  2
LAYER
  5
1
330
0
100
AcDbSymbolTable
 70
10
  0
LAYER
  5
27
330
1
100
AcDbSymbolTableRecord
100
AcDbLayerTableRecord
  2
0
 70
0
 62
7
  6
Continuous
370
-3
390
13
347
21
  0
LAYER
  5
28
330
1
100
AcDbSymbolTableRecord
100
AcDbLayerTableRecord
  2
Defpoints
 70
0
 62
7
  6
Continuous
290
0
370
-3
390
13
347
21
  0
LAYER
  5
32
330
1
100
AcDbSymbolTableRecord
100
AcDbLayerTableRecord
  2
GAS
 70
0
 62
30
420
14712622
  6
Continuous
370
35
390
13
347
21
1001
AcAecLayerStandard
1000

1000
Газовый тракт (оранжевый)
  0
LAYER
  5
34
330
1
100
AcDbSymbolTableRecord
100
AcDbLayerTableRecord
  2
LIQUID
 70
0
 62
5
420
2783446
  6
Continuous
370
35
390
13
347
21
1001
AcAecLayerStandard
1000

1000
Жидкостные потоки: кислота, растворы, вода (синий)
  0
LAYER
  5
35
330
1
100
AcDbSymbolTableRecord
100
AcDbLayerTableRecord
  2
DUST
 70
0
 62
6
420
10702494
  6
Continuous
370
35
390
13
347
21
1001
AcAecLayerStandard
1000

1000
Пылевой тракт: циклоны, фильтры (фиолетовый)
  0
LAYER
  5
36
330
1
100
AcDbSymbolTableRecord
100
AcDbLayerTableRecord
  2
ELECTRIC
 70
0
 62
2
420
16429593
  6
Continuous
370
30
390
13
347
21
1001
AcAecLayerStandard
1000

1000
Электрика / энергоснабжение (жёлтый)
  0
LAYER
  5
37
330
1
100
AcDbSymbolTableRecord
100
AcDbLayerTableRecord
  2
INTERLOCK
 70
0
 62
1
420
13646651
  6
Continuous
370
30
390
13
347
21
1001
AcAecLayerStandard
1000

1000
Блокировки и защиты (красный)
  0
LAYER
  5
38
330
1
100
AcDbSymbolTableRecord
100
AcDbLayerTableRecord
  2
OUTLINE
 70
0
 62
7
  6
Continuous
370
25
390
13
347
21
1001
AcAecLayerStandard
1000

1000
Контуры оборудования, строительная графика (ink)
  0
LAYER
  5
39
330
1
100
AcDbSymbolTableRecord
100
AcDbLayerTableRecord
  2
TEXT_RU
 70
0
 62
7
  6
Continuous
370
25
390
13
347
21
1001
AcAecLayerStandard
1000

1000
Надписи (русские, UTF-8)
  0
LAYER
  5
3A
330
1
100
AcDbSymbolTableRecord
100
AcDbLayerTableRecord
  2
DIM
 70
0
 62
8
  6
Continuous
370
13
390
13
347
21
1001
AcAecLayerStandard
1000

1000
Размерные и вспомогательные линии, рамка, сетка
  0
ENDTAB
  0
TABLE
  2
STYLE
  5
5
330
0
100
AcDbSymbolTable
 70
2
  0
STYLE
  5
29
330
5
100
AcDbSymbolTableRecord
100
AcDbTextStyleTableRecord
  2
Standard
 70
0
 40
0.0
 41
1.0
 50
0.0
 71
0
 42
2.5
  3
txt
  4

  0
STYLE
  5
31
330
5
100
AcDbSymbolTableRecord
100
AcDbTextStyleTableRecord
  2
TXTRU
 70
0
 40
0.0
 41
1.0
 50
0.0
 71
0
 42
2.5
  3
arial.ttf
  4

  0
ENDTAB
  0
TABLE
  2
VIEW
  5
7
330
0
100
AcDbSymbolTable
 70
0
  0
ENDTAB
  0
TABLE
  2
UCS
  5
6
330
0
100
AcDbSymbolTable
 70
0
  0
ENDTAB
  0
TABLE
  2
APPID
  5
3
330
0
100
AcDbSymbolTable
 70
4
  0
APPID
  5
2A
330
3
100
AcDbSymbolTableRecord
100
AcDbRegAppTableRecord
  2
ACAD
 70
0
  0
APPID
  5
33
330
3
100
AcDbSymbolTableRecord
100
AcDbRegAppTableRecord
  2
AcAecLayerStandard
 70
0
  0
APPID
  5
A3
330
3
100
AcDbSymbolTableRecord
100
AcDbRegAppTableRecord
  2
HATCHBACKGROUNDCOLOR
 70
0
  0
APPID
  5
A4
330
3
100
AcDbSymbolTableRecord
100
AcDbRegAppTableRecord
  2
EZDXF
 70
0
  0
ENDTAB
  0
TABLE
  2
DIMSTYLE
  5
4
330
0
100
AcDbSymbolTable
 70
1
100
AcDbDimStyleTable
  0
DIMSTYLE
105
2B
330
4
100
AcDbSymbolTableRecord
100
AcDbDimStyleTableRecord
  2
Standard
 70
0
 40
1.0
 41
2.5
 42
0.625
 43
3.75
 44
1.25
 45
0.0
 46
0.0
 47
0.0
 48
0.0
 49
2.5
140
2.5
141
2.5
142
0.0
143
0.03937007874
144
1.0
145
0.0
146
1.0
147
0.625
148
0.0
 69
0
 70
0
 71
0
 72
0
 73
0
 74
0
 75
0
 76
0
 77
1
 78
8
 79
3
170
0
171
3
172
1
173
0
174
0
175
0
176
0
177
0
178
0
179
2
271
2
272
2
273
2
274
3
275
0
276
0
277
2
278
44
279
0
280
0
281
0
282
0
283
0
284
8
285
0
286
0
288
0
289
3
290
0
371
-2
372
-2
  0
ENDTAB
  0
TABLE
  2
BLOCK_RECORD
  5
9
330
0
100
AcDbSymbolTable
 70
2
  0
BLOCK_RECORD
  5
17
330
9
100
AcDbSymbolTableRecord
100
AcDbBlockTableRecord
  2
*Model_Space
340
1A
 70
0
280
1
281
0
  0
BLOCK_RECORD
  5
1B
330
9
100
AcDbSymbolTableRecord
100
AcDbBlockTableRecord
  2
*Paper_Space
340
1E
 70
0
280
1
281
0
  0
ENDTAB
  0
ENDSEC
  0
SECTION
  2
BLOCKS
  0
BLOCK
  5
18
330
17
100
AcDbEntity
  8
0
100
AcDbBlockBegin
  2
*Model_Space
 70
0
 10
0.0
 20
0.0
 30
0.0
  3
*Model_Space
  1

  0
ENDBLK
  5
19
330
17
100
AcDbEntity
  8
0
100
AcDbBlockEnd
  0
BLOCK
  5
1C
330
1B
100
AcDbEntity
  8
0
100
AcDbBlockBegin
  2
*Paper_Space
 70
0
 10
0.0
 20
0.0
 30
0.0
  3
*Paper_Space
  1

  0
ENDBLK
  5
1D
330
1B
100
AcDbEntity
  8
0
100
AcDbBlockEnd
  0
ENDSEC
  0
SECTION
  2
ENTITIES
  0
LWPOLYLINE
  5
3B
330
17
100
AcDbEntity
  8
DIM
420
15198183
100
AcDbPolyline
 90
4
 70
1
 10
6.0
 20
584.0
 10
1184.0
 20
584.0
 10
1184.0
 20
6.0
 10
6.0
 20
6.0
  0
TEXT
  5
3C
330
17
100
AcDbEntity
  8
TEXT_RU
100
AcDbText
 10
20.0
 20
14.0
 30
0.0
 40
7.0
  1
ЭСКИЗ — не для строительства · однолинейная схема-интерфейс электроснабжения отделения ЭЭ (Лот №3) · источники: bi_lot3.json; calc.json (L3-NB, EL-TOTAL); automation.json · КВАНТ, черновик БИ
  7
TXTRU
 11
20.0
 21
14.0
 31
0.0
100
AcDbText
  0
TEXT
  5
3D
330
17
100
AcDbEntity
  8
TEXT_RU
100
AcDbText
 10
1174.0
 20
560.0
 30
0.0
 40
8.4
  1
ОДНОЛИНЕЙНАЯ СХЕМА · ЛОТ №3 — ЭЛЕКТРОСНАБЖЕНИЕ ОТДЕЛЕНИЯ ЭЭ
  7
TXTRU
 72
2
 11
1174.0
 21
560.0
 31
0.0
100
AcDbText
  0
LWPOLYLINE
  5
3E
330
17
100
AcDbEntity
  8
ELECTRIC
  6
DASHED
100
AcDbPolyline
 90
8
 70
1
 10
47.0
 20
544.0
 10
363.0
 20
544.0
 42
0.41421356237309837
 10
370.0
 20
537.0
 10
370.0
 20
475.0
 42
0.4142135623730902
 10
363.0
 20
468.0
 10
47.0
 20
468.0
 42
0.41421356237309226
 10
40.0
 20
475.0
 10
40.0
 20
537.0
 42
0.41421356237310036
  0
TEXT
  5
3F
330
17
100
AcDbEntity
  8
TEXT_RU
100
AcDbText
 10
205.0
 20
527.0
 30
0.0
 40
8.05
  1
СЕТИ ВНЕШНЕГО ЭЛ.СНАБЖЕНИЯ · ГПП
  7
TXTRU
 72
1
 11
205.0
 21
527.0
 31
0.0
100
AcDbText
  0
TEXT
  5
40
330
17
100
AcDbEntity
  8
TEXT_RU
100
AcDbText
 10
205.0
 20
513.0
 30
0.0
 40
6.65
  1
схема и номиналы ГПП в ИД не заданы — обобщённо
  7
TXTRU
 72
1
 11
205.0
 21
513.0
 31
0.0
100
AcDbText
  0
TEXT
  5
41
330
17
100
AcDbEntity
  8
TEXT_RU
100
AcDbText
 10
205.0
 20
501.0
 30
0.0
 40
6.65
  1
ТУ на присоединение (граница 5.2.7) —
  7
TXTRU
 72
1
 11
205.0
 21
501.0
 31
0.0
100
AcDbText
  0
TEXT
  5
42
330
17
100
AcDbEntity
  8
TEXT_RU
100
AcDbText
 10
205.0
 20
489.0
 30
0.0
 40
6.65
  1
запрашиваются по расчёту нагрузок БИ
  7
TXTRU
 72
1
 11
205.0
 21
489.0
 31
0.0
100
AcDbText
  0
TEXT
  5
43
330
17
100
AcDbEntity
  8
TEXT_RU
100
AcDbText
 10
205.0
 20
474.0
 30
0.0
 40
5.95
  1
вне лота / интерфейс
  7
TXTRU
 72
1
 11
205.0
 21
474.0
 31
0.0
100
AcDbText
  0
LWPOLYLINE
  5
44
330
17
100
AcDbEntity
  8
ELECTRIC
  6
DASHED
100
AcDbPolyline
 90
8
 70
1
 10
437.0
 20
544.0
 10
813.0
 20
544.0
 42
0.4142135623731064
 10
820.0
 20
537.0
 10
820.0
 20
475.0
 42
0.41421356237309837
 10
813.0
 20
468.0
 10
437.0
 20
468.0
 42
0.4142135623730902
 10
430.0
 20
475.0
 10
430.0
 20
537.0
 42
0.41421356237309837
  0
TEXT
  5
45
330
17
100
AcDbEntity
  8
TEXT_RU
100
AcDbText
 10
625.0
 20
527.0
 30
0.0
 40
8.05
  1
РУ · ПРЕОБРАЗОВАТЕЛЬНАЯ ПОДСТАНЦИЯ
  7
TXTRU
 72
1
 11
625.0
 21
527.0
 31
0.0
100
AcDbText
  0
TEXT
  5
46
330
17
100
AcDbEntity
  8
TEXT_RU
100
AcDbText
 10
625.0
 20
513.0
 30
0.0
 40
6.65
  1
нагрузка комплекса: ср. ≈17,3 МВт / уст. ≈21 МВт (EL-TOTAL)
  7
TXTRU
 72
1
 11
625.0
 21
513.0
 31
0.0
100
AcDbText
  0
TEXT
  5
47
330
17
100
AcDbEntity
  8
TEXT_RU
100
AcDbText
 10
625.0
 20
501.0
 30
0.0
 40
6.65
  1
Лот №3 (ЭЭ) — доминанта: ср. 16,07 МВт
  7
TXTRU
 72
1
 11
625.0
 21
501.0
 31
0.0
100
AcDbText
  0
TEXT
  5
48
330
17
100
AcDbEntity
  8
TEXT_RU
100
AcDbText
 10
625.0
 20
489.0
 30
0.0
 40
6.65
  1
I категория (ПУЭ 1.2.17–21); перерыв ≤ 2 ч — пассивация анодов
  7
TXTRU
 72
1
 11
625.0
 21
489.0
 31
0.0
100
AcDbText
  0
TEXT
  5
49
330
17
100
AcDbEntity
  8
TEXT_RU
100
AcDbText
 10
625.0
 20
474.0
 30
0.0
 40
5.95
  1
вне лота / интерфейс
  7
TXTRU
 72
1
 11
625.0
 21
474.0
 31
0.0
100
AcDbText
  0
LINE
  5
4A
330
17
100
AcDbEntity
  8
ELECTRIC
  6
DASHED
100
AcDbLine
 10
370.0
 20
506.0
 30
0.0
 11
430.0
 21
506.0
 31
0.0
  0
SOLID
  5
4B
330
17
100
AcDbEntity
  8
ELECTRIC
100
AcDbTrace
 10
416.4
 20
512.8
 30
0.0
 11
431.7
 21
506.0
 31
0.0
 12
416.4
 22
499.2
 32
0.0
 13
416.4
 23
499.2
 33
0.0
  0
LINE
  5
4C
330
17
100
AcDbEntity
  8
ELECTRIC
  6
DASHED
100
AcDbLine
 10
625.0
 20
468.0
 30
0.0
 11
625.0
 21
454.0
 31
0.0
  0
LINE
  5
4D
330
17
100
AcDbEntity
  8
ELECTRIC
  6
DASHED
100
AcDbLine
 10
245.0
 20
454.0
 30
0.0
 11
945.0
 21
454.0
 31
0.0
  0
LINE
  5
4E
330
17
100
AcDbEntity
  8
ELECTRIC
  6
DASHED
100
AcDbLine
 10
245.0
 20
454.0
 30
0.0
 11
245.0
 21
440.0
 31
0.0
  0
SOLID
  5
4F
330
17
100
AcDbEntity
  8
ELECTRIC
100
AcDbTrace
 10
251.0
 20
452.0
 30
0.0
 11
245.0
 21
438.5
 31
0.0
 12
239.0
 22
452.0
 32
0.0
 13
239.0
 23
452.0
 33
0.0
  0
LINE
  5
50
330
17
100
AcDbEntity
  8
ELECTRIC
  6
DASHED
100
AcDbLine
 10
595.0
 20
454.0
 30
0.0
 11
595.0
 21
440.0
 31
0.0
  0
SOLID
  5
51
330
17
100
AcDbEntity
  8
ELECTRIC
100
AcDbTrace
 10
601.0
 20
452.0
 30
0.0
 11
595.0
 21
438.5
 31
0.0
 12
589.0
 22
452.0
 32
0.0
 13
589.0
 23
452.0
 33
0.0
  0
LINE
  5
52
330
17
100
AcDbEntity
  8
ELECTRIC
  6
DASHED
100
AcDbLine
 10
945.0
 20
454.0
 30
0.0
 11
945.0
 21
440.0
 31
0.0
  0
SOLID
  5
53
330
17
100
AcDbEntity
  8
ELECTRIC
100
AcDbTrace
 10
951.0
 20
452.0
 30
0.0
 11
945.0
 21
438.5
 31
0.0
 12
939.0
 22
452.0
 32
0.0
 13
939.0
 23
452.0
 33
0.0
  0
LWPOLYLINE
  5
54
330
17
100
AcDbEntity
  8
ELECTRIC
  6
DASHED
100
AcDbPolyline
 90
8
 70
1
 10
127.0
 20
440.0
 10
363.0
 20
440.0
 42
0.41421356237309837
 10
370.0
 20
433.0
 10
370.0
 20
379.0
 42
0.41421356237309837
 10
363.0
 20
372.0
 10
127.0
 20
372.0
 42
0.41421356237310036
 10
120.0
 20
379.0
 10
120.0
 20
433.0
 42
0.41421356237310036
  0
TEXT
  5
55
330
17
100
AcDbEntity
  8
TEXT_RU
100
AcDbText
 10
245.0
 20
423.0
 30
0.0
 40
8.05
  1
ВА-1 · ВЫПРЯМИТЕЛЬ СЕРИИ 1
  7
TXTRU
 72
1
 11
245.0
 21
423.0
 31
0.0
100
AcDbText
  0
TEXT
  5
56
330
17
100
AcDbEntity
  8
TEXT_RU
100
AcDbText
 10
245.0
 20
409.0
 30
0.0
 40
6.65
  1
47,0 кА; 227 В ном / 250 В макс
  7
TXTRU
 72
1
 11
245.0
 21
409.0
 31
0.0
100
AcDbText
  0
TEXT
  5
57
330
17
100
AcDbEntity
  8
TEXT_RU
100
AcDbText
 10
245.0
 20
397.0
 30
0.0
 40
6.65
  1
задание на стыке — от БИ Лота №3
  7
TXTRU
 72
1
 11
245.0
 21
397.0
 31
0.0
100
AcDbText
  0
TEXT
  5
58
330
17
100
AcDbEntity
  8
TEXT_RU
100
AcDbText
 10
245.0
 20
378.0
 30
0.0
 40
5.95
  1
вне лота / интерфейс
  7
TXTRU
 72
1
 11
245.0
 21
378.0
 31
0.0
100
AcDbText
  0
LWPOLYLINE
  5
59
330
17
100
AcDbEntity
  8
ELECTRIC
  6
DASHED
100
AcDbPolyline
 90
8
 70
1
 10
477.0
 20
440.0
 10
713.0
 20
440.0
 42
0.4142135623731064
 10
720.0
 20
433.0
 10
720.0
 20
379.0
 42
0.4142135623731064
 10
713.0
 20
372.0
 10
477.0
 20
372.0
 42
0.41421356237309837
 10
470.0
 20
379.0
 10
470.0
 20
433.0
 42
0.41421356237309837
  0
TEXT
  5
5A
330
17
100
AcDbEntity
  8
TEXT_RU
100
AcDbText
 10
595.0
 20
423.0
 30
0.0
 40
8.05
  1
ВА-Р · РЕЗЕРВНЫЙ АГРЕГАТ
  7
TXTRU
 72
1
 11
595.0
 21
423.0
 31
0.0
100
AcDbText
  0
TEXT
  5
5B
330
17
100
AcDbEntity
  8
TEXT_RU
100
AcDbText
 10
595.0
 20
409.0
 30
0.0
 40
6.65
  1
47,0 кА; 227 В ном / 250 В макс
  7
TXTRU
 72
1
 11
595.0
 21
409.0
 31
0.0
100
AcDbText
  0
TEXT
  5
5C
330
17
100
AcDbEntity
  8
TEXT_RU
100
AcDbText
 10
595.0
 20
397.0
 30
0.0
 40
6.65
  1
перекрёстная ошиновка — на любую серию
  7
TXTRU
 72
1
 11
595.0
 21
397.0
 31
0.0
100
AcDbText
  0
TEXT
  5
5D
330
17
100
AcDbEntity
  8
TEXT_RU
100
AcDbText
 10
595.0
 20
378.0
 30
0.0
 40
5.95
  1
вне лота / интерфейс
  7
TXTRU
 72
1
 11
595.0
 21
378.0
 31
0.0
100
AcDbText
  0
LWPOLYLINE
  5
5E
330
17
100
AcDbEntity
  8
ELECTRIC
  6
DASHED
100
AcDbPolyline
 90
8
 70
1
 10
827.0
 20
440.0
 10
1063.0
 20
440.0
 42
0.4142135623730902
 10
1070.0
 20
433.0
 10
1070.0
 20
379.0
 42
0.4142135623730902
 10
1063.0
 20
372.0
 10
827.0
 20
372.0
 42
0.4142135623731064
 10
820.0
 20
379.0
 10
820.0
 20
433.0
 42
0.4142135623731064
  0
TEXT
  5
5F
330
17
100
AcDbEntity
  8
TEXT_RU
100
AcDbText
 10
945.0
 20
423.0
 30
0.0
 40
8.05
  1
ВА-2 · ВЫПРЯМИТЕЛЬ СЕРИИ 2
  7
TXTRU
 72
1
 11
945.0
 21
423.0
 31
0.0
100
AcDbText
  0
TEXT
  5
60
330
17
100
AcDbEntity
  8
TEXT_RU
100
AcDbText
 10
945.0
 20
409.0
 30
0.0
 40
6.65
  1
47,0 кА; 227 В ном / 250 В макс
  7
TXTRU
 72
1
 11
945.0
 21
409.0
 31
0.0
100
AcDbText
  0
TEXT
  5
61
330
17
100
AcDbEntity
  8
TEXT_RU
100
AcDbText
 10
945.0
 20
397.0
 30
0.0
 40
6.65
  1
задание на стыке — от БИ Лота №3
  7
TXTRU
 72
1
 11
945.0
 21
397.0
 31
0.0
100
AcDbText
  0
TEXT
  5
62
330
17
100
AcDbEntity
  8
TEXT_RU
100
AcDbText
 10
945.0
 20
378.0
 30
0.0
 40
5.95
  1
вне лота / интерфейс
  7
TXTRU
 72
1
 11
945.0
 21
378.0
 31
0.0
100
AcDbText
  0
LINE
  5
63
330
17
100
AcDbEntity
  8
ELECTRIC
  6
DASHED
100
AcDbLine
 10
245.0
 20
372.0
 30
0.0
 11
245.0
 21
254.0
 31
0.0
  0
SOLID
  5
64
330
17
100
AcDbEntity
  8
ELECTRIC
100
AcDbTrace
 10
253.8
 20
271.6
 30
0.0
 11
245.0
 21
251.8
 31
0.0
 12
236.2
 22
271.6
 32
0.0
 13
236.2
 23
271.6
 33
0.0
  0
LINE
  5
65
330
17
100
AcDbEntity
  8
ELECTRIC
  6
DASHED
100
AcDbLine
 10
945.0
 20
372.0
 30
0.0
 11
945.0
 21
254.0
 31
0.0
  0
SOLID
  5
66
330
17
100
AcDbEntity
  8
ELECTRIC
100
AcDbTrace
 10
953.8
 20
271.6
 30
0.0
 11
945.0
 21
251.8
 31
0.0
 12
936.2
 22
271.6
 32
0.0
 13
936.2
 23
271.6
 33
0.0
  0
LWPOLYLINE
  5
67
330
17
100
AcDbEntity
  8
ELECTRIC
  6
DASHED
100
AcDbPolyline
 90
3
 70
0
 10
560.0
 20
372.0
 10
560.0
 20
338.0
 10
245.0
 20
338.0
  0
SOLID
  5
68
330
17
100
AcDbEntity
  8
ELECTRIC
100
AcDbTrace
 10
256.2
 20
332.4
 30
0.0
 11
243.6
 21
338.0
 31
0.0
 12
256.2
 22
343.6
 32
0.0
 13
256.2
 23
343.6
 33
0.0
  0
LWPOLYLINE
  5
69
330
17
100
AcDbEntity
  8
ELECTRIC
  6
DASHED
100
AcDbPolyline
 90
3
 70
0
 10
630.0
 20
372.0
 10
630.0
 20
338.0
 10
945.0
 20
338.0
  0
SOLID
  5
6A
330
17
100
AcDbEntity
  8
ELECTRIC
100
AcDbTrace
 10
933.8
 20
343.6
 30
0.0
 11
946.4
 21
338.0
 31
0.0
 12
933.8
 22
332.4
 32
0.0
 13
933.8
 23
332.4
 33
0.0
  0
TEXT
  5
6B
330
17
100
AcDbEntity
  8
TEXT_RU
420
16429593
100
AcDbText
 10
595.0
 20
324.0
 30
0.0
 40
6.16
  1
резерв — на любую серию (перекрёстная ошиновка; вне лота)
  7
TXTRU
 72
1
 11
595.0
 21
324.0
 31
0.0
100
AcDbText
  0
TEXT
  5
6C
330
17
100
AcDbEntity
  8
TEXT_RU
100
AcDbText
 10
252.0
 20
310.0
 30
0.0
 40
6.16
  1
магистральные шины —
  7
TXTRU
 11
252.0
 21
310.0
 31
0.0
100
AcDbText
  0
TEXT
  5
6D
330
17
100
AcDbEntity
  8
TEXT_RU
100
AcDbText
 10
252.0
 20
299.0
 30
0.0
 40
6.16
  1
вне лота / интерфейс
  7
TXTRU
 11
252.0
 21
299.0
 31
0.0
100
AcDbText
  0
TEXT
  5
6E
330
17
100
AcDbEntity
  8
TEXT_RU
100
AcDbText
 10
952.0
 20
310.0
 30
0.0
 40
6.16
  1
магистральные шины —
  7
TXTRU
 11
952.0
 21
310.0
 31
0.0
100
AcDbText
  0
TEXT
  5
6F
330
17
100
AcDbEntity
  8
TEXT_RU
100
AcDbText
 10
952.0
 20
299.0
 30
0.0
 40
6.16
  1
вне лота / интерфейс
  7
TXTRU
 11
952.0
 21
299.0
 31
0.0
100
AcDbText
  0
TEXT
  5
70
330
17
100
AcDbEntity
  8
TEXT_RU
100
AcDbText
 10
595.0
 20
292.0
 30
0.0
 40
5.95
  1
размещение ВА — у торца корпуса ЭЭ 36 × 190 м (сценарий Б, блок L3-NB): короткие магистральные шины
  7
TXTRU
 72
1
 11
595.0
 21
292.0
 31
0.0
100
AcDbText
  0
LINE
  5
71
330
17
100
AcDbEntity
  8
OUTLINE
  6
DASHED
420
828172
100
AcDbLine
 10
20.0
 20
272.0
 30
0.0
 11
1132.0
 21
272.0
 31
0.0
  0
TEXT
  5
72
330
17
100
AcDbEntity
  8
TEXT_RU
420
828172
100
AcDbText
 10
24.0
 20
279.0
 30
0.0
 40
7.0
  1
ГРАНИЦА ПОСТАВКИ ЛОТА №3 — контактные площадки концевых сборных шин первой/последней ванны серии
  7
TXTRU
 11
24.0
 21
279.0
 31
0.0
100
AcDbText
  0
TEXT
  5
73
330
17
100
AcDbEntity
  8
TEXT_RU
100
AcDbText
 10
1126.0
 20
279.0
 30
0.0
 40
5.95
  1
выше — пунктир: вне лота / интерфейс · ниже — сплошное: поставка лота
  7
TXTRU
 72
2
 11
1126.0
 21
279.0
 31
0.0
100
AcDbText
  0
LWPOLYLINE
  5
74
330
17
100
AcDbEntity
  8
ELECTRIC
100
AcDbPolyline
 90
8
 70
1
 10
67.0
 20
254.0
 10
453.0
 20
254.0
 42
0.4142135623730902
 10
460.0
 20
247.0
 10
460.0
 20
165.0
 42
0.4142135623730902
 10
453.0
 20
158.0
 10
67.0
 20
158.0
 42
0.41421356237309226
 10
60.0
 20
165.0
 10
60.0
 20
247.0
 42
0.41421356237309226
  0
TEXT
  5
75
330
17
100
AcDbEntity
  8
TEXT_RU
100
AcDbText
 10
260.0
 20
237.0
 30
0.0
 40
8.05
  1
СЕРИЯ 1 — 90 ВАНН ПОСЛЕДОВАТЕЛЬНО
  7
TXTRU
 72
1
 11
260.0
 21
237.0
 31
0.0
100
AcDbText
  0
TEXT
  5
76
330
17
100
AcDbEntity
  8
TEXT_RU
100
AcDbText
 10
260.0
 20
223.0
 30
0.0
 40
6.65
  1
U ванны 2,05 В ном / 2,5 В макс
  7
TXTRU
 72
1
 11
260.0
 21
223.0
 31
0.0
100
AcDbText
  0
TEXT
  5
77
330
17
100
AcDbEntity
  8
TEXT_RU
100
AcDbText
 10
260.0
 20
211.0
 30
0.0
 40
6.65
  1
U серии 190 В ном / макс ≈225 В
  7
TXTRU
 72
1
 11
260.0
 21
211.0
 31
0.0
100
AcDbText
  0
TEXT
  5
78
330
17
100
AcDbEntity
  8
TEXT_RU
100
AcDbText
 10
260.0
 20
199.0
 30
0.0
 40
6.65
  1
I: 42,45 кА эксп. · 47,04 кА ном (280 А/м²)
  7
TXTRU
 72
1
 11
260.0
 21
199.0
 31
0.0
100
AcDbText
  0
TEXT
  5
79
330
17
100
AcDbEntity
  8
TEXT_RU
100
AcDbText
 10
260.0
 20
187.0
 30
0.0
 40
6.65
  1
P ≈8,06 МВт · 84 катода в ванне, шаг 95 мм
  7
TXTRU
 72
1
 11
260.0
 21
187.0
 31
0.0
100
AcDbText
  0
LWPOLYLINE
  5
7A
330
17
100
AcDbEntity
  8
ELECTRIC
100
AcDbPolyline
 90
8
 70
1
 10
487.0
 20
254.0
 10
693.0
 20
254.0
 42
0.41421356237309837
 10
700.0
 20
247.0
 10
700.0
 20
165.0
 42
0.41421356237309837
 10
693.0
 20
158.0
 10
487.0
 20
158.0
 42
0.4142135623730902
 10
480.0
 20
165.0
 10
480.0
 20
247.0
 42
0.4142135623730902
  0
TEXT
  5
7B
330
17
100
AcDbEntity
  8
TEXT_RU
100
AcDbText
 10
590.0
 20
237.0
 30
0.0
 40
8.05
  1
ОШИНОВКА СЕРИЙ
  7
TXTRU
 72
1
 11
590.0
 21
237.0
 31
0.0
100
AcDbText
  0
TEXT
  5
7C
330
17
100
AcDbEntity
  8
TEXT_RU
100
AcDbText
 10
590.0
 20
223.0
 30
0.0
 40
6.65
  1
межванновая: 0,06 В/ванну
  7
TXTRU
 72
1
 11
590.0
 21
223.0
 31
0.0
100
AcDbText
  0
TEXT
  5
7D
330
17
100
AcDbEntity
  8
TEXT_RU
100
AcDbText
 10
590.0
 20
211.0
 30
0.0
 40
6.65
  1
шины в межванновом зазоре 85 мм
  7
TXTRU
 72
1
 11
590.0
 21
211.0
 31
0.0
100
AcDbText
  0
TEXT
  5
7E
330
17
100
AcDbEntity
  8
TEXT_RU
100
AcDbText
 10
590.0
 20
199.0
 30
0.0
 40
6.65
  1
шунтирование: закорач. рама 8,7 т
  7
TXTRU
 72
1
 11
590.0
 21
199.0
 31
0.0
100
AcDbText
  0
TEXT
  5
7F
330
17
100
AcDbEntity
  8
TEXT_RU
100
AcDbText
 10
590.0
 20
187.0
 30
0.0
 40
6.65
  1
16,1 МВт · 1940 кВт·ч/т на шинах
  7
TXTRU
 72
1
 11
590.0
 21
187.0
 31
0.0
100
AcDbText
  0
LWPOLYLINE
  5
80
330
17
100
AcDbEntity
  8
ELECTRIC
100
AcDbPolyline
 90
8
 70
1
 10
727.0
 20
254.0
 10
1103.0
 20
254.0
 42
0.4142135623730821
 10
1110.0
 20
247.0
 10
1110.0
 20
165.0
 42
0.4142135623730821
 10
1103.0
 20
158.0
 10
727.0
 20
158.0
 42
0.41421356237309837
 10
720.0
 20
165.0
 10
720.0
 20
247.0
 42
0.41421356237309837
  0
TEXT
  5
81
330
17
100
AcDbEntity
  8
TEXT_RU
100
AcDbText
 10
915.0
 20
237.0
 30
0.0
 40
8.05
  1
СЕРИЯ 2 — 90 ВАНН ПОСЛЕДОВАТЕЛЬНО
  7
TXTRU
 72
1
 11
915.0
 21
237.0
 31
0.0
100
AcDbText
  0
TEXT
  5
82
330
17
100
AcDbEntity
  8
TEXT_RU
100
AcDbText
 10
915.0
 20
223.0
 30
0.0
 40
6.65
  1
U ванны 2,05 В ном / 2,5 В макс
  7
TXTRU
 72
1
 11
915.0
 21
223.0
 31
0.0
100
AcDbText
  0
TEXT
  5
83
330
17
100
AcDbEntity
  8
TEXT_RU
100
AcDbText
 10
915.0
 20
211.0
 30
0.0
 40
6.65
  1
U серии 190 В ном / макс ≈225 В
  7
TXTRU
 72
1
 11
915.0
 21
211.0
 31
0.0
100
AcDbText
  0
TEXT
  5
84
330
17
100
AcDbEntity
  8
TEXT_RU
100
AcDbText
 10
915.0
 20
199.0
 30
0.0
 40
6.65
  1
I: 42,45 кА эксп. · 47,04 кА ном (280 А/м²)
  7
TXTRU
 72
1
 11
915.0
 21
199.0
 31
0.0
100
AcDbText
  0
TEXT
  5
85
330
17
100
AcDbEntity
  8
TEXT_RU
100
AcDbText
 10
915.0
 20
187.0
 30
0.0
 40
6.65
  1
P ≈8,06 МВт · 84 катода в ванне, шаг 95 мм
  7
TXTRU
 72
1
 11
915.0
 21
187.0
 31
0.0
100
AcDbText
  0
LINE
  5
86
330
17
100
AcDbEntity
  8
ELECTRIC
100
AcDbLine
 10
460.0
 20
206.0
 30
0.0
 11
480.0
 21
206.0
 31
0.0
  0
LINE
  5
87
330
17
100
AcDbEntity
  8
ELECTRIC
100
AcDbLine
 10
700.0
 20
206.0
 30
0.0
 11
720.0
 21
206.0
 31
0.0
  0
LWPOLYLINE
  5
88
330
17
100
AcDbEntity
  8
INTERLOCK
100
AcDbPolyline
 90
8
 70
1
 10
47.0
 20
114.0
 10
383.0
 20
114.0
 42
0.4142135623730902
 10
390.0
 20
107.0
 10
390.0
 20
49.0
 42
0.41421356237309837
 10
383.0
 20
42.0
 10
47.0
 20
42.0
 42
0.41421356237310036
 10
40.0
 20
49.0
 10
40.0
 20
107.0
 42
0.41421356237309226
  0
TEXT
  5
89
330
17
100
AcDbEntity
  8
TEXT_RU
100
AcDbText
 10
215.0
 20
97.0
 30
0.0
 40
8.05
  1
ИЗОЛИРУЮЩИЕ СТЫКИ И ЭЛ. РАЗРЫВЫ
  7
TXTRU
 72
1
 11
215.0
 21
97.0
 31
0.0
100
AcDbText
  0
TEXT
  5
8A
330
17
100
AcDbEntity
  8
TEXT_RU
100
AcDbText
 10
215.0
 20
83.0
 30
0.0
 40
6.65
  1
разрыв на подаче/приёме растворов каждой ванны
  7
TXTRU
 72
1
 11
215.0
 21
83.0
 31
0.0
100
AcDbText
  0
TEXT
  5
8B
330
17
100
AcDbEntity
  8
TEXT_RU
100
AcDbText
 10
215.0
 20
71.0
 30
0.0
 40
6.65
  1
и на коллекторах серий (ПУЭ 7.10; ИД п. 4.2.2)
  7
TXTRU
 72
1
 11
215.0
 21
71.0
 31
0.0
100
AcDbText
  0
TEXT
  5
8C
330
17
100
AcDbEntity
  8
TEXT_RU
100
AcDbText
 10
215.0
 20
59.0
 30
0.0
 40
6.65
  1
изоляция ванн от конструкций; контроль изоляции
  7
TXTRU
 72
1
 11
215.0
 21
59.0
 31
0.0
100
AcDbText
  0
LWPOLYLINE
  5
8D
330
17
100
AcDbEntity
  8
LIQUID
100
AcDbPolyline
 90
8
 70
1
 10
427.0
 20
114.0
 10
753.0
 20
114.0
 42
0.41421356237309837
 10
760.0
 20
107.0
 10
760.0
 20
49.0
 42
0.4142135623731064
 10
753.0
 20
42.0
 10
427.0
 20
42.0
 42
0.41421356237309837
 10
420.0
 20
49.0
 10
420.0
 20
107.0
 42
0.4142135623730902
  0
TEXT
  5
8E
330
17
100
AcDbEntity
  8
TEXT_RU
100
AcDbText
 10
590.0
 20
97.0
 30
0.0
 40
8.05
  1
МОНИТОРИНГ U ПО ВАННАМ (в лоте)
  7
TXTRU
 72
1
 11
590.0
 21
97.0
 31
0.0
100
AcDbText
  0
TEXT
  5
8F
330
17
100
AcDbEntity
  8
TEXT_RU
100
AcDbText
 10
590.0
 20
83.0
 30
0.0
 40
6.65
  1
90 точек на серию — мВ-измерения на шинах
  7
TXTRU
 72
1
 11
590.0
 21
83.0
 31
0.0
100
AcDbText
  0
TEXT
  5
90
330
17
100
AcDbEntity
  8
TEXT_RU
100
AcDbText
 10
590.0
 20
71.0
 30
0.0
 40
6.65
  1
U менее 1,8 В — КЗ: карта КЗ, задание крану/ИК
  7
TXTRU
 72
1
 11
590.0
 21
71.0
 31
0.0
100
AcDbText
  0
TEXT
  5
91
330
17
100
AcDbEntity
  8
TEXT_RU
100
AcDbText
 10
590.0
 20
59.0
 30
0.0
 40
6.65
  1
U более 2,5 В — деградация контактов/анодов
  7
TXTRU
 72
1
 11
590.0
 21
59.0
 31
0.0
100
AcDbText
  0
LWPOLYLINE
  5
92
330
17
100
AcDbEntity
  8
LIQUID
100
AcDbPolyline
 90
8
 70
1
 10
807.0
 20
114.0
 10
1133.0
 20
114.0
 42
0.4142135623730821
 10
1140.0
 20
107.0
 10
1140.0
 20
49.0
 42
0.4142135623730902
 10
1133.0
 20
42.0
 10
807.0
 20
42.0
 42
0.4142135623731064
 10
800.0
 20
49.0
 10
800.0
 20
107.0
 42
0.41421356237309837
  0
TEXT
  5
93
330
17
100
AcDbEntity
  8
TEXT_RU
100
AcDbText
 10
970.0
 20
97.0
 30
0.0
 40
8.05
  1
АСУ ОТДЕЛЕНИЯ (Лот №3)
  7
TXTRU
 72
1
 11
970.0
 21
97.0
 31
0.0
100
AcDbText
  0
TEXT
  5
94
330
17
100
AcDbEntity
  8
TEXT_RU
100
AcDbText
 10
970.0
 20
83.0
 30
0.0
 40
6.65
  1
питание I категории: 230 В 50 Гц, стабилизированное
  7
TXTRU
 72
1
 11
970.0
 21
83.0
 31
0.0
100
AcDbText
  0
TEXT
  5
95
330
17
100
AcDbEntity
  8
TEXT_RU
100
AcDbText
 10
970.0
 20
71.0
 30
0.0
 40
6.65
  1
серверы — I особая: ИБП двойного преобр. ≥ 10 мин
  7
TXTRU
 72
1
 11
970.0
 21
71.0
 31
0.0
100
AcDbText
  0
TEXT
  5
96
330
17
100
AcDbEntity
  8
TEXT_RU
100
AcDbText
 10
970.0
 20
59.0
 30
0.0
 40
6.65
  1
байпас ИБП, АВР, SNMP; средний уровень 24 VDC
  7
TXTRU
 72
1
 11
970.0
 21
59.0
 31
0.0
100
AcDbText
  0
LINE
  5
97
330
17
100
AcDbEntity
  8
INTERLOCK
100
AcDbLine
 10
150.0
 20
158.0
 30
0.0
 11
150.0
 21
114.0
 31
0.0
  0
SOLID
  5
98
330
17
100
AcDbEntity
  8
INTERLOCK
100
AcDbTrace
 10
155.6
 20
125.19999999999999
 30
0.0
 11
150.0
 21
112.60000000000002
 31
0.0
 12
144.4
 22
125.19999999999999
 32
0.0
 13
144.4
 23
125.19999999999999
 33
0.0
  0
LWPOLYLINE
  5
99
330
17
100
AcDbEntity
  8
LIQUID
100
AcDbPolyline
 90
4
 70
0
 10
380.0
 20
158.0
 10
380.0
 20
136.0
 10
540.0
 20
136.0
 10
540.0
 20
114.0
  0
SOLID
  5
9A
330
17
100
AcDbEntity
  8
LIQUID
100
AcDbTrace
 10
545.6
 20
125.19999999999999
 30
0.0
 11
540.0
 21
112.60000000000002
 31
0.0
 12
534.4
 22
125.19999999999999
 32
0.0
 13
534.4
 23
125.19999999999999
 33
0.0
  0
LWPOLYLINE
  5
9B
330
17
100
AcDbEntity
  8
LIQUID
100
AcDbPolyline
 90
4
 70
0
 10
880.0
 20
158.0
 10
880.0
 20
136.0
 10
640.0
 20
136.0
 10
640.0
 20
114.0
  0
SOLID
  5
9C
330
17
100
AcDbEntity
  8
LIQUID
100
AcDbTrace
 10
645.6
 20
125.19999999999999
 30
0.0
 11
640.0
 21
112.60000000000002
 31
0.0
 12
634.4
 22
125.19999999999999
 32
0.0
 13
634.4
 23
125.19999999999999
 33
0.0
  0
TEXT
  5
9D
330
17
100
AcDbEntity
  8
TEXT_RU
420
2783446
100
AcDbText
 10
457.0
 20
140.0
 30
0.0
 40
6.16
  1
U ванн (мВ)
  7
TXTRU
 72
1
 11
457.0
 21
140.0
 31
0.0
100
AcDbText
  0
LINE
  5
9E
330
17
100
AcDbEntity
  8
LIQUID
100
AcDbLine
 10
760.0
 20
78.0
 30
0.0
 11
800.0
 21
78.0
 31
0.0
  0
SOLID
  5
9F
330
17
100
AcDbEntity
  8
LIQUID
100
AcDbTrace
 10
784.0
 20
86.0
 30
0.0
 11
802.0
 21
78.0
 31
0.0
 12
784.0
 22
70.0
 32
0.0
 13
784.0
 23
70.0
 33
0.0
  0
LWPOLYLINE
  5
A0
330
17
100
AcDbEntity
  8
LIQUID
  6
DASHED
100
AcDbPolyline
 90
4
 70
0
 10
1140.0
 20
85.0
 10
1158.0
 20
85.0
 10
1158.0
 20
406.0
 10
1070.0
 20
406.0
  0
SOLID
  5
A1
330
17
100
AcDbEntity
  8
LIQUID
100
AcDbTrace
 10
1082.8
 20
399.6
 30
0.0
 11
1068.4
 21
406.0
 31
0.0
 12
1082.8
 22
412.4
 32
0.0
 13
1082.8
 23
412.4
 33
0.0
  0
TEXT
  5
A2
330
17
100
AcDbEntity
  8
TEXT_RU
420
2783446
100
AcDbText
 10
1147.0
 20
232.0
 30
0.0
 40
6.16
  1
Modbus TCP (JIC-08): задание/телеметрия · I ≤ 47,0 кА · U серии ≤ 225 В
 50
90.0
  7
TXTRU
 72
1
 11
1147.0
 21
232.0
 31
0.0
100
AcDbText
  0
ENDSEC
  0
SECTION
  2
OBJECTS
  0
DICTIONARY
  5
A
330
0
100
AcDbDictionary
281
1
  3
ACAD_COLOR
350
B
  3
ACAD_GROUP
350
C
  3
ACAD_LAYOUT
350
D
  3
ACAD_MATERIAL
350
E
  3
ACAD_MLEADERSTYLE
350
F
  3
ACAD_MLINESTYLE
350
10
  3
ACAD_PLOTSETTINGS
350
11
  3
ACAD_PLOTSTYLENAME
350
12
  3
ACAD_SCALELIST
350
14
  3
ACAD_TABLESTYLE
350
15
  3
ACAD_VISUALSTYLE
350
16
  3
EZDXF_META
350
2D
  0
DICTIONARY
  5
B
330
A
100
AcDbDictionary
281
1
  0
DICTIONARY
  5
C
330
A
100
AcDbDictionary
281
1
  0
DICTIONARY
  5
D
330
A
100
AcDbDictionary
281
1
  3
Model
350
1A
  3
Layout1
350
1E
  0
DICTIONARY
  5
E
330
A
100
AcDbDictionary
281
1
  3
ByBlock
350
1F
  3
ByLayer
350
20
  3
Global
350
21
  0
DICTIONARY
  5
F
330
A
100
AcDbDictionary
281
1
  3
Standard
350
2C
  0
DICTIONARY
  5
10
330
A
100
AcDbDictionary
281
1
  3
Standard
350
22
  0
DICTIONARY
  5
11
330
A
100
AcDbDictionary
281
1
  0
ACDBDICTIONARYWDFLT
  5
12
330
A
100
AcDbDictionary
281
1
  3
Normal
350
13
100
AcDbDictionaryWithDefault
340
13
  0
ACDBPLACEHOLDER
  5
13
330
12
  0
DICTIONARY
  5
14
330
A
100
AcDbDictionary
281
1
  0
DICTIONARY
  5
15
330
A
100
AcDbDictionary
281
1
  0
DICTIONARY
  5
16
330
A
100
AcDbDictionary
281
1
  0
LAYOUT
  5
1A
330
D
100
AcDbPlotSettings
  1

  4
A3
  6

 40
7.5
 41
20.0
 42
7.5
 43
20.0
 44
420.0
 45
297.0
 46
0.0
 47
0.0
 48
0.0
 49
0.0
140
0.0
141
0.0
142
1.0
143
1.0
 70
1024
 72
1
 73
0
 74
5
  7

 75
16
 76
0
 77
2
 78
300
147
1.0
148
0.0
149
0.0
100
AcDbLayout
  1
Model
 70
1
 71
0
 10
0.0
 20
0.0
 11
1190.0
 21
590.0
 12
0.0
 22
0.0
 32
0.0
 14
-0.01
 24
-0.01
 34
0.0
 15
1190.0
 25
590.0
 35
0.0
146
0.0
 13
0.0
 23
0.0
 33
0.0
 16
1.0
 26
0.0
 36
0.0
 17
0.0
 27
1.0
 37
0.0
 76
1
330
17
  0
LAYOUT
  5
1E
330
D
100
AcDbPlotSettings
  1

  4
A3
  6

 40
7.5
 41
20.0
 42
7.5
 43
20.0
 44
420.0
 45
297.0
 46
0.0
 47
0.0
 48
0.0
 49
0.0
140
0.0
141
0.0
142
1.0
143
1.0
 70
0
 72
1
 73
0
 74
5
  7

 75
16
 76
0
 77
2
 78
300
147
1.0
148
0.0
149
0.0
100
AcDbLayout
  1
Layout1
 70
1
 71
1
 10
0.0
 20
0.0
 11
420.0
 21
297.0
 12
0.0
 22
0.0
 32
0.0
 14
1e+20
 24
1e+20
 34
1e+20
 15
-1e+20
 25
-1e+20
 35
-1e+20
146
0.0
 13
0.0
 23
0.0
 33
0.0
 16
1.0
 26
0.0
 36
0.0
 17
0.0
 27
1.0
 37
0.0
 76
1
330
1B
  0
MATERIAL
  5
1F
102
{ACAD_REACTORS
330
E
102
}
330
E
100
AcDbMaterial
  1
ByBlock
  2

 70
0
 40
1.0
 71
1
 41
1.0
 91
-1023410177
 42
1.0
 72
1
  3

 73
1
 74
1
 75
1
 44
0.5
 73
0
 45
1.0
 46
1.0
 77
1
  4

 78
1
 79
1
170
1
 48
1.0
171
1
  6

172
1
173
1
174
1
140
1.0
141
1.0
175
1
  7

176
1
177
1
178
1
143
1.0
179
1
  8

270
1
271
1
272
1
145
1.0
146
1.0
273
1
  9

274
1
275
1
276
1
 42
1.0
 72
1
  3

 73
1
 74
1
 75
1
 94
63
  0
MATERIAL
  5
20
102
{ACAD_REACTORS
330
E
102
}
330
E
100
AcDbMaterial
  1
ByLayer
  2

 70
0
 40
1.0
 71
1
 41
1.0
 91
-1023410177
 42
1.0
 72
1
  3

 73
1
 74
1
 75
1
 44
0.5
 73
0
 45
1.0
 46
1.0
 77
1
  4

 78
1
 79
1
170
1
 48
1.0
171
1
  6

172
1
173
1
174
1
140
1.0
141
1.0
175
1
  7

176
1
177
1
178
1
143
1.0
179
1
  8

270
1
271
1
272
1
145
1.0
146
1.0
273
1
  9

274
1
275
1
276
1
 42
1.0
 72
1
  3

 73
1
 74
1
 75
1
 94
63
  0
MATERIAL
  5
21
102
{ACAD_REACTORS
330
E
102
}
330
E
100
AcDbMaterial
  1
Global
  2

 70
0
 40
1.0
 71
1
 41
1.0
 91
-1023410177
 42
1.0
 72
1
  3

 73
1
 74
1
 75
1
 44
0.5
 73
0
 45
1.0
 46
1.0
 77
1
  4

 78
1
 79
1
170
1
 48
1.0
171
1
  6

172
1
173
1
174
1
140
1.0
141
1.0
175
1
  7

176
1
177
1
178
1
143
1.0
179
1
  8

270
1
271
1
272
1
145
1.0
146
1.0
273
1
  9

274
1
275
1
276
1
 42
1.0
 72
1
  3

 73
1
 74
1
 75
1
 94
63
  0
MLINESTYLE
  5
22
102
{ACAD_REACTORS
330
10
102
}
330
10
100
AcDbMlineStyle
  2
Standard
 70
0
  3

 62
256
 51
90.0
 52
90.0
 71
2
 49
0.5
 62
256
  6
BYLAYER
 49
-0.5
 62
256
  6
BYLAYER
  0
MLEADERSTYLE
  5
2C
102
{ACAD_REACTORS
330
F
102
}
330
F
100
AcDbMLeaderStyle
179
2
170
2
171
1
172
0
 90
2
 40
0.0
 41
0.0
173
1
 91
-1056964608
 92
-2
290
1
 42
2.0
291
1
 43
8.0
  3
Standard
 44
4.0
300

342
29
174
1
175
1
176
0
178
1
 93
-1056964608
 45
4.0
292
0
297
0
 46
4.0
 94
-1056964608
 47
1.0
 49
1.0
140
1.0
294
1
141
0.0
177
0
142
1.0
295
0
296
0
143
3.75
271
0
272
9
273
9
  0
DICTIONARY
  5
2D
330
A
100
AcDbDictionary
280
1
281
1
  3
CREATED_BY_EZDXF
350
2E
  3
WRITTEN_BY_EZDXF
350
A5
  0
DICTIONARYVAR
  5
2E
330
2D
100
DictionaryVariables
280
0
  1
1.4.4 @ 2026-08-28T02:58:58.177629+00:00
  0
DICTIONARYVAR
  5
A5
330
2D
100
DictionaryVariables
280
0
  1
1.4.4 @ 2026-08-28T02:58:58.184887+00:00
  0
ENDSEC
  0
EOF
