  0
SECTION
  2
HEADER
  9
$ACADVER
  1
AC1024
  9
$ACADMAINTVER
 70
6
  9
$DWGCODEPAGE
  3
ANSI_1252
  9
$LASTSAVEDBY
  1
ezdxf
  9
$INSBASE
 10
0.0
 20
0.0
 30
0.0
  9
$EXTMIN
 10
-0.01
 20
-0.01
 30
0.0
  9
$EXTMAX
 10
1164.0
 20
779.0
 30
0.0
  9
$LIMMIN
 10
0.0
 20
0.0
  9
$LIMMAX
 10
1164.0
 20
779.0
  9
$ORTHOMODE
 70
0
  9
$REGENMODE
 70
1
  9
$FILLMODE
 70
1
  9
$QTEXTMODE
 70
0
  9
$MIRRTEXT
 70
1
  9
$LTSCALE
 40
1.0
  9
$ATTMODE
 70
1
  9
$TEXTSIZE
 40
2.5
  9
$TRACEWID
 40
1.0
  9
$TEXTSTYLE
  7
Standard
  9
$CLAYER
  8
0
  9
$CELTYPE
  6
ByLayer
  9
$CECOLOR
 62
256
  9
$CELTSCALE
 40
1.0
  9
$DISPSILH
 70
0
  9
$DIMSCALE
 40
1.0
  9
$DIMASZ
 40
2.5
  9
$DIMEXO
 40
0.625
  9
$DIMDLI
 40
3.75
  9
$DIMRND
 40
0.0
  9
$DIMDLE
 40
0.0
  9
$DIMEXE
 40
1.25
  9
$DIMTP
 40
0.0
  9
$DIMTM
 40
0.0
  9
$DIMTXT
 40
2.5
  9
$DIMCEN
 40
2.5
  9
$DIMTSZ
 40
0.0
  9
$DIMTOL
 70
0
  9
$DIMLIM
 70
0
  9
$DIMTIH
 70
0
  9
$DIMTOH
 70
0
  9
$DIMSE1
 70
0
  9
$DIMSE2
 70
0
  9
$DIMTAD
 70
1
  9
$DIMZIN
 70
8
  9
$DIMBLK
  1

  9
$DIMASO
 70
1
  9
$DIMSHO
 70
1
  9
$DIMPOST
  1

  9
$DIMAPOST
  1

  9
$DIMALT
 70
0
  9
$DIMALTD
 70
3
  9
$DIMALTF
 40
0.03937007874
  9
$DIMLFAC
 40
1.0
  9
$DIMTOFL
 70
1
  9
$DIMTVP
 40
0.0
  9
$DIMTIX
 70
0
  9
$DIMSOXD
 70
0
  9
$DIMSAH
 70
0
  9
$DIMBLK1
  1

  9
$DIMBLK2
  1

  9
$DIMSTYLE
  2
ISO-25
  9
$DIMCLRD
 70
0
  9
$DIMCLRE
 70
0
  9
$DIMCLRT
 70
0
  9
$DIMTFAC
 40
1.0
  9
$DIMGAP
 40
0.625
  9
$DIMJUST
 70
0
  9
$DIMSD1
 70
0
  9
$DIMSD2
 70
0
  9
$DIMTOLJ
 70
0
  9
$DIMTZIN
 70
8
  9
$DIMALTZ
 70
0
  9
$DIMALTTZ
 70
0
  9
$DIMUPT
 70
0
  9
$DIMDEC
 70
2
  9
$DIMTDEC
 70
2
  9
$DIMALTU
 70
2
  9
$DIMALTTD
 70
3
  9
$DIMTXSTY
  7
Standard
  9
$DIMAUNIT
 70
0
  9
$DIMADEC
 70
0
  9
$DIMALTRND
 40
0.0
  9
$DIMAZIN
 70
0
  9
$DIMDSEP
 70
44
  9
$DIMATFIT
 70
3
  9
$DIMFRAC
 70
0
  9
$DIMLDRBLK
  1

  9
$DIMLUNIT
 70
2
  9
$DIMLWD
 70
-2
  9
$DIMLWE
 70
-2
  9
$DIMTMOVE
 70
0
  9
$DIMFXL
 40
1.0
  9
$DIMFXLON
 70
0
  9
$DIMJOGANG
 40
0.785398163397
  9
$DIMTFILL
 70
0
  9
$DIMTFILLCLR
 70
0
  9
$DIMARCSYM
 70
0
  9
$DIMLTYPE
  6

  9
$DIMLTEX1
  6

  9
$DIMLTEX2
  6

  9
$DIMTXTDIRECTION
 70
0
  9
$LUNITS
 70
2
  9
$LUPREC
 70
4
  9
$SKETCHINC
 40
1.0
  9
$FILLETRAD
 40
10.0
  9
$AUNITS
 70
0
  9
$AUPREC
 70
2
  9
$MENU
  1
.
  9
$ELEVATION
 40
0.0
  9
$PELEVATION
 40
0.0
  9
$THICKNESS
 40
0.0
  9
$LIMCHECK
 70
0
  9
$CHAMFERA
 40
0.0
  9
$CHAMFERB
 40
0.0
  9
$CHAMFERC
 40
0.0
  9
$CHAMFERD
 40
0.0
  9
$SKPOLY
 70
0
  9
$TDCREATE
 40
2461281.1242708336
  9
$TDUCREATE
 40
2458532.153996898
  9
$TDUPDATE
 40
2461281.1242708336
  9
$TDUUPDATE
 40
2458532.1544311
  9
$TDINDWG
 40
0.0
  9
$TDUSRTIMER
 40
0.0
  9
$USRTIMER
 70
1
  9
$ANGBASE
 50
0.0
  9
$ANGDIR
 70
0
  9
$PDMODE
 70
0
  9
$PDSIZE
 40
0.0
  9
$PLINEWID
 40
0.0
  9
$SPLFRAME
 70
0
  9
$SPLINETYPE
 70
6
  9
$SPLINESEGS
 70
8
  9
$HANDSEED
  5
BC
  9
$SURFTAB1
 70
6
  9
$SURFTAB2
 70
6
  9
$SURFTYPE
 70
6
  9
$SURFU
 70
6
  9
$SURFV
 70
6
  9
$UCSBASE
  2

  9
$UCSNAME
  2

  9
$UCSORG
 10
0.0
 20
0.0
 30
0.0
  9
$UCSXDIR
 10
1.0
 20
0.0
 30
0.0
  9
$UCSYDIR
 10
0.0
 20
1.0
 30
0.0
  9
$UCSORTHOREF
  2

  9
$UCSORTHOVIEW
 70
0
  9
$UCSORGTOP
 10
0.0
 20
0.0
 30
0.0
  9
$UCSORGBOTTOM
 10
0.0
 20
0.0
 30
0.0
  9
$UCSORGLEFT
 10
0.0
 20
0.0
 30
0.0
  9
$UCSORGRIGHT
 10
0.0
 20
0.0
 30
0.0
  9
$UCSORGFRONT
 10
0.0
 20
0.0
 30
0.0
  9
$UCSORGBACK
 10
0.0
 20
0.0
 30
0.0
  9
$PUCSBASE
  2

  9
$PUCSNAME
  2

  9
$PUCSORG
 10
0.0
 20
0.0
 30
0.0
  9
$PUCSXDIR
 10
1.0
 20
0.0
 30
0.0
  9
$PUCSYDIR
 10
0.0
 20
1.0
 30
0.0
  9
$PUCSORTHOREF
  2

  9
$PUCSORTHOVIEW
 70
0
  9
$PUCSORGTOP
 10
0.0
 20
0.0
 30
0.0
  9
$PUCSORGBOTTOM
 10
0.0
 20
0.0
 30
0.0
  9
$PUCSORGLEFT
 10
0.0
 20
0.0
 30
0.0
  9
$PUCSORGRIGHT
 10
0.0
 20
0.0
 30
0.0
  9
$PUCSORGFRONT
 10
0.0
 20
0.0
 30
0.0
  9
$PUCSORGBACK
 10
0.0
 20
0.0
 30
0.0
  9
$USERI1
 70
0
  9
$USERI2
 70
0
  9
$USERI3
 70
0
  9
$USERI4
 70
0
  9
$USERI5
 70
0
  9
$USERR1
 40
0.0
  9
$USERR2
 40
0.0
  9
$USERR3
 40
0.0
  9
$USERR4
 40
0.0
  9
$USERR5
 40
0.0
  9
$WORLDVIEW
 70
1
  9
$SHADEDGE
 70
3
  9
$SHADEDIF
 70
70
  9
$TILEMODE
 70
1
  9
$MAXACTVP
 70
64
  9
$PINSBASE
 10
0.0
 20
0.0
 30
0.0
  9
$PLIMCHECK
 70
0
  9
$PEXTMIN
 10
1e+20
 20
1e+20
 30
1e+20
  9
$PEXTMAX
 10
-1e+20
 20
-1e+20
 30
-1e+20
  9
$PLIMMIN
 10
0.0
 20
0.0
  9
$PLIMMAX
 10
420.0
 20
297.0
  9
$UNITMODE
 70
0
  9
$VISRETAIN
 70
1
  9
$PLINEGEN
 70
0
  9
$PSLTSCALE
 70
1
  9
$TREEDEPTH
 70
3020
  9
$CMLSTYLE
  2
Standard
  9
$CMLJUST
 70
0
  9
$CMLSCALE
 40
20.0
  9
$PROXYGRAPHICS
 70
1
  9
$MEASUREMENT
 70
1
  9
$CELWEIGHT
370
-1
  9
$ENDCAPS
280
0
  9
$JOINSTYLE
280
0
  9
$LWDISPLAY
290
0
  9
$INSUNITS
 70
4
  9
$HYPERLINKBASE
  1

  9
$STYLESHEET
  1

  9
$XEDIT
290
1
  9
$CEPSNTYPE
380
0
  9
$PSTYLEMODE
290
1
  9
$FINGERPRINTGUID
  2
{A9E9B0C4-7E9D-4199-B278-24AEEEB43809}
  9
$VERSIONGUID
  2
{CA0C309A-1BC1-4A74-AEF1-D532AFD31EEE}
  9
$EXTNAMES
290
1
  9
$PSVPSCALE
 40
0.0
  9
$OLESTARTUP
290
0
  9
$SORTENTS
280
127
  9
$INDEXCTL
280
0
  9
$HIDETEXT
280
1
  9
$XCLIPFRAME
280
1
  9
$HALOGAP
280
0
  9
$OBSCOLOR
 70
257
  9
$OBSLTYPE
280
0
  9
$INTERSECTIONDISPLAY
280
0
  9
$INTERSECTIONCOLOR
 70
257
  9
$DIMASSOC
280
2
  9
$PROJECTNAME
  1

  9
$CAMERADISPLAY
290
0
  9
$LENSLENGTH
 40
50.0
  9
$CAMERAHEIGHT
 40
0.0
  9
$STEPSPERSEC
 40
24.0
  9
$STEPSIZE
 40
100.0
  9
$3DDWFPREC
 40
2.0
  9
$PSOLWIDTH
 40
0.005
  9
$PSOLHEIGHT
 40
0.08
  9
$LOFTANG1
 40
1.570796326795
  9
$LOFTANG2
 40
1.570796326795
  9
$LOFTMAG1
 40
0.0
  9
$LOFTMAG2
 40
0.0
  9
$LOFTPARAM
 70
7
  9
$LOFTNORMALS
280
1
  9
$LATITUDE
 40
37.795
  9
$LONGITUDE
 40
-122.394
  9
$NORTHDIRECTION
 40
0.0
  9
$TIMEZONE
 70
-8000
  9
$LIGHTGLYPHDISPLAY
280
1
  9
$TILEMODELIGHTSYNCH
280
1
  9
$CMATERIAL
347
20
  9
$SOLIDHIST
280
0
  9
$SHOWHIST
280
1
  9
$DWFFRAME
280
2
  9
$DGNFRAME
280
2
  9
$REALWORLDSCALE
290
1
  9
$INTERFERECOLOR
 62
256
  9
$CSHADOW
280
0
  9
$SHADOWPLANELOCATION
 40
0.0
  0
ENDSEC
  0
SECTION
  2
CLASSES
  0
CLASS
  1
ACDBDICTIONARYWDFLT
  2
AcDbDictionaryWithDefault
  3
ObjectDBX Classes
 90
0
 91
0
280
0
281
0
  0
CLASS
  1
SUN
  2
AcDbSun
  3
SCENEOE
 90
1153
 91
0
280
0
281
0
  0
CLASS
  1
VISUALSTYLE
  2
AcDbVisualStyle
  3
ObjectDBX Classes
 90
4095
 91
0
280
0
281
0
  0
CLASS
  1
MATERIAL
  2
AcDbMaterial
  3
ObjectDBX Classes
 90
1153
 91
0
280
0
281
0
  0
CLASS
  1
SCALE
  2
AcDbScale
  3
ObjectDBX Classes
 90
1153
 91
0
280
0
281
0
  0
CLASS
  1
TABLESTYLE
  2
AcDbTableStyle
  3
ObjectDBX Classes
 90
4095
 91
0
280
0
281
0
  0
CLASS
  1
MLEADERSTYLE
  2
AcDbMLeaderStyle
  3
ACDB_MLEADERSTYLE_CLASS
 90
4095
 91
0
280
0
281
0
  0
CLASS
  1
DICTIONARYVAR
  2
AcDbDictionaryVar
  3
ObjectDBX Classes
 90
0
 91
0
280
0
281
0
  0
CLASS
  1
CELLSTYLEMAP
  2
AcDbCellStyleMap
  3
ObjectDBX Classes
 90
1152
 91
0
280
0
281
0
  0
CLASS
  1
MENTALRAYRENDERSETTINGS
  2
AcDbMentalRayRenderSettings
  3
SCENEOE
 90
1024
 91
0
280
0
281
0
  0
CLASS
  1
ACDBDETAILVIEWSTYLE
  2
AcDbDetailViewStyle
  3
ObjectDBX Classes
 90
1025
 91
0
280
0
281
0
  0
CLASS
  1
ACDBSECTIONVIEWSTYLE
  2
AcDbSectionViewStyle
  3
ObjectDBX Classes
 90
1025
 91
0
280
0
281
0
  0
CLASS
  1
RASTERVARIABLES
  2
AcDbRasterVariables
  3
ISM
 90
0
 91
0
280
0
281
0
  0
CLASS
  1
LAYOUT
  2
AcDbLayout
  3
ObjectDBX Classes
 90
0
 91
0
280
0
281
0
  0
CLASS
  1
ACDBPLACEHOLDER
  2
AcDbPlaceHolder
  3
ObjectDBX Classes
 90
0
 91
0
280
0
281
0
  0
ENDSEC
  0
SECTION
  2
TABLES
  0
TABLE
  2
VPORT
  5
8
330
0
100
AcDbSymbolTable
 70
1
  0
VPORT
  5
23
330
8
100
AcDbSymbolTableRecord
100
AcDbViewportTableRecord
  2
*Active
 70
0
 10
0.0
 20
0.0
 11
1.0
 21
1.0
 12
0.0
 22
0.0
 13
0.0
 23
0.0
 14
0.5
 24
0.5
 15
0.5
 25
0.5
 16
0.0
 26
0.0
 36
1.0
 17
0.0
 27
0.0
 37
0.0
 40
1000.0
 41
1.34
 42
50.0
 43
0.0
 44
0.0
 50
0.0
 51
0.0
 71
0
 72
1000
 73
1
 74
3
 75
0
 76
0
 77
0
 78
0
281
0
 65
0
146
0.0
  0
ENDTAB
  0
TABLE
  2
LTYPE
  5
2
330
0
100
AcDbSymbolTable
 70
5
  0
LTYPE
  5
24
330
2
100
AcDbSymbolTableRecord
100
AcDbLinetypeTableRecord
  2
ByBlock
 70
0
  3

 72
65
 73
0
 40
0.0
  0
LTYPE
  5
25
330
2
100
AcDbSymbolTableRecord
100
AcDbLinetypeTableRecord
  2
ByLayer
 70
0
  3

 72
65
 73
0
 40
0.0
  0
LTYPE
  5
26
330
2
100
AcDbSymbolTableRecord
100
AcDbLinetypeTableRecord
  2
Continuous
 70
0
  3

 72
65
 73
0
 40
0.0
  0
LTYPE
  5
2F
330
2
100
AcDbSymbolTableRecord
100
AcDbLinetypeTableRecord
  2
DASHED
 70
0
  3
Штриховая — — — —
 72
65
 73
2
 40
9.0
 49
6.0
 74
0
 49
-3.0
 74
0
  0
LTYPE
  5
30
330
2
100
AcDbSymbolTableRecord
100
AcDbLinetypeTableRecord
  2
DASHDOT
 70
0
  3
Штрихпунктирная — · — · —
 72
65
 73
4
 40
14.0
 49
8.0
 74
0
 49
-3.0
 74
0
 49
0.0
 74
0
 49
-3.0
 74
0
  0
ENDTAB
  0
TABLE
  2
LAYER
  5
1
330
0
100
AcDbSymbolTable
 70
10
  0
LAYER
  5
27
330
1
100
AcDbSymbolTableRecord
100
AcDbLayerTableRecord
  2
0
 70
0
 62
7
  6
Continuous
370
-3
390
13
347
21
  0
LAYER
  5
28
330
1
100
AcDbSymbolTableRecord
100
AcDbLayerTableRecord
  2
Defpoints
 70
0
 62
7
  6
Continuous
290
0
370
-3
390
13
347
21
  0
LAYER
  5
32
330
1
100
AcDbSymbolTableRecord
100
AcDbLayerTableRecord
  2
GAS
 70
0
 62
30
420
14712622
  6
Continuous
370
35
390
13
347
21
1001
AcAecLayerStandard
1000

1000
Газовый тракт (оранжевый)
  0
LAYER
  5
34
330
1
100
AcDbSymbolTableRecord
100
AcDbLayerTableRecord
  2
LIQUID
 70
0
 62
5
420
2783446
  6
Continuous
370
35
390
13
347
21
1001
AcAecLayerStandard
1000

1000
Жидкостные потоки: кислота, растворы, вода (синий)
  0
LAYER
  5
35
330
1
100
AcDbSymbolTableRecord
100
AcDbLayerTableRecord
  2
DUST
 70
0
 62
6
420
10702494
  6
Continuous
370
35
390
13
347
21
1001
AcAecLayerStandard
1000

1000
Пылевой тракт: циклоны, фильтры (фиолетовый)
  0
LAYER
  5
36
330
1
100
AcDbSymbolTableRecord
100
AcDbLayerTableRecord
  2
ELECTRIC
 70
0
 62
2
420
16429593
  6
Continuous
370
30
390
13
347
21
1001
AcAecLayerStandard
1000

1000
Электрика / энергоснабжение (жёлтый)
  0
LAYER
  5
37
330
1
100
AcDbSymbolTableRecord
100
AcDbLayerTableRecord
  2
INTERLOCK
 70
0
 62
1
420
13646651
  6
Continuous
370
30
390
13
347
21
1001
AcAecLayerStandard
1000

1000
Блокировки и защиты (красный)
  0
LAYER
  5
38
330
1
100
AcDbSymbolTableRecord
100
AcDbLayerTableRecord
  2
OUTLINE
 70
0
 62
7
  6
Continuous
370
25
390
13
347
21
1001
AcAecLayerStandard
1000

1000
Контуры оборудования, строительная графика (ink)
  0
LAYER
  5
39
330
1
100
AcDbSymbolTableRecord
100
AcDbLayerTableRecord
  2
TEXT_RU
 70
0
 62
7
  6
Continuous
370
25
390
13
347
21
1001
AcAecLayerStandard
1000

1000
Надписи (русские, UTF-8)
  0
LAYER
  5
3A
330
1
100
AcDbSymbolTableRecord
100
AcDbLayerTableRecord
  2
DIM
 70
0
 62
8
  6
Continuous
370
13
390
13
347
21
1001
AcAecLayerStandard
1000

1000
Размерные и вспомогательные линии, рамка, сетка
  0
ENDTAB
  0
TABLE
  2
STYLE
  5
5
330
0
100
AcDbSymbolTable
 70
2
  0
STYLE
  5
29
330
5
100
AcDbSymbolTableRecord
100
AcDbTextStyleTableRecord
  2
Standard
 70
0
 40
0.0
 41
1.0
 50
0.0
 71
0
 42
2.5
  3
txt
  4

  0
STYLE
  5
31
330
5
100
AcDbSymbolTableRecord
100
AcDbTextStyleTableRecord
  2
TXTRU
 70
0
 40
0.0
 41
1.0
 50
0.0
 71
0
 42
2.5
  3
arial.ttf
  4

  0
ENDTAB
  0
TABLE
  2
VIEW
  5
7
330
0
100
AcDbSymbolTable
 70
0
  0
ENDTAB
  0
TABLE
  2
UCS
  5
6
330
0
100
AcDbSymbolTable
 70
0
  0
ENDTAB
  0
TABLE
  2
APPID
  5
3
330
0
100
AcDbSymbolTable
 70
4
  0
APPID
  5
2A
330
3
100
AcDbSymbolTableRecord
100
AcDbRegAppTableRecord
  2
ACAD
 70
0
  0
APPID
  5
33
330
3
100
AcDbSymbolTableRecord
100
AcDbRegAppTableRecord
  2
AcAecLayerStandard
 70
0
  0
APPID
  5
B9
330
3
100
AcDbSymbolTableRecord
100
AcDbRegAppTableRecord
  2
HATCHBACKGROUNDCOLOR
 70
0
  0
APPID
  5
BA
330
3
100
AcDbSymbolTableRecord
100
AcDbRegAppTableRecord
  2
EZDXF
 70
0
  0
ENDTAB
  0
TABLE
  2
DIMSTYLE
  5
4
330
0
100
AcDbSymbolTable
 70
1
100
AcDbDimStyleTable
  0
DIMSTYLE
105
2B
330
4
100
AcDbSymbolTableRecord
100
AcDbDimStyleTableRecord
  2
Standard
 70
0
 40
1.0
 41
2.5
 42
0.625
 43
3.75
 44
1.25
 45
0.0
 46
0.0
 47
0.0
 48
0.0
 49
2.5
140
2.5
141
2.5
142
0.0
143
0.03937007874
144
1.0
145
0.0
146
1.0
147
0.625
148
0.0
 69
0
 70
0
 71
0
 72
0
 73
0
 74
0
 75
0
 76
0
 77
1
 78
8
 79
3
170
0
171
3
172
1
173
0
174
0
175
0
176
0
177
0
178
0
179
2
271
2
272
2
273
2
274
3
275
0
276
0
277
2
278
44
279
0
280
0
281
0
282
0
283
0
284
8
285
0
286
0
288
0
289
3
290
0
371
-2
372
-2
  0
ENDTAB
  0
TABLE
  2
BLOCK_RECORD
  5
9
330
0
100
AcDbSymbolTable
 70
2
  0
BLOCK_RECORD
  5
17
330
9
100
AcDbSymbolTableRecord
100
AcDbBlockTableRecord
  2
*Model_Space
340
1A
 70
0
280
1
281
0
  0
BLOCK_RECORD
  5
1B
330
9
100
AcDbSymbolTableRecord
100
AcDbBlockTableRecord
  2
*Paper_Space
340
1E
 70
0
280
1
281
0
  0
ENDTAB
  0
ENDSEC
  0
SECTION
  2
BLOCKS
  0
BLOCK
  5
18
330
17
100
AcDbEntity
  8
0
100
AcDbBlockBegin
  2
*Model_Space
 70
0
 10
0.0
 20
0.0
 30
0.0
  3
*Model_Space
  1

  0
ENDBLK
  5
19
330
17
100
AcDbEntity
  8
0
100
AcDbBlockEnd
  0
BLOCK
  5
1C
330
1B
100
AcDbEntity
  8
0
100
AcDbBlockBegin
  2
*Paper_Space
 70
0
 10
0.0
 20
0.0
 30
0.0
  3
*Paper_Space
  1

  0
ENDBLK
  5
1D
330
1B
100
AcDbEntity
  8
0
100
AcDbBlockEnd
  0
ENDSEC
  0
SECTION
  2
ENTITIES
  0
LINE
  5
3B
330
17
100
AcDbEntity
  8
DIM
420
15198183
100
AcDbLine
 10
340.0
 20
757.0
 30
0.0
 11
340.0
 21
26.0
 31
0.0
  0
TEXT
  5
3C
330
17
100
AcDbEntity
  8
TEXT_RU
100
AcDbText
 10
344.0
 20
747.0
 30
0.0
 40
7.7
  1
Сен 26
  7
TXTRU
 11
344.0
 21
747.0
 31
0.0
100
AcDbText
  0
LINE
  5
3D
330
17
100
AcDbEntity
  8
DIM
420
15198183
100
AcDbLine
 10
516.8
 20
757.0
 30
0.0
 11
516.8
 21
26.0
 31
0.0
  0
TEXT
  5
3E
330
17
100
AcDbEntity
  8
TEXT_RU
100
AcDbText
 10
520.8
 20
747.0
 30
0.0
 40
7.7
  1
Окт 26
  7
TXTRU
 11
520.8
 21
747.0
 31
0.0
100
AcDbText
  0
LINE
  5
3F
330
17
100
AcDbEntity
  8
DIM
420
15198183
100
AcDbLine
 10
719.8
 20
757.0
 30
0.0
 11
719.8
 21
26.0
 31
0.0
  0
TEXT
  5
40
330
17
100
AcDbEntity
  8
TEXT_RU
100
AcDbText
 10
723.8
 20
747.0
 30
0.0
 40
7.7
  1
Ноя 26
  7
TXTRU
 11
723.8
 21
747.0
 31
0.0
100
AcDbText
  0
LINE
  5
41
330
17
100
AcDbEntity
  8
DIM
420
15198183
100
AcDbLine
 10
916.3
 20
757.0
 30
0.0
 11
916.3
 21
26.0
 31
0.0
  0
TEXT
  5
42
330
17
100
AcDbEntity
  8
TEXT_RU
100
AcDbText
 10
920.3
 20
747.0
 30
0.0
 40
7.7
  1
Дек 26
  7
TXTRU
 11
920.3
 21
747.0
 31
0.0
100
AcDbText
  0
LINE
  5
43
330
17
100
AcDbEntity
  8
DIM
420
15198183
100
AcDbLine
 10
1119.3
 20
757.0
 30
0.0
 11
1119.3
 21
26.0
 31
0.0
  0
LINE
  5
44
330
17
100
AcDbEntity
  8
DIM
420
16053492
100
AcDbLine
 10
359.6
 20
743.0
 30
0.0
 11
359.6
 21
26.0
 31
0.0
  0
LINE
  5
45
330
17
100
AcDbEntity
  8
DIM
420
16053492
100
AcDbLine
 10
405.5
 20
743.0
 30
0.0
 11
405.5
 21
26.0
 31
0.0
  0
LINE
  5
46
330
17
100
AcDbEntity
  8
DIM
420
16053492
100
AcDbLine
 10
451.3
 20
743.0
 30
0.0
 11
451.3
 21
26.0
 31
0.0
  0
LINE
  5
47
330
17
100
AcDbEntity
  8
DIM
420
16053492
100
AcDbLine
 10
497.2
 20
743.0
 30
0.0
 11
497.2
 21
26.0
 31
0.0
  0
LINE
  5
48
330
17
100
AcDbEntity
  8
DIM
420
16053492
100
AcDbLine
 10
543.0
 20
743.0
 30
0.0
 11
543.0
 21
26.0
 31
0.0
  0
LINE
  5
49
330
17
100
AcDbEntity
  8
DIM
420
16053492
100
AcDbLine
 10
588.8
 20
743.0
 30
0.0
 11
588.8
 21
26.0
 31
0.0
  0
LINE
  5
4A
330
17
100
AcDbEntity
  8
DIM
420
16053492
100
AcDbLine
 10
634.7
 20
743.0
 30
0.0
 11
634.7
 21
26.0
 31
0.0
  0
LINE
  5
4B
330
17
100
AcDbEntity
  8
DIM
420
16053492
100
AcDbLine
 10
680.5
 20
743.0
 30
0.0
 11
680.5
 21
26.0
 31
0.0
  0
LINE
  5
4C
330
17
100
AcDbEntity
  8
DIM
420
16053492
100
AcDbLine
 10
726.4
 20
743.0
 30
0.0
 11
726.4
 21
26.0
 31
0.0
  0
LINE
  5
4D
330
17
100
AcDbEntity
  8
DIM
420
16053492
100
AcDbLine
 10
772.2
 20
743.0
 30
0.0
 11
772.2
 21
26.0
 31
0.0
  0
LINE
  5
4E
330
17
100
AcDbEntity
  8
DIM
420
16053492
100
AcDbLine
 10
818.0
 20
743.0
 30
0.0
 11
818.0
 21
26.0
 31
0.0
  0
LINE
  5
4F
330
17
100
AcDbEntity
  8
DIM
420
16053492
100
AcDbLine
 10
863.9
 20
743.0
 30
0.0
 11
863.9
 21
26.0
 31
0.0
  0
LINE
  5
50
330
17
100
AcDbEntity
  8
DIM
420
16053492
100
AcDbLine
 10
909.7
 20
743.0
 30
0.0
 11
909.7
 21
26.0
 31
0.0
  0
LINE
  5
51
330
17
100
AcDbEntity
  8
DIM
420
16053492
100
AcDbLine
 10
955.5
 20
743.0
 30
0.0
 11
955.5
 21
26.0
 31
0.0
  0
LINE
  5
52
330
17
100
AcDbEntity
  8
DIM
420
16053492
100
AcDbLine
 10
1001.4
 20
743.0
 30
0.0
 11
1001.4
 21
26.0
 31
0.0
  0
LINE
  5
53
330
17
100
AcDbEntity
  8
DIM
420
16053492
100
AcDbLine
 10
1047.2
 20
743.0
 30
0.0
 11
1047.2
 21
26.0
 31
0.0
  0
LINE
  5
54
330
17
100
AcDbEntity
  8
DIM
420
16053492
100
AcDbLine
 10
1093.1
 20
743.0
 30
0.0
 11
1093.1
 21
26.0
 31
0.0
  0
LINE
  5
55
330
17
100
AcDbEntity
  8
DIM
420
16053492
100
AcDbLine
 10
1138.9
 20
743.0
 30
0.0
 11
1138.9
 21
26.0
 31
0.0
  0
LINE
  5
56
330
17
100
AcDbEntity
  8
OUTLINE
420
11970269
100
AcDbLine
 10
4.0
 20
724.0
 30
0.0
 11
1158.0
 21
724.0
 31
0.0
  0
HATCH
  5
57
330
17
100
AcDbEntity
  8
OUTLINE
 62
7
420
8875720
100
AcDbHatch
 10
0.0
 20
0.0
 30
0.0
210
0.0
220
0.0
230
1.0
  2
SOLID
 70
1
 71
0
 91
1
 92
3
 72
1
 73
1
 93
8
 10
370.2
 20
715.0
 42
0.0
 10
394.9
 20
715.0
 42
0.4142135623731064
 10
398.9
 20
711.0
 42
0.0
 10
398.9
 20
706.0
 42
0.4142135623731064
 10
394.9
 20
702.0
 42
0.0
 10
370.2
 20
702.0
 42
0.4142135623731064
 10
366.2
 20
706.0
 42
0.0
 10
366.2
 20
711.0
 42
0.4142135623731064
 97
0
 75
0
 76
1
 98
0
  0
HATCH
  5
58
330
17
100
AcDbEntity
  8
OUTLINE
 62
7
420
8875720
100
AcDbHatch
 10
0.0
 20
0.0
 30
0.0
210
0.0
220
0.0
230
1.0
  2
SOLID
 70
1
 71
0
 91
1
 92
3
 72
1
 73
1
 93
8
 10
370.2
 20
692.0
 42
0.0
 10
440.79999999999995
 20
692.0
 42
0.4142135623731064
 10
444.79999999999995
 20
688.0
 42
0.0
 10
444.79999999999995
 20
683.0
 42
0.4142135623731064
 10
440.79999999999995
 20
679.0
 42
0.0
 10
370.2
 20
679.0
 42
0.4142135623731064
 10
366.2
 20
683.0
 42
0.0
 10
366.2
 20
688.0
 42
0.4142135623731064
 97
0
 75
0
 76
1
 98
0
  0
LWPOLYLINE
  5
59
330
17
100
AcDbEntity
  8
INTERLOCK
420
13979471
100
AcDbPolyline
 90
8
 70
1
 10
370.2
 20
692.0
 10
440.79999999999995
 20
692.0
 42
0.4142135623731064
 10
444.79999999999995
 20
688.0
 10
444.79999999999995
 20
683.0
 42
0.4142135623731064
 10
440.79999999999995
 20
679.0
 10
370.2
 20
679.0
 42
0.4142135623731064
 10
366.2
 20
683.0
 10
366.2
 20
688.0
 42
0.4142135623731064
  0
HATCH
  5
5A
330
17
100
AcDbEntity
  8
OUTLINE
 62
7
420
8875720
100
AcDbHatch
 10
0.0
 20
0.0
 30
0.0
210
0.0
220
0.0
230
1.0
  2
SOLID
 70
1
 71
0
 91
1
 92
3
 72
1
 73
1
 93
8
 10
370.2
 20
669.0
 42
0.0
 10
486.6
 20
669.0
 42
0.4142135623731064
 10
490.6
 20
665.0
 42
0.0
 10
490.6
 20
660.0
 42
0.4142135623731064
 10
486.6
 20
656.0
 42
0.0
 10
370.2
 20
656.0
 42
0.4142135623731064
 10
366.2
 20
660.0
 42
0.0
 10
366.2
 20
665.0
 42
0.4142135623731064
 97
0
 75
0
 76
1
 98
0
  0
LINE
  5
5B
330
17
100
AcDbEntity
  8
LIQUID
420
9090536
100
AcDbLine
 10
4.0
 20
632.0
 30
0.0
 11
1158.0
 21
632.0
 31
0.0
  0
HATCH
  5
5C
330
17
100
AcDbEntity
  8
LIQUID
 62
7
420
4163290
100
AcDbHatch
 10
0.0
 20
0.0
 30
0.0
210
0.0
220
0.0
230
1.0
  2
SOLID
 70
1
 71
0
 91
1
 92
3
 72
1
 73
1
 93
8
 10
370.2
 20
623.0
 42
0.0
 10
486.6
 20
623.0
 42
0.4142135623731064
 10
490.6
 20
619.0
 42
0.0
 10
490.6
 20
614.0
 42
0.4142135623731064
 10
486.6
 20
610.0
 42
0.0
 10
370.2
 20
610.0
 42
0.4142135623731064
 10
366.2
 20
614.0
 42
0.0
 10
366.2
 20
619.0
 42
0.4142135623731064
 97
0
 75
0
 76
1
 98
0
  0
HATCH
  5
5D
330
17
100
AcDbEntity
  8
LIQUID
 62
7
420
4163290
100
AcDbHatch
 10
0.0
 20
0.0
 30
0.0
210
0.0
220
0.0
230
1.0
  2
SOLID
 70
1
 71
0
 91
1
 92
3
 72
1
 73
1
 93
8
 10
370.2
 20
600.0
 42
0.0
 10
624.0999999999999
 20
600.0
 42
0.4142135623731064
 10
628.0999999999999
 20
596.0
 42
0.0
 10
628.0999999999999
 20
591.0
 42
0.4142135623731064
 10
624.0999999999999
 20
587.0
 42
0.0
 10
370.2
 20
587.0
 42
0.4142135623731064
 10
366.2
 20
591.0
 42
0.0
 10
366.2
 20
596.0
 42
0.4142135623731064
 97
0
 75
0
 76
1
 98
0
  0
HATCH
  5
5E
330
17
100
AcDbEntity
  8
LIQUID
 62
7
420
4163290
100
AcDbHatch
 10
0.0
 20
0.0
 30
0.0
210
0.0
220
0.0
230
1.0
  2
SOLID
 70
1
 71
0
 91
1
 92
3
 72
1
 73
1
 93
8
 10
416.0
 20
577.0
 42
0.0
 10
578.3
 20
577.0
 42
0.4142135623731064
 10
582.3
 20
573.0
 42
0.0
 10
582.3
 20
568.0
 42
0.4142135623731064
 10
578.3
 20
564.0
 42
0.0
 10
416.0
 20
564.0
 42
0.4142135623731064
 10
412.0
 20
568.0
 42
0.0
 10
412.0
 20
573.0
 42
0.4142135623731064
 97
0
 75
0
 76
1
 98
0
  0
HATCH
  5
5F
330
17
100
AcDbEntity
  8
LIQUID
 62
7
420
4163290
100
AcDbHatch
 10
0.0
 20
0.0
 30
0.0
210
0.0
220
0.0
230
1.0
  2
SOLID
 70
1
 71
0
 91
1
 92
3
 72
1
 73
1
 93
8
 10
461.9
 20
554.0
 42
0.0
 10
670.0
 20
554.0
 42
0.4142135623731064
 10
674.0
 20
550.0
 42
0.0
 10
674.0
 20
545.0
 42
0.4142135623731064
 10
670.0
 20
541.0
 42
0.0
 10
461.9
 20
541.0
 42
0.4142135623731064
 10
457.9
 20
545.0
 42
0.0
 10
457.9
 20
550.0
 42
0.4142135623731064
 97
0
 75
0
 76
1
 98
0
  0
LWPOLYLINE
  5
60
330
17
100
AcDbEntity
  8
INTERLOCK
420
13979471
100
AcDbPolyline
 90
8
 70
1
 10
461.9
 20
554.0
 10
670.0
 20
554.0
 42
0.4142135623731064
 10
674.0
 20
550.0
 10
674.0
 20
545.0
 42
0.4142135623731064
 10
670.0
 20
541.0
 10
461.9
 20
541.0
 42
0.4142135623731064
 10
457.9
 20
545.0
 10
457.9
 20
550.0
 42
0.4142135623731064
  0
HATCH
  5
61
330
17
100
AcDbEntity
  8
LIQUID
 62
7
420
4163290
100
AcDbHatch
 10
0.0
 20
0.0
 30
0.0
210
0.0
220
0.0
230
1.0
  2
SOLID
 70
1
 71
0
 91
1
 92
3
 72
1
 73
1
 93
8
 10
507.7
 20
531.0
 42
0.0
 10
670.0
 20
531.0
 42
0.4142135623731064
 10
674.0
 20
527.0
 42
0.0
 10
674.0
 20
522.0
 42
0.4142135623731064
 10
670.0
 20
518.0
 42
0.0
 10
507.7
 20
518.0
 42
0.4142135623731064
 10
503.7
 20
522.0
 42
0.0
 10
503.7
 20
527.0
 42
0.4142135623731064
 97
0
 75
0
 76
1
 98
0
  0
HATCH
  5
62
330
17
100
AcDbEntity
  8
LIQUID
 62
7
420
4163290
100
AcDbHatch
 10
0.0
 20
0.0
 30
0.0
210
0.0
220
0.0
230
1.0
  2
SOLID
 70
1
 71
0
 91
1
 92
3
 72
1
 73
1
 93
8
 10
599.4
 20
508.0
 42
0.0
 10
670.0
 20
508.0
 42
0.4142135623731064
 10
674.0
 20
504.0
 42
0.0
 10
674.0
 20
499.0
 42
0.4142135623731064
 10
670.0
 20
495.0
 42
0.0
 10
599.4
 20
495.0
 42
0.4142135623731064
 10
595.4
 20
499.0
 42
0.0
 10
595.4
 20
504.0
 42
0.4142135623731064
 97
0
 75
0
 76
1
 98
0
  0
HATCH
  5
63
330
17
100
AcDbEntity
  8
LIQUID
 62
7
420
4163290
100
AcDbHatch
 10
0.0
 20
0.0
 30
0.0
210
0.0
220
0.0
230
1.0
  2
SOLID
 70
1
 71
0
 91
1
 92
3
 72
1
 73
1
 93
8
 10
645.2
 20
485.0
 42
0.0
 10
715.8000000000001
 20
485.0
 42
0.4142135623731064
 10
719.8000000000001
 20
481.0
 42
0.0
 10
719.8000000000001
 20
476.0
 42
0.4142135623731064
 10
715.8000000000001
 20
472.0
 42
0.0
 10
645.2
 20
472.0
 42
0.4142135623731064
 10
641.2
 20
476.0
 42
0.0
 10
641.2
 20
481.0
 42
0.4142135623731064
 97
0
 75
0
 76
1
 98
0
  0
HATCH
  5
64
330
17
100
AcDbEntity
  8
LIQUID
 62
7
100
AcDbHatch
 10
0.0
 20
0.0
 30
0.0
210
0.0
220
0.0
230
1.0
  2
SOLID
 70
1
 71
0
 91
1
 92
3
 72
0
 73
1
 93
4
 10
713.258064516129
 20
462.5
 10
720.258064516129
 20
455.5
 10
713.258064516129
 20
448.5
 10
706.258064516129
 20
455.5
 97
0
 75
0
 76
1
 98
0
  0
LWPOLYLINE
  5
65
330
17
100
AcDbEntity
  8
OUTLINE
100
AcDbPolyline
 90
4
 70
1
 10
713.258064516129
 20
462.5
 10
720.258064516129
 20
455.5
 10
713.258064516129
 20
448.5
 10
706.258064516129
 20
455.5
  0
HATCH
  5
66
330
17
100
AcDbEntity
  8
LIQUID
 62
7
420
4163290
100
AcDbHatch
 10
0.0
 20
0.0
 30
0.0
210
0.0
220
0.0
230
1.0
  2
SOLID
 70
1
 71
0
 91
1
 92
3
 72
1
 73
1
 93
8
 10
736.9
 20
439.0
 42
0.0
 10
807.5
 20
439.0
 42
0.4142135623731064
 10
811.5
 20
435.0
 42
0.0
 10
811.5
 20
430.0
 42
0.4142135623731064
 10
807.5
 20
426.0
 42
0.0
 10
736.9
 20
426.0
 42
0.4142135623731064
 10
732.9
 20
430.0
 42
0.0
 10
732.9
 20
435.0
 42
0.4142135623731064
 97
0
 75
0
 76
1
 98
0
  0
LINE
  5
67
330
17
100
AcDbEntity
  8
OUTLINE
420
7982201
100
AcDbLine
 10
4.0
 20
402.0
 30
0.0
 11
1158.0
 21
402.0
 31
0.0
  0
HATCH
  5
68
330
17
100
AcDbEntity
  8
OUTLINE
 62
7
420
2403364
100
AcDbHatch
 10
0.0
 20
0.0
 30
0.0
210
0.0
220
0.0
230
1.0
  2
SOLID
 70
1
 71
0
 91
1
 92
3
 72
1
 73
1
 93
8
 10
370.2
 20
393.0
 42
0.0
 10
486.6
 20
393.0
 42
0.4142135623731064
 10
490.6
 20
389.0
 42
0.0
 10
490.6
 20
384.0
 42
0.4142135623731064
 10
486.6
 20
380.0
 42
0.0
 10
370.2
 20
380.0
 42
0.4142135623731064
 10
366.2
 20
384.0
 42
0.0
 10
366.2
 20
389.0
 42
0.4142135623731064
 97
0
 75
0
 76
1
 98
0
  0
HATCH
  5
69
330
17
100
AcDbEntity
  8
OUTLINE
 62
7
420
2403364
100
AcDbHatch
 10
0.0
 20
0.0
 30
0.0
210
0.0
220
0.0
230
1.0
  2
SOLID
 70
1
 71
0
 91
1
 92
3
 72
1
 73
1
 93
8
 10
507.7
 20
370.0
 42
0.0
 10
945.0
 20
370.0
 42
0.4142135623731064
 10
949.0
 20
366.0
 42
0.0
 10
949.0
 20
361.0
 42
0.4142135623731064
 10
945.0
 20
357.0
 42
0.0
 10
507.7
 20
357.0
 42
0.4142135623731064
 10
503.7
 20
361.0
 42
0.0
 10
503.7
 20
366.0
 42
0.4142135623731064
 97
0
 75
0
 76
1
 98
0
  0
LWPOLYLINE
  5
6A
330
17
100
AcDbEntity
  8
INTERLOCK
420
13979471
100
AcDbPolyline
 90
8
 70
1
 10
507.7
 20
370.0
 10
945.0
 20
370.0
 42
0.4142135623731064
 10
949.0
 20
366.0
 10
949.0
 20
361.0
 42
0.4142135623731064
 10
945.0
 20
357.0
 10
507.7
 20
357.0
 42
0.4142135623731064
 10
503.7
 20
361.0
 10
503.7
 20
366.0
 42
0.4142135623731064
  0
LINE
  5
6B
330
17
100
AcDbEntity
  8
GAS
420
15645068
100
AcDbLine
 10
4.0
 20
333.0
 30
0.0
 11
1158.0
 21
333.0
 31
0.0
  0
HATCH
  5
6C
330
17
100
AcDbEntity
  8
GAS
 62
7
420
14912579
100
AcDbHatch
 10
0.0
 20
0.0
 30
0.0
210
0.0
220
0.0
230
1.0
  2
SOLID
 70
1
 71
0
 91
1
 92
3
 72
1
 73
1
 93
8
 10
691.1
 20
324.0
 42
0.0
 10
945.0
 20
324.0
 42
0.4142135623731064
 10
949.0
 20
320.0
 42
0.0
 10
949.0
 20
315.0
 42
0.4142135623731064
 10
945.0
 20
311.0
 42
0.0
 10
691.1
 20
311.0
 42
0.4142135623731064
 10
687.1
 20
315.0
 42
0.0
 10
687.1
 20
320.0
 42
0.4142135623731064
 97
0
 75
0
 76
1
 98
0
  0
LWPOLYLINE
  5
6D
330
17
100
AcDbEntity
  8
INTERLOCK
420
13979471
100
AcDbPolyline
 90
8
 70
1
 10
691.1
 20
324.0
 10
945.0
 20
324.0
 42
0.4142135623731064
 10
949.0
 20
320.0
 10
949.0
 20
315.0
 42
0.4142135623731064
 10
945.0
 20
311.0
 10
691.1
 20
311.0
 42
0.4142135623731064
 10
687.1
 20
315.0
 10
687.1
 20
320.0
 42
0.4142135623731064
  0
HATCH
  5
6E
330
17
100
AcDbEntity
  8
GAS
 62
7
420
14912579
100
AcDbHatch
 10
0.0
 20
0.0
 30
0.0
210
0.0
220
0.0
230
1.0
  2
SOLID
 70
1
 71
0
 91
1
 92
3
 72
1
 73
1
 93
8
 10
736.9
 20
301.0
 42
0.0
 10
899.2
 20
301.0
 42
0.4142135623731064
 10
903.2
 20
297.0
 42
0.0
 10
903.2
 20
292.0
 42
0.4142135623731064
 10
899.2
 20
288.0
 42
0.0
 10
736.9
 20
288.0
 42
0.4142135623731064
 10
732.9
 20
292.0
 42
0.0
 10
732.9
 20
297.0
 42
0.4142135623731064
 97
0
 75
0
 76
1
 98
0
  0
HATCH
  5
6F
330
17
100
AcDbEntity
  8
GAS
 62
7
420
14912579
100
AcDbHatch
 10
0.0
 20
0.0
 30
0.0
210
0.0
220
0.0
230
1.0
  2
SOLID
 70
1
 71
0
 91
1
 92
3
 72
1
 73
1
 93
8
 10
736.9
 20
278.0
 42
0.0
 10
899.2
 20
278.0
 42
0.4142135623731064
 10
903.2
 20
274.0
 42
0.0
 10
903.2
 20
269.0
 42
0.4142135623731064
 10
899.2
 20
265.0
 42
0.0
 10
736.9
 20
265.0
 42
0.4142135623731064
 10
732.9
 20
269.0
 42
0.0
 10
732.9
 20
274.0
 42
0.4142135623731064
 97
0
 75
0
 76
1
 98
0
  0
HATCH
  5
70
330
17
100
AcDbEntity
  8
GAS
 62
7
420
14912579
100
AcDbHatch
 10
0.0
 20
0.0
 30
0.0
210
0.0
220
0.0
230
1.0
  2
SOLID
 70
1
 71
0
 91
1
 92
3
 72
1
 73
1
 93
8
 10
782.7
 20
255.0
 42
0.0
 10
945.0
 20
255.0
 42
0.4142135623731064
 10
949.0
 20
251.0
 42
0.0
 10
949.0
 20
246.0
 42
0.4142135623731064
 10
945.0
 20
242.0
 42
0.0
 10
782.7
 20
242.0
 42
0.4142135623731064
 10
778.7
 20
246.0
 42
0.0
 10
778.7
 20
251.0
 42
0.4142135623731064
 97
0
 75
0
 76
1
 98
0
  0
HATCH
  5
71
330
17
100
AcDbEntity
  8
GAS
 62
7
420
14912579
100
AcDbHatch
 10
0.0
 20
0.0
 30
0.0
210
0.0
220
0.0
230
1.0
  2
SOLID
 70
1
 71
0
 91
1
 92
3
 72
1
 73
1
 93
8
 10
874.4
 20
232.0
 42
0.0
 10
990.8
 20
232.0
 42
0.4142135623731064
 10
994.8
 20
228.0
 42
0.0
 10
994.8
 20
223.0
 42
0.4142135623731064
 10
990.8
 20
219.0
 42
0.0
 10
874.4
 20
219.0
 42
0.4142135623731064
 10
870.4
 20
223.0
 42
0.0
 10
870.4
 20
228.0
 42
0.4142135623731064
 97
0
 75
0
 76
1
 98
0
  0
HATCH
  5
72
330
17
100
AcDbEntity
  8
GAS
 62
7
420
14912579
100
AcDbHatch
 10
0.0
 20
0.0
 30
0.0
210
0.0
220
0.0
230
1.0
  2
SOLID
 70
1
 71
0
 91
1
 92
3
 72
1
 73
1
 93
8
 10
828.6
 20
209.0
 42
0.0
 10
945.0
 20
209.0
 42
0.4142135623731064
 10
949.0
 20
205.0
 42
0.0
 10
949.0
 20
200.0
 42
0.4142135623731064
 10
945.0
 20
196.0
 42
0.0
 10
828.6
 20
196.0
 42
0.4142135623731064
 10
824.6
 20
200.0
 42
0.0
 10
824.6
 20
205.0
 42
0.4142135623731064
 97
0
 75
0
 76
1
 98
0
  0
HATCH
  5
73
330
17
100
AcDbEntity
  8
GAS
 62
7
420
14912579
100
AcDbHatch
 10
0.0
 20
0.0
 30
0.0
210
0.0
220
0.0
230
1.0
  2
SOLID
 70
1
 71
0
 91
1
 92
3
 72
1
 73
1
 93
8
 10
828.6
 20
186.0
 42
0.0
 10
990.9000000000001
 20
186.0
 42
0.4142135623731064
 10
994.9000000000001
 20
182.0
 42
0.0
 10
994.9000000000001
 20
177.0
 42
0.4142135623731064
 10
990.9000000000001
 20
173.0
 42
0.0
 10
828.6
 20
173.0
 42
0.4142135623731064
 10
824.6
 20
177.0
 42
0.0
 10
824.6
 20
182.0
 42
0.4142135623731064
 97
0
 75
0
 76
1
 98
0
  0
HATCH
  5
74
330
17
100
AcDbEntity
  8
GAS
 62
7
420
14912579
100
AcDbHatch
 10
0.0
 20
0.0
 30
0.0
210
0.0
220
0.0
230
1.0
  2
SOLID
 70
1
 71
0
 91
1
 92
3
 72
1
 73
1
 93
8
 10
966.1
 20
163.0
 42
0.0
 10
1036.7
 20
163.0
 42
0.4142135623731064
 10
1040.7
 20
159.0
 42
0.0
 10
1040.7
 20
154.0
 42
0.4142135623731064
 10
1036.7
 20
150.0
 42
0.0
 10
966.1
 20
150.0
 42
0.4142135623731064
 10
962.1
 20
154.0
 42
0.0
 10
962.1
 20
159.0
 42
0.4142135623731064
 97
0
 75
0
 76
1
 98
0
  0
LWPOLYLINE
  5
75
330
17
100
AcDbEntity
  8
INTERLOCK
420
13979471
100
AcDbPolyline
 90
8
 70
1
 10
966.1
 20
163.0
 10
1036.7
 20
163.0
 42
0.4142135623731064
 10
1040.7
 20
159.0
 10
1040.7
 20
154.0
 42
0.4142135623731064
 10
1036.7
 20
150.0
 10
966.1
 20
150.0
 42
0.4142135623731064
 10
962.1
 20
154.0
 10
962.1
 20
159.0
 42
0.4142135623731064
  0
HATCH
  5
76
330
17
100
AcDbEntity
  8
GAS
 62
7
420
14912579
100
AcDbHatch
 10
0.0
 20
0.0
 30
0.0
210
0.0
220
0.0
230
1.0
  2
SOLID
 70
1
 71
0
 91
1
 92
3
 72
1
 73
1
 93
8
 10
1011.9
 20
140.0
 42
0.0
 10
1082.5
 20
140.0
 42
0.4142135623731064
 10
1086.5
 20
136.0
 42
0.0
 10
1086.5
 20
131.0
 42
0.4142135623731064
 10
1082.5
 20
127.0
 42
0.0
 10
1011.9
 20
127.0
 42
0.4142135623731064
 10
1007.9
 20
131.0
 42
0.0
 10
1007.9
 20
136.0
 42
0.4142135623731064
 97
0
 75
0
 76
1
 98
0
  0
HATCH
  5
77
330
17
100
AcDbEntity
  8
GAS
 62
7
100
AcDbHatch
 10
0.0
 20
0.0
 30
0.0
210
0.0
220
0.0
230
1.0
  2
SOLID
 70
1
 71
0
 91
1
 92
3
 72
0
 73
1
 93
4
 10
1079.967741935484
 20
117.5
 10
1086.967741935484
 20
110.5
 10
1079.967741935484
 20
103.5
 10
1072.967741935484
 20
110.5
 97
0
 75
0
 76
1
 98
0
  0
LWPOLYLINE
  5
78
330
17
100
AcDbEntity
  8
OUTLINE
100
AcDbPolyline
 90
4
 70
1
 10
1079.967741935484
 20
117.5
 10
1086.967741935484
 20
110.5
 10
1079.967741935484
 20
103.5
 10
1072.967741935484
 20
110.5
  0
LINE
  5
79
330
17
100
AcDbEntity
  8
DUST
420
13409994
100
AcDbLine
 10
4.0
 20
80.0
 30
0.0
 11
1158.0
 21
80.0
 31
0.0
  0
HATCH
  5
7A
330
17
100
AcDbEntity
  8
DUST
 62
7
420
11296936
100
AcDbHatch
 10
0.0
 20
0.0
 30
0.0
210
0.0
220
0.0
230
1.0
  2
SOLID
 70
1
 71
0
 91
1
 92
3
 72
1
 73
1
 93
8
 10
599.4
 20
71.0
 42
0.0
 10
1036.7
 20
71.0
 42
0.4142135623731064
 10
1040.7
 20
67.0
 42
0.0
 10
1040.7
 20
62.0
 42
0.4142135623731064
 10
1036.7
 20
58.0
 42
0.0
 10
599.4
 20
58.0
 42
0.4142135623731064
 10
595.4
 20
62.0
 42
0.0
 10
595.4
 20
67.0
 42
0.4142135623731064
 97
0
 75
0
 76
1
 98
0
  0
HATCH
  5
7B
330
17
100
AcDbEntity
  8
DUST
 62
7
420
11296936
100
AcDbHatch
 10
0.0
 20
0.0
 30
0.0
210
0.0
220
0.0
230
1.0
  2
SOLID
 70
1
 71
0
 91
1
 92
3
 72
1
 73
1
 93
8
 10
966.1
 20
48.0
 42
0.0
 10
1082.5
 20
48.0
 42
0.4142135623731064
 10
1086.5
 20
44.0
 42
0.0
 10
1086.5
 20
39.0
 42
0.4142135623731064
 10
1082.5
 20
35.0
 42
0.0
 10
966.1
 20
35.0
 42
0.4142135623731064
 10
962.1
 20
39.0
 42
0.0
 10
962.1
 20
44.0
 42
0.4142135623731064
 97
0
 75
0
 76
1
 98
0
  0
LINE
  5
7C
330
17
100
AcDbEntity
  8
OUTLINE
100
AcDbLine
 10
366.2
 20
757.0
 30
0.0
 11
366.2
 21
26.0
 31
0.0
  0
LINE
  5
7D
330
17
100
AcDbEntity
  8
INTERLOCK
  6
DASHED
100
AcDbLine
 10
1112.7
 20
757.0
 30
0.0
 11
1112.7
 21
26.0
 31
0.0
  0
TEXT
  5
7E
330
17
100
AcDbEntity
  8
TEXT_RU
420
8019650
100
AcDbText
 10
6.0
 20
728.0
 30
0.0
 40
8.05
  1
ДОГОВОР И ИД
  7
TXTRU
 11
6.0
 21
728.0
 31
0.0
100
AcDbText
  0
TEXT
  5
7F
330
17
100
AcDbEntity
  8
TEXT_RU
100
AcDbText
 10
14.0
 20
705.0
 30
0.0
 40
7.7
  1
Подписание договора, мобилизация команды
  7
TXTRU
 11
14.0
 21
705.0
 31
0.0
100
AcDbText
  0
TEXT
  5
80
330
17
100
AcDbEntity
  8
TEXT_RU
100
AcDbText
 10
403.9
 20
705.0
 30
0.0
 40
6.65
  1
08.09–12.09
  7
TXTRU
 11
403.9
 21
705.0
 31
0.0
100
AcDbText
  0
TEXT
  5
81
330
17
100
AcDbEntity
  8
TEXT_RU
100
AcDbText
 10
14.0
 20
682.0
 30
0.0
 40
7.7
  1
Генплан («вариант размещения») и ТУ от Заказчик…
  7
TXTRU
 11
14.0
 21
682.0
 31
0.0
100
AcDbText
  0
TEXT
  5
82
330
17
100
AcDbEntity
  8
TEXT_RU
100
AcDbText
 10
449.8
 20
682.0
 30
0.0
 40
6.65
  1
08.09–19.09
  7
TXTRU
 11
449.8
 21
682.0
 31
0.0
100
AcDbText
  0
TEXT
  5
83
330
17
100
AcDbEntity
  8
TEXT_RU
100
AcDbText
 10
14.0
 20
659.0
 30
0.0
 40
7.7
  1
Согласование ПО ЦИМ с Заказчиком (Model Studio …
  7
TXTRU
 11
14.0
 21
659.0
 31
0.0
100
AcDbText
  0
TEXT
  5
84
330
17
100
AcDbEntity
  8
TEXT_RU
100
AcDbText
 10
495.6
 20
659.0
 30
0.0
 40
6.65
  1
08.09–26.09
  7
TXTRU
 11
495.6
 21
659.0
 31
0.0
100
AcDbText
  0
TEXT
  5
85
330
17
100
AcDbEntity
  8
TEXT_RU
420
2783446
100
AcDbText
 10
6.0
 20
636.0
 30
0.0
 40
8.05
  1
ЭТАП 1 — ПРЕДВАРИТЕЛЬНЫЙ ОТЧЁТ
  7
TXTRU
 11
6.0
 21
636.0
 31
0.0
100
AcDbText
  0
TEXT
  5
86
330
17
100
AcDbEntity
  8
TEXT_RU
100
AcDbText
 10
14.0
 20
613.0
 30
0.0
 40
7.7
  1
Инженерная рецензия расчётной модели (21 блок, …
  7
TXTRU
 11
14.0
 21
613.0
 31
0.0
100
AcDbText
  0
TEXT
  5
87
330
17
100
AcDbEntity
  8
TEXT_RU
100
AcDbText
 10
495.6
 20
613.0
 30
0.0
 40
6.65
  1
08.09–26.09
  7
TXTRU
 11
495.6
 21
613.0
 31
0.0
100
AcDbText
  0
TEXT
  5
88
330
17
100
AcDbEntity
  8
TEXT_RU
100
AcDbText
 10
14.0
 20
590.0
 30
0.0
 40
7.7
  1
Доводка ПЗ четырёх лотов (черновики v0.1 → v1.0)
  7
TXTRU
 11
14.0
 21
590.0
 31
0.0
100
AcDbText
  0
TEXT
  5
89
330
17
100
AcDbEntity
  8
TEXT_RU
100
AcDbText
 10
633.1
 20
590.0
 30
0.0
 40
6.65
  1
08.09–17.10
  7
TXTRU
 11
633.1
 21
590.0
 31
0.0
100
AcDbText
  0
TEXT
  5
8A
330
17
100
AcDbEntity
  8
TEXT_RU
100
AcDbText
 10
14.0
 20
567.0
 30
0.0
 40
7.7
  1
PFD по лотам с границами проектирования
  7
TXTRU
 11
14.0
 21
567.0
 31
0.0
100
AcDbText
  0
TEXT
  5
8B
330
17
100
AcDbEntity
  8
TEXT_RU
100
AcDbText
 10
587.3
 20
567.0
 30
0.0
 40
6.65
  1
15.09–10.10
  7
TXTRU
 11
587.3
 21
567.0
 31
0.0
100
AcDbText
  0
TEXT
  5
8C
330
17
100
AcDbEntity
  8
TEXT_RU
100
AcDbText
 10
14.0
 20
544.0
 30
0.0
 40
7.7
  1
Компоновочные решения в CAD (после генплана)
  7
TXTRU
 11
14.0
 21
544.0
 31
0.0
100
AcDbText
  0
TEXT
  5
8D
330
17
100
AcDbEntity
  8
TEXT_RU
100
AcDbText
 10
679.0
 20
544.0
 30
0.0
 40
6.65
  1
22.09–24.10
  7
TXTRU
 11
679.0
 21
544.0
 31
0.0
100
AcDbText
  0
TEXT
  5
8E
330
17
100
AcDbEntity
  8
TEXT_RU
100
AcDbText
 10
14.0
 20
521.0
 30
0.0
 40
7.7
  1
Спецификации, опросные листы, исходные требован…
  7
TXTRU
 11
14.0
 21
521.0
 31
0.0
100
AcDbText
  0
TEXT
  5
8F
330
17
100
AcDbEntity
  8
TEXT_RU
100
AcDbText
 10
679.0
 20
521.0
 30
0.0
 40
6.65
  1
29.09–24.10
  7
TXTRU
 11
679.0
 21
521.0
 31
0.0
100
AcDbText
  0
TEXT
  5
90
330
17
100
AcDbEntity
  8
TEXT_RU
100
AcDbText
 10
14.0
 20
498.0
 30
0.0
 40
7.7
  1
Предварительная стоимостная оценка по укрупнённ…
  7
TXTRU
 11
14.0
 21
498.0
 31
0.0
100
AcDbText
  0
TEXT
  5
91
330
17
100
AcDbEntity
  8
TEXT_RU
100
AcDbText
 10
679.0
 20
498.0
 30
0.0
 40
6.65
  1
13.10–24.10
  7
TXTRU
 11
679.0
 21
498.0
 31
0.0
100
AcDbText
  0
TEXT
  5
92
330
17
100
AcDbEntity
  8
TEXT_RU
100
AcDbText
 10
14.0
 20
475.0
 30
0.0
 40
7.7
  1
Сборка, нормоконтроль, выпуск предварительного …
  7
TXTRU
 11
14.0
 21
475.0
 31
0.0
100
AcDbText
  0
TEXT
  5
93
330
17
100
AcDbEntity
  8
TEXT_RU
100
AcDbText
 10
724.8
 20
475.0
 30
0.0
 40
6.65
  1
20.10–31.10
  7
TXTRU
 11
724.8
 21
475.0
 31
0.0
100
AcDbText
  0
TEXT
  5
94
330
17
100
AcDbEntity
  8
TEXT_RU
100
AcDbText
 10
14.0
 20
452.0
 30
0.0
 40
7.7
  1
Предварительный отчёт БИ (Этап 1)
  7
TXTRU
 11
14.0
 21
452.0
 31
0.0
100
AcDbText
  0
TEXT
  5
95
330
17
100
AcDbEntity
  8
TEXT_RU
100
AcDbText
 10
724.258064516129
 20
452.0
 30
0.0
 40
7.0
  1
31.10
  7
TXTRU
 11
724.258064516129
 21
452.0
 31
0.0
100
AcDbText
  0
TEXT
  5
96
330
17
100
AcDbEntity
  8
TEXT_RU
100
AcDbText
 10
14.0
 20
429.0
 30
0.0
 40
7.7
  1
Ревизия Заказчика по Этапу 1 (цикл 1)
  7
TXTRU
 11
14.0
 21
429.0
 31
0.0
100
AcDbText
  0
TEXT
  5
97
330
17
100
AcDbEntity
  8
TEXT_RU
100
AcDbText
 10
816.5
 20
429.0
 30
0.0
 40
6.65
  1
03.11–14.11
  7
TXTRU
 11
816.5
 21
429.0
 31
0.0
100
AcDbText
  0
TEXT
  5
98
330
17
100
AcDbEntity
  8
TEXT_RU
420
828172
100
AcDbText
 10
6.0
 20
406.0
 30
0.0
 40
8.05
  1
ТКП-КАМПАНИЯ
  7
TXTRU
 11
6.0
 21
406.0
 31
0.0
100
AcDbText
  0
TEXT
  5
99
330
17
100
AcDbEntity
  8
TEXT_RU
100
AcDbText
 10
14.0
 20
383.0
 30
0.0
 40
7.7
  1
Рассылка запросов ТКП (114 поставщиков готовы)
  7
TXTRU
 11
14.0
 21
383.0
 31
0.0
100
AcDbText
  0
TEXT
  5
9A
330
17
100
AcDbEntity
  8
TEXT_RU
100
AcDbText
 10
495.6
 20
383.0
 30
0.0
 40
6.65
  1
08.09–26.09
  7
TXTRU
 11
495.6
 21
383.0
 31
0.0
100
AcDbText
  0
TEXT
  5
9B
330
17
100
AcDbEntity
  8
TEXT_RU
100
AcDbText
 10
14.0
 20
360.0
 30
0.0
 40
7.7
  1
Сбор и выравнивание бюджетных ТКП по основному …
  7
TXTRU
 11
14.0
 21
360.0
 31
0.0
100
AcDbText
  0
TEXT
  5
9C
330
17
100
AcDbEntity
  8
TEXT_RU
100
AcDbText
 10
954.0
 20
360.0
 30
0.0
 40
6.65
  1
29.09–05.12
  7
TXTRU
 11
954.0
 21
360.0
 31
0.0
100
AcDbText
  0
TEXT
  5
9D
330
17
100
AcDbEntity
  8
TEXT_RU
420
14712622
100
AcDbText
 10
6.0
 20
337.0
 30
0.0
 40
8.05
  1
ЭТАП 2 — ИТОГОВЫЙ ОТЧЁТ
  7
TXTRU
 11
6.0
 21
337.0
 31
0.0
100
AcDbText
  0
TEXT
  5
9E
330
17
100
AcDbEntity
  8
TEXT_RU
100
AcDbText
 10
14.0
 20
314.0
 30
0.0
 40
7.7
  1
Предварительные P&ID по участкам (по PFD и конт…
  7
TXTRU
 11
14.0
 21
314.0
 31
0.0
100
AcDbText
  0
TEXT
  5
9F
330
17
100
AcDbEntity
  8
TEXT_RU
100
AcDbText
 10
954.0
 20
314.0
 30
0.0
 40
6.65
  1
27.10–05.12
  7
TXTRU
 11
954.0
 21
314.0
 31
0.0
100
AcDbText
  0
TEXT
  5
A0
330
17
100
AcDbEntity
  8
TEXT_RU
100
AcDbText
 10
14.0
 20
291.0
 30
0.0
 40
7.7
  1
Планы предварительных нагрузок; фундаменты с ди…
  7
TXTRU
 11
14.0
 21
291.0
 31
0.0
100
AcDbText
  0
TEXT
  5
A1
330
17
100
AcDbEntity
  8
TEXT_RU
100
AcDbText
 10
908.2
 20
291.0
 30
0.0
 40
6.65
  1
03.11–28.11
  7
TXTRU
 11
908.2
 21
291.0
 31
0.0
100
AcDbText
  0
TEXT
  5
A2
330
17
100
AcDbEntity
  8
TEXT_RU
100
AcDbText
 10
14.0
 20
268.0
 30
0.0
 40
7.7
  1
Требования к монтажу (вес тяжелейших частей, по…
  7
TXTRU
 11
14.0
 21
268.0
 31
0.0
100
AcDbText
  0
TEXT
  5
A3
330
17
100
AcDbEntity
  8
TEXT_RU
100
AcDbText
 10
908.2
 20
268.0
 30
0.0
 40
6.65
  1
03.11–28.11
  7
TXTRU
 11
908.2
 21
268.0
 31
0.0
100
AcDbText
  0
TEXT
  5
A4
330
17
100
AcDbEntity
  8
TEXT_RU
100
AcDbText
 10
14.0
 20
245.0
 30
0.0
 40
7.7
  1
Однолинейные схемы + предварительный перечень э…
  7
TXTRU
 11
14.0
 21
245.0
 31
0.0
100
AcDbText
  0
TEXT
  5
A5
330
17
100
AcDbEntity
  8
TEXT_RU
100
AcDbText
 10
954.0
 20
245.0
 30
0.0
 40
6.65
  1
10.11–05.12
  7
TXTRU
 11
954.0
 21
245.0
 31
0.0
100
AcDbText
  0
TEXT
  5
A6
330
17
100
AcDbEntity
  8
TEXT_RU
100
AcDbText
 10
14.0
 20
222.0
 30
0.0
 40
7.7
  1
Line list ±20–30 % + спецификация критичных/дли…
  7
TXTRU
 11
14.0
 21
222.0
 31
0.0
100
AcDbText
  0
TEXT
  5
A7
330
17
100
AcDbEntity
  8
TEXT_RU
100
AcDbText
 10
999.8
 20
222.0
 30
0.0
 40
6.65
  1
24.11–12.12
  7
TXTRU
 11
999.8
 21
222.0
 31
0.0
100
AcDbText
  0
TEXT
  5
A8
330
17
100
AcDbEntity
  8
TEXT_RU
100
AcDbText
 10
14.0
 20
199.0
 30
0.0
 40
7.7
  1
Схема КТС АСУ; тепловыделения и вредности (по а…
  7
TXTRU
 11
14.0
 21
199.0
 31
0.0
100
AcDbText
  0
TEXT
  5
A9
330
17
100
AcDbEntity
  8
TEXT_RU
100
AcDbText
 10
954.0
 20
199.0
 30
0.0
 40
6.65
  1
17.11–05.12
  7
TXTRU
 11
954.0
 21
199.0
 31
0.0
100
AcDbText
  0
TEXT
  5
AA
330
17
100
AcDbEntity
  8
TEXT_RU
100
AcDbText
 10
14.0
 20
176.0
 30
0.0
 40
7.7
  1
Предварительные данные по выбросам (расчётно, д…
  7
TXTRU
 11
14.0
 21
176.0
 31
0.0
100
AcDbText
  0
TEXT
  5
AB
330
17
100
AcDbEntity
  8
TEXT_RU
100
AcDbText
 10
999.8
 20
176.0
 30
0.0
 40
6.65
  1
17.11–12.12
  7
TXTRU
 11
999.8
 21
176.0
 31
0.0
100
AcDbText
  0
TEXT
  5
AC
330
17
100
AcDbEntity
  8
TEXT_RU
100
AcDbText
 10
14.0
 20
153.0
 30
0.0
 40
7.7
  1
Стоимостной блок: бюджетная оценка комплектной …
  7
TXTRU
 11
14.0
 21
153.0
 31
0.0
100
AcDbText
  0
TEXT
  5
AD
330
17
100
AcDbEntity
  8
TEXT_RU
100
AcDbText
 10
1045.7
 20
153.0
 30
0.0
 40
6.65
  1
08.12–19.12
  7
TXTRU
 11
1045.7
 21
153.0
 31
0.0
100
AcDbText
  0
TEXT
  5
AE
330
17
100
AcDbEntity
  8
TEXT_RU
100
AcDbText
 10
14.0
 20
130.0
 30
0.0
 40
7.7
  1
Сборка, нормоконтроль, выпуск итогового отчёта
  7
TXTRU
 11
14.0
 21
130.0
 31
0.0
100
AcDbText
  0
TEXT
  5
AF
330
17
100
AcDbEntity
  8
TEXT_RU
100
AcDbText
 10
1091.5
 20
130.0
 30
0.0
 40
6.65
  1
15.12–26.12
  7
TXTRU
 11
1091.5
 21
130.0
 31
0.0
100
AcDbText
  0
TEXT
  5
B0
330
17
100
AcDbEntity
  8
TEXT_RU
100
AcDbText
 10
14.0
 20
107.0
 30
0.0
 40
7.7
  1
Итоговый отчёт БИ (Этап 2) — до Нового года
  7
TXTRU
 11
14.0
 21
107.0
 31
0.0
100
AcDbText
  0
TEXT
  5
B1
330
17
100
AcDbEntity
  8
TEXT_RU
100
AcDbText
 10
1090.967741935484
 20
107.0
 30
0.0
 40
7.0
  1
26.12
  7
TXTRU
 11
1090.967741935484
 21
107.0
 31
0.0
100
AcDbText
  0
TEXT
  5
B2
330
17
100
AcDbEntity
  8
TEXT_RU
420
10702494
100
AcDbText
 10
6.0
 20
84.0
 30
0.0
 40
8.05
  1
ЦИМ
  7
TXTRU
 11
6.0
 21
84.0
 31
0.0
100
AcDbText
  0
TEXT
  5
B3
330
17
100
AcDbEntity
  8
TEXT_RU
100
AcDbText
 10
14.0
 20
61.0
 30
0.0
 40
7.7
  1
ЦИМ стадии БИ: модели ТХ + ЭОМ/СС/АК (LOD/LOI п…
  7
TXTRU
 11
14.0
 21
61.0
 31
0.0
100
AcDbText
  0
TEXT
  5
B4
330
17
100
AcDbEntity
  8
TEXT_RU
100
AcDbText
 10
1045.7
 20
61.0
 30
0.0
 40
6.65
  1
13.10–19.12
  7
TXTRU
 11
1045.7
 21
61.0
 31
0.0
100
AcDbText
  0
TEXT
  5
B5
330
17
100
AcDbEntity
  8
TEXT_RU
100
AcDbText
 10
14.0
 20
38.0
 30
0.0
 40
7.7
  1
Сводная модель, проверка коллизий, «Описание ЦИ…
  7
TXTRU
 11
14.0
 21
38.0
 31
0.0
100
AcDbText
  0
TEXT
  5
B6
330
17
100
AcDbEntity
  8
TEXT_RU
100
AcDbText
 10
1091.5
 20
38.0
 30
0.0
 40
6.65
  1
08.12–26.12
  7
TXTRU
 11
1091.5
 21
38.0
 31
0.0
100
AcDbText
  0
TEXT
  5
B7
330
17
100
AcDbEntity
  8
TEXT_RU
100
AcDbText
 10
366.2
 20
14.0
 30
0.0
 40
7.0
  1
T0 — старт работ
  7
TXTRU
 72
1
 11
366.2
 21
14.0
 31
0.0
100
AcDbText
  0
TEXT
  5
B8
330
17
100
AcDbEntity
  8
TEXT_RU
420
13646651
100
AcDbText
 10
1112.7
 20
14.0
 30
0.0
 40
7.0
  1
НГ
  7
TXTRU
 72
1
 11
1112.7
 21
14.0
 31
0.0
100
AcDbText
  0
ENDSEC
  0
SECTION
  2
OBJECTS
  0
DICTIONARY
  5
A
330
0
100
AcDbDictionary
281
1
  3
ACAD_COLOR
350
B
  3
ACAD_GROUP
350
C
  3
ACAD_LAYOUT
350
D
  3
ACAD_MATERIAL
350
E
  3
ACAD_MLEADERSTYLE
350
F
  3
ACAD_MLINESTYLE
350
10
  3
ACAD_PLOTSETTINGS
350
11
  3
ACAD_PLOTSTYLENAME
350
12
  3
ACAD_SCALELIST
350
14
  3
ACAD_TABLESTYLE
350
15
  3
ACAD_VISUALSTYLE
350
16
  3
EZDXF_META
350
2D
  0
DICTIONARY
  5
B
330
A
100
AcDbDictionary
281
1
  0
DICTIONARY
  5
C
330
A
100
AcDbDictionary
281
1
  0
DICTIONARY
  5
D
330
A
100
AcDbDictionary
281
1
  3
Model
350
1A
  3
Layout1
350
1E
  0
DICTIONARY
  5
E
330
A
100
AcDbDictionary
281
1
  3
ByBlock
350
1F
  3
ByLayer
350
20
  3
Global
350
21
  0
DICTIONARY
  5
F
330
A
100
AcDbDictionary
281
1
  3
Standard
350
2C
  0
DICTIONARY
  5
10
330
A
100
AcDbDictionary
281
1
  3
Standard
350
22
  0
DICTIONARY
  5
11
330
A
100
AcDbDictionary
281
1
  0
ACDBDICTIONARYWDFLT
  5
12
330
A
100
AcDbDictionary
281
1
  3
Normal
350
13
100
AcDbDictionaryWithDefault
340
13
  0
ACDBPLACEHOLDER
  5
13
330
12
  0
DICTIONARY
  5
14
330
A
100
AcDbDictionary
281
1
  0
DICTIONARY
  5
15
330
A
100
AcDbDictionary
281
1
  0
DICTIONARY
  5
16
330
A
100
AcDbDictionary
281
1
  0
LAYOUT
  5
1A
330
D
100
AcDbPlotSettings
  1

  4
A3
  6

 40
7.5
 41
20.0
 42
7.5
 43
20.0
 44
420.0
 45
297.0
 46
0.0
 47
0.0
 48
0.0
 49
0.0
140
0.0
141
0.0
142
1.0
143
1.0
 70
1024
 72
1
 73
0
 74
5
  7

 75
16
 76
0
 77
2
 78
300
147
1.0
148
0.0
149
0.0
100
AcDbLayout
  1
Model
 70
1
 71
0
 10
0.0
 20
0.0
 11
1164.0
 21
779.0
 12
0.0
 22
0.0
 32
0.0
 14
-0.01
 24
-0.01
 34
0.0
 15
1164.0
 25
779.0
 35
0.0
146
0.0
 13
0.0
 23
0.0
 33
0.0
 16
1.0
 26
0.0
 36
0.0
 17
0.0
 27
1.0
 37
0.0
 76
1
330
17
  0
LAYOUT
  5
1E
330
D
100
AcDbPlotSettings
  1

  4
A3
  6

 40
7.5
 41
20.0
 42
7.5
 43
20.0
 44
420.0
 45
297.0
 46
0.0
 47
0.0
 48
0.0
 49
0.0
140
0.0
141
0.0
142
1.0
143
1.0
 70
0
 72
1
 73
0
 74
5
  7

 75
16
 76
0
 77
2
 78
300
147
1.0
148
0.0
149
0.0
100
AcDbLayout
  1
Layout1
 70
1
 71
1
 10
0.0
 20
0.0
 11
420.0
 21
297.0
 12
0.0
 22
0.0
 32
0.0
 14
1e+20
 24
1e+20
 34
1e+20
 15
-1e+20
 25
-1e+20
 35
-1e+20
146
0.0
 13
0.0
 23
0.0
 33
0.0
 16
1.0
 26
0.0
 36
0.0
 17
0.0
 27
1.0
 37
0.0
 76
1
330
1B
  0
MATERIAL
  5
1F
102
{ACAD_REACTORS
330
E
102
}
330
E
100
AcDbMaterial
  1
ByBlock
  2

 70
0
 40
1.0
 71
1
 41
1.0
 91
-1023410177
 42
1.0
 72
1
  3

 73
1
 74
1
 75
1
 44
0.5
 73
0
 45
1.0
 46
1.0
 77
1
  4

 78
1
 79
1
170
1
 48
1.0
171
1
  6

172
1
173
1
174
1
140
1.0
141
1.0
175
1
  7

176
1
177
1
178
1
143
1.0
179
1
  8

270
1
271
1
272
1
145
1.0
146
1.0
273
1
  9

274
1
275
1
276
1
 42
1.0
 72
1
  3

 73
1
 74
1
 75
1
 94
63
  0
MATERIAL
  5
20
102
{ACAD_REACTORS
330
E
102
}
330
E
100
AcDbMaterial
  1
ByLayer
  2

 70
0
 40
1.0
 71
1
 41
1.0
 91
-1023410177
 42
1.0
 72
1
  3

 73
1
 74
1
 75
1
 44
0.5
 73
0
 45
1.0
 46
1.0
 77
1
  4

 78
1
 79
1
170
1
 48
1.0
171
1
  6

172
1
173
1
174
1
140
1.0
141
1.0
175
1
  7

176
1
177
1
178
1
143
1.0
179
1
  8

270
1
271
1
272
1
145
1.0
146
1.0
273
1
  9

274
1
275
1
276
1
 42
1.0
 72
1
  3

 73
1
 74
1
 75
1
 94
63
  0
MATERIAL
  5
21
102
{ACAD_REACTORS
330
E
102
}
330
E
100
AcDbMaterial
  1
Global
  2

 70
0
 40
1.0
 71
1
 41
1.0
 91
-1023410177
 42
1.0
 72
1
  3

 73
1
 74
1
 75
1
 44
0.5
 73
0
 45
1.0
 46
1.0
 77
1
  4

 78
1
 79
1
170
1
 48
1.0
171
1
  6

172
1
173
1
174
1
140
1.0
141
1.0
175
1
  7

176
1
177
1
178
1
143
1.0
179
1
  8

270
1
271
1
272
1
145
1.0
146
1.0
273
1
  9

274
1
275
1
276
1
 42
1.0
 72
1
  3

 73
1
 74
1
 75
1
 94
63
  0
MLINESTYLE
  5
22
102
{ACAD_REACTORS
330
10
102
}
330
10
100
AcDbMlineStyle
  2
Standard
 70
0
  3

 62
256
 51
90.0
 52
90.0
 71
2
 49
0.5
 62
256
  6
BYLAYER
 49
-0.5
 62
256
  6
BYLAYER
  0
MLEADERSTYLE
  5
2C
102
{ACAD_REACTORS
330
F
102
}
330
F
100
AcDbMLeaderStyle
179
2
170
2
171
1
172
0
 90
2
 40
0.0
 41
0.0
173
1
 91
-1056964608
 92
-2
290
1
 42
2.0
291
1
 43
8.0
  3
Standard
 44
4.0
300

342
29
174
1
175
1
176
0
178
1
 93
-1056964608
 45
4.0
292
0
297
0
 46
4.0
 94
-1056964608
 47
1.0
 49
1.0
140
1.0
294
1
141
0.0
177
0
142
1.0
295
0
296
0
143
3.75
271
0
272
9
273
9
  0
DICTIONARY
  5
2D
330
A
100
AcDbDictionary
280
1
281
1
  3
CREATED_BY_EZDXF
350
2E
  3
WRITTEN_BY_EZDXF
350
BB
  0
DICTIONARYVAR
  5
2E
330
2D
100
DictionaryVariables
280
0
  1
1.4.4 @ 2026-08-28T02:58:57.850819+00:00
  0
DICTIONARYVAR
  5
BB
330
2D
100
DictionaryVariables
280
0
  1
1.4.4 @ 2026-08-28T02:58:57.859139+00:00
  0
ENDSEC
  0
EOF
