ISO-10303-21;
HEADER;
FILE_DESCRIPTION(('ViewDefinition [ReferenceView]'),'2;1');
FILE_NAME('ove75-equip-lot4.ifc','2026-08-28T03:10:55',('\X2\041E041E041E\X0\ \X2\00AB041A04120410041D042200BB\X0\'),('\X2\041E041E041E\X0\ \X2\00AB041A04120410041D042200BB\X0\'),'IfcOpenShell 0.8.5-1c5b825','ove/tools/equip2ifc.py (IfcOpenShell)','\X2\043F0440043E0435043A0442\X0\ \X2\041E0412042D\X0\-75, \X2\04410442043004340438044F\X0\ \X2\04110418\X0\');
FILE_SCHEMA(('IFC4'));
ENDSEC;
DATA;
#1=IFCSIUNIT(*,.LENGTHUNIT.,.MILLI.,.METRE.);
#2=IFCSIUNIT(*,.AREAUNIT.,$,.SQUARE_METRE.);
#3=IFCSIUNIT(*,.VOLUMEUNIT.,$,.CUBIC_METRE.);
#4=IFCUNITASSIGNMENT((#1,#2,#3));
#5=IFCCARTESIANPOINT((0.,0.,0.));
#6=IFCAXIS2PLACEMENT3D(#5,$,$);
#7=IFCGEOMETRICREPRESENTATIONCONTEXT($,'Model',3,1.0000000000000001E-05,#6,$);
#8=IFCPROJECT('1kYPJBJoSqg4BDLtyKHoOd',$,'\X2\041E0412042D\X0\-75 \X2\00B7\X0\ \X2\041E0431043E044004430434043E04320430043D04380435\X0\ \X2\043B043E04420430\X0\ \X2\2116\X0\4','\X2\041104380431043B0438043E04420435043A0430\X0\ \X2\04420438043F043E0432\X0\ \X2\043E0431043E044004430434043E04320430043D0438044F\X0\ \X2\043F043E\X0\ ove/data/equipment.json (\X2\04410442043004340438044F\X0\ \X2\04110418\X0\)',$,$,$,(#7),#4);
#9=IFCPROPERTYSINGLEVALUE('\X2\041D04300438043C0435043D043E04320430043D04380435\X0\',$,IFCTEXT('\X2\041E0431043E044004430434043E04320430043D04380435\X0\ \X2\0434043B044F\X0\ \X2\04370430044904380442043D043E0439\X0\ \X2\0443043F0430043A043E0432043A0438\X0\ \X2\043C04350434043D044B0445\X0\ \X2\043A04300442043E0434043E0432\X0\'),$);
#10=IFCPROPERTYSINGLEVALUE('\X2\041B043E0442\X0\',$,IFCINTEGER(4),$);
#11=IFCPROPERTYSINGLEVALUE('\X2\041A043E043B043804470435044104420432043E\X0\',$,IFCTEXT('\X2\041A043E043C043F043B0435043A0442\X0\'),$);
#12=IFCPROPERTYSET('25O3A_8046mCThX0Jnlutx',$,'Pset_KVANT_LOI',$,(#9,#10,#11));
#13=IFCBUILDINGELEMENTPROXYTYPE('0gH7SHzJrPQEqqoC2eQ7oI',$,'\X2\041E0431043E044004430434043E04320430043D04380435\X0\ \X2\0434043B044F\X0\ \X2\04370430044904380442043D043E0439\X0\ \X2\0443043F0430043A043E0432043A0438\X0\ \X2\043C04350434043D044B0445\X0\ \X2\043A04300442043E0434043E0432\X0\','\X2\04170430044904380442043D0430044F\X0\ \X2\0443043F0430043A043E0432043A0430\X0\ \X2\043F0430043A04350442043E0432\X0\ \X2\043A04300442043E0434043E0432\X0\',$,(#12),$,'\X2\041E0412042D\X0\75-\X2\041B\X0\4-59','\X2\0423043F0430043A043E0432043A0430\X0\',.USERDEFINED.);
#14=IFCPROPERTYSINGLEVALUE('\X2\041D04300438043C0435043D043E04320430043D04380435\X0\',$,IFCTEXT('\X2\041E0431043E044004430434043E04320430043D04380435\X0\ \X2\0434043B044F\X0\ \X2\043C04300440043A04380440043E0432043A0438\X0\ \X2\0438\X0\ \X2\043F043E04340433043E0442043E0432043A0438\X0\ \X2\043A\X0\ \X2\044204400430043D0441043F043E0440044204380440043E0432043A0435\X0\ \X2\043F0430043A04350442043E0432\X0\'),$);
#15=IFCPROPERTYSINGLEVALUE('\X2\041B043E0442\X0\',$,IFCINTEGER(4),$);
#16=IFCPROPERTYSINGLEVALUE('\X2\041A043E043B043804470435044104420432043E\X0\',$,IFCTEXT('\X2\041A043E043C043F043B0435043A0442\X0\'),$);
#17=IFCPROPERTYSET('3CVJid8yUOgDyS0yZ$KhGc',$,'Pset_KVANT_LOI',$,(#14,#15,#16));
#18=IFCBUILDINGELEMENTPROXYTYPE('0n5_YmqN5U6PRpCjV0JYdm',$,'\X2\041E0431043E044004430434043E04320430043D04380435\X0\ \X2\0434043B044F\X0\ \X2\043C04300440043A04380440043E0432043A0438\X0\ \X2\0438\X0\ \X2\043F043E04340433043E0442043E0432043A0438\X0\ \X2\043A\X0\ \X2\044204400430043D0441043F043E0440044204380440043E0432043A0435\X0\ \X2\043F0430043A04350442043E0432\X0\','\X2\041C04300440043A04380440043E0432043A0430\X0\ \X2\043F04300440044204380439\X0\ \X2\0438\X0\ \X2\043F043E04340433043E0442043E0432043A0430\X0\ \X2\043A\X0\ \X2\043E04420433044004430437043A0435\X0\',$,(#17),$,'\X2\041E0412042D\X0\75-\X2\041B\X0\4-60','\X2\041C04300440043A04380440043E0432043A0430\X0\',.USERDEFINED.);
#19=IFCPROPERTYSINGLEVALUE('\X2\041D04300438043C0435043D043E04320430043D04380435\X0\',$,IFCTEXT('\X2\041E0431043E044004430434043E04320430043D04380435\X0\ \X2\043A043E043C043C04350440044704350441043A043E0433043E\X0\ \X2\04430447045104420430\X0\ \X2\0438\X0\ \X2\0444043E0440043C04380440043E04320430043D0438044F\X0\ \X2\043F04300440044204380439\X0\'),$);
#20=IFCPROPERTYSINGLEVALUE('\X2\041B043E0442\X0\',$,IFCINTEGER(4),$);
#21=IFCPROPERTYSINGLEVALUE('\X2\041A043E043B043804470435044104420432043E\X0\',$,IFCTEXT('\X2\041A043E043C043F043B0435043A0442\X0\'),$);
#22=IFCPROPERTYSET('04dSZcaDcvSiNie6FM4qUL',$,'Pset_KVANT_LOI',$,(#19,#20,#21));
#23=IFCBUILDINGELEMENTPROXYTYPE('3_$tXiDoM1oWgD1TGz2ROa',$,'\X2\041E0431043E044004430434043E04320430043D04380435\X0\ \X2\043A043E043C043C04350440044704350441043A043E0433043E\X0\ \X2\04430447045104420430\X0\ \X2\0438\X0\ \X2\0444043E0440043C04380440043E04320430043D0438044F\X0\ \X2\043F04300440044204380439\X0\','\X2\04120437043204350448043804320430043D04380435\X0\, \X2\0443044704510442\X0\, \X2\0444043E0440043C04380440043E04320430043D04380435\X0\ \X2\043E04420433044004430437043E0447043D044B0445\X0\ \X2\043F04300440044204380439\X0\ \X2\0441\X0\ \X2\043E0444043E0440043C043B0435043D04380435043C\X0\ \X2\044104420430043D04340430044004420438043704380440043E04320430043D043D043E0439\X0\ \X2\0441043E043F0440043E0432043E0434043804420435043B044C043D043E0439\X0\ \X2\0434043E043A0443043C0435043D04420430044604380438\X0\',$,(#22),$,'\X2\041E0412042D\X0\75-\X2\041B\X0\4-61','\X2\0423044704510442\X0\',.USERDEFINED.);
#24=IFCPROPERTYSINGLEVALUE('\X2\041D04300438043C0435043D043E04320430043D04380435\X0\',$,IFCTEXT('\X2\041E0431043E044004430434043E04320430043D04380435\X0\ \X2\043E04420433044004430437043A0438\X0\ \X2\043F04300440044204380439\X0\ \X2\0432\X0\ \X2\0436\X0\/\X2\0434\X0\ \X2\0438\X0\ \X2\043004320442043E043C043E04310438043B044C043D044B0439\X0\ \X2\044204400430043D0441043F043E04400442\X0\'),$);
#25=IFCPROPERTYSINGLEVALUE('\X2\041B043E0442\X0\',$,IFCINTEGER(4),$);
#26=IFCPROPERTYSINGLEVALUE('\X2\041A043E043B043804470435044104420432043E\X0\',$,IFCTEXT('\X2\041A043E043C043F043B0435043A0442\X0\'),$);
#27=IFCPROPERTYSET('2v_7I3SDLCFqoLtojOpcD7',$,'Pset_KVANT_LOI',$,(#24,#25,#26));
#28=IFCBUILDINGELEMENTPROXYTYPE('3hqOWCKZiX3w4ABzU8UbF9',$,'\X2\041E0431043E044004430434043E04320430043D04380435\X0\ \X2\043E04420433044004430437043A0438\X0\ \X2\043F04300440044204380439\X0\ \X2\0432\X0\ \X2\0436\X0\/\X2\0434\X0\ \X2\0438\X0\ \X2\043004320442043E043C043E04310438043B044C043D044B0439\X0\ \X2\044204400430043D0441043F043E04400442\X0\','\X2\041004320442043E043C043004420438044704350441043A0430044F\X0\ \X2\043E04420433044004430437043A0430\X0\ \X2\04410444043E0440043C04380440043E04320430043D043D044B0445\X0\ \X2\043F04300440044204380439\X0\',$,(#27),$,'\X2\041E0412042D\X0\75-\X2\041B\X0\4-62','\X2\041E04420433044004430437043A0430\X0\',.USERDEFINED.);
#29=IFCPROPERTYSINGLEVALUE('\X2\041D04300438043C0435043D043E04320430043D04380435\X0\',$,IFCTEXT('\X2\04210438044104420435043C0430\X0\ \X2\043004320442043E043C043004420438044704350441043A043E0433043E\X0\ \X2\0441043A043B0430043404380440043E04320430043D0438044F\X0\ \X2\0441\X0\ \X2\043F043E043404410438044104420435043C0430043C0438\X0\ \X2\043F043E0437043804460438043E043D04380440043E04320430043D0438044F\X0\'),$);
#30=IFCPROPERTYSINGLEVALUE('\X2\041B043E0442\X0\',$,IFCINTEGER(4),$);
#31=IFCPROPERTYSINGLEVALUE('\X2\041A043E043B043804470435044104420432043E\X0\',$,IFCTEXT('\X2\041A043E043C043F043B0435043A0442\X0\'),$);
#32=IFCPROPERTYSET('13WEpO7HPI37VyAz03yOin',$,'Pset_KVANT_LOI',$,(#29,#30,#31));
#33=IFCBUILDINGELEMENTPROXYTYPE('3vycN4NrlI6SjpLnGhoABV',$,'\X2\04210438044104420435043C0430\X0\ \X2\043004320442043E043C043004420438044704350441043A043E0433043E\X0\ \X2\0441043A043B0430043404380440043E04320430043D0438044F\X0\ \X2\0441\X0\ \X2\043F043E043404410438044104420435043C0430043C0438\X0\ \X2\043F043E0437043804460438043E043D04380440043E04320430043D0438044F\X0\','\X2\041F044004380451043C043A0430\X0\ \X2\043F0430043A04350442043E0432\X0\ \X2\0441\X0\ \X2\0432044B0445043E0434043D043E0433043E\X0\ \X2\043A043E043D043204350439043504400430\X0\ \X2\041A0421041C\X0\, \X2\044004300437043C043504490435043D04380435\X0\ \X2\043F043E\X0\ \X2\043F0430044004420438044F043C\X0\, \X2\043E04420433044004430437043A0430\X0\ \X2\2014\X0\ \X2\043204410451\X0\ \X2\0432\X0\ \X2\043004320442043E043C043004420438044704350441043A043E043C\X0\ \X2\0440043504360438043C0435\X0\',$,(#32),$,'\X2\041E0412042D\X0\75-\X2\041B\X0\4-63','\X2\0421043A043B0430043404380440043E04320430043D04380435\X0\',.USERDEFINED.);
#34=IFCRELDECLARES('33uUW_xIDQLMb4p5jL$egp',$,$,$,#8,(#13,#18,#23,#28,#33));
ENDSEC;
END-ISO-10303-21;
