ISO-10303-21;
HEADER;
FILE_DESCRIPTION(('ViewDefinition [ReferenceView]'),'2;1');
FILE_NAME('ove75-equip-lot0.ifc','2026-08-28T03:10:55',('\X2\041E041E041E\X0\ \X2\00AB041A04120410041D042200BB\X0\'),('\X2\041E041E041E\X0\ \X2\00AB041A04120410041D042200BB\X0\'),'IfcOpenShell 0.8.5-1c5b825','ove/tools/equip2ifc.py (IfcOpenShell)','\X2\043F0440043E0435043A0442\X0\ \X2\041E0412042D\X0\-75, \X2\04410442043004340438044F\X0\ \X2\04110418\X0\');
FILE_SCHEMA(('IFC4'));
ENDSEC;
DATA;
#1=IFCSIUNIT(*,.LENGTHUNIT.,.MILLI.,.METRE.);
#2=IFCSIUNIT(*,.AREAUNIT.,$,.SQUARE_METRE.);
#3=IFCSIUNIT(*,.VOLUMEUNIT.,$,.CUBIC_METRE.);
#4=IFCUNITASSIGNMENT((#1,#2,#3));
#5=IFCCARTESIANPOINT((0.,0.,0.));
#6=IFCAXIS2PLACEMENT3D(#5,$,$);
#7=IFCGEOMETRICREPRESENTATIONCONTEXT($,'Model',3,1.0000000000000001E-05,#6,$);
#8=IFCPROJECT('0zQvTfIDFWLMz_ylSIMLlO',$,'\X2\041E0412042D\X0\-75 \X2\00B7\X0\ \X2\041E0431043E044004430434043E04320430043D04380435\X0\ \X2\0432043D0435\X0\ \X2\04110418\X0\ (\X2\043B043E0442\X0\ 0)','\X2\041104380431043B0438043E04420435043A0430\X0\ \X2\04420438043F043E0432\X0\ \X2\043E0431043E044004430434043E04320430043D0438044F\X0\ \X2\043F043E\X0\ ove/data/equipment.json (\X2\04410442043004340438044F\X0\ \X2\04110418\X0\)',$,$,$,(#7),#4);
#9=IFCPROPERTYSINGLEVALUE('\X2\041F043E0437043804460438044F\X0\',$,IFCIDENTIFIER('4.1.10, 4.1.11'),$);
#10=IFCPROPERTYSINGLEVALUE('\X2\041D04300438043C0435043D043E04320430043D04380435\X0\',$,IFCTEXT('\X2\0413043E043B043E0432043D044B0435\X0\ \X2\044004350430043A0442043E0440044B\X0\-\X2\04400435043F0443043B044C043F04300442043E0440044B\X0\'),$);
#11=IFCPROPERTYSINGLEVALUE('\X2\041B043E0442\X0\',$,IFCINTEGER(0),$);
#12=IFCPROPERTYSINGLEVALUE('\X2\041C043004420435044004380430043B\X0\',$,IFCTEXT('Hastelloy G-35 (Haynes Int.) \X2\0438043B0438\X0\ \X2\0430043D0430043B043E0433\X0\; \X2\0434043E043F0443044104420438043C0430\X0\ \X2\044104420430043B044C\X0\ 904L'),$);
#13=IFCPROPERTYSINGLEVALUE('\X2\041A043E043B043804470435044104420432043E\X0\',$,IFCTEXT('2 \X2\043F043004400430043B043B0435043B044C043D043E\X0\ (\X2\043E04340438043D\X0\ \X2\043404430431043B04380440044304350442\X0\ \X2\0434044004430433043E0439\X0\ \X2\043D0430\X0\ \X2\043F043504400438043E0434\X0\ \X2\0447043804410442043A0438\X0\ \X2\043304300440043D04380441043004360430\X0\)'),$);
#14=IFCPROPERTYSET('19auzWxBhaAI9dGOO7stMB',$,'Pset_KVANT_LOI',$,(#9,#10,#11,#12,#13));
#15=IFCCARTESIANPOINT((0.,0.));
#16=IFCAXIS2PLACEMENT2D(#15,$);
#17=IFCRECTANGLEPROFILEDEF(.AREA.,$,#16,2154.4346900318837,2154.4346900318837);
#18=IFCCARTESIANPOINT((0.,0.,0.));
#19=IFCAXIS2PLACEMENT3D(#18,$,$);
#20=IFCDIRECTION((0.,0.,1.));
#21=IFCEXTRUDEDAREASOLID(#17,#19,#20,2154.4346900318837);
#22=IFCSHAPEREPRESENTATION(#7,'Body','SweptSolid',(#21));
#23=IFCCARTESIANPOINT((0.,0.,0.));
#24=IFCAXIS2PLACEMENT3D(#23,$,$);
#25=IFCREPRESENTATIONMAP(#24,#22);
#26=IFCTANKTYPE('3VBTpD0kKNUC48Y6vfE9UR',$,'\X2\0413043E043B043E0432043D044B0435\X0\ \X2\044004350430043A0442043E0440044B\X0\-\X2\04400435043F0443043B044C043F04300442043E0440044B\X0\','\X2\041D043004470430043B043E\X0\ \X2\0432044B04490435043B04300447043804320430043D0438044F\X0\ \X2\043E043304300440043A0430\X0\; \X2\043C0430043A04410438043C0430043B044C043D043E\X0\ \X2\0438043D04420435043D044104380432043D043E0435\X0\ \X2\043F043504400435043C04350448043804320430043D04380435\X0\, \X2\043A043E043D0438044704350441043A043E0435\X0\ \X2\0434043D043804490435\X0\, \X2\04400435044604380440043A0443043B044F04460438044F\X0\ \X2\043F0443043B044C043F044B\X0\ \X2\043B04380431043E\X0\ \X2\0432043E0437043404430448043D044B0439\X0\ \X2\0430044D0440043E043B043804440442\X0\',$,(#14),(#25),'\X2\041E0412042D\X0\75-\X2\041B\X0\0-64','\X2\0412044B04490435043B04300447043804320430043D04380435\X0\ (\X2\0432043D0435\X0\ \X2\04110418\X0\, \X2\0434043B044F\X0\ \X2\04430432044F0437043A0438\X0\ \X2\043304400430043D04380446\X0\)',.USERDEFINED.);
#27=IFCPROPERTYSINGLEVALUE('\X2\041F043E0437043804460438044F\X0\',$,IFCIDENTIFIER('4.1.12\X2\2013\X0\4.1.14'),$);
#28=IFCPROPERTYSINGLEVALUE('\X2\041D04300438043C0435043D043E04320430043D04380435\X0\',$,IFCTEXT('\X2\041E0441043D043E0432043D044B0435\X0\ \X2\044004350430043A0442043E0440044B\X0\ \X2\043A04300441043A043004340430\X0\ \X2\0432044B04490435043B04300447043804320430043D0438044F\X0\'),$);
#29=IFCPROPERTYSINGLEVALUE('\X2\041B043E0442\X0\',$,IFCINTEGER(0),$);
#30=IFCPROPERTYSINGLEVALUE('\X2\041C043004420435044004380430043B\X0\',$,IFCTEXT('Hastelloy G-35 \X2\0438043B0438\X0\ 904L'),$);
#31=IFCPROPERTYSINGLEVALUE('\X2\041A043E043B043804470435044104420432043E\X0\',$,IFCINTEGER(4),$);
#32=IFCPROPERTYSET('2_ZiMENnLMEPpJPzUhUevC',$,'Pset_KVANT_LOI',$,(#27,#28,#29,#30,#31));
#33=IFCCARTESIANPOINT((0.,0.));
#34=IFCAXIS2PLACEMENT2D(#33,$);
#35=IFCRECTANGLEPROFILEDEF(.AREA.,$,#34,4481.4047465571639,4481.4047465571639);
#36=IFCCARTESIANPOINT((0.,0.,0.));
#37=IFCAXIS2PLACEMENT3D(#36,$,$);
#38=IFCDIRECTION((0.,0.,1.));
#39=IFCEXTRUDEDAREASOLID(#35,#37,#38,4481.4047465571639);
#40=IFCSHAPEREPRESENTATION(#7,'Body','SweptSolid',(#39));
#41=IFCCARTESIANPOINT((0.,0.,0.));
#42=IFCAXIS2PLACEMENT3D(#41,$,$);
#43=IFCREPRESENTATIONMAP(#42,#40);
#44=IFCTANKTYPE('0Jb8jKd5vG3SNujXx5YXxF',$,'\X2\041E0441043D043E0432043D044B0435\X0\ \X2\044004350430043A0442043E0440044B\X0\ \X2\043A04300441043A043004340430\X0\ \X2\0432044B04490435043B04300447043804320430043D0438044F\X0\','\X2\041E0441043D043E0432043D043E0435\X0\ \X2\0432044B04490435043B04300447043804320430043D04380435\X0\ \X2\043E043304300440043A0430\X0\ \X2\0432\X0\ \X2\043E0431043E0440043E0442043D043E043C\X0\ \X2\04400430044104420432043E04400435\X0\ \X2\043E0442\X0\ \X2\044D043B0435043A04420440043E044D043A0441044204400430043A044604380438\X0\',$,(#32),(#43),'\X2\041E0412042D\X0\75-\X2\041B\X0\0-65','\X2\0412044B04490435043B04300447043804320430043D04380435\X0\ (\X2\0432043D0435\X0\ \X2\04110418\X0\)',.USERDEFINED.);
#45=IFCPROPERTYSINGLEVALUE('\X2\041F043E0437043804460438044F\X0\',$,IFCIDENTIFIER('4.1.15'),$);
#46=IFCPROPERTYSINGLEVALUE('\X2\041D04300438043C0435043D043E04320430043D04380435\X0\',$,IFCTEXT('\X2\04110443044404350440043D044B0439\X0\ \X2\044004350430043A0442043E0440\X0\'),$);
#47=IFCPROPERTYSINGLEVALUE('\X2\041B043E0442\X0\',$,IFCINTEGER(0),$);
#48=IFCPROPERTYSINGLEVALUE('\X2\041C043004420435044004380430043B\X0\',$,IFCTEXT('Hastelloy G-35 \X2\0438043B0438\X0\ 904L'),$);
#49=IFCPROPERTYSINGLEVALUE('\X2\041A043E043B043804470435044104420432043E\X0\',$,IFCINTEGER(1),$);
#50=IFCPROPERTYSET('3Dqhl$vfBBCuJkM8o6824s',$,'Pset_KVANT_LOI',$,(#45,#46,#47,#48,#49));
#51=IFCCARTESIANPOINT((0.,0.));
#52=IFCAXIS2PLACEMENT2D(#51,$);
#53=IFCRECTANGLEPROFILEDEF(.AREA.,$,#52,4481.4047465571639,4481.4047465571639);
#54=IFCCARTESIANPOINT((0.,0.,0.));
#55=IFCAXIS2PLACEMENT3D(#54,$,$);
#56=IFCDIRECTION((0.,0.,1.));
#57=IFCEXTRUDEDAREASOLID(#53,#55,#56,4481.4047465571639);
#58=IFCSHAPEREPRESENTATION(#7,'Body','SweptSolid',(#57));
#59=IFCCARTESIANPOINT((0.,0.,0.));
#60=IFCAXIS2PLACEMENT3D(#59,$,$);
#61=IFCREPRESENTATIONMAP(#60,#58);
#62=IFCTANKTYPE('2_qgQCoKEMSrNUazhbXWCQ',$,'\X2\04110443044404350440043D044B0439\X0\ \X2\044004350430043A0442043E0440\X0\','\X2\04110443044404350440\X0\ \X2\043F0435044004350434\X0\ \X2\04410433044304410442043804420435043B0435043C\X0\; \X2\043F044004380451043C\X0\ \X2\043F0443043B044C043F044B\X0\ \X2\04440438043B044C044204400430\X0\ \X2\043A043E043D04420440043E043B044C043D043E0439\X0\ \X2\04440438043B044C044204400430044604380438\X0\',$,(#50),(#61),'\X2\041E0412042D\X0\75-\X2\041B\X0\0-66','\X2\0412044B04490435043B04300447043804320430043D04380435\X0\ (\X2\0432043D0435\X0\ \X2\04110418\X0\)',.USERDEFINED.);
#63=IFCPROPERTYSINGLEVALUE('\X2\041F043E0437043804460438044F\X0\',$,IFCIDENTIFIER('4.1.16'),$);
#64=IFCPROPERTYSINGLEVALUE('\X2\041D04300438043C0435043D043E04320430043D04380435\X0\',$,IFCTEXT('\X2\04210433044304410442043804420435043B044C\X0\ \X2\043E0441044204300442043A0430\X0\ \X2\0432044B04490435043B04300447043804320430043D0438044F\X0\'),$);
#65=IFCPROPERTYSINGLEVALUE('\X2\041B043E0442\X0\',$,IFCINTEGER(0),$);
#66=IFCPROPERTYSINGLEVALUE('\X2\041C043004420435044004380430043B\X0\',$,IFCTEXT('316L / \X2\043F043E043B0438043C04350440\X0\'),$);
#67=IFCPROPERTYSINGLEVALUE('\X2\041A043E043B043804470435044104420432043E\X0\',$,IFCINTEGER(1),$);
#68=IFCPROPERTYSET('2cOuZWCDGxVRMICAbuxjy3',$,'Pset_KVANT_LOI',$,(#63,#64,#65,#66,#67));
#69=IFCCARTESIANPOINT((0.,0.));
#70=IFCAXIS2PLACEMENT2D(#69,$);
#71=IFCRECTANGLEPROFILEDEF(.AREA.,$,#70,15000.,15000.);
#72=IFCCARTESIANPOINT((0.,0.,0.));
#73=IFCAXIS2PLACEMENT3D(#72,$,$);
#74=IFCDIRECTION((0.,0.,1.));
#75=IFCEXTRUDEDAREASOLID(#71,#73,#74,15000.);
#76=IFCSHAPEREPRESENTATION(#7,'Body','SweptSolid',(#75));
#77=IFCCARTESIANPOINT((0.,0.,0.));
#78=IFCAXIS2PLACEMENT3D(#77,$,$);
#79=IFCREPRESENTATIONMAP(#78,#76);
#80=IFCTANKTYPE('1891X9OAbiT_BqnJY3KsNd',$,'\X2\04210433044304410442043804420435043B044C\X0\ \X2\043E0441044204300442043A0430\X0\ \X2\0432044B04490435043B04300447043804320430043D0438044F\X0\','\X2\04210433044304490435043D04380435\X0\ \X2\043E0441044204300442043A0430\X0\ \X2\0432044B04490435043B04300447043804320430043D0438044F\X0\',$,(#68),(#79),'\X2\041E0412042D\X0\75-\X2\041B\X0\0-67','\X2\04210433044304490435043D04380435\X0\ (\X2\0432043D0435\X0\ \X2\04110418\X0\)',.USERDEFINED.);
#81=IFCPROPERTYSINGLEVALUE('\X2\041F043E0437043804460438044F\X0\',$,IFCIDENTIFIER('4.1.20'),$);
#82=IFCPROPERTYSINGLEVALUE('\X2\041D04300438043C0435043D043E04320430043D04380435\X0\',$,IFCTEXT('\X2\041D0430043C044B0432043D044B0435\X0\ \X2\04440438043B044C04420440044B\X0\ \X2\043A043E043D04420440043E043B044C043D043E0439\X0\ \X2\04440438043B044C044204400430044604380438\X0\'),$);
#83=IFCPROPERTYSINGLEVALUE('\X2\041B043E0442\X0\',$,IFCINTEGER(0),$);
#84=IFCPROPERTYSINGLEVALUE('\X2\041C043004420435044004380430043B\X0\',$,IFCTEXT('Hastelloy G-35 \X2\0438043B0438\X0\ \X2\0430043D0430043B043E0433\X0\'),$);
#85=IFCPROPERTYSINGLEVALUE('\X2\041A043E043B043804470435044104420432043E\X0\',$,IFCTEXT('3 (\X2\043F043004400430043B043B0435043B044C043D0430044F\X0\ \X2\044004300431043E04420430\X0\)'),$);
#86=IFCPROPERTYSET('0eUxHgEv6T4mVQENS19mLQ',$,'Pset_KVANT_LOI',$,(#81,#82,#83,#84,#85));
#87=IFCFILTERTYPE('0JWJDnys3pYWXCFCgyxtLv',$,'\X2\041D0430043C044B0432043D044B0435\X0\ \X2\04440438043B044C04420440044B\X0\ \X2\043A043E043D04420440043E043B044C043D043E0439\X0\ \X2\04440438043B044C044204400430044604380438\X0\','\X2\041F043E043B044304470435043D04380435\X0\ \X2\04440438043B044C04420440043004420430\X0\ \X2\0441\X0\ \X2\043C0438043D0438043C0430043B044C043D044B043C\X0\ \X2\043A043E043B043804470435044104420432043E043C\X0\ \X2\04420432045104400434043E0433043E\X0\ \X2\2014\X0\ \X2\043F043804420430043D04380435\X0\ \X2\041B043E0442043E0432\X0\ \X2\2116\X0\2 \X2\0438\X0\ \X2\2116\X0\3',$,(#86),$,'\X2\041E0412042D\X0\75-\X2\041B\X0\0-68','\X2\041A043E043D04420440043E043B044C043D0430044F\X0\ \X2\04440438043B044C04420440043004460438044F\X0\ (\X2\0432043D0435\X0\ \X2\04110418\X0\)',.USERDEFINED.);
#88=IFCPROPERTYSINGLEVALUE('\X2\041F043E0437043804460438044F\X0\',$,IFCIDENTIFIER('4.1.17'),$);
#89=IFCPROPERTYSINGLEVALUE('\X2\041D04300438043C0435043D043E04320430043D04380435\X0\',$,IFCTEXT('\X2\04220435043F043B043E043E0431043C0435043D043D0438043A\X0\ \X2\043F043E0434043E04330440043504320430\X0\ \X2\043104350434043D043E0433043E\X0\ \X2\044D043B0435043A04420440043E043B043804420430\X0\'),$);
#90=IFCPROPERTYSINGLEVALUE('\X2\041B043E0442\X0\',$,IFCINTEGER(0),$);
#91=IFCPROPERTYSINGLEVALUE('\X2\041C043004420435044004380430043B\X0\',$,IFCTEXT('Hastelloy G-35 \X2\0438043B0438\X0\ \X2\0430043D0430043B043E0433\X0\'),$);
#92=IFCPROPERTYSINGLEVALUE('\X2\041A043E043B043804470435044104420432043E\X0\',$,IFCINTEGER(1),$);
#93=IFCPROPERTYSET('0eQRgqnmJStHQiLgzlfr8U',$,'Pset_KVANT_LOI',$,(#88,#89,#90,#91,#92));
#94=IFCHEATEXCHANGERTYPE('12dVGBgesZ8I2WjQR$e2MH',$,'\X2\04220435043F043B043E043E0431043C0435043D043D0438043A\X0\ \X2\043F043E0434043E04330440043504320430\X0\ \X2\043104350434043D043E0433043E\X0\ \X2\044D043B0435043A04420440043E043B043804420430\X0\','\X2\041F043E0434043E0433044004350432\X0\ \X2\043E0431043E0440043E0442043D043E0433043E\X0\ \X2\04400430044104420432043E04400430\X0\ \X2\04440438043B044C0442044004300442043E043C\X0\ \X2\043E0442\X0\ \X2\0432044B04490435043B04300447043804320430043D0438044F\X0\ \X2\043F0435044004350434\X0\ \X2\043A04300441043A04300434043E043C\X0\; \X2\043F04430441043A043E0432043E0439\X0\ \X2\043F043E0434043E0433044004350432\X0\ \X2\043F04300440043E043C\X0\',$,(#93),$,'\X2\041E0412042D\X0\75-\X2\041B\X0\0-69','\X2\04220435043F043B043E043E0431043C0435043D\X0\ (\X2\0432043D0435\X0\ \X2\04110418\X0\)',.USERDEFINED.);
#95=IFCPROPERTYSINGLEVALUE('\X2\041F043E0437043804460438044F\X0\',$,IFCIDENTIFIER('4.1.29'),$);
#96=IFCPROPERTYSINGLEVALUE('\X2\041D04300438043C0435043D043E04320430043D04380435\X0\',$,IFCTEXT('\X2\041C0435043C043104400430043D043D044B0439\X0\ \X2\04440438043B044C04420440\X0\-\X2\043F0440043504410441\X0\ \X2\043F04350441043A043E0432\X0\ \X2\04410433044304410442043804420435043B044F\X0\'),$);
#97=IFCPROPERTYSINGLEVALUE('\X2\041B043E0442\X0\',$,IFCINTEGER(0),$);
#98=IFCPROPERTYSINGLEVALUE('\X2\041C043004420435044004380430043B\X0\',$,IFCTEXT('316L / \X2\043F043E043B0438043C04350440\X0\'),$);
#99=IFCPROPERTYSINGLEVALUE('\X2\041A043E043B043804470435044104420432043E\X0\',$,IFCTEXT('2 (\X2\043F043004400430043B043B0435043B044C043D0430044F\X0\ \X2\044004300431043E04420430\X0\)'),$);
#100=IFCPROPERTYSET('2KEVpUB9uT3MsTF4htp5qq',$,'Pset_KVANT_LOI',$,(#95,#96,#97,#98,#99));
#101=IFCFILTERTYPE('1ZBh76S2a00mLW_ILFYDQt',$,'\X2\041C0435043C043104400430043D043D044B0439\X0\ \X2\04440438043B044C04420440\X0\-\X2\043F0440043504410441\X0\ \X2\043F04350441043A043E0432\X0\ \X2\04410433044304410442043804420435043B044F\X0\','\X2\04240438043B044C04420440043004460438044F\X0\ \X2\0438\X0\ \X2\043F0440043E043C044B0432043A0430\X0\ \X2\043F04350441043A043E0432\X0\ \X2\04410433044304410442043804420435043B044F\X0\',$,(#100),$,'\X2\041E0412042D\X0\75-\X2\041B\X0\0-70','\X2\04240438043B044C04420440043004460438044F\X0\ \X2\043F04350441043A043E0432\X0\ (\X2\0432043D0435\X0\ \X2\04110418\X0\)',.USERDEFINED.);
#102=IFCRELDECLARES('3qOz1SyQwqNBjRt_bZ1Zzg',$,$,$,#8,(#26,#44,#62,#80,#87,#94,#101));
ENDSEC;
END-ISO-10303-21;
