ISO-10303-21;
HEADER;
FILE_DESCRIPTION(('ViewDefinition [ReferenceView]'),'2;1');
FILE_NAME('ove75-equip-lot2.ifc','2026-08-28T03:10:55',('\X2\041E041E041E\X0\ \X2\00AB041A04120410041D042200BB\X0\'),('\X2\041E041E041E\X0\ \X2\00AB041A04120410041D042200BB\X0\'),'IfcOpenShell 0.8.5-1c5b825','ove/tools/equip2ifc.py (IfcOpenShell)','\X2\043F0440043E0435043A0442\X0\ \X2\041E0412042D\X0\-75, \X2\04410442043004340438044F\X0\ \X2\04110418\X0\');
FILE_SCHEMA(('IFC4'));
ENDSEC;
DATA;
#1=IFCSIUNIT(*,.LENGTHUNIT.,.MILLI.,.METRE.);
#2=IFCSIUNIT(*,.AREAUNIT.,$,.SQUARE_METRE.);
#3=IFCSIUNIT(*,.VOLUMEUNIT.,$,.CUBIC_METRE.);
#4=IFCUNITASSIGNMENT((#1,#2,#3));
#5=IFCCARTESIANPOINT((0.,0.,0.));
#6=IFCAXIS2PLACEMENT3D(#5,$,$);
#7=IFCGEOMETRICREPRESENTATIONCONTEXT($,'Model',3,1.0000000000000001E-05,#6,$);
#8=IFCPROJECT('2l58uP5SmDTHwzj1DzALNX',$,'\X2\041E0412042D\X0\-75 \X2\00B7\X0\ \X2\041E0431043E044004430434043E04320430043D04380435\X0\ \X2\043B043E04420430\X0\ \X2\2116\X0\2','\X2\041104380431043B0438043E04420435043A0430\X0\ \X2\04420438043F043E0432\X0\ \X2\043E0431043E044004430434043E04320430043D0438044F\X0\ \X2\043F043E\X0\ ove/data/equipment.json (\X2\04410442043004340438044F\X0\ \X2\04110418\X0\)',$,$,$,(#7),#4);
#9=IFCPROPERTYSINGLEVALUE('\X2\041F043E0437043804460438044F\X0\',$,IFCIDENTIFIER('4.1.1'),$);
#10=IFCPROPERTYSINGLEVALUE('\X2\041D04300438043C0435043D043E04320430043D04380435\X0\',$,IFCTEXT('\X2\04180441043F04300440043804420435043B044C\X0\ I \X2\044104420443043F0435043D0438\X0\ (\X2\0432044B043F04300440043D043E0439\X0\ \X2\0430043F043F0430044004300442\X0\)'),$);
#11=IFCPROPERTYSINGLEVALUE('\X2\041B043E0442\X0\',$,IFCINTEGER(2),$);
#12=IFCPROPERTYSINGLEVALUE('\X2\041C043004420435044004380430043B\X0\',$,IFCTEXT('\X2\042104420430043B044C\X0\ 904L \X2\0438043B0438\X0\ \X2\0430043D0430043B043E0433\X0\'),$);
#13=IFCPROPERTYSINGLEVALUE('\X2\041A043E043B043804470435044104420432043E\X0\',$,IFCTEXT('1 (1 \X2\043D04380442043A0430\X0\)'),$);
#14=IFCPROPERTYSET('13_r49qrGEQwINwRUqWQ_b',$,'Pset_KVANT_LOI',$,(#9,#10,#11,#12,#13));
#15=IFCCARTESIANPOINT((0.,0.));
#16=IFCAXIS2PLACEMENT2D(#15,$);
#17=IFCRECTANGLEPROFILEDEF(.AREA.,$,#16,2000.,2000.);
#18=IFCCARTESIANPOINT((0.,0.,0.));
#19=IFCAXIS2PLACEMENT3D(#18,$,$);
#20=IFCDIRECTION((0.,0.,1.));
#21=IFCEXTRUDEDAREASOLID(#17,#19,#20,2000.);
#22=IFCSHAPEREPRESENTATION(#7,'Body','SweptSolid',(#21));
#23=IFCCARTESIANPOINT((0.,0.,0.));
#24=IFCAXIS2PLACEMENT3D(#23,$,$);
#25=IFCREPRESENTATIONMAP(#24,#22);
#26=IFCEVAPORATORTYPE('1kmsCmhzOgoMd1C_81PcEr',$,'\X2\04180441043F04300440043804420435043B044C\X0\ I \X2\044104420443043F0435043D0438\X0\ (\X2\0432044B043F04300440043D043E0439\X0\ \X2\0430043F043F0430044004300442\X0\)','\X2\04120430043A04430443043C043D0430044F\X0\ \X2\043A04400438044104420430043B043B04380437043004460438044F\X0\ \X2\043E0431043E0440043E0442043D043E0433043E\X0\ \X2\043C04350434043D043E0433043E\X0\ \X2\043A0443043F043E0440043E04410430\X0\, I \X2\044104420443043F0435043D044C\X0\',$,(#14),(#25),'\X2\041E0412042D\X0\75-\X2\041B\X0\2-28','\X2\0423042304210421\X0\: \X2\04380441043F04300440043804420435043B044C\X0\ EV-2 \X2\0441\X0\ \X2\0432044B043D043E0441043D044B043C\X0\ \X2\043D04300433044004350432043004420435043B0435043C\X0\',.USERDEFINED.);
#27=IFCPROPERTYSINGLEVALUE('\X2\041F043E0437043804460438044F\X0\',$,IFCIDENTIFIER('4.1.2'),$);
#28=IFCPROPERTYSINGLEVALUE('\X2\041D04300438043C0435043D043E04320430043D04380435\X0\',$,IFCTEXT('\X2\04180441043F04300440043804420435043B044C\X0\ II \X2\044104420443043F0435043D0438\X0\ (\X2\0432044B043F04300440043D043E0439\X0\ \X2\0430043F043F0430044004300442\X0\)'),$);
#29=IFCPROPERTYSINGLEVALUE('\X2\041B043E0442\X0\',$,IFCINTEGER(2),$);
#30=IFCPROPERTYSINGLEVALUE('\X2\041C043004420435044004380430043B\X0\',$,IFCTEXT('\X2\042104420430043B044C\X0\ 904L \X2\0438043B0438\X0\ \X2\0430043D0430043B043E0433\X0\'),$);
#31=IFCPROPERTYSINGLEVALUE('\X2\041A043E043B043804470435044104420432043E\X0\',$,IFCINTEGER(1),$);
#32=IFCPROPERTYSET('12zPsZRIlT62luhhWnNNiV',$,'Pset_KVANT_LOI',$,(#27,#28,#29,#30,#31));
#33=IFCCARTESIANPOINT((0.,0.));
#34=IFCAXIS2PLACEMENT2D(#33,$);
#35=IFCRECTANGLEPROFILEDEF(.AREA.,$,#34,2000.,2000.);
#36=IFCCARTESIANPOINT((0.,0.,0.));
#37=IFCAXIS2PLACEMENT3D(#36,$,$);
#38=IFCDIRECTION((0.,0.,1.));
#39=IFCEXTRUDEDAREASOLID(#35,#37,#38,2000.);
#40=IFCSHAPEREPRESENTATION(#7,'Body','SweptSolid',(#39));
#41=IFCCARTESIANPOINT((0.,0.,0.));
#42=IFCAXIS2PLACEMENT3D(#41,$,$);
#43=IFCREPRESENTATIONMAP(#42,#40);
#44=IFCEVAPORATORTYPE('2EFCp0wjs7oB6ZhJFtpq$a',$,'\X2\04180441043F04300440043804420435043B044C\X0\ II \X2\044104420443043F0435043D0438\X0\ (\X2\0432044B043F04300440043D043E0439\X0\ \X2\0430043F043F0430044004300442\X0\)','\X2\04120430043A04430443043C043D0430044F\X0\ \X2\043A04400438044104420430043B043B04380437043004460438044F\X0\ \X2\043C04350434043D043E0433043E\X0\ \X2\043A0443043F043E0440043E04410430\X0\, II \X2\044104420443043F0435043D044C\X0\',$,(#32),(#43),'\X2\041E0412042D\X0\75-\X2\041B\X0\2-29','\X2\0423042304210421\X0\: \X2\04380441043F04300440043804420435043B044C\X0\ EV-2 \X2\0441\X0\ \X2\043F04400438043D04430434043804420435043B044C043D043E0439\X0\ \X2\044604380440043A0443043B044F0446043804350439\X0\, \X2\043F043E0434\X0\ \X2\0434043E043F\X0\. \X2\0440043004370440043504360435043D04380435043C\X0\',.USERDEFINED.);
#45=IFCPROPERTYSINGLEVALUE('\X2\041F043E0437043804460438044F\X0\',$,IFCIDENTIFIER('4.1.2'),$);
#46=IFCPROPERTYSINGLEVALUE('\X2\041D04300438043C0435043D043E04320430043D04380435\X0\',$,IFCTEXT('\X2\041F04300440043E0432043E0439\X0\ \X2\044D04360435043A0442043E0440\X0\'),$);
#47=IFCPROPERTYSINGLEVALUE('\X2\041B043E0442\X0\',$,IFCINTEGER(2),$);
#48=IFCPROPERTYSINGLEVALUE('\X2\041C043004420435044004380430043B\X0\',$,IFCTEXT('\X2\042104420430043B044C\X0\ 904L \X2\0438043B0438\X0\ \X2\0430043D0430043B043E0433\X0\'),$);
#49=IFCPROPERTYSINGLEVALUE('\X2\041A043E043B043804470435044104420432043E\X0\',$,IFCINTEGER(1),$);
#50=IFCPROPERTYSET('28taaa_FdKwQLVYyw7G_tC',$,'Pset_KVANT_LOI',$,(#45,#46,#47,#48,#49));
#51=IFCPUMPTYPE('3Uwv6cw6rr6agZn_g1E_Zw',$,'\X2\041F04300440043E0432043E0439\X0\ \X2\044D04360435043A0442043E0440\X0\','\X2\0421043E043704340430043D04380435\X0\ \X2\0433043B04430431043E043A043E0433043E\X0\ \X2\0440043004370440043504360435043D0438044F\X0\ \X2\043D0430\X0\ II \X2\044104420443043F0435043D0438\X0\',$,(#50),$,'\X2\041E0412042D\X0\75-\X2\041B\X0\2-30','\X2\041A04400438044104420430043B043B04380437043004460438044F\X0\ \X2\043C04350434043D043E0433043E\X0\ \X2\043A0443043F043E0440043E04410430\X0\',.USERDEFINED.);
#52=IFCPROPERTYSINGLEVALUE('\X2\041F043E0437043804460438044F\X0\',$,IFCIDENTIFIER('4.1.3'),$);
#53=IFCPROPERTYSINGLEVALUE('\X2\041D04300438043C0435043D043E04320430043D04380435\X0\',$,IFCTEXT('\X2\041104300440043E043C0435044204400438044704350441043A04380439\X0\ \X2\043A043E043D04340435043D044104300442043E0440\X0\'),$);
#54=IFCPROPERTYSINGLEVALUE('\X2\041B043E0442\X0\',$,IFCINTEGER(2),$);
#55=IFCPROPERTYSINGLEVALUE('\X2\041A043E043B043804470435044104420432043E\X0\',$,IFCINTEGER(1),$);
#56=IFCPROPERTYSET('02Ulg6_BriLoSDGsojAoPd',$,'Pset_KVANT_LOI',$,(#52,#53,#54,#55));
#57=IFCCONDENSERTYPE('1GqiJtlCMtEbaxhUSHzGib',$,'\X2\041104300440043E043C0435044204400438044704350441043A04380439\X0\ \X2\043A043E043D04340435043D044104300442043E0440\X0\','\X2\041A043E043D04340435043D0441043004460438044F\X0\ \X2\0441043E043A043E0432043E0433043E\X0\ \X2\043F043004400430\X0\ \X2\04380441043F04300440043804420435043B04350439\X0\ \X2\0438\X0\ \X2\043F043004400430\X0\ \X2\044D04360435043A0442043E04400430\X0\, \X2\043E0440043E04480435043D04380435\X0\ \X2\0445043E043B043E0434043D043E0439\X0\ \X2\043E0431043E0440043E0442043D043E0439\X0\ \X2\0432043E0434043E0439\X0\',$,(#56),$,'\X2\041E0412042D\X0\75-\X2\041B\X0\2-31','\X2\041A04400438044104420430043B043B04380437043004460438044F\X0\ \X2\043C04350434043D043E0433043E\X0\ \X2\043A0443043F043E0440043E04410430\X0\',.USERDEFINED.);
#58=IFCPROPERTYSINGLEVALUE('\X2\041F043E0437043804460438044F\X0\',$,IFCIDENTIFIER('4.1.4'),$);
#59=IFCPROPERTYSINGLEVALUE('\X2\041D04300438043C0435043D043E04320430043D04380435\X0\',$,IFCTEXT('\X2\04200435043F0443043B044C043F04300442043E0440\X0\ (\X2\044004350430043A0442043E0440\X0\ \X2\0441\X0\ \X2\043C043504480430043B043A043E0439\X0\)'),$);
#60=IFCPROPERTYSINGLEVALUE('\X2\041B043E0442\X0\',$,IFCINTEGER(2),$);
#61=IFCPROPERTYSINGLEVALUE('\X2\041C043004420435044004380430043B\X0\',$,IFCTEXT('\X2\042104420430043B044C\X0\ 904L \X2\0438043B0438\X0\ \X2\0430043D0430043B043E0433\X0\'),$);
#62=IFCPROPERTYSINGLEVALUE('\X2\041A043E043B043804470435044104420432043E\X0\',$,IFCINTEGER(1),$);
#63=IFCPROPERTYSET('3wAYEn9Pb35c$5DhN029VC',$,'Pset_KVANT_LOI',$,(#58,#59,#60,#61,#62));
#64=IFCCARTESIANPOINT((0.,0.));
#65=IFCAXIS2PLACEMENT2D(#64,$);
#66=IFCRECTANGLEPROFILEDEF(.AREA.,$,#65,1357.2088082974531,1357.2088082974531);
#67=IFCCARTESIANPOINT((0.,0.,0.));
#68=IFCAXIS2PLACEMENT3D(#67,$,$);
#69=IFCDIRECTION((0.,0.,1.));
#70=IFCEXTRUDEDAREASOLID(#66,#68,#69,1357.2088082974531);
#71=IFCSHAPEREPRESENTATION(#7,'Body','SweptSolid',(#70));
#72=IFCCARTESIANPOINT((0.,0.,0.));
#73=IFCAXIS2PLACEMENT3D(#72,$,$);
#74=IFCREPRESENTATIONMAP(#73,#71);
#75=IFCTANKTYPE('38vHVD8qIqIHFgbjCQbtwZ',$,'\X2\04200435043F0443043B044C043F04300442043E0440\X0\ (\X2\044004350430043A0442043E0440\X0\ \X2\0441\X0\ \X2\043C043504480430043B043A043E0439\X0\)','\X2\042504400430043D0435043D04380435\X0\ \X2\043F0443043B044C043F044B\X0\ \X2\043C04350434043D043E0433043E\X0\ \X2\043A0443043F043E0440043E04410430\X0\ \X2\043F0435044004350434\X0\ \X2\04460435043D044204400438044404430433043E0439\X0\',$,(#63),(#74),'\X2\041E0412042D\X0\75-\X2\041B\X0\2-32','\X2\041A04400438044104420430043B043B04380437043004460438044F\X0\ \X2\043C04350434043D043E0433043E\X0\ \X2\043A0443043F043E0440043E04410430\X0\',.USERDEFINED.);
#76=IFCPROPERTYSINGLEVALUE('\X2\041F043E0437043804460438044F\X0\',$,IFCIDENTIFIER('4.1.5'),$);
#77=IFCPROPERTYSINGLEVALUE('\X2\041D04300438043C0435043D043E04320430043D04380435\X0\',$,IFCTEXT('\X2\04110430043A\X0\ \X2\043C04300442043E0447043D0438043A0430\X0\'),$);
#78=IFCPROPERTYSINGLEVALUE('\X2\041B043E0442\X0\',$,IFCINTEGER(2),$);
#79=IFCPROPERTYSINGLEVALUE('\X2\041C043004420435044004380430043B\X0\',$,IFCTEXT('\X2\042104420430043B044C\X0\ 904L \X2\0438043B0438\X0\ \X2\0430043D0430043B043E0433\X0\'),$);
#80=IFCPROPERTYSINGLEVALUE('\X2\041A043E043B043804470435044104420432043E\X0\',$,IFCINTEGER(1),$);
#81=IFCPROPERTYSET('2mKVXE54J$XT85m5V8HX_p',$,'Pset_KVANT_LOI',$,(#76,#77,#78,#79,#80));
#82=IFCCARTESIANPOINT((0.,0.));
#83=IFCAXIS2PLACEMENT2D(#82,$);
#84=IFCRECTANGLEPROFILEDEF(.AREA.,$,#83,1062.6585691826112,1062.6585691826112);
#85=IFCCARTESIANPOINT((0.,0.,0.));
#86=IFCAXIS2PLACEMENT3D(#85,$,$);
#87=IFCDIRECTION((0.,0.,1.));
#88=IFCEXTRUDEDAREASOLID(#84,#86,#87,1062.6585691826112);
#89=IFCSHAPEREPRESENTATION(#7,'Body','SweptSolid',(#88));
#90=IFCCARTESIANPOINT((0.,0.,0.));
#91=IFCAXIS2PLACEMENT3D(#90,$,$);
#92=IFCREPRESENTATIONMAP(#91,#89);
#93=IFCTANKTYPE('36rH38Wz9HqZX4F600p3Ke',$,'\X2\04110430043A\X0\ \X2\043C04300442043E0447043D0438043A0430\X0\','\X2\042504400430043D0435043D04380435\X0\ \X2\043C04300442043E0447043D0438043A0430\X0\; \X2\043E0431043E04330440043504320430043504420441044F\X0\',$,(#81),(#92),'\X2\041E0412042D\X0\75-\X2\041B\X0\2-33','\X2\041A04400438044104420430043B043B04380437043004460438044F\X0\ \X2\043C04350434043D043E0433043E\X0\ \X2\043A0443043F043E0440043E04410430\X0\',.USERDEFINED.);
#94=IFCPROPERTYSINGLEVALUE('\X2\041F043E0437043804460438044F\X0\',$,IFCIDENTIFIER('4.1.6'),$);
#95=IFCPROPERTYSINGLEVALUE('\X2\041D04300438043C0435043D043E04320430043D04380435\X0\',$,IFCTEXT('\X2\041F0443043B044C0441043804400443044E04490430044F\X0\ (\X2\04440438043B044C044204400443044E04490430044F\X0\) \X2\04460435043D0442044004380444044304330430\X0\'),$);
#96=IFCPROPERTYSINGLEVALUE('\X2\041B043E0442\X0\',$,IFCINTEGER(2),$);
#97=IFCPROPERTYSINGLEVALUE('\X2\041C043004420435044004380430043B\X0\',$,IFCTEXT('\X2\042104420430043B044C\X0\ 904L \X2\0438043B0438\X0\ \X2\0430043D0430043B043E0433\X0\'),$);
#98=IFCPROPERTYSINGLEVALUE('\X2\041A043E043B043804470435044104420432043E\X0\',$,IFCINTEGER(2),$);
#99=IFCPROPERTYSET('3uBH4JjN4P_SQdpbcuUK1Z',$,'Pset_KVANT_LOI',$,(#94,#95,#96,#97,#98));
#100=IFCBUILDINGELEMENTPROXYTYPE('2x9nQgGR8RgzdMnZqMsD$d',$,'\X2\041F0443043B044C0441043804400443044E04490430044F\X0\ (\X2\04440438043B044C044204400443044E04490430044F\X0\) \X2\04460435043D0442044004380444044304330430\X0\','\X2\041E0431043504370432043E0436043804320430043D04380435\X0\ \X2\043A04400438044104420430043B043B043E0432\X0\ \X2\043C04350434043D043E0433043E\X0\ \X2\043A0443043F043E0440043E04410430\X0\, I \X2\04410442043004340438044F\X0\',$,(#99),$,'\X2\041E0412042D\X0\75-\X2\041B\X0\2-34','\X2\04240438043B044C044204400443044E04490430044F\X0\ \X2\04460435043D0442044004380444044304330430\X0\ \X2\0441\X0\ \X2\043F0443043B044C0441043804400443044E044904350439\X0\ \X2\0432044B0433044004430437043A043E0439\X0\',.USERDEFINED.);
#101=IFCPROPERTYSINGLEVALUE('\X2\041F043E0437043804460438044F\X0\',$,IFCIDENTIFIER('4.1.7'),$);
#102=IFCPROPERTYSINGLEVALUE('\X2\041D04300438043C0435043D043E04320430043D04380435\X0\',$,IFCTEXT('\X2\04200435043F0443043B044C043F04300442043E0440\X0\ \X2\04400430044104420432043E04400435043D0438044F\X0\ \X2\043A0443043F043E0440043E04410430\X0\'),$);
#103=IFCPROPERTYSINGLEVALUE('\X2\041B043E0442\X0\',$,IFCINTEGER(2),$);
#104=IFCPROPERTYSINGLEVALUE('\X2\041C043004420435044004380430043B\X0\',$,IFCTEXT('\X2\042104420430043B044C\X0\ 316L / \X2\043F043E043B0438043C04350440\X0\'),$);
#105=IFCPROPERTYSINGLEVALUE('\X2\041A043E043B043804470435044104420432043E\X0\',$,IFCINTEGER(2),$);
#106=IFCPROPERTYSET('0_5onBOyDhCP25j0dpClAD',$,'Pset_KVANT_LOI',$,(#101,#102,#103,#104,#105));
#107=IFCCARTESIANPOINT((0.,0.));
#108=IFCAXIS2PLACEMENT2D(#107,$);
#109=IFCRECTANGLEPROFILEDEF(.AREA.,$,#108,1709.9759466766968,1709.9759466766968);
#110=IFCCARTESIANPOINT((0.,0.,0.));
#111=IFCAXIS2PLACEMENT3D(#110,$,$);
#112=IFCDIRECTION((0.,0.,1.));
#113=IFCEXTRUDEDAREASOLID(#109,#111,#112,1709.9759466766968);
#114=IFCSHAPEREPRESENTATION(#7,'Body','SweptSolid',(#113));
#115=IFCCARTESIANPOINT((0.,0.,0.));
#116=IFCAXIS2PLACEMENT3D(#115,$,$);
#117=IFCREPRESENTATIONMAP(#116,#114);
#118=IFCTANKTYPE('2JAv2YizDNZ3Ed1VUoD0O5',$,'\X2\04200435043F0443043B044C043F04300442043E0440\X0\ \X2\04400430044104420432043E04400435043D0438044F\X0\ \X2\043A0443043F043E0440043E04410430\X0\','\X2\04200430044104420432043E04400435043D04380435\X0\ \X2\043C04350434043D043E0433043E\X0\ \X2\043A0443043F043E0440043E04410430\X0\ \X2\0432\X0\ \X2\04400430044104420432043E04400435\X0\ \X2\043E0442\X0\ \X2\044D043B0435043A04420440043E044D043A0441044204400430043A044604380438\X0\',$,(#106),(#117),'\X2\041E0412042D\X0\75-\X2\041B\X0\2-35','\X2\041404320430\X0\ \X2\043F043E0441043B04350434043E0432043004420435043B044C043D044B0445\X0\ \X2\0430043F043F04300440043004420430\X0\',.USERDEFINED.);
#119=IFCPROPERTYSINGLEVALUE('\X2\041F043E0437043804460438044F\X0\',$,IFCIDENTIFIER('4.1.23'),$);
#120=IFCPROPERTYSINGLEVALUE('\X2\041D04300438043C0435043D043E04320430043D04380435\X0\',$,IFCTEXT('\X2\04180441043F04300440043804420435043B044C\X0\ I \X2\044104420443043F0435043D0438\X0\'),$);
#121=IFCPROPERTYSINGLEVALUE('\X2\041B043E0442\X0\',$,IFCINTEGER(2),$);
#122=IFCPROPERTYSINGLEVALUE('\X2\041C043004420435044004380430043B\X0\',$,IFCTEXT('\X2\042104420430043B044C\X0\ 904L \X2\0438043B0438\X0\ \X2\0430043D0430043B043E0433\X0\'),$);
#123=IFCPROPERTYSINGLEVALUE('\X2\041A043E043B043804470435044104420432043E\X0\',$,IFCINTEGER(1),$);
#124=IFCPROPERTYSET('1k0it2o3Utqj4aq1vat_XN',$,'Pset_KVANT_LOI',$,(#119,#120,#121,#122,#123));
#125=IFCCARTESIANPOINT((0.,0.));
#126=IFCAXIS2PLACEMENT2D(#125,$);
#127=IFCRECTANGLEPROFILEDEF(.AREA.,$,#126,1300.,1300.);
#128=IFCCARTESIANPOINT((0.,0.,0.));
#129=IFCAXIS2PLACEMENT3D(#128,$,$);
#130=IFCDIRECTION((0.,0.,1.));
#131=IFCEXTRUDEDAREASOLID(#127,#129,#130,1300.);
#132=IFCSHAPEREPRESENTATION(#7,'Body','SweptSolid',(#131));
#133=IFCCARTESIANPOINT((0.,0.,0.));
#134=IFCAXIS2PLACEMENT3D(#133,$,$);
#135=IFCREPRESENTATIONMAP(#134,#132);
#136=IFCEVAPORATORTYPE('1xqfclJys9TEQMnEGDnSr_',$,'\X2\04180441043F04300440043804420435043B044C\X0\ I \X2\044104420443043F0435043D0438\X0\','\X2\04120430043A04430443043C043D0430044F\X0\ \X2\043A04400438044104420430043B043B04380437043004460438044F\X0\ \X2\0441043C043504480430043D043D043E0433043E\X0\ \X2\043C04350434043D043E\X0\-\X2\043D0438043A0435043B04350432043E0433043E\X0\ \X2\043A0443043F043E0440043E04410430\X0\, I \X2\044104420443043F0435043D044C\X0\, t = 40 \X2\00B00421\X0\',$,(#124),(#135),'\X2\041E0412042D\X0\75-\X2\041B\X0\2-36','\X2\041A04400438044104420430043B043B04380437043004460438044F\X0\ \X2\0441043C043504480430043D043D043E0433043E\X0\ \X2\043A0443043F043E0440043E04410430\X0\',.USERDEFINED.);
#137=IFCPROPERTYSINGLEVALUE('\X2\041F043E0437043804460438044F\X0\',$,IFCIDENTIFIER('4.1.24'),$);
#138=IFCPROPERTYSINGLEVALUE('\X2\041D04300438043C0435043D043E04320430043D04380435\X0\',$,IFCTEXT('\X2\04180441043F04300440043804420435043B044C\X0\ II \X2\044104420443043F0435043D0438\X0\'),$);
#139=IFCPROPERTYSINGLEVALUE('\X2\041B043E0442\X0\',$,IFCINTEGER(2),$);
#140=IFCPROPERTYSINGLEVALUE('\X2\041C043004420435044004380430043B\X0\',$,IFCTEXT('\X2\042104420430043B044C\X0\ 904L \X2\0438043B0438\X0\ \X2\0430043D0430043B043E0433\X0\'),$);
#141=IFCPROPERTYSINGLEVALUE('\X2\041A043E043B043804470435044104420432043E\X0\',$,IFCINTEGER(1),$);
#142=IFCPROPERTYSET('3OQI31KqgUnOU$y2xrJ4c2',$,'Pset_KVANT_LOI',$,(#137,#138,#139,#140,#141));
#143=IFCCARTESIANPOINT((0.,0.));
#144=IFCAXIS2PLACEMENT2D(#143,$);
#145=IFCRECTANGLEPROFILEDEF(.AREA.,$,#144,1300.,1300.);
#146=IFCCARTESIANPOINT((0.,0.,0.));
#147=IFCAXIS2PLACEMENT3D(#146,$,$);
#148=IFCDIRECTION((0.,0.,1.));
#149=IFCEXTRUDEDAREASOLID(#145,#147,#148,1300.);
#150=IFCSHAPEREPRESENTATION(#7,'Body','SweptSolid',(#149));
#151=IFCCARTESIANPOINT((0.,0.,0.));
#152=IFCAXIS2PLACEMENT3D(#151,$,$);
#153=IFCREPRESENTATIONMAP(#152,#150);
#154=IFCEVAPORATORTYPE('2sh$WEt7rk6BxWwsW2pKY9',$,'\X2\04180441043F04300440043804420435043B044C\X0\ II \X2\044104420443043F0435043D0438\X0\','\X2\04120430043A04430443043C043D0430044F\X0\ \X2\043A04400438044104420430043B043B04380437043004460438044F\X0\ \X2\0441043C043504480430043D043D043E0433043E\X0\ \X2\043A0443043F043E0440043E04410430\X0\, II \X2\044104420443043F0435043D044C\X0\, t = 20 \X2\00B00421\X0\',$,(#142),(#153),'\X2\041E0412042D\X0\75-\X2\041B\X0\2-37','\X2\041A04400438044104420430043B043B04380437043004460438044F\X0\ \X2\0441043C043504480430043D043D043E0433043E\X0\ \X2\043A0443043F043E0440043E04410430\X0\',.USERDEFINED.);
#155=IFCPROPERTYSINGLEVALUE('\X2\041F043E0437043804460438044F\X0\',$,IFCIDENTIFIER('4.1.24'),$);
#156=IFCPROPERTYSINGLEVALUE('\X2\041D04300438043C0435043D043E04320430043D04380435\X0\',$,IFCTEXT('\X2\041F04300440043E0432043E0439\X0\ \X2\044D04360435043A0442043E0440\X0\'),$);
#157=IFCPROPERTYSINGLEVALUE('\X2\041B043E0442\X0\',$,IFCINTEGER(2),$);
#158=IFCPROPERTYSINGLEVALUE('\X2\041A043E043B043804470435044104420432043E\X0\',$,IFCINTEGER(1),$);
#159=IFCPROPERTYSET('2_gnhL4FY4TD6Rm2LQprqz',$,'Pset_KVANT_LOI',$,(#155,#156,#157,#158));
#160=IFCPUMPTYPE('3$E$we_iTDn$GBbUwhZOri',$,'\X2\041F04300440043E0432043E0439\X0\ \X2\044D04360435043A0442043E0440\X0\','\X2\0421043E043704340430043D04380435\X0\ \X2\0440043004370440043504360435043D0438044F\X0\ \X2\043D0430\X0\ II \X2\044104420443043F0435043D0438\X0\',$,(#159),$,'\X2\041E0412042D\X0\75-\X2\041B\X0\2-38','\X2\041A04400438044104420430043B043B04380437043004460438044F\X0\ \X2\0441043C043504480430043D043D043E0433043E\X0\ \X2\043A0443043F043E0440043E04410430\X0\',.USERDEFINED.);
#161=IFCPROPERTYSINGLEVALUE('\X2\041F043E0437043804460438044F\X0\',$,IFCIDENTIFIER('4.1.25'),$);
#162=IFCPROPERTYSINGLEVALUE('\X2\041D04300438043C0435043D043E04320430043D04380435\X0\',$,IFCTEXT('\X2\041104300440043E043C0435044204400438044704350441043A04380439\X0\ \X2\043A043E043D04340435043D044104300442043E0440\X0\'),$);
#163=IFCPROPERTYSINGLEVALUE('\X2\041B043E0442\X0\',$,IFCINTEGER(2),$);
#164=IFCPROPERTYSINGLEVALUE('\X2\041A043E043B043804470435044104420432043E\X0\',$,IFCINTEGER(1),$);
#165=IFCPROPERTYSET('3NJFE1gPa3jtaswMYqYMyB',$,'Pset_KVANT_LOI',$,(#161,#162,#163,#164));
#166=IFCCONDENSERTYPE('3zFhGmsSF5YWJYjDd_8iri',$,'\X2\041104300440043E043C0435044204400438044704350441043A04380439\X0\ \X2\043A043E043D04340435043D044104300442043E0440\X0\','\X2\041A043E043D04340435043D0441043004460438044F\X0\ \X2\0441043E043A043E0432043E0433043E\X0\ \X2\043F043004400430\X0\, \X2\043E0440043E04480435043D04380435\X0\ \X2\0445043E043B043E0434043D043E0439\X0\ \X2\043E0431043E0440043E0442043D043E0439\X0\ \X2\0432043E0434043E0439\X0\',$,(#165),$,'\X2\041E0412042D\X0\75-\X2\041B\X0\2-39','\X2\041A04400438044104420430043B043B04380437043004460438044F\X0\ \X2\0441043C043504480430043D043D043E0433043E\X0\ \X2\043A0443043F043E0440043E04410430\X0\',.USERDEFINED.);
#167=IFCPROPERTYSINGLEVALUE('\X2\041F043E0437043804460438044F\X0\',$,IFCIDENTIFIER('4.1.26'),$);
#168=IFCPROPERTYSINGLEVALUE('\X2\041D04300438043C0435043D043E04320430043D04380435\X0\',$,IFCTEXT('\X2\04110430043A\X0\ \X2\043C04300442043E0447043D0438043A0430\X0\ 2'),$);
#169=IFCPROPERTYSINGLEVALUE('\X2\041B043E0442\X0\',$,IFCINTEGER(2),$);
#170=IFCPROPERTYSINGLEVALUE('\X2\041C043004420435044004380430043B\X0\',$,IFCTEXT('\X2\042104420430043B044C\X0\ 904L \X2\0438043B0438\X0\ \X2\0430043D0430043B043E0433\X0\'),$);
#171=IFCPROPERTYSINGLEVALUE('\X2\041A043E043B043804470435044104420432043E\X0\',$,IFCINTEGER(1),$);
#172=IFCPROPERTYSET('218uSwWdF3xD1Y8epoikRA',$,'Pset_KVANT_LOI',$,(#167,#168,#169,#170,#171));
#173=IFCCARTESIANPOINT((0.,0.));
#174=IFCAXIS2PLACEMENT2D(#173,$);
#175=IFCRECTANGLEPROFILEDEF(.AREA.,$,#174,2519.8420997897465,2519.8420997897465);
#176=IFCCARTESIANPOINT((0.,0.,0.));
#177=IFCAXIS2PLACEMENT3D(#176,$,$);
#178=IFCDIRECTION((0.,0.,1.));
#179=IFCEXTRUDEDAREASOLID(#175,#177,#178,2519.8420997897465);
#180=IFCSHAPEREPRESENTATION(#7,'Body','SweptSolid',(#179));
#181=IFCCARTESIANPOINT((0.,0.,0.));
#182=IFCAXIS2PLACEMENT3D(#181,$,$);
#183=IFCREPRESENTATIONMAP(#182,#180);
#184=IFCTANKTYPE('0nanbQOQf_hnrQz18I1s_s',$,'\X2\04110430043A\X0\ \X2\043C04300442043E0447043D0438043A0430\X0\ 2','\X2\042504400430043D0435043D04380435\X0\ \X2\043C04300442043E0447043D0438043A0430\X0\; \X2\043E0431043E0433044004350432\X0\ \X2\043E044104420440044B043C\X0\ \X2\043F04300440043E043C\X0\. \X2\041C04300442043E0447043D0438043A\X0\ \X2\043D0430043F044004300432043B044F043504420441044F\X0\ \X2\0432\X0\ \X2\0426042D041D\X0\ \X2\2014\X0\ \X2\043F04400438\X0\ \X2\044204400430043D0441043F043E0440044204380440043E0432043A0435\X0\ \X2\043E043104350441043F0435044704380442044C\X0\ t \X2\2265\X0\ 30\X2\2013\X0\40 \X2\00B00421\X0\ \X2\043B04380431043E\X0\ \X2\04400430043704310430043204380442044C\X0\ \X2\0432043E0434043E0439\X0\ \X2\043D0430\X0\ 15\X2\2013\X0\20 %',$,(#172),(#183),'\X2\041E0412042D\X0\75-\X2\041B\X0\2-40','\X2\041A04400438044104420430043B043B04380437043004460438044F\X0\ \X2\0441043C043504480430043D043D043E0433043E\X0\ \X2\043A0443043F043E0440043E04410430\X0\',.USERDEFINED.);
#185=IFCPROPERTYSINGLEVALUE('\X2\041F043E0437043804460438044F\X0\',$,IFCIDENTIFIER('4.1.27'),$);
#186=IFCPROPERTYSINGLEVALUE('\X2\041D04300438043C0435043D043E04320430043D04380435\X0\',$,IFCTEXT('\X2\04200435043F0443043B044C043F04300442043E0440\X0\'),$);
#187=IFCPROPERTYSINGLEVALUE('\X2\041B043E0442\X0\',$,IFCINTEGER(2),$);
#188=IFCPROPERTYSINGLEVALUE('\X2\041C043004420435044004380430043B\X0\',$,IFCTEXT('\X2\042104420430043B044C\X0\ 904L \X2\0438043B0438\X0\ \X2\0430043D0430043B043E0433\X0\'),$);
#189=IFCPROPERTYSINGLEVALUE('\X2\041A043E043B043804470435044104420432043E\X0\',$,IFCINTEGER(1),$);
#190=IFCPROPERTYSET('1yk5wRGj8U$cARrHliZMPH',$,'Pset_KVANT_LOI',$,(#185,#186,#187,#188,#189));
#191=IFCCARTESIANPOINT((0.,0.));
#192=IFCAXIS2PLACEMENT2D(#191,$);
#193=IFCRECTANGLEPROFILEDEF(.AREA.,$,#192,1062.6585691826112,1062.6585691826112);
#194=IFCCARTESIANPOINT((0.,0.,0.));
#195=IFCAXIS2PLACEMENT3D(#194,$,$);
#196=IFCDIRECTION((0.,0.,1.));
#197=IFCEXTRUDEDAREASOLID(#193,#195,#196,1062.6585691826112);
#198=IFCSHAPEREPRESENTATION(#7,'Body','SweptSolid',(#197));
#199=IFCCARTESIANPOINT((0.,0.,0.));
#200=IFCAXIS2PLACEMENT3D(#199,$,$);
#201=IFCREPRESENTATIONMAP(#200,#198);
#202=IFCTANKTYPE('1jbBlD8xiO_Ts$saSiKwQ7',$,'\X2\04200435043F0443043B044C043F04300442043E0440\X0\','\X2\042504400430043D0435043D04380435\X0\ \X2\043F0443043B044C043F044B\X0\ \X2\0441043C043504480430043D043D043E0433043E\X0\ \X2\043A0443043F043E0440043E04410430\X0\',$,(#190),(#201),'\X2\041E0412042D\X0\75-\X2\041B\X0\2-41','\X2\041A04400438044104420430043B043B04380437043004460438044F\X0\ \X2\0441043C043504480430043D043D043E0433043E\X0\ \X2\043A0443043F043E0440043E04410430\X0\',.USERDEFINED.);
#203=IFCPROPERTYSINGLEVALUE('\X2\041F043E0437043804460438044F\X0\',$,IFCIDENTIFIER('4.1.28'),$);
#204=IFCPROPERTYSINGLEVALUE('\X2\041D04300438043C0435043D043E04320430043D04380435\X0\',$,IFCTEXT('\X2\041F0443043B044C0441043804400443044E04490430044F\X0\ (\X2\04440438043B044C044204400443044E04490430044F\X0\) \X2\04460435043D0442044004380444044304330430\X0\'),$);
#205=IFCPROPERTYSINGLEVALUE('\X2\041B043E0442\X0\',$,IFCINTEGER(2),$);
#206=IFCPROPERTYSINGLEVALUE('\X2\041C043004420435044004380430043B\X0\',$,IFCTEXT('\X2\042104420430043B044C\X0\ 904L \X2\0438043B0438\X0\ \X2\0430043D0430043B043E0433\X0\'),$);
#207=IFCPROPERTYSINGLEVALUE('\X2\041A043E043B043804470435044104420432043E\X0\',$,IFCINTEGER(2),$);
#208=IFCPROPERTYSET('0tGjdg5R6s_g$GkH8GQrZ6',$,'Pset_KVANT_LOI',$,(#203,#204,#205,#206,#207));
#209=IFCBUILDINGELEMENTPROXYTYPE('1z6EhFXopP1MJyyAz$xrDa',$,'\X2\041F0443043B044C0441043804400443044E04490430044F\X0\ (\X2\04440438043B044C044204400443044E04490430044F\X0\) \X2\04460435043D0442044004380444044304330430\X0\','\X2\041E0431043504370432043E0436043804320430043D04380435\X0\ \X2\0438\X0\ \X2\043F0440043E043C044B0432043A0430\X0\ \X2\043A04400438044104420430043B043B043E0432\X0\ \X2\0441043C043504480430043D043D043E0433043E\X0\ \X2\043A0443043F043E0440043E04410430\X0\, II \X2\04410442043004340438044F\X0\',$,(#208),$,'\X2\041E0412042D\X0\75-\X2\041B\X0\2-42','\X2\04240438043B044C044204400443044E04490430044F\X0\ \X2\04460435043D0442044004380444044304330430\X0\ \X2\0441\X0\ \X2\043F0443043B044C0441043804400443044E044904350439\X0\ \X2\0432044B0433044004430437043A043E0439\X0\',.USERDEFINED.);
#210=IFCPROPERTYSINGLEVALUE('\X2\041F043E0437043804460438044F\X0\',$,IFCIDENTIFIER('\X2\043F043E0437\X0\. 6 \X2\044004380441\X0\. 4.4/4.5'),$);
#211=IFCPROPERTYSINGLEVALUE('\X2\041D04300438043C0435043D043E04320430043D04380435\X0\',$,IFCTEXT('\X2\041F04300440043E044D04360435043A0442043E0440043D044B0439\X0\ \X2\0431043B043E043A\X0\ (\X2\041F042D0411\X0\)'),$);
#212=IFCPROPERTYSINGLEVALUE('\X2\041B043E0442\X0\',$,IFCINTEGER(2),$);
#213=IFCPROPERTYSINGLEVALUE('\X2\041A043E043B043804470435044104420432043E\X0\',$,IFCTEXT('\X2\043F043E\X0\ 1 \X2\043D0430\X0\ \X2\043D04380442043A0443\X0\'),$);
#214=IFCPROPERTYSET('24LfB4c0uXVxNlA6fPAIhI',$,'Pset_KVANT_LOI',$,(#210,#211,#212,#213));
#215=IFCPUMPTYPE('3FGNOi9dCx__OtdLeifiPx',$,'\X2\041F04300440043E044D04360435043A0442043E0440043D044B0439\X0\ \X2\0431043B043E043A\X0\ (\X2\041F042D0411\X0\)','\X2\041E043104350441043F043504470435043D04380435\X0\ \X2\04320430043A04430443043C0430\X0\ \X2\0432\X0\ \X2\043A043E043D04340435043D044104300442043E04400435\X0\',$,(#214),$,'\X2\041E0412042D\X0\75-\X2\041B\X0\2-43','\X2\042D04360435043A0442043E0440\X0\ + \X2\043A043E043D04340435043D044104300442043E0440\X0\ \X2\041F042D0411\X0\ + \X2\04320430043A04430443043C\X0\-\X2\043D04300441043E0441\X0\',.USERDEFINED.);
#216=IFCPROPERTYSINGLEVALUE('\X2\041D04300438043C0435043D043E04320430043D04380435\X0\',$,IFCTEXT('\X2\041E0431043E044004430434043E04320430043D04380435\X0\ \X2\044404300441043E0432043A0438\X0\, \X2\043F0440043E0431043E043E04420431043E04400430\X0\ \X2\0438\X0\ \X2\043A043E043C043C04350440044704350441043A043E0433043E\X0\ \X2\04430447045104420430\X0\ \X2\043C04350434043D043E\X0\-\X2\043D0438043A0435043B04350432043E0433043E\X0\ \X2\043A0443043F043E0440043E04410430\X0\'),$);
#217=IFCPROPERTYSINGLEVALUE('\X2\041B043E0442\X0\',$,IFCINTEGER(2),$);
#218=IFCPROPERTYSINGLEVALUE('\X2\041A043E043B043804470435044104420432043E\X0\',$,IFCTEXT('\X2\041A043E043C043F043B0435043A0442\X0\'),$);
#219=IFCPROPERTYSET('0ocuj$FN86RmU4SOGo3U6G',$,'Pset_KVANT_LOI',$,(#216,#217,#218));
#220=IFCBUILDINGELEMENTPROXYTYPE('1Ll0Au$w4zf2_mu2ZfHgJ8',$,'\X2\041E0431043E044004430434043E04320430043D04380435\X0\ \X2\044404300441043E0432043A0438\X0\, \X2\043F0440043E0431043E043E04420431043E04400430\X0\ \X2\0438\X0\ \X2\043A043E043C043C04350440044704350441043A043E0433043E\X0\ \X2\04430447045104420430\X0\ \X2\043C04350434043D043E\X0\-\X2\043D0438043A0435043B04350432043E0433043E\X0\ \X2\043A0443043F043E0440043E04410430\X0\','\X2\042404300441043E0432043A0430\X0\ \X2\0432\X0\ \X2\043104380433\X0\-\X2\0431043504330438\X0\ \X2\0441\X0\ \X2\041F042D\X0\-\X2\0432043A043B04300434044B04480435043C\X0\, \X2\043F0440043E0431043E043E04420431043E0440\X0\, \X2\043204350441043E0432043E0439\X0\ \X2\0443044704510442\X0\',$,(#219),$,'\X2\041E0412042D\X0\75-\X2\041B\X0\2-44','\X2\042404300441043E0432043A0430\X0\',.USERDEFINED.);
#221=IFCRELDECLARES('1ilIcF0mYtI7sLD2Y5hjlE',$,$,$,#8,(#26,#44,#51,#57,#75,#93,#100,#118,#136,#154,#160,#166,#184,#202,#209,#215,#220));
ENDSEC;
END-ISO-10303-21;
