ISO-10303-21;
HEADER;
FILE_DESCRIPTION(('ViewDefinition [ReferenceView]'),'2;1');
FILE_NAME('ove75-equip-lot1.ifc','2026-08-28T03:10:55',('\X2\041E041E041E\X0\ \X2\00AB041A04120410041D042200BB\X0\'),('\X2\041E041E041E\X0\ \X2\00AB041A04120410041D042200BB\X0\'),'IfcOpenShell 0.8.5-1c5b825','ove/tools/equip2ifc.py (IfcOpenShell)','\X2\043F0440043E0435043A0442\X0\ \X2\041E0412042D\X0\-75, \X2\04410442043004340438044F\X0\ \X2\04110418\X0\');
FILE_SCHEMA(('IFC4'));
ENDSEC;
DATA;
#1=IFCSIUNIT(*,.LENGTHUNIT.,.MILLI.,.METRE.);
#2=IFCSIUNIT(*,.AREAUNIT.,$,.SQUARE_METRE.);
#3=IFCSIUNIT(*,.VOLUMEUNIT.,$,.CUBIC_METRE.);
#4=IFCUNITASSIGNMENT((#1,#2,#3));
#5=IFCCARTESIANPOINT((0.,0.,0.));
#6=IFCAXIS2PLACEMENT3D(#5,$,$);
#7=IFCGEOMETRICREPRESENTATIONCONTEXT($,'Model',3,1.0000000000000001E-05,#6,$);
#8=IFCPROJECT('06yrDiUjGEZgpiDq_nz02V',$,'\X2\041E0412042D\X0\-75 \X2\00B7\X0\ \X2\041E0431043E044004430434043E04320430043D04380435\X0\ \X2\043B043E04420430\X0\ \X2\2116\X0\1','\X2\041104380431043B0438043E04420435043A0430\X0\ \X2\04420438043F043E0432\X0\ \X2\043E0431043E044004430434043E04320430043D0438044F\X0\ \X2\043F043E\X0\ ove/data/equipment.json (\X2\04410442043004340438044F\X0\ \X2\04110418\X0\)',$,$,$,(#7),#4);
#9=IFCPROPERTYSINGLEVALUE('\X2\041D04300438043C0435043D043E04320430043D04380435\X0\',$,IFCTEXT('\X2\041B0435043D0442043E0447043D044B0435\X0\ \X2\044204400430043D0441043F043E0440044204510440044B\X0\ (\X2\0432\X0\ \X2\0442\X0\.\X2\0447\X0\. \X2\04400435043204350440044104380432043D044B0435\X0\)'),$);
#10=IFCPROPERTYSINGLEVALUE('\X2\041B043E0442\X0\',$,IFCINTEGER(1),$);
#11=IFCPROPERTYSINGLEVALUE('\X2\041C043E0449043D043E04410442044C\X0\_\X2\043A04120442\X0\',$,IFCTEXT('3,4\X2\2013\X0\30 \X2\043A04120442\X0\'),$);
#12=IFCPROPERTYSINGLEVALUE('\X2\041C043004420435044004380430043B\X0\',$,IFCTEXT('\X2\04230433043B04350440043E04340438044104420430044F\X0\ \X2\044104420430043B044C\X0\, \X2\0440043504370438043D0430\X0\'),$);
#13=IFCPROPERTYSINGLEVALUE('\X2\041A043E043B043804470435044104420432043E\X0\',$,IFCTEXT('\X2\04230442043E0447043D044F043504420441044F\X0\ \X2\043D0430\X0\ \X2\044104420430043404380438\X0\ \X2\041E04220420\X0\; 5 \X2\04400435043204350440044104380432043D044B0445\X0\ \X2\043D0430\X0\ \X2\043704300433044004430437043A0443\X0\ \X2\04310443043D043A04350440043E0432\X0\ \X2\0448043804450442044B\X0\ \X2\0438\X0\ \X2\043F043504470438\X0\ \X2\041A0421\X0\'),$);
#14=IFCPROPERTYSET('0VczYLtJwlNJjYgRZQGDg5',$,'Pset_KVANT_LOI',$,(#9,#10,#11,#12,#13));
#15=IFCCARTESIANPOINT((0.,0.));
#16=IFCAXIS2PLACEMENT2D(#15,$);
#17=IFCRECTANGLEPROFILEDEF(.AREA.,$,#16,3000.,400.);
#18=IFCCARTESIANPOINT((0.,0.,0.));
#19=IFCAXIS2PLACEMENT3D(#18,$,$);
#20=IFCDIRECTION((0.,0.,1.));
#21=IFCEXTRUDEDAREASOLID(#17,#19,#20,100.);
#22=IFCSHAPEREPRESENTATION(#7,'Body','SweptSolid',(#21));
#23=IFCCARTESIANPOINT((0.,0.,0.));
#24=IFCAXIS2PLACEMENT3D(#23,$,$);
#25=IFCREPRESENTATIONMAP(#24,#22);
#26=IFCTRANSPORTELEMENTTYPE('1Aae7CqaxD7DimiMAxzpRw',$,'\X2\041B0435043D0442043E0447043D044B0435\X0\ \X2\044204400430043D0441043F043E0440044204510440044B\X0\ (\X2\0432\X0\ \X2\0442\X0\.\X2\0447\X0\. \X2\04400435043204350440044104380432043D044B0435\X0\)','\X2\042204400430043D0441043F043E0440044204380440043E0432043A0430\X0\ \X2\043C04350434043D043E0433043E\X0\ \X2\043A043E043D04460435043D04420440043004420430\X0\, \X2\043A0435043A0430\X0\ NNH, \X2\043E0431043E0440043E0442043D044B0445\X0\ \X2\043C043004420435044004380430043B043E0432\X0\ \X2\0438\X0\ \X2\043F0440043E04340443043A0442043E0432\X0\ \X2\043E04310436043804330430\X0\',$,(#14),(#25),'\X2\041E0412042D\X0\75-\X2\041B\X0\1-01','\X2\0423041A0412\X0\-320-\X2\0426\X0\-60 / \X2\0423041A0412\X0\-200-\X2\0426\X0\-60 / \X2\0423041A0412\X0\-200-\X2\0426\X0\-37,5 / \X2\0423041A0412\X0\-320-\X2\0426\X0\-95',.USERDEFINED.);
#27=IFCPROPERTYSINGLEVALUE('\X2\041D04300438043C0435043D043E04320430043D04380435\X0\',$,IFCTEXT('\X2\041B0435043D0442043E0447043D044B0435\X0\ \X2\044204400430043D0441043F043E0440044204510440044B\X0\ \X2\0434043B044F\X0\ \X2\04460435043C0435043D0442043D043E0439\X0\ \X2\043C043504340438\X0\'),$);
#28=IFCPROPERTYSINGLEVALUE('\X2\041B043E0442\X0\',$,IFCINTEGER(1),$);
#29=IFCPROPERTYSINGLEVALUE('\X2\041C043004420435044004380430043B\X0\',$,IFCTEXT('\X2\041D043504400436043004320435044E04490430044F\X0\ \X2\044104420430043B044C\X0\, \X2\043A04380441043B043E0442043E0443043F043E0440043D0430044F\X0\ \X2\0440043504370438043D0430\X0\'),$);
#30=IFCPROPERTYSINGLEVALUE('\X2\041A043E043B043804470435044104420432043E\X0\',$,IFCTEXT('\X2\04230442043E0447043D044F043504420441044F\X0\ \X2\043D0430\X0\ \X2\044104420430043404380438\X0\ \X2\041E04220420\X0\'),$);
#31=IFCPROPERTYSET('0leT74hU4u8UlWPQ$gsWHo',$,'Pset_KVANT_LOI',$,(#27,#28,#29,#30));
#32=IFCTRANSPORTELEMENTTYPE('0yuNqZRWGfYC1eXPZDBQUb',$,'\X2\041B0435043D0442043E0447043D044B0435\X0\ \X2\044204400430043D0441043F043E0440044204510440044B\X0\ \X2\0434043B044F\X0\ \X2\04460435043C0435043D0442043D043E0439\X0\ \X2\043C043504340438\X0\','\X2\042204400430043D0441043F043E0440044204380440043E0432043A0430\X0\ \X2\04460435043C0435043D0442043D043E0439\X0\ \X2\043C043504340438\X0\',$,(#31),$,'\X2\041E0412042D\X0\75-\X2\041B\X0\1-02','\X2\0428043804450442043E043F043E04340433043E0442043E0432043A0430\X0\',.USERDEFINED.);
#33=IFCPROPERTYSINGLEVALUE('\X2\041D04300438043C0435043D043E04320430043D04380435\X0\',$,IFCTEXT('\X2\0428043D0435043A043E0432044B0435\X0\ \X2\044204400430043D0441043F043E0440044204510440044B\X0\'),$);
#34=IFCPROPERTYSINGLEVALUE('\X2\041B043E0442\X0\',$,IFCINTEGER(1),$);
#35=IFCPROPERTYSINGLEVALUE('\X2\041C043004420435044004380430043B\X0\',$,IFCTEXT('\X2\04230433043B04350440043E04340438044104420430044F\X0\ \X2\044104420430043B044C\X0\'),$);
#36=IFCPROPERTYSINGLEVALUE('\X2\041A043E043B043804470435044104420432043E\X0\',$,IFCTEXT('2 \X2\043D0430\X0\ \X2\043F043E0434043004470443\X0\ \X2\0448043804450442044B\X0\; \X2\043E044204340435043B044C043D044B0435\X0\ \X2\043F043E0434\X0\ \X2\043F044B043B044C\X0\ \X2\041A0423\X0\ / \X2\04460438043A043B043E043D0430\X0\ / \X2\044D043B0435043A04420440043E04440438043B044C044204400430\X0\'),$);
#37=IFCPROPERTYSET('18jIQniIAoo595Eu427IkH',$,'Pset_KVANT_LOI',$,(#33,#34,#35,#36));
#38=IFCCARTESIANPOINT((0.,0.));
#39=IFCAXIS2PLACEMENT2D(#38,$);
#40=IFCRECTANGLEPROFILEDEF(.AREA.,$,#39,10000.,360.);
#41=IFCCARTESIANPOINT((0.,0.,0.));
#42=IFCAXIS2PLACEMENT3D(#41,$,$);
#43=IFCDIRECTION((0.,0.,1.));
#44=IFCEXTRUDEDAREASOLID(#40,#42,#43,360.);
#45=IFCSHAPEREPRESENTATION(#7,'Body','SweptSolid',(#44));
#46=IFCCARTESIANPOINT((0.,0.,0.));
#47=IFCAXIS2PLACEMENT3D(#46,$,$);
#48=IFCREPRESENTATIONMAP(#47,#45);
#49=IFCTRANSPORTELEMENTTYPE('1_Ov6slrKJgcl_iRClwJGJ',$,'\X2\0428043D0435043A043E0432044B0435\X0\ \X2\044204400430043D0441043F043E0440044204510440044B\X0\','\X2\042204400430043D0441043F043E0440044204380440043E0432043A0430\X0\ \X2\043F044B043B044F044904380445\X0\ \X2\0432044B0441043E043A043E04420435043C043F043504400430044204430440043D044B0445\X0\ \X2\043A043E043C043F043E043D0435043D0442043E0432\X0\ \X2\0448043804450442044B\X0\ (\X2\043A0440043E043C0435\X0\ \X2\04460435043C0435043D0442043D043E0439\X0\ \X2\043C043504340438\X0\) \X2\0438\X0\ \X2\043F0440043E04340443043A0442043E0432\X0\ \X2\043E04310436043804330430\X0\',$,(#37),(#48),'\X2\041E0412042D\X0\75-\X2\041B\X0\1-03','\X2\0428043804450442043E043F043E04340433043E0442043E0432043A0430\X0\',.USERDEFINED.);
#50=IFCPROPERTYSINGLEVALUE('\X2\041D04300438043C0435043D043E04320430043D04380435\X0\',$,IFCTEXT('\X2\0428043D0435043A043E0432044B0435\X0\ \X2\044204400430043D0441043F043E0440044204510440044B\X0\ \X2\0434043B044F\X0\ \X2\04460435043C0435043D0442043D043E0439\X0\ \X2\043C043504340438\X0\'),$);
#51=IFCPROPERTYSINGLEVALUE('\X2\041B043E0442\X0\',$,IFCINTEGER(1),$);
#52=IFCPROPERTYSINGLEVALUE('\X2\041C043004420435044004380430043B\X0\',$,IFCTEXT('\X2\041D043504400436043004320435044E04490430044F\X0\ \X2\044104420430043B044C\X0\'),$);
#53=IFCPROPERTYSINGLEVALUE('\X2\041A043E043B043804470435044104420432043E\X0\',$,IFCTEXT('\X2\04230442043E0447043D044F043504420441044F\X0\'),$);
#54=IFCPROPERTYSET('0Ou2Zd0Mm_NANwMj2AoUJf',$,'Pset_KVANT_LOI',$,(#50,#51,#52,#53));
#55=IFCTRANSPORTELEMENTTYPE('1rwM1GBq8AKKzzCytnh8Ja',$,'\X2\0428043D0435043A043E0432044B0435\X0\ \X2\044204400430043D0441043F043E0440044204510440044B\X0\ \X2\0434043B044F\X0\ \X2\04460435043C0435043D0442043D043E0439\X0\ \X2\043C043504340438\X0\','\X2\042204400430043D0441043F043E0440044204380440043E0432043A0430\X0\ \X2\04460435043C0435043D0442043D043E0439\X0\ \X2\043C043504340438\X0\ \X2\0438\X0\ \X2\0448043804450442044B\X0\, \X2\04350451\X0\ \X2\0441043E04340435044004360430044904350439\X0\',$,(#54),$,'\X2\041E0412042D\X0\75-\X2\041B\X0\1-04','\X2\0428043804450442043E043F043E04340433043E0442043E0432043A0430\X0\',.USERDEFINED.);
#56=IFCPROPERTYSINGLEVALUE('\X2\041D04300438043C0435043D043E04320430043D04380435\X0\',$,IFCTEXT('\X2\041F044004380451043C043D044B0435\X0\ \X2\04310443043D043A043504400430\X0\'),$);
#57=IFCPROPERTYSINGLEVALUE('\X2\041B043E0442\X0\',$,IFCINTEGER(1),$);
#58=IFCPROPERTYSINGLEVALUE('\X2\041C043004420435044004380430043B\X0\',$,IFCTEXT('\X2\04230433043B04350440043E04340438044104420430044F\X0\ \X2\044104420430043B044C\X0\, \X2\04440443044204350440043E0432043A0430\X0\ \X2\043F043E043B0438044D04420438043B0435043D043E043C\X0\ \X2\04200415\X0\500'),$);
#59=IFCPROPERTYSINGLEVALUE('\X2\041A043E043B043804470435044104420432043E\X0\',$,IFCTEXT('\X2\041A043E043D04460435043D0442044004300442\X0\ 60 \X2\043C00B3\X0\, \X2\043A0435043A\X0\ 20 \X2\043C00B3\X0\, \X2\04460435043C0435043D0442043D0430044F\X0\ \X2\043C04350434044C\X0\ 10 \X2\043C00B3\X0\, \X2\043E0431043E0440043E0442043D044B0435\X0\ \X2\043C043004420435044004380430043B044B\X0\ 50 \X2\043C00B3\X0\'),$);
#60=IFCPROPERTYSET('3o_C4OHq6esSKdSdgw$jg5',$,'Pset_KVANT_LOI',$,(#56,#57,#58,#59));
#61=IFCTANKTYPE('3_Nv3qspTCIvX8jMdJiTKR',$,'\X2\041F044004380451043C043D044B0435\X0\ \X2\04310443043D043A043504400430\X0\','\X2\042504400430043D0435043D04380435\X0\ \X2\0441043C0435043D043D043E0433043E\X0\ \X2\04370430043F043004410430\X0\ \X2\043C04350434043D043E0433043E\X0\ \X2\043A043E043D04460435043D04420440043004420430\X0\, \X2\043A0435043A0430\X0\ NNH, \X2\04460435043C0435043D0442043D043E0439\X0\ \X2\043C043504340438\X0\, \X2\043E043304300440043A0430\X0\ \X2\0434043B044F\X0\ \X2\04370430043F04430441043A0430\X0\ \X2\043F043504470438\X0\ \X2\041A0421\X0\, \X2\0432043E04370432044004300442\X0\ \X2\043F044B043B0438\X0\ \X2\044D043B0435043A04420440043E04440438043B044C044204400430\X0\',$,(#60),$,'\X2\041E0412042D\X0\75-\X2\041B\X0\1-05','\X2\04260438043B0438043D043404400438044704350441043A04380435\X0\',.USERDEFINED.);
#62=IFCPROPERTYSINGLEVALUE('\X2\041D04300438043C0435043D043E04320430043D04380435\X0\',$,IFCTEXT('\X2\0420043004410445043E0434043D044B0435\X0\ \X2\04310443043D043A043504400430\X0\ \X2\0448043804450442044B\X0\'),$);
#63=IFCPROPERTYSINGLEVALUE('\X2\041B043E0442\X0\',$,IFCINTEGER(1),$);
#64=IFCPROPERTYSINGLEVALUE('\X2\041C043004420435044004380430043B\X0\',$,IFCTEXT('\X2\04230433043B04350440043E04340438044104420430044F\X0\ \X2\044104420430043B044C\X0\, \X2\04440443044204350440043E0432043A0430\X0\ \X2\043F043E043B0438044D04420438043B0435043D043E043C\X0\ \X2\04200415\X0\500'),$);
#65=IFCPROPERTYSINGLEVALUE('\X2\041A043E043B043804470435044104420432043E\X0\',$,IFCINTEGER(2),$);
#66=IFCPROPERTYSET('1Qv3vWHQR8Y2rJ$9wVMqVZ',$,'Pset_KVANT_LOI',$,(#62,#63,#64,#65));
#67=IFCTANKTYPE('245jRgR_Zy7oiQVpNmT5Rn',$,'\X2\0420043004410445043E0434043D044B0435\X0\ \X2\04310443043D043A043504400430\X0\ \X2\0448043804450442044B\X0\','\X2\041104350441043F0435044004350431043E0439043D043E0435\X0\ \X2\043F043804420430043D04380435\X0\ \X2\043F043504470438\X0\ \X2\041A0421\X0\ \X2\0448043804450442043E0439\X0\ \X2\043F043E04410442043E044F043D043D043E0433043E\X0\ \X2\0441043E04410442043004320430\X0\',$,(#66),$,'\X2\041E0412042D\X0\75-\X2\041B\X0\1-06','\X2\04260438043B0438043D043404400438044704350441043A04380435\X0\',.USERDEFINED.);
#68=IFCPROPERTYSINGLEVALUE('\X2\041D04300438043C0435043D043E04320430043D04380435\X0\',$,IFCTEXT('\X2\041404380441043A043E0432044B0439\X0\ (\X2\0442043004400435043B044C044704300442044B0439\X0\) \X2\043F04380442043004420435043B044C\X0\'),$);
#69=IFCPROPERTYSINGLEVALUE('\X2\041B043E0442\X0\',$,IFCINTEGER(1),$);
#70=IFCPROPERTYSINGLEVALUE('\X2\041C043E0449043D043E04410442044C\X0\_\X2\043A04120442\X0\',$,IFCTEXT('0,75\X2\2013\X0\3 \X2\043A04120442\X0\'),$);
#71=IFCPROPERTYSINGLEVALUE('\X2\041C043004420435044004380430043B\X0\',$,IFCTEXT('ZC-300 (\X2\04460435043C0435043D0442043D0430044F\X0\ \X2\043C04350434044C\X0\) \X2\0438\X0\ ZC-1500 (\X2\04480438044504420430\X0\) \X2\2014\X0\ \X2\043D043504400436043004320435044E04490430044F\X0\ \X2\044104420430043B044C\X0\; \X2\043E044104420430043B044C043D044B0435\X0\ \X2\2014\X0\ \X2\04430433043B04350440043E04340438044104420430044F\X0\'),$);
#72=IFCPROPERTYSINGLEVALUE('\X2\041A043E043B043804470435044104420432043E\X0\',$,IFCTEXT('2\X2\00D7\X0\ZC-300, 1\X2\00D7\X0\ZC-800, 1\X2\00D7\X0\ZC-1200, 2\X2\00D7\X0\ZC-1500'),$);
#73=IFCPROPERTYSET('1fEq04RDIjocufXwzjIHi6',$,'Pset_KVANT_LOI',$,(#68,#69,#70,#71,#72));
#74=IFCCARTESIANPOINT((0.,0.));
#75=IFCAXIS2PLACEMENT2D(#74,$);
#76=IFCRECTANGLEPROFILEDEF(.AREA.,$,#75,1200.,1200.);
#77=IFCCARTESIANPOINT((0.,0.,0.));
#78=IFCAXIS2PLACEMENT3D(#77,$,$);
#79=IFCDIRECTION((0.,0.,1.));
#80=IFCEXTRUDEDAREASOLID(#76,#78,#79,100.);
#81=IFCSHAPEREPRESENTATION(#7,'Body','SweptSolid',(#80));
#82=IFCCARTESIANPOINT((0.,0.,0.));
#83=IFCAXIS2PLACEMENT3D(#82,$,$);
#84=IFCREPRESENTATIONMAP(#83,#81);
#85=IFCBUILDINGELEMENTPROXYTYPE('3sYB4pIj3buQXjYfRDKRCA',$,'\X2\041404380441043A043E0432044B0439\X0\ (\X2\0442043004400435043B044C044704300442044B0439\X0\) \X2\043F04380442043004420435043B044C\X0\','\X2\0414043E043704380440043E04320430043D043D0430044F\X0\ \X2\043F043E0434043004470430\X0\ \X2\043A043E043C043F043E043D0435043D0442043E0432\X0\ \X2\0448043804450442044B\X0\ \X2\043D0430\X0\ \X2\0441043C043504480435043D04380435\X0\ \X2\0438\X0\ \X2\043F043E0434043004470430\X0\ \X2\0448043804450442044B\X0\ \X2\0432\X0\ \X2\043F04350447044C\X0\ \X2\041A0421\X0\',$,(#73),(#84),'\X2\041E0412042D\X0\75-\X2\041B\X0\1-07','ZC-300 / ZC-800 / ZC-1200 / ZC-1500',.USERDEFINED.);
#86=IFCPROPERTYSINGLEVALUE('\X2\041D04300438043C0435043D043E04320430043D04380435\X0\',$,IFCTEXT('\X2\0414043E043704300442043E0440\X0\ \X2\043B0435043D0442043E0447043D044B0439\X0\'),$);
#87=IFCPROPERTYSINGLEVALUE('\X2\041B043E0442\X0\',$,IFCINTEGER(1),$);
#88=IFCPROPERTYSINGLEVALUE('\X2\041C043E0449043D043E04410442044C\X0\_\X2\043A04120442\X0\',$,IFCTEXT('0,55\X2\2013\X0\1,5 \X2\043A04120442\X0\'),$);
#89=IFCPROPERTYSINGLEVALUE('\X2\041C043004420435044004380430043B\X0\',$,IFCTEXT('X=3,2 \X2\0438\X0\ 25 \X2\2014\X0\ \X2\043D043504400436043004320435044E04490430044F\X0\ \X2\044104420430043B044C\X0\ \X2\0438\X0\ \X2\043A04380441043B043E0442043E0443043F043E0440043D0430044F\X0\ \X2\0440043504370438043D0430\X0\; \X2\043E044104420430043B044C043D044B0435\X0\ \X2\2014\X0\ \X2\04430433043B04350440043E04340438044104420430044F\X0\ \X2\044104420430043B044C\X0\ \X2\0438\X0\ \X2\043E0431044B0447043D0430044F\X0\ \X2\0440043504370438043D0430\X0\'),$);
#90=IFCPROPERTYSINGLEVALUE('\X2\041A043E043B043804470435044104420432043E\X0\',$,IFCTEXT('\X2\043F043E\X0\ 1 \X2\04480442\X0\. \X2\043D0430\X0\ X=3,2; 4; 5; 16 \X2\0438\X0\ 2 \X2\04480442\X0\. \X2\043D0430\X0\ X=25'),$);
#91=IFCPROPERTYSET('3BnR2LGhU0ofKWcfzTsmsO',$,'Pset_KVANT_LOI',$,(#86,#87,#88,#89,#90));
#92=IFCBUILDINGELEMENTPROXYTYPE('2bxUNxu0IIE10TIpsSMtOm',$,'\X2\0414043E043704300442043E0440\X0\ \X2\043B0435043D0442043E0447043D044B0439\X0\','\X2\0420043504330443043B04380440043E0432043A0430\X0\ \X2\043F043E0434043004470438\X0\ \X2\043A043E043C043F043E043D0435043D0442043E0432\X0\ \X2\0448043804450442044B\X0\ \X2\043D0430\X0\ \X2\0441043C043504480435043D04380435\X0\ \X2\0438\X0\ \X2\043F043E0434043004470438\X0\ \X2\0448043804450442044B\X0\ \X2\0432\X0\ \X2\043F04350447044C\X0\ \X2\041A0421\X0\',$,(#91),$,'\X2\041E0412042D\X0\75-\X2\041B\X0\1-08','4488 \X2\0414041D\X0\-\X2\0423\X0\-1-X-40-1800-0-0.X (X = 3,2; 4; 5; 16; 25)',.USERDEFINED.);
#93=IFCPROPERTYSINGLEVALUE('\X2\041D04300438043C0435043D043E04320430043D04380435\X0\',$,IFCTEXT('\X2\0428043D0435043A043E0432044B0439\X0\ \X2\0441043C04350441043804420435043B044C\X0\'),$);
#94=IFCPROPERTYSINGLEVALUE('\X2\041B043E0442\X0\',$,IFCINTEGER(1),$);
#95=IFCPROPERTYSINGLEVALUE('\X2\041C043E0449043D043E04410442044C\X0\_\X2\043A04120442\X0\',$,IFCREAL(37.),$);
#96=IFCPROPERTYSINGLEVALUE('\X2\041C043004420435044004380430043B\X0\',$,IFCTEXT('\X2\041D043504400436043004320435044E04490430044F\X0\ \X2\044104420430043B044C\X0\'),$);
#97=IFCPROPERTYSINGLEVALUE('\X2\041A043E043B043804470435044104420432043E\X0\',$,IFCINTEGER(1),$);
#98=IFCPROPERTYSET('2Kdh$Yl2kQLtS0DqAcoHPW',$,'Pset_KVANT_LOI',$,(#93,#94,#95,#96,#97));
#99=IFCCARTESIANPOINT((0.,0.));
#100=IFCAXIS2PLACEMENT2D(#99,$);
#101=IFCRECTANGLEPROFILEDEF(.AREA.,$,#100,1560.4907507078847,1560.4907507078847);
#102=IFCCARTESIANPOINT((0.,0.,0.));
#103=IFCAXIS2PLACEMENT3D(#102,$,$);
#104=IFCDIRECTION((0.,0.,1.));
#105=IFCEXTRUDEDAREASOLID(#101,#103,#104,1560.4907507078847);
#106=IFCSHAPEREPRESENTATION(#7,'Body','SweptSolid',(#105));
#107=IFCCARTESIANPOINT((0.,0.,0.));
#108=IFCAXIS2PLACEMENT3D(#107,$,$);
#109=IFCREPRESENTATIONMAP(#108,#106);
#110=IFCBUILDINGELEMENTPROXYTYPE('0dLorXEairNUAtyo_0kV8M',$,'\X2\0428043D0435043A043E0432044B0439\X0\ \X2\0441043C04350441043804420435043B044C\X0\','\X2\041F044004380433043E0442043E0432043B0435043D04380435\X0\ \X2\0448043804450442044B\X0\ \X2\0434043B044F\X0\ \X2\043E04310436043804330430\X0\ \X2\0432\X0\ \X2\043F043504470438\X0\ \X2\041A0421\X0\',$,(#98),(#109),'\X2\041E0412042D\X0\75-\X2\041B\X0\1-09','\X2\04210428\X0\-25',.USERDEFINED.);
#111=IFCPROPERTYSINGLEVALUE('\X2\041D04300438043C0435043D043E04320430043D04380435\X0\',$,IFCTEXT('\X2\0428043D0435043A043E0432044B0439\X0\ \X2\043704300431044004300441044B0432043004420435043B044C\X0\ \X2\0448043804450442044B\X0\'),$);
#112=IFCPROPERTYSINGLEVALUE('\X2\041B043E0442\X0\',$,IFCINTEGER(1),$);
#113=IFCPROPERTYSINGLEVALUE('\X2\041C043E0449043D043E04410442044C\X0\_\X2\043A04120442\X0\',$,IFCREAL(3.5),$);
#114=IFCPROPERTYSINGLEVALUE('\X2\041C043004420435044004380430043B\X0\',$,IFCTEXT('\X2\041D043504400436043004320435044E04490430044F\X0\ \X2\043604300440043E043F0440043E0447043D0430044F\X0\ \X2\044104420430043B044C\X0\'),$);
#115=IFCPROPERTYSINGLEVALUE('\X2\041A043E043B043804470435044104420432043E\X0\',$,IFCINTEGER(1),$);
#116=IFCPROPERTYSET('0Ji1T6zwyhBPdae9tBIPze',$,'Pset_KVANT_LOI',$,(#111,#112,#113,#114,#115));
#117=IFCCARTESIANPOINT((0.,0.));
#118=IFCAXIS2PLACEMENT2D(#117,$);
#119=IFCRECTANGLEPROFILEDEF(.AREA.,$,#118,1500.,150.);
#120=IFCCARTESIANPOINT((0.,0.,0.));
#121=IFCAXIS2PLACEMENT3D(#120,$,$);
#122=IFCDIRECTION((0.,0.,1.));
#123=IFCEXTRUDEDAREASOLID(#119,#121,#122,150.);
#124=IFCSHAPEREPRESENTATION(#7,'Body','SweptSolid',(#123));
#125=IFCCARTESIANPOINT((0.,0.,0.));
#126=IFCAXIS2PLACEMENT3D(#125,$,$);
#127=IFCREPRESENTATIONMAP(#126,#124);
#128=IFCBUILDINGELEMENTPROXYTYPE('1REz4wkZbqr3xT5tJHzZWc',$,'\X2\0428043D0435043A043E0432044B0439\X0\ \X2\043704300431044004300441044B0432043004420435043B044C\X0\ \X2\0448043804450442044B\X0\','\X2\041F043E0434043004470430\X0\ \X2\0448043804450442044B\X0\ \X2\0432\X0\ \X2\043F04350447044C\X0\ \X2\041A0421\X0\',$,(#116),(#127),'\X2\041E0412042D\X0\75-\X2\041B\X0\1-10','\X2\041E0431043604380433\X0\',.USERDEFINED.);
#129=IFCPROPERTYSINGLEVALUE('\X2\041D04300438043C0435043D043E04320430043D04380435\X0\',$,IFCTEXT('\X2\041C0430043704430442043D0430044F\X0\ \X2\0433043E04400435043B043A0430\X0\ (\X2\043F043E0434043E0433044004350432\X0\ \X2\043404430442044C044F\X0\)'),$);
#130=IFCPROPERTYSINGLEVALUE('\X2\041B043E0442\X0\',$,IFCINTEGER(1),$);
#131=IFCPROPERTYSINGLEVALUE('\X2\041C043004420435044004380430043B\X0\',$,IFCTEXT('\X2\04230433043B04350440043E04340438044104420430044F\X0\ \X2\044104420430043B044C\X0\'),$);
#132=IFCPROPERTYSINGLEVALUE('\X2\041A043E043B043804470435044104420432043E\X0\',$,IFCINTEGER(1),$);
#133=IFCPROPERTYSET('3xh1c7wctos0uvj$w62VCE',$,'Pset_KVANT_LOI',$,(#129,#130,#131,#132));
#134=IFCBURNERTYPE('02BB5HyOwaEkAEQ9b$cqkS',$,'\X2\041C0430043704430442043D0430044F\X0\ \X2\0433043E04400435043B043A0430\X0\ (\X2\043F043E0434043E0433044004350432\X0\ \X2\043404430442044C044F\X0\)','\X2\041F043E0434043E0433044004350432\X0\ \X2\043404430442044C044F\X0\ \X2\043F0435044004350434\X0\ \X2\043F043E04340430044704350439\X0\ \X2\0432\X0\ \X2\043F04350447044C\X0\ \X2\041A0421\X0\ (\X2\04320441043F043E043C043E0433043004420435043B044C043D044B0439\X0\ \X2\04320430044004380430043D0442\X0\)',$,(#133),$,'\X2\041E0412042D\X0\75-\X2\041B\X0\1-11','\X2\0413041C\X0\-4,5',.USERDEFINED.);
#135=IFCPROPERTYSINGLEVALUE('\X2\041D04300438043C0435043D043E04320430043D04380435\X0\',$,IFCTEXT('\X2\041C0430043704430442043D0430044F\X0\ \X2\0433043E04400435043B043A0430\X0\ (\X2\044004300437043E0433044004350432\X0\ \X2\043F043504470438\X0\)'),$);
#136=IFCPROPERTYSINGLEVALUE('\X2\041B043E0442\X0\',$,IFCINTEGER(1),$);
#137=IFCPROPERTYSINGLEVALUE('\X2\041C043004420435044004380430043B\X0\',$,IFCTEXT('\X2\04230433043B04350440043E04340438044104420430044F\X0\ \X2\044104420430043B044C\X0\'),$);
#138=IFCPROPERTYSINGLEVALUE('\X2\041A043E043B043804470435044104420432043E\X0\',$,IFCINTEGER(3),$);
#139=IFCPROPERTYSET('1GPeMa2kzCc7Oai8q4Oa3a',$,'Pset_KVANT_LOI',$,(#135,#136,#137,#138));
#140=IFCBURNERTYPE('0FKYEuiTRNuegnFziMe0pH',$,'\X2\041C0430043704430442043D0430044F\X0\ \X2\0433043E04400435043B043A0430\X0\ (\X2\044004300437043E0433044004350432\X0\ \X2\043F043504470438\X0\)','\X2\041F043E0434043E0433044004350432\X0\ \X2\043E043304300440043A0430\X0\ \X2\0432\X0\ \X2\043F043504470438\X0\ \X2\041A0421\X0\ \X2\043F043E0441043B0435\X0\ \X2\043F0440043E0434043E043B0436043804420435043B044C043D043E0439\X0\ \X2\043E044104420430043D043E0432043A0438\X0\ \X2\043D0430\X0\ \X2\04400435043C043E043D0442\X0\',$,(#139),$,'\X2\041E0412042D\X0\75-\X2\041B\X0\1-12','\X2\041C0413041C0413\X0\-10',.USERDEFINED.);
#141=IFCPROPERTYSINGLEVALUE('\X2\041D04300438043C0435043D043E04320430043D04380435\X0\',$,IFCTEXT('\X2\041F04350447044C\X0\ \X2\043A0438043F044F044904350433043E\X0\ \X2\0441043B043E044F\X0\ (\X2\041A0421\X0\)'),$);
#142=IFCPROPERTYSINGLEVALUE('\X2\041B043E0442\X0\',$,IFCINTEGER(1),$);
#143=IFCPROPERTYSINGLEVALUE('\X2\041C043004420435044004380430043B\X0\',$,IFCTEXT('\X2\041A043E0440043F04430441\X0\ \X2\2014\X0\ \X2\04430433043B04350440043E04340438044104420430044F\X0\ \X2\044104420430043B044C\X0\, \X2\043B043804410442043E0432043E0439\X0\ \X2\043004410431043504410442\X0\, \X2\04480430043C043E0442043D044B0439\X0\ \X2\043A04380440043F04380447\X0\; \X2\043F043E04340438043D0430\X0\ \X2\2014\X0\ \X2\043604300440043E043F0440043E0447043D0430044F\X0\ \X2\044104420430043B044C\X0\ \X2\0438\X0\ \X2\043104350442043E043D\X0\'),$);
#144=IFCPROPERTYSINGLEVALUE('\X2\041A043E043B043804470435044104420432043E\X0\',$,IFCINTEGER(1),$);
#145=IFCPROPERTYSET('2JWGSr_kanPheJgYLaJCK8',$,'Pset_KVANT_LOI',$,(#141,#142,#143,#144));
#146=IFCBUILDINGELEMENTPROXYTYPE('3h3bxURLOvAwnHiZK2b4rm',$,'\X2\041F04350447044C\X0\ \X2\043A0438043F044F044904350433043E\X0\ \X2\0441043B043E044F\X0\ (\X2\041A0421\X0\)','\X2\041E043A04380441043B043804420435043B044C043D044B0439\X0\ \X2\043E0431043604380433\X0\ \X2\0448043804450442044B\X0\ \X2\043D0430\X0\ \X2\043E0441043D043E04320435\X0\ \X2\043C04350434043D043E0433043E\X0\ \X2\043A043E043D04460435043D04420440043004420430\X0\ \X2\041E04200424\X0\',$,(#145),$,'\X2\041E0412042D\X0\75-\X2\041B\X0\1-13','\X2\0425043004400430043A0442043504400438044104420438043A0438\X0\ \X2\043F043E\X0\ \X2\04180414\X0\ \X2\0447\X0\.1 \X2\044204300431043B\X0\. 23',.USERDEFINED.);
#147=IFCPROPERTYSINGLEVALUE('\X2\041D04300438043C0435043D043E04320430043D04380435\X0\',$,IFCTEXT('\X2\0412043E0437043404430445043E043404430432043A0430\X0\ \X2\043404430442044C043504320430044F\X0\'),$);
#148=IFCPROPERTYSINGLEVALUE('\X2\041B043E0442\X0\',$,IFCINTEGER(1),$);
#149=IFCPROPERTYSINGLEVALUE('\X2\041A043E043B043804470435044104420432043E\X0\',$,IFCTEXT('\X2\043F043E\X0\ \X2\04220417\X0\ \X2\043D0430\X0\ \X2\04110418\X0\, \X2\043F\X0\. 3.4'),$);
#150=IFCPROPERTYSET('316gCPP9bWTJRaGuYsGWqt',$,'Pset_KVANT_LOI',$,(#147,#148,#149));
#151=IFCFANTYPE('3rm$zvqGzQrFo_5Cvz4wJq',$,'\X2\0412043E0437043404430445043E043404430432043A0430\X0\ \X2\043404430442044C043504320430044F\X0\','\X2\0421043E043704340430043D04380435\X0\ \X2\043F0441043504320434043E043E0436043804360435043D043D043E0433043E\X0\ \X2\0441043B043E044F\X0\ \X2\0432\X0\ \X2\043F043504470438\X0\ \X2\041A0421\X0\',$,(#150),$,'\X2\041E0412042D\X0\75-\X2\041B\X0\1-14','\X2\041E0431043604380433\X0\',.USERDEFINED.);
#152=IFCPROPERTYSINGLEVALUE('\X2\041D04300438043C0435043D043E04320430043D04380435\X0\',$,IFCTEXT('\X2\04140440043E044104410435043B044C043D044B0439\X0\ \X2\0437043004420432043E0440\X0\'),$);
#153=IFCPROPERTYSINGLEVALUE('\X2\041B043E0442\X0\',$,IFCINTEGER(1),$);
#154=IFCPROPERTYSINGLEVALUE('\X2\041C043E0449043D043E04410442044C\X0\_\X2\043A04120442\X0\',$,IFCREAL(1.),$);
#155=IFCPROPERTYSINGLEVALUE('\X2\041A043E043B043804470435044104420432043E\X0\',$,IFCINTEGER(1),$);
#156=IFCPROPERTYSET('3rItLHwWJHX5fEfJbc4ceP',$,'Pset_KVANT_LOI',$,(#152,#153,#154,#155));
#157=IFCDAMPERTYPE('0qzi_qEgQUF0JlPcQGm5RM',$,'\X2\04140440043E044104410435043B044C043D044B0439\X0\ \X2\0437043004420432043E0440\X0\','\X2\0420043504330443043B04380440043E04320430043D04380435\X0\ \X2\043304300437043E0432043E0433043E\X0\ \X2\044204400430043A04420430\X0\ \X2\043F043504470438\X0\ \X2\041A0421\X0\',$,(#156),$,'\X2\041E0412042D\X0\75-\X2\041B\X0\1-15','\X2\041E0431043604380433\X0\',.USERDEFINED.);
#158=IFCPROPERTYSINGLEVALUE('\X2\041D04300438043C0435043D043E04320430043D04380435\X0\',$,IFCTEXT('\X2\041A043E04420451043B\X0\-\X2\044304420438043B0438043704300442043E0440\X0\'),$);
#159=IFCPROPERTYSINGLEVALUE('\X2\041B043E0442\X0\',$,IFCINTEGER(1),$);
#160=IFCPROPERTYSINGLEVALUE('\X2\041C043004420435044004380430043B\X0\',$,IFCTEXT('\X2\04230433043B04350440043E04340438044104420430044F\X0\ \X2\044104420430043B044C\X0\'),$);
#161=IFCPROPERTYSINGLEVALUE('\X2\041A043E043B043804470435044104420432043E\X0\',$,IFCINTEGER(1),$);
#162=IFCPROPERTYSET('1NMSAjtwu2aTodjgi7vtDP',$,'Pset_KVANT_LOI',$,(#158,#159,#160,#161));
#163=IFCCARTESIANPOINT((0.,0.));
#164=IFCAXIS2PLACEMENT2D(#163,$);
#165=IFCRECTANGLEPROFILEDEF(.AREA.,$,#164,2466.2120743304699,2466.2120743304699);
#166=IFCCARTESIANPOINT((0.,0.,0.));
#167=IFCAXIS2PLACEMENT3D(#166,$,$);
#168=IFCDIRECTION((0.,0.,1.));
#169=IFCEXTRUDEDAREASOLID(#165,#167,#168,2466.2120743304699);
#170=IFCSHAPEREPRESENTATION(#7,'Body','SweptSolid',(#169));
#171=IFCCARTESIANPOINT((0.,0.,0.));
#172=IFCAXIS2PLACEMENT3D(#171,$,$);
#173=IFCREPRESENTATIONMAP(#172,#170);
#174=IFCBOILERTYPE('3S1fxU8I1RaKOlivZhfRUX',$,'\X2\041A043E04420451043B\X0\-\X2\044304420438043B0438043704300442043E0440\X0\','\X2\041E0445043B0430043604340435043D04380435\X0\ \X2\0438\X0\ \X2\04400435043A0443043F04350440043004460438044F\X0\ \X2\04420435043F043B0430\X0\ \X2\043E04420445043E0434044F044904350433043E\X0\ \X2\0433043004370430\X0\, \X2\0443043B04300432043B043804320430043D04380435\X0\ \X2\00AB0433044004430431043E043900BB\X0\ \X2\043F044B043B0438\X0\',$,(#162),(#173),'\X2\041E0412042D\X0\75-\X2\041B\X0\1-16','\X2\041304300437043E043E0447043804410442043A0430\X0\',.USERDEFINED.);
#175=IFCPROPERTYSINGLEVALUE('\X2\041D04300438043C0435043D043E04320430043D04380435\X0\',$,IFCTEXT('\X2\041E04340438043D043E0447043D044B0439\X0\ \X2\04460438043A043B043E043D\X0\'),$);
#176=IFCPROPERTYSINGLEVALUE('\X2\041B043E0442\X0\',$,IFCINTEGER(1),$);
#177=IFCPROPERTYSINGLEVALUE('\X2\041C043004420435044004380430043B\X0\',$,IFCTEXT('\X2\042104420430043B044C\X0\ 12\X2\0425\X0\18\X2\041D\X0\10\X2\0422\X0\'),$);
#178=IFCPROPERTYSINGLEVALUE('\X2\041A043E043B043804470435044104420432043E\X0\',$,IFCINTEGER(1),$);
#179=IFCPROPERTYSET('02BAnS2OATR5qkUE0jWvma',$,'Pset_KVANT_LOI',$,(#175,#176,#177,#178));
#180=IFCCARTESIANPOINT((0.,0.));
#181=IFCAXIS2PLACEMENT2D(#180,$);
#182=IFCRECTANGLEPROFILEDEF(.AREA.,$,#181,2040.827550958674,2040.827550958674);
#183=IFCCARTESIANPOINT((0.,0.,0.));
#184=IFCAXIS2PLACEMENT3D(#183,$,$);
#185=IFCDIRECTION((0.,0.,1.));
#186=IFCEXTRUDEDAREASOLID(#182,#184,#185,2040.827550958674);
#187=IFCSHAPEREPRESENTATION(#7,'Body','SweptSolid',(#186));
#188=IFCCARTESIANPOINT((0.,0.,0.));
#189=IFCAXIS2PLACEMENT3D(#188,$,$);
#190=IFCREPRESENTATIONMAP(#189,#187);
#191=IFCFILTERTYPE('2d1KDNxxMEXunYNLqfbklX',$,'\X2\041E04340438043D043E0447043D044B0439\X0\ \X2\04460438043A043B043E043D\X0\','\X2\041E0447043804410442043A0430\X0\ \X2\0433043004370430\X0\ \X2\043E0442\X0\ \X2\043F044B043B0438\X0\',$,(#179),(#190),'\X2\041E0412042D\X0\75-\X2\041B\X0\1-17','\X2\04210426041D\X0\-50-1800\X2\00D7\X0\1\X2\0423041F\X0\',.USERDEFINED.);
#192=IFCPROPERTYSINGLEVALUE('\X2\041D04300438043C0435043D043E04320430043D04380435\X0\',$,IFCTEXT('\X2\042104430445043E0439\X0\ \X2\044D043B0435043A04420440043E04440438043B044C04420440\X0\'),$);
#193=IFCPROPERTYSINGLEVALUE('\X2\041B043E0442\X0\',$,IFCINTEGER(1),$);
#194=IFCPROPERTYSINGLEVALUE('\X2\041C043E0449043D043E04410442044C\X0\_\X2\043A04120442\X0\',$,IFCTEXT('0,4\X2\00D7\X0\80 \X2\043A0412\X0\'),$);
#195=IFCPROPERTYSINGLEVALUE('\X2\041C043004420435044004380430043B\X0\',$,IFCTEXT('\X2\042104420430043B044C\X0\ 12\X2\0425\X0\18\X2\041D\X0\10\X2\0422\X0\'),$);
#196=IFCPROPERTYSINGLEVALUE('\X2\041A043E043B043804470435044104420432043E\X0\',$,IFCINTEGER(2),$);
#197=IFCPROPERTYSET('2c_I8g2xSEMTsmb2xp_H$p',$,'Pset_KVANT_LOI',$,(#192,#193,#194,#195,#196));
#198=IFCCARTESIANPOINT((0.,0.));
#199=IFCAXIS2PLACEMENT2D(#198,$);
#200=IFCRECTANGLEPROFILEDEF(.AREA.,$,#199,2154.4346900318837,2154.4346900318837);
#201=IFCCARTESIANPOINT((0.,0.,0.));
#202=IFCAXIS2PLACEMENT3D(#201,$,$);
#203=IFCDIRECTION((0.,0.,1.));
#204=IFCEXTRUDEDAREASOLID(#200,#202,#203,2154.4346900318837);
#205=IFCSHAPEREPRESENTATION(#7,'Body','SweptSolid',(#204));
#206=IFCCARTESIANPOINT((0.,0.,0.));
#207=IFCAXIS2PLACEMENT3D(#206,$,$);
#208=IFCREPRESENTATIONMAP(#207,#205);
#209=IFCFILTERTYPE('3fE7k3hP7oc6pAZUvHV8Mi',$,'\X2\042104430445043E0439\X0\ \X2\044D043B0435043A04420440043E04440438043B044C04420440\X0\','\X2\041E0447043804410442043A0430\X0\ \X2\0433043004370430\X0\ \X2\043E0442\X0\ \X2\043F044B043B0438\X0\',$,(#197),(#208),'\X2\041E0412042D\X0\75-\X2\041B\X0\1-18','\X2\042304130422\X0\1-20-4',.USERDEFINED.);
#210=IFCPROPERTYSINGLEVALUE('\X2\041D04300438043C0435043D043E04320430043D04380435\X0\',$,IFCTEXT('\X2\0414044B043C043E0441043E0441\X0\'),$);
#211=IFCPROPERTYSINGLEVALUE('\X2\041B043E0442\X0\',$,IFCINTEGER(1),$);
#212=IFCPROPERTYSINGLEVALUE('\X2\041C043E0449043D043E04410442044C\X0\_\X2\043A04120442\X0\',$,IFCTEXT('400 \X2\043A04120442\X0\, 6000 \X2\0412\X0\'),$);
#213=IFCPROPERTYSINGLEVALUE('\X2\041C043004420435044004380430043B\X0\',$,IFCTEXT('\X2\042104420430043B044C\X0\ 12\X2\0425\X0\18\X2\041D\X0\10\X2\0422\X0\'),$);
#214=IFCPROPERTYSINGLEVALUE('\X2\041A043E043B043804470435044104420432043E\X0\',$,IFCINTEGER(2),$);
#215=IFCPROPERTYSET('2V3ZNP5BujuNG$MSHcUIrl',$,'Pset_KVANT_LOI',$,(#210,#211,#212,#213,#214));
#216=IFCFANTYPE('1enssckXlLahytaz9SeFBu',$,'\X2\0414044B043C043E0441043E0441\X0\','\X2\041F043504400435043C043504490435043D04380435\X0\ \X2\0433043004370430\X0\ \X2\043F043E\X0\ \X2\043304300437043E0432043E043C0443\X0\ \X2\044204400430043A04420443\X0\, \X2\043F043E0434043004470430\X0\ \X2\043E0447043804490435043D043D043E0433043E\X0\ \X2\0433043004370430\X0\ \X2\0432\X0\ \X2\0421041A0426\X0\',$,(#215),$,'\X2\041E0412042D\X0\75-\X2\041B\X0\1-19','\X2\0414041D\X0\-15\X2\0411041D0416\X0\',.USERDEFINED.);
#217=IFCPROPERTYSINGLEVALUE('\X2\041D04300438043C0435043D043E04320430043D04380435\X0\',$,IFCTEXT('\X2\0428043D0435043A043E0432044B0439\X0\ \X2\0445043E043B043E04340438043B044C043D0438043A\X0\ \X2\043E043304300440043A0430\X0\ \X2\0438\X0\ \X2\0433044004430431043E0439\X0\ \X2\043F044B043B0438\X0\'),$);
#218=IFCPROPERTYSINGLEVALUE('\X2\041B043E0442\X0\',$,IFCINTEGER(1),$);
#219=IFCPROPERTYSINGLEVALUE('\X2\041C043E0449043D043E04410442044C\X0\_\X2\043A04120442\X0\',$,IFCREAL(15.),$);
#220=IFCPROPERTYSINGLEVALUE('\X2\041C043004420435044004380430043B\X0\',$,IFCTEXT('\X2\042104420430043B044C\X0\ 316'),$);
#221=IFCPROPERTYSINGLEVALUE('\X2\041A043E043B043804470435044104420432043E\X0\',$,IFCINTEGER(1),$);
#222=IFCPROPERTYSET('0$aV_GxSrzuIBfi04txPet',$,'Pset_KVANT_LOI',$,(#217,#218,#219,#220,#221));
#223=IFCCARTESIANPOINT((0.,0.));
#224=IFCAXIS2PLACEMENT2D(#223,$);
#225=IFCRECTANGLEPROFILEDEF(.AREA.,$,#224,7315.,610.);
#226=IFCCARTESIANPOINT((0.,0.,0.));
#227=IFCAXIS2PLACEMENT3D(#226,$,$);
#228=IFCDIRECTION((0.,0.,1.));
#229=IFCEXTRUDEDAREASOLID(#225,#227,#228,610.);
#230=IFCSHAPEREPRESENTATION(#7,'Body','SweptSolid',(#229));
#231=IFCCARTESIANPOINT((0.,0.,0.));
#232=IFCAXIS2PLACEMENT3D(#231,$,$);
#233=IFCREPRESENTATIONMAP(#232,#230);
#234=IFCHEATEXCHANGERTYPE('0kdPSyr7qf7fTVE9o9aaIE',$,'\X2\0428043D0435043A043E0432044B0439\X0\ \X2\0445043E043B043E04340438043B044C043D0438043A\X0\ \X2\043E043304300440043A0430\X0\ \X2\0438\X0\ \X2\0433044004430431043E0439\X0\ \X2\043F044B043B0438\X0\','\X2\041E0445043B0430043604340435043D04380435\X0\ \X2\043E043304300440043A0430\X0\ \X2\0438\X0\ \X2\043F044B043B0438\X0\ \X2\041A0423\X0\ \X2\0438\X0\ \X2\043E04340438043D043E0447043D043E0433043E\X0\ \X2\04460438043A043B043E043D0430\X0\ \X2\0434043E\X0\ 70 \X2\00B00421\X0\',$,(#222),(#233),'\X2\041E0412042D\X0\75-\X2\041B\X0\1-20','D2424-6',.USERDEFINED.);
#235=IFCPROPERTYSINGLEVALUE('\X2\041D04300438043C0435043D043E04320430043D04380435\X0\',$,IFCTEXT('\X2\0428043D0435043A043E0432044B0439\X0\ \X2\0445043E043B043E04340438043B044C043D0438043A\X0\ \X2\0442043E043D043A043E0439\X0\ \X2\043F044B043B0438\X0\'),$);
#236=IFCPROPERTYSINGLEVALUE('\X2\041B043E0442\X0\',$,IFCINTEGER(1),$);
#237=IFCPROPERTYSINGLEVALUE('\X2\041C043004420435044004380430043B\X0\',$,IFCTEXT('\X2\042104420430043B044C\X0\ 316'),$);
#238=IFCPROPERTYSINGLEVALUE('\X2\041A043E043B043804470435044104420432043E\X0\',$,IFCINTEGER(1),$);
#239=IFCPROPERTYSET('3dRUYUinnStWHRlAQGpj$Q',$,'Pset_KVANT_LOI',$,(#235,#236,#237,#238));
#240=IFCCARTESIANPOINT((0.,0.));
#241=IFCAXIS2PLACEMENT2D(#240,$);
#242=IFCRECTANGLEPROFILEDEF(.AREA.,$,#241,3048.,187.);
#243=IFCCARTESIANPOINT((0.,0.,0.));
#244=IFCAXIS2PLACEMENT3D(#243,$,$);
#245=IFCDIRECTION((0.,0.,1.));
#246=IFCEXTRUDEDAREASOLID(#242,#244,#245,187.);
#247=IFCSHAPEREPRESENTATION(#7,'Body','SweptSolid',(#246));
#248=IFCCARTESIANPOINT((0.,0.,0.));
#249=IFCAXIS2PLACEMENT3D(#248,$,$);
#250=IFCREPRESENTATIONMAP(#249,#247);
#251=IFCHEATEXCHANGERTYPE('0IBwvaMpMFL27LTlR3n2bn',$,'\X2\0428043D0435043A043E0432044B0439\X0\ \X2\0445043E043B043E04340438043B044C043D0438043A\X0\ \X2\0442043E043D043A043E0439\X0\ \X2\043F044B043B0438\X0\','\X2\041E0445043B0430043604340435043D04380435\X0\ \X2\043F044B043B0438\X0\ \X2\044D043B0435043A04420440043E04440438043B044C044204400430\X0\ \X2\0434043E\X0\ 70 \X2\00B00421\X0\',$,(#239),(#250),'\X2\041E0412042D\X0\75-\X2\041B\X0\1-21','S710-4',.USERDEFINED.);
#252=IFCPROPERTYSINGLEVALUE('\X2\041D04300438043C0435043D043E04320430043D04380435\X0\',$,IFCTEXT('\X2\041F044004380451043C043D044B0439\X0\ \X2\04310443043D043A04350440\X0\ \X2\043E0445043B0430043604340451043D043D043E0433043E\X0\ \X2\043E043304300440043A0430\X0\ \X2\0438\X0\ \X2\0433044004430431043E0439\X0\ \X2\043F044B043B0438\X0\'),$);
#253=IFCPROPERTYSINGLEVALUE('\X2\041B043E0442\X0\',$,IFCINTEGER(1),$);
#254=IFCPROPERTYSINGLEVALUE('\X2\041C043004420435044004380430043B\X0\',$,IFCTEXT('\X2\04230433043B04350440043E04340438044104420430044F\X0\ \X2\044104420430043B044C\X0\, \X2\04440443044204350440043E0432043A0430\X0\ \X2\043F043E043B0438044D04420438043B0435043D043E043C\X0\ \X2\04200415\X0\500'),$);
#255=IFCPROPERTYSINGLEVALUE('\X2\041A043E043B043804470435044104420432043E\X0\',$,IFCINTEGER(1),$);
#256=IFCPROPERTYSET('2lugNLNRnGtp3CLMPwcOWL',$,'Pset_KVANT_LOI',$,(#252,#253,#254,#255));
#257=IFCTANKTYPE('0xtbpn0PWQtNA$PuAU3DcV',$,'\X2\041F044004380451043C043D044B0439\X0\ \X2\04310443043D043A04350440\X0\ \X2\043E0445043B0430043604340451043D043D043E0433043E\X0\ \X2\043E043304300440043A0430\X0\ \X2\0438\X0\ \X2\0433044004430431043E0439\X0\ \X2\043F044B043B0438\X0\','\X2\041104350441043F0435044004350431043E0439043D043E0435\X0\ \X2\043F043804420430043D04380435\X0\ \X2\0430043F043F0430044004300442043E0432\X0\ \X2\0413041C0423\X0\; \X2\043E04420433044004430437043A0430\X0\ \X2\0432\X0\ \X2\043004320442043E04460435043C0435043D0442043E0432043E0437044B\X0\',$,(#256),$,'\X2\041E0412042D\X0\75-\X2\041B\X0\1-22','\X2\04220438043F0430\X0\ \X2\04410438043B043E0441043D043E0439\X0\ \X2\043104300448043D0438\X0\',.USERDEFINED.);
#258=IFCPROPERTYSINGLEVALUE('\X2\041D04300438043C0435043D043E04320430043D04380435\X0\',$,IFCTEXT('\X2\041F044004380451043C043D044B0439\X0\ \X2\04310443043D043A04350440\X0\ \X2\043E0445043B0430043604340451043D043D043E0439\X0\ \X2\0442043E043D043A043E0439\X0\ \X2\043F044B043B0438\X0\'),$);
#259=IFCPROPERTYSINGLEVALUE('\X2\041B043E0442\X0\',$,IFCINTEGER(1),$);
#260=IFCPROPERTYSINGLEVALUE('\X2\041C043004420435044004380430043B\X0\',$,IFCTEXT('\X2\04230433043B04350440043E04340438044104420430044F\X0\ \X2\044104420430043B044C\X0\, \X2\04440443044204350440043E0432043A0430\X0\ \X2\043F043E043B0438044D04420438043B0435043D043E043C\X0\ \X2\04200415\X0\500'),$);
#261=IFCPROPERTYSINGLEVALUE('\X2\041A043E043B043804470435044104420432043E\X0\',$,IFCINTEGER(1),$);
#262=IFCPROPERTYSET('1nGjGuHa6S1FggNuOfuN_C',$,'Pset_KVANT_LOI',$,(#258,#259,#260,#261));
#263=IFCTANKTYPE('3tnjamRPoqbHUAp9cw1Lm9',$,'\X2\041F044004380451043C043D044B0439\X0\ \X2\04310443043D043A04350440\X0\ \X2\043E0445043B0430043604340451043D043D043E0439\X0\ \X2\0442043E043D043A043E0439\X0\ \X2\043F044B043B0438\X0\','\X2\041104350441043F0435044004350431043E0439043D043E0435\X0\ \X2\043F043804420430043D04380435\X0\ \X2\0430043F043F0430044004300442043E0432\X0\ \X2\0413041C0423\X0\; \X2\043E04420433044004430437043A0430\X0\ \X2\0432\X0\ \X2\043004320442043E04460435043C0435043D0442043E0432043E0437044B\X0\',$,(#262),$,'\X2\041E0412042D\X0\75-\X2\041B\X0\1-23','\X2\04220438043F0430\X0\ \X2\04410438043B043E0441043D043E0439\X0\ \X2\043104300448043D0438\X0\',.USERDEFINED.);
#264=IFCPROPERTYSINGLEVALUE('\X2\041D04300438043C0435043D043E04320430043D04380435\X0\',$,IFCTEXT('\X2\041104300440043004310430043D043D044B0435\X0\ \X2\04320430043A04430443043C\X0\-\X2\04440438043B044C04420440044B\X0\ \X2\0434043B044F\X0\ \X2\043F0443043B044C043F044B\X0\ \X2\043C04350434043D043E0433043E\X0\ \X2\043A043E043D04460435043D04420440043004420430\X0\'),$);
#265=IFCPROPERTYSINGLEVALUE('\X2\041B043E0442\X0\',$,IFCINTEGER(1),$);
#266=IFCPROPERTYSINGLEVALUE('\X2\041A043E043B043804470435044104420432043E\X0\',$,IFCTEXT('\X2\04230442043E0447043D044F043504420441044F\X0\ \X2\0432\X0\ \X2\04110418\X0\'),$);
#267=IFCPROPERTYSET('0Orr2vM3twa6WytHiiGJ45',$,'Pset_KVANT_LOI',$,(#264,#265,#266));
#268=IFCFILTERTYPE('1J4Jem5BciziKOhxZw$78p',$,'\X2\041104300440043004310430043D043D044B0435\X0\ \X2\04320430043A04430443043C\X0\-\X2\04440438043B044C04420440044B\X0\ \X2\0434043B044F\X0\ \X2\043F0443043B044C043F044B\X0\ \X2\043C04350434043D043E0433043E\X0\ \X2\043A043E043D04460435043D04420440043004420430\X0\','\X2\041E0431043504370432043E0436043804320430043D04380435\X0\ \X2\043F0443043B044C043F044B\X0\ \X2\04410433044304490451043D043D043E0433043E\X0\ \X2\043C04350434043D043E0433043E\X0\ \X2\043A043E043D04460435043D04420440043004420430\X0\ \X2\041E04200424\X0\ (\X2\0432043B04300436043D043E04410442044C\X0\ \X2\043A0435043A0430\X0\ 10 %) \X2\0441\X0\ \X2\04410438044104420435043C043E0439\X0\ \X2\04320430043A04430443043C04380440043E04320430043D0438044F\X0\, \X2\043E04420432043E04340430\X0\ \X2\04440438043B044C04420440043004420430\X0\ \X2\0438\X0\ \X2\0432044B0433044004430437043A0438\X0\ \X2\043A0435043A0430\X0\ \X2\0432\X0\ \X2\0448043D0435043A043E0432044B0439\X0\ \X2\0441043C04350441043804420435043B044C\X0\',$,(#267),$,'\X2\041E0412042D\X0\75-\X2\041B\X0\1-24','\X2\04240438043B044C04420440043004460438044F\X0\ \X2\043A043E043D04460435043D04420440043004420430\X0\',.USERDEFINED.);
#269=IFCPROPERTYSINGLEVALUE('\X2\041D04300438043C0435043D043E04320430043D04380435\X0\',$,IFCTEXT('\X2\0401043C043A043E04410442044C\X0\ \X2\043F044004380451043C0430\X0\ \X2\04440438043B044C04420440043004420430\X0\ \X2\043F043E0441043B0435\X0\ \X2\04320430043A04430443043C\X0\-\X2\04440438043B044C044204400430\X0\ \X2\0441\X0\ \X2\043D04300441043E0441043D044B043C\X0\ \X2\043E0431043E044004430434043E04320430043D04380435043C\X0\'),$);
#270=IFCPROPERTYSINGLEVALUE('\X2\041B043E0442\X0\',$,IFCINTEGER(1),$);
#271=IFCPROPERTYSINGLEVALUE('\X2\041A043E043B043804470435044104420432043E\X0\',$,IFCTEXT('\X2\041A043E043C043F043B0435043A0442\X0\'),$);
#272=IFCPROPERTYSET('039yc_jjkM8I2FROsAL3sm',$,'Pset_KVANT_LOI',$,(#269,#270,#271));
#273=IFCTANKTYPE('1fU5U_r9rRqSoDznM27Y6D',$,'\X2\0401043C043A043E04410442044C\X0\ \X2\043F044004380451043C0430\X0\ \X2\04440438043B044C04420440043004420430\X0\ \X2\043F043E0441043B0435\X0\ \X2\04320430043A04430443043C\X0\-\X2\04440438043B044C044204400430\X0\ \X2\0441\X0\ \X2\043D04300441043E0441043D044B043C\X0\ \X2\043E0431043E044004430434043E04320430043D04380435043C\X0\','\X2\041F044004380451043C\X0\ \X2\0438\X0\ \X2\043E0442043A04300447043A0430\X0\ \X2\04440438043B044C04420440043004420430\X0\',$,(#272),$,'\X2\041E0412042D\X0\75-\X2\041B\X0\1-25','\X2\04240438043B044C04420440043004460438044F\X0\ \X2\043A043E043D04460435043D04420440043004420430\X0\',.USERDEFINED.);
#274=IFCPROPERTYSINGLEVALUE('\X2\041D04300438043C0435043D043E04320430043D04380435\X0\',$,IFCTEXT('\X2\04200443043A04300432043D044B0439\X0\ \X2\04440438043B044C04420440\X0\(\X2\044B\X0\) \X2\04300441043F043804400430044604380438\X0\'),$);
#275=IFCPROPERTYSINGLEVALUE('\X2\041B043E0442\X0\',$,IFCINTEGER(1),$);
#276=IFCPROPERTYSINGLEVALUE('\X2\041A043E043B043804470435044104420432043E\X0\',$,IFCTEXT('\X2\04230442043E0447043D044F043504420441044F\X0\ \X2\0432\X0\ \X2\04110418\X0\'),$);
#277=IFCPROPERTYSET('1OJg9CYpFN3qOJpxn_VF3A',$,'Pset_KVANT_LOI',$,(#274,#275,#276));
#278=IFCFILTERTYPE('0YQRdjg87QlqjOXo5XkXEi',$,'\X2\04200443043A04300432043D044B0439\X0\ \X2\04440438043B044C04420440\X0\(\X2\044B\X0\) \X2\04300441043F043804400430044604380438\X0\','\X2\041E0447043804410442043A0430\X0\ \X2\04300441043F04380440043004460438043E043D043D044B0445\X0\ \X2\043304300437043E0432\X0\ \X2\043E0442\X0\ \X2\043E0431043E044004430434043E04320430043D0438044F\X0\',$,(#277),$,'\X2\041E0412042D\X0\75-\X2\041B\X0\1-26','\X2\04100441043F04380440043004460438044F\X0\',.USERDEFINED.);
#279=IFCPROPERTYSINGLEVALUE('\X2\041D04300438043C0435043D043E04320430043D04380435\X0\',$,IFCTEXT('\X2\0414044B043C043E0441043E0441\X0\(\X2\044B\X0\) \X2\04300441043F043804400430044604380438\X0\'),$);
#280=IFCPROPERTYSINGLEVALUE('\X2\041B043E0442\X0\',$,IFCINTEGER(1),$);
#281=IFCPROPERTYSINGLEVALUE('\X2\041A043E043B043804470435044104420432043E\X0\',$,IFCTEXT('\X2\04230442043E0447043D044F043504420441044F\X0\ \X2\0432\X0\ \X2\04110418\X0\'),$);
#282=IFCPROPERTYSET('2te5abp5XT4OSgTRB9Qi73',$,'Pset_KVANT_LOI',$,(#279,#280,#281));
#283=IFCFANTYPE('2nWw2tiMg76VUffQ1Z4Od_',$,'\X2\0414044B043C043E0441043E0441\X0\(\X2\044B\X0\) \X2\04300441043F043804400430044604380438\X0\','\X2\042D04320430043A0443043004460438044F\X0\ \X2\04300441043F04380440043004460438043E043D043D044B0445\X0\ \X2\043304300437043E0432\X0\ \X2\0438\X0\ \X2\044104310440043E0441\X0\ \X2\043E0447043804490435043D043D043E0433043E\X0\ \X2\0433043004370430\X0\ \X2\043D0430\X0\ \X2\04410432043504470443\X0\',$,(#282),$,'\X2\041E0412042D\X0\75-\X2\041B\X0\1-27','\X2\04100441043F04380440043004460438044F\X0\',.USERDEFINED.);
#284=IFCRELDECLARES('3Bro$4mNXej9nXcj20c20S',$,$,$,#8,(#26,#32,#49,#55,#61,#67,#85,#92,#110,#128,#134,#140,#146,#151,#157,#174,#191,#209,#216,#234,#251,#257,#263,#268,#273,#278,#283));
ENDSEC;
END-ISO-10303-21;
