ISO-10303-21;
HEADER;
FILE_DESCRIPTION(('ViewDefinition [ReferenceView]'),'2;1');
FILE_NAME('ove75-equip-lot3.ifc','2026-08-28T03:10:55',('\X2\041E041E041E\X0\ \X2\00AB041A04120410041D042200BB\X0\'),('\X2\041E041E041E\X0\ \X2\00AB041A04120410041D042200BB\X0\'),'IfcOpenShell 0.8.5-1c5b825','ove/tools/equip2ifc.py (IfcOpenShell)','\X2\043F0440043E0435043A0442\X0\ \X2\041E0412042D\X0\-75, \X2\04410442043004340438044F\X0\ \X2\04110418\X0\');
FILE_SCHEMA(('IFC4'));
ENDSEC;
DATA;
#1=IFCSIUNIT(*,.LENGTHUNIT.,.MILLI.,.METRE.);
#2=IFCSIUNIT(*,.AREAUNIT.,$,.SQUARE_METRE.);
#3=IFCSIUNIT(*,.VOLUMEUNIT.,$,.CUBIC_METRE.);
#4=IFCUNITASSIGNMENT((#1,#2,#3));
#5=IFCCARTESIANPOINT((0.,0.,0.));
#6=IFCAXIS2PLACEMENT3D(#5,$,$);
#7=IFCGEOMETRICREPRESENTATIONCONTEXT($,'Model',3,1.0000000000000001E-05,#6,$);
#8=IFCPROJECT('0NrfVTEEDNaTpvaY$EnK7H',$,'\X2\041E0412042D\X0\-75 \X2\00B7\X0\ \X2\041E0431043E044004430434043E04320430043D04380435\X0\ \X2\043B043E04420430\X0\ \X2\2116\X0\3','\X2\041104380431043B0438043E04420435043A0430\X0\ \X2\04420438043F043E0432\X0\ \X2\043E0431043E044004430434043E04320430043D0438044F\X0\ \X2\043F043E\X0\ ove/data/equipment.json (\X2\04410442043004340438044F\X0\ \X2\04110418\X0\)',$,$,$,(#7),#4);
#9=IFCPROPERTYSINGLEVALUE('\X2\041F043E0437043804460438044F\X0\',$,IFCIDENTIFIER('4.2.1'),$);
#10=IFCPROPERTYSINGLEVALUE('\X2\041D04300438043C0435043D043E04320430043D04380435\X0\',$,IFCTEXT('\X2\042604380440043A0443043B044F04460438043E043D043D044B0439\X0\ \X2\04310430043A\X0\ (\X2\04310430043A\X0\ \X2\043F043804420430043D0438044F\X0\ \X2\04320430043D043D\X0\)'),$);
#11=IFCPROPERTYSINGLEVALUE('\X2\041B043E0442\X0\',$,IFCINTEGER(3),$);
#12=IFCPROPERTYSINGLEVALUE('\X2\041C043004420435044004380430043B\X0\',$,IFCTEXT('\X2\041A043E043D0441044204400443043A04460438043E043D043D0430044F\X0\ \X2\044104420430043B044C\X0\ \X2\0438043B0438\X0\ \X2\04300440043C04380440043E04320430043D043D044B0439\X0\ \X2\043104350442043E043D\X0\ \X2\0441\X0\ \X2\043A04380441043B043E0442043E0443043F043E0440043D043E0439\X0\ \X2\04440443044204350440043E0432043A043E0439\X0\; \X2\0434043E043F04430441043A0430043504420441044F\X0\ \X2\043804370433043E0442043E0432043B0435043D04380435\X0\ \X2\043F043E\X0\ \X2\043C0435044104420443\X0\'),$);
#13=IFCPROPERTYSINGLEVALUE('\X2\041A043E043B043804470435044104420432043E\X0\',$,IFCTEXT('2 (\X2\043F043E\X0\ \X2\044704380441043B0443\X0\ \X2\04410435044004380439\X0\)'),$);
#14=IFCPROPERTYSET('3fkVxI5dGNbOHy_QMT1CxL',$,'Pset_KVANT_LOI',$,(#9,#10,#11,#12,#13));
#15=IFCCARTESIANPOINT((0.,0.));
#16=IFCAXIS2PLACEMENT2D(#15,$);
#17=IFCRECTANGLEPROFILEDEF(.AREA.,$,#16,6694.3295008216937,6694.3295008216937);
#18=IFCCARTESIANPOINT((0.,0.,0.));
#19=IFCAXIS2PLACEMENT3D(#18,$,$);
#20=IFCDIRECTION((0.,0.,1.));
#21=IFCEXTRUDEDAREASOLID(#17,#19,#20,6694.3295008216937);
#22=IFCSHAPEREPRESENTATION(#7,'Body','SweptSolid',(#21));
#23=IFCCARTESIANPOINT((0.,0.,0.));
#24=IFCAXIS2PLACEMENT3D(#23,$,$);
#25=IFCREPRESENTATIONMAP(#24,#22);
#26=IFCTANKTYPE('0AZkjulYlloNUH1hTxXy1R',$,'\X2\042604380440043A0443043B044F04460438043E043D043D044B0439\X0\ \X2\04310430043A\X0\ (\X2\04310430043A\X0\ \X2\043F043804420430043D0438044F\X0\ \X2\04320430043D043D\X0\)','\X2\0421043C043504480435043D04380435\X0\ \X2\0431043E043304300442043E0433043E\X0\ \X2\04400430044104420432043E04400430\X0\ \X2\0432044B04490435043B04300447043804320430043D0438044F\X0\ \X2\0441\X0\ \X2\043104350434043D044B043C\X0\ \X2\044D043B0435043A04420440043E043B04380442043E043C\X0\ \X2\04380437\X0\ \X2\04320430043D043D\X0\, \X2\043F044004380451043C\X0\ \X2\04400430044104420432043E0440043E0432\X0\ \X2\043F0440043E043C044B0432043A0438\X0\ \X2\043A04300442043E0434043E0432\X0\ \X2\0438\X0\ \X2\04410438044104420435043C044B\X0\ \X2\04300441043F043804400430044604380438\X0\, \X2\0434043E043704380440043E04320430043D04380435\X0\ \X2\043A043E043B043B043E04380434043D043E0439\X0\/\X2\0430043D044204380430044D0440043E0437043E043B044C043D043E0439\X0\ \X2\0434043E043104300432043A0438\X0\ \X2\0438\X0\ \X2\043A04380441043B043E0442044B\X0\',$,(#14),(#25),'\X2\041E0412042D\X0\75-\X2\041B\X0\3-45','\X2\04110430043A\X0\ \X2\0441\X0\ \X2\043F0435044004350433043E0440043E0434043A043E0439\X0\',.USERDEFINED.);
#27=IFCPROPERTYSINGLEVALUE('\X2\041F043E0437043804460438044F\X0\',$,IFCIDENTIFIER('4.2.2'),$);
#28=IFCPROPERTYSINGLEVALUE('\X2\041D04300438043C0435043D043E04320430043D04380435\X0\',$,IFCTEXT('\X2\0425043E043B043E04340438043B044C043D0438043A\X0\ \X2\044D043B0435043A04420440043E043B043804420430\X0\ \X2\043F043B0430044104420438043D044704300442044B0439\X0\'),$);
#29=IFCPROPERTYSINGLEVALUE('\X2\041B043E0442\X0\',$,IFCINTEGER(3),$);
#30=IFCPROPERTYSINGLEVALUE('\X2\041C043004420435044004380430043B\X0\',$,IFCTEXT('\X2\042104420430043B044C\X0\ 316L \X2\0438043B0438\X0\ \X2\0430043D0430043B043E0433\X0\'),$);
#31=IFCPROPERTYSINGLEVALUE('\X2\041A043E043B043804470435044104420432043E\X0\',$,IFCTEXT('2 (\X2\043F043E\X0\ \X2\044704380441043B0443\X0\ \X2\04410435044004380439\X0\)'),$);
#32=IFCPROPERTYSET('0ETKwKQ$Al5TqcMjwbjkv4',$,'Pset_KVANT_LOI',$,(#27,#28,#29,#30,#31));
#33=IFCHEATEXCHANGERTYPE('31ZfsYjMeWWLhMndkmTQxa',$,'\X2\0425043E043B043E04340438043B044C043D0438043A\X0\ \X2\044D043B0435043A04420440043E043B043804420430\X0\ \X2\043F043B0430044104420438043D044704300442044B0439\X0\','\X2\041E0445043B0430043604340435043D04380435\X0\ \X2\0431043E043304300442043E0433043E\X0\ \X2\04400430044104420432043E04400430\X0\ \X2\043F0435044004350434\X0\ \X2\043F043E04340430044704350439\X0\ \X2\0432\X0\ \X2\04320430043D043D044B\X0\',$,(#32),$,'\X2\041E0412042D\X0\75-\X2\041B\X0\3-46','\X2\041F043B0430044104420438043D044704300442044B0439\X0\ \X2\04420435043F043B043E043E0431043C0435043D043D0438043A\X0\, \X2\043E0445043B0430043604340435043D04380435\X0\ \X2\0432043E0434043E0439\X0\',.USERDEFINED.);
#34=IFCPROPERTYSINGLEVALUE('\X2\041F043E0437043804460438044F\X0\',$,IFCIDENTIFIER('4.2.3'),$);
#35=IFCPROPERTYSINGLEVALUE('\X2\041D04300438043C0435043D043E04320430043D04380435\X0\',$,IFCTEXT('\X2\042D043B0435043A04420440043E043B04380437043D0430044F\X0\ \X2\04320430043D043D0430\X0\'),$);
#36=IFCPROPERTYSINGLEVALUE('\X2\041B043E0442\X0\',$,IFCINTEGER(3),$);
#37=IFCPROPERTYSINGLEVALUE('\X2\041C043004420435044004380430043B\X0\',$,IFCTEXT('\X2\041F043E043B0438043C04350440043104350442043E043D\X0\ (\X2\043C043E043D043E043B04380442043D044B0439\X0\ \X2\04320438043D0438043B044D044404380440043D044B0439\X0\ \X2\043A043E043C043F043E043704380442\X0\)'),$);
#38=IFCPROPERTYSINGLEVALUE('\X2\041A043E043B043804470435044104420432043E\X0\',$,IFCTEXT('180 (2 \X2\04410435044004380438\X0\ \X2\00D7\X0\ 90); \X2\044004300441044704510442043D043E\X0\ 163 \X2\04480442\X0\., \X2\043A043E044D04440444\X0\. \X2\04370430043F043004410430\X0\ 1,104'),$);
#39=IFCPROPERTYSET('3W63RNcdnkyLWYg54lX_mt',$,'Pset_KVANT_LOI',$,(#34,#35,#36,#37,#38));
#40=IFCCARTESIANPOINT((0.,0.));
#41=IFCAXIS2PLACEMENT2D(#40,$);
#42=IFCRECTANGLEPROFILEDEF(.AREA.,$,#41,8485.,1155.);
#43=IFCCARTESIANPOINT((0.,0.,0.));
#44=IFCAXIS2PLACEMENT3D(#43,$,$);
#45=IFCDIRECTION((0.,0.,1.));
#46=IFCEXTRUDEDAREASOLID(#42,#44,#45,1650.);
#47=IFCSHAPEREPRESENTATION(#7,'Body','SweptSolid',(#46));
#48=IFCCARTESIANPOINT((0.,0.,0.));
#49=IFCAXIS2PLACEMENT3D(#48,$,$);
#50=IFCREPRESENTATIONMAP(#49,#47);
#51=IFCTANKTYPE('3FPx3pA9$6VXqU8hHnl4nH',$,'\X2\042D043B0435043A04420440043E043B04380437043D0430044F\X0\ \X2\04320430043D043D0430\X0\','\X2\042D043B0435043A04420440043E044D043A0441044204400430043A04460438044F\X0\ \X2\043C043504340438\X0\ \X2\04380437\X0\ \X2\04400430044104420432043E0440043E0432\X0\',$,(#39),(#50),'\X2\041E0412042D\X0\75-\X2\041B\X0\3-47','\X2\041F043E043B0438043C04350440043104350442043E043D043D044B0435\X0\ \X2\04320430043D043D044B\X0\ Unicell \X2\0438043B0438\X0\ \X2\0430043D0430043B043E04330438\X0\; \X2\0445043004400430043A0442043504400438044104420438043A0438\X0\ \X2\043F043E\X0\ \X2\043F0440043E0435043A04420443\X0\ \X2\04140415041B042C04220410\X0\ (\X2\04180414\X0\ \X2\0447\X0\.2, \X2\043F04400438043B043E04360435043D04380435\X0\ \X2\0412\X0\)',.USERDEFINED.);
#52=IFCPROPERTYSINGLEVALUE('\X2\041D04300438043C0435043D043E04320430043D04380435\X0\',$,IFCTEXT('\X2\0410043D043E0434044B\X0\ \X2\04380437\X0\ \X2\044104320438043D0446043E0432043E0433043E\X0\ \X2\0441043F043B043004320430\X0\'),$);
#53=IFCPROPERTYSINGLEVALUE('\X2\041B043E0442\X0\',$,IFCINTEGER(3),$);
#54=IFCPROPERTYSINGLEVALUE('\X2\041C043004420435044004380430043B\X0\',$,IFCTEXT('\X2\042104320438043D0446043E0432044B0439\X0\ \X2\0441043F043B04300432\X0\'),$);
#55=IFCPROPERTYSINGLEVALUE('\X2\041A043E043B043804470435044104420432043E\X0\',$,IFCTEXT('180 \X2\00D7\X0\ 85 = 15 300 \X2\04480442\X0\. \X2\043F04350440043204380447043D0430044F\X0\ \X2\043704300433044004430437043A0430\X0\ (\X2\044004300441044704510442043D043E\X0\)'),$);
#56=IFCPROPERTYSET('2DvwITb1d475QFKlOocoGM',$,'Pset_KVANT_LOI',$,(#52,#53,#54,#55));
#57=IFCBUILDINGELEMENTPROXYTYPE('0_zkrZezdlu1vRXFXbk0lA',$,'\X2\0410043D043E0434044B\X0\ \X2\04380437\X0\ \X2\044104320438043D0446043E0432043E0433043E\X0\ \X2\0441043F043B043004320430\X0\','\X2\0410043D043E0434044B\X0\ \X2\04320430043D043D\X0\ \X2\044D043B0435043A04420440043E044D043A0441044204400430043A044604380438\X0\',$,(#56),$,'\X2\041E0412042D\X0\75-\X2\041B\X0\3-48','Pb-Ca / Pb-Ag \X2\0441043F043B04300432044B\X0\',.USERDEFINED.);
#58=IFCPROPERTYSINGLEVALUE('\X2\041D04300438043C0435043D043E04320430043D04380435\X0\',$,IFCTEXT('\X2\041A04300442043E0434043D044B0435\X0\ \X2\043C04300442044004380446044B\X0\ (\X2\043F043E04410442043E044F043D043D044B0435\X0\ \X2\043A04300442043E0434044B\X0\)'),$);
#59=IFCPROPERTYSINGLEVALUE('\X2\041B043E0442\X0\',$,IFCINTEGER(3),$);
#60=IFCPROPERTYSINGLEVALUE('\X2\041C043004420435044004380430043B\X0\',$,IFCTEXT('\X2\041D043504400436043004320435044E04490430044F\X0\ \X2\044104420430043B044C\X0\'),$);
#61=IFCPROPERTYSINGLEVALUE('\X2\041A043E043B043804470435044104420432043E\X0\',$,IFCTEXT('180 \X2\00D7\X0\ 84 = 15 120 \X2\04480442\X0\. \X2\043F04350440043204380447043D0430044F\X0\ \X2\043704300433044004430437043A0430\X0\ (\X2\044004300441044704510442043D043E\X0\)'),$);
#62=IFCPROPERTYSET('2AzDTHi89dS4YT1m39bk7N',$,'Pset_KVANT_LOI',$,(#58,#59,#60,#61));
#63=IFCBUILDINGELEMENTPROXYTYPE('3e7q$YcyxjsFsZq2RUQPX1',$,'\X2\041A04300442043E0434043D044B0435\X0\ \X2\043C04300442044004380446044B\X0\ (\X2\043F043E04410442043E044F043D043D044B0435\X0\ \X2\043A04300442043E0434044B\X0\)','\X2\041C04300442044004380446044B\X0\ \X2\0434043B044F\X0\ \X2\043D0430044004300449043804320430043D0438044F\X0\ \X2\043A04300442043E0434043D043E0439\X0\ \X2\043C043504340438\X0\',$,(#62),$,'\X2\041E0412042D\X0\75-\X2\041B\X0\3-49','\X2\04210438044104420435043C0430\X0\ SPLIT',.USERDEFINED.);
#64=IFCPROPERTYSINGLEVALUE('\X2\041D04300438043C0435043D043E04320430043D04380435\X0\',$,IFCTEXT('\X2\04100441043F04380440043004460438043E043D043D044B0435\X0\ \X2\0443043A0440044B04420438044F\X0\ \X2\04320430043D043D\X0\'),$);
#65=IFCPROPERTYSINGLEVALUE('\X2\041B043E0442\X0\',$,IFCINTEGER(3),$);
#66=IFCPROPERTYSINGLEVALUE('\X2\041C043004420435044004380430043B\X0\',$,IFCTEXT('\X2\041A043E04400440043E04370438043E043D043D043E04410442043E0439043A043E0435\X0\ \X2\04380441043F043E043B043D0435043D04380435\X0\'),$);
#67=IFCPROPERTYSINGLEVALUE('\X2\041A043E043B043804470435044104420432043E\X0\',$,IFCTEXT('180 \X2\043A043E043C043F043B0435043A0442043E0432\X0\'),$);
#68=IFCPROPERTYSET('1XEyMgV70kUqMeOJnUIe2k',$,'Pset_KVANT_LOI',$,(#64,#65,#66,#67));
#69=IFCBUILDINGELEMENTPROXYTYPE('01Ua5fUqkgH15tLowbG4tm',$,'\X2\04100441043F04380440043004460438043E043D043D044B0435\X0\ \X2\0443043A0440044B04420438044F\X0\ \X2\04320430043D043D\X0\','\X2\041B043E043A0430043B044C043D0430044F\X0\ \X2\04300441043F04380440043004460438044F\X0\ \X2\04320430043D043D\X0\, \X2\04380441043A043B044E04470430044E04490430044F\X0\ \X2\0434043E04410442043804360435043D04380435\X0\ \X2\0442043E0447043A0438\X0\ \X2\0440043E0441044B\X0\ \X2\043F043E0434\X0\ \X2\043A043E043B043F0430043A0430043C0438\X0\',$,(#68),$,'\X2\041E0412042D\X0\75-\X2\041B\X0\3-50','\X2\0411043E04400442043E0432043E0439\X0\ \X2\043E04420441043E0441\X0\ + \X2\043B04350433043A043E0441044A0451043C043D044B0439\X0\ \X2\043A043E043B043F0430043A\X0\',.USERDEFINED.);
#70=IFCPROPERTYSINGLEVALUE('\X2\041D04300438043C0435043D043E04320430043D04380435\X0\',$,IFCTEXT('\X2\041E04480438043D043E0432043A0430\X0\ \X2\04320430043D043D\X0\'),$);
#71=IFCPROPERTYSINGLEVALUE('\X2\041B043E0442\X0\',$,IFCINTEGER(3),$);
#72=IFCPROPERTYSINGLEVALUE('\X2\041C043004420435044004380430043B\X0\',$,IFCTEXT('\X2\041C04350434044C\X0\'),$);
#73=IFCPROPERTYSINGLEVALUE('\X2\041A043E043B043804470435044104420432043E\X0\',$,IFCTEXT('\X2\041A043E043C043F043B0435043A0442\X0\ \X2\043D0430\X0\ 180 \X2\04320430043D043D\X0\'),$);
#74=IFCPROPERTYSET('3C7gD5VVKGt1Ru2epUNw$a',$,'Pset_KVANT_LOI',$,(#70,#71,#72,#73));
#75=IFCCABLESEGMENTTYPE('12eHGQ4248YCZqzt9WkVYN',$,'\X2\041E04480438043D043E0432043A0430\X0\ \X2\04320430043D043D\X0\','\X2\0422043E043A043E043F043E04340432043E0434\X0\ \X2\0441\X0\ \X2\0443044004300432043D043804420435043B044C043D043E0439\X0\ \X2\04480438043D043E0439\X0\ \X2\0434043B044F\X0\ \X2\0430043D043E0434043E0432\X0\ \X2\0438\X0\/\X2\0438043B0438\X0\ \X2\043A04300442043E0434043E0432\X0\ \X2\2014\X0\ \X2\044004300432043D043E043C04350440043D043E0435\X0\ \X2\044004300441043F0440043504340435043B0435043D04380435\X0\ \X2\0442043E043A0430\X0\, \X2\044004300431043E04420430\X0\ \X2\043F04400438\X0\ \X2\0431043E043B04350435\X0\ \X2\0432044B0441043E043A04380445\X0\ \X2\043F043B043E0442043D043E04410442044F0445\X0\ \X2\0442043E043A0430\X0\ \X2\0438\X0\ \X2\0432044B0445043E04340435\X0\ \X2\043F043E\X0\ \X2\0442043E043A0443\X0\',$,(#74),$,'\X2\041E0412042D\X0\75-\X2\041B\X0\3-51','\X2\041A043E043D0441044204400443043A04460438044F\X0\ \X2\0441\X0\ \X2\04340432043E0439043D044B043C\X0\ \X2\043A043E043D04420430043A0442043E043C\X0\ \X2\044004300437044004300431043E0442043A0438\X0\ Outotec \X2\0438043B0438\X0\ \X2\0430043D0430043B043E04330438\X0\',.USERDEFINED.);
#76=IFCPROPERTYSINGLEVALUE('\X2\041D04300438043C0435043D043E04320430043D04380435\X0\',$,IFCTEXT('\X2\0420043E0431043E04420438043704380440043E04320430043D043D0430044F\X0\ \X2\043A04300442043E0434043E0441043404380440043E0447043D0430044F\X0\ \X2\043C043004480438043D0430\X0\ (\X2\041A0421041C\X0\)'),$);
#77=IFCPROPERTYSINGLEVALUE('\X2\041B043E0442\X0\',$,IFCINTEGER(3),$);
#78=IFCPROPERTYSINGLEVALUE('\X2\041C043004420435044004380430043B\X0\',$,IFCTEXT('\X2\041A043E043D0441044204400443043A04460438043E043D043D0430044F\X0\ \X2\0438\X0\ \X2\043D043504400436043004320435044E04490430044F\X0\ \X2\044104420430043B044C\X0\, \X2\041F04120425\X0\, \X2\043F043E043B0438043F0440043E043F0438043B0435043D\X0\'),$);
#79=IFCPROPERTYSINGLEVALUE('\X2\041A043E043B043804470435044104420432043E\X0\',$,IFCINTEGER(1),$);
#80=IFCPROPERTYSET('2CWDQ2vPPpZewJdsIL6f_j',$,'Pset_KVANT_LOI',$,(#76,#77,#78,#79));
#81=IFCBUILDINGELEMENTPROXYTYPE('3TlCZ78KV6TeR6L48UJaRe',$,'\X2\0420043E0431043E04420438043704380440043E04320430043D043D0430044F\X0\ \X2\043A04300442043E0434043E0441043404380440043E0447043D0430044F\X0\ \X2\043C043004480438043D0430\X0\ (\X2\041A0421041C\X0\)','\X2\041F043E043B043D044B0439\X0\ \X2\04460438043A043B\X0\ \X2\043E0431044004300431043E0442043A0438\X0\ \X2\043A04300442043E0434043E0432\X0\: \X2\043F0440043E043C044B0432043A0430\X0\, \X2\043E044204340435043B0435043D04380435\X0\ \X2\043E044104300434043A0430\X0\ \X2\043E0442\X0\ \X2\043C04300442044004380446\X0\, \X2\043E043F04420438044704350441043A04380439\X0\ \X2\043A043E043D04420440043E043B044C\X0\ \X2\0438\X0\ \X2\044004300437043104400430043A043E0432043A0430\X0\, \X2\043F0430043A0435044204380440043E04320430043D04380435\X0\, \X2\043004320442043E043C043004420438044704350441043A04380439\X0\ \X2\043F0440043E0431043E043E04420431043E0440\X0\',$,(#80),$,'\X2\041E0412042D\X0\75-\X2\041B\X0\3-52','\X2\042004350444043504400435043D0441\X0\ \X2\2014\X0\ \X2\043F043E0441044204300432043A0430\X0\ Outotec: \X2\0440043E0431043E0442044B\X0\ KUKA KR 300 (\X2\043F043E04340430044E044904380439\X0\) \X2\0438\X0\ KR 180 (\X2\0432044B04330440044304360430044E044904380439\X0\)',.USERDEFINED.);
#82=IFCPROPERTYSINGLEVALUE('\X2\041D04300438043C0435043D043E04320430043D04380435\X0\',$,IFCTEXT('\X2\041E0431043E044004430434043E04320430043D04380435\X0\ \X2\0444043E0440043C04380440043E04320430043D0438044F\X0\ \X2\043F0430043A04350442043E0432\X0\ \X2\043A04300442043E0434043E0432\X0\'),$);
#83=IFCPROPERTYSINGLEVALUE('\X2\041B043E0442\X0\',$,IFCINTEGER(3),$);
#84=IFCPROPERTYSINGLEVALUE('\X2\041A043E043B043804470435044104420432043E\X0\',$,IFCTEXT('\X2\041A043E043C043F043B0435043A0442\X0\'),$);
#85=IFCPROPERTYSET('0ye1mAxFLJKrUt3rj2TK1E',$,'Pset_KVANT_LOI',$,(#82,#83,#84));
#86=IFCBUILDINGELEMENTPROXYTYPE('246w7AcE8BfdS_IrW2h08v',$,'\X2\041E0431043E044004430434043E04320430043D04380435\X0\ \X2\0444043E0440043C04380440043E04320430043D0438044F\X0\ \X2\043F0430043A04350442043E0432\X0\ \X2\043A04300442043E0434043E0432\X0\','\X2\0423043A043B04300434043A0430\X0\, \X2\043204350441043E0432043E0439\X0\ \X2\043A043E043D04420440043E043B044C\X0\, \X2\043C04300440043A04380440043E0432043A0430\X0\, \X2\04430432044F0437043A0430\X0\, \X2\00AB043F043504400444043E0440043004460438044F00BB\X0\ \X2\043F0430043A043504420430\X0\',$,(#85),$,'\X2\041E0412042D\X0\75-\X2\041B\X0\3-53','\X2\041E0431044004300431043E0442043A0430\X0\ \X2\043A04300442043E0434043E0432\X0\',.USERDEFINED.);
#87=IFCPROPERTYSINGLEVALUE('\X2\041D04300438043C0435043D043E04320430043D04380435\X0\',$,IFCTEXT('\X2\041E0431043E044004430434043E04320430043D04380435\X0\ \X2\043004320442043E043C043004420438044704350441043A043E0439\X0\ \X2\04380437043E043B044F044604380438\X0\ \X2\043A0440043E043C043E043A\X0\ \X2\043C04300442044004380446\X0\'),$);
#88=IFCPROPERTYSINGLEVALUE('\X2\041B043E0442\X0\',$,IFCINTEGER(3),$);
#89=IFCPROPERTYSINGLEVALUE('\X2\041A043E043B043804470435044104420432043E\X0\',$,IFCTEXT('\X2\041A043E043C043F043B0435043A0442\X0\'),$);
#90=IFCPROPERTYSET('0D3ygAlYDve0twN8BONR9h',$,'Pset_KVANT_LOI',$,(#87,#88,#89));
#91=IFCBUILDINGELEMENTPROXYTYPE('32EuqzzDKXu8uXdx8aXCjw',$,'\X2\041E0431043E044004430434043E04320430043D04380435\X0\ \X2\043004320442043E043C043004420438044704350441043A043E0439\X0\ \X2\04380437043E043B044F044604380438\X0\ \X2\043A0440043E043C043E043A\X0\ \X2\043C04300442044004380446\X0\','\X2\041D0430043D043504410435043D04380435\X0\ \X2\04380437043E043B044F044604380438\X0\ \X2\043A0440043E043C043E043A\X0\ \X2\043A04300442043E0434043D044B0445\X0\ \X2\043C04300442044004380446\X0\',$,(#90),$,'\X2\041E0412042D\X0\75-\X2\041B\X0\3-54','\X2\041E0431044004300431043E0442043A0430\X0\ \X2\043A04300442043E0434043E0432\X0\',.USERDEFINED.);
#92=IFCPROPERTYSINGLEVALUE('\X2\041D04300438043C0435043D043E04320430043D04380435\X0\',$,IFCTEXT('\X2\0421043F0435044604380430043B044C043D044B0435\X0\ \X2\043004320442043E043C043004420438044704350441043A04380435\X0\ \X2\043A04400430043D044B\X0\ \X2\0441\X0\ \X2\04410438044104420435043C043E0439\X0\ \X2\043F043E0437043804460438043E043D04380440043E04320430043D0438044F\X0\'),$);
#93=IFCPROPERTYSINGLEVALUE('\X2\041B043E0442\X0\',$,IFCINTEGER(3),$);
#94=IFCPROPERTYSINGLEVALUE('\X2\041C043004420435044004380430043B\X0\',$,IFCTEXT('\X2\041C043504420430043B043B0438044704350441043A04380435\X0\ \X2\044D043B0435043C0435043D0442044B\X0\ \X2\0438\X0\ \X2\043E0441043D043004410442043A0430\X0\ \X2\2014\X0\ \X2\043D043504400436\X0\. \X2\044104420430043B044C\X0\ 316L \X2\0438043B0438\X0\ \X2\0430043D0430043B043E0433\X0\'),$);
#95=IFCPROPERTYSINGLEVALUE('\X2\041A043E043B043804470435044104420432043E\X0\',$,IFCTEXT('2 (\X2\043F043E\X0\ \X2\043E0434043D043E043C0443\X0\ \X2\043D0430\X0\ \X2\0441043504400438044E\X0\/\X2\043F0440043E043B04510442\X0\)'),$);
#96=IFCPROPERTYSET('2azUznfbizdYc72KFXHVLW',$,'Pset_KVANT_LOI',$,(#92,#93,#94,#95));
#97=IFCTRANSPORTELEMENTTYPE('36RQRUEDPyAgdzN30OEnUy',$,'\X2\0421043F0435044604380430043B044C043D044B0435\X0\ \X2\043004320442043E043C043004420438044704350441043A04380435\X0\ \X2\043A04400430043D044B\X0\ \X2\0441\X0\ \X2\04410438044104420435043C043E0439\X0\ \X2\043F043E0437043804460438043E043D04380440043E04320430043D0438044F\X0\','\X2\0421044A0451043C\X0\/\X2\0443044104420430043D043E0432043A0430\X0\ \X2\043A043E043B043F0430043A043E0432\X0\, \X2\0432044B0433044004430437043A0430\X0\ \X2\043A04300442043E0434043E0432\X0\ (1/3 \X2\04320430043D043D044B\X0\ \X2\0441\X0\ \X2\044004300432043D043E043C04350440043D044B043C\X0\ \X2\044804300433043E043C\X0\), \X2\044204400430043D0441043F043E0440044204380440043E0432043A0430\X0\ \X2\0432\X0\ \X2\041A0421041C\X0\ \X2\0438\X0\ \X2\043E0431044004300442043D043E\X0\, \X2\043F043E044804300433043E04320430044F\X0\ \X2\0443044104420430043D043E0432043A0430\X0\ \X2\043C04300442044004380446\X0\; \X2\044004430447043D043E0439\X0\ \X2\0440043504360438043C\X0\ \X2\2014\X0\ \X2\04370430043C0435043D0430\X0\ \X2\0430043D043E0434043E0432\X0\ \X2\0438\X0\ \X2\0447043804410442043A0430\X0\ \X2\04320430043D043D\X0\ \X2\043E0442\X0\ \X2\0448043B0430043C0430\X0\',$,(#96),$,'\X2\041E0412042D\X0\75-\X2\041B\X0\3-55','\X2\041F043E0434044A0451043C043D043E\X0\-\X2\044204400430043D0441043F043E04400442043D043E0435\X0\',.USERDEFINED.);
#98=IFCPROPERTYSINGLEVALUE('\X2\041D04300438043C0435043D043E04320430043D04380435\X0\',$,IFCTEXT('\X2\041004320442043E043C043004420438043704380440043E04320430043D043D0430044F\X0\ \X2\044204400430043D0441043F043E0440044204380440043E0432043A0430\X0\ \X2\043F0430043A04350442043E0432\X0\ \X2\043A04300442043E0434043D043E0439\X0\ \X2\043C043504340438\X0\ \X2\043D0430\X0\ \X2\04210413041F\X0\'),$);
#99=IFCPROPERTYSINGLEVALUE('\X2\041B043E0442\X0\',$,IFCINTEGER(3),$);
#100=IFCPROPERTYSINGLEVALUE('\X2\041A043E043B043804470435044104420432043E\X0\',$,IFCTEXT('\X2\041A043E043C043F043B0435043A0442\X0\'),$);
#101=IFCPROPERTYSET('1uP2oYepggkw3y7$vBJRhz',$,'Pset_KVANT_LOI',$,(#98,#99,#100));
#102=IFCTRANSPORTELEMENTTYPE('0oM2PliIndWm3yp9MjDRYj',$,'\X2\041004320442043E043C043004420438043704380440043E04320430043D043D0430044F\X0\ \X2\044204400430043D0441043F043E0440044204380440043E0432043A0430\X0\ \X2\043F0430043A04350442043E0432\X0\ \X2\043A04300442043E0434043D043E0439\X0\ \X2\043C043504340438\X0\ \X2\043D0430\X0\ \X2\04210413041F\X0\','\X2\041F0435044004350434043004470430\X0\ \X2\043F0430043A04350442043E0432\X0\ \X2\0432\X0\ \X2\043F043E043C043504490435043D04380435\X0\ \X2\0441043A043B043004340430\X0\ \X2\0433043E0442043E0432043E0439\X0\ \X2\043F0440043E04340443043A044604380438\X0\',$,(#101),$,'\X2\041E0412042D\X0\75-\X2\041B\X0\3-56','\X2\041F043E0434044A0451043C043D043E\X0\-\X2\044204400430043D0441043F043E04400442043D043E0435\X0\',.USERDEFINED.);
#103=IFCPROPERTYSINGLEVALUE('\X2\041D04300438043C0435043D043E04320430043D04380435\X0\',$,IFCTEXT('\X2\0401043C043A043E044104420438\X0\ \X2\043F044004380433043E0442043E0432043B0435043D0438044F\X0\, \X2\044504400430043D0435043D0438044F\X0\ \X2\0438\X0\ \X2\0434043E043704380440043E04320430043D0438044F\X0\ \X2\043A043E043B043B043E04380434043D043E0439\X0\ \X2\0434043E043104300432043A0438\X0\'),$);
#104=IFCPROPERTYSINGLEVALUE('\X2\041B043E0442\X0\',$,IFCINTEGER(3),$);
#105=IFCPROPERTYSINGLEVALUE('\X2\041A043E043B043804470435044104420432043E\X0\',$,IFCTEXT('2 (\X2\043F043E043E04470435044004510434043D043E\X0\ \X2\044004300431043E04420430044E044904380435\X0\)'),$);
#106=IFCPROPERTYSET('1T$iv_CfkMIp4r2AmxgSLn',$,'Pset_KVANT_LOI',$,(#103,#104,#105));
#107=IFCTANKTYPE('2_ENs0EPMZE3vDf5R1beeb',$,'\X2\0401043C043A043E044104420438\X0\ \X2\043F044004380433043E0442043E0432043B0435043D0438044F\X0\, \X2\044504400430043D0435043D0438044F\X0\ \X2\0438\X0\ \X2\0434043E043704380440043E04320430043D0438044F\X0\ \X2\043A043E043B043B043E04380434043D043E0439\X0\ \X2\0434043E043104300432043A0438\X0\','\X2\041F044004380433043E0442043E0432043B0435043D04380435\X0\ \X2\04400430044104420432043E04400430\X0\ \X2\043304430430044004420435043A0430\X0\ (\X2\043C04350434043B0435043D043D043E0435\X0\ \X2\04400430044104420432043E04400435043D04380435\X0\ \X2\0432\X0\ \X2\04420451043F043B043E0439\X0\ \X2\0432043E04340435\X0\ \X2\043F04400438\X0\ \X2\0443043C043504400435043D043D043E043C\X0\ \X2\043F043504400435043C04350448043804320430043D04380438\X0\) \X2\0438\X0\ \X2\0434043E043704380440043E04320430043D04380435\X0\ \X2\0432\X0\ \X2\044604380440043A0443043B044F04460438043E043D043D044B0435\X0\ \X2\04310430043A0438\X0\',$,(#106),$,'\X2\041E0412042D\X0\75-\X2\041B\X0\3-57','\X2\04200435043004330435043D0442044B\X0\ (\X2\0432043D0435\X0\ \X2\044204300431043B\X0\. 4.2)',.USERDEFINED.);
#108=IFCPROPERTYSINGLEVALUE('\X2\041D04300438043C0435043D043E04320430043D04380435\X0\',$,IFCTEXT('\X2\0412044B043F0440044F043C043804420435043B0438\X0\'),$);
#109=IFCPROPERTYSINGLEVALUE('\X2\041B043E0442\X0\',$,IFCINTEGER(3),$);
#110=IFCPROPERTYSINGLEVALUE('\X2\041A043E043B043804470435044104420432043E\X0\',$,IFCTEXT('3 (\X2\043F043E\X0\ \X2\043E0434043D043E043C0443\X0\ \X2\043D0430\X0\ \X2\0441043504400438044E\X0\ + \X2\044004350437043504400432043D044B0439\X0\, \X2\043E04480438043D043E0432043A0430\X0\ \X2\043F043E04370432043E043B044F04350442\X0\ \X2\044004350437043504400432043D043E043C0443\X0\ \X2\044004300431043E044204300442044C\X0\ \X2\043D0430\X0\ \X2\043B044E04310443044E\X0\ \X2\0441043504400438044E\X0\)'),$);
#111=IFCPROPERTYSET('3zkGBX2Z_2NvTnNXHyfoJ4',$,'Pset_KVANT_LOI',$,(#108,#109,#110));
#112=IFCTRANSFORMERTYPE('1ei3ayzHDhCEpoUnif95je',$,'\X2\0412044B043F0440044F043C043804420435043B0438\X0\','\X2\041F043804420430043D04380435\X0\ \X2\04410435044004380439\X0\ \X2\04320430043D043D\X0\ \X2\043F043E04410442043E044F043D043D044B043C\X0\ \X2\0442043E043A043E043C\X0\',$,(#111),$,'\X2\041E0412042D\X0\75-\X2\041B\X0\3-58','\X2\041F043804420430043D04380435\X0\ \X2\0442043E043A043E043C\X0\ (\X2\043D0435\X0\ \X2\0432\X0\ \X2\04110418\X0\)',.USERDEFINED.);
#113=IFCRELDECLARES('0yX0P4OQft59$WYQz8oRcR',$,$,$,#8,(#26,#33,#51,#57,#63,#69,#75,#81,#86,#91,#97,#102,#107,#112));
ENDSEC;
END-ISO-10303-21;
