<?xml version="1.0" encoding="UTF-8"?>
<svg id="lay2-svg" class="gsvg" xmlns="http://www.w3.org/2000/svg" viewBox="0 0 1190 640" style="width:1190px;max-width:none;display:block;font-family:system-ui,sans-serif">
    <defs><marker id="mk-l2d" markerWidth="10" markerHeight="10" refX="5" refY="5" orient="auto"><path d="M2 8 L8 2" stroke="context-stroke" stroke-width="1.6"></path></marker></defs>
    <rect x="0" y="0" width="1190" height="640" fill="#fcfcfb"></rect>
    <rect x="6" y="6" width="1178" height="628" fill="none" stroke="rgba(11,11,11,.10)"></rect>
    <text x="20" y="626" font-size="10" fill="#898781">ЭСКИЗ — не для строительства · Компоновка Лота №2 (купоросы) в сущ. ГМУ + высотная проверка барометрич. конденсаторов · источники: Прил. №7 ФМ.01648-АР/АР1/КО, ТЗ п. 4.5, расчёт БИ · КВАНТ, черновик БИ</text>
    <text x="1174" y="30" font-size="12" font-weight="800" fill="#52514e" text-anchor="end">КОМПОНОВКА · ЛОТ №2 — УЧАСТОК КУПОРОСОВ В ЗДАНИИ ГМУ</text>
    <text x="36" y="56" font-size="10.5" font-weight="800" fill="#52514e">ПЛАН ЗДАНИЯ ГМУ 96 × 108 М (ПРИЛ. №7: ФМ.01648-АР/АР1/КО)</text><line x1="110" y1="78" x2="350" y2="78" stroke="rgba(11,11,11,.10)" stroke-width=".55"></line><line x1="110" y1="93" x2="350" y2="93" stroke="rgba(11,11,11,.10)" stroke-width=".55"></line><line x1="110" y1="108" x2="350" y2="108" stroke="rgba(11,11,11,.10)" stroke-width=".55"></line><line x1="110" y1="123" x2="350" y2="123" stroke="rgba(11,11,11,.10)" stroke-width=".55"></line><line x1="110" y1="138" x2="350" y2="138" stroke="rgba(11,11,11,.10)" stroke-width=".55"></line><line x1="110" y1="153" x2="350" y2="153" stroke="rgba(11,11,11,.10)" stroke-width=".55"></line><line x1="110" y1="168" x2="350" y2="168" stroke="rgba(11,11,11,.10)" stroke-width=".55"></line><line x1="110" y1="183" x2="350" y2="183" stroke="rgba(11,11,11,.10)" stroke-width=".55"></line><line x1="110" y1="198" x2="350" y2="198" stroke="rgba(11,11,11,.10)" stroke-width=".55"></line><line x1="110" y1="213" x2="350" y2="213" stroke="rgba(11,11,11,.10)" stroke-width=".55"></line><line x1="110" y1="228" x2="350" y2="228" stroke="rgba(11,11,11,.10)" stroke-width=".55"></line><line x1="110" y1="243" x2="350" y2="243" stroke="rgba(11,11,11,.10)" stroke-width=".55"></line><line x1="110" y1="258" x2="350" y2="258" stroke="rgba(11,11,11,.10)" stroke-width=".55"></line><line x1="110" y1="273" x2="350" y2="273" stroke="rgba(11,11,11,.10)" stroke-width=".55"></line><line x1="110" y1="288" x2="350" y2="288" stroke="rgba(11,11,11,.10)" stroke-width=".55"></line><line x1="110" y1="303" x2="350" y2="303" stroke="rgba(11,11,11,.10)" stroke-width=".55"></line><line x1="110" y1="318" x2="350" y2="318" stroke="rgba(11,11,11,.10)" stroke-width=".55"></line><line x1="110" y1="333" x2="350" y2="333" stroke="rgba(11,11,11,.10)" stroke-width=".55"></line><line x1="110" y1="348" x2="350" y2="348" stroke="rgba(11,11,11,.10)" stroke-width=".55"></line><line x1="110" y1="78" x2="110" y2="348" stroke="rgba(11,11,11,.10)" stroke-width=".55"></line><line x1="155" y1="78" x2="155" y2="348" stroke="rgba(11,11,11,.10)" stroke-width=".55"></line><line x1="170" y1="78" x2="170" y2="348" stroke="rgba(11,11,11,.10)" stroke-width=".55"></line><line x1="230" y1="78" x2="230" y2="348" stroke="rgba(11,11,11,.10)" stroke-width=".55"></line><line x1="290" y1="78" x2="290" y2="348" stroke="rgba(11,11,11,.10)" stroke-width=".55"></line><line x1="350" y1="78" x2="350" y2="348" stroke="rgba(11,11,11,.10)" stroke-width=".55"></line><rect x="108.7" y="76.7" width="2.6" height="2.6" fill="#52514e"></rect><rect x="108.7" y="91.7" width="2.6" height="2.6" fill="#52514e"></rect><rect x="108.7" y="106.7" width="2.6" height="2.6" fill="#52514e"></rect><rect x="108.7" y="121.7" width="2.6" height="2.6" fill="#52514e"></rect><rect x="108.7" y="136.7" width="2.6" height="2.6" fill="#52514e"></rect><rect x="108.7" y="151.7" width="2.6" height="2.6" fill="#52514e"></rect><rect x="108.7" y="166.7" width="2.6" height="2.6" fill="#52514e"></rect><rect x="108.7" y="181.7" width="2.6" height="2.6" fill="#52514e"></rect><rect x="108.7" y="196.7" width="2.6" height="2.6" fill="#52514e"></rect><rect x="108.7" y="211.7" width="2.6" height="2.6" fill="#52514e"></rect><rect x="108.7" y="226.7" width="2.6" height="2.6" fill="#52514e"></rect><rect x="108.7" y="241.7" width="2.6" height="2.6" fill="#52514e"></rect><rect x="108.7" y="256.7" width="2.6" height="2.6" fill="#52514e"></rect><rect x="108.7" y="271.7" width="2.6" height="2.6" fill="#52514e"></rect><rect x="108.7" y="286.7" width="2.6" height="2.6" fill="#52514e"></rect><rect x="108.7" y="301.7" width="2.6" height="2.6" fill="#52514e"></rect><rect x="108.7" y="316.7" width="2.6" height="2.6" fill="#52514e"></rect><rect x="108.7" y="331.7" width="2.6" height="2.6" fill="#52514e"></rect><rect x="108.7" y="346.7" width="2.6" height="2.6" fill="#52514e"></rect><rect x="153.7" y="76.7" width="2.6" height="2.6" fill="#52514e"></rect><rect x="153.7" y="91.7" width="2.6" height="2.6" fill="#52514e"></rect><rect x="153.7" y="106.7" width="2.6" height="2.6" fill="#52514e"></rect><rect x="153.7" y="121.7" width="2.6" height="2.6" fill="#52514e"></rect><rect x="153.7" y="136.7" width="2.6" height="2.6" fill="#52514e"></rect><rect x="153.7" y="151.7" width="2.6" height="2.6" fill="#52514e"></rect><rect x="153.7" y="166.7" width="2.6" height="2.6" fill="#52514e"></rect><rect x="153.7" y="181.7" width="2.6" height="2.6" fill="#52514e"></rect><rect x="153.7" y="196.7" width="2.6" height="2.6" fill="#52514e"></rect><rect x="153.7" y="211.7" width="2.6" height="2.6" fill="#52514e"></rect><rect x="153.7" y="226.7" width="2.6" height="2.6" fill="#52514e"></rect><rect x="153.7" y="241.7" width="2.6" height="2.6" fill="#52514e"></rect><rect x="153.7" y="256.7" width="2.6" height="2.6" fill="#52514e"></rect><rect x="153.7" y="271.7" width="2.6" height="2.6" fill="#52514e"></rect><rect x="153.7" y="286.7" width="2.6" height="2.6" fill="#52514e"></rect><rect x="153.7" y="301.7" width="2.6" height="2.6" fill="#52514e"></rect><rect x="153.7" y="316.7" width="2.6" height="2.6" fill="#52514e"></rect><rect x="153.7" y="331.7" width="2.6" height="2.6" fill="#52514e"></rect><rect x="153.7" y="346.7" width="2.6" height="2.6" fill="#52514e"></rect><rect x="168.7" y="76.7" width="2.6" height="2.6" fill="#52514e"></rect><rect x="168.7" y="91.7" width="2.6" height="2.6" fill="#52514e"></rect><rect x="168.7" y="106.7" width="2.6" height="2.6" fill="#52514e"></rect><rect x="168.7" y="121.7" width="2.6" height="2.6" fill="#52514e"></rect><rect x="168.7" y="136.7" width="2.6" height="2.6" fill="#52514e"></rect><rect x="168.7" y="151.7" width="2.6" height="2.6" fill="#52514e"></rect><rect x="168.7" y="166.7" width="2.6" height="2.6" fill="#52514e"></rect><rect x="168.7" y="181.7" width="2.6" height="2.6" fill="#52514e"></rect><rect x="168.7" y="196.7" width="2.6" height="2.6" fill="#52514e"></rect><rect x="168.7" y="211.7" width="2.6" height="2.6" fill="#52514e"></rect><rect x="168.7" y="226.7" width="2.6" height="2.6" fill="#52514e"></rect><rect x="168.7" y="241.7" width="2.6" height="2.6" fill="#52514e"></rect><rect x="168.7" y="256.7" width="2.6" height="2.6" fill="#52514e"></rect><rect x="168.7" y="271.7" width="2.6" height="2.6" fill="#52514e"></rect><rect x="168.7" y="286.7" width="2.6" height="2.6" fill="#52514e"></rect><rect x="168.7" y="301.7" width="2.6" height="2.6" fill="#52514e"></rect><rect x="168.7" y="316.7" width="2.6" height="2.6" fill="#52514e"></rect><rect x="168.7" y="331.7" width="2.6" height="2.6" fill="#52514e"></rect><rect x="168.7" y="346.7" width="2.6" height="2.6" fill="#52514e"></rect><rect x="228.7" y="76.7" width="2.6" height="2.6" fill="#52514e"></rect><rect x="228.7" y="91.7" width="2.6" height="2.6" fill="#52514e"></rect><rect x="228.7" y="106.7" width="2.6" height="2.6" fill="#52514e"></rect><rect x="228.7" y="121.7" width="2.6" height="2.6" fill="#52514e"></rect><rect x="228.7" y="136.7" width="2.6" height="2.6" fill="#52514e"></rect><rect x="228.7" y="151.7" width="2.6" height="2.6" fill="#52514e"></rect><rect x="228.7" y="166.7" width="2.6" height="2.6" fill="#52514e"></rect><rect x="228.7" y="181.7" width="2.6" height="2.6" fill="#52514e"></rect><rect x="228.7" y="196.7" width="2.6" height="2.6" fill="#52514e"></rect><rect x="228.7" y="211.7" width="2.6" height="2.6" fill="#52514e"></rect><rect x="228.7" y="226.7" width="2.6" height="2.6" fill="#52514e"></rect><rect x="228.7" y="241.7" width="2.6" height="2.6" fill="#52514e"></rect><rect x="228.7" y="256.7" width="2.6" height="2.6" fill="#52514e"></rect><rect x="228.7" y="271.7" width="2.6" height="2.6" fill="#52514e"></rect><rect x="228.7" y="286.7" width="2.6" height="2.6" fill="#52514e"></rect><rect x="228.7" y="301.7" width="2.6" height="2.6" fill="#52514e"></rect><rect x="228.7" y="316.7" width="2.6" height="2.6" fill="#52514e"></rect><rect x="228.7" y="331.7" width="2.6" height="2.6" fill="#52514e"></rect><rect x="228.7" y="346.7" width="2.6" height="2.6" fill="#52514e"></rect><rect x="288.7" y="76.7" width="2.6" height="2.6" fill="#52514e"></rect><rect x="288.7" y="91.7" width="2.6" height="2.6" fill="#52514e"></rect><rect x="288.7" y="106.7" width="2.6" height="2.6" fill="#52514e"></rect><rect x="288.7" y="121.7" width="2.6" height="2.6" fill="#52514e"></rect><rect x="288.7" y="136.7" width="2.6" height="2.6" fill="#52514e"></rect><rect x="288.7" y="151.7" width="2.6" height="2.6" fill="#52514e"></rect><rect x="288.7" y="166.7" width="2.6" height="2.6" fill="#52514e"></rect><rect x="288.7" y="181.7" width="2.6" height="2.6" fill="#52514e"></rect><rect x="288.7" y="196.7" width="2.6" height="2.6" fill="#52514e"></rect><rect x="288.7" y="211.7" width="2.6" height="2.6" fill="#52514e"></rect><rect x="288.7" y="226.7" width="2.6" height="2.6" fill="#52514e"></rect><rect x="288.7" y="241.7" width="2.6" height="2.6" fill="#52514e"></rect><rect x="288.7" y="256.7" width="2.6" height="2.6" fill="#52514e"></rect><rect x="288.7" y="271.7" width="2.6" height="2.6" fill="#52514e"></rect><rect x="288.7" y="286.7" width="2.6" height="2.6" fill="#52514e"></rect><rect x="288.7" y="301.7" width="2.6" height="2.6" fill="#52514e"></rect><rect x="288.7" y="316.7" width="2.6" height="2.6" fill="#52514e"></rect><rect x="288.7" y="331.7" width="2.6" height="2.6" fill="#52514e"></rect><rect x="288.7" y="346.7" width="2.6" height="2.6" fill="#52514e"></rect><rect x="348.7" y="76.7" width="2.6" height="2.6" fill="#52514e"></rect><rect x="348.7" y="91.7" width="2.6" height="2.6" fill="#52514e"></rect><rect x="348.7" y="106.7" width="2.6" height="2.6" fill="#52514e"></rect><rect x="348.7" y="121.7" width="2.6" height="2.6" fill="#52514e"></rect><rect x="348.7" y="136.7" width="2.6" height="2.6" fill="#52514e"></rect><rect x="348.7" y="151.7" width="2.6" height="2.6" fill="#52514e"></rect><rect x="348.7" y="166.7" width="2.6" height="2.6" fill="#52514e"></rect><rect x="348.7" y="181.7" width="2.6" height="2.6" fill="#52514e"></rect><rect x="348.7" y="196.7" width="2.6" height="2.6" fill="#52514e"></rect><rect x="348.7" y="211.7" width="2.6" height="2.6" fill="#52514e"></rect><rect x="348.7" y="226.7" width="2.6" height="2.6" fill="#52514e"></rect><rect x="348.7" y="241.7" width="2.6" height="2.6" fill="#52514e"></rect><rect x="348.7" y="256.7" width="2.6" height="2.6" fill="#52514e"></rect><rect x="348.7" y="271.7" width="2.6" height="2.6" fill="#52514e"></rect><rect x="348.7" y="286.7" width="2.6" height="2.6" fill="#52514e"></rect><rect x="348.7" y="301.7" width="2.6" height="2.6" fill="#52514e"></rect><rect x="348.7" y="316.7" width="2.6" height="2.6" fill="#52514e"></rect><rect x="348.7" y="331.7" width="2.6" height="2.6" fill="#52514e"></rect><rect x="348.7" y="346.7" width="2.6" height="2.6" fill="#52514e"></rect><rect x="110" y="78" width="240" height="270" fill="none" stroke="#0b0b0b" stroke-width="1.8"></rect><rect x="138" y="177" width="206" height="12" fill="#fcfcfb"></rect><text x="240" y="186" font-size="7.8" font-weight="800" fill="#0ca30c" text-anchor="middle">УЧАСТОК КУПОРОСОВ — ПРЕДЛОЖЕНИЕ БИ</text><rect x="234" y="214" width="52" height="20" fill="#fcfcfb"></rect><text x="260" y="222" font-size="7.2" fill="#0ca30c" text-anchor="middle">24 × 12–18 м</text><text x="260" y="231" font-size="7.2" fill="#0ca30c" text-anchor="middle">(2–3 шага)</text><rect x="230" y="190.5" width="60" height="45" fill="none" stroke="#0ca30c" stroke-width="1.7" stroke-dasharray="6 4"></rect><rect x="232" y="194.25" width="5" height="5" fill="none" stroke="#2a78d6" stroke-width="1.1" stroke-dasharray="2 2"></rect><rect x="281" y="198" width="5" height="5" fill="none" stroke="#2a78d6" stroke-width="1.1" stroke-dasharray="2 2"></rect><rect x="190" y="238" width="140" height="10" fill="#fcfcfb"></rect><text x="260" y="246" font-size="7" fill="#2a78d6" text-anchor="middle">стояки конденсаторов у колонн (приямки)</text><line x1="106" y1="213" x2="354" y2="213" stroke="#0b0b0b" stroke-width="1.1" stroke-dasharray="10 4"></line><circle cx="100" cy="213" r="6" fill="#fcfcfb" stroke="#0b0b0b" stroke-width="1"></circle><text x="100" y="215.8" font-size="7.5" font-weight="800" fill="#0b0b0b" text-anchor="middle">1</text><circle cx="360" cy="213" r="6" fill="#fcfcfb" stroke="#0b0b0b" stroke-width="1"></circle><text x="360" y="215.8" font-size="7.5" font-weight="800" fill="#0b0b0b" text-anchor="middle">1</text><line x1="110" y1="364" x2="155" y2="364" stroke="#52514e" stroke-width=".9" marker-start="url(#mk-l2d)" marker-end="url(#mk-l2d)"></line><text x="132.5" y="360" font-size="8" font-weight="700" fill="#52514e" text-anchor="middle">18 000</text><line x1="155" y1="364" x2="170" y2="364" stroke="#52514e" stroke-width=".9" marker-start="url(#mk-l2d)" marker-end="url(#mk-l2d)"></line><line x1="170" y1="364" x2="230" y2="364" stroke="#52514e" stroke-width=".9" marker-start="url(#mk-l2d)" marker-end="url(#mk-l2d)"></line><text x="200" y="360" font-size="8" font-weight="700" fill="#52514e" text-anchor="middle">24 000</text><line x1="230" y1="364" x2="290" y2="364" stroke="#52514e" stroke-width=".9" marker-start="url(#mk-l2d)" marker-end="url(#mk-l2d)"></line><text x="260" y="360" font-size="8" font-weight="700" fill="#52514e" text-anchor="middle">24 000</text><line x1="290" y1="364" x2="350" y2="364" stroke="#52514e" stroke-width=".9" marker-start="url(#mk-l2d)" marker-end="url(#mk-l2d)"></line><text x="320" y="360" font-size="8" font-weight="700" fill="#52514e" text-anchor="middle">24 000</text><line x1="162.5" y1="364" x2="162.5" y2="374" stroke="#52514e" stroke-width=".7"></line><text x="162.5" y="384" font-size="7.5" font-weight="700" fill="#52514e" text-anchor="middle">6 000</text><line x1="110" y1="394" x2="350" y2="394" stroke="#52514e" stroke-width=".9" marker-start="url(#mk-l2d)" marker-end="url(#mk-l2d)"></line><text x="230" y="403.5" font-size="8" font-weight="700" fill="#52514e" text-anchor="middle">96 000 (пролёты по буквенным осям)</text><line x1="380" y1="78" x2="380" y2="348" stroke="#52514e" stroke-width=".9" marker-start="url(#mk-l2d)" marker-end="url(#mk-l2d)"></line><text x="376.5" y="213" font-size="8" font-weight="700" fill="#52514e" text-anchor="middle" transform="rotate(-90 376.5 213)">108 000 (шаг колонн 6 000; сетка 6/12 м — ТЗ п. 4.5)</text><text x="36" y="418" font-size="8.2" fill="#52514e">Сущ. здание: свайное основание с ростверками; пластовый дренаж (низ −1,65…−2,25);</text><text x="36" y="428.5" font-size="8.2" fill="#52514e">покрытие — плиты 3 × 12 м, h = 455 мм; верх +13,400…+15,950, парапеты до +16,500;</text><text x="36" y="439" font-size="8.2" fill="#52514e">частичные этажерки/перекрытия +5,000/+6,000; краны 5 т (Lк 22,5) и 7,5 т (Lк 16,5).</text><text x="36" y="449.5" font-size="8.2" fill="#52514e">Монтаж: аппараты 904L заводской готовности — через сущ. проёмы/ворота; испарители</text><text x="36" y="460" font-size="8.2" fill="#52514e">нитки 1 (~8–15 т) тяжелее г/п кранов 5/7,5 т — мобильный кран через проём до</text><text x="36" y="470.5" font-size="8.2" fill="#52514e">монтажа кровли зоны либо укрупнительная сборка из транспортабельных частей.</text><rect x="30" y="478" width="430" height="118" rx="6" fill="none" stroke="#52514e" stroke-width="1"></rect><text x="40" y="492" font-size="9" font-weight="800" fill="#0b0b0b">ВЫСОТНАЯ ПРОВЕРКА БАРОМЕТРИЧ. КОНДЕНСАТОРОВ — ВЫВОД (расчёт БИ)</text><text x="40" y="504" font-size="8.2" fill="#52514e">потребно: H = труба 10,5 + корпус 2,0…2,5 = 12,5…13,0 м от уровня воды гидрозатвора</text><text x="40" y="514.6" font-size="8.2" fill="#898781">(труба: 10,33 × (1 − 0,075) = 9,56 м + запас ~0,9 м; корпус D 2,0 с каплеотбойником)</text><text x="40" y="525.2" font-size="8.2" fill="#52514e">низ ферм: высокий пролёт ≈ +12,4…+12,9; при покрытии +13,4…+14,15 ≈ +10,9…+11,0</text><text x="40" y="535.8" font-size="8.2" fill="#d03b3b">вариант 0 (гидрозатвор на 0,000): верх +13,2…+13,7 — НЕ ПРОХОДИТ, дефицит 0,3–1,3 м</text><text x="40" y="546.4" font-size="8.2" fill="#0ca30c">вариант А (реком.): приямок 2,0–2,5 м → верх +11,0…+11,5, запас ≥ 0,9–1,9 м</text><text x="40" y="557" font-size="8.2" fill="#52514e">вариант Б (резерв): низкоуровневые конденсаторы + насосы 904L — если запретят приямки</text><text x="40" y="567.6" font-size="8.2" fill="#52514e">альтернатива по II ступеням: заглубить репульпаторы — совместить с приямками</text><text x="40" y="578.2" font-size="8.2" fill="#52514e">подтвердить обмерным обследованием (низ ферм, ростверки, зоны) — 1-й этап БИ;</text><text x="40" y="588.8" font-size="8.2" fill="#52514e">в новом корпусе (базовый сценарий) низ ферм назначается ≥ 13,5 м — без приямков</text><text x="1174" y="56" font-size="10.5" font-weight="800" fill="#52514e" text-anchor="end">РАЗРЕЗ 1—1 · ВЫСОКИЙ 24-М ПРОЛЁТ (ПРИВЯЗКА — ПО ОБСЛЕДОВАНИЮ)</text><rect x="500" y="87.5" width="12" height="412.5" fill="none" stroke="#0b0b0b" stroke-width="1.4"></rect><rect x="1088" y="87.5" width="12" height="412.5" fill="none" stroke="#0b0b0b" stroke-width="1.4"></rect><text x="518" y="96.5" font-size="7.5" fill="#898781">парапеты до +16,500</text><line x1="500" y1="101.25" x2="1100" y2="101.25" stroke="#0b0b0b" stroke-width="1.5"></line><line x1="512" y1="116.25" x2="1088" y2="116.25" stroke="#52514e" stroke-width=".9" stroke-dasharray="6 4"></line><line x1="524" y1="116.25" x2="536" y2="101.25" stroke="rgba(11,11,11,.10)" stroke-width=".7"></line><line x1="552" y1="116.25" x2="564" y2="101.25" stroke="rgba(11,11,11,.10)" stroke-width=".7"></line><line x1="580" y1="116.25" x2="592" y2="101.25" stroke="rgba(11,11,11,.10)" stroke-width=".7"></line><line x1="608" y1="116.25" x2="620" y2="101.25" stroke="rgba(11,11,11,.10)" stroke-width=".7"></line><line x1="636" y1="116.25" x2="648" y2="101.25" stroke="rgba(11,11,11,.10)" stroke-width=".7"></line><line x1="664" y1="116.25" x2="676" y2="101.25" stroke="rgba(11,11,11,.10)" stroke-width=".7"></line><line x1="692" y1="116.25" x2="704" y2="101.25" stroke="rgba(11,11,11,.10)" stroke-width=".7"></line><line x1="720" y1="116.25" x2="732" y2="101.25" stroke="rgba(11,11,11,.10)" stroke-width=".7"></line><line x1="748" y1="116.25" x2="760" y2="101.25" stroke="rgba(11,11,11,.10)" stroke-width=".7"></line><line x1="776" y1="116.25" x2="788" y2="101.25" stroke="rgba(11,11,11,.10)" stroke-width=".7"></line><line x1="804" y1="116.25" x2="816" y2="101.25" stroke="rgba(11,11,11,.10)" stroke-width=".7"></line><line x1="832" y1="116.25" x2="844" y2="101.25" stroke="rgba(11,11,11,.10)" stroke-width=".7"></line><line x1="860" y1="116.25" x2="872" y2="101.25" stroke="rgba(11,11,11,.10)" stroke-width=".7"></line><line x1="888" y1="116.25" x2="900" y2="101.25" stroke="rgba(11,11,11,.10)" stroke-width=".7"></line><line x1="916" y1="116.25" x2="928" y2="101.25" stroke="rgba(11,11,11,.10)" stroke-width=".7"></line><line x1="944" y1="116.25" x2="956" y2="101.25" stroke="rgba(11,11,11,.10)" stroke-width=".7"></line><line x1="972" y1="116.25" x2="984" y2="101.25" stroke="rgba(11,11,11,.10)" stroke-width=".7"></line><line x1="1000" y1="116.25" x2="1012" y2="101.25" stroke="rgba(11,11,11,.10)" stroke-width=".7"></line><line x1="1028" y1="116.25" x2="1040" y2="101.25" stroke="rgba(11,11,11,.10)" stroke-width=".7"></line><line x1="1056" y1="116.25" x2="1068" y2="101.25" stroke="rgba(11,11,11,.10)" stroke-width=".7"></line><rect x="662" y="103.75" width="262" height="11" fill="#fcfcfb"></rect><text x="793" y="113.25" font-size="8" fill="#52514e" text-anchor="middle">верх покрытия +15,35…+15,95 · плиты 3 × 12 м, h = 455 мм</text><line x1="690" y1="183.75" x2="717" y2="120" stroke="rgba(11,11,11,.10)" stroke-width=".7"></line><line x1="717" y1="120" x2="744" y2="183.75" stroke="rgba(11,11,11,.10)" stroke-width=".7"></line><line x1="744" y1="183.75" x2="771" y2="120" stroke="rgba(11,11,11,.10)" stroke-width=".7"></line><line x1="771" y1="120" x2="798" y2="183.75" stroke="rgba(11,11,11,.10)" stroke-width=".7"></line><line x1="798" y1="183.75" x2="825" y2="120" stroke="rgba(11,11,11,.10)" stroke-width=".7"></line><line x1="825" y1="120" x2="852" y2="183.75" stroke="rgba(11,11,11,.10)" stroke-width=".7"></line><line x1="852" y1="183.75" x2="879" y2="120" stroke="rgba(11,11,11,.10)" stroke-width=".7"></line><line x1="879" y1="120" x2="906" y2="183.75" stroke="rgba(11,11,11,.10)" stroke-width=".7"></line><line x1="906" y1="183.75" x2="933" y2="120" stroke="rgba(11,11,11,.10)" stroke-width=".7"></line><line x1="933" y1="120" x2="960" y2="183.75" stroke="rgba(11,11,11,.10)" stroke-width=".7"></line><line x1="960" y1="183.75" x2="987" y2="120" stroke="rgba(11,11,11,.10)" stroke-width=".7"></line><line x1="987" y1="120" x2="1014" y2="183.75" stroke="rgba(11,11,11,.10)" stroke-width=".7"></line><line x1="1014" y1="183.75" x2="1041" y2="120" stroke="rgba(11,11,11,.10)" stroke-width=".7"></line><line x1="1041" y1="120" x2="1068" y2="183.75" stroke="rgba(11,11,11,.10)" stroke-width=".7"></line><line x1="1068" y1="183.75" x2="1095" y2="120" stroke="rgba(11,11,11,.10)" stroke-width=".7"></line><line x1="1095" y1="120" x2="1122" y2="183.75" stroke="rgba(11,11,11,.10)" stroke-width=".7"></line><line x1="512" y1="177.5" x2="1088" y2="177.5" stroke="#52514e" stroke-width="1" stroke-dasharray="7 4"></line><line x1="512" y1="190" x2="1088" y2="190" stroke="#52514e" stroke-width="1" stroke-dasharray="7 4"></line><rect x="628" y="166.5" width="344" height="10" fill="#fcfcfb"></rect><text x="800" y="174.5" font-size="8" font-weight="700" fill="#52514e" text-anchor="middle">низ несущих ферм — оценочно +12,4…+12,9 <tspan fill="#d03b3b">(подтвердить обмером — 1-й этап БИ)</tspan></text><rect x="512" y="240" width="14" height="10" fill="none" stroke="#52514e" stroke-width="1.1"></rect><rect x="515" y="234" width="6" height="6" fill="#52514e"></rect><rect x="1074" y="240" width="14" height="10" fill="none" stroke="#52514e" stroke-width="1.1"></rect><rect x="1079" y="234" width="6" height="6" fill="#52514e"></rect><line x1="512" y1="200" x2="1088" y2="200" stroke="#898781" stroke-width=".9" stroke-dasharray="4 4"></line><text x="1068" y="209.5" font-size="7.5" fill="#898781" text-anchor="end">габарит крана ≈ +12 — стояки у колонн, вне зоны прохода (ФНП по ПС)</text><text x="1068" y="259" font-size="7.5" fill="#52514e" text-anchor="end">верх кранового рельса +10,000/+10,500</text><line x1="500" y1="500" x2="587" y2="500" stroke="#0b0b0b" stroke-width="2"></line><line x1="662" y1="500" x2="1100" y2="500" stroke="#0b0b0b" stroke-width="2"></line><line x1="514" y1="500" x2="508" y2="507" stroke="#52514e" stroke-width=".7"></line><line x1="528" y1="500" x2="522" y2="507" stroke="#52514e" stroke-width=".7"></line><line x1="542" y1="500" x2="536" y2="507" stroke="#52514e" stroke-width=".7"></line><line x1="556" y1="500" x2="550" y2="507" stroke="#52514e" stroke-width=".7"></line><line x1="570" y1="500" x2="564" y2="507" stroke="#52514e" stroke-width=".7"></line><line x1="672" y1="500" x2="666" y2="507" stroke="#52514e" stroke-width=".7"></line><line x1="686" y1="500" x2="680" y2="507" stroke="#52514e" stroke-width=".7"></line><line x1="700" y1="500" x2="694" y2="507" stroke="#52514e" stroke-width=".7"></line><line x1="714" y1="500" x2="708" y2="507" stroke="#52514e" stroke-width=".7"></line><line x1="728" y1="500" x2="722" y2="507" stroke="#52514e" stroke-width=".7"></line><line x1="742" y1="500" x2="736" y2="507" stroke="#52514e" stroke-width=".7"></line><line x1="756" y1="500" x2="750" y2="507" stroke="#52514e" stroke-width=".7"></line><line x1="770" y1="500" x2="764" y2="507" stroke="#52514e" stroke-width=".7"></line><line x1="784" y1="500" x2="778" y2="507" stroke="#52514e" stroke-width=".7"></line><line x1="798" y1="500" x2="792" y2="507" stroke="#52514e" stroke-width=".7"></line><line x1="812" y1="500" x2="806" y2="507" stroke="#52514e" stroke-width=".7"></line><line x1="826" y1="500" x2="820" y2="507" stroke="#52514e" stroke-width=".7"></line><line x1="840" y1="500" x2="834" y2="507" stroke="#52514e" stroke-width=".7"></line><line x1="854" y1="500" x2="848" y2="507" stroke="#52514e" stroke-width=".7"></line><line x1="868" y1="500" x2="862" y2="507" stroke="#52514e" stroke-width=".7"></line><line x1="882" y1="500" x2="876" y2="507" stroke="#52514e" stroke-width=".7"></line><line x1="896" y1="500" x2="890" y2="507" stroke="#52514e" stroke-width=".7"></line><line x1="910" y1="500" x2="904" y2="507" stroke="#52514e" stroke-width=".7"></line><line x1="924" y1="500" x2="918" y2="507" stroke="#52514e" stroke-width=".7"></line><line x1="938" y1="500" x2="932" y2="507" stroke="#52514e" stroke-width=".7"></line><line x1="952" y1="500" x2="946" y2="507" stroke="#52514e" stroke-width=".7"></line><line x1="966" y1="500" x2="960" y2="507" stroke="#52514e" stroke-width=".7"></line><line x1="980" y1="500" x2="974" y2="507" stroke="#52514e" stroke-width=".7"></line><line x1="994" y1="500" x2="988" y2="507" stroke="#52514e" stroke-width=".7"></line><line x1="1008" y1="500" x2="1002" y2="507" stroke="#52514e" stroke-width=".7"></line><line x1="1022" y1="500" x2="1016" y2="507" stroke="#52514e" stroke-width=".7"></line><line x1="1036" y1="500" x2="1030" y2="507" stroke="#52514e" stroke-width=".7"></line><line x1="1050" y1="500" x2="1044" y2="507" stroke="#52514e" stroke-width=".7"></line><line x1="1064" y1="500" x2="1058" y2="507" stroke="#52514e" stroke-width=".7"></line><line x1="1078" y1="500" x2="1072" y2="507" stroke="#52514e" stroke-width=".7"></line><rect x="494" y="500" width="24" height="46" fill="none" stroke="#52514e" stroke-width="1"></rect><rect x="1082" y="500" width="24" height="46" fill="none" stroke="#52514e" stroke-width="1"></rect><line x1="512" y1="558" x2="580" y2="558" stroke="rgba(11,11,11,.10)" stroke-width=".9" stroke-dasharray="3 3"></line><line x1="670" y1="558" x2="1088" y2="558" stroke="rgba(11,11,11,.10)" stroke-width=".9" stroke-dasharray="3 3"></line><text x="836" y="547.5" font-size="7.8" fill="#898781" text-anchor="middle">свайные ростверки (низ −1,65…−2,25) · пластовый дренаж</text><rect x="535" y="475" width="36" height="25" fill="none" stroke="#d03b3b" stroke-width="1.1" stroke-dasharray="4 3"></rect><line x1="537" y1="482.5" x2="569" y2="482.5" stroke="#d03b3b" stroke-width=".9"></line><path d="M549 476.5 L556 476.5 L552.5 481.5 Z" fill="#d03b3b"></path><text x="574" y="485.5" font-size="6.8" fill="#d03b3b">вода ≈ +0,7</text><line x1="550" y1="482.5" x2="550" y2="220" stroke="#d03b3b" stroke-width="1.1" stroke-dasharray="4 3"></line><line x1="555" y1="482.5" x2="555" y2="220" stroke="#d03b3b" stroke-width="1.1" stroke-dasharray="4 3"></line><rect x="527" y="163.75" width="50" height="56.25" rx="4" fill="none" stroke="#d03b3b" stroke-width="1.2" stroke-dasharray="4 3"></rect><path d="M537 173.5 L565 194 M565 173.5 L537 194" stroke="#d03b3b" stroke-width="1.6"></path><rect x="512" y="120" width="166" height="44" fill="#fcfcfb"></rect><text x="516" y="129" font-size="7.8" font-weight="700" fill="#d03b3b">ВАРИАНТ 0 — гидрозатвор на 0,000:</text><text x="516" y="139" font-size="7.8" fill="#d03b3b">верх конденсатора +13,2…+13,7 —</text><text x="516" y="149" font-size="7.8" fill="#d03b3b">выше низа ферм +12,4…+12,9:</text><text x="516" y="159" font-size="7.8" font-weight="700" fill="#d03b3b">НЕ ПРОХОДИТ (дефицит 0,3–1,3 м)</text><path d="M587 500 L587 557.5 L662 557.5 L662 500" fill="none" stroke="#2a78d6" stroke-width="1.3" stroke-dasharray="6 4"></path><line x1="578" y1="500" x2="578" y2="557.5" stroke="#52514e" stroke-width=".9" marker-start="url(#mk-l2d)" marker-end="url(#mk-l2d)"></line><text x="574.5" y="528.75" font-size="7.2" font-weight="700" fill="#52514e" text-anchor="middle" transform="rotate(-90 574.5 528.75)">2,0–2,5</text><rect x="602" y="522.5" width="46" height="32.5" fill="none" stroke="#2a78d6" stroke-width="1.2"></rect><line x1="604" y1="543.75" x2="646" y2="543.75" stroke="#2a78d6" stroke-width="1"></line><path d="M620 537.75 L627 537.75 L623.5 542.75 Z" fill="#2a78d6"></path><text x="625" y="552.5" font-size="6.5" fill="#2a78d6" text-anchor="middle">−1,5…−2,0</text><line x1="622" y1="543.75" x2="622" y2="281.25" stroke="#2a78d6" stroke-width="1.4"></line><line x1="628" y1="543.75" x2="628" y2="281.25" stroke="#2a78d6" stroke-width="1.4"></line><rect x="600" y="225" width="50" height="56.25" rx="5" fill="none" stroke="#2a78d6" stroke-width="1.6"></rect><rect x="618" y="218" width="14" height="7" fill="none" stroke="#2a78d6" stroke-width="1.2"></rect><text x="625" y="255.5" font-size="7" fill="#2a78d6" text-anchor="middle">D 2,0</text><text x="584" y="207" font-size="7.4" font-weight="700" fill="#0ca30c">ВАРИАНТ А (РЕКОМЕНДУЕМЫЙ):</text><text x="584" y="216.5" font-size="7.4" fill="#0ca30c">верх +11,0…+11,5 · запас до ферм 0,9–1,9 м</text><line x1="672" y1="543.75" x2="672" y2="281.25" stroke="#52514e" stroke-width=".9" marker-start="url(#mk-l2d)" marker-end="url(#mk-l2d)"></line><text x="668.5" y="412.5" font-size="8" font-weight="700" fill="#52514e" text-anchor="middle" transform="rotate(-90 668.5 412.5)">барометрическая труба 10,5 м</text><line x1="672" y1="281.25" x2="672" y2="225" stroke="#52514e" stroke-width=".9" marker-start="url(#mk-l2d)" marker-end="url(#mk-l2d)"></line><text x="668.5" y="253.125" font-size="7.2" font-weight="700" fill="#52514e" text-anchor="middle" transform="rotate(-90 668.5 253.125)">корпус 2,0–2,5</text><line x1="692" y1="543.75" x2="692" y2="225" stroke="#52514e" stroke-width=".9" marker-start="url(#mk-l2d)" marker-end="url(#mk-l2d)"></line><text x="688.5" y="384.375" font-size="8" font-weight="700" fill="#52514e" text-anchor="middle" transform="rotate(-90 688.5 384.375)">H = 12,5–13,0 м от уровня воды</text><text x="560" y="572.5" font-size="7.8" fill="#2a78d6">приямок гидрозатвора 2,0–2,5 м (уровень воды −1,5…−2,0) — предложение БИ; кислотостойкий (СОВ до 0,5 г/л H₂SO₄);</text><text x="560" y="583.5" font-size="7.8" fill="#2a78d6">между свайными ростверками — подтвердить обследованием и расчётом (СП 43.13330, СП 45.13330)</text><rect x="775" y="225" width="50" height="262.5" rx="9" fill="none" stroke="#2a78d6" stroke-width="1.4" stroke-dasharray="6 4"></rect><text x="800" y="356" font-size="8.5" font-weight="700" fill="#0b0b0b" text-anchor="middle" transform="rotate(-90 800 356)">ИСПАРИТЕЛЬ НИТКИ 1</text><text x="734" y="322" font-size="7.4" fill="#52514e" text-anchor="middle">D 2,0 · V 34,5 м³</text><text x="734" y="332.5" font-size="7.4" fill="#52514e" text-anchor="middle">корпус 9–12 м</text><text x="734" y="343" font-size="7.4" fill="#52514e" text-anchor="middle">низ ~0…+1</text><text x="734" y="353.5" font-size="7.4" fill="#52514e" text-anchor="middle">верх ~+10…+12</text><text x="734" y="364" font-size="7.4" fill="#52514e" text-anchor="middle">(по изгот., ОЛ)</text><line x1="835" y1="287.5" x2="1005" y2="287.5" stroke="#52514e" stroke-width="2" stroke-dasharray="7 4"></line><line x1="835" y1="291.25" x2="1005" y2="291.25" stroke="#52514e" stroke-width=".8" stroke-dasharray="7 4"></line><line x1="840" y1="291.25" x2="840" y2="500" stroke="#52514e" stroke-width="1.6" stroke-dasharray="7 4"></line><line x1="1000" y1="291.25" x2="1000" y2="500" stroke="#52514e" stroke-width="1.6" stroke-dasharray="7 4"></line><path d="M856 260 L904 260 L904 215 L856 215 Z" fill="none" stroke="#2a78d6" stroke-width="1.3" stroke-dasharray="5 3"></path><path d="M856 260 L880 287.5 L904 260" fill="none" stroke="#2a78d6" stroke-width="1.3" stroke-dasharray="5 3"></path><text x="910" y="231" font-size="7.8" font-weight="700" fill="#0b0b0b">ИСПАРИТЕЛИ II СТУПЕНЕЙ</text><text x="910" y="242" font-size="7.4" fill="#52514e">низ конуса +8…+9 — на этажерке</text><line x1="877" y1="287.5" x2="877" y2="460" stroke="#2a78d6" stroke-width="1.2"></line><line x1="883" y1="287.5" x2="883" y2="460" stroke="#2a78d6" stroke-width="1.2"></line><text x="869" y="380" font-size="7.2" fill="#2a78d6" text-anchor="middle" transform="rotate(-90 869 380)">солевая колонна</text><line x1="915" y1="287.5" x2="915" y2="465" stroke="#52514e" stroke-width=".9" marker-start="url(#mk-l2d)" marker-end="url(#mk-l2d)"></line><text x="911.5" y="376.25" font-size="7.6" font-weight="700" fill="#52514e" text-anchor="middle" transform="rotate(-90 911.5 376.25)">столб пульпы 7,0–7,9 м</text><rect x="838" y="304" width="166" height="10" fill="#fcfcfb"></rect><text x="920" y="312" font-size="7.5" fill="#52514e" text-anchor="middle">ЭТАЖЕРКА (СП 16.13330) — предложение БИ</text><rect x="856" y="460" width="50" height="40" fill="none" stroke="#2a78d6" stroke-width="1.2" stroke-dasharray="5 3"></rect><line x1="858" y1="465" x2="904" y2="465" stroke="#2a78d6" stroke-width=".8"></line><text x="881" y="483" font-size="6.6" fill="#52514e" text-anchor="middle">репульпаторы</text><text x="881" y="492" font-size="6.6" fill="#52514e" text-anchor="middle">(0,000)</text><rect x="925" y="472.5" width="55" height="18.75" fill="none" stroke="#2a78d6" stroke-width="1.2" stroke-dasharray="5 3"></rect><rect x="918" y="491.25" width="69" height="8.75" fill="none" stroke="#52514e" stroke-width="1" stroke-dasharray="3 3"></rect><text x="958" y="459.5" font-size="7.2" fill="#52514e" text-anchor="middle">центрифуги — инд.</text><text x="958" y="468.5" font-size="7.2" fill="#52514e" text-anchor="middle">виброфундаменты</text><line x1="1015" y1="497" x2="1080" y2="497" stroke="#898781" stroke-width="1.2" stroke-dasharray="5 3"></line><line x1="1015" y1="497" x2="1015" y2="490" stroke="#898781" stroke-width="1.2"></line><line x1="1080" y1="497" x2="1080" y2="490" stroke="#898781" stroke-width="1.2"></line><text x="1048" y="452" font-size="7.2" fill="#898781" text-anchor="middle">фасовка биг-бегов,</text><text x="1048" y="461" font-size="7.2" fill="#898781" text-anchor="middle">склад — на 0,000,</text><text x="1048" y="470" font-size="7.2" fill="#898781" text-anchor="middle">проезд погрузчика</text><line x1="1040" y1="375" x2="1088" y2="375" stroke="#52514e" stroke-width="2.4"></line><line x1="1040" y1="350" x2="1088" y2="350" stroke="#52514e" stroke-width="2.4"></line><text x="1046" y="358.75" font-size="7" fill="#898781" text-anchor="middle">сущ. перекрытия</text><text x="1046" y="367.5" font-size="7" fill="#898781" text-anchor="middle">(частично)</text><line x1="1096" y1="108.75" x2="1104" y2="108.75" stroke="#52514e" stroke-width="1"></line><text x="1107" y="111.75" font-size="7.8" fill="#52514e">+15,35…+15,95</text><line x1="1096" y1="183.75" x2="1104" y2="183.75" stroke="#52514e" stroke-width="1"></line><text x="1107" y="186.75" font-size="7.8" fill="#52514e">+12,4…+12,9</text><line x1="1096" y1="243.75" x2="1104" y2="243.75" stroke="#52514e" stroke-width="1"></line><text x="1107" y="246.75" font-size="7.8" fill="#52514e">+10,0/+10,5</text><line x1="1096" y1="350" x2="1104" y2="350" stroke="#52514e" stroke-width="1"></line><text x="1107" y="353" font-size="7.8" fill="#52514e">+6,000</text><line x1="1096" y1="375" x2="1104" y2="375" stroke="#52514e" stroke-width="1"></line><text x="1107" y="378" font-size="7.8" fill="#52514e">+5,000</text><line x1="1096" y1="500" x2="1104" y2="500" stroke="#52514e" stroke-width="1"></line><text x="1107" y="503" font-size="7.8" fill="#52514e">0,000</text><line x1="1096" y1="548.75" x2="1104" y2="548.75" stroke="#52514e" stroke-width="1"></line><text x="1107" y="551.75" font-size="7.8" fill="#52514e">−1,65…−2,25</text><text x="470" y="604" font-size="7.8" fill="#898781">— — — пунктир: предложения/допущения БИ (уточняются обследованием ГМУ и опросными листами) · сплошное: существующее здание и расчётные габариты БИ</text></svg>