<?xml version="1.0" encoding="UTF-8"?>
<svg id="pid1-svg" class="gsvg" xmlns="http://www.w3.org/2000/svg" viewBox="0 0 1190 640" style="width:1190px;max-width:none;display:block;font-family:system-ui,sans-serif">
    <defs><marker id="mk-pid1" markerWidth="9" markerHeight="8" refX="8" refY="4" orient="auto"><path d="M0 0 L9 4 L0 8 Z" fill="context-stroke"></path></marker></defs>
    <rect x="0" y="0" width="1190" height="640" fill="#fcfcfb"></rect>
    <rect x="6" y="6" width="1178" height="628" fill="none" stroke="rgba(11,11,11,.10)"></rect>
    <text x="20" y="629" font-size="10" fill="#898781">ЭСКИЗ — не для строительства · P&amp;ID узла «печь КС + котёл-утилизатор», Лот №1 · источники: ИД табл. 22–23, разд. 2.3–2.5, ТЗ п.3.5; уставки с пометкой (БИ) — решения БИ · КВАНТ, черновик БИ</text>
    <text x="1174" y="28" font-size="12" font-weight="800" fill="#52514e" text-anchor="end">P&amp;ID (ЭСКИЗ) · ЛОТ №1 — УЗЕЛ ПЕЧЬ КС + КОТЁЛ-УТИЛИЗАТОР</text>
    <rect x="20" y="66" width="150" height="50" rx="7" fill="none" stroke="#2a78d6" stroke-width="1.6"></rect><text x="95" y="83" font-size="11" font-weight="700" fill="#0b0b0b" text-anchor="middle">РАСХОДНЫЕ БУНКЕРЫ</text><text x="95" y="96" font-size="9.3" fill="#52514e" text-anchor="middle">2 × 60 м³ (поз. 9)</text><text x="95" y="108" font-size="9.3" fill="#52514e" text-anchor="middle">шихта до 15,448 т/ч</text><rect x="20" y="156" width="150" height="56" rx="7" fill="none" stroke="#2a78d6" stroke-width="1.6"></rect><text x="95" y="173" font-size="11" font-weight="700" fill="#0b0b0b" text-anchor="middle">ДОЗАТОР ШИХТЫ</text><text x="95" y="186" font-size="9.3" fill="#52514e" text-anchor="middle">весовой, WIC-214</text><text x="95" y="198" font-size="9.3" fill="#52514e" text-anchor="middle">уставка: каскад TIC-301 + МЛ</text><rect x="20" y="252" width="150" height="40" rx="7" fill="none" stroke="#2a78d6" stroke-width="1.6"></rect><text x="95" y="269" font-size="11" font-weight="700" fill="#0b0b0b" text-anchor="middle">ЗАБРАСЫВАТЕЛЬ</text><text x="95" y="282" font-size="9.3" fill="#52514e" text-anchor="middle">шнековый (поз. 10)</text><path d="M95 116 L95 152" fill="none" stroke="#2a78d6" stroke-width="1.8" marker-end="url(#mk-pid1)"></path><path d="M95 212 L95 248" fill="none" stroke="#2a78d6" stroke-width="1.8" marker-end="url(#mk-pid1)"></path><path d="M170 272 L246 272" fill="none" stroke="#2a78d6" stroke-width="1.8" marker-end="url(#mk-pid1)"></path><text x="208" y="265" font-size="9.3" fill="#2a78d6" text-anchor="middle">шихта</text><circle cx="130" cy="230" r="15" fill="#fcfcfb" stroke="#52514e" stroke-width="1.3"></circle><text x="130" y="228.5" font-size="8" font-weight="700" fill="#0b0b0b" text-anchor="middle">WIC</text><text x="130" y="239" font-size="8" font-weight="700" fill="#0b0b0b" text-anchor="middle">214</text><path d="M130 215 L130 213" fill="none" stroke="#898781" stroke-width=".9" stroke-dasharray="3 3"></path><rect x="250" y="110" width="195" height="190" rx="7" fill="none" stroke="#e07f2e" stroke-width="1.8"></rect><text x="347" y="128" font-size="11.5" font-weight="700" fill="#0b0b0b" text-anchor="middle">ПЕЧЬ КС (поз. 11)</text><text x="347" y="144" font-size="9" fill="#52514e" text-anchor="middle">автогенно: 36,74 / 48,71 ГДж/ч</text><rect x="260" y="196" width="175" height="52" fill="#e07f2e" opacity=".13"></rect><text x="347" y="214" font-size="10.5" font-weight="700" fill="#0b0b0b" text-anchor="middle">КИПЯЩИЙ СЛОЙ · 930 °C</text><text x="347" y="228" font-size="8.5" fill="#52514e" text-anchor="middle">медиана не менее 5 термопар ТХА</text><text x="347" y="241" font-size="8.2" fill="#52514e" text-anchor="middle">предупр. 950 · авар. 970 °C</text><text x="347" y="264" font-size="8.2" fill="#52514e" text-anchor="middle">высота слоя — по PDIC-307</text><rect x="260" y="272" width="175" height="20" fill="none" stroke="#898781" stroke-width="1" stroke-dasharray="4 3"></rect><text x="347" y="285" font-size="8.5" fill="#52514e" text-anchor="middle">газовая коробка</text><circle cx="212" cy="222" r="15" fill="#fcfcfb" stroke="#52514e" stroke-width="1.3"></circle><text x="212" y="220.5" font-size="8" font-weight="700" fill="#0b0b0b" text-anchor="middle">TIC</text><text x="212" y="231" font-size="8" font-weight="700" fill="#0b0b0b" text-anchor="middle">301</text><path d="M227 218 L250 212" fill="none" stroke="#898781" stroke-width=".9" stroke-dasharray="3 3"></path><path d="M198 227 L142 233" fill="none" stroke="#898781" stroke-width=".9" stroke-dasharray="3 3"></path><path d="M250 122 L130 122 L130 152" fill="none" stroke="#d03b3b" stroke-width="1.3" stroke-dasharray="6 3" marker-end="url(#mk-pid1)"></path><text x="190" y="136" font-size="8" font-weight="700" fill="#d03b3b" text-anchor="middle">ПАЗ: стоп загрузки</text><circle cx="347" cy="72" r="15" fill="#fcfcfb" stroke="#52514e" stroke-width="1.3"></circle><text x="347" y="70.5" font-size="8" font-weight="700" fill="#0b0b0b" text-anchor="middle">PIC</text><text x="347" y="81" font-size="8" font-weight="700" fill="#0b0b0b" text-anchor="middle">306</text><path d="M347 87 L347 110" fill="none" stroke="#898781" stroke-width=".9" stroke-dasharray="3 3"></path><text x="368" y="64" font-size="8.3" fill="#898781">под сводом: +50…100 Па (знак уточняется)</text><path d="M356 84 L370 100 L980 100 L980 110" fill="none" stroke="#898781" stroke-width=".9" stroke-dasharray="3 3"></path><text x="520" y="94" font-size="8.3" fill="#898781" text-anchor="middle">каскад: уставка тяги дымососа (ЧРП ДН-15БНЖ) · ~1 с</text><path d="M445 140 L596 140" fill="none" stroke="#e07f2e" stroke-width="1.8" marker-end="url(#mk-pid1)"></path><text x="505" y="131" font-size="9.3" fill="#e07f2e" text-anchor="middle">газ 882,8 / 887,4 °C</text><text x="505" y="152" font-size="8" fill="#898781" text-anchor="middle">подсосы 4,9 %</text><circle cx="540" cy="180" r="15" fill="#fcfcfb" stroke="#52514e" stroke-width="1.3"></circle><text x="540" y="178.5" font-size="8" font-weight="700" fill="#0b0b0b" text-anchor="middle">QIRC</text><text x="540" y="189" font-size="8" font-weight="700" fill="#0b0b0b" text-anchor="middle">308</text><path d="M540 165 L540 140" fill="none" stroke="#898781" stroke-width=".9" stroke-dasharray="3 3"></path><circle cx="487" cy="232" r="15" fill="#fcfcfb" stroke="#52514e" stroke-width="1.3"></circle><text x="487" y="230.5" font-size="8" font-weight="700" fill="#0b0b0b" text-anchor="middle">PDIC</text><text x="487" y="241" font-size="8" font-weight="700" fill="#0b0b0b" text-anchor="middle">307</text><path d="M472 227 L445 214" fill="none" stroke="#898781" stroke-width=".9" stroke-dasharray="3 3"></path><path d="M475 244 L445 280" fill="none" stroke="#898781" stroke-width=".9" stroke-dasharray="3 3"></path><path d="M487 247 L487 352 L421 352" fill="none" stroke="#898781" stroke-width=".9" stroke-dasharray="3 3"></path><rect x="600" y="120" width="215" height="185" rx="7" fill="none" stroke="#e07f2e" stroke-width="1.8"></rect><ellipse cx="700" cy="120" rx="48" ry="13" fill="#fcfcfb" stroke="#52514e" stroke-width="1.3"></ellipse><text x="700" y="123" font-size="8" fill="#0b0b0b" text-anchor="middle">барабан</text><text x="707" y="150" font-size="11.5" font-weight="700" fill="#0b0b0b" text-anchor="middle">КОТЁЛ-УТИЛИЗАТОР (поз. 12)</text><text x="707" y="166" font-size="9" fill="#52514e" text-anchor="middle">газ 882,8 → 400 °C · 11,30 / 17,845 ГДж/ч</text><text x="707" y="180" font-size="9" fill="#52514e" text-anchor="middle">пар 1,9 МПа / 375 °C · 4,102 / 6,476 т/ч</text><text x="707" y="194" font-size="9" fill="#52514e" text-anchor="middle">номинал: газ до 30 000 нм³/ч · до 7 т/ч</text><text x="707" y="208" font-size="9" fill="#52514e" text-anchor="middle">ПК 2 шт (ТР ТС 032/2013) · выбор — по вспом.</text><path d="M700 107 L700 70" fill="none" stroke="#e07f2e" stroke-width="1.8"></path><path d="M700 70 L996 70" fill="none" stroke="#e07f2e" stroke-width="1.8" marker-end="url(#mk-pid1)"></path><text x="790" y="84" font-size="8.5" fill="#e07f2e" text-anchor="middle">пар 1,9 МПа / 375 °C · 4,102 / 6,476 т/ч</text><circle cx="870" cy="45" r="15" fill="#fcfcfb" stroke="#52514e" stroke-width="1.3"></circle><text x="870" y="43.5" font-size="8" font-weight="700" fill="#0b0b0b" text-anchor="middle">PIC</text><text x="870" y="54" font-size="8" font-weight="700" fill="#0b0b0b" text-anchor="middle">402</text><path d="M870 60 L870 70" fill="none" stroke="#898781" stroke-width=".9" stroke-dasharray="3 3"></path><rect x="1000" y="44" width="178" height="58" rx="7" fill="none" stroke="#0ca30c" stroke-width="1.6"></rect><text x="1089" y="61" font-size="11" font-weight="700" fill="#0b0b0b" text-anchor="middle">В СЕТЬ ЧЕРЕЗ РОУ</text><text x="1089" y="74" font-size="9.3" fill="#52514e" text-anchor="middle">до РОУ: 1,9 МПа / 375 °C</text><text x="1089" y="86" font-size="9.3" fill="#52514e" text-anchor="middle">после: 0,6 МПа / 159 °C</text><text x="1089" y="98" font-size="9.3" fill="#52514e" text-anchor="middle">впрыск ХОВ до 3,0 т/ч</text><path d="M815 140 L996 140" fill="none" stroke="#e07f2e" stroke-width="1.8" marker-end="url(#mk-pid1)"></path><text x="905" y="132" font-size="9.3" fill="#e07f2e" text-anchor="middle">газ 400 °C</text><rect x="1000" y="112" width="178" height="56" rx="7" fill="none" stroke="#0ca30c" stroke-width="1.6"></rect><text x="1089" y="129" font-size="11" font-weight="700" fill="#0b0b0b" text-anchor="middle">НА ГАЗООЧИСТКУ</text><text x="1089" y="142" font-size="9.3" fill="#52514e" text-anchor="middle">циклон СЦН-50 → ЭФ → дымососы</text><text x="1089" y="154" font-size="9.3" fill="#52514e" text-anchor="middle">в СКЦ: 387 °C · SO₂ 15,59 %</text><circle cx="872" cy="186" r="15" fill="#fcfcfb" stroke="#52514e" stroke-width="1.3"></circle><text x="872" y="184.5" font-size="8" font-weight="700" fill="#0b0b0b" text-anchor="middle">TIA</text><text x="872" y="195" font-size="8" font-weight="700" fill="#0b0b0b" text-anchor="middle">406</text><path d="M872 171 L872 140" fill="none" stroke="#898781" stroke-width=".9" stroke-dasharray="3 3"></path><circle cx="930" cy="186" r="15" fill="#fcfcfb" stroke="#52514e" stroke-width="1.3"></circle><text x="930" y="184.5" font-size="8" font-weight="700" fill="#0b0b0b" text-anchor="middle">PDI</text><text x="930" y="195" font-size="8" font-weight="700" fill="#0b0b0b" text-anchor="middle">407</text><path d="M930 171 L930 140" fill="none" stroke="#898781" stroke-width=".9" stroke-dasharray="3 3"></path><rect x="1000" y="234" width="178" height="70" rx="7" fill="none" stroke="#0ca30c" stroke-width="1.6"></rect><text x="1089" y="251" font-size="11" font-weight="700" fill="#0b0b0b" text-anchor="middle">ПИТАТЕЛЬНАЯ ВОДА (ХОВ)</text><text x="1089" y="264" font-size="9.3" fill="#52514e" text-anchor="middle">105 °C · нормы РД 24.032.01-91</text><text x="1089" y="276" font-size="9.3" fill="#52514e" text-anchor="middle">жёсткость не более 15 мкг-экв/кг</text><text x="1089" y="288" font-size="9.3" fill="#52514e" text-anchor="middle">O₂ не более 30 мкг/кг</text><text x="1089" y="300" font-size="9.3" fill="#52514e" text-anchor="middle">pH не менее 8,5</text><path d="M1000 270 L819 270" fill="none" stroke="#2a78d6" stroke-width="1.8" marker-end="url(#mk-pid1)"></path><path d="M898 264 L898 276 L912 264 L912 276 Z" fill="none" stroke="#2a78d6" stroke-width="1.2"></path><text x="900" y="260" font-size="8.5" fill="#2a78d6" text-anchor="middle">питательная вода 105 °C</text><circle cx="905" cy="322" r="15" fill="#fcfcfb" stroke="#52514e" stroke-width="1.3"></circle><text x="905" y="320.5" font-size="8" font-weight="700" fill="#0b0b0b" text-anchor="middle">LICA</text><text x="905" y="331" font-size="8" font-weight="700" fill="#0b0b0b" text-anchor="middle">401</text><path d="M905 307 L905 277" fill="none" stroke="#898781" stroke-width=".9" stroke-dasharray="3 3"></path><path d="M890 318 L825 318 L825 160 L817 160" fill="none" stroke="#898781" stroke-width=".9" stroke-dasharray="3 3"></path><text x="836" y="240" font-size="8" fill="#898781" text-anchor="middle" transform="rotate(-90 836 240)">уровень барабана · авар. ±150 мм (БИ)</text><text x="975" y="352" font-size="8" fill="#898781" text-anchor="middle">трёхимпульсный регулятор</text><text x="975" y="364" font-size="8" fill="#898781" text-anchor="middle">L + F пара + F пит. воды</text><path d="M905 337 L905 395 L560 395 L560 266 L449 266" fill="none" stroke="#d03b3b" stroke-width="1.3" stroke-dasharray="6 3" marker-end="url(#mk-pid1)"></path><text x="750" y="388" font-size="8" font-weight="700" fill="#d03b3b" text-anchor="middle">ПАЗ КУ: упуск воды → горячий резерв печи</text><path d="M790 305 L790 370" fill="none" stroke="#2a78d6" stroke-width="1.4" marker-end="url(#mk-pid1)"></path><path d="M783 332 L783 344 L797 332 L797 344 Z" fill="none" stroke="#2a78d6" stroke-width="1.2"></path><circle cx="752" cy="338" r="15" fill="#fcfcfb" stroke="#52514e" stroke-width="1.3"></circle><text x="752" y="336.5" font-size="8" font-weight="700" fill="#0b0b0b" text-anchor="middle">QIC</text><text x="752" y="347" font-size="8" font-weight="700" fill="#0b0b0b" text-anchor="middle">405</text><path d="M767 338 L783 338" fill="none" stroke="#898781" stroke-width=".9" stroke-dasharray="3 3"></path><path d="M752 323 L752 307" fill="none" stroke="#898781" stroke-width=".9" stroke-dasharray="3 3"></path><text x="798" y="356" font-size="8.5" fill="#2a78d6">0,205–0,324 м³/ч</text><text x="798" y="367" font-size="8" fill="#898781">непрерывная продувка</text><path d="M650 305 L650 441" fill="none" stroke="#a34e9e" stroke-width="1.6" marker-end="url(#mk-pid1)"></path><text x="658" y="318" font-size="8.5" fill="#a34e9e">пыль КУ 9 081 т/год</text><text x="658" y="330" font-size="8" fill="#a34e9e">S 2,15 %</text><path d="M410 300 L410 343" fill="none" stroke="#e07f2e" stroke-width="1.8"></path><circle cx="410" cy="352" r="9" fill="none" stroke="#e07f2e" stroke-width="1.4"></circle><path d="M404 358 L416 346" stroke="#e07f2e" stroke-width="1.4"></path><path d="M410 361 L410 445 L696 445" fill="none" stroke="#e07f2e" stroke-width="1.8" marker-end="url(#mk-pid1)"></path><text x="383" y="318" font-size="8.5" fill="#e07f2e" text-anchor="middle">огарок</text><circle cx="650" cy="445" r="2.6" fill="#a34e9e"></circle><rect x="700" y="415" width="240" height="64" rx="7" fill="none" stroke="#0ca30c" stroke-width="1.6"></rect><text x="820" y="432" font-size="11" font-weight="700" fill="#0b0b0b" text-anchor="middle">НА ХОЛОДИЛЬНИК D2424-6</text><text x="820" y="445" font-size="9.3" fill="#52514e" text-anchor="middle">огарок + грубая пыль: 14,346 т/ч</text><text x="820" y="457" font-size="9.3" fill="#52514e" text-anchor="middle">837,6 → 70 °C · к обор. воде 7,391 ГДж/ч</text><rect x="20" y="330" width="150" height="46" rx="7" fill="none" stroke="#898781" stroke-width="1.6"></rect><text x="95" y="347" font-size="11" font-weight="700" fill="#0b0b0b" text-anchor="middle">ВОЗДУХОДУВКА</text><text x="95" y="360" font-size="9.3" fill="#52514e" text-anchor="middle">напр. аппарат / ЧРП</text><path d="M170 353 L310 353" fill="none" stroke="#898781" stroke-width="1.8"></path><path d="M310 353 L310 304" fill="none" stroke="#898781" stroke-width="1.8" marker-end="url(#mk-pid1)"></path><text x="238" y="346" font-size="9" fill="#898781" text-anchor="middle">дутьё 11 342 / 19 146 нм³/ч</text><circle cx="210" cy="388" r="15" fill="#fcfcfb" stroke="#52514e" stroke-width="1.3"></circle><text x="210" y="386.5" font-size="8" font-weight="700" fill="#0b0b0b" text-anchor="middle">FIC</text><text x="210" y="397" font-size="8" font-weight="700" fill="#0b0b0b" text-anchor="middle">302</text><path d="M210 373 L210 353" fill="none" stroke="#898781" stroke-width=".9" stroke-dasharray="3 3"></path><path d="M195 385 L172 372" fill="none" stroke="#898781" stroke-width=".9" stroke-dasharray="3 3"></path><circle cx="268" cy="318" r="15" fill="#fcfcfb" stroke="#52514e" stroke-width="1.3"></circle><text x="268" y="316.5" font-size="8" font-weight="700" fill="#0b0b0b" text-anchor="middle">QI</text><text x="268" y="327" font-size="8" font-weight="700" fill="#0b0b0b" text-anchor="middle">305</text><path d="M283 316 L310 320" fill="none" stroke="#898781" stroke-width=".9" stroke-dasharray="3 3"></path><rect x="20" y="400" width="150" height="46" rx="7" fill="none" stroke="#0ca30c" stroke-width="1.6"></rect><text x="95" y="417" font-size="11" font-weight="700" fill="#0b0b0b" text-anchor="middle">КИСЛОРОД ИЗ СЕТИ</text><text x="95" y="430" font-size="9.3" fill="#52514e" text-anchor="middle">регуляторный узел</text><text x="95" y="442" font-size="9.3" fill="#52514e" text-anchor="middle">отсечной клапан — ПАЗ</text><path d="M170 422 L290 422 L290 357" fill="none" stroke="#a34e9e" stroke-width="1.6" marker-end="url(#mk-pid1)"></path><path d="M208 416 L208 428 L222 416 L222 428 Z" fill="none" stroke="#a34e9e" stroke-width="1.2"></path><path d="M248 416 L248 428 L262 416 L262 428 Z" fill="none" stroke="#a34e9e" stroke-width="1.2"></path><circle cx="255" cy="455" r="15" fill="#fcfcfb" stroke="#52514e" stroke-width="1.3"></circle><text x="255" y="453.5" font-size="8" font-weight="700" fill="#0b0b0b" text-anchor="middle">FIC</text><text x="255" y="464" font-size="8" font-weight="700" fill="#0b0b0b" text-anchor="middle">303</text><path d="M255 440 L255 429" fill="none" stroke="#898781" stroke-width=".9" stroke-dasharray="3 3"></path><circle cx="355" cy="405" r="15" fill="#fcfcfb" stroke="#52514e" stroke-width="1.3"></circle><text x="355" y="403.5" font-size="8" font-weight="700" fill="#0b0b0b" text-anchor="middle">FFIC</text><text x="355" y="414" font-size="8" font-weight="700" fill="#0b0b0b" text-anchor="middle">304</text><path d="M340 400 L225 390" fill="none" stroke="#898781" stroke-width=".9" stroke-dasharray="3 3"></path><path d="M347 418 L267 449" fill="none" stroke="#898781" stroke-width=".9" stroke-dasharray="3 3"></path><path d="M215 452 L215 430" fill="none" stroke="#d03b3b" stroke-width="1.3" stroke-dasharray="6 3" marker-end="url(#mk-pid1)"></path><text x="208" y="464" font-size="8" font-weight="700" fill="#d03b3b" text-anchor="end">ПАЗ: отсечка дутья →</text><text x="208" y="476" font-size="8" font-weight="700" fill="#d03b3b" text-anchor="end">N₂ в линию O₂</text><rect x="330" y="470" width="322" height="42" rx="7" fill="none" stroke="#e07f2e" stroke-width="1.6" stroke-dasharray="6 4"></rect><text x="491" y="487" font-size="11" font-weight="700" fill="#0b0b0b" text-anchor="middle">ТОПКА ГМ-4,5 — ВСПОМ. ВАРИАНТ</text><text x="491" y="500" font-size="9.3" fill="#52514e" text-anchor="middle">мазут 300 кг/ч → дутьё 455 °C · TIC-309 · ПАЗ горелки по ФНП</text><path d="M330 484 L300 484 L300 361" fill="none" stroke="#e07f2e" stroke-width="1.2" stroke-dasharray="6 4" marker-end="url(#mk-pid1)"></path><text x="20" y="532" font-size="10" font-weight="700" fill="#52514e">ЛЕГЕНДА</text><path d="M20 545 L48 545" stroke="#2a78d6" stroke-width="1.8" fill="none"></path><text x="54" y="548" font-size="8.7" fill="#52514e">шихта · питательная вода (процесс)</text><path d="M20 559 L48 559" stroke="#e07f2e" stroke-width="1.8" fill="none"></path><text x="54" y="562" font-size="8.7" fill="#52514e">обжиговый газ · пар · огарок (газ/тепло)</text><path d="M20 573 L48 573" stroke="#a34e9e" stroke-width="1.8" fill="none"></path><text x="54" y="576" font-size="8.7" fill="#52514e">пыль · кислород (вспом. среды)</text><path d="M20 587 L48 587" stroke="#898781" stroke-width="1.8" fill="none"></path><text x="54" y="590" font-size="8.7" fill="#52514e">воздух дутья</text><path d="M20 601 L48 601" stroke="#898781" stroke-width="0.9" stroke-dasharray="3 3" fill="none"></path><text x="54" y="604" font-size="8.7" fill="#52514e">сигналы КИПиА (тонкий пунктир)</text><path d="M20 615 L48 615" stroke="#d03b3b" stroke-width="1.3" stroke-dasharray="6 3" fill="none"></path><text x="54" y="618" font-size="8.7" fill="#52514e">блокировки ПАЗ (красный пунктир)</text><rect x="268" y="541" width="28" height="9" rx="2" fill="none" stroke="#0ca30c" stroke-width="1.4"></rect><text x="302" y="549" font-size="8.7" fill="#52514e">границы узла — входы/выходы</text><rect x="268" y="555" width="28" height="9" rx="2" fill="none" stroke="#e07f2e" stroke-width="1.2" stroke-dasharray="5 3"></rect><text x="302" y="563" font-size="8.7" fill="#52514e">пунктирный бокс — вспом. вариант</text><circle cx="282" cy="573" r="6" fill="none" stroke="#52514e" stroke-width="1"></circle><text x="302" y="577" font-size="8.7" fill="#52514e">кружок — контур КИПиА (тег)</text><path d="M276 584 L276 596 L290 584 L290 596 Z" fill="none" stroke="#52514e" stroke-width="1.1"></path><text x="302" y="593" font-size="8.7" fill="#52514e">клапан регулирующий / отсечной</text><circle cx="283" cy="606" r="6" fill="none" stroke="#52514e" stroke-width="1.1"></circle><path d="M279 610 L287 602" stroke="#52514e" stroke-width="1.1"></path><text x="302" y="609" font-size="8.7" fill="#52514e">дроссельный затвор огарка</text><text x="470" y="532" font-size="10" font-weight="700" fill="#52514e">ОСНОВНЫЕ КОНТУРЫ И УСТАВКИ (по данным БИ)</text><text x="470" y="546" font-size="8.3" fill="#52514e">TIC-301 · T слоя 930 °C (медиана ≥5 термопар) → каскад на дозатор WIC-214 (+ МЛ); 950 предупр. / 970 авар. (стоп загрузки, продувка) / 900 / 700 °C</text><text x="470" y="556.6" font-size="8.3" fill="#52514e">FIC-302/303 · воздух и O₂; FFIC-304 · соотношение: O₂ в дутье 52,0 % (осн.) / 30,8 % (всп.); QI-305 — коррекция; итого 11 342 / 19 146 нм³/ч</text><text x="470" y="567.2" font-size="8.3" fill="#52514e">PIC-306 · под сводом +50…100 Па (знак уточняется, ТЗ: разрежение) → каскад на тягу дымососа (ЧРП ДН-15БНЖ), период ~1 с</text><text x="470" y="577.8" font-size="8.3" fill="#52514e">PDIC-307 · ΔP «коробка–слой» 52,3 / 53,3 кПа → дроссельный затвор огарка; сигнализация залегания слоя по пульсациям ΔP; QIRC-308 · SO₂ 17,83 / 10,87 %</text><text x="470" y="588.4" font-size="8.3" fill="#52514e">LICA-401 · уровень барабана, трёхимпульсный → питат. клапан; авар. ±150 мм (БИ); PIC-402 · пар 1,86 МПа → сброс в РОУ; ПК 2 шт (ТР ТС 032/2013)</text><text x="470" y="599" font-size="8.3" fill="#52514e">QIC-405 · продувка по электропроводности 0,205–0,324 м³/ч; TIA-406 · газ за КУ 400 °C → виброочистка по росту ΔT; PDI-407 · ΔP КУ — забивание</text><text x="470" y="609.6" font-size="8.3" fill="#52514e">ПАЗ печи (жёсткая логика ПЛК, независима от МЛ): стоп загрузки при T более 970 °C / дутьё менее 70 % уставки / стоп обоих дымососов / ΔP вне 30–70 кПа;</text><text x="470" y="620.2" font-size="8.3" fill="#52514e">при полной отсечке дутья — N₂ в линию O₂ и запрет затворов; упуск воды КУ → горячий резерв (стоп загрузки, продувка); авар. донная выгрузка — ручной пост</text></svg>