<?xml version="1.0" encoding="UTF-8"?>
<svg id="pfd3-svg" class="gsvg" xmlns="http://www.w3.org/2000/svg" viewBox="0 0 1190 730" style="width:1190px;max-width:none;display:block;font-family:system-ui,sans-serif">
    <defs><marker id="mkP3" markerWidth="9" markerHeight="8" refX="8" refY="4" orient="auto"><path d="M0 0 L9 4 L0 8 Z" fill="context-stroke"></path></marker></defs>
    <rect x="0" y="0" width="1190" height="730" fill="#fcfcfb"></rect>
    <rect x="6" y="6" width="1178" height="718" fill="none" stroke="rgba(11,11,11,.10)"></rect>
<text x="1174" y="30" font-size="12" fill="#52514e" font-weight="800" text-anchor="end">PFD · ЛОТ №3 — ОТДЕЛЕНИЕ ЭЛЕКТРОЭКСТРАКЦИИ</text><text x="1174" y="46" font-size="8.5" fill="#898781" text-anchor="end">синий — растворы и электролит · жёлтый — постоянный ток и ошиновка · зелёный — товарный продукт и границы лота · фиолетовый — аспирация · серый — вспомогательные потоки</text><text x="1174" y="58" font-size="8.5" fill="#898781" text-anchor="end">пунктирная обводка блока — оборудование вне поставки Лота №3 (БИ выдаёт задание на стыке) · мелким шрифтом под блоком — источник чисел</text><rect x="20" y="72" width="250" height="86" rx="7" fill="none" stroke="#0ca30c" stroke-width="1.6"></rect><text x="145" y="90" font-size="11.5" fill="#0b0b0b" font-weight="700" text-anchor="middle">БОГАТЫЙ ФИЛЬТРАТ — ВХОД</text><text x="145" y="104" font-size="9.5" fill="#52514e" text-anchor="middle">граница 5.2.1 — фланец от ёмкости</text><text x="145" y="116" font-size="9.5" fill="#52514e" text-anchor="middle">поз. 4.1.19 участка выщелачивания</text><text x="145" y="128" font-size="9.5" fill="#52514e" text-anchor="middle">124–125 м³/ч · 102,9 кг/м³ Cu</text><text x="145" y="140" font-size="9.5" fill="#52514e" text-anchor="middle">65–75 °С через т/о поз. 4.1.17 (вне БИ)</text><text x="145" y="149" font-size="8.5" fill="#898781" text-anchor="middle">ИД ч.2 табл. 3.1; ТЗ п. 5.2</text><rect x="294" y="72" width="270" height="86" rx="7" fill="none" stroke="#898781" stroke-width="1.6"></rect><text x="429" y="90" font-size="11.5" fill="#0b0b0b" font-weight="700" text-anchor="middle">УЗЛЫ РЕАГЕНТОВ И ПОДПИТКА</text><text x="429" y="104" font-size="9.5" fill="#52514e" text-anchor="middle">гуартек 0,25 кг/т — 2,02 кг/ч (QIC-05)</text><text x="429" y="116" font-size="9.5" fill="#52514e" text-anchor="middle">FC-1100 0,20 кг/т — 1,61 кг/ч (QIC-06)</text><text x="429" y="128" font-size="9.5" fill="#52514e" text-anchor="middle">H2SO4 92,5 % ≈ 0,33 т/ч (2719 т/год)</text><text x="429" y="140" font-size="9.5" fill="#52514e" text-anchor="middle">HCl 33 % до 0,55 кг/ч · вода по балансу</text><text x="429" y="149" font-size="8.5" fill="#898781" text-anchor="middle">ИД ч.2 табл. 3.1, 8.5; п. 1.3.13–1.3.14</text><rect x="588" y="72" width="270" height="86" rx="7" fill="none" stroke="#0ca30c" stroke-width="1.6"></rect><text x="723" y="90" font-size="11.5" fill="#0b0b0b" font-weight="700" text-anchor="middle">ОТСЕЧКА НА ВЫЩЕЛАЧИВАНИЕ</text><text x="723" y="104" font-size="9.5" fill="#52514e" text-anchor="middle">124,7 м³/ч = 1038 тыс. м³/год</text><text x="723" y="116" font-size="9.5" fill="#52514e" text-anchor="middle">35 Cu / 20 Ni / 2,6 Fe / 120 H2SO4 кг/м³</text><text x="723" y="128" font-size="9.5" fill="#52514e" text-anchor="middle">≈12,4 т/ч регенерированной H2SO4</text><text x="723" y="140" font-size="9.5" fill="#52514e" text-anchor="middle">в приёмный бак поз. 4.1.8</text><text x="723" y="149" font-size="8.5" fill="#898781" text-anchor="middle">ИД ч.2 табл. 3.1; ТЗ п. 5.1</text><rect x="882" y="72" width="288" height="86" rx="7" fill="none" stroke="#0ca30c" stroke-width="1.6"></rect><text x="1026" y="90" font-size="11.5" fill="#0b0b0b" font-weight="700" text-anchor="middle">ОТСЕЧКА НА ЛОТ №2 — КУПОРОС</text><text x="1026" y="104" font-size="9.5" fill="#52514e" text-anchor="middle">3,2–3,5 м³/ч = 27,3 тыс. м³/год</text><text x="1026" y="116" font-size="9.5" fill="#52514e" text-anchor="middle">на растворение кристаллов купороса</text><text x="1026" y="128" font-size="9.5" fill="#52514e" text-anchor="middle">отсечка держит примеси электролиза:</text><text x="1026" y="140" font-size="9.5" fill="#52514e" text-anchor="middle">Ni ≤ 20 г/л, Fe ≤ 3 г/л</text><text x="1026" y="149" font-size="8.5" fill="#898781" text-anchor="middle">ТЗ п. 5.1; ИД ч.2 табл. 3.1</text><rect x="20" y="188" width="250" height="84" rx="7" fill="none" stroke="#2a78d6" stroke-width="1.6"></rect><text x="145" y="206" font-size="11.5" fill="#0b0b0b" font-weight="700" text-anchor="middle">ЦИРКУЛЯЦИОННЫЙ БАК 4.2.1</text><text x="145" y="220" font-size="9.5" fill="#52514e" text-anchor="middle">2 × 300 м³ с перегородкой</text><text x="145" y="232" font-size="9.5" fill="#52514e" text-anchor="middle">расчёт 408,6 м³ = 0,25 ч × 1634,5 м³/ч</text><text x="145" y="244" font-size="9.5" fill="#52514e" text-anchor="middle">зона смешения / зона отбора · LIC-04</text><text x="145" y="256" font-size="9.5" fill="#52514e" text-anchor="middle">питание 40 Cu / 112 H2SO4 кг/м³, 50 °С</text><text x="145" y="263" font-size="8.5" fill="#898781" text-anchor="middle">ИД ч.2 табл. 4.2, 3.1</text><rect x="294" y="188" width="190" height="84" rx="7" fill="none" stroke="#898781" stroke-width="1.6" stroke-dasharray="6 3"></rect><text x="389" y="206" font-size="11.5" fill="#0b0b0b" font-weight="700" text-anchor="middle">ЦИРКУЛЯЦИОННЫЕ НАСОСЫ</text><text x="389" y="220" font-size="9.5" fill="#52514e" text-anchor="middle">≈820 м³/ч на серию</text><text x="389" y="232" font-size="9.5" fill="#52514e" text-anchor="middle">+ резерв, кислотостойкие</text><text x="389" y="244" font-size="9.5" fill="#52514e" text-anchor="middle">частотный привод по FIC-01</text><text x="389" y="256" font-size="9.5" fill="#52514e" text-anchor="middle">вне БИ — задание на стыке</text><text x="389" y="263" font-size="8.5" fill="#898781" text-anchor="middle">расчёт БИ; ИД ч.2 табл. 3.1</text><rect x="508" y="188" width="280" height="84" rx="7" fill="none" stroke="#2a78d6" stroke-width="1.6" stroke-dasharray="6 3"></rect><text x="648" y="206" font-size="11.5" fill="#0b0b0b" font-weight="700" text-anchor="middle">ХОЛОДИЛЬНИК ЭЛЕКТРОЛИТА 4.2.2</text><text x="648" y="220" font-size="9.5" fill="#52514e" text-anchor="middle">2 × 2500 кВт (расчёт 3772 кВт), запас 1,33</text><text x="648" y="232" font-size="9.5" fill="#52514e" text-anchor="middle">электролит 50,0 → 48,2 °С · TIC-03 ± 0,5</text><text x="648" y="244" font-size="9.5" fill="#52514e" text-anchor="middle">вода нейтр. СОВ 216 м³/ч, 22,5 → 37,5 °С</text><text x="648" y="256" font-size="9.5" fill="#52514e" text-anchor="middle">подогрев баков паром — резервный</text><text x="648" y="263" font-size="8.5" fill="#898781" text-anchor="middle">ИД ч.2 табл. 4.2, 3.1; расчёт БИ</text><rect x="812" y="188" width="358" height="84" rx="7" fill="none" stroke="#2a78d6" stroke-width="1.6"></rect><text x="991" y="206" font-size="11.5" fill="#0b0b0b" font-weight="700" text-anchor="middle">НАПОРНЫЙ КОЛЛЕКТОР И ПОДВОДЫ В ВАННЫ</text><text x="991" y="220" font-size="9.5" fill="#52514e" text-anchor="middle">FIC-01 800–825 м³/ч на серию (1600–1650 на две)</text><text x="991" y="232" font-size="9.5" fill="#52514e" text-anchor="middle">индивидуальный подвод ≈9,1 м³/ч на ванну · PI-02</text><text x="991" y="244" font-size="9.5" fill="#52514e" text-anchor="middle">электрический разрыв на подаче и приёме (ПУЭ 7.10)</text><text x="991" y="256" font-size="9.5" fill="#52514e" text-anchor="middle">трубопроводы — вне БИ (граница 5.2.3)</text><text x="991" y="263" font-size="8.5" fill="#898781" text-anchor="middle">ИД ч.2 табл. 3.1, п. 4.2.2; ТЗ п. 5.2</text><path d="M 145 158 L 145 188" fill="none" stroke="#2a78d6" stroke-width="1.7" marker-end="url(#mkP3)"></path><text x="152" y="174" font-size="9.3" fill="#2a78d6">124–125 м³/ч</text><path d="M 350 158 L 350 168 L 225 168 L 225 188" fill="none" stroke="#898781" stroke-width="1.7" marker-end="url(#mkP3)"></path><path d="M 245 188 L 245 178 L 723 178 L 723 158" fill="none" stroke="#2a78d6" stroke-width="1.7" marker-end="url(#mkP3)"></path><path d="M 723 178 L 1026 178 L 1026 158" fill="none" stroke="#2a78d6" stroke-width="1.7" marker-end="url(#mkP3)"></path><circle cx="723" cy="178" r="3" fill="#2a78d6"></circle><text x="255" y="174" font-size="9.3" fill="#2a78d6">бедный электролит на отсечки — из зоны бака перед перегородкой</text><path d="M 270 230 L 294 230" fill="none" stroke="#2a78d6" stroke-width="1.7" marker-end="url(#mkP3)"></path><path d="M 484 230 L 508 230" fill="none" stroke="#2a78d6" stroke-width="1.7" marker-end="url(#mkP3)"></path><path d="M 788 230 L 812 230" fill="none" stroke="#2a78d6" stroke-width="1.7" marker-end="url(#mkP3)"></path><line x1="120" y1="292" x2="900" y2="292" stroke="#0ca30c" stroke-width="1.2" stroke-dasharray="7 5"></line><text x="170" y="286" font-size="9.3" fill="#0ca30c">ГРАНИЦА ЛОТА №3 (ТЗ ред. 4.1): подача — фланец патрубка подачи электролита в КАЖДУЮ ванну; слив — фланец перелива ванны (п. 5.2.3)</text><path d="M 850 272 L 850 308" fill="none" stroke="#2a78d6" stroke-width="1.7" marker-end="url(#mkP3)"></path><text x="858" y="286" font-size="9.3" fill="#2a78d6">800–825 м³/ч на серию · 48,2 °С</text><rect x="200" y="308" width="700" height="164" rx="7" fill="none" stroke="#2a78d6" stroke-width="3"></rect><text x="550" y="328" font-size="11.5" fill="#0b0b0b" font-weight="700" text-anchor="middle">ЭЛЕКТРОЛИЗНЫЙ ЗАЛ — 180 ВАНН поз. 4.2.3 · 2 СЕРИИ × 90</text><text x="212" y="351" font-size="9.5" fill="#52514e" font-weight="700">СЕРИЯ 1 · 2 ряда × 45 ванн</text><rect x="400.0" y="336" width="6" height="10" rx="1.5" fill="none" stroke="#2a78d6" stroke-width="0.8"></rect><rect x="410.7" y="336" width="6" height="10" rx="1.5" fill="none" stroke="#2a78d6" stroke-width="0.8"></rect><rect x="421.4" y="336" width="6" height="10" rx="1.5" fill="none" stroke="#2a78d6" stroke-width="0.8"></rect><rect x="432.1" y="336" width="6" height="10" rx="1.5" fill="none" stroke="#2a78d6" stroke-width="0.8"></rect><rect x="442.8" y="336" width="6" height="10" rx="1.5" fill="none" stroke="#2a78d6" stroke-width="0.8"></rect><rect x="453.5" y="336" width="6" height="10" rx="1.5" fill="none" stroke="#2a78d6" stroke-width="0.8"></rect><rect x="464.2" y="336" width="6" height="10" rx="1.5" fill="none" stroke="#2a78d6" stroke-width="0.8"></rect><rect x="474.9" y="336" width="6" height="10" rx="1.5" fill="none" stroke="#2a78d6" stroke-width="0.8"></rect><rect x="485.6" y="336" width="6" height="10" rx="1.5" fill="none" stroke="#2a78d6" stroke-width="0.8"></rect><rect x="496.3" y="336" width="6" height="10" rx="1.5" fill="none" stroke="#2a78d6" stroke-width="0.8"></rect><rect x="507.0" y="336" width="6" height="10" rx="1.5" fill="none" stroke="#2a78d6" stroke-width="0.8"></rect><rect x="517.7" y="336" width="6" height="10" rx="1.5" fill="none" stroke="#2a78d6" stroke-width="0.8"></rect><rect x="528.4" y="336" width="6" height="10" rx="1.5" fill="none" stroke="#2a78d6" stroke-width="0.8"></rect><rect x="539.1" y="336" width="6" height="10" rx="1.5" fill="none" stroke="#2a78d6" stroke-width="0.8"></rect><rect x="549.8" y="336" width="6" height="10" rx="1.5" fill="none" stroke="#2a78d6" stroke-width="0.8"></rect><rect x="560.5" y="336" width="6" height="10" rx="1.5" fill="none" stroke="#2a78d6" stroke-width="0.8"></rect><rect x="571.2" y="336" width="6" height="10" rx="1.5" fill="none" stroke="#2a78d6" stroke-width="0.8"></rect><rect x="581.9" y="336" width="6" height="10" rx="1.5" fill="none" stroke="#2a78d6" stroke-width="0.8"></rect><rect x="592.6" y="336" width="6" height="10" rx="1.5" fill="none" stroke="#2a78d6" stroke-width="0.8"></rect><rect x="603.3" y="336" width="6" height="10" rx="1.5" fill="none" stroke="#2a78d6" stroke-width="0.8"></rect><rect x="614.0" y="336" width="6" height="10" rx="1.5" fill="none" stroke="#2a78d6" stroke-width="0.8"></rect><rect x="624.7" y="336" width="6" height="10" rx="1.5" fill="none" stroke="#2a78d6" stroke-width="0.8"></rect><rect x="635.4" y="336" width="6" height="10" rx="1.5" fill="none" stroke="#2a78d6" stroke-width="0.8"></rect><rect x="646.1" y="336" width="6" height="10" rx="1.5" fill="none" stroke="#2a78d6" stroke-width="0.8"></rect><rect x="656.8" y="336" width="6" height="10" rx="1.5" fill="none" stroke="#2a78d6" stroke-width="0.8"></rect><rect x="667.5" y="336" width="6" height="10" rx="1.5" fill="none" stroke="#2a78d6" stroke-width="0.8"></rect><rect x="678.2" y="336" width="6" height="10" rx="1.5" fill="none" stroke="#2a78d6" stroke-width="0.8"></rect><rect x="688.9" y="336" width="6" height="10" rx="1.5" fill="none" stroke="#2a78d6" stroke-width="0.8"></rect><rect x="699.6" y="336" width="6" height="10" rx="1.5" fill="none" stroke="#2a78d6" stroke-width="0.8"></rect><rect x="710.3" y="336" width="6" height="10" rx="1.5" fill="none" stroke="#2a78d6" stroke-width="0.8"></rect><rect x="721.0" y="336" width="6" height="10" rx="1.5" fill="none" stroke="#2a78d6" stroke-width="0.8"></rect><rect x="731.7" y="336" width="6" height="10" rx="1.5" fill="none" stroke="#2a78d6" stroke-width="0.8"></rect><rect x="742.4" y="336" width="6" height="10" rx="1.5" fill="none" stroke="#2a78d6" stroke-width="0.8"></rect><rect x="753.1" y="336" width="6" height="10" rx="1.5" fill="none" stroke="#2a78d6" stroke-width="0.8"></rect><rect x="763.8" y="336" width="6" height="10" rx="1.5" fill="none" stroke="#2a78d6" stroke-width="0.8"></rect><rect x="774.5" y="336" width="6" height="10" rx="1.5" fill="none" stroke="#2a78d6" stroke-width="0.8"></rect><rect x="785.2" y="336" width="6" height="10" rx="1.5" fill="none" stroke="#2a78d6" stroke-width="0.8"></rect><rect x="795.9" y="336" width="6" height="10" rx="1.5" fill="none" stroke="#2a78d6" stroke-width="0.8"></rect><rect x="806.6" y="336" width="6" height="10" rx="1.5" fill="none" stroke="#2a78d6" stroke-width="0.8"></rect><rect x="817.3" y="336" width="6" height="10" rx="1.5" fill="none" stroke="#2a78d6" stroke-width="0.8"></rect><rect x="828.0" y="336" width="6" height="10" rx="1.5" fill="none" stroke="#2a78d6" stroke-width="0.8"></rect><rect x="838.7" y="336" width="6" height="10" rx="1.5" fill="none" stroke="#2a78d6" stroke-width="0.8"></rect><rect x="849.4" y="336" width="6" height="10" rx="1.5" fill="none" stroke="#2a78d6" stroke-width="0.8"></rect><rect x="860.1" y="336" width="6" height="10" rx="1.5" fill="none" stroke="#2a78d6" stroke-width="0.8"></rect><rect x="870.8" y="336" width="6" height="10" rx="1.5" fill="none" stroke="#2a78d6" stroke-width="0.8"></rect><rect x="400.0" y="350" width="6" height="10" rx="1.5" fill="none" stroke="#2a78d6" stroke-width="0.8"></rect><rect x="410.7" y="350" width="6" height="10" rx="1.5" fill="none" stroke="#2a78d6" stroke-width="0.8"></rect><rect x="421.4" y="350" width="6" height="10" rx="1.5" fill="none" stroke="#2a78d6" stroke-width="0.8"></rect><rect x="432.1" y="350" width="6" height="10" rx="1.5" fill="none" stroke="#2a78d6" stroke-width="0.8"></rect><rect x="442.8" y="350" width="6" height="10" rx="1.5" fill="none" stroke="#2a78d6" stroke-width="0.8"></rect><rect x="453.5" y="350" width="6" height="10" rx="1.5" fill="none" stroke="#2a78d6" stroke-width="0.8"></rect><rect x="464.2" y="350" width="6" height="10" rx="1.5" fill="none" stroke="#2a78d6" stroke-width="0.8"></rect><rect x="474.9" y="350" width="6" height="10" rx="1.5" fill="none" stroke="#2a78d6" stroke-width="0.8"></rect><rect x="485.6" y="350" width="6" height="10" rx="1.5" fill="none" stroke="#2a78d6" stroke-width="0.8"></rect><rect x="496.3" y="350" width="6" height="10" rx="1.5" fill="none" stroke="#2a78d6" stroke-width="0.8"></rect><rect x="507.0" y="350" width="6" height="10" rx="1.5" fill="none" stroke="#2a78d6" stroke-width="0.8"></rect><rect x="517.7" y="350" width="6" height="10" rx="1.5" fill="none" stroke="#2a78d6" stroke-width="0.8"></rect><rect x="528.4" y="350" width="6" height="10" rx="1.5" fill="none" stroke="#2a78d6" stroke-width="0.8"></rect><rect x="539.1" y="350" width="6" height="10" rx="1.5" fill="none" stroke="#2a78d6" stroke-width="0.8"></rect><rect x="549.8" y="350" width="6" height="10" rx="1.5" fill="none" stroke="#2a78d6" stroke-width="0.8"></rect><rect x="560.5" y="350" width="6" height="10" rx="1.5" fill="none" stroke="#2a78d6" stroke-width="0.8"></rect><rect x="571.2" y="350" width="6" height="10" rx="1.5" fill="none" stroke="#2a78d6" stroke-width="0.8"></rect><rect x="581.9" y="350" width="6" height="10" rx="1.5" fill="none" stroke="#2a78d6" stroke-width="0.8"></rect><rect x="592.6" y="350" width="6" height="10" rx="1.5" fill="none" stroke="#2a78d6" stroke-width="0.8"></rect><rect x="603.3" y="350" width="6" height="10" rx="1.5" fill="none" stroke="#2a78d6" stroke-width="0.8"></rect><rect x="614.0" y="350" width="6" height="10" rx="1.5" fill="none" stroke="#2a78d6" stroke-width="0.8"></rect><rect x="624.7" y="350" width="6" height="10" rx="1.5" fill="none" stroke="#2a78d6" stroke-width="0.8"></rect><rect x="635.4" y="350" width="6" height="10" rx="1.5" fill="none" stroke="#2a78d6" stroke-width="0.8"></rect><rect x="646.1" y="350" width="6" height="10" rx="1.5" fill="none" stroke="#2a78d6" stroke-width="0.8"></rect><rect x="656.8" y="350" width="6" height="10" rx="1.5" fill="none" stroke="#2a78d6" stroke-width="0.8"></rect><rect x="667.5" y="350" width="6" height="10" rx="1.5" fill="none" stroke="#2a78d6" stroke-width="0.8"></rect><rect x="678.2" y="350" width="6" height="10" rx="1.5" fill="none" stroke="#2a78d6" stroke-width="0.8"></rect><rect x="688.9" y="350" width="6" height="10" rx="1.5" fill="none" stroke="#2a78d6" stroke-width="0.8"></rect><rect x="699.6" y="350" width="6" height="10" rx="1.5" fill="none" stroke="#2a78d6" stroke-width="0.8"></rect><rect x="710.3" y="350" width="6" height="10" rx="1.5" fill="none" stroke="#2a78d6" stroke-width="0.8"></rect><rect x="721.0" y="350" width="6" height="10" rx="1.5" fill="none" stroke="#2a78d6" stroke-width="0.8"></rect><rect x="731.7" y="350" width="6" height="10" rx="1.5" fill="none" stroke="#2a78d6" stroke-width="0.8"></rect><rect x="742.4" y="350" width="6" height="10" rx="1.5" fill="none" stroke="#2a78d6" stroke-width="0.8"></rect><rect x="753.1" y="350" width="6" height="10" rx="1.5" fill="none" stroke="#2a78d6" stroke-width="0.8"></rect><rect x="763.8" y="350" width="6" height="10" rx="1.5" fill="none" stroke="#2a78d6" stroke-width="0.8"></rect><rect x="774.5" y="350" width="6" height="10" rx="1.5" fill="none" stroke="#2a78d6" stroke-width="0.8"></rect><rect x="785.2" y="350" width="6" height="10" rx="1.5" fill="none" stroke="#2a78d6" stroke-width="0.8"></rect><rect x="795.9" y="350" width="6" height="10" rx="1.5" fill="none" stroke="#2a78d6" stroke-width="0.8"></rect><rect x="806.6" y="350" width="6" height="10" rx="1.5" fill="none" stroke="#2a78d6" stroke-width="0.8"></rect><rect x="817.3" y="350" width="6" height="10" rx="1.5" fill="none" stroke="#2a78d6" stroke-width="0.8"></rect><rect x="828.0" y="350" width="6" height="10" rx="1.5" fill="none" stroke="#2a78d6" stroke-width="0.8"></rect><rect x="838.7" y="350" width="6" height="10" rx="1.5" fill="none" stroke="#2a78d6" stroke-width="0.8"></rect><rect x="849.4" y="350" width="6" height="10" rx="1.5" fill="none" stroke="#2a78d6" stroke-width="0.8"></rect><rect x="860.1" y="350" width="6" height="10" rx="1.5" fill="none" stroke="#2a78d6" stroke-width="0.8"></rect><rect x="870.8" y="350" width="6" height="10" rx="1.5" fill="none" stroke="#2a78d6" stroke-width="0.8"></rect><text x="212" y="385" font-size="9.5" fill="#52514e" font-weight="700">СЕРИЯ 2 · 2 ряда × 45 ванн</text><rect x="400.0" y="370" width="6" height="10" rx="1.5" fill="none" stroke="#2a78d6" stroke-width="0.8"></rect><rect x="410.7" y="370" width="6" height="10" rx="1.5" fill="none" stroke="#2a78d6" stroke-width="0.8"></rect><rect x="421.4" y="370" width="6" height="10" rx="1.5" fill="none" stroke="#2a78d6" stroke-width="0.8"></rect><rect x="432.1" y="370" width="6" height="10" rx="1.5" fill="none" stroke="#2a78d6" stroke-width="0.8"></rect><rect x="442.8" y="370" width="6" height="10" rx="1.5" fill="none" stroke="#2a78d6" stroke-width="0.8"></rect><rect x="453.5" y="370" width="6" height="10" rx="1.5" fill="none" stroke="#2a78d6" stroke-width="0.8"></rect><rect x="464.2" y="370" width="6" height="10" rx="1.5" fill="none" stroke="#2a78d6" stroke-width="0.8"></rect><rect x="474.9" y="370" width="6" height="10" rx="1.5" fill="none" stroke="#2a78d6" stroke-width="0.8"></rect><rect x="485.6" y="370" width="6" height="10" rx="1.5" fill="none" stroke="#2a78d6" stroke-width="0.8"></rect><rect x="496.3" y="370" width="6" height="10" rx="1.5" fill="none" stroke="#2a78d6" stroke-width="0.8"></rect><rect x="507.0" y="370" width="6" height="10" rx="1.5" fill="none" stroke="#2a78d6" stroke-width="0.8"></rect><rect x="517.7" y="370" width="6" height="10" rx="1.5" fill="none" stroke="#2a78d6" stroke-width="0.8"></rect><rect x="528.4" y="370" width="6" height="10" rx="1.5" fill="none" stroke="#2a78d6" stroke-width="0.8"></rect><rect x="539.1" y="370" width="6" height="10" rx="1.5" fill="none" stroke="#2a78d6" stroke-width="0.8"></rect><rect x="549.8" y="370" width="6" height="10" rx="1.5" fill="none" stroke="#2a78d6" stroke-width="0.8"></rect><rect x="560.5" y="370" width="6" height="10" rx="1.5" fill="none" stroke="#2a78d6" stroke-width="0.8"></rect><rect x="571.2" y="370" width="6" height="10" rx="1.5" fill="none" stroke="#2a78d6" stroke-width="0.8"></rect><rect x="581.9" y="370" width="6" height="10" rx="1.5" fill="none" stroke="#2a78d6" stroke-width="0.8"></rect><rect x="592.6" y="370" width="6" height="10" rx="1.5" fill="none" stroke="#2a78d6" stroke-width="0.8"></rect><rect x="603.3" y="370" width="6" height="10" rx="1.5" fill="none" stroke="#2a78d6" stroke-width="0.8"></rect><rect x="614.0" y="370" width="6" height="10" rx="1.5" fill="none" stroke="#2a78d6" stroke-width="0.8"></rect><rect x="624.7" y="370" width="6" height="10" rx="1.5" fill="none" stroke="#2a78d6" stroke-width="0.8"></rect><rect x="635.4" y="370" width="6" height="10" rx="1.5" fill="none" stroke="#2a78d6" stroke-width="0.8"></rect><rect x="646.1" y="370" width="6" height="10" rx="1.5" fill="none" stroke="#2a78d6" stroke-width="0.8"></rect><rect x="656.8" y="370" width="6" height="10" rx="1.5" fill="none" stroke="#2a78d6" stroke-width="0.8"></rect><rect x="667.5" y="370" width="6" height="10" rx="1.5" fill="none" stroke="#2a78d6" stroke-width="0.8"></rect><rect x="678.2" y="370" width="6" height="10" rx="1.5" fill="none" stroke="#2a78d6" stroke-width="0.8"></rect><rect x="688.9" y="370" width="6" height="10" rx="1.5" fill="none" stroke="#2a78d6" stroke-width="0.8"></rect><rect x="699.6" y="370" width="6" height="10" rx="1.5" fill="none" stroke="#2a78d6" stroke-width="0.8"></rect><rect x="710.3" y="370" width="6" height="10" rx="1.5" fill="none" stroke="#2a78d6" stroke-width="0.8"></rect><rect x="721.0" y="370" width="6" height="10" rx="1.5" fill="none" stroke="#2a78d6" stroke-width="0.8"></rect><rect x="731.7" y="370" width="6" height="10" rx="1.5" fill="none" stroke="#2a78d6" stroke-width="0.8"></rect><rect x="742.4" y="370" width="6" height="10" rx="1.5" fill="none" stroke="#2a78d6" stroke-width="0.8"></rect><rect x="753.1" y="370" width="6" height="10" rx="1.5" fill="none" stroke="#2a78d6" stroke-width="0.8"></rect><rect x="763.8" y="370" width="6" height="10" rx="1.5" fill="none" stroke="#2a78d6" stroke-width="0.8"></rect><rect x="774.5" y="370" width="6" height="10" rx="1.5" fill="none" stroke="#2a78d6" stroke-width="0.8"></rect><rect x="785.2" y="370" width="6" height="10" rx="1.5" fill="none" stroke="#2a78d6" stroke-width="0.8"></rect><rect x="795.9" y="370" width="6" height="10" rx="1.5" fill="none" stroke="#2a78d6" stroke-width="0.8"></rect><rect x="806.6" y="370" width="6" height="10" rx="1.5" fill="none" stroke="#2a78d6" stroke-width="0.8"></rect><rect x="817.3" y="370" width="6" height="10" rx="1.5" fill="none" stroke="#2a78d6" stroke-width="0.8"></rect><rect x="828.0" y="370" width="6" height="10" rx="1.5" fill="none" stroke="#2a78d6" stroke-width="0.8"></rect><rect x="838.7" y="370" width="6" height="10" rx="1.5" fill="none" stroke="#2a78d6" stroke-width="0.8"></rect><rect x="849.4" y="370" width="6" height="10" rx="1.5" fill="none" stroke="#2a78d6" stroke-width="0.8"></rect><rect x="860.1" y="370" width="6" height="10" rx="1.5" fill="none" stroke="#2a78d6" stroke-width="0.8"></rect><rect x="870.8" y="370" width="6" height="10" rx="1.5" fill="none" stroke="#2a78d6" stroke-width="0.8"></rect><rect x="400.0" y="384" width="6" height="10" rx="1.5" fill="none" stroke="#2a78d6" stroke-width="0.8"></rect><rect x="410.7" y="384" width="6" height="10" rx="1.5" fill="none" stroke="#2a78d6" stroke-width="0.8"></rect><rect x="421.4" y="384" width="6" height="10" rx="1.5" fill="none" stroke="#2a78d6" stroke-width="0.8"></rect><rect x="432.1" y="384" width="6" height="10" rx="1.5" fill="none" stroke="#2a78d6" stroke-width="0.8"></rect><rect x="442.8" y="384" width="6" height="10" rx="1.5" fill="none" stroke="#2a78d6" stroke-width="0.8"></rect><rect x="453.5" y="384" width="6" height="10" rx="1.5" fill="none" stroke="#2a78d6" stroke-width="0.8"></rect><rect x="464.2" y="384" width="6" height="10" rx="1.5" fill="none" stroke="#2a78d6" stroke-width="0.8"></rect><rect x="474.9" y="384" width="6" height="10" rx="1.5" fill="none" stroke="#2a78d6" stroke-width="0.8"></rect><rect x="485.6" y="384" width="6" height="10" rx="1.5" fill="none" stroke="#2a78d6" stroke-width="0.8"></rect><rect x="496.3" y="384" width="6" height="10" rx="1.5" fill="none" stroke="#2a78d6" stroke-width="0.8"></rect><rect x="507.0" y="384" width="6" height="10" rx="1.5" fill="none" stroke="#2a78d6" stroke-width="0.8"></rect><rect x="517.7" y="384" width="6" height="10" rx="1.5" fill="none" stroke="#2a78d6" stroke-width="0.8"></rect><rect x="528.4" y="384" width="6" height="10" rx="1.5" fill="none" stroke="#2a78d6" stroke-width="0.8"></rect><rect x="539.1" y="384" width="6" height="10" rx="1.5" fill="none" stroke="#2a78d6" stroke-width="0.8"></rect><rect x="549.8" y="384" width="6" height="10" rx="1.5" fill="none" stroke="#2a78d6" stroke-width="0.8"></rect><rect x="560.5" y="384" width="6" height="10" rx="1.5" fill="none" stroke="#2a78d6" stroke-width="0.8"></rect><rect x="571.2" y="384" width="6" height="10" rx="1.5" fill="none" stroke="#2a78d6" stroke-width="0.8"></rect><rect x="581.9" y="384" width="6" height="10" rx="1.5" fill="none" stroke="#2a78d6" stroke-width="0.8"></rect><rect x="592.6" y="384" width="6" height="10" rx="1.5" fill="none" stroke="#2a78d6" stroke-width="0.8"></rect><rect x="603.3" y="384" width="6" height="10" rx="1.5" fill="none" stroke="#2a78d6" stroke-width="0.8"></rect><rect x="614.0" y="384" width="6" height="10" rx="1.5" fill="none" stroke="#2a78d6" stroke-width="0.8"></rect><rect x="624.7" y="384" width="6" height="10" rx="1.5" fill="none" stroke="#2a78d6" stroke-width="0.8"></rect><rect x="635.4" y="384" width="6" height="10" rx="1.5" fill="none" stroke="#2a78d6" stroke-width="0.8"></rect><rect x="646.1" y="384" width="6" height="10" rx="1.5" fill="none" stroke="#2a78d6" stroke-width="0.8"></rect><rect x="656.8" y="384" width="6" height="10" rx="1.5" fill="none" stroke="#2a78d6" stroke-width="0.8"></rect><rect x="667.5" y="384" width="6" height="10" rx="1.5" fill="none" stroke="#2a78d6" stroke-width="0.8"></rect><rect x="678.2" y="384" width="6" height="10" rx="1.5" fill="none" stroke="#2a78d6" stroke-width="0.8"></rect><rect x="688.9" y="384" width="6" height="10" rx="1.5" fill="none" stroke="#2a78d6" stroke-width="0.8"></rect><rect x="699.6" y="384" width="6" height="10" rx="1.5" fill="none" stroke="#2a78d6" stroke-width="0.8"></rect><rect x="710.3" y="384" width="6" height="10" rx="1.5" fill="none" stroke="#2a78d6" stroke-width="0.8"></rect><rect x="721.0" y="384" width="6" height="10" rx="1.5" fill="none" stroke="#2a78d6" stroke-width="0.8"></rect><rect x="731.7" y="384" width="6" height="10" rx="1.5" fill="none" stroke="#2a78d6" stroke-width="0.8"></rect><rect x="742.4" y="384" width="6" height="10" rx="1.5" fill="none" stroke="#2a78d6" stroke-width="0.8"></rect><rect x="753.1" y="384" width="6" height="10" rx="1.5" fill="none" stroke="#2a78d6" stroke-width="0.8"></rect><rect x="763.8" y="384" width="6" height="10" rx="1.5" fill="none" stroke="#2a78d6" stroke-width="0.8"></rect><rect x="774.5" y="384" width="6" height="10" rx="1.5" fill="none" stroke="#2a78d6" stroke-width="0.8"></rect><rect x="785.2" y="384" width="6" height="10" rx="1.5" fill="none" stroke="#2a78d6" stroke-width="0.8"></rect><rect x="795.9" y="384" width="6" height="10" rx="1.5" fill="none" stroke="#2a78d6" stroke-width="0.8"></rect><rect x="806.6" y="384" width="6" height="10" rx="1.5" fill="none" stroke="#2a78d6" stroke-width="0.8"></rect><rect x="817.3" y="384" width="6" height="10" rx="1.5" fill="none" stroke="#2a78d6" stroke-width="0.8"></rect><rect x="828.0" y="384" width="6" height="10" rx="1.5" fill="none" stroke="#2a78d6" stroke-width="0.8"></rect><rect x="838.7" y="384" width="6" height="10" rx="1.5" fill="none" stroke="#2a78d6" stroke-width="0.8"></rect><rect x="849.4" y="384" width="6" height="10" rx="1.5" fill="none" stroke="#2a78d6" stroke-width="0.8"></rect><rect x="860.1" y="384" width="6" height="10" rx="1.5" fill="none" stroke="#2a78d6" stroke-width="0.8"></rect><rect x="870.8" y="384" width="6" height="10" rx="1.5" fill="none" stroke="#2a78d6" stroke-width="0.8"></rect><text x="550" y="412" font-size="9.5" fill="#52514e" text-anchor="middle">84 катодные матрицы 316L (1000 × 1000 × 3,25 мм) + 85 анодов Pb–Ca–Sn (940 × 952 × 6 мм), шаг электродов 95 мм</text><text x="550" y="424" font-size="9.5" fill="#52514e" text-anchor="middle">j = 252,7 А/м² факт (280 А/м² ном) · U ванны 2,05 В (макс 2,5) · выход по току 89 % · съём меди 5,0 кг/м³ (40 → 35)</text><text x="550" y="436" font-size="9.5" fill="#52514e" text-anchor="middle">44,81 кг Cu/ч с ванны, 8066,1 кг/ч по отделению · цикл наращивания 6–7 сут, катод 76,8–89,7 кг · КИО 98 %, 8584,8 ч/год</text><text x="550" y="448" font-size="9.5" fill="#52514e" text-anchor="middle">ванна полимербетонная, внутренние габариты 8485 × 1155 × 1650 мм · дно с уклоном к донной пробке, укрытие с бортовым отсосом</text><text x="550" y="462" font-size="8.5" fill="#898781" text-anchor="middle">ИД ч.2 табл. 3.1, 4.2, прил. В (проект ДЕЛЬТА); расчёт БИ</text><rect x="930" y="308" width="240" height="70" rx="7" fill="none" stroke="#fab219" stroke-width="1.6" stroke-dasharray="6 3"></rect><text x="1050" y="326" font-size="11.5" fill="#0b0b0b" font-weight="700" text-anchor="middle">ВЫПРЯМИТЕЛЬНЫЕ АГРЕГАТЫ</text><text x="1050" y="340" font-size="9.5" fill="#52514e" text-anchor="middle">3 × 47,0 кА / 227 (250) В</text><text x="1050" y="352" font-size="9.5" fill="#52514e" text-anchor="middle">2 рабочих + резервный на серию</text><text x="1050" y="364" font-size="9.5" fill="#52514e" text-anchor="middle">JIC-08 · Modbus TCP · вне БИ</text><text x="1050" y="369" font-size="8.5" fill="#898781" text-anchor="middle">ИД ч.2 табл. 4.2, п. 4.2.2</text><rect x="930" y="392" width="240" height="80" rx="7" fill="none" stroke="#fab219" stroke-width="1.6"></rect><text x="1050" y="410" font-size="11.5" fill="#0b0b0b" font-weight="700" text-anchor="middle">ОШИНОВКА ВАНН — ЛОТ №3</text><text x="1050" y="424" font-size="9.5" fill="#52514e" text-anchor="middle">комплект на 180 ванн, двойной контакт</text><text x="1050" y="436" font-size="9.5" fill="#52514e" text-anchor="middle">I 42,45 кА факт (47,0 кА ном)</text><text x="1050" y="448" font-size="9.5" fill="#52514e" text-anchor="middle">U серии 190 В ном, ≤ 225 В макс</text><text x="1050" y="460" font-size="9.5" fill="#52514e" text-anchor="middle">P 8,06 МВт/серия · 16,1 МВт всего</text><text x="1050" y="463" font-size="8.5" fill="#898781" text-anchor="middle">ИД ч.2 табл. 3.1; расчёт БИ</text><path d="M 1050 378 L 1050 392" fill="none" stroke="#fab219" stroke-width="1.7" marker-end="url(#mkP3)"></path><path d="M 930 432 L 900 432" fill="none" stroke="#fab219" stroke-width="1.7" marker-end="url(#mkP3)"></path><text x="1050" y="386" font-size="9.3" fill="#fab219"></text><text x="928" y="426" font-size="9.3" fill="#fab219" text-anchor="end">1940 кВт·ч/т</text><path d="M 200 340 L 152 340 L 152 272" fill="none" stroke="#2a78d6" stroke-width="1.7" marker-end="url(#mkP3)"></path><text x="144" y="380" font-size="9.3" fill="#2a78d6" text-anchor="middle" transform="rotate(-90 144 380)">бедный электролит 1600–1650 м³/ч</text><rect x="300" y="500" width="300" height="78" rx="7" fill="none" stroke="#a34e9e" stroke-width="1.6" stroke-dasharray="6 3"></rect><text x="450" y="518" font-size="11.5" fill="#0b0b0b" font-weight="700" text-anchor="middle">АСПИРАЦИЯ УКРЫТИЙ ВАНН</text><text x="450" y="532" font-size="9.5" fill="#52514e" text-anchor="middle">180 укрытий: колпак + бортовой отсос</text><text x="450" y="544" font-size="9.5" fill="#52514e" text-anchor="middle">граница 5.2.4 — фланец отсоса укрытия</text><text x="450" y="556" font-size="9.5" fill="#52514e" text-anchor="middle">скруббер; стоки — назад в циркуляцию</text><text x="450" y="568" font-size="9.5" fill="#52514e" text-anchor="middle">расход — совместное определение, вне БИ</text><text x="450" y="569" font-size="8.5" fill="#898781" text-anchor="middle">ТЗ п. 5.2; ИД ч.2 п. 4.1.2, 4.2.2</text><rect x="624" y="500" width="270" height="78" rx="7" fill="none" stroke="#a34e9e" stroke-width="1.6" stroke-dasharray="6 3"></rect><text x="759" y="518" font-size="11.5" fill="#0b0b0b" font-weight="700" text-anchor="middle">ВЕНТИЛЯЦИЯ И СРЕДА ЗАЛА</text><text x="759" y="532" font-size="9.5" fill="#52514e" text-anchor="middle">тепло в зал ≈1,5–1,6 МВт (≈230 Вт/м²)</text><text x="759" y="544" font-size="9.5" fill="#52514e" text-anchor="middle">аэрозоль H2SO4 цель &lt; 0,2 мг/м³</text><text x="759" y="556" font-size="9.5" fill="#52514e" text-anchor="middle">+12…+24 °С, влажность &gt; 75 %</text><text x="759" y="568" font-size="9.5" fill="#52514e" text-anchor="middle">общеобменная вентиляция — вне БИ</text><text x="759" y="569" font-size="8.5" fill="#898781" text-anchor="middle">расчёт БИ; ИД ч.2 прил. В; ГОСТ 12.1.005-88</text><rect x="918" y="500" width="252" height="78" rx="7" fill="none" stroke="#898781" stroke-width="1.6"></rect><text x="1044" y="518" font-size="11.5" fill="#0b0b0b" font-weight="700" text-anchor="middle">ЧИСТКА ВАНН ОТ Pb-ШЛАМА</text><text x="1044" y="532" font-size="9.5" fill="#52514e" text-anchor="middle">не чаще 1 раза в год на ванну</text><text x="1044" y="544" font-size="9.5" fill="#52514e" text-anchor="middle">шлам 1,44 т/ванну; 25,9–30 т/год (сух.)</text><text x="1044" y="556" font-size="9.5" fill="#52514e" text-anchor="middle">промывка 2 м³/т, 40–70 °С</text><text x="1044" y="568" font-size="9.5" fill="#52514e" text-anchor="middle">нутч-фильтр вне БИ; фильтрат — 4.1.21</text><text x="1044" y="569" font-size="8.5" fill="#898781" text-anchor="middle">ИД ч.2 п. 4.1.2, 4.2.2, табл. 3.1</text><path d="M 430 472 L 430 500" fill="none" stroke="#a34e9e" stroke-width="1.7" marker-end="url(#mkP3)"></path><text x="438" y="490" font-size="9.3" fill="#a34e9e">аэрозоли от 180 укрытий</text><path d="M 700 472 L 700 500" fill="none" stroke="#898781" stroke-width="1.7" marker-end="url(#mkP3)"></path><text x="708" y="490" font-size="9.3" fill="#898781">тепло и влага в зал</text><path d="M 862 472 L 862 486 L 1044 486 L 1044 500" fill="none" stroke="#898781" stroke-width="1.7" marker-end="url(#mkP3)"></path><text x="870" y="482" font-size="9.3" fill="#898781">свинцовый шлам</text><rect x="200" y="604" width="186" height="78" rx="7" fill="none" stroke="#898781" stroke-width="1.6"></rect><text x="293" y="622" font-size="11.5" fill="#0b0b0b" font-weight="700" text-anchor="middle">СПЕЦКРАНЫ (2 ШТ.)</text><text x="293" y="636" font-size="9.5" fill="#52514e" text-anchor="middle">борона 28 матриц</text><text x="293" y="648" font-size="9.5" fill="#52514e" text-anchor="middle">3 × 1/3 ванны за цикл</text><text x="293" y="660" font-size="9.5" fill="#52514e" text-anchor="middle">Q 16–20 т, режим ≥ А6/М7</text><text x="293" y="672" font-size="9.5" fill="#52514e" text-anchor="middle">≈28 обслуживаний ванн/сут</text><text x="293" y="673" font-size="8.5" fill="#898781" text-anchor="middle">ИД ч.2 п. 4.2.2; расчёт БИ</text><rect x="406" y="604" width="186" height="78" rx="7" fill="none" stroke="#2a78d6" stroke-width="1.6"></rect><text x="499" y="622" font-size="11.5" fill="#0b0b0b" font-weight="700" text-anchor="middle">ПРОМЫВКА КАТОДОВ</text><text x="499" y="636" font-size="9.5" fill="#52514e" text-anchor="middle">I ст. 25 м³/ч, 60–80 °С (обор.)</text><text x="499" y="648" font-size="9.5" fill="#52514e" text-anchor="middle">II ст. 4 м³/ч, 90–115 °С (свеж.)</text><text x="499" y="660" font-size="9.5" fill="#52514e" text-anchor="middle">камера с туманоуловителем</text><text x="499" y="672" font-size="9.5" fill="#52514e" text-anchor="middle">грязная вода (Cu ≥ 1,6 г/л) — в ГМО</text><text x="499" y="673" font-size="8.5" fill="#898781" text-anchor="middle">ИД ч.2 табл. 4.2, п. 4.2.2</text><rect x="612" y="604" width="196" height="78" rx="7" fill="none" stroke="#2a78d6" stroke-width="1.6"></rect><text x="710" y="622" font-size="11.5" fill="#0b0b0b" font-weight="700" text-anchor="middle">КСМ — СДИРКА КАТОДОВ</text><text x="710" y="636" font-size="9.5" fill="#52514e" text-anchor="middle">120 матриц/ч принято (расчёт 105)</text><text x="710" y="648" font-size="9.5" fill="#52514e" text-anchor="middle">SPLIT без сращивания кромки</text><text x="710" y="660" font-size="9.5" fill="#52514e" text-anchor="middle">оптконтроль матриц, разбраковка</text><text x="710" y="672" font-size="9.5" fill="#52514e" text-anchor="middle">125/105 кВт · роботы подачи</text><text x="710" y="673" font-size="8.5" fill="#898781" text-anchor="middle">ИД ч.2 табл. 4.2; ТЗ п. 5.3</text><rect x="828" y="604" width="170" height="78" rx="7" fill="none" stroke="#2a78d6" stroke-width="1.6"></rect><text x="913" y="622" font-size="11.5" fill="#0b0b0b" font-weight="700" text-anchor="middle">ПАКЕТИРОВАНИЕ И ВЕСЫ</text><text x="913" y="636" font-size="9.5" fill="#52514e" text-anchor="middle">пакет 2500 ± 50 кг</text><text x="913" y="648" font-size="9.5" fill="#52514e" text-anchor="middle">увязка тремя лентами</text><text x="913" y="660" font-size="9.5" fill="#52514e" text-anchor="middle">маркировка, пробоотбор</text><text x="913" y="672" font-size="9.5" fill="#52514e" text-anchor="middle">«перфорация» под СГП</text><text x="913" y="673" font-size="8.5" fill="#898781" text-anchor="middle">ТЗ ред. 4.1; ИД ч.2 табл. 4.2</text><rect x="1018" y="604" width="152" height="78" rx="7" fill="none" stroke="#0ca30c" stroke-width="1.6"></rect><text x="1094" y="622" font-size="11.5" fill="#0b0b0b" font-weight="700" text-anchor="middle">НА ЛОТ №4 — СГП</text><text x="1094" y="636" font-size="9.5" fill="#52514e" text-anchor="middle">передаточные ворота</text><text x="1094" y="648" font-size="9.5" fill="#52514e" text-anchor="middle">≈3,2 пакета/ч (77/сут)</text><text x="1094" y="660" font-size="9.5" fill="#52514e" text-anchor="middle">8066,1 кг Cu/ч</text><text x="1094" y="672" font-size="9.5" fill="#52514e" text-anchor="middle">М00к ГОСТ 859-2014</text><text x="1094" y="673" font-size="8.5" fill="#898781" text-anchor="middle">ТЗ ред. 4.1; расчёт БИ</text><path d="M 240 472 L 240 604" fill="none" stroke="#2a78d6" stroke-width="1.7" marker-end="url(#mkP3)"></path><text x="232" y="538" font-size="9.3" fill="#2a78d6" text-anchor="middle" transform="rotate(-90 232 538)">катоды на КСМ</text><path d="M 280 604 L 280 472" fill="none" stroke="#2a78d6" stroke-width="1.7" stroke-dasharray="5 4" marker-end="url(#mkP3)"></path><text x="291" y="538" font-size="9.3" fill="#2a78d6" text-anchor="middle" transform="rotate(-90 291 538)">матрицы обратно в ванны</text><path d="M 386 643 L 406 643" fill="none" stroke="#2a78d6" stroke-width="1.7" marker-end="url(#mkP3)"></path><path d="M 592 643 L 612 643" fill="none" stroke="#2a78d6" stroke-width="1.7" marker-end="url(#mkP3)"></path><path d="M 808 643 L 828 643" fill="none" stroke="#2a78d6" stroke-width="1.7" marker-end="url(#mkP3)"></path><path d="M 998 643 L 1018 643" fill="none" stroke="#0ca30c" stroke-width="1.7" marker-end="url(#mkP3)"></path><path d="M 499 682 L 499 700 L 60 700 L 60 272" fill="none" stroke="#2a78d6" stroke-width="1.7" marker-end="url(#mkP3)"></path><text x="52" y="480" font-size="9.3" fill="#2a78d6" text-anchor="middle" transform="rotate(-90 52 480)">промывные воды КСМ и аспирации — в циркуляцию</text><text x="20" y="716" font-size="10" fill="#898781">ЭСКИЗ — не для строительства · PFD Лот №3 «Отделение электроэкстракции» · источники: ИД ч.2 табл. 3.1, 4.2, 8.5, прил. В (проект ДЕЛЬТА), ТЗ ред. 4.1 п. 5.1–5.3, расчёт БИ · КВАНТ, черновик БИ</text></svg>
